<?xml version="1.0" encoding="UTF-8"?>
<!--Generator: Apple Native CoreSVG 149-->
<!DOCTYPE svg
PUBLIC "-//W3C//DTD SVG 1.1//EN"
       "http://www.w3.org/Graphics/SVG/1.1/DTD/svg11.dtd">
<svg version="1.1" xmlns="http://www.w3.org/2000/svg" xmlns:xlink="http://www.w3.org/1999/xlink" width="3300" height="2200">
 <!--glyph: "uni100356.medium", point size: 100.000000, font version: "Version 16.0d18e1", template writer version: "8"-->
 <g id="Notes">
  <rect height="2200" id="artboard" style="fill:white;opacity:1" width="3300" x="0" y="0"/>
  <line id="" style="fill:none;stroke:black;opacity:1;stroke-width:0.5;" x1="263" x2="3036" y1="292" y2="292"/>
  <text style="stroke:none;fill:black;font-family:-apple-system,&quot;SF Pro Display&quot;,&quot;SF Pro Text&quot;,Helvetica,sans-serif;font-weight:bold;" transform="matrix(1 0 0 1 263 322)">Weight/Scale Variations</text>
  <text style="stroke:none;fill:black;font-family:-apple-system,&quot;SF Pro Display&quot;,&quot;SF Pro Text&quot;,Helvetica,sans-serif;text-anchor:middle;" transform="matrix(1 0 0 1 559.711 322)">Ultralight</text>
  <text style="stroke:none;fill:black;font-family:-apple-system,&quot;SF Pro Display&quot;,&quot;SF Pro Text&quot;,Helvetica,sans-serif;text-anchor:middle;" transform="matrix(1 0 0 1 856.422 322)">Thin</text>
  <text style="stroke:none;fill:black;font-family:-apple-system,&quot;SF Pro Display&quot;,&quot;SF Pro Text&quot;,Helvetica,sans-serif;text-anchor:middle;" transform="matrix(1 0 0 1 1153.13 322)">Light</text>
  <text style="stroke:none;fill:black;font-family:-apple-system,&quot;SF Pro Display&quot;,&quot;SF Pro Text&quot;,Helvetica,sans-serif;text-anchor:middle;" transform="matrix(1 0 0 1 1449.84 322)">Regular</text>
  <text style="stroke:none;fill:black;font-family:-apple-system,&quot;SF Pro Display&quot;,&quot;SF Pro Text&quot;,Helvetica,sans-serif;text-anchor:middle;" transform="matrix(1 0 0 1 1746.56 322)">Medium</text>
  <text style="stroke:none;fill:black;font-family:-apple-system,&quot;SF Pro Display&quot;,&quot;SF Pro Text&quot;,Helvetica,sans-serif;text-anchor:middle;" transform="matrix(1 0 0 1 2043.27 322)">Semibold</text>
  <text style="stroke:none;fill:black;font-family:-apple-system,&quot;SF Pro Display&quot;,&quot;SF Pro Text&quot;,Helvetica,sans-serif;text-anchor:middle;" transform="matrix(1 0 0 1 2339.98 322)">Bold</text>
  <text style="stroke:none;fill:black;font-family:-apple-system,&quot;SF Pro Display&quot;,&quot;SF Pro Text&quot;,Helvetica,sans-serif;text-anchor:middle;" transform="matrix(1 0 0 1 2636.69 322)">Heavy</text>
  <text style="stroke:none;fill:black;font-family:-apple-system,&quot;SF Pro Display&quot;,&quot;SF Pro Text&quot;,Helvetica,sans-serif;text-anchor:middle;" transform="matrix(1 0 0 1 2933.4 322)">Black</text>
  <line id="" style="fill:none;stroke:black;opacity:1;stroke-width:0.5;" x1="263" x2="3036" y1="1903" y2="1903"/>
  <g id="" transform="matrix(1 0 0 1 263 1933)">
   <path d="M9.24805 0.830078C13.5547 0.830078 17.1387-2.74414 17.1387-7.05078C17.1387-11.3574 13.5449-14.9316 9.23828-14.9316C4.94141-14.9316 1.36719-11.3574 1.36719-7.05078C1.36719-2.74414 4.95117 0.830078 9.24805 0.830078ZM9.24805-0.654297C5.70312-0.654297 2.87109-3.49609 2.87109-7.05078C2.87109-10.6055 5.69336-13.4473 9.23828-13.4473C12.793-13.4473 15.6348-10.6055 15.6445-7.05078C15.6543-3.49609 12.8027-0.654297 9.24805-0.654297ZM6.39648-6.31836L8.50586-6.31836L8.50586-4.19922C8.50586-3.75977 8.79883-3.45703 9.22852-3.45703C9.67773-3.45703 9.9707-3.75977 9.9707-4.19922L9.9707-6.31836L12.0996-6.31836C12.5391-6.31836 12.8418-6.61133 12.8418-7.04102C12.8418-7.48047 12.5391-7.7832 12.0996-7.7832L9.9707-7.7832L9.9707-9.89258C9.9707-10.3418 9.67773-10.6445 9.22852-10.6445C8.79883-10.6445 8.50586-10.3418 8.50586-9.89258L8.50586-7.7832L6.39648-7.7832C5.94727-7.7832 5.64453-7.48047 5.64453-7.04102C5.64453-6.61133 5.94727-6.31836 6.39648-6.31836Z"/>
  </g>
  <g id="" transform="matrix(1 0 0 1 281.506 1933)">
   <path d="M11.709 2.91016C17.1582 2.91016 21.6699-1.61133 21.6699-7.05078C21.6699-12.5 17.1484-17.0117 11.6992-17.0117C6.25977-17.0117 1.74805-12.5 1.74805-7.05078C1.74805-1.61133 6.26953 2.91016 11.709 2.91016ZM11.709 1.25C7.09961 1.25 3.41797-2.44141 3.41797-7.05078C3.41797-11.6602 7.08984-15.3516 11.6992-15.3516C16.3086-15.3516 20-11.6602 20.0098-7.05078C20.0195-2.44141 16.3184 1.25 11.709 1.25ZM7.98828-6.23047L10.8789-6.23047L10.8789-3.32031C10.8789-2.83203 11.2109-2.5 11.6895-2.5C12.1777-2.5 12.5195-2.83203 12.5195-3.32031L12.5195-6.23047L15.4297-6.23047C15.918-6.23047 16.25-6.5625 16.25-7.04102C16.25-7.5293 15.918-7.87109 15.4297-7.87109L12.5195-7.87109L12.5195-10.7617C12.5195-11.2695 12.1777-11.6016 11.6895-11.6016C11.2109-11.6016 10.8789-11.2598 10.8789-10.7617L10.8789-7.87109L7.98828-7.87109C7.48047-7.87109 7.14844-7.5293 7.14844-7.04102C7.14844-6.5625 7.49023-6.23047 7.98828-6.23047Z"/>
  </g>
  <g id="" transform="matrix(1 0 0 1 304.924 1933)">
   <path d="M14.9707 5.66406C21.9336 5.66406 27.6953-0.0976562 27.6953-7.05078C27.6953-14.0137 21.9238-19.7754 14.9609-19.7754C8.00781-19.7754 2.25586-14.0137 2.25586-7.05078C2.25586-0.0976562 8.01758 5.66406 14.9707 5.66406ZM14.9707 3.84766C8.93555 3.84766 4.08203-1.01562 4.08203-7.05078C4.08203-13.0957 8.92578-17.9492 14.9609-17.9492C21.0059-17.9492 25.8594-13.0957 25.8691-7.05078C25.8789-1.01562 21.0156 3.84766 14.9707 3.84766ZM10.0586-6.14258L14.0625-6.14258L14.0625-2.12891C14.0625-1.5918 14.4336-1.2207 14.9512-1.2207C15.4883-1.2207 15.8594-1.5918 15.8594-2.12891L15.8594-6.14258L19.8828-6.14258C20.4102-6.14258 20.791-6.51367 20.791-7.03125C20.791-7.56836 20.4199-7.94922 19.8828-7.94922L15.8594-7.94922L15.8594-11.9531C15.8594-12.5098 15.4883-12.8809 14.9512-12.8809C14.4336-12.8809 14.0625-12.5 14.0625-11.9531L14.0625-7.94922L10.0586-7.94922C9.50195-7.94922 9.13086-7.56836 9.13086-7.03125C9.13086-6.51367 9.51172-6.14258 10.0586-6.14258Z"/>
  </g>
  <text style="stroke:none;fill:black;font-family:-apple-system,&quot;SF Pro Display&quot;,&quot;SF Pro Text&quot;,Helvetica,sans-serif;font-weight:bold;" transform="matrix(1 0 0 1 263 1953)">Design Variations</text>
  <text style="stroke:none;fill:black;font-family:-apple-system,&quot;SF Pro Display&quot;,&quot;SF Pro Text&quot;,Helvetica,sans-serif;" transform="matrix(1 0 0 1 263 1971)">Symbols are supported in up to nine weights and three scales.</text>
  <text style="stroke:none;fill:black;font-family:-apple-system,&quot;SF Pro Display&quot;,&quot;SF Pro Text&quot;,Helvetica,sans-serif;" transform="matrix(1 0 0 1 263 1989)">For optimal layout with text and other symbols, vertically align</text>
  <text style="stroke:none;fill:black;font-family:-apple-system,&quot;SF Pro Display&quot;,&quot;SF Pro Text&quot;,Helvetica,sans-serif;" transform="matrix(1 0 0 1 263 2007)">symbols with the adjacent text.</text>
  <line id="" style="fill:none;stroke:#00AEEF;stroke-width:0.5;opacity:1.0;" x1="776" x2="776" y1="1919" y2="1933"/>
  <g id="" transform="matrix(1 0 0 1 776 1933)">
   <path d="M3.31055 0.126953C3.82812 0.126953 4.08203-0.0683594 4.26758-0.605469L5.52734-4.0625L11.2891-4.0625L12.5488-0.605469C12.7344-0.0683594 12.9883 0.126953 13.4961 0.126953C14.0137 0.126953 14.3457-0.185547 14.3457-0.673828C14.3457-0.839844 14.3164-0.986328 14.2383-1.20117L9.6582-13.3887C9.43359-13.9941 9.0332-14.2871 8.4082-14.2871C7.80273-14.2871 7.39258-13.9941 7.17773-13.3984L2.59766-1.19141C2.51953-0.976562 2.49023-0.830078 2.49023-0.664062C2.49023-0.175781 2.80273 0.126953 3.31055 0.126953ZM6.00586-5.53711L8.37891-12.1094L8.42773-12.1094L10.8008-5.53711Z"/>
  </g>
  <line id="" style="fill:none;stroke:#00AEEF;stroke-width:0.5;opacity:1.0;" x1="792.836" x2="792.836" y1="1919" y2="1933"/>
  <text style="stroke:none;fill:black;font-family:-apple-system,&quot;SF Pro Display&quot;,&quot;SF Pro Text&quot;,Helvetica,sans-serif;font-weight:bold;" transform="matrix(1 0 0 1 776 1953)">Margins</text>
  <text style="stroke:none;fill:black;font-family:-apple-system,&quot;SF Pro Display&quot;,&quot;SF Pro Text&quot;,Helvetica,sans-serif;" transform="matrix(1 0 0 1 776 1971)">Leading and trailing margins on the left and right side of each symbol</text>
  <text style="stroke:none;fill:black;font-family:-apple-system,&quot;SF Pro Display&quot;,&quot;SF Pro Text&quot;,Helvetica,sans-serif;" transform="matrix(1 0 0 1 776 1989)">can be adjusted by modifying the x-location of the margin guidelines.</text>
  <text style="stroke:none;fill:black;font-family:-apple-system,&quot;SF Pro Display&quot;,&quot;SF Pro Text&quot;,Helvetica,sans-serif;" transform="matrix(1 0 0 1 776 2007)">Modifications are automatically applied proportionally to all</text>
  <text style="stroke:none;fill:black;font-family:-apple-system,&quot;SF Pro Display&quot;,&quot;SF Pro Text&quot;,Helvetica,sans-serif;" transform="matrix(1 0 0 1 776 2025)">scales and weights.</text>
  <g id="" transform="matrix(1 0 0 1 1289 1933)">
   <path d="M2.8418 1.86523L4.54102 3.57422C5.40039 4.44336 6.38672 4.38477 7.31445 3.35938L17.4902-7.85156C17.7539-7.76367 18.0273-7.7832 18.3398-7.8418L19.4043-8.03711L20.0684-7.36328L20.0293-6.80664C19.9902-6.30859 20.1172-5.92773 20.6055-5.44922L21.3672-4.70703C21.8457-4.22852 22.4609-4.19922 22.9297-4.66797L25.8398-7.58789C26.3086-8.05664 26.2891-8.65234 25.8105-9.13086L25.0391-9.89258C24.5605-10.3711 24.1895-10.5273 23.7109-10.4883L23.1348-10.4395L22.4902-11.0742L22.7344-12.1973C22.8613-12.7637 22.7051-13.2031 22.1191-13.7891L19.9219-15.9766C16.582-19.2969 12.1484-19.2188 9.25781-16.3281C8.83789-15.918 8.80859-15.3418 9.04297-14.9512C9.27734-14.5898 9.73633-14.3555 10.3809-14.5215C11.8457-14.8633 13.3691-14.9219 14.7949-13.9844L14.209-12.5293C14.0137-12.0508 13.9844-11.6504 14.1113-11.2891L3.04688-0.898438C2.06055 0.0195312 1.98242 0.996094 2.8418 1.86523ZM10.752-15.957C13.1836-17.7344 16.4746-17.4316 18.7012-15.2051L21.1328-12.793C21.3672-12.5586 21.4062-12.373 21.3379-12.0312L21.0156-10.5469L22.5195-9.0625L23.5059-9.12109C23.7598-9.13086 23.8379-9.11133 24.0332-8.91602L24.6094-8.33984L22.168-5.89844L21.5918-6.47461C21.3965-6.66992 21.3672-6.74805 21.377-7.01172L21.4453-7.98828L19.9512-9.47266L18.4277-9.21875C18.1055-9.15039 17.959-9.17969 17.7148-9.41406L15.7129-11.416C15.459-11.6504 15.4297-11.8164 15.5859-12.1875L16.4648-14.2773C14.9023-15.7324 12.8711-16.3574 10.8398-15.7617C10.6836-15.7227 10.625-15.8496 10.752-15.957ZM5.27344 2.30469L4.10156 1.14258C3.63281 0.683594 3.74023 0.341797 4.14062-0.0195312L14.9512-10.1953L16.416-8.71094L6.42578 2.27539C6.07422 2.67578 5.74219 2.77344 5.27344 2.30469Z"/>
  </g>
  <text style="stroke:none;fill:black;font-family:-apple-system,&quot;SF Pro Display&quot;,&quot;SF Pro Text&quot;,Helvetica,sans-serif;font-weight:bold;" transform="matrix(1 0 0 1 1289 1953)">Exporting</text>
  <text style="stroke:none;fill:black;font-family:-apple-system,&quot;SF Pro Display&quot;,&quot;SF Pro Text&quot;,Helvetica,sans-serif;" transform="matrix(1 0 0 1 1289 1971)">Symbols should be outlined when exporting to ensure the</text>
  <text style="stroke:none;fill:black;font-family:-apple-system,&quot;SF Pro Display&quot;,&quot;SF Pro Text&quot;,Helvetica,sans-serif;" transform="matrix(1 0 0 1 1289 1989)">design is preserved when submitting to Xcode.</text>
  <text id="template-version" style="stroke:none;fill:black;font-family:-apple-system,&quot;SF Pro Display&quot;,&quot;SF Pro Text&quot;,Helvetica,sans-serif;text-anchor:end;" transform="matrix(1 0 0 1 3036 1933)">Template v.2.0</text>
  <text style="stroke:none;fill:black;font-family:-apple-system,&quot;SF Pro Display&quot;,&quot;SF Pro Text&quot;,Helvetica,sans-serif;text-anchor:end;" transform="matrix(1 0 0 1 3036 1951)">Requires Xcode 12 or greater</text>
  <text style="stroke:none;fill:black;font-family:-apple-system,&quot;SF Pro Display&quot;,&quot;SF Pro Text&quot;,Helvetica,sans-serif;text-anchor:end;" transform="matrix(1 0 0 1 3036 1969)">Generated from envelope.fill</text>
  <text style="stroke:none;fill:black;font-family:-apple-system,&quot;SF Pro Display&quot;,&quot;SF Pro Text&quot;,Helvetica,sans-serif;text-anchor:end;" transform="matrix(1 0 0 1 3036 1987)">Typeset at 100 points</text>
  <text style="stroke:none;fill:black;font-family:-apple-system,&quot;SF Pro Display&quot;,&quot;SF Pro Text&quot;,Helvetica,sans-serif;" transform="matrix(1 0 0 1 263 726)">Small</text>
  <text style="stroke:none;fill:black;font-family:-apple-system,&quot;SF Pro Display&quot;,&quot;SF Pro Text&quot;,Helvetica,sans-serif;" transform="matrix(1 0 0 1 263 1156)">Medium</text>
  <text style="stroke:none;fill:black;font-family:-apple-system,&quot;SF Pro Display&quot;,&quot;SF Pro Text&quot;,Helvetica,sans-serif;" transform="matrix(1 0 0 1 263 1586)">Large</text>
 </g>
 <g id="Guides">
  <g id="H-reference" style="fill:#27AAE1;stroke:none;" transform="matrix(1 0 0 1 339 696)">
   <path d="M0.976562 0L3.66211 0L12.9883-24.4629L45.752-24.4629L55.127 0L57.7637 0L30.6152-70.459L28.125-70.459ZM29.3457-67.1387L29.4434-67.1387L44.873-26.709L13.8672-26.709Z"/>
  </g>
  <line id="Baseline-S" style="fill:none;stroke:#27AAE1;opacity:1;stroke-width:0.5;" x1="263" x2="3036" y1="696" y2="696"/>
  <line id="Capline-S" style="fill:none;stroke:#27AAE1;opacity:1;stroke-width:0.5;" x1="263" x2="3036" y1="625.541" y2="625.541"/>
  <g id="H-reference" style="fill:#27AAE1;stroke:none;" transform="matrix(1 0 0 1 339 1126)">
   <path d="M0.976562 0L3.66211 0L12.9883-24.4629L45.752-24.4629L55.127 0L57.7637 0L30.6152-70.459L28.125-70.459ZM29.3457-67.1387L29.4434-67.1387L44.873-26.709L13.8672-26.709Z"/>
  </g>
  <line id="Baseline-M" style="fill:none;stroke:#27AAE1;opacity:1;stroke-width:0.5;" x1="263" x2="3036" y1="1126" y2="1126"/>
  <line id="Capline-M" style="fill:none;stroke:#27AAE1;opacity:1;stroke-width:0.5;" x1="263" x2="3036" y1="1055.54" y2="1055.54"/>
  <g id="H-reference" style="fill:#27AAE1;stroke:none;" transform="matrix(1 0 0 1 339 1556)">
   <path d="M0.976562 0L3.66211 0L12.9883-24.4629L45.752-24.4629L55.127 0L57.7637 0L30.6152-70.459L28.125-70.459ZM29.3457-67.1387L29.4434-67.1387L44.873-26.709L13.8672-26.709Z"/>
  </g>
  <line id="Baseline-L" style="fill:none;stroke:#27AAE1;opacity:1;stroke-width:0.5;" x1="263" x2="3036" y1="1556" y2="1556"/>
  <line id="Capline-L" style="fill:none;stroke:#27AAE1;opacity:1;stroke-width:0.5;" x1="263" x2="3036" y1="1485.54" y2="1485.54"/>
  <line id="left-margin" style="fill:none;stroke:#00AEEF;stroke-width:0.5;opacity:1.0;" x1="1383.49" x2="1383.49" y1="1030.79" y2="1150.12"/>
  <line id="right-margin" style="fill:none;stroke:#00AEEF;stroke-width:0.5;opacity:1.0;" x1="1516.2" x2="1516.2" y1="1030.79" y2="1150.12"/>
 </g>
 <g id="Symbols">
  <g id="Black-L" transform="matrix(1 0 0 1 2842.68 1556)">
   <path d="M90.7227-30.9082C93.6523-30.9082 96.1914-32.373 99.3164-35.498L154.639-91.0156C151.855-92.9199 147.461-93.8965 141.455-93.8965L39.3066-93.8965C33.5938-93.8965 29.3457-92.9688 26.709-91.0645L82.1289-35.498C85.2539-32.373 87.793-30.9082 90.7227-30.9082ZM18.1152 10.9863L65.5762-36.4746L18.7988-82.7637C16.9922-80.0781 16.0645-75.8789 16.0645-70.1172L16.0645-0.292969C16.0645 4.83398 16.7969 8.59375 18.1152 10.9863ZM163.33 11.0352C164.648 8.59375 165.381 4.83398 165.381-0.292969L165.381-70.1172C165.381-75.8301 164.404-80.0781 162.646-82.7637L115.869-36.4746ZM39.9902 23.5352L142.139 23.5352C148.438 23.5352 153.125 22.2656 156.006 19.9707L107.666-28.418L104.785-25.5371C100.146-20.9961 95.7031-18.8477 90.7227-18.8477C85.6934-18.8477 81.25-20.9961 76.6113-25.5371L73.7305-28.3691L25.4883 19.873C28.5156 22.2656 33.3496 23.5352 39.9902 23.5352Z"/>
  </g>
  <g id="Heavy-L" transform="matrix(1 0 0 1 2547.33 1556)">
   <path d="M89.4043-30.0781C92.2363-30.0781 94.7754-31.4941 97.7539-34.4727L152.979-89.6484C150.293-91.6992 145.898-92.7246 139.893-92.7246L37.9395-92.7246C32.3242-92.7246 28.2227-91.6992 25.6836-89.7949L81.0547-34.4727C84.0332-31.4941 86.5234-30.0781 89.4043-30.0781ZM18.0176 10.5469L64.8438-36.084L18.5059-81.8848C16.8945-79.4434 16.0645-75.4883 16.0645-70.0684L16.0645-0.292969C16.0645 4.6875 16.748 8.25195 18.0176 10.5469ZM160.742 10.498C161.963 8.20312 162.646 4.63867 162.646-0.292969L162.646-70.0684C162.646-75.4395 161.816-79.3945 160.205-81.7871L113.965-36.084ZM38.8184 22.3633L140.723 22.3633C146.826 22.3633 151.27 21.1426 154.004 18.8477L106.348-28.6133L103.076-25.3906C98.584-20.9961 94.2383-18.8965 89.4043-18.8965C84.5215-18.8965 80.1758-20.9961 75.6836-25.3906L72.4121-28.5645L24.8535 18.7988C27.6855 21.0938 32.373 22.3633 38.8184 22.3633Z"/>
  </g>
  <g id="Bold-L" transform="matrix(1 0 0 1 2252.16 1556)">
   <path d="M87.9395-29.1504C90.6738-29.1504 93.1641-30.4688 96.0449-33.3496L151.074-88.1348C148.535-90.2832 144.189-91.3574 138.135-91.3574L36.4258-91.3574C30.9082-91.3574 26.9043-90.332 24.5605-88.3301L79.7852-33.3496C82.666-30.5176 85.1562-29.1504 87.9395-29.1504ZM17.9199 10.0098L64.0137-35.6934L18.1641-80.9082C16.7969-78.7109 16.0645-75.0977 16.0645-70.0195L16.0645-0.292969C16.0645 4.49219 16.6992 7.91016 17.9199 10.0098ZM157.812 9.91211C158.984 7.8125 159.57 4.39453 159.57-0.292969L159.57-70.0195C159.57-75 158.887-78.5645 157.52-80.7617L111.816-35.6934ZM37.5 20.9961L139.209 20.9961C145.02 20.9961 149.219 19.8242 151.709 17.627L104.834-28.8574L101.221-25.1953C96.8262-20.9961 92.627-18.9941 87.9395-18.9941C83.2031-18.9941 78.9551-20.9961 74.6094-25.1953L70.9473-28.8086L24.1699 17.627C26.8066 19.8242 31.2988 20.9961 37.5 20.9961Z"/>
  </g>
  <g id="Semibold-L" transform="matrix(1 0 0 1 1956.5 1556)">
   <path d="M86.9141-28.5156C89.5996-28.5156 92.0898-29.834 94.873-32.6172L149.756-87.0605C147.363-89.3066 143.018-90.4297 136.914-90.4297L35.4004-90.4297C29.9316-90.4297 26.0254-89.4043 23.7793-87.3047L78.9551-32.6172C81.6895-29.834 84.2285-28.5156 86.9141-28.5156ZM17.8711 9.66797L63.4277-35.4004L17.9688-80.2246C16.6992-78.1738 16.0645-74.8047 16.0645-70.0195L16.0645-0.341797C16.0645 4.3457 16.6992 7.66602 17.8711 9.66797ZM155.762 9.52148C156.885 7.51953 157.471 4.24805 157.471-0.341797L157.471-70.0195C157.471-74.6582 156.836-78.0273 155.664-80.0293L110.352-35.4004ZM36.6211 20.0684L138.135 20.0684C143.799 20.0684 147.803 18.9453 150.098 16.7969L103.809-29.0039L99.9023-25.0977C95.6543-20.9961 91.5039-19.043 86.9141-19.043C82.3242-19.043 78.125-20.9961 73.877-25.0977L69.9707-28.9551L23.6816 16.7969C26.1719 18.9453 30.5176 20.0684 36.6211 20.0684Z"/>
  </g>
  <g id="Medium-L" transform="matrix(1 0 0 1 1660.59 1556)">
   <path d="M86.1328-28.0762C88.7695-28.0762 91.2598-29.2969 93.9453-32.0312L148.779-86.2793C146.436-88.5742 142.139-89.6973 135.986-89.6973L34.6191-89.6973C29.1992-89.6973 25.3418-88.6719 23.1934-86.5723L78.2715-32.0312C80.957-29.3457 83.4961-28.0762 86.1328-28.0762ZM17.8223 9.375L62.9883-35.1562L17.7734-79.6875C16.6504-77.7832 16.0645-74.5605 16.0645-69.9707L16.0645-0.341797C16.0645 4.24805 16.6504 7.4707 17.8223 9.375ZM154.248 9.17969C155.322 7.27539 155.859 4.15039 155.859-0.341797L155.859-69.9707C155.859-74.4141 155.322-77.6367 154.248-79.4434L109.229-35.1562ZM35.9375 19.3848L137.305 19.3848C142.871 19.3848 146.729 18.2617 148.926 16.1621L103.027-29.1016L98.9258-25C94.7266-20.9961 90.625-19.043 86.1328-19.043C81.6406-19.043 77.5391-20.9961 73.3398-25L69.1895-29.1016L23.291 16.1621C25.7324 18.3105 29.9316 19.3848 35.9375 19.3848Z"/>
  </g>
  <g id="Regular-L" transform="matrix(1 0 0 1 1364.91 1556)">
   <path d="M85.1074-27.4414C87.6953-27.4414 90.1855-28.6133 92.7734-31.25L147.51-85.2539C145.215-87.5977 140.967-88.7695 134.766-88.7695L33.5938-88.7695C28.2227-88.7695 24.4629-87.6953 22.4121-85.5957L77.4414-31.25C80.0293-28.6621 82.5684-27.4414 85.1074-27.4414ZM17.7734 9.0332L62.4512-34.8633L17.5781-79.0039C16.6016-77.2949 16.0645-74.2676 16.0645-69.9707L16.0645-0.341797C16.0645 4.10156 16.6504 7.22656 17.7734 9.0332ZM152.246 8.78906C153.271 7.03125 153.809 3.95508 153.809-0.341797L153.809-69.9707C153.809-74.1211 153.32-77.0508 152.393-78.7598L107.764-34.8633ZM35.0586 18.457L136.279 18.457C141.65 18.457 145.312 17.3828 147.363 15.332L102.051-29.248L97.6074-24.9023C93.5547-20.9961 89.502-19.0918 85.1074-19.0918C80.7129-19.0918 76.709-20.9961 72.6074-24.9023L68.2129-29.248L22.8516 15.332C25.0977 17.4316 29.1992 18.457 35.0586 18.457Z"/>
  </g>
  <g id="Light-L" transform="matrix(1 0 0 1 1069.15 1556)">
   <path d="M84.2773-26.7578C86.8164-26.7578 89.3555-27.9785 91.7969-30.4199L146.387-84.082C144.238-86.5723 140.039-87.8418 133.936-87.8418L33.1055-87.8418C27.6367-87.8418 23.8281-86.7188 21.7773-84.4727L76.7578-30.4199C79.1504-28.0273 81.7871-26.7578 84.2773-26.7578ZM17.8711 9.0332L62.8418-34.6191L17.627-78.8574C16.6016-77.1973 16.0645-74.2676 16.0645-69.9707L16.0645-0.292969C16.0645 4.15039 16.6992 7.32422 17.8711 9.0332ZM150.293 8.69141C151.367 6.98242 151.904 3.95508 151.904-0.292969L151.904-69.9707C151.904-74.0234 151.416-76.8555 150.488-78.4668L105.762-34.6191ZM34.0332 17.5293L134.863 17.5293C140.332 17.5293 144.092 16.4551 146.094 14.2578L100.83-29.834L96.1426-25.1953C92.334-21.582 88.4277-19.7754 84.2773-19.7754C80.1758-19.7754 76.2207-21.582 72.4121-25.1953L67.7246-29.834L22.2656 14.4531C24.4141 16.5039 28.3203 17.5293 34.0332 17.5293Z"/>
  </g>
  <g id="Thin-L" transform="matrix(1 0 0 1 773.683 1556)">
   <path d="M83.2031-25.9277C85.6934-25.9277 88.3301-27.1484 90.5273-29.3457L144.873-82.5684C142.92-85.2539 138.867-86.5723 132.812-86.5723L32.4707-86.5723C26.8066-86.5723 22.9492-85.4004 20.9961-83.0566L75.8301-29.3457C77.9785-27.1973 80.7617-25.9277 83.2031-25.9277ZM18.0664 9.08203L63.3301-34.2285L17.7246-78.6621C16.6016-77.0996 16.0645-74.2188 16.0645-70.0195L16.0645-0.244141C16.0645 4.24805 16.748 7.42188 18.0664 9.08203ZM147.705 8.49609C148.877 6.88477 149.414 3.95508 149.414-0.244141L149.414-70.0195C149.414-73.9258 148.926-76.6113 147.998-78.0762L103.076-34.2285ZM32.666 16.3574L133.008 16.3574C138.672 16.3574 142.432 15.1855 144.385 12.8418L99.2676-30.5176L94.1895-25.5859C90.7715-22.3633 86.9629-20.6543 83.2031-20.6543C79.3945-20.6543 75.5859-22.3633 72.168-25.5859L67.1387-30.5176L21.582 13.2324C23.4863 15.332 27.1973 16.3574 32.666 16.3574Z"/>
  </g>
  <g id="Ultralight-L" transform="matrix(1 0 0 1 477.607 1556)">
   <path d="M82.6172-25.4883C85.1074-25.4883 87.793-26.709 89.8926-28.8086L144.141-81.7871C142.236-84.5703 138.232-85.9375 132.227-85.9375L32.1289-85.9375C26.416-85.9375 22.5098-84.7168 20.6055-82.3242L75.3418-28.8086C77.3926-26.7578 80.2246-25.4883 82.6172-25.4883ZM18.1641 9.13086L63.5742-34.0332L17.7734-78.5645C16.6504-77.0508 16.0645-74.1699 16.0645-70.0195L16.0645-0.195312C16.0645 4.29688 16.7969 7.4707 18.1641 9.13086ZM146.338 8.44727C147.559 6.83594 148.145 3.95508 148.145-0.195312L148.145-70.0195C148.145-73.8281 147.656-76.4648 146.729-77.8809L101.66-34.0332ZM31.9824 15.7227L132.031 15.7227C137.793 15.7227 141.602 14.502 143.506 12.1094L98.4375-30.9082L93.1641-25.7812C89.9902-22.7539 86.2305-21.0938 82.6172-21.0938C79.0039-21.0938 75.2441-22.7539 72.0703-25.7812L66.7969-30.9082L21.1914 12.5977C22.998 14.6973 26.6602 15.7227 31.9824 15.7227Z"/>
  </g>
  <g id="Black-M" transform="matrix(1 0 0 1 2861.74 1126)">
   <path d="M71.6309-32.666C74.0234-32.666 76.0254-33.8379 78.5156-36.3281L121.533-79.6875C119.287-81.1035 115.869-81.8359 111.328-81.8359L32.0312-81.8359C27.3926-81.8359 23.9746-81.1035 21.7773-79.6875L64.7461-36.3281C67.2852-33.8379 69.2871-32.666 71.6309-32.666ZM129.053 1.26953C130.225-0.830078 130.859-3.90625 130.859-8.10547L130.859-62.3047C130.859-67.1875 129.932-70.8496 128.32-73.1934L91.3086-36.5234ZM14.209 1.26953L52.002-36.5234L14.9902-73.1934C13.3301-70.8496 12.4512-67.1875 12.4512-62.3047L12.4512-8.10547C12.4512-3.90625 13.0859-0.830078 14.209 1.26953ZM31.9824 11.4746L111.279 11.4746C116.553 11.4746 120.508 10.4004 122.998 8.44727L84.5703-29.9805L82.666-28.0762C79.0527-24.5117 75.5859-22.8027 71.6309-22.8027C67.7246-22.8027 64.1602-24.5117 60.5469-28.0762L58.6426-29.8828L20.2637 8.44727C22.8027 10.4004 26.709 11.4746 31.9824 11.4746Z"/>
  </g>
  <g id="Heavy-M" transform="matrix(1 0 0 1 2566.3 1126)">
   <path d="M70.4102-31.9336C72.7051-31.9336 74.6582-33.0566 77.0996-35.4492L119.971-78.4668C117.822-79.9805 114.404-80.7617 109.814-80.7617L30.6641-80.7617C26.1719-80.7617 22.8516-80.0293 20.8008-78.5156L63.7207-35.4492C66.1621-33.0566 68.1152-31.9336 70.4102-31.9336ZM14.0625 0.732422L51.123-36.1816L14.6484-72.2656C13.2324-70.166 12.4512-66.7969 12.4512-62.2559L12.4512-8.10547C12.4512-4.10156 13.0371-1.17188 14.0625 0.732422ZM126.709 0.732422C127.783-1.2207 128.32-4.10156 128.32-8.10547L128.32-62.2559C128.32-66.7969 127.588-70.1172 126.172-72.2168L89.7461-36.1816ZM31.0059 10.3516L110.107 10.3516C115.088 10.3516 118.799 9.375 121.094 7.51953L83.4473-30.0293L81.25-27.832C77.6855-24.3652 74.2676-22.7051 70.4102-22.7051C66.5527-22.7051 63.0859-24.3652 59.5703-27.832L57.3242-29.9805L19.7266 7.51953C22.1191 9.375 25.8789 10.3516 31.0059 10.3516Z"/>
  </g>
  <g id="Bold-M" transform="matrix(1 0 0 1 2270.98 1126)">
   <path d="M69.043-31.1035C71.2402-31.1035 73.1934-32.1777 75.4883-34.4727L118.262-77.1484C116.211-78.7598 112.793-79.541 108.105-79.541L29.1504-79.541C24.8047-79.541 21.6309-78.8086 19.7266-77.2461L62.5977-34.4727C64.8926-32.1777 66.8457-31.1035 69.043-31.1035ZM13.9648 0.146484L50.0977-35.8398L14.2578-71.2402C13.0859-69.3359 12.4512-66.3574 12.4512-62.207L12.4512-8.1543C12.4512-4.3457 12.9883-1.61133 13.9648 0.146484ZM124.072 0.0976562C125.049-1.66016 125.537-4.3457 125.537-8.1543L125.537-62.207C125.537-66.3086 124.902-69.3359 123.73-71.1426L87.9883-35.8398ZM29.8828 9.17969L108.838 9.17969C113.525 9.17969 116.895 8.25195 118.945 6.49414L82.1777-30.127L79.5898-27.5391C76.123-24.1699 72.8027-22.6074 69.043-22.6074C65.2832-22.6074 61.9141-24.1699 58.4473-27.5391L55.8594-30.0781L19.1406 6.44531C21.3379 8.25195 24.9023 9.17969 29.8828 9.17969Z"/>
  </g>
  <g id="Semibold-M" transform="matrix(1 0 0 1 1975.22 1126)">
   <path d="M68.1152-30.5176C70.2148-30.5176 72.1191-31.543 74.3652-33.7891L117.041-76.2695C115.088-77.8809 111.719-78.7109 106.982-78.7109L28.125-78.7109C23.877-78.7109 20.8008-77.9297 18.9941-76.416L61.8164-33.7891C64.0625-31.543 65.9668-30.5176 68.1152-30.5176ZM13.8672-0.244141L49.4141-35.5469L14.0137-70.5078C12.9883-68.7988 12.4512-66.0645 12.4512-62.207L12.4512-8.20312C12.4512-4.49219 12.9395-1.85547 13.8672-0.244141ZM122.266-0.292969C123.145-1.95312 123.633-4.54102 123.633-8.20312L123.633-62.207C123.633-65.9668 123.096-68.75 122.07-70.4102L86.7676-35.5469ZM29.1016 8.34961L107.959 8.34961C112.402 8.34961 115.576 7.4707 117.48 5.81055L81.2988-30.1758L78.4668-27.3926C75.0488-24.0723 71.7773-22.5098 68.1152-22.5098C64.4043-22.5098 61.1328-24.0723 57.7148-27.3926L54.8828-30.1758L18.75 5.76172C20.8008 7.4707 24.2676 8.34961 29.1016 8.34961Z"/>
  </g>
  <g id="Medium-M" transform="matrix(1 0 0 1 1679.25 1126)">
   <path d="M67.3828-30.127C69.4824-30.127 71.3379-31.1035 73.5352-33.3008L116.113-75.5371C114.209-77.2461 110.84-78.0762 106.104-78.0762L27.3438-78.0762C23.1445-78.0762 20.166-77.2949 18.457-75.7324L61.2305-33.3008C63.3789-31.1035 65.2832-30.127 67.3828-30.127ZM13.7695-0.585938L48.877-35.3516L13.8184-69.9707C12.9395-68.4082 12.4512-65.8203 12.4512-62.1582L12.4512-8.20312C12.4512-4.63867 12.8906-2.09961 13.7695-0.585938ZM120.898-0.634766C121.729-2.14844 122.168-4.6875 122.168-8.20312L122.168-62.1582C122.168-65.7227 121.68-68.3105 120.801-69.8242L85.8887-35.3516ZM28.5156 7.71484L107.275 7.71484C111.572 7.71484 114.6 6.88477 116.357 5.27344L80.6152-30.2246L77.5879-27.2461C74.2188-23.9746 70.9961-22.4121 67.3828-22.4121C63.7695-22.4121 60.498-23.9746 57.1289-27.2461L54.1016-30.2246L18.4082 5.17578C20.3613 6.83594 23.7793 7.71484 28.5156 7.71484Z"/>
  </g>
  <g id="Regular-M" transform="matrix(1 0 0 1 1383.49 1126)">
   <path d="M66.4551-29.541C68.457-29.541 70.3125-30.4688 72.4609-32.6172L114.941-74.6582C113.135-76.416 109.766-77.2461 104.932-77.2461L26.3184-77.2461C22.2168-77.2461 19.3359-76.4648 17.7246-74.8535L60.4492-32.6172C62.5488-30.5176 64.4043-29.541 66.4551-29.541ZM13.6719-0.976562L48.1934-35.1074L13.5742-69.2383C12.8418-67.8711 12.4512-65.5273 12.4512-62.1582L12.4512-8.25195C12.4512-4.78516 12.8418-2.34375 13.6719-0.976562ZM119.092-1.02539C119.873-2.44141 120.264-4.83398 120.264-8.25195L120.264-62.1582C120.264-65.4297 119.873-67.7734 119.189-69.0918L84.668-35.1074ZM27.7832 6.88477L106.396 6.88477C110.498 6.88477 113.33 6.10352 114.941 4.54102L79.7363-30.3223L76.5137-27.0508C73.1445-23.8281 69.9707-22.3633 66.4551-22.3633C62.8906-22.3633 59.7168-23.8281 56.3965-27.0508L53.125-30.3223L18.0176 4.49219C19.873 6.10352 23.0957 6.88477 27.7832 6.88477Z"/>
  </g>
  <g id="Light-M" transform="matrix(1 0 0 1 1087.63 1126)">
   <path d="M65.6738-28.9551C67.6758-28.9551 69.6289-29.8828 71.582-31.8848L113.916-73.6328C112.207-75.4883 108.936-76.416 104.199-76.416L25.8789-76.416C21.6797-76.416 18.75-75.5859 17.1875-73.877L59.8145-31.8848C61.7188-29.9316 63.7207-28.9551 65.6738-28.9551ZM13.8184-0.927734L48.5352-34.8633L13.623-69.1406C12.8418-67.8223 12.4512-65.4785 12.4512-62.1582L12.4512-8.20312C12.4512-4.73633 12.9395-2.29492 13.8184-0.927734ZM117.334-1.17188C118.164-2.49023 118.555-4.83398 118.555-8.20312L118.555-62.1582C118.555-65.332 118.213-67.5781 117.48-68.8477L82.8613-34.8633ZM26.8555 6.10352L105.127 6.10352C109.326 6.10352 112.207 5.22461 113.77 3.61328L78.6621-30.8105L75.1953-27.3438C72.1191-24.3652 68.9941-22.9492 65.6738-22.9492C62.3535-22.9492 59.2773-24.3652 56.2012-27.3438L52.6855-30.8105L17.5293 3.66211C19.2383 5.27344 22.3633 6.10352 26.8555 6.10352Z"/>
  </g>
  <g id="Thin-M" transform="matrix(1 0 0 1 792.018 1126)">
   <path d="M64.6973-28.2227C66.6504-28.2227 68.6523-29.1504 70.459-30.9082L112.598-72.2656C111.035-74.2676 107.861-75.293 103.174-75.293L25.293-75.293C20.9473-75.293 17.9688-74.4141 16.4551-72.6074L58.9844-30.9082C60.6934-29.1992 62.793-28.2227 64.6973-28.2227ZM13.9648-0.878906L48.9746-34.5215L13.7207-68.9453C12.8906-67.7246 12.4512-65.4297 12.4512-62.1582L12.4512-8.10547C12.4512-4.63867 12.9883-2.19727 13.9648-0.878906ZM115.039-1.31836C115.918-2.58789 116.357-4.83398 116.357-8.10547L116.357-62.1582C116.357-65.2344 115.967-67.334 115.234-68.5059L80.4688-34.5215ZM25.6348 5.0293L103.467 5.0293C107.812 5.0293 110.742 4.10156 112.256 2.34375L77.2461-31.4453L73.4375-27.6855C70.7031-25.0977 67.7246-23.7305 64.6973-23.7305C61.7188-23.7305 58.6914-25.0977 56.0059-27.6855L52.1484-31.4453L16.8457 2.58789C18.4082 4.19922 21.3379 5.0293 25.6348 5.0293Z"/>
  </g>
  <g id="Ultralight-M" transform="matrix(1 0 0 1 495.893 1126)">
   <path d="M64.209-27.832C66.1133-27.832 68.2129-28.7598 69.873-30.4199L111.914-71.5332C110.449-73.6816 107.324-74.707 102.637-74.707L25-74.707C20.6055-74.707 17.5781-73.7793 16.0645-71.9238L58.5449-30.4199C60.1562-28.8086 62.3535-27.832 64.209-27.832ZM14.0625-0.878906L49.1699-34.375L13.7695-68.8477C12.8906-67.6758 12.4512-65.4297 12.4512-62.207L12.4512-8.10547C12.4512-4.58984 13.0371-2.14844 14.0625-0.878906ZM113.818-1.36719C114.746-2.58789 115.186-4.83398 115.186-8.10547L115.186-62.207C115.186-65.1855 114.795-67.2363 114.062-68.3105L79.1992-34.375ZM25 4.44336L102.637 4.44336C107.08 4.44336 110.01 3.51562 111.475 1.66016L76.5137-31.7871L72.5098-27.8809C69.9707-25.4395 67.041-24.1211 64.209-24.1211C61.3281-24.1211 58.3984-25.4395 55.8594-27.8809L51.8555-31.7871L16.5527 2.05078C17.9688 3.66211 20.8008 4.44336 25 4.44336Z"/>
  </g>
  <g id="Black-S" transform="matrix(1 0 0 1 2877.35 696)">
   <path d="M56.0547-33.1543C57.9102-33.1543 59.4727-34.082 61.4258-36.0352L95.1172-69.9707C93.3594-71.0938 90.6738-71.6797 87.1094-71.6797L25-71.6797C21.3867-71.6797 18.7012-71.0938 16.9922-69.9707L50.6836-36.0352C52.6367-34.082 54.1992-33.1543 56.0547-33.1543ZM11.1328-6.68945L40.6738-36.2305L11.7188-64.8926C10.4492-63.0859 9.76562-60.2539 9.76562-56.4453L9.76562-13.9648C9.76562-10.6934 10.2539-8.30078 11.1328-6.68945ZM100.977-6.68945C101.855-8.30078 102.344-10.6934 102.344-13.9648L102.344-56.4453C102.344-60.2539 101.66-63.0859 100.391-64.8926L71.4355-36.2305ZM25 1.26953L87.1094 1.26953C91.2109 1.26953 94.2871 0.439453 96.2402-1.07422L66.2109-31.1035L64.6973-29.5898C61.8652-26.8066 59.1309-25.4883 56.0547-25.4883C52.9785-25.4883 50.1953-26.8066 47.3633-29.5898L45.8496-31.0547L15.8691-1.07422C17.8223 0.439453 20.8984 1.26953 25 1.26953Z"/>
  </g>
  <g id="Heavy-S" transform="matrix(1 0 0 1 2581.49 696)">
   <path d="M55.1758-32.666C56.9824-32.666 58.5449-33.5449 60.4492-35.4492L94.043-69.1895C92.334-70.3613 89.6484-70.9473 86.0352-70.9473L24.0234-70.9473C20.5078-70.9473 17.9199-70.3613 16.3086-69.1895L49.9512-35.4492C51.8555-33.5449 53.418-32.666 55.1758-32.666ZM11.0352-7.08008L39.9414-35.9863L11.4746-64.209C10.3516-62.5488 9.76562-59.9609 9.76562-56.3965L9.76562-14.0137C9.76562-10.8398 10.2051-8.59375 11.0352-7.08008ZM99.3652-7.08008C100.195-8.59375 100.635-10.8887 100.635-14.0137L100.635-56.3965C100.635-59.9609 100.049-62.5488 98.9258-64.209L70.459-35.9863ZM24.3652 0.537109L86.377 0.537109C90.2344 0.537109 93.1152-0.244141 94.9219-1.66016L65.4785-31.1035L63.7207-29.3945C60.9375-26.6113 58.252-25.3418 55.1758-25.3418C52.1484-25.3418 49.4629-26.6113 46.6309-29.3945L44.9219-31.0547L15.5273-1.70898C17.3828-0.244141 20.3125 0.537109 24.3652 0.537109Z"/>
  </g>
  <g id="Bold-S" transform="matrix(1 0 0 1 2285.75 696)">
   <path d="M54.248-32.1289C55.957-32.1289 57.4707-32.959 59.3262-34.7656L92.8223-68.3105C91.2109-69.5312 88.5254-70.1172 84.8633-70.1172L22.9004-70.1172C19.5312-70.1172 17.0898-69.5312 15.5762-68.3594L49.1699-34.7656C51.0254-32.959 52.4902-32.1289 54.248-32.1289ZM10.8887-7.51953L39.1602-35.7422L11.1816-63.4277C10.2539-61.9629 9.76562-59.6191 9.76562-56.3965L9.76562-14.0137C9.76562-11.0352 10.1562-8.88672 10.8887-7.51953ZM97.5586-7.51953C98.291-8.93555 98.6816-11.084 98.6816-14.0137L98.6816-56.3965C98.6816-59.5703 98.1934-61.9629 97.3145-63.3789L69.3359-35.7422ZM23.6328-0.292969L85.5469-0.292969C89.1602-0.292969 91.7969-0.976562 93.4082-2.34375L64.5996-31.1035L62.6465-29.1504C59.8633-26.416 57.2266-25.1465 54.248-25.1465C51.2695-25.1465 48.584-26.416 45.8008-29.1504L43.8477-31.1035L15.1367-2.39258C16.8457-1.02539 19.6777-0.292969 23.6328-0.292969Z"/>
  </g>
  <g id="Semibold-S" transform="matrix(1 0 0 1 1989.7 696)">
   <path d="M53.5645-31.7383C55.2734-31.7383 56.7383-32.5195 58.5449-34.3262L91.9922-67.6758C90.4297-68.9453 87.7441-69.5801 84.0332-69.5801L22.168-69.5801C18.8477-69.5801 16.4551-68.9453 15.0391-67.7734L48.6328-34.3262C50.4395-32.5195 51.9043-31.7383 53.5645-31.7383ZM10.791-7.86133L38.5742-35.5957L10.9863-62.8906C10.2051-61.5234 9.76562-59.375 9.76562-56.3477L9.76562-14.0625C9.76562-11.1816 10.1074-9.13086 10.791-7.86133ZM96.3379-7.86133C97.0215-9.13086 97.3633-11.1816 97.3633-14.0625L97.3633-56.3477C97.3633-59.3262 96.9727-61.5234 96.1426-62.8418L68.5547-35.5957ZM23.0957-0.830078L84.9609-0.830078C88.4277-0.830078 90.918-1.51367 92.3828-2.7832L64.0137-31.1035L61.9141-29.0039C59.1309-26.3184 56.543-25.0488 53.5645-25.0488C50.6348-25.0488 47.998-26.3184 45.2637-29.0039L43.1152-31.1035L14.8438-2.88086C16.5039-1.5625 19.2383-0.830078 23.0957-0.830078Z"/>
  </g>
  <g id="Medium-S" transform="matrix(1 0 0 1 1693.48 696)">
   <path d="M53.0762-31.4453C54.7363-31.4453 56.2012-32.2266 57.959-33.9844L91.3574-67.2363C89.8438-68.5059 87.1582-69.1406 83.3984-69.1406L21.582-69.1406C18.3594-69.1406 16.0156-68.5547 14.6484-67.334L48.1934-33.9844C49.9512-32.2266 51.416-31.4453 53.0762-31.4453ZM10.7422-8.10547L38.1348-35.4492L10.791-62.5C10.1074-61.2305 9.76562-59.2285 9.76562-56.3477L9.76562-14.0625C9.76562-11.2793 10.1074-9.27734 10.7422-8.10547ZM95.4102-8.10547C96.0449-9.32617 96.3867-11.2793 96.3867-14.0625L96.3867-56.3477C96.3867-59.1797 95.9961-61.2305 95.3125-62.4512L68.0176-35.4492ZM22.7051-1.26953L84.5703-1.26953C87.8418-1.26953 90.2344-1.9043 91.6016-3.125L63.5742-31.1035L61.3281-28.8574C58.5449-26.1719 56.0059-24.9512 53.0762-24.9512C50.1465-24.9512 47.5586-26.1719 44.8242-28.8574L42.5293-31.1035L14.6484-3.22266C16.2109-1.95312 18.8965-1.26953 22.7051-1.26953Z"/>
  </g>
  <g id="Regular-S" transform="matrix(1 0 0 1 1397.43 696)">
   <path d="M52.4414-31.0547C54.0527-31.0547 55.4688-31.7871 57.1777-33.5449L90.5762-66.6016C89.0625-67.9199 86.377-68.5547 82.6172-68.5547L20.8496-68.5547C17.6758-68.5547 15.4297-67.9688 14.1602-66.748L47.6562-33.5449C49.3652-31.7871 50.8301-31.0547 52.4414-31.0547ZM10.6445-8.39844L37.5977-35.2539L10.5957-61.9629C10.0586-60.8398 9.76562-58.9844 9.76562-56.2988L9.76562-14.1113C9.76562-11.4258 10.0586-9.52148 10.6445-8.39844ZM94.1895-8.39844C94.7754-9.52148 95.0684-11.4258 95.0684-14.1113L95.0684-56.2988C95.0684-58.9355 94.7754-60.791 94.1895-61.9141L67.2363-35.2539ZM22.2168-1.85547L83.9844-1.85547C87.1094-1.85547 89.3066-2.44141 90.625-3.61328L63.0371-31.1523L60.5957-28.7109C57.8613-26.0742 55.3223-24.8535 52.4414-24.8535C49.5117-24.8535 47.0215-26.0742 44.2383-28.7109L41.8457-31.1523L14.3555-3.71094C15.8691-2.49023 18.5059-1.85547 22.2168-1.85547Z"/>
  </g>
  <g id="Light-S" transform="matrix(1 0 0 1 1101.47 696)">
   <path d="M51.7578-30.5664C53.3203-30.5664 54.834-31.2988 56.4453-32.8613L89.6484-65.7227C88.2812-67.1387 85.6934-67.8223 81.9336-67.8223L20.459-67.8223C17.1875-67.8223 14.9414-67.1875 13.6719-65.918L47.1191-32.8613C48.6816-31.2988 50.1953-30.5664 51.7578-30.5664ZM10.791-8.34961L37.8906-35.0586L10.6934-61.8164C10.0586-60.791 9.76562-58.9355 9.76562-56.2988L9.76562-14.0625C9.76562-11.377 10.1074-9.47266 10.791-8.34961ZM92.627-8.49609C93.2617-9.57031 93.5547-11.4258 93.5547-14.0625L93.5547-56.2988C93.5547-58.8379 93.2617-60.6445 92.6758-61.6699L65.625-35.0586ZM21.3867-2.53906L82.8613-2.53906C86.1328-2.53906 88.3301-3.17383 89.5996-4.44336L62.0605-31.543L59.4238-28.9551C56.8848-26.5137 54.4434-25.3906 51.7578-25.3906C49.0723-25.3906 46.6309-26.5137 44.0918-28.9551L41.4551-31.543L13.916-4.44336C15.332-3.17383 17.8223-2.53906 21.3867-2.53906Z"/>
  </g>
  <g id="Thin-S" transform="matrix(1 0 0 1 805.739 696)">
   <path d="M50.8789-29.8828C52.4414-29.8828 54.0039-30.6152 55.4199-32.0312L88.4766-64.502C87.2559-66.0645 84.7168-66.8457 81.0547-66.8457L19.9707-66.8457C16.5527-66.8457 14.2578-66.1621 13.0371-64.7461L46.3867-32.0312C47.7539-30.6641 49.4141-29.8828 50.8789-29.8828ZM10.9375-8.34961L38.2812-34.7656L10.7422-61.6699C10.1074-60.6934 9.76562-58.9355 9.76562-56.3477L9.76562-14.0137C9.76562-11.2793 10.1562-9.375 10.9375-8.34961ZM90.5762-8.59375C91.2598-9.61914 91.6016-11.4258 91.6016-14.0137L91.6016-56.3477C91.6016-58.7402 91.3086-60.4492 90.7227-61.377L63.4766-34.7656ZM20.3125-3.51562L81.3965-3.51562C84.7656-3.51562 87.0605-4.19922 88.2324-5.56641L60.791-32.1289L57.8613-29.248C55.6641-27.1484 53.3203-26.0742 50.8789-26.0742C48.4863-26.0742 46.1426-27.1484 43.9453-29.248L40.9668-32.1289L13.3301-5.41992C14.5996-4.15039 16.9434-3.51562 20.3125-3.51562Z"/>
  </g>
  <g id="Ultralight-S" transform="matrix(1 0 0 1 509.54 696)">
   <path d="M50.4395-29.541C51.9531-29.541 53.5645-30.2734 54.8828-31.5918L87.8906-63.8672C86.7188-65.5273 84.2285-66.3086 80.5664-66.3086L19.6777-66.3086C16.2598-66.3086 13.916-65.625 12.6953-64.1602L45.9961-31.5918C47.2656-30.3223 48.9746-29.541 50.4395-29.541ZM10.9863-8.30078L38.4766-34.6191L10.791-61.6211C10.1074-60.6445 9.76562-58.8867 9.76562-56.3477L9.76562-13.9648C9.76562-11.2305 10.2051-9.32617 10.9863-8.30078ZM89.502-8.69141C90.2344-9.66797 90.5762-11.4258 90.5762-13.9648L90.5762-56.3477C90.5762-58.6914 90.2832-60.3516 89.6973-61.2305L62.4023-34.6191ZM19.7754-4.00391L80.6641-4.00391C84.082-4.00391 86.377-4.73633 87.5488-6.15234L60.1562-32.4219L57.0801-29.3945C55.0293-27.4902 52.7344-26.416 50.4395-26.416C48.1445-26.416 45.8496-27.4902 43.7988-29.3945L40.7227-32.4219L13.0371-5.85938C14.209-4.63867 16.4551-4.00391 19.7754-4.00391Z"/>
  </g>
 </g>
</svg>
