<?xml version="1.0" encoding="UTF-8"?>
<!--Generator: Apple Native CoreSVG 149-->
<!DOCTYPE svg
PUBLIC "-//W3C//DTD SVG 1.1//EN"
       "http://www.w3.org/Graphics/SVG/1.1/DTD/svg11.dtd">
<svg version="1.1" xmlns="http://www.w3.org/2000/svg" xmlns:xlink="http://www.w3.org/1999/xlink" width="3300" height="2200">
 <!--glyph: "uni1002E1.medium", point size: 100.000000, font version: "Version 16.0d18e1", template writer version: "8"-->
 <g id="Notes">
  <rect height="2200" id="artboard" style="fill:white;opacity:1" width="3300" x="0" y="0"/>
  <line id="" style="fill:none;stroke:black;opacity:1;stroke-width:0.5;" x1="263" x2="3036" y1="292" y2="292"/>
  <text style="stroke:none;fill:black;font-family:-apple-system,&quot;SF Pro Display&quot;,&quot;SF Pro Text&quot;,Helvetica,sans-serif;font-weight:bold;" transform="matrix(1 0 0 1 263 322)">Weight/Scale Variations</text>
  <text style="stroke:none;fill:black;font-family:-apple-system,&quot;SF Pro Display&quot;,&quot;SF Pro Text&quot;,Helvetica,sans-serif;text-anchor:middle;" transform="matrix(1 0 0 1 559.711 322)">Ultralight</text>
  <text style="stroke:none;fill:black;font-family:-apple-system,&quot;SF Pro Display&quot;,&quot;SF Pro Text&quot;,Helvetica,sans-serif;text-anchor:middle;" transform="matrix(1 0 0 1 856.422 322)">Thin</text>
  <text style="stroke:none;fill:black;font-family:-apple-system,&quot;SF Pro Display&quot;,&quot;SF Pro Text&quot;,Helvetica,sans-serif;text-anchor:middle;" transform="matrix(1 0 0 1 1153.13 322)">Light</text>
  <text style="stroke:none;fill:black;font-family:-apple-system,&quot;SF Pro Display&quot;,&quot;SF Pro Text&quot;,Helvetica,sans-serif;text-anchor:middle;" transform="matrix(1 0 0 1 1449.84 322)">Regular</text>
  <text style="stroke:none;fill:black;font-family:-apple-system,&quot;SF Pro Display&quot;,&quot;SF Pro Text&quot;,Helvetica,sans-serif;text-anchor:middle;" transform="matrix(1 0 0 1 1746.56 322)">Medium</text>
  <text style="stroke:none;fill:black;font-family:-apple-system,&quot;SF Pro Display&quot;,&quot;SF Pro Text&quot;,Helvetica,sans-serif;text-anchor:middle;" transform="matrix(1 0 0 1 2043.27 322)">Semibold</text>
  <text style="stroke:none;fill:black;font-family:-apple-system,&quot;SF Pro Display&quot;,&quot;SF Pro Text&quot;,Helvetica,sans-serif;text-anchor:middle;" transform="matrix(1 0 0 1 2339.98 322)">Bold</text>
  <text style="stroke:none;fill:black;font-family:-apple-system,&quot;SF Pro Display&quot;,&quot;SF Pro Text&quot;,Helvetica,sans-serif;text-anchor:middle;" transform="matrix(1 0 0 1 2636.69 322)">Heavy</text>
  <text style="stroke:none;fill:black;font-family:-apple-system,&quot;SF Pro Display&quot;,&quot;SF Pro Text&quot;,Helvetica,sans-serif;text-anchor:middle;" transform="matrix(1 0 0 1 2933.4 322)">Black</text>
  <line id="" style="fill:none;stroke:black;opacity:1;stroke-width:0.5;" x1="263" x2="3036" y1="1903" y2="1903"/>
  <g id="" transform="matrix(1 0 0 1 263 1933)">
   <path d="M9.24805 0.830078C13.5547 0.830078 17.1387-2.74414 17.1387-7.05078C17.1387-11.3574 13.5449-14.9316 9.23828-14.9316C4.94141-14.9316 1.36719-11.3574 1.36719-7.05078C1.36719-2.74414 4.95117 0.830078 9.24805 0.830078ZM9.24805-0.654297C5.70312-0.654297 2.87109-3.49609 2.87109-7.05078C2.87109-10.6055 5.69336-13.4473 9.23828-13.4473C12.793-13.4473 15.6348-10.6055 15.6445-7.05078C15.6543-3.49609 12.8027-0.654297 9.24805-0.654297ZM6.39648-6.31836L8.50586-6.31836L8.50586-4.19922C8.50586-3.75977 8.79883-3.45703 9.22852-3.45703C9.67773-3.45703 9.9707-3.75977 9.9707-4.19922L9.9707-6.31836L12.0996-6.31836C12.5391-6.31836 12.8418-6.61133 12.8418-7.04102C12.8418-7.48047 12.5391-7.7832 12.0996-7.7832L9.9707-7.7832L9.9707-9.89258C9.9707-10.3418 9.67773-10.6445 9.22852-10.6445C8.79883-10.6445 8.50586-10.3418 8.50586-9.89258L8.50586-7.7832L6.39648-7.7832C5.94727-7.7832 5.64453-7.48047 5.64453-7.04102C5.64453-6.61133 5.94727-6.31836 6.39648-6.31836Z"/>
  </g>
  <g id="" transform="matrix(1 0 0 1 281.506 1933)">
   <path d="M11.709 2.91016C17.1582 2.91016 21.6699-1.61133 21.6699-7.05078C21.6699-12.5 17.1484-17.0117 11.6992-17.0117C6.25977-17.0117 1.74805-12.5 1.74805-7.05078C1.74805-1.61133 6.26953 2.91016 11.709 2.91016ZM11.709 1.25C7.09961 1.25 3.41797-2.44141 3.41797-7.05078C3.41797-11.6602 7.08984-15.3516 11.6992-15.3516C16.3086-15.3516 20-11.6602 20.0098-7.05078C20.0195-2.44141 16.3184 1.25 11.709 1.25ZM7.98828-6.23047L10.8789-6.23047L10.8789-3.32031C10.8789-2.83203 11.2109-2.5 11.6895-2.5C12.1777-2.5 12.5195-2.83203 12.5195-3.32031L12.5195-6.23047L15.4297-6.23047C15.918-6.23047 16.25-6.5625 16.25-7.04102C16.25-7.5293 15.918-7.87109 15.4297-7.87109L12.5195-7.87109L12.5195-10.7617C12.5195-11.2695 12.1777-11.6016 11.6895-11.6016C11.2109-11.6016 10.8789-11.2598 10.8789-10.7617L10.8789-7.87109L7.98828-7.87109C7.48047-7.87109 7.14844-7.5293 7.14844-7.04102C7.14844-6.5625 7.49023-6.23047 7.98828-6.23047Z"/>
  </g>
  <g id="" transform="matrix(1 0 0 1 304.924 1933)">
   <path d="M14.9707 5.66406C21.9336 5.66406 27.6953-0.0976562 27.6953-7.05078C27.6953-14.0137 21.9238-19.7754 14.9609-19.7754C8.00781-19.7754 2.25586-14.0137 2.25586-7.05078C2.25586-0.0976562 8.01758 5.66406 14.9707 5.66406ZM14.9707 3.84766C8.93555 3.84766 4.08203-1.01562 4.08203-7.05078C4.08203-13.0957 8.92578-17.9492 14.9609-17.9492C21.0059-17.9492 25.8594-13.0957 25.8691-7.05078C25.8789-1.01562 21.0156 3.84766 14.9707 3.84766ZM10.0586-6.14258L14.0625-6.14258L14.0625-2.12891C14.0625-1.5918 14.4336-1.2207 14.9512-1.2207C15.4883-1.2207 15.8594-1.5918 15.8594-2.12891L15.8594-6.14258L19.8828-6.14258C20.4102-6.14258 20.791-6.51367 20.791-7.03125C20.791-7.56836 20.4199-7.94922 19.8828-7.94922L15.8594-7.94922L15.8594-11.9531C15.8594-12.5098 15.4883-12.8809 14.9512-12.8809C14.4336-12.8809 14.0625-12.5 14.0625-11.9531L14.0625-7.94922L10.0586-7.94922C9.50195-7.94922 9.13086-7.56836 9.13086-7.03125C9.13086-6.51367 9.51172-6.14258 10.0586-6.14258Z"/>
  </g>
  <text style="stroke:none;fill:black;font-family:-apple-system,&quot;SF Pro Display&quot;,&quot;SF Pro Text&quot;,Helvetica,sans-serif;font-weight:bold;" transform="matrix(1 0 0 1 263 1953)">Design Variations</text>
  <text style="stroke:none;fill:black;font-family:-apple-system,&quot;SF Pro Display&quot;,&quot;SF Pro Text&quot;,Helvetica,sans-serif;" transform="matrix(1 0 0 1 263 1971)">Symbols are supported in up to nine weights and three scales.</text>
  <text style="stroke:none;fill:black;font-family:-apple-system,&quot;SF Pro Display&quot;,&quot;SF Pro Text&quot;,Helvetica,sans-serif;" transform="matrix(1 0 0 1 263 1989)">For optimal layout with text and other symbols, vertically align</text>
  <text style="stroke:none;fill:black;font-family:-apple-system,&quot;SF Pro Display&quot;,&quot;SF Pro Text&quot;,Helvetica,sans-serif;" transform="matrix(1 0 0 1 263 2007)">symbols with the adjacent text.</text>
  <line id="" style="fill:none;stroke:#00AEEF;stroke-width:0.5;opacity:1.0;" x1="776" x2="776" y1="1919" y2="1933"/>
  <g id="" transform="matrix(1 0 0 1 776 1933)">
   <path d="M3.31055 0.126953C3.82812 0.126953 4.08203-0.0683594 4.26758-0.605469L5.52734-4.0625L11.2891-4.0625L12.5488-0.605469C12.7344-0.0683594 12.9883 0.126953 13.4961 0.126953C14.0137 0.126953 14.3457-0.185547 14.3457-0.673828C14.3457-0.839844 14.3164-0.986328 14.2383-1.20117L9.6582-13.3887C9.43359-13.9941 9.0332-14.2871 8.4082-14.2871C7.80273-14.2871 7.39258-13.9941 7.17773-13.3984L2.59766-1.19141C2.51953-0.976562 2.49023-0.830078 2.49023-0.664062C2.49023-0.175781 2.80273 0.126953 3.31055 0.126953ZM6.00586-5.53711L8.37891-12.1094L8.42773-12.1094L10.8008-5.53711Z"/>
  </g>
  <line id="" style="fill:none;stroke:#00AEEF;stroke-width:0.5;opacity:1.0;" x1="792.836" x2="792.836" y1="1919" y2="1933"/>
  <text style="stroke:none;fill:black;font-family:-apple-system,&quot;SF Pro Display&quot;,&quot;SF Pro Text&quot;,Helvetica,sans-serif;font-weight:bold;" transform="matrix(1 0 0 1 776 1953)">Margins</text>
  <text style="stroke:none;fill:black;font-family:-apple-system,&quot;SF Pro Display&quot;,&quot;SF Pro Text&quot;,Helvetica,sans-serif;" transform="matrix(1 0 0 1 776 1971)">Leading and trailing margins on the left and right side of each symbol</text>
  <text style="stroke:none;fill:black;font-family:-apple-system,&quot;SF Pro Display&quot;,&quot;SF Pro Text&quot;,Helvetica,sans-serif;" transform="matrix(1 0 0 1 776 1989)">can be adjusted by modifying the x-location of the margin guidelines.</text>
  <text style="stroke:none;fill:black;font-family:-apple-system,&quot;SF Pro Display&quot;,&quot;SF Pro Text&quot;,Helvetica,sans-serif;" transform="matrix(1 0 0 1 776 2007)">Modifications are automatically applied proportionally to all</text>
  <text style="stroke:none;fill:black;font-family:-apple-system,&quot;SF Pro Display&quot;,&quot;SF Pro Text&quot;,Helvetica,sans-serif;" transform="matrix(1 0 0 1 776 2025)">scales and weights.</text>
  <g id="" transform="matrix(1 0 0 1 1289 1933)">
   <path d="M2.8418 1.86523L4.54102 3.57422C5.40039 4.44336 6.38672 4.38477 7.31445 3.35938L17.4902-7.85156C17.7539-7.76367 18.0273-7.7832 18.3398-7.8418L19.4043-8.03711L20.0684-7.36328L20.0293-6.80664C19.9902-6.30859 20.1172-5.92773 20.6055-5.44922L21.3672-4.70703C21.8457-4.22852 22.4609-4.19922 22.9297-4.66797L25.8398-7.58789C26.3086-8.05664 26.2891-8.65234 25.8105-9.13086L25.0391-9.89258C24.5605-10.3711 24.1895-10.5273 23.7109-10.4883L23.1348-10.4395L22.4902-11.0742L22.7344-12.1973C22.8613-12.7637 22.7051-13.2031 22.1191-13.7891L19.9219-15.9766C16.582-19.2969 12.1484-19.2188 9.25781-16.3281C8.83789-15.918 8.80859-15.3418 9.04297-14.9512C9.27734-14.5898 9.73633-14.3555 10.3809-14.5215C11.8457-14.8633 13.3691-14.9219 14.7949-13.9844L14.209-12.5293C14.0137-12.0508 13.9844-11.6504 14.1113-11.2891L3.04688-0.898438C2.06055 0.0195312 1.98242 0.996094 2.8418 1.86523ZM10.752-15.957C13.1836-17.7344 16.4746-17.4316 18.7012-15.2051L21.1328-12.793C21.3672-12.5586 21.4062-12.373 21.3379-12.0312L21.0156-10.5469L22.5195-9.0625L23.5059-9.12109C23.7598-9.13086 23.8379-9.11133 24.0332-8.91602L24.6094-8.33984L22.168-5.89844L21.5918-6.47461C21.3965-6.66992 21.3672-6.74805 21.377-7.01172L21.4453-7.98828L19.9512-9.47266L18.4277-9.21875C18.1055-9.15039 17.959-9.17969 17.7148-9.41406L15.7129-11.416C15.459-11.6504 15.4297-11.8164 15.5859-12.1875L16.4648-14.2773C14.9023-15.7324 12.8711-16.3574 10.8398-15.7617C10.6836-15.7227 10.625-15.8496 10.752-15.957ZM5.27344 2.30469L4.10156 1.14258C3.63281 0.683594 3.74023 0.341797 4.14062-0.0195312L14.9512-10.1953L16.416-8.71094L6.42578 2.27539C6.07422 2.67578 5.74219 2.77344 5.27344 2.30469Z"/>
  </g>
  <text style="stroke:none;fill:black;font-family:-apple-system,&quot;SF Pro Display&quot;,&quot;SF Pro Text&quot;,Helvetica,sans-serif;font-weight:bold;" transform="matrix(1 0 0 1 1289 1953)">Exporting</text>
  <text style="stroke:none;fill:black;font-family:-apple-system,&quot;SF Pro Display&quot;,&quot;SF Pro Text&quot;,Helvetica,sans-serif;" transform="matrix(1 0 0 1 1289 1971)">Symbols should be outlined when exporting to ensure the</text>
  <text style="stroke:none;fill:black;font-family:-apple-system,&quot;SF Pro Display&quot;,&quot;SF Pro Text&quot;,Helvetica,sans-serif;" transform="matrix(1 0 0 1 1289 1989)">design is preserved when submitting to Xcode.</text>
  <text id="template-version" style="stroke:none;fill:black;font-family:-apple-system,&quot;SF Pro Display&quot;,&quot;SF Pro Text&quot;,Helvetica,sans-serif;text-anchor:end;" transform="matrix(1 0 0 1 3036 1933)">Template v.2.0</text>
  <text style="stroke:none;fill:black;font-family:-apple-system,&quot;SF Pro Display&quot;,&quot;SF Pro Text&quot;,Helvetica,sans-serif;text-anchor:end;" transform="matrix(1 0 0 1 3036 1951)">Requires Xcode 12 or greater</text>
  <text style="stroke:none;fill:black;font-family:-apple-system,&quot;SF Pro Display&quot;,&quot;SF Pro Text&quot;,Helvetica,sans-serif;text-anchor:end;" transform="matrix(1 0 0 1 3036 1969)">Generated from tag</text>
  <text style="stroke:none;fill:black;font-family:-apple-system,&quot;SF Pro Display&quot;,&quot;SF Pro Text&quot;,Helvetica,sans-serif;text-anchor:end;" transform="matrix(1 0 0 1 3036 1987)">Typeset at 100 points</text>
  <text style="stroke:none;fill:black;font-family:-apple-system,&quot;SF Pro Display&quot;,&quot;SF Pro Text&quot;,Helvetica,sans-serif;" transform="matrix(1 0 0 1 263 726)">Small</text>
  <text style="stroke:none;fill:black;font-family:-apple-system,&quot;SF Pro Display&quot;,&quot;SF Pro Text&quot;,Helvetica,sans-serif;" transform="matrix(1 0 0 1 263 1156)">Medium</text>
  <text style="stroke:none;fill:black;font-family:-apple-system,&quot;SF Pro Display&quot;,&quot;SF Pro Text&quot;,Helvetica,sans-serif;" transform="matrix(1 0 0 1 263 1586)">Large</text>
 </g>
 <g id="Guides">
  <g id="H-reference" style="fill:#27AAE1;stroke:none;" transform="matrix(1 0 0 1 339 696)">
   <path d="M0.976562 0L3.66211 0L12.9883-24.4629L45.752-24.4629L55.127 0L57.7637 0L30.6152-70.459L28.125-70.459ZM29.3457-67.1387L29.4434-67.1387L44.873-26.709L13.8672-26.709Z"/>
  </g>
  <line id="Baseline-S" style="fill:none;stroke:#27AAE1;opacity:1;stroke-width:0.5;" x1="263" x2="3036" y1="696" y2="696"/>
  <line id="Capline-S" style="fill:none;stroke:#27AAE1;opacity:1;stroke-width:0.5;" x1="263" x2="3036" y1="625.541" y2="625.541"/>
  <g id="H-reference" style="fill:#27AAE1;stroke:none;" transform="matrix(1 0 0 1 339 1126)">
   <path d="M0.976562 0L3.66211 0L12.9883-24.4629L45.752-24.4629L55.127 0L57.7637 0L30.6152-70.459L28.125-70.459ZM29.3457-67.1387L29.4434-67.1387L44.873-26.709L13.8672-26.709Z"/>
  </g>
  <line id="Baseline-M" style="fill:none;stroke:#27AAE1;opacity:1;stroke-width:0.5;" x1="263" x2="3036" y1="1126" y2="1126"/>
  <line id="Capline-M" style="fill:none;stroke:#27AAE1;opacity:1;stroke-width:0.5;" x1="263" x2="3036" y1="1055.54" y2="1055.54"/>
  <g id="H-reference" style="fill:#27AAE1;stroke:none;" transform="matrix(1 0 0 1 339 1556)">
   <path d="M0.976562 0L3.66211 0L12.9883-24.4629L45.752-24.4629L55.127 0L57.7637 0L30.6152-70.459L28.125-70.459ZM29.3457-67.1387L29.4434-67.1387L44.873-26.709L13.8672-26.709Z"/>
  </g>
  <line id="Baseline-L" style="fill:none;stroke:#27AAE1;opacity:1;stroke-width:0.5;" x1="263" x2="3036" y1="1556" y2="1556"/>
  <line id="Capline-L" style="fill:none;stroke:#27AAE1;opacity:1;stroke-width:0.5;" x1="263" x2="3036" y1="1485.54" y2="1485.54"/>
  <line id="left-margin" style="fill:none;stroke:#00AEEF;stroke-width:0.5;opacity:1.0;" x1="1384.07" x2="1384.07" y1="1030.79" y2="1150.12"/>
  <line id="right-margin" style="fill:none;stroke:#00AEEF;stroke-width:0.5;opacity:1.0;" x1="1515.62" x2="1515.62" y1="1030.79" y2="1150.12"/>
 </g>
 <g id="Symbols">
  <g id="Black-L" transform="matrix(1 0 0 1 2842.9 1556)">
   <path d="M97.2168 39.1602L159.863-23.4863C165.527-29.1504 166.553-32.9102 166.553-41.6016L166.553-65.3809C166.553-73.2422 164.648-76.7578 158.496-82.8613L144.287-97.0703C138.135-103.223 134.668-105.176 126.807-105.176L103.027-105.176C94.3359-105.176 90.8203-103.857 85.1562-98.1934L22.5098-35.5469C11.8164-24.8535 11.7188-12.6953 22.5098-1.9043L63.5742 39.1113C74.3652 49.9023 86.5234 49.8535 97.2168 39.1602ZM84.9609 22.8516C81.9336 25.8789 79.1016 25.9766 75.8789 22.8027L38.8184-14.209C35.5957-17.3828 35.8398-20.2637 38.8184-23.2422L99.6582-84.082C100.879-85.3027 101.66-85.791 103.369-85.791L125.195-85.791C126.758-85.791 127.979-85.2051 128.857-84.3262L145.752-67.4805C146.631-66.5527 147.217-65.332 147.217-63.7695L147.217-41.9434C147.217-39.8926 146.875-39.1113 145.801-37.9883ZM117.48-45.5078C123.486-45.5078 128.076-50.1465 128.076-56.1035C128.076-62.0117 123.486-66.6504 117.48-66.6504C111.523-66.6504 106.934-62.0117 106.934-56.1035C106.934-50.1465 111.523-45.5078 117.48-45.5078Z"/>
  </g>
  <g id="Heavy-L" transform="matrix(1 0 0 1 2547.63 1556)">
   <path d="M94.9707 37.3535L157.373-25.1465C162.744-30.5176 163.623-33.9355 163.623-42.1387L163.623-65.9668C163.623-73.4863 161.865-76.5625 156.055-82.4219L141.748-96.6797C135.889-102.539 132.812-104.297 125.293-104.297L101.465-104.297C93.2617-104.297 89.9902-103.223 84.6191-97.8516L22.168-35.4492C11.9141-25.2441 11.8652-13.7695 22.168-3.4668L62.9883 37.3047C73.3398 47.6074 84.7168 47.5586 94.9707 37.3535ZM84.2285 23.3398C80.7617 26.8066 77.3926 26.9043 73.7793 23.3398L36.1816-14.209C32.5195-17.8223 32.7148-21.2891 36.1328-24.707L97.1191-85.6445C98.3887-86.9141 99.4141-87.5 101.221-87.5L124.17-87.5C125.879-87.5 127.148-86.8652 128.174-85.791L145.166-68.8477C146.191-67.8223 146.826-66.5527 146.826-64.7949L146.826-41.8945C146.826-39.7949 146.387-38.8184 145.215-37.6465ZM116.504-47.168C122.119-47.168 126.465-51.5625 126.465-57.1777C126.465-62.7441 122.119-67.1387 116.504-67.1387C110.84-67.1387 106.494-62.7441 106.494-57.1777C106.494-51.5625 110.84-47.168 116.504-47.168Z"/>
  </g>
  <g id="Bold-L" transform="matrix(1 0 0 1 2252.55 1556)">
   <path d="M92.4316 35.3027L154.59-26.9531C159.668-31.9824 160.352-35.0586 160.352-42.7246L160.352-66.6016C160.352-73.6816 158.74-76.416 153.271-81.8359L138.867-96.2891C133.398-101.709 130.713-103.369 123.633-103.369L99.7559-103.369C92.041-103.369 89.1113-102.539 84.0332-97.5098L21.7773-35.3516C12.0605-25.6348 12.0117-15.0391 21.8262-5.22461L62.3535 35.2539C72.168 45.0684 82.7637 45.0195 92.4316 35.3027ZM83.3984 23.9258C79.4434 27.8809 75.4883 27.9297 71.3867 23.877L33.2031-14.2578C29.1016-18.3594 29.248-22.3633 33.1543-26.2695L94.3359-87.3535C95.6543-88.7207 96.8262-89.3555 98.8281-89.3555L122.998-89.3555C124.854-89.3555 126.221-88.6719 127.441-87.5L144.482-70.4102C145.703-69.2383 146.338-67.8711 146.338-66.0156L146.338-41.7969C146.338-39.6484 145.801-38.4766 144.531-37.207ZM115.332-49.0723C120.605-49.0723 124.658-53.125 124.658-58.3496C124.658-63.5742 120.605-67.627 115.332-67.627C110.059-67.627 106.055-63.5742 106.055-58.3496C106.055-53.125 110.059-49.0723 115.332-49.0723Z"/>
  </g>
  <g id="Semibold-L" transform="matrix(1 0 0 1 1956.96 1556)">
   <path d="M90.7227 33.8867L152.686-28.1738C157.568-33.0078 158.105-35.8398 158.105-43.1641L158.105-67.041C158.105-73.877 156.592-76.2695 151.367-81.4941L136.865-95.9961C131.689-101.172 129.248-102.734 122.461-102.734L98.5352-102.734C91.2598-102.734 88.4766-102.051 83.6426-97.2168L21.5332-35.2539C12.207-25.9277 12.1094-15.8691 21.582-6.44531L61.9141 33.8867C71.3867 43.3105 81.3965 43.2617 90.7227 33.8867ZM82.8125 24.3164C78.5645 28.6133 74.1699 28.6621 69.7754 24.2676L31.1523-14.3066C26.7578-18.7012 26.8555-23.1445 31.1035-27.3926L92.4316-88.5742C93.7988-89.9414 95.0684-90.6738 97.168-90.6738L122.217-90.6738C124.17-90.6738 125.586-89.9414 126.904-88.623L144.043-71.4844C145.361-70.2148 146.045-68.7988 146.045-66.7969L146.045-41.7969C146.045-39.5508 145.41-38.2812 144.043-36.9629ZM114.551-50.3418C119.58-50.3418 123.389-54.248 123.389-59.1797C123.389-64.1113 119.58-68.0176 114.551-68.0176C109.521-68.0176 105.762-64.1113 105.762-59.1797C105.762-54.248 109.521-50.3418 114.551-50.3418Z"/>
  </g>
  <g id="Medium-L" transform="matrix(1 0 0 1 1661.11 1556)">
   <path d="M89.4043 32.8613L151.221-29.1016C155.957-33.7891 156.396-36.4258 156.396-43.457L156.396-67.3828C156.396-73.9746 154.932-76.1719 149.951-81.2012L135.4-95.752C130.371-100.781 128.174-102.197 121.582-102.197L97.6562-102.197C90.625-102.197 88.0371-101.709 83.3496-97.0215L21.3379-35.1562C12.2559-26.123 12.1582-16.5039 21.3867-7.32422L61.5723 32.8125C70.8008 41.9922 80.3223 41.9434 89.4043 32.8613ZM82.4219 24.6094C77.8809 29.1504 73.1934 29.1992 68.5059 24.5605L29.5898-14.3555C24.9512-18.9941 25.0488-23.7305 29.541-28.2227L90.9668-89.4531C92.3828-90.8691 93.75-91.6504 95.8984-91.6504L121.582-91.6504C123.633-91.6504 125.098-90.918 126.514-89.502L143.701-72.3145C145.068-70.9473 145.801-69.4824 145.801-67.4316L145.801-41.748C145.801-39.502 145.068-38.1348 143.701-36.7188ZM113.965-51.3184C118.799-51.3184 122.461-55.0293 122.461-59.8145C122.461-64.5508 118.799-68.2617 113.965-68.2617C109.131-68.2617 105.518-64.5508 105.518-59.8145C105.518-55.0293 109.131-51.3184 113.965-51.3184Z"/>
  </g>
  <g id="Regular-L" transform="matrix(1 0 0 1 1365.52 1556)">
   <path d="M87.6953 31.4453L149.365-30.3711C153.809-34.8145 154.15-37.207 154.15-43.8477L154.15-67.8223C154.15-74.1699 152.832-76.0742 148.047-80.8105L133.398-95.459C128.662-100.244 126.758-101.562 120.41-101.562L96.4355-101.562C89.7949-101.562 87.4023-101.221 82.959-96.7773L21.0449-35.1074C12.3535-26.416 12.2559-17.334 21.0938-8.54492L61.1328 31.3965C70.0195 40.2832 79.0039 40.1855 87.6953 31.4453ZM81.8359 25C77.002 29.8828 71.875 29.9316 66.8945 24.9512L27.5879-14.3555C22.6074-19.3359 22.7051-24.5117 27.5391-29.2969L89.0625-90.6738C90.4785-92.0898 91.9922-92.9199 94.2871-92.9199L120.801-92.9199C122.949-92.9199 124.463-92.1387 125.977-90.6738L143.262-73.3887C144.727-71.875 145.508-70.3613 145.508-68.2129L145.508-41.6992C145.508-39.4043 144.678-37.8906 143.262-36.4746ZM113.184-52.5879C117.773-52.5879 121.191-56.1035 121.191-60.5957C121.191-65.0879 117.773-68.6035 113.184-68.6035C108.594-68.6035 105.176-65.0879 105.176-60.5957C105.176-56.1035 108.594-52.5879 113.184-52.5879Z"/>
  </g>
  <g id="Light-L" transform="matrix(1 0 0 1 1069.56 1556)">
   <path d="M86.1328 31.3965L148.145-30.7617C152.246-34.9121 152.637-36.8652 152.637-43.5547L152.637-67.5293C152.637-73.3398 151.66-75.0488 146.875-79.834L132.08-94.6777C127.246-99.4629 125.586-100.439 119.727-100.439L95.8008-100.439C89.0625-100.439 87.1094-100.049 83.0078-95.9473L20.7031-33.9844C12.4512-25.7324 12.4023-17.0898 20.752-8.74023L60.8887 31.3965C69.2871 39.7461 77.9297 39.6484 86.1328 31.3965ZM81.6895 26.4648C76.3184 31.8359 70.8008 31.8848 65.332 26.416L25.6836-13.2324C20.2637-18.6523 20.3613-24.2676 25.6348-29.541L87.6465-91.2598C89.3555-92.9688 91.1133-93.8477 93.6035-93.8477L120.166-93.8477C122.51-93.8477 124.316-92.9688 126.025-91.2598L143.457-73.7793C145.215-72.0703 146.045-70.3125 146.045-67.9199L146.045-41.4062C146.045-38.916 145.166-37.1094 143.457-35.4492ZM112.744-53.3203C116.846-53.3203 119.922-56.4941 119.922-60.498C119.922-64.5508 116.846-67.6758 112.744-67.6758C108.643-67.6758 105.566-64.5508 105.566-60.498C105.566-56.4941 108.643-53.3203 112.744-53.3203Z"/>
  </g>
  <g id="Thin-L" transform="matrix(1 0 0 1 773.854 1556)">
   <path d="M84.082 31.3477L146.533-31.3477C150.195-35.0098 150.684-36.4258 150.684-43.1641L150.684-67.1387C150.684-72.3145 150.146-73.7305 145.312-78.5645L130.273-93.6035C125.439-98.4375 124.023-98.9746 118.848-98.9746L94.873-98.9746C88.1348-98.9746 86.7188-98.4863 83.0566-94.8242L20.2148-32.5195C12.5-24.8047 12.5488-16.6992 20.2148-9.0332L60.6445 31.3477C68.3594 39.0625 76.5137 38.9648 84.082 31.3477ZM81.4453 28.418C75.4395 34.4238 69.3848 34.4727 63.2812 28.3691L23.1934-11.7188C17.1387-17.7246 17.2363-23.9258 23.1934-29.8828L85.791-92.0898C87.793-94.0918 89.9902-95.0195 92.7246-95.0195L119.238-95.0195C121.924-95.0195 124.072-94.0918 126.074-92.0898L143.799-74.3652C145.801-72.3633 146.729-70.2148 146.729-67.5293L146.729-41.0156C146.729-38.2812 145.801-36.084 143.799-34.082ZM112.109-54.2969C115.576-54.2969 118.164-56.9336 118.164-60.4004C118.164-63.8672 115.576-66.4551 112.109-66.4551C108.643-66.4551 106.006-63.8672 106.006-60.4004C106.006-56.9336 108.643-54.2969 112.109-54.2969Z"/>
  </g>
  <g id="Ultralight-L" transform="matrix(1 0 0 1 477.655 1556)">
   <path d="M83.0566 31.2988L145.703-31.6406C149.17-35.0586 149.658-36.2305 149.658-42.9688L149.658-66.9434C149.658-71.7773 149.365-73.0469 144.531-77.8809L129.346-93.0664C124.512-97.9004 123.242-98.1934 118.408-98.1934L94.4336-98.1934C87.6465-98.1934 86.5234-97.7051 83.1055-94.2871L19.9707-31.7871C12.5488-24.3652 12.6465-16.5039 19.9707-9.22852L60.498 31.2988C67.8711 38.7207 75.8301 38.623 83.0566 31.2988ZM81.3477 29.3945C74.9512 35.7422 68.6523 35.8398 62.207 29.3945L21.875-10.9375C15.5273-17.2852 15.625-23.7793 21.9238-30.0293L84.8633-92.4805C87.0117-94.6777 89.3555-95.6543 92.2363-95.6543L118.799-95.6543C121.582-95.6543 123.926-94.6289 126.123-92.4805L143.945-74.6582C146.094-72.5098 147.119-70.166 147.119-67.334L147.119-40.8203C147.119-37.9395 146.094-35.5957 143.945-33.3984ZM111.768-54.834C114.941-54.834 117.285-57.1777 117.285-60.3516C117.285-63.4766 114.941-65.8691 111.768-65.8691C108.643-65.8691 106.25-63.4766 106.25-60.3516C106.25-57.1777 108.643-54.834 111.768-54.834Z"/>
  </g>
  <g id="Black-M" transform="matrix(1 0 0 1 2861.65 1126)">
   <path d="M77.6367 24.8535L126.66-24.1699C131.201-28.7598 132.275-31.8848 132.275-39.3066L132.275-57.666C132.275-64.0137 130.811-67.0898 125.586-72.3145L114.6-83.252C109.424-88.4766 106.348-89.9414 100-89.9414L81.6406-89.9414C74.2188-89.9414 71.3379-88.623 66.7969-84.082L17.7734-35.0586C9.0332-26.3184 9.08203-16.1133 17.7734-7.42188L50 24.8535C58.6914 33.5449 68.9453 33.5449 77.6367 24.8535ZM66.7969 9.86328C64.7461 11.9141 63.0371 11.9629 60.8887 9.86328L32.7148-18.2617C30.4688-20.4102 30.7617-22.168 32.7148-24.1211L79.8828-71.3379C80.9082-72.3145 81.4453-72.6562 82.7148-72.6562L98.0957-72.6562C99.2676-72.6562 100.293-72.2168 100.879-71.582L113.916-58.5449C114.502-57.959 114.941-56.9336 114.941-55.7617L114.941-40.3809C114.941-38.7207 114.844-38.1836 113.965-37.3047ZM92.2363-41.3574C97.0703-41.3574 100.781-45.0684 100.781-49.9023C100.781-54.7363 97.0703-58.4961 92.2363-58.4961C87.4023-58.4961 83.6914-54.7363 83.6914-49.9023C83.6914-45.0684 87.4023-41.3574 92.2363-41.3574Z"/>
  </g>
  <g id="Heavy-M" transform="matrix(1 0 0 1 2566.35 1126)">
   <path d="M75.5371 22.8516L124.219-25.8301C128.564-30.2246 129.443-33.1055 129.443-39.9414L129.443-58.3984C129.443-64.4531 128.027-67.1875 123.193-72.0215L112.158-83.0566C107.275-87.8906 104.541-89.3555 98.5352-89.3555L80.0781-89.3555C73.2422-89.3555 70.5078-88.2812 66.1621-83.8867L17.4805-35.2051C9.17969-26.9043 9.13086-17.3828 17.4805-9.08203L49.4141 22.8516C57.7637 31.1523 67.2363 31.1523 75.5371 22.8516ZM66.0156 10.0586C63.623 12.4023 61.4746 12.5 58.9844 10.0586L30.2734-18.6035C27.7344-21.0938 27.9297-23.3398 30.2734-25.6348L77.4902-72.8516C78.5156-73.877 79.1504-74.2188 80.5176-74.2188L97.1191-74.2188C98.3887-74.2188 99.4141-73.7793 100.098-73.0469L113.184-59.9609C113.916-59.2773 114.355-58.252 114.355-56.9824L114.355-40.3809C114.355-38.7695 114.16-38.0859 113.232-37.1582ZM91.2109-42.9688C95.8008-42.9688 99.3652-46.5332 99.3652-51.123C99.3652-55.6641 95.8008-59.2285 91.2109-59.2285C86.6699-59.2285 83.1055-55.6641 83.1055-51.123C83.1055-46.5332 86.6699-42.9688 91.2109-42.9688Z"/>
  </g>
  <g id="Bold-M" transform="matrix(1 0 0 1 2271.2 1126)">
   <path d="M73.1934 20.6543L121.533-27.6855C125.635-31.8359 126.318-34.4238 126.318-40.6738L126.318-59.1797C126.318-64.9414 124.951-67.2363 120.508-71.7285L109.375-82.8125C104.932-87.2559 102.588-88.623 96.8262-88.623L78.3691-88.623C72.1191-88.623 69.6289-87.8418 65.5273-83.7402L17.1387-35.4004C9.27734-27.5391 9.22852-18.8477 17.1387-10.9375L48.7305 20.6543C56.6895 28.5645 65.3809 28.5156 73.1934 20.6543ZM65.1367 10.2539C62.4023 12.9883 59.668 13.0859 56.7871 10.2051L27.5879-18.9941C24.6582-21.875 24.8535-24.6094 27.5391-27.3438L74.8535-74.5605C75.8301-75.5859 76.6113-76.0254 78.0762-76.0254L96.0449-76.0254C97.4121-76.0254 98.3887-75.5371 99.2188-74.707L112.402-61.5723C113.232-60.7422 113.721-59.7168 113.721-58.3496L113.721-40.3809C113.721-38.7695 113.33-37.9883 112.402-37.0605ZM90.0879-44.8242C94.4336-44.8242 97.7539-48.1445 97.7539-52.4414C97.7539-56.6895 94.4336-60.0586 90.0879-60.0586C85.791-60.0586 82.4707-56.6895 82.4707-52.4414C82.4707-48.1445 85.791-44.8242 90.0879-44.8242Z"/>
  </g>
  <g id="Semibold-M" transform="matrix(1 0 0 1 1975.59 1126)">
   <path d="M71.6309 19.1406L119.678-28.9551C123.633-32.9102 124.121-35.3516 124.121-41.2109L124.121-59.7168C124.121-65.2344 122.803-67.334 118.652-71.4844L107.471-82.666C103.32-86.8164 101.221-88.1348 95.7031-88.1348L77.1973-88.1348C71.3379-88.1348 68.9941-87.5488 65.0391-83.5938L16.8945-35.5469C9.375-27.9785 9.27734-19.8242 16.9434-12.207L48.291 19.0918C55.957 26.7578 64.0625 26.709 71.6309 19.1406ZM64.5508 10.4004C61.5234 13.3789 58.4473 13.4766 55.3223 10.3516L25.6836-19.2383C22.5586-22.3633 22.6562-25.4883 25.6836-28.4668L72.998-75.7812C73.9746-76.7578 74.8535-77.2461 76.3672-77.2461L95.3125-77.2461C96.7285-77.2461 97.7051-76.7578 98.6328-75.8301L111.816-62.6465C112.744-61.7676 113.232-60.7422 113.232-59.3262L113.232-40.3809C113.232-38.7695 112.793-37.8906 111.865-36.9141ZM89.3555-46.0449C93.457-46.0449 96.6309-49.2676 96.6309-53.3691C96.6309-57.4219 93.457-60.6445 89.3555-60.6445C85.2051-60.6445 82.0312-57.4219 82.0312-53.3691C82.0312-49.2676 85.2051-46.0449 89.3555-46.0449Z"/>
  </g>
  <g id="Medium-M" transform="matrix(1 0 0 1 1679.71 1126)">
   <path d="M70.4102 17.9688L118.262-29.9316C122.07-33.7891 122.461-36.0352 122.461-41.6016L122.461-60.1074C122.461-65.5273 121.191-67.3828 117.236-71.3379L106.055-82.5195C102.051-86.4746 100.195-87.7441 94.8242-87.7441L76.2695-87.7441C70.752-87.7441 68.5059-87.3535 64.6973-83.4961L16.748-35.6445C9.42383-28.3203 9.32617-20.5566 16.7969-13.1836L47.9492 17.9688C55.3711 25.3418 63.0859 25.293 70.4102 17.9688ZM64.1113 10.498C60.8887 13.7207 57.5195 13.7695 54.1992 10.4492L24.2676-19.4336C20.9473-22.7539 21.0449-26.1719 24.2188-29.3457L71.6309-76.6602C72.6074-77.6367 73.5352-78.2227 75.0977-78.2227L94.7266-78.2227C96.1914-78.2227 97.2168-77.6855 98.1934-76.709L111.426-63.4766C112.354-62.5 112.891-61.5234 112.891-60.0098L112.891-40.3809C112.891-38.7695 112.402-37.8418 111.426-36.8652ZM88.7207-47.0215C92.7246-47.0215 95.752-50.0977 95.752-54.0527C95.752-57.959 92.7246-61.084 88.7207-61.084C84.7656-61.084 81.7383-57.959 81.7383-54.0527C81.7383-50.0977 84.7656-47.0215 88.7207-47.0215Z"/>
  </g>
  <g id="Regular-M" transform="matrix(1 0 0 1 1384.07 1126)">
   <path d="M68.7988 16.5039L116.406-31.2012C120.068-34.8633 120.312-36.9629 120.312-42.0898L120.312-60.6445C120.312-65.8203 119.092-67.4316 115.381-71.1426L104.15-82.373C100.488-86.0352 98.877-87.3047 93.7012-87.3047L75.0977-87.3047C69.9707-87.3047 67.9199-87.0605 64.2578-83.3984L16.5039-35.7422C9.52148-28.7598 9.375-21.5332 16.5527-14.4043L47.4609 16.4551C54.6387 23.584 61.8164 23.4863 68.7988 16.5039ZM63.5254 10.5957C60.0098 14.1113 56.2988 14.1602 52.7344 10.5469L22.4121-19.7266C18.8477-23.291 18.8965-27.0508 22.3633-30.5176L69.7754-77.832C70.752-78.8086 71.7773-79.4434 73.4375-79.4434L93.9941-79.4434C95.5078-79.4434 96.5332-78.8574 97.5586-77.832L110.889-64.5508C111.914-63.5254 112.451-62.5 112.451-60.9863L112.451-40.3809C112.451-38.7695 111.865-37.7441 110.889-36.7676ZM87.9883-48.2422C91.7969-48.2422 94.6777-51.2207 94.6777-54.9316C94.6777-58.6914 91.7969-61.6211 87.9883-61.6211C84.1309-61.6211 81.2988-58.6914 81.2988-54.9316C81.2988-51.2207 84.1309-48.2422 87.9883-48.2422Z"/>
  </g>
  <g id="Light-M" transform="matrix(1 0 0 1 1088.02 1126)">
   <path d="M67.4316 16.4551L115.332-31.5918C118.701-34.9609 118.994-36.6699 118.994-41.8457L118.994-60.4004C118.994-65.1367 118.066-66.5527 114.355-70.2637L102.93-81.6406C99.2676-85.3516 97.8516-86.2793 93.1152-86.2793L74.5117-86.2793C69.3359-86.2793 67.627-85.9863 64.3066-82.666L16.2109-34.7656C9.61914-28.1738 9.52148-21.2891 16.2109-14.5996L47.3145 16.4062C54.0039 23.0957 60.8887 23.0469 67.4316 16.4551ZM63.3789 11.9141C59.4238 15.8691 55.3711 15.918 51.3184 11.9141L20.752-18.7012C16.748-22.6562 16.7969-26.8066 20.7031-30.7129L68.5547-78.3691C69.7754-79.5898 70.9961-80.2246 72.8516-80.2246L93.4082-80.2246C95.1172-80.2246 96.3867-79.6387 97.6562-78.3691L111.084-64.9414C112.305-63.7207 112.939-62.4512 112.939-60.6934L112.939-40.1367C112.939-38.3301 112.305-37.0605 111.084-35.8398ZM87.5488-48.9258C90.9668-48.9258 93.5059-51.5625 93.5059-54.8828C93.5059-58.2031 90.9668-60.791 87.5488-60.791C84.1797-60.791 81.6406-58.2031 81.6406-54.8828C81.6406-51.5625 84.1797-48.9258 87.5488-48.9258Z"/>
  </g>
  <g id="Thin-M" transform="matrix(1 0 0 1 792.213 1126)">
   <path d="M65.625 16.3574L113.916-32.0801C116.846-35.0098 117.188-36.2793 117.188-41.4551L117.188-60.0586C117.188-64.209 116.699-65.3809 112.988-69.0918L101.367-80.7129C97.6074-84.4238 96.4355-84.9609 92.334-84.9609L73.7305-84.9609C68.5059-84.9609 67.2852-84.6191 64.3555-81.6406L15.7715-33.4473C9.7168-27.3438 9.7168-20.9473 15.8203-14.8926L47.0703 16.3574C53.1738 22.5098 59.6191 22.4121 65.625 16.3574ZM63.1836 13.6719C58.6426 18.1641 54.1016 18.2617 49.5117 13.6719L18.5059-17.334C13.9648-21.875 14.0625-26.5625 18.5059-31.0059L66.8945-79.1016C68.4082-80.6152 69.9707-81.2988 72.0703-81.2988L92.627-81.2988C94.6289-81.2988 96.1914-80.6152 97.7051-79.1016L111.377-65.4297C112.891-63.9648 113.574-62.3535 113.574-60.3516L113.574-39.7949C113.574-37.7441 112.891-36.1328 111.377-34.668ZM87.0117-49.8047C89.8438-49.8047 91.9922-51.9531 91.9922-54.7363C91.9922-57.5684 89.8438-59.7168 87.0117-59.7168C84.2285-59.7168 82.0801-57.5684 82.0801-54.7363C82.0801-51.9531 84.2285-49.8047 87.0117-49.8047Z"/>
  </g>
  <g id="Ultralight-M" transform="matrix(1 0 0 1 495.942 1126)">
   <path d="M64.6973 16.3574L113.184-32.373C115.918-35.0586 116.309-36.0352 116.309-41.3086L116.309-59.8633C116.309-63.7207 116.016-64.7461 112.256-68.5059L100.537-80.2246C96.8262-83.9355 95.752-84.2773 91.8945-84.2773L73.3398-84.2773C68.1152-84.2773 67.1387-83.8867 64.4043-81.1523L15.5762-32.7637C9.76562-26.9531 9.81445-20.8008 15.5762-15.0391L46.9238 16.3574C52.7832 22.168 58.9844 22.1191 64.6973 16.3574ZM63.0859 14.5508C58.252 19.3848 53.418 19.4336 48.5352 14.5508L17.3828-16.6504C12.5488-21.4355 12.5977-26.416 17.3828-31.1523L66.0645-79.4922C67.7246-81.1035 69.4824-81.8848 71.6797-81.8848L92.2363-81.8848C94.3359-81.8848 96.0938-81.1035 97.7539-79.4922L111.523-65.6738C113.184-64.0625 113.916-62.3047 113.916-60.1562L113.916-39.5996C113.916-37.4023 113.184-35.6445 111.523-34.0332ZM86.7676-50.2441C89.3066-50.2441 91.2109-52.1484 91.2109-54.6875C91.2109-57.2266 89.3066-59.1309 86.7676-59.1309C84.2285-59.1309 82.3242-57.2266 82.3242-54.6875C82.3242-52.1484 84.2285-50.2441 86.7676-50.2441Z"/>
  </g>
  <g id="Black-S" transform="matrix(1 0 0 1 2877.3 696)">
   <path d="M60.6445 11.6699L99.0234-26.709C102.588-30.2734 103.418-32.7148 103.418-38.4766L103.418-52.8809C103.418-57.8125 102.246-60.2051 98.1934-64.2578L89.5996-72.8516C85.5469-76.9043 83.1543-78.0762 78.2227-78.0762L63.8184-78.0762C58.0566-78.0762 55.8105-77.0508 52.2461-73.4863L13.8672-35.1074C7.08008-28.3203 7.08008-20.3613 13.8672-13.5742L39.1113 11.6699C45.8984 18.457 53.8574 18.457 60.6445 11.6699ZM52.2461 0.0976562C50.6348 1.70898 49.2676 1.75781 47.5586 0.0976562L25.4395-21.9727C23.6816-23.6816 23.877-25.0977 25.4395-26.6602L62.4023-63.623C63.1836-64.4043 63.623-64.6484 64.5996-64.6484L76.7578-64.6484C77.6855-64.6484 78.4668-64.3066 78.9551-63.8184L89.1602-53.6133C89.6484-53.125 89.9902-52.3438 89.9902-51.416L89.9902-39.2578C89.9902-37.9883 89.8926-37.5488 89.209-36.8652ZM72.168-40.1367C75.9277-40.1367 78.8574-43.0664 78.8574-46.8262C78.8574-50.5859 75.9277-53.5156 72.168-53.5156C68.4082-53.5156 65.4785-50.5859 65.4785-46.8262C65.4785-43.0664 68.4082-40.1367 72.168-40.1367Z"/>
  </g>
  <g id="Heavy-S" transform="matrix(1 0 0 1 2581.59 696)">
   <path d="M59.2285 10.1562L97.3145-27.9297C100.732-31.3477 101.416-33.6426 101.416-39.0137L101.416-53.4668C101.416-58.2031 100.244-60.3516 96.4844-64.1602L87.8418-72.7539C84.082-76.5625 81.9336-77.6855 77.1484-77.6855L62.7441-77.6855C57.373-77.6855 55.2246-76.9043 51.8066-73.4375L13.6719-35.3516C7.17773-28.8086 7.12891-21.3867 13.7207-14.7949L38.6719 10.1562C45.2637 16.6992 52.6855 16.6992 59.2285 10.1562ZM51.6602 0.0976562C49.8535 1.9043 48.1445 1.95312 46.2402 0.0976562L23.7793-22.3633C21.8262-24.2676 21.9727-25.9766 23.7793-27.7832L60.7422-64.7461C61.4746-65.4785 61.9629-65.7715 62.9883-65.7715L76.0742-65.7715C77.0508-65.7715 77.832-65.4297 78.3691-64.8926L88.5742-54.6387C89.1602-54.1016 89.502-53.3691 89.502-52.3926L89.502-39.3066C89.502-38.0371 89.3066-37.5488 88.623-36.8652ZM71.4355-41.3086C75.0977-41.3086 77.8809-44.1406 77.8809-47.7539C77.8809-51.3672 75.0977-54.1992 71.4355-54.1992C67.8223-54.1992 65.0391-51.3672 65.0391-47.7539C65.0391-44.1406 67.8223-41.3086 71.4355-41.3086Z"/>
  </g>
  <g id="Bold-S" transform="matrix(1 0 0 1 2286 696)">
   <path d="M57.6172 8.49609L95.3613-29.2969C98.6816-32.6172 99.1699-34.7168 99.1699-39.5996L99.1699-54.1016C99.1699-58.6914 97.998-60.5469 94.5312-64.0137L85.8887-72.6562C82.4219-76.123 80.5664-77.2949 75.9766-77.2949L61.4746-77.2949C56.5918-77.2949 54.5898-76.709 51.2695-73.3887L13.4766-35.5957C7.27539-29.3945 7.17773-22.5098 13.4766-16.2109L38.1836 8.44727C44.5312 14.7461 51.3672 14.7461 57.6172 8.49609ZM51.0254 0.0976562C48.9746 2.14844 46.9238 2.19727 44.7754 0.0488281L21.9238-22.7539C19.7266-24.9512 19.873-27.002 21.875-29.0527L58.8379-65.9668C59.5703-66.6992 60.1074-67.041 61.2305-67.041L75.3418-67.041C76.3672-67.041 77.0996-66.6992 77.6855-66.0645L87.9395-55.8105C88.5742-55.2246 88.916-54.4922 88.916-53.4668L88.916-39.3555C88.916-38.0859 88.6719-37.5488 87.9883-36.8652ZM70.6543-42.627C74.1211-42.627 76.8066-45.3613 76.8066-48.7793C76.8066-52.1973 74.1211-54.9316 70.6543-54.9316C67.1875-54.9316 64.502-52.1973 64.502-48.7793C64.502-45.3613 67.1875-42.627 70.6543-42.627Z"/>
  </g>
  <g id="Semibold-S" transform="matrix(1 0 0 1 1990.07 696)">
   <path d="M56.4941 7.32422L94.043-30.2246C97.2656-33.4473 97.6074-35.4492 97.6074-39.9902L97.6074-54.541C97.6074-58.9844 96.4844-60.6934 93.2129-63.916L84.5215-72.6074C81.2988-75.8789 79.5898-77.002 75.1465-77.002L60.6445-77.002C56.0547-77.002 54.1016-76.5625 50.9277-73.3887L13.3301-35.791C7.32422-29.7852 7.22656-23.2422 13.3789-17.1387L37.8418 7.32422C43.9941 13.4277 50.4395 13.3789 56.4941 7.32422ZM50.5859 0.0488281C48.3887 2.29492 46.0449 2.34375 43.75 0.0488281L20.6055-23.0469C18.3105-25.3906 18.4082-27.6855 20.6055-29.9316L57.5195-66.8457C58.252-67.5293 58.8379-67.9199 59.9609-67.9199L74.8047-67.9199C75.8789-67.9199 76.5625-67.5293 77.2461-66.8945L87.5-56.6406C88.1348-55.957 88.5254-55.2734 88.5254-54.1992L88.5254-39.3555C88.5254-38.1348 88.1836-37.5488 87.5488-36.8652ZM70.0684-43.5547C73.4863-43.5547 76.0254-46.1426 76.0254-49.4629C76.0254-52.7832 73.4863-55.4199 70.0684-55.4199C66.6992-55.4199 64.1602-52.7832 64.1602-49.4629C64.1602-46.1426 66.6992-43.5547 70.0684-43.5547Z"/>
  </g>
  <g id="Medium-S" transform="matrix(1 0 0 1 1693.94 696)">
   <path d="M55.6641 6.44531L93.0176-30.957C96.1426-34.082 96.4355-35.9863 96.4355-40.332L96.4355-54.834C96.4355-59.2285 95.3125-60.791 92.1875-63.8672L83.4961-72.5586C80.4199-75.6348 78.9062-76.8066 74.5117-76.8066L59.9609-76.8066C55.6641-76.8066 53.7598-76.4648 50.6348-73.3398L13.2324-35.9375C7.37305-30.0781 7.22656-23.877 13.2812-17.8711L37.5977 6.39648C43.6035 12.4023 49.7559 12.3535 55.6641 6.44531ZM50.2441 0.0488281C47.9004 2.39258 45.4102 2.44141 42.9688 0.0488281L19.6289-23.291C17.1875-25.7324 17.2852-28.2227 19.6289-30.5664L56.543-67.4805C57.2266-68.1641 57.8613-68.6035 59.0332-68.6035L74.4141-68.6035C75.4883-68.6035 76.2207-68.2129 76.8555-67.5293L87.1582-57.2266C87.8418-56.543 88.2324-55.8594 88.2324-54.7852L88.2324-39.4043C88.2324-38.1836 87.8418-37.5488 87.207-36.8652ZM69.6777-44.2383C72.9492-44.2383 75.4395-46.7773 75.4395-50C75.4395-53.2715 72.9492-55.8105 69.6777-55.8105C66.3574-55.8105 63.8672-53.2715 63.8672-50C63.8672-46.7773 66.3574-44.2383 69.6777-44.2383Z"/>
  </g>
  <g id="Regular-S" transform="matrix(1 0 0 1 1397.99 696)">
   <path d="M54.541 5.32227L91.6992-31.8848C94.7266-34.9121 94.9219-36.7188 94.9219-40.7227L94.9219-55.2734C94.9219-59.5703 93.7988-60.8887 90.8691-63.7695L82.1777-72.5098C79.2969-75.3906 77.9297-76.5137 73.6816-76.5137L59.1309-76.5137C55.127-76.5137 53.3203-76.3672 50.293-73.3398L13.0859-36.1328C7.42188-30.4688 7.27539-24.6094 13.1348-18.8477L37.2559 5.27344C43.1152 11.084 48.877 11.0352 54.541 5.32227ZM49.8047 0.0488281C47.3145 2.58789 44.5801 2.63672 41.9434 0L18.3594-23.584C15.7715-26.1719 15.8203-28.9062 18.3105-31.4453L55.2734-68.3594C55.957-68.9941 56.5918-69.4824 57.8125-69.4824L73.9258-69.4824C75.0488-69.4824 75.6836-69.043 76.416-68.3594L86.7188-58.0078C87.4512-57.3242 87.8418-56.6406 87.8418-55.5176L87.8418-39.4043C87.8418-38.2324 87.4023-37.5488 86.7188-36.8652ZM69.0918-45.1172C72.3145-45.1172 74.707-47.6074 74.707-50.7324C74.707-53.8086 72.3145-56.2988 69.0918-56.2988C65.918-56.2988 63.5254-53.8086 63.5254-50.7324C63.5254-47.6074 65.918-45.1172 69.0918-45.1172Z"/>
  </g>
  <g id="Light-S" transform="matrix(1 0 0 1 1101.89 696)">
   <path d="M53.3691 5.27344L90.7715-32.2266C93.5059-34.9609 93.7012-36.4746 93.7012-40.4785L93.7012-55.0293C93.7012-58.9355 92.8711-60.1074 89.9902-62.9883L81.1035-71.875C78.2227-74.7559 77.0508-75.5859 73.1445-75.5859L58.5938-75.5859C54.541-75.5859 53.0762-75.3906 50.3418-72.6562L12.793-35.2539C7.4707-29.9316 7.42188-24.4141 12.8418-18.9941L37.1094 5.22461C42.5293 10.6445 48.0469 10.5957 53.3691 5.27344ZM49.707 1.2207C46.7773 4.10156 43.7012 4.15039 40.7227 1.17188L16.8945-22.6562C13.916-25.6348 13.9648-28.7109 16.8457-31.6406L54.1504-68.8477C55.0293-69.6777 55.9082-70.166 57.2754-70.166L73.3887-70.166C74.6582-70.166 75.5859-69.7266 76.4648-68.8477L86.9141-58.3496C87.8418-57.4707 88.2812-56.5918 88.2812-55.2734L88.2812-39.1602C88.2812-37.793 87.793-36.9141 86.9141-36.084ZM68.75-45.7031C71.582-45.7031 73.6816-47.9004 73.6816-50.6348C73.6816-53.418 71.582-55.5664 68.75-55.5664C65.918-55.5664 63.8184-53.418 63.8184-50.6348C63.8184-47.9004 65.918-45.7031 68.75-45.7031Z"/>
  </g>
  <g id="Thin-S" transform="matrix(1 0 0 1 805.958 696)">
   <path d="M51.7578 5.22461L89.502-32.666C91.8945-35.0586 92.1387-36.1328 92.1387-40.1855L92.1387-54.7363C92.1387-58.1055 91.6992-59.082 88.7695-61.9629L79.6875-71.0449C76.8066-73.9746 75.8301-74.4141 72.4609-74.4141L57.9102-74.4141C53.8574-74.4141 52.7832-74.1699 50.3906-71.7773L12.4512-34.082C7.56836-29.1992 7.56836-24.1211 12.4512-19.2383L36.9141 5.22461C41.8457 10.1074 46.9238 10.0586 51.7578 5.22461ZM49.5117 2.73438C46.0938 6.15234 42.627 6.20117 39.1113 2.73438L14.9414-21.4844C11.4746-24.9023 11.5234-28.4668 14.8926-31.8848L52.7344-69.4824C53.8574-70.5566 55.0293-71.1426 56.5918-71.1426L72.7051-71.1426C74.2188-71.1426 75.3906-70.6055 76.5137-69.4824L87.207-58.7891C88.3301-57.666 88.8672-56.4941 88.8672-54.9805L88.8672-38.8672C88.8672-37.3047 88.3301-36.1328 87.207-35.0098ZM68.2617-46.4844C70.6055-46.4844 72.3633-48.2422 72.3633-50.5371C72.3633-52.832 70.6055-54.6387 68.2617-54.6387C65.9668-54.6387 64.209-52.832 64.209-50.5371C64.209-48.2422 65.9668-46.4844 68.2617-46.4844Z"/>
  </g>
  <g id="Ultralight-S" transform="matrix(1 0 0 1 509.638 696)">
   <path d="M50.9277 5.17578L88.8672-32.9102C91.0645-35.1074 91.3574-35.9375 91.3574-40.0391L91.3574-54.5898C91.3574-57.666 91.0645-58.5449 88.1348-61.4258L79.0039-70.6055C76.0742-73.5352 75.1953-73.8281 72.1191-73.8281L57.5684-73.8281C53.4668-73.8281 52.6367-73.5352 50.4395-71.3379L12.2559-33.4961C7.61719-28.8574 7.66602-23.9746 12.2559-19.3359L36.8164 5.17578C41.4551 9.81445 46.3867 9.76562 50.9277 5.17578ZM49.4629 3.51562C45.752 7.22656 42.041 7.27539 38.2812 3.51562L13.916-20.8496C10.2051-24.5605 10.2539-28.3691 13.916-31.9824L52.002-69.7754C53.2227-71.0449 54.541-71.6309 56.25-71.6309L72.3633-71.6309C73.9746-71.6309 75.3418-71.0449 76.5625-69.7754L87.3535-59.0332C88.5742-57.7637 89.1602-56.4453 89.1602-54.834L89.1602-38.7207C89.1602-37.0117 88.5742-35.6934 87.3535-34.4727ZM68.0176-46.875C70.0684-46.875 71.6309-48.4375 71.6309-50.4883C71.6309-52.5391 70.0684-54.1016 68.0176-54.1016C65.9668-54.1016 64.4043-52.5391 64.4043-50.4883C64.4043-48.4375 65.9668-46.875 68.0176-46.875Z"/>
  </g>
 </g>
</svg>
