<?xml version="1.0" encoding="UTF-8"?>
<!--Generator: Apple Native CoreSVG 149-->
<!DOCTYPE svg
PUBLIC "-//W3C//DTD SVG 1.1//EN"
       "http://www.w3.org/Graphics/SVG/1.1/DTD/svg11.dtd">
<svg version="1.1" xmlns="http://www.w3.org/2000/svg" xmlns:xlink="http://www.w3.org/1999/xlink" width="3300" height="2200">
 <!--glyph: "uni100598.medium", point size: 100.000000, font version: "Version 16.0d18e1", template writer version: "8"-->
 <g id="Notes">
  <rect height="2200" id="artboard" style="fill:white;opacity:1" width="3300" x="0" y="0"/>
  <line id="" style="fill:none;stroke:black;opacity:1;stroke-width:0.5;" x1="263" x2="3036" y1="292" y2="292"/>
  <text style="stroke:none;fill:black;font-family:-apple-system,&quot;SF Pro Display&quot;,&quot;SF Pro Text&quot;,Helvetica,sans-serif;font-weight:bold;" transform="matrix(1 0 0 1 263 322)">Weight/Scale Variations</text>
  <text style="stroke:none;fill:black;font-family:-apple-system,&quot;SF Pro Display&quot;,&quot;SF Pro Text&quot;,Helvetica,sans-serif;text-anchor:middle;" transform="matrix(1 0 0 1 559.711 322)">Ultralight</text>
  <text style="stroke:none;fill:black;font-family:-apple-system,&quot;SF Pro Display&quot;,&quot;SF Pro Text&quot;,Helvetica,sans-serif;text-anchor:middle;" transform="matrix(1 0 0 1 856.422 322)">Thin</text>
  <text style="stroke:none;fill:black;font-family:-apple-system,&quot;SF Pro Display&quot;,&quot;SF Pro Text&quot;,Helvetica,sans-serif;text-anchor:middle;" transform="matrix(1 0 0 1 1153.13 322)">Light</text>
  <text style="stroke:none;fill:black;font-family:-apple-system,&quot;SF Pro Display&quot;,&quot;SF Pro Text&quot;,Helvetica,sans-serif;text-anchor:middle;" transform="matrix(1 0 0 1 1449.84 322)">Regular</text>
  <text style="stroke:none;fill:black;font-family:-apple-system,&quot;SF Pro Display&quot;,&quot;SF Pro Text&quot;,Helvetica,sans-serif;text-anchor:middle;" transform="matrix(1 0 0 1 1746.56 322)">Medium</text>
  <text style="stroke:none;fill:black;font-family:-apple-system,&quot;SF Pro Display&quot;,&quot;SF Pro Text&quot;,Helvetica,sans-serif;text-anchor:middle;" transform="matrix(1 0 0 1 2043.27 322)">Semibold</text>
  <text style="stroke:none;fill:black;font-family:-apple-system,&quot;SF Pro Display&quot;,&quot;SF Pro Text&quot;,Helvetica,sans-serif;text-anchor:middle;" transform="matrix(1 0 0 1 2339.98 322)">Bold</text>
  <text style="stroke:none;fill:black;font-family:-apple-system,&quot;SF Pro Display&quot;,&quot;SF Pro Text&quot;,Helvetica,sans-serif;text-anchor:middle;" transform="matrix(1 0 0 1 2636.69 322)">Heavy</text>
  <text style="stroke:none;fill:black;font-family:-apple-system,&quot;SF Pro Display&quot;,&quot;SF Pro Text&quot;,Helvetica,sans-serif;text-anchor:middle;" transform="matrix(1 0 0 1 2933.4 322)">Black</text>
  <line id="" style="fill:none;stroke:black;opacity:1;stroke-width:0.5;" x1="263" x2="3036" y1="1903" y2="1903"/>
  <g id="" transform="matrix(1 0 0 1 263 1933)">
   <path d="M9.24805 0.830078C13.5547 0.830078 17.1387-2.74414 17.1387-7.05078C17.1387-11.3574 13.5449-14.9316 9.23828-14.9316C4.94141-14.9316 1.36719-11.3574 1.36719-7.05078C1.36719-2.74414 4.95117 0.830078 9.24805 0.830078ZM9.24805-0.654297C5.70312-0.654297 2.87109-3.49609 2.87109-7.05078C2.87109-10.6055 5.69336-13.4473 9.23828-13.4473C12.793-13.4473 15.6348-10.6055 15.6445-7.05078C15.6543-3.49609 12.8027-0.654297 9.24805-0.654297ZM6.39648-6.31836L8.50586-6.31836L8.50586-4.19922C8.50586-3.75977 8.79883-3.45703 9.22852-3.45703C9.67773-3.45703 9.9707-3.75977 9.9707-4.19922L9.9707-6.31836L12.0996-6.31836C12.5391-6.31836 12.8418-6.61133 12.8418-7.04102C12.8418-7.48047 12.5391-7.7832 12.0996-7.7832L9.9707-7.7832L9.9707-9.89258C9.9707-10.3418 9.67773-10.6445 9.22852-10.6445C8.79883-10.6445 8.50586-10.3418 8.50586-9.89258L8.50586-7.7832L6.39648-7.7832C5.94727-7.7832 5.64453-7.48047 5.64453-7.04102C5.64453-6.61133 5.94727-6.31836 6.39648-6.31836Z"/>
  </g>
  <g id="" transform="matrix(1 0 0 1 281.506 1933)">
   <path d="M11.709 2.91016C17.1582 2.91016 21.6699-1.61133 21.6699-7.05078C21.6699-12.5 17.1484-17.0117 11.6992-17.0117C6.25977-17.0117 1.74805-12.5 1.74805-7.05078C1.74805-1.61133 6.26953 2.91016 11.709 2.91016ZM11.709 1.25C7.09961 1.25 3.41797-2.44141 3.41797-7.05078C3.41797-11.6602 7.08984-15.3516 11.6992-15.3516C16.3086-15.3516 20-11.6602 20.0098-7.05078C20.0195-2.44141 16.3184 1.25 11.709 1.25ZM7.98828-6.23047L10.8789-6.23047L10.8789-3.32031C10.8789-2.83203 11.2109-2.5 11.6895-2.5C12.1777-2.5 12.5195-2.83203 12.5195-3.32031L12.5195-6.23047L15.4297-6.23047C15.918-6.23047 16.25-6.5625 16.25-7.04102C16.25-7.5293 15.918-7.87109 15.4297-7.87109L12.5195-7.87109L12.5195-10.7617C12.5195-11.2695 12.1777-11.6016 11.6895-11.6016C11.2109-11.6016 10.8789-11.2598 10.8789-10.7617L10.8789-7.87109L7.98828-7.87109C7.48047-7.87109 7.14844-7.5293 7.14844-7.04102C7.14844-6.5625 7.49023-6.23047 7.98828-6.23047Z"/>
  </g>
  <g id="" transform="matrix(1 0 0 1 304.924 1933)">
   <path d="M14.9707 5.66406C21.9336 5.66406 27.6953-0.0976562 27.6953-7.05078C27.6953-14.0137 21.9238-19.7754 14.9609-19.7754C8.00781-19.7754 2.25586-14.0137 2.25586-7.05078C2.25586-0.0976562 8.01758 5.66406 14.9707 5.66406ZM14.9707 3.84766C8.93555 3.84766 4.08203-1.01562 4.08203-7.05078C4.08203-13.0957 8.92578-17.9492 14.9609-17.9492C21.0059-17.9492 25.8594-13.0957 25.8691-7.05078C25.8789-1.01562 21.0156 3.84766 14.9707 3.84766ZM10.0586-6.14258L14.0625-6.14258L14.0625-2.12891C14.0625-1.5918 14.4336-1.2207 14.9512-1.2207C15.4883-1.2207 15.8594-1.5918 15.8594-2.12891L15.8594-6.14258L19.8828-6.14258C20.4102-6.14258 20.791-6.51367 20.791-7.03125C20.791-7.56836 20.4199-7.94922 19.8828-7.94922L15.8594-7.94922L15.8594-11.9531C15.8594-12.5098 15.4883-12.8809 14.9512-12.8809C14.4336-12.8809 14.0625-12.5 14.0625-11.9531L14.0625-7.94922L10.0586-7.94922C9.50195-7.94922 9.13086-7.56836 9.13086-7.03125C9.13086-6.51367 9.51172-6.14258 10.0586-6.14258Z"/>
  </g>
  <text style="stroke:none;fill:black;font-family:-apple-system,&quot;SF Pro Display&quot;,&quot;SF Pro Text&quot;,Helvetica,sans-serif;font-weight:bold;" transform="matrix(1 0 0 1 263 1953)">Design Variations</text>
  <text style="stroke:none;fill:black;font-family:-apple-system,&quot;SF Pro Display&quot;,&quot;SF Pro Text&quot;,Helvetica,sans-serif;" transform="matrix(1 0 0 1 263 1971)">Symbols are supported in up to nine weights and three scales.</text>
  <text style="stroke:none;fill:black;font-family:-apple-system,&quot;SF Pro Display&quot;,&quot;SF Pro Text&quot;,Helvetica,sans-serif;" transform="matrix(1 0 0 1 263 1989)">For optimal layout with text and other symbols, vertically align</text>
  <text style="stroke:none;fill:black;font-family:-apple-system,&quot;SF Pro Display&quot;,&quot;SF Pro Text&quot;,Helvetica,sans-serif;" transform="matrix(1 0 0 1 263 2007)">symbols with the adjacent text.</text>
  <line id="" style="fill:none;stroke:#00AEEF;stroke-width:0.5;opacity:1.0;" x1="776" x2="776" y1="1919" y2="1933"/>
  <g id="" transform="matrix(1 0 0 1 776 1933)">
   <path d="M3.31055 0.126953C3.82812 0.126953 4.08203-0.0683594 4.26758-0.605469L5.52734-4.0625L11.2891-4.0625L12.5488-0.605469C12.7344-0.0683594 12.9883 0.126953 13.4961 0.126953C14.0137 0.126953 14.3457-0.185547 14.3457-0.673828C14.3457-0.839844 14.3164-0.986328 14.2383-1.20117L9.6582-13.3887C9.43359-13.9941 9.0332-14.2871 8.4082-14.2871C7.80273-14.2871 7.39258-13.9941 7.17773-13.3984L2.59766-1.19141C2.51953-0.976562 2.49023-0.830078 2.49023-0.664062C2.49023-0.175781 2.80273 0.126953 3.31055 0.126953ZM6.00586-5.53711L8.37891-12.1094L8.42773-12.1094L10.8008-5.53711Z"/>
  </g>
  <line id="" style="fill:none;stroke:#00AEEF;stroke-width:0.5;opacity:1.0;" x1="792.836" x2="792.836" y1="1919" y2="1933"/>
  <text style="stroke:none;fill:black;font-family:-apple-system,&quot;SF Pro Display&quot;,&quot;SF Pro Text&quot;,Helvetica,sans-serif;font-weight:bold;" transform="matrix(1 0 0 1 776 1953)">Margins</text>
  <text style="stroke:none;fill:black;font-family:-apple-system,&quot;SF Pro Display&quot;,&quot;SF Pro Text&quot;,Helvetica,sans-serif;" transform="matrix(1 0 0 1 776 1971)">Leading and trailing margins on the left and right side of each symbol</text>
  <text style="stroke:none;fill:black;font-family:-apple-system,&quot;SF Pro Display&quot;,&quot;SF Pro Text&quot;,Helvetica,sans-serif;" transform="matrix(1 0 0 1 776 1989)">can be adjusted by modifying the x-location of the margin guidelines.</text>
  <text style="stroke:none;fill:black;font-family:-apple-system,&quot;SF Pro Display&quot;,&quot;SF Pro Text&quot;,Helvetica,sans-serif;" transform="matrix(1 0 0 1 776 2007)">Modifications are automatically applied proportionally to all</text>
  <text style="stroke:none;fill:black;font-family:-apple-system,&quot;SF Pro Display&quot;,&quot;SF Pro Text&quot;,Helvetica,sans-serif;" transform="matrix(1 0 0 1 776 2025)">scales and weights.</text>
  <g id="" transform="matrix(1 0 0 1 1289 1933)">
   <path d="M2.8418 1.86523L4.54102 3.57422C5.40039 4.44336 6.38672 4.38477 7.31445 3.35938L17.4902-7.85156C17.7539-7.76367 18.0273-7.7832 18.3398-7.8418L19.4043-8.03711L20.0684-7.36328L20.0293-6.80664C19.9902-6.30859 20.1172-5.92773 20.6055-5.44922L21.3672-4.70703C21.8457-4.22852 22.4609-4.19922 22.9297-4.66797L25.8398-7.58789C26.3086-8.05664 26.2891-8.65234 25.8105-9.13086L25.0391-9.89258C24.5605-10.3711 24.1895-10.5273 23.7109-10.4883L23.1348-10.4395L22.4902-11.0742L22.7344-12.1973C22.8613-12.7637 22.7051-13.2031 22.1191-13.7891L19.9219-15.9766C16.582-19.2969 12.1484-19.2188 9.25781-16.3281C8.83789-15.918 8.80859-15.3418 9.04297-14.9512C9.27734-14.5898 9.73633-14.3555 10.3809-14.5215C11.8457-14.8633 13.3691-14.9219 14.7949-13.9844L14.209-12.5293C14.0137-12.0508 13.9844-11.6504 14.1113-11.2891L3.04688-0.898438C2.06055 0.0195312 1.98242 0.996094 2.8418 1.86523ZM10.752-15.957C13.1836-17.7344 16.4746-17.4316 18.7012-15.2051L21.1328-12.793C21.3672-12.5586 21.4062-12.373 21.3379-12.0312L21.0156-10.5469L22.5195-9.0625L23.5059-9.12109C23.7598-9.13086 23.8379-9.11133 24.0332-8.91602L24.6094-8.33984L22.168-5.89844L21.5918-6.47461C21.3965-6.66992 21.3672-6.74805 21.377-7.01172L21.4453-7.98828L19.9512-9.47266L18.4277-9.21875C18.1055-9.15039 17.959-9.17969 17.7148-9.41406L15.7129-11.416C15.459-11.6504 15.4297-11.8164 15.5859-12.1875L16.4648-14.2773C14.9023-15.7324 12.8711-16.3574 10.8398-15.7617C10.6836-15.7227 10.625-15.8496 10.752-15.957ZM5.27344 2.30469L4.10156 1.14258C3.63281 0.683594 3.74023 0.341797 4.14062-0.0195312L14.9512-10.1953L16.416-8.71094L6.42578 2.27539C6.07422 2.67578 5.74219 2.77344 5.27344 2.30469Z"/>
  </g>
  <text style="stroke:none;fill:black;font-family:-apple-system,&quot;SF Pro Display&quot;,&quot;SF Pro Text&quot;,Helvetica,sans-serif;font-weight:bold;" transform="matrix(1 0 0 1 1289 1953)">Exporting</text>
  <text style="stroke:none;fill:black;font-family:-apple-system,&quot;SF Pro Display&quot;,&quot;SF Pro Text&quot;,Helvetica,sans-serif;" transform="matrix(1 0 0 1 1289 1971)">Symbols should be outlined when exporting to ensure the</text>
  <text style="stroke:none;fill:black;font-family:-apple-system,&quot;SF Pro Display&quot;,&quot;SF Pro Text&quot;,Helvetica,sans-serif;" transform="matrix(1 0 0 1 1289 1989)">design is preserved when submitting to Xcode.</text>
  <text id="template-version" style="stroke:none;fill:black;font-family:-apple-system,&quot;SF Pro Display&quot;,&quot;SF Pro Text&quot;,Helvetica,sans-serif;text-anchor:end;" transform="matrix(1 0 0 1 3036 1933)">Template v.2.0</text>
  <text style="stroke:none;fill:black;font-family:-apple-system,&quot;SF Pro Display&quot;,&quot;SF Pro Text&quot;,Helvetica,sans-serif;text-anchor:end;" transform="matrix(1 0 0 1 3036 1951)">Requires Xcode 12 or greater</text>
  <text style="stroke:none;fill:black;font-family:-apple-system,&quot;SF Pro Display&quot;,&quot;SF Pro Text&quot;,Helvetica,sans-serif;text-anchor:end;" transform="matrix(1 0 0 1 3036 1969)">Generated from dollarsign.circle.fill</text>
  <text style="stroke:none;fill:black;font-family:-apple-system,&quot;SF Pro Display&quot;,&quot;SF Pro Text&quot;,Helvetica,sans-serif;text-anchor:end;" transform="matrix(1 0 0 1 3036 1987)">Typeset at 100 points</text>
  <text style="stroke:none;fill:black;font-family:-apple-system,&quot;SF Pro Display&quot;,&quot;SF Pro Text&quot;,Helvetica,sans-serif;" transform="matrix(1 0 0 1 263 726)">Small</text>
  <text style="stroke:none;fill:black;font-family:-apple-system,&quot;SF Pro Display&quot;,&quot;SF Pro Text&quot;,Helvetica,sans-serif;" transform="matrix(1 0 0 1 263 1156)">Medium</text>
  <text style="stroke:none;fill:black;font-family:-apple-system,&quot;SF Pro Display&quot;,&quot;SF Pro Text&quot;,Helvetica,sans-serif;" transform="matrix(1 0 0 1 263 1586)">Large</text>
 </g>
 <g id="Guides">
  <g id="H-reference" style="fill:#27AAE1;stroke:none;" transform="matrix(1 0 0 1 339 696)">
   <path d="M0.976562 0L3.66211 0L12.9883-24.4629L45.752-24.4629L55.127 0L57.7637 0L30.6152-70.459L28.125-70.459ZM29.3457-67.1387L29.4434-67.1387L44.873-26.709L13.8672-26.709Z"/>
  </g>
  <line id="Baseline-S" style="fill:none;stroke:#27AAE1;opacity:1;stroke-width:0.5;" x1="263" x2="3036" y1="696" y2="696"/>
  <line id="Capline-S" style="fill:none;stroke:#27AAE1;opacity:1;stroke-width:0.5;" x1="263" x2="3036" y1="625.541" y2="625.541"/>
  <g id="H-reference" style="fill:#27AAE1;stroke:none;" transform="matrix(1 0 0 1 339 1126)">
   <path d="M0.976562 0L3.66211 0L12.9883-24.4629L45.752-24.4629L55.127 0L57.7637 0L30.6152-70.459L28.125-70.459ZM29.3457-67.1387L29.4434-67.1387L44.873-26.709L13.8672-26.709Z"/>
  </g>
  <line id="Baseline-M" style="fill:none;stroke:#27AAE1;opacity:1;stroke-width:0.5;" x1="263" x2="3036" y1="1126" y2="1126"/>
  <line id="Capline-M" style="fill:none;stroke:#27AAE1;opacity:1;stroke-width:0.5;" x1="263" x2="3036" y1="1055.54" y2="1055.54"/>
  <g id="H-reference" style="fill:#27AAE1;stroke:none;" transform="matrix(1 0 0 1 339 1556)">
   <path d="M0.976562 0L3.66211 0L12.9883-24.4629L45.752-24.4629L55.127 0L57.7637 0L30.6152-70.459L28.125-70.459ZM29.3457-67.1387L29.4434-67.1387L44.873-26.709L13.8672-26.709Z"/>
  </g>
  <line id="Baseline-L" style="fill:none;stroke:#27AAE1;opacity:1;stroke-width:0.5;" x1="263" x2="3036" y1="1556" y2="1556"/>
  <line id="Capline-L" style="fill:none;stroke:#27AAE1;opacity:1;stroke-width:0.5;" x1="263" x2="3036" y1="1485.54" y2="1485.54"/>
  <line id="left-margin" style="fill:none;stroke:#00AEEF;stroke-width:0.5;opacity:1.0;" x1="1391.3" x2="1391.3" y1="1030.79" y2="1150.12"/>
  <line id="right-margin" style="fill:none;stroke:#00AEEF;stroke-width:0.5;opacity:1.0;" x1="1508.39" x2="1508.39" y1="1030.79" y2="1150.12"/>
 </g>
 <g id="Symbols">
  <g id="Black-L" transform="matrix(1 0 0 1 2854.05 1556)">
   <path d="M79.3457 32.8613C116.748 32.8613 147.412 2.19727 147.412-35.2051C147.412-72.6074 116.748-103.271 79.2969-103.271C41.8945-103.271 11.2793-72.6074 11.2793-35.2051C11.2793 2.19727 41.9434 32.8613 79.3457 32.8613ZM79.2969 0.683594C77.6367 0.683594 76.5137-0.488281 76.5137-2.19727L76.5137-6.05469C65.1855-6.68945 59.0332-11.9629 57.0312-17.2852C56.4941-18.4082 56.3477-19.4824 56.3477-20.459C56.3477-24.2676 58.8867-26.9043 63.3301-26.9043C66.6016-26.9043 68.75-25.293 70.2637-22.4121C71.2402-20.2637 73.0957-18.6523 76.5137-18.1641L76.5137-28.9551L73.4863-29.6387C62.207-32.0801 56.1523-37.2559 56.1523-46.6309C56.1523-56.9336 64.5996-63.6719 76.5137-64.4531L76.5137-68.5547C76.5137-70.3125 77.6367-71.4355 79.2969-71.4355C80.9082-71.4355 82.0801-70.3125 82.0801-68.5547L82.0801-64.4531C92.334-63.5742 98.8281-58.6426 100.732-52.6367C101.074-51.6602 101.318-50.5859 101.318-49.6094C101.318-46.1426 98.6816-43.75 94.6289-43.75C91.5039-43.75 89.3066-45.2148 87.5-48.0957C86.3281-50.2441 84.6191-51.6602 82.0801-52.1973L82.0801-41.8457L85.2539-41.1621C97.0215-38.8184 102.881-33.7402 102.881-24.3652C102.881-13.8184 94.5312-7.08008 82.0801-6.10352L82.0801-2.19727C82.0801-0.488281 80.9082 0.683594 79.2969 0.683594ZM76.5137-43.1641L76.5137-52.4414C73.0957-52.0508 71.0449-50.293 71.0449-47.9004C71.0449-45.6055 72.7051-44.043 76.0254-43.2617ZM82.0801-27.7344L82.0801-18.1641C85.9863-18.6523 88.0371-20.2637 88.0371-22.9004C88.0371-25.293 86.6211-26.6602 82.8125-27.5391Z"/>
  </g>
  <g id="Heavy-L" transform="matrix(1 0 0 1 2558.39 1556)">
   <path d="M78.2715 31.7871C115.088 31.7871 145.312 1.5625 145.312-35.2051C145.312-72.0215 115.039-102.246 78.2715-102.246C41.4551-102.246 11.2793-72.0215 11.2793-35.2051C11.2793 1.5625 41.5039 31.7871 78.2715 31.7871ZM78.2227 0.830078C76.6113 0.830078 75.4883-0.341797 75.4883-2.05078L75.4883-6.10352C64.7461-6.73828 58.3496-11.9629 56.3965-17.7734C55.957-18.7988 55.8105-19.7754 55.8105-20.6543C55.8105-24.0234 58.1055-26.416 61.9629-26.416C64.8438-26.416 66.748-24.9023 68.0664-22.2656C69.043-19.5312 71.3867-17.4316 75.4883-16.8457L75.4883-29.8828L72.998-30.4199C61.9141-32.8613 55.957-37.9395 55.957-46.9727C55.957-56.8848 64.0625-63.4766 75.4883-64.3066L75.4883-68.5059C75.4883-70.2148 76.6113-71.3379 78.2227-71.3379C79.834-71.3379 81.0059-70.2148 81.0059-68.5059L81.0059-64.3066C90.8203-63.4277 97.3633-58.4961 99.2188-52.2949C99.4629-51.416 99.707-50.4395 99.707-49.5117C99.707-46.4355 97.3633-44.2871 93.7988-44.2871C90.9668-44.2871 89.0137-45.6543 87.5-48.2422C86.3281-51.0254 84.1797-52.832 81.0059-53.3691L81.0059-41.0156L83.6914-40.4297C95.3125-38.1348 101.123-33.0566 101.123-23.877C101.123-13.623 92.9199-7.08008 81.0059-6.10352L81.0059-2.05078C81.0059-0.341797 79.834 0.830078 78.2227 0.830078ZM75.4883-42.334L75.4883-53.5645C71.4844-53.0762 68.9941-50.8789 68.9941-48.0469C68.9941-45.3125 70.9961-43.5059 75-42.4805ZM81.0059-28.6133L81.0059-16.8457C85.6445-17.4316 88.1348-19.5312 88.1348-22.7051C88.1348-25.5859 86.4258-27.2461 81.8848-28.3691Z"/>
  </g>
  <g id="Bold-L" transform="matrix(1 0 0 1 2262.88 1556)">
   <path d="M77.0996 30.5664C113.232 30.5664 142.92 0.878906 142.92-35.2539C142.92-71.3379 113.184-101.074 77.0508-101.074C40.9668-101.074 11.2793-71.3379 11.2793-35.2539C11.2793 0.878906 41.0156 30.5664 77.0996 30.5664ZM77.0508 0.976562C75.4395 0.976562 74.2676-0.146484 74.2676-1.85547L74.2676-6.15234C64.209-6.88477 57.5684-11.9629 55.7129-18.3594C55.3711-19.2383 55.2246-20.0684 55.2246-20.8496C55.2246-23.7793 57.2266-25.7812 60.4004-25.7812C62.8906-25.7812 64.5508-24.5117 65.625-22.0703C66.6016-18.6523 69.4824-16.0645 74.2676-15.4297L74.2676-30.8594L72.4609-31.25C61.5234-33.7402 55.7617-38.7695 55.7617-47.4121C55.7617-56.8359 63.5254-63.2324 74.2676-64.1113L74.2676-68.4082C74.2676-70.1172 75.4395-71.2402 77.0508-71.2402C78.6621-71.2402 79.834-70.0684 79.834-68.4082L79.834-64.1113C89.1602-63.2812 95.7031-58.3496 97.4609-51.9531C97.7051-51.123 97.8516-50.293 97.8516-49.4629C97.8516-46.7285 95.8496-44.873 92.8711-44.873C90.3809-44.873 88.7207-46.1426 87.5488-48.4375C86.377-51.8555 83.6914-54.0527 79.834-54.6875L79.834-40.0879L81.9824-39.6484C93.4082-37.4023 99.1211-32.2754 99.1211-23.3887C99.1211-13.3789 91.1133-7.08008 79.834-6.15234L79.834-1.85547C79.834-0.146484 78.6621 0.976562 77.0508 0.976562ZM74.2676-41.4551L74.2676-54.834C69.6777-54.1992 66.6992-51.5625 66.6992-48.1934C66.6992-44.9707 69.043-42.8711 73.8281-41.5527ZM79.834-29.541L79.834-15.4297C85.3027-16.0156 88.2324-18.7012 88.2324-22.4609C88.2324-25.8789 86.1816-27.9785 80.9082-29.2969Z"/>
  </g>
  <g id="Semibold-L" transform="matrix(1 0 0 1 1966.97 1556)">
   <path d="M76.2695 29.7363C111.914 29.7363 141.309 0.390625 141.309-35.2539C141.309-70.8984 111.865-100.244 76.2695-100.244C40.625-100.244 11.2793-70.8984 11.2793-35.2539C11.2793 0.390625 40.6738 29.7363 76.2695 29.7363ZM76.2207 1.07422C74.6582 1.07422 73.4863-0.0488281 73.4863-1.70898L73.4863-6.20117C63.8672-6.93359 57.0801-11.9141 55.2246-18.7012C54.9805-19.5312 54.834-20.2637 54.834-21.0449C54.834-23.584 56.5918-25.3906 59.3262-25.3906C61.5234-25.3906 63.0371-24.2188 63.916-21.9727C64.8926-18.0664 68.1641-15.1367 73.4863-14.4531L73.4863-31.543L72.1191-31.8848C61.2793-34.375 55.6152-39.3066 55.6152-47.6562C55.6152-56.7871 63.1348-63.0859 73.4863-64.0137L73.4863-68.3594C73.4863-70.0195 74.6094-71.1426 76.2207-71.1426C77.832-71.1426 79.0527-70.0195 79.0527-68.3594L79.0527-64.0137C87.9883-63.1348 94.5312-58.252 96.2402-51.6602C96.4355-50.9277 96.6309-50.1465 96.6309-49.4141C96.6309-46.9727 94.8242-45.2637 92.1875-45.2637C89.9414-45.2637 88.5254-46.4844 87.5488-48.584C86.377-52.4414 83.3496-54.9316 79.0527-55.6152L79.0527-39.4531L80.8105-39.0625C92.0898-36.9141 97.7539-31.7871 97.7539-22.998C97.7539-13.2324 89.8926-7.08008 79.0527-6.15234L79.0527-1.70898C79.0527-0.0488281 77.832 1.07422 76.2207 1.07422ZM73.4863-40.8203L73.4863-55.6641C68.4082-54.9805 65.1367-52.0508 65.1367-48.291C65.1367-44.7266 67.6758-42.4316 73.0469-40.9668ZM79.0527-30.2246L79.0527-14.4531C85.0586-15.0391 88.2812-18.1152 88.2812-22.3145C88.2812-26.0742 86.0352-28.418 80.1758-29.9316Z"/>
  </g>
  <g id="Medium-L" transform="matrix(1 0 0 1 1670.87 1556)">
   <path d="M75.6836 29.1504C110.938 29.1504 140.088 0 140.088-35.2539C140.088-70.5078 110.889-99.6582 75.6348-99.6582C40.3809-99.6582 11.2793-70.5078 11.2793-35.2539C11.2793 0 40.3809 29.1504 75.6836 29.1504ZM75.6348 1.17188C74.0234 1.17188 72.8516 0.0488281 72.8516-1.61133L72.8516-6.25C63.623-6.98242 56.6895-11.9141 54.8828-18.9941C54.6875-19.7266 54.541-20.459 54.541-21.1426C54.541-23.4863 56.1523-25.0977 58.4961-25.0977C60.498-25.0977 61.8652-24.0234 62.5977-21.875C63.5742-17.5781 67.1387-14.4043 72.8516-13.7207L72.8516-32.0801L71.8262-32.3242C61.084-34.8145 55.5176-39.6973 55.5176-47.9004C55.5176-56.7871 62.8418-62.9883 72.8516-63.916L72.8516-68.3105C72.8516-69.9707 74.0234-71.0938 75.6348-71.0938C77.1973-71.0938 78.418-69.9707 78.418-68.3105L78.418-63.916C87.1094-63.0371 93.6523-58.2031 95.3613-51.4648C95.5078-50.7812 95.6543-50.0977 95.6543-49.3652C95.6543-47.1191 94.043-45.5566 91.748-45.5566C89.6484-45.5566 88.3789-46.7285 87.5977-48.6816C86.377-52.8809 83.1055-55.6152 78.418-56.2988L78.418-38.9648L79.9316-38.6719C91.1133-36.5234 96.7285-31.3965 96.7285-22.7539C96.7285-13.1348 88.9648-7.08008 78.418-6.20117L78.418-1.61133C78.418 0.0488281 77.1973 1.17188 75.6348 1.17188ZM72.8516-40.3809L72.8516-56.3477C67.4805-55.5664 63.9648-52.3926 63.9648-48.3887C63.9648-44.5312 66.6992-42.0898 72.4121-40.4785ZM78.418-30.7129L78.418-13.7207C84.8633-14.3066 88.3301-17.6758 88.3301-22.2168C88.3301-26.2207 85.9375-28.8086 79.6875-30.4199Z"/>
  </g>
  <g id="Regular-L" transform="matrix(1 0 0 1 1374.97 1556)">
   <path d="M74.8535 28.3203C109.668 28.3203 138.477-0.488281 138.477-35.2539C138.477-70.0684 109.619-98.877 74.8047-98.877C40.0391-98.877 11.2793-70.0684 11.2793-35.2539C11.2793-0.488281 40.0879 28.3203 74.8535 28.3203ZM74.8047 1.26953C73.2422 1.26953 72.0703 0.146484 72.0703-1.46484L72.0703-6.29883C63.2324-7.08008 56.1523-11.9141 54.3945-19.3848C54.248-20.0195 54.1504-20.6543 54.1504-21.2891C54.1504-23.291 55.5176-24.707 57.4219-24.707C59.1797-24.707 60.3516-23.7305 60.9375-21.7773C61.9141-16.9922 65.8203-13.4766 72.0703-12.7441L72.0703-32.7637L71.4844-32.9102C60.8398-35.4492 55.3711-40.2344 55.3711-48.1445C55.3711-56.7383 62.4512-62.793 72.0703-63.7695L72.0703-68.2617C72.0703-69.9219 73.1934-70.9961 74.8047-70.9961C76.416-70.9961 77.5879-69.873 77.5879-68.2617L77.5879-63.7695C85.9375-62.9395 92.5293-58.1055 94.1895-51.2207C94.2871-50.5859 94.4336-49.9512 94.4336-49.3164C94.4336-47.3633 93.0664-45.9473 91.1133-45.9473C89.2578-45.9473 88.1836-47.0703 87.5977-48.8281C86.4258-53.418 82.7637-56.4453 77.5879-57.1777L77.5879-38.3301L78.7598-38.1348C89.7949-35.9863 95.3613-30.8594 95.3613-22.4121C95.3613-12.9883 87.6953-7.08008 77.5879-6.20117L77.5879-1.46484C77.5879 0.146484 76.416 1.26953 74.8047 1.26953ZM72.0703-39.7461L72.0703-57.1777C66.2109-56.3477 62.4023-52.832 62.4023-48.4863C62.4023-44.2871 65.332-41.6504 71.6309-39.8926ZM77.5879-31.3965L77.5879-12.7441C84.6191-13.3789 88.3789-17.0898 88.3789-22.0215C88.3789-26.416 85.791-29.248 78.9551-31.0059Z"/>
  </g>
  <g id="Light-L" transform="matrix(1 0 0 1 1079.18 1556)">
   <path d="M73.9258 27.3926C108.301 27.3926 136.621-0.927734 136.621-35.2539C136.621-69.6289 108.252-97.9492 73.9258-97.9492C39.5508-97.9492 11.2793-69.6289 11.2793-35.2539C11.2793-0.927734 39.5996 27.3926 73.9258 27.3926ZM73.9258 0.488281C72.6074 0.488281 71.582-0.439453 71.582-1.80664L71.582-6.83594C62.6465-7.51953 55.7129-12.5488 54.1016-19.9707C54.0039-20.5078 53.9062-21.0938 53.9062-21.6797C53.9062-23.3398 54.9805-24.4629 56.543-24.4629C58.0078-24.4629 58.9355-23.6328 59.3262-22.0215C60.1562-16.6016 64.7949-12.7441 71.582-12.0605L71.582-33.3008L70.8008-33.4473C60.4004-35.9375 55.127-40.5762 55.127-48.0469C55.127-56.25 62.2559-62.1582 71.582-62.9883L71.582-67.4316C71.582-68.8477 72.5586-69.7266 73.9258-69.7266C75.2441-69.7266 76.2695-68.7988 76.2695-67.4316L76.2695-62.9883C84.6191-62.2559 91.1621-57.4219 92.6758-50.7812C92.7734-50.1953 92.8711-49.6094 92.8711-49.0234C92.8711-47.4121 91.7969-46.2891 90.1855-46.2891C88.6719-46.2891 87.8418-47.2168 87.4023-48.7305C86.377-53.6133 82.1289-57.0312 76.2695-57.666L76.2695-37.7441L77.7832-37.4023C88.5742-35.2051 93.8477-30.3223 93.8477-22.3145C93.8477-13.4766 86.4746-7.51953 76.2695-6.73828L76.2695-1.80664C76.2695-0.488281 75.2441 0.488281 73.9258 0.488281ZM71.582-38.916L71.582-57.666C65.2832-56.9824 60.7422-53.1738 60.7422-48.2422C60.7422-43.6035 64.209-40.8203 71.2402-39.0137ZM76.2695-32.1289L76.2695-12.0605C83.7891-12.5977 88.3301-16.6992 88.3301-22.1191C88.3301-26.9531 85.2051-29.9316 77.6367-31.7871Z"/>
  </g>
  <g id="Thin-L" transform="matrix(1 0 0 1 783.693 1556)">
   <path d="M72.7051 26.1719C106.494 26.1719 134.18-1.51367 134.18-35.2539C134.18-69.043 106.494-96.7285 72.7051-96.7285C38.9648-96.7285 11.2793-69.043 11.2793-35.2539C11.2793-1.51367 38.9648 26.1719 72.7051 26.1719ZM72.7051-0.585938C71.7285-0.585938 70.9961-1.2207 70.9961-2.24609L70.9961-7.56836C61.8164-8.10547 55.1758-13.3301 53.7598-20.7031C53.6621-21.1914 53.5645-21.6797 53.5645-22.168C53.5645-23.4375 54.2969-24.1699 55.3223-24.1699C56.4453-24.1699 57.0312-23.4863 57.1777-22.3145C57.8613-16.1133 63.4277-11.7188 70.9961-11.1328L70.9961-33.9844L69.9707-34.1797C59.8145-36.5723 54.834-41.0156 54.834-47.8516C54.834-55.5664 62.0117-61.3281 70.9961-61.9141L70.9961-66.3574C70.9961-67.4316 71.6309-68.0664 72.7051-68.0664C73.6816-68.0664 74.4629-67.334 74.4629-66.3574L74.4629-61.9141C82.9102-61.377 89.3555-56.4941 90.6738-50.1465C90.7715-49.6582 90.8691-49.1211 90.8691-48.6328C90.8691-47.4609 90.0879-46.7285 89.0137-46.7285C87.9395-46.7285 87.3535-47.3633 87.1582-48.584C86.3281-53.8574 81.2988-57.7637 74.4629-58.252L74.4629-36.9141L76.5137-36.4746C86.9629-34.1309 91.8945-29.6387 91.8945-22.2656C91.8945-14.1602 84.8633-8.10547 74.4629-7.4707L74.4629-2.24609C74.4629-1.26953 73.6816-0.585938 72.7051-0.585938ZM70.9961-37.7441L70.9961-58.252C64.0137-57.7637 58.5449-53.5645 58.5449-47.9004C58.5449-42.6758 62.7441-39.7461 70.6543-37.8418ZM74.4629-33.1543L74.4629-11.1328C82.7148-11.5723 88.2324-16.1133 88.2324-22.2168C88.2324-27.6855 84.4238-30.8594 75.8301-32.8125Z"/>
  </g>
  <g id="Ultralight-L" transform="matrix(1 0 0 1 487.616 1556)">
   <path d="M72.1191 25.5371C105.566 25.5371 132.91-1.80664 132.91-35.2539C132.91-68.75 105.566-96.0938 72.1191-96.0938C38.623-96.0938 11.2793-68.75 11.2793-35.2539C11.2793-1.80664 38.623 25.5371 72.1191 25.5371ZM72.0703-1.12305C71.2891-1.12305 70.7031-1.61133 70.7031-2.49023L70.7031-7.95898C61.377-8.39844 54.8828-13.7695 53.5645-21.0449C53.4668-21.5332 53.418-21.9727 53.418-22.4609C53.418-23.4863 53.9551-24.0234 54.6875-24.0234C55.6641-24.0234 56.0547-23.3887 56.1035-22.4609C56.6895-15.8203 62.6953-11.2305 70.7031-10.6934L70.7031-34.3262L69.5312-34.5703C59.5215-36.8652 54.6875-41.2598 54.6875-47.7539C54.6875-55.2246 61.8652-60.8887 70.7031-61.377L70.7031-65.8203C70.7031-66.6992 71.1914-67.1875 72.0703-67.1875C72.9004-67.1875 73.5352-66.6016 73.5352-65.8203L73.5352-61.377C81.9824-60.9375 88.4277-56.0547 89.6484-49.8535C89.7461-49.3652 89.7949-48.9258 89.7949-48.4375C89.7949-47.5098 89.2578-46.9727 88.4277-46.9727C87.5488-46.9727 87.1582-47.4609 87.0117-48.4863C86.2793-54.0039 80.8594-58.1055 73.5352-58.5938L73.5352-36.5234L75.8301-35.9863C86.1328-33.5449 90.8691-29.2969 90.8691-22.2168C90.8691-14.5508 84.0332-8.39844 73.5352-7.86133L73.5352-2.49023C73.5352-1.70898 72.9004-1.12305 72.0703-1.12305ZM70.7031-37.1582L70.7031-58.5938C63.3789-58.1543 57.4219-53.8086 57.4219-47.7539C57.4219-42.1875 61.9629-39.1602 70.4102-37.207ZM73.5352-33.6914L73.5352-10.6934C82.1777-11.0352 88.1836-15.8203 88.1836-22.2656C88.1836-28.0273 83.9844-31.2988 74.9023-33.3496Z"/>
  </g>
  <g id="Black-M" transform="matrix(1 0 0 1 2870.97 1126)">
   <path d="M62.4023 18.457C91.9922 18.457 116.113-5.61523 116.113-35.2051C116.113-64.7949 91.9922-88.8672 62.4023-88.8672C32.8125-88.8672 8.74023-64.7949 8.74023-35.2051C8.74023-5.61523 32.8125 18.457 62.4023 18.457ZM62.4023-8.00781C61.2305-8.00781 60.498-8.83789 60.498-10.0586L60.498-12.8418C50.8301-13.1836 46.4355-17.5293 44.873-20.9473C44.3359-21.9727 44.2383-22.9004 44.2383-23.7305C44.2383-27.0508 46.4355-29.3945 50.4883-29.3945C53.3691-29.3945 55.1758-27.9297 56.5918-25.6348C57.2754-24.4629 58.3984-23.6328 60.498-23.3398L60.498-29.4434L57.2266-30.1758C48.4375-31.9336 43.6523-35.9863 43.6523-43.5059C43.6523-51.8066 50.6348-57.1777 60.498-57.666L60.498-60.7422C60.498-61.9629 61.2305-62.7441 62.4023-62.7441C63.5254-62.7441 64.3066-61.9629 64.3066-60.7422L64.3066-57.666C72.9004-57.0801 77.8809-53.1738 79.3945-48.9258C79.6875-48.0957 79.8828-47.168 79.8828-46.2891C79.8828-43.3105 77.6367-41.3086 73.9746-41.3086C71.3379-41.3086 69.3848-42.4316 67.6758-44.873C66.8457-45.9473 65.8203-46.7285 64.3066-47.0703L64.3066-41.1133L67.627-40.4297C76.8555-38.4766 81.3477-34.668 81.3477-27.3926C81.3477-19.1406 74.8047-13.6719 64.3066-12.8906L64.3066-10.0586C64.3066-8.83789 63.5254-8.00781 62.4023-8.00781ZM60.498-41.9922L60.498-47.3145C58.3496-47.2168 56.9336-46.2402 56.9336-44.7266C56.9336-43.3105 58.1055-42.3828 60.1074-42.041ZM64.3066-28.6621L64.3066-23.3398C66.6016-23.6328 68.1152-24.4141 68.1152-25.9766C68.1152-27.4414 67.041-28.125 64.6484-28.6133Z"/>
  </g>
  <g id="Heavy-M" transform="matrix(1 0 0 1 2575.19 1126)">
   <path d="M61.5234 17.5293C90.5273 17.5293 114.258-6.20117 114.258-35.2051C114.258-64.2578 90.5273-87.9883 61.4746-87.9883C32.4707-87.9883 8.74023-64.2578 8.74023-35.2051C8.74023-6.20117 32.4707 17.5293 61.5234 17.5293ZM61.4746-7.66602C60.2539-7.66602 59.4238-8.49609 59.4238-9.76562L59.4238-12.7441C50.4883-13.1836 45.8008-17.3828 44.2383-21.3379C43.8477-22.2656 43.7012-23.0957 43.7012-23.8281C43.7012-26.8066 45.7031-28.8574 49.1699-28.8574C51.7578-28.8574 53.3691-27.5879 54.5898-25.3906C55.2734-23.7305 56.7871-22.5098 59.4238-22.1191L59.4238-30.2734L56.8848-30.8594C48.1934-32.7148 43.5059-36.7188 43.5059-43.9453C43.5059-51.9043 50.1465-57.1289 59.4238-57.7148L59.4238-60.8398C59.4238-62.1582 60.2539-62.9883 61.4746-62.9883C62.6465-62.9883 63.5254-62.1582 63.5254-60.8398L63.5254-57.7148C71.582-57.0801 76.6113-53.2227 78.0762-48.6816C78.3203-47.9492 78.5156-47.0703 78.5156-46.2891C78.5156-43.6523 76.4648-41.7969 73.291-41.7969C70.8984-41.7969 69.1895-42.8711 67.7246-45.1172C66.8945-46.7285 65.5273-47.8516 63.5254-48.2422L63.5254-40.3809L66.2109-39.7949C75.293-37.9395 79.7852-34.082 79.7852-26.9043C79.7852-18.7988 73.3398-13.5254 63.5254-12.793L63.5254-9.76562C63.5254-8.49609 62.6465-7.66602 61.4746-7.66602ZM59.4238-41.3086L59.4238-48.4375C56.8359-48.1445 55.127-46.8262 55.127-44.9219C55.127-43.1641 56.4941-41.9922 59.082-41.4062ZM63.5254-29.3945L63.5254-22.1191C66.5039-22.5098 68.2129-23.7305 68.2129-25.7812C68.2129-27.6367 66.9922-28.6133 64.0137-29.2969Z"/>
  </g>
  <g id="Bold-M" transform="matrix(1 0 0 1 2279.5 1126)">
   <path d="M60.498 16.5039C88.8672 16.5039 112.207-6.83594 112.207-35.2051C112.207-63.623 88.8672-86.9629 60.4492-86.9629C32.0312-86.9629 8.74023-63.623 8.74023-35.2051C8.74023-6.83594 32.0801 16.5039 60.498 16.5039ZM60.4492-7.22656C59.1797-7.22656 58.3008-8.1543 58.3008-9.47266L58.3008-12.6465C50.0977-13.1836 45.0684-17.1875 43.6035-21.7773C43.2617-22.5586 43.1641-23.291 43.1641-23.9746C43.1641-26.5137 44.873-28.2715 47.7539-28.2715C49.9512-28.2715 51.3672-27.1484 52.3438-25.1465C53.125-22.9004 55.0293-21.2402 58.3008-20.752L58.3008-31.25L56.4941-31.6406C47.9004-33.5449 43.3594-37.4512 43.3594-44.4336C43.3594-52.002 49.5605-57.0801 58.3008-57.7637L58.3008-60.9863C58.3008-62.3535 59.1797-63.2324 60.4492-63.2324C61.6699-63.2324 62.5977-62.3047 62.5977-60.9863L62.5977-57.7637C70.1172-57.0801 75.1953-53.2715 76.6113-48.3887C76.8066-47.7539 76.9531-47.0215 76.9531-46.2891C76.9531-43.9453 75.1953-42.334 72.5098-42.334C70.4102-42.334 68.9453-43.4082 67.8223-45.3613C66.9434-47.6074 65.1367-49.0723 62.5977-49.5117L62.5977-39.5508L64.5996-39.1602C73.584-37.4023 78.0273-33.3984 78.0273-26.3672C78.0273-18.4082 71.7285-13.3789 62.5977-12.6465L62.5977-9.47266C62.5977-8.1543 61.6699-7.22656 60.4492-7.22656ZM58.3008-40.625L58.3008-49.6582C55.0781-49.2188 53.125-47.4609 53.125-45.166C53.125-42.9688 54.6875-41.5527 57.9102-40.6738ZM62.5977-30.2246L62.5977-20.752C66.3086-21.1914 68.3105-22.9004 68.3105-25.4883C68.3105-27.7832 66.9434-29.1504 63.3301-30.0781Z"/>
  </g>
  <g id="Semibold-M" transform="matrix(1 0 0 1 1983.5 1126)">
   <path d="M59.7656 15.8203C87.7441 15.8203 110.791-7.27539 110.791-35.2539C110.791-63.2324 87.6953-86.2793 59.7656-86.2793C31.7871-86.2793 8.74023-63.2324 8.74023-35.2539C8.74023-7.27539 31.7871 15.8203 59.7656 15.8203ZM59.7168-6.98242C58.4473-6.98242 57.4707-7.91016 57.4707-9.27734L57.4707-12.5977C49.8047-13.1836 44.6289-17.041 43.1152-22.1191C42.8711-22.8027 42.7734-23.4375 42.7734-24.0723C42.7734-26.3184 44.2871-27.8809 46.7773-27.8809C48.6816-27.8809 50-26.9043 50.8301-24.9512C51.6113-22.3145 53.7598-20.3613 57.4707-19.8242L57.4707-31.8848L56.2012-32.1777C47.7051-34.1309 43.2129-37.9883 43.2129-44.7266C43.2129-52.0996 49.1699-57.0312 57.4707-57.7637L57.4707-61.084C57.4707-62.4512 58.3984-63.3789 59.7168-63.3789C61.0352-63.3789 62.0117-62.4512 62.0117-61.084L62.0117-57.7637C69.1406-57.0801 74.2188-53.2715 75.5859-48.1934C75.7812-47.6074 75.9277-46.9238 75.9277-46.2891C75.9277-44.1895 74.3652-42.7246 72.0215-42.7246C70.0684-42.7246 68.7988-43.75 67.8711-45.5566C66.9434-48.1934 64.9414-49.9023 62.0117-50.4395L62.0117-38.9648L63.4766-38.6719C72.3633-36.9629 76.8555-32.959 76.8555-25.9766C76.8555-18.1641 70.6055-13.3301 62.0117-12.5977L62.0117-9.27734C62.0117-7.91016 61.0352-6.98242 59.7168-6.98242ZM57.4707-40.0879L57.4707-50.4883C53.9062-50 51.709-47.9004 51.709-45.3613C51.709-42.8711 53.4668-41.2598 57.1289-40.1855ZM62.0117-30.8105L62.0117-19.8242C66.2109-20.3125 68.4082-22.3633 68.4082-25.293C68.4082-27.9297 66.8945-29.541 62.8418-30.6152Z"/>
  </g>
  <g id="Medium-M" transform="matrix(1 0 0 1 1687.3 1126)">
   <path d="M59.2285 15.2344C86.9141 15.2344 109.766-7.61719 109.766-35.2539C109.766-62.8906 86.8652-85.7422 59.1797-85.7422C31.543-85.7422 8.74023-62.8906 8.74023-35.2539C8.74023-7.61719 31.5918 15.2344 59.2285 15.2344ZM59.1797-6.73828C57.8613-6.73828 56.8848-7.71484 56.8848-9.08203L56.8848-12.5488C49.6094-13.1348 44.2383-16.9434 42.7734-22.3145C42.5781-22.9492 42.4805-23.5352 42.4805-24.1211C42.4805-26.1719 43.8965-27.5879 45.9961-27.5879C47.7539-27.5879 48.9258-26.6602 49.6582-24.8535C50.4395-21.875 52.832-19.6777 56.8848-19.0918L56.8848-32.373L56.0059-32.5684C47.5586-34.5215 43.1641-38.4277 43.1641-45.0195C43.1641-52.1484 48.877-57.0312 56.8848-57.7637L56.8848-61.1816C56.8848-62.5977 57.8613-63.5254 59.1797-63.5254C60.498-63.5254 61.5234-62.5488 61.5234-61.1816L61.5234-57.7637C68.3594-57.0801 73.4375-53.3203 74.8047-48.0957C74.9512-47.5098 75.0977-46.9238 75.0977-46.3379C75.0977-44.3848 73.6816-42.9688 71.6309-42.9688C69.8242-42.9688 68.6523-43.9941 67.9199-45.6543C66.9434-48.6328 64.7461-50.5371 61.5234-51.123L61.5234-38.5742L62.6465-38.3301C71.4844-36.6699 75.9277-32.6172 75.9277-25.6836C75.9277-17.9688 69.7754-13.2324 61.5234-12.5L61.5234-9.08203C61.5234-7.71484 60.498-6.73828 59.1797-6.73828ZM56.8848-39.7461L56.8848-51.1719C53.0273-50.5371 50.6836-48.2422 50.6836-45.5078C50.6836-42.7734 52.4902-41.0156 56.543-39.8438ZM61.5234-31.25L61.5234-19.0918C66.1621-19.6289 68.457-21.9727 68.457-25.1465C68.457-27.9785 66.8457-29.834 62.4512-31.0059Z"/>
  </g>
  <g id="Regular-M" transform="matrix(1 0 0 1 1391.3 1126)">
   <path d="M58.5449 14.5508C85.791 14.5508 108.35-8.05664 108.35-35.2539C108.35-62.5 85.7422-85.0586 58.4961-85.0586C31.2988-85.0586 8.74023-62.5 8.74023-35.2539C8.74023-8.05664 31.3477 14.5508 58.5449 14.5508ZM58.4961-6.49414C57.1289-6.49414 56.1035-7.4707 56.1035-8.88672L56.1035-12.5C49.3652-13.1348 43.75-16.8457 42.334-22.6562C42.1875-23.1445 42.0898-23.6816 42.0898-24.2188C42.0898-25.9766 43.3105-27.1973 45.0195-27.1973C46.5332-27.1973 47.5586-26.416 48.1445-24.6582C48.9746-21.3379 51.6113-18.7988 56.1035-18.1641L56.1035-33.0078L55.7617-33.1055C47.3633-35.1074 43.0176-38.916 43.0176-45.3125C43.0176-52.1973 48.4863-56.9824 56.1035-57.8125L56.1035-61.2793C56.1035-62.6953 57.1289-63.6719 58.4961-63.6719C59.8633-63.6719 60.8887-62.6953 60.8887-61.2793L60.8887-57.8125C67.334-57.0801 72.5098-53.3203 73.8281-47.9004C73.9258-47.3633 74.0723-46.8262 74.0723-46.3379C74.0723-44.5801 72.8027-43.3594 71.0938-43.3594C69.4824-43.3594 68.5059-44.3359 68.0176-45.8496C66.9922-49.2188 64.502-51.3672 60.8887-52.002L60.8887-37.9883L61.5723-37.8418C70.3125-36.2793 74.7559-32.1289 74.7559-25.293C74.7559-17.6758 68.6523-13.1348 60.8887-12.4023L60.8887-8.88672C60.8887-7.4707 59.8633-6.49414 58.4961-6.49414ZM56.1035-39.2578L56.1035-52.002C51.8555-51.2695 49.2676-48.6816 49.2676-45.6543C49.2676-42.6758 51.2695-40.6738 55.7617-39.3555ZM60.8887-31.8359L60.8887-18.1641C66.0156-18.75 68.5059-21.4355 68.5059-24.9512C68.5059-28.125 66.8457-30.2246 61.9629-31.543Z"/>
  </g>
  <g id="Light-M" transform="matrix(1 0 0 1 1095.42 1126)">
   <path d="M57.7148 13.7207C84.5215 13.7207 106.689-8.44727 106.689-35.2539C106.689-62.1094 84.5215-84.2285 57.666-84.2285C30.8594-84.2285 8.74023-62.1094 8.74023-35.2539C8.74023-8.44727 30.9082 13.7207 57.7148 13.7207ZM57.666-7.17773C56.543-7.17773 55.6641-8.00781 55.6641-9.17969L55.6641-12.9883C48.8281-13.5254 43.3594-17.3828 42.041-23.1445C41.9434-23.584 41.8457-24.0723 41.8457-24.5605C41.8457-26.0254 42.8223-27.002 44.1895-27.002C45.459-27.002 46.2891-26.2695 46.6797-24.8535C47.4121-20.9961 50.6836-18.1152 55.6641-17.5781L55.6641-33.4961L55.1758-33.5938C46.9727-35.5469 42.8223-39.209 42.8223-45.2148C42.8223-51.7578 48.291-56.3965 55.6641-57.0801L55.6641-60.5469C55.6641-61.7676 56.4941-62.5488 57.666-62.5488C58.7891-62.5488 59.668-61.7188 59.668-60.5469L59.668-57.0801C66.1621-56.4941 71.2402-52.7344 72.4609-47.4609C72.5586-47.0215 72.6562-46.5332 72.6562-46.0449C72.6562-44.6289 71.6797-43.6523 70.3125-43.6523C68.9453-43.6523 68.2129-44.4336 67.8223-45.752C66.9434-49.4141 63.916-51.8555 59.668-52.3926L59.668-37.4512L60.6934-37.2559C69.1895-35.5469 73.3887-31.6895 73.3887-25.2441C73.3887-18.1641 67.5781-13.5254 59.668-12.9395L59.668-9.17969C59.668-8.00781 58.7891-7.17773 57.666-7.17773ZM55.6641-38.4766L55.6641-52.3926C51.0254-51.8066 47.8027-48.9746 47.8027-45.4102C47.8027-42.041 50.2441-39.9414 55.3711-38.5742ZM59.668-32.5195L59.668-17.5781C65.2832-18.0176 68.457-21.0449 68.457-25.0488C68.457-28.6133 66.3086-30.8105 60.7422-32.2266Z"/>
  </g>
  <g id="Thin-M" transform="matrix(1 0 0 1 799.806 1126)">
   <path d="M56.6406 12.5977C82.9102 12.5977 104.492-8.98438 104.492-35.2539C104.492-61.5723 82.9102-83.1543 56.5918-83.1543C30.3223-83.1543 8.74023-61.5723 8.74023-35.2539C8.74023-8.98438 30.3223 12.5977 56.6406 12.5977ZM56.5918-8.1543C55.7617-8.1543 55.127-8.69141 55.127-9.57031L55.127-13.623C48.0469-14.0625 42.8711-18.1152 41.6992-23.7793C41.6504-24.2188 41.5527-24.6094 41.5527-25C41.5527-26.0742 42.2363-26.709 43.1152-26.709C44.0918-26.709 44.5801-26.1719 44.7754-25.1465C45.3125-20.5078 49.4141-17.2363 55.127-16.748L55.127-34.082L54.3945-34.2773C46.4844-36.1328 42.5781-39.6484 42.5781-45.0684C42.5781-51.123 48.0957-55.6152 55.127-56.1523L55.127-59.5703C55.127-60.498 55.7129-61.0352 56.5918-61.0352C57.4219-61.0352 58.0566-60.4492 58.0566-59.5703L58.0566-56.1523C64.5996-55.7129 69.6289-51.9043 70.7031-46.9238C70.752-46.5332 70.8496-46.0938 70.8496-45.7031C70.8496-44.7266 70.166-44.043 69.2383-44.043C68.3105-44.043 67.7734-44.5801 67.5781-45.6055C66.8945-49.6094 63.1836-52.5391 58.0566-52.9297L58.0566-36.7188L59.5215-36.377C67.7246-34.5703 71.6309-31.0547 71.6309-25.1953C71.6309-18.75 66.1133-14.0625 58.0566-13.5742L58.0566-9.57031C58.0566-8.74023 57.4219-8.1543 56.5918-8.1543ZM55.127-37.4512L55.127-52.9297C49.8535-52.4902 45.8496-49.3652 45.8496-45.1172C45.8496-41.2109 48.9258-38.9648 54.8828-37.5ZM58.0566-33.3984L58.0566-16.748C64.3066-17.1387 68.4082-20.5566 68.4082-25.1465C68.4082-29.248 65.5762-31.6406 59.1309-33.1543Z"/>
  </g>
  <g id="Ultralight-M" transform="matrix(1 0 0 1 503.656 1126)">
   <path d="M56.0547 12.0605C82.0801 12.0605 103.369-9.22852 103.369-35.2539C103.369-61.2793 82.0801-82.5684 56.0547-82.5684C30.0293-82.5684 8.74023-61.2793 8.74023-35.2539C8.74023-9.22852 30.0293 12.0605 56.0547 12.0605ZM56.0059-8.64258C55.3711-8.64258 54.8828-9.0332 54.8828-9.76562L54.8828-13.9648C47.7051-14.3555 42.5781-18.457 41.5527-24.1211C41.4551-24.5117 41.4062-24.8535 41.4062-25.2441C41.4062-26.123 41.8945-26.5625 42.5781-26.5625C43.3594-26.5625 43.7012-26.0742 43.7988-25.293C44.2871-20.2637 48.7793-16.7969 54.8828-16.3574L54.8828-34.4238L54.0039-34.6191C46.1914-36.4258 42.4316-39.8438 42.4316-44.9707C42.4316-50.8301 47.9492-55.2246 54.8828-55.6641L54.8828-59.082C54.8828-59.8145 55.2734-60.2539 56.0059-60.2539C56.6895-60.2539 57.2754-59.7656 57.2754-59.082L57.2754-55.6641C63.8184-55.2734 68.7988-51.5137 69.7754-46.6309C69.8242-46.2891 69.873-45.8984 69.873-45.5078C69.873-44.7266 69.4336-44.2383 68.7012-44.2383C67.9688-44.2383 67.5781-44.6777 67.4805-45.5566C66.8457-49.707 62.793-52.8809 57.2754-53.2227L57.2754-36.3281L58.9355-35.9863C66.9922-34.082 70.7031-30.7617 70.7031-25.1465C70.7031-19.0918 65.3809-14.3555 57.2754-13.916L57.2754-9.76562C57.2754-9.13086 56.6895-8.64258 56.0059-8.64258ZM54.8828-36.9141L54.8828-53.2227C49.3164-52.8809 44.8242-49.5605 44.8242-44.9707C44.8242-40.7715 48.2422-38.4766 54.6387-36.9629ZM57.2754-33.8867L57.2754-16.3574C63.8184-16.6504 68.3594-20.2637 68.3594-25.1465C68.3594-29.541 65.1855-32.0312 58.3008-33.5938Z"/>
  </g>
  <g id="Black-S" transform="matrix(1 0 0 1 2884.57 696)">
   <path d="M48.8281 6.78711C71.9727 6.78711 90.8203-12.0605 90.8203-35.2051C90.8203-58.3496 71.9727-77.1973 48.8281-77.1973C25.6836-77.1973 6.83594-58.3496 6.83594-35.2051C6.83594-12.0605 25.6836 6.78711 48.8281 6.78711ZM48.8281-13.8672C47.9004-13.8672 47.3145-14.502 47.3145-15.4785L47.3145-17.6758C39.7949-17.9688 36.3281-21.3379 35.1074-24.0723C34.7168-24.8535 34.6191-25.5859 34.6191-26.2207C34.6191-28.8086 36.3281-30.6152 39.4531-30.6152C41.6992-30.6152 43.1152-29.4922 44.1895-27.6855C44.7266-26.7578 45.6543-26.0742 47.3145-25.8301L47.3145-30.7617L44.8242-31.2988C37.9395-32.7148 34.1797-35.8887 34.1797-41.748C34.1797-48.2422 39.6484-52.4414 47.3145-52.832L47.3145-55.2246C47.3145-56.2012 47.9004-56.8359 48.8281-56.8359C49.707-56.8359 50.3418-56.2012 50.3418-55.2246L50.3418-52.832C57.0312-52.3438 60.9375-49.3164 62.1094-45.9473C62.3535-45.3125 62.5-44.5801 62.5-43.8965C62.5-41.6016 60.7422-40.0391 57.9102-40.0391C55.8594-40.0391 54.3457-40.918 53.0273-42.8223C52.3926-43.7012 51.5625-44.3359 50.3418-44.5801L50.3418-39.7949L52.8809-39.2578C60.1074-37.7441 63.623-34.7656 63.623-29.0527C63.623-22.6074 58.4961-18.3105 50.3418-17.7246L50.3418-15.4785C50.3418-14.502 49.707-13.8672 48.8281-13.8672ZM47.3145-40.4785L47.3145-44.7754C45.6055-44.6777 44.4824-43.8965 44.4824-42.6758C44.4824-41.5527 45.4102-40.8203 47.0215-40.5273ZM50.3418-30.127L50.3418-25.8301C52.1973-26.0742 53.3691-26.709 53.3691-27.9785C53.3691-29.1504 52.5391-29.6875 50.6348-30.0781Z"/>
  </g>
  <g id="Heavy-S" transform="matrix(1 0 0 1 2588.47 696)">
   <path d="M48.2422 6.15234C70.9961 6.15234 89.5996-12.4512 89.5996-35.2051C89.5996-57.959 70.9961-76.6113 48.1934-76.6113C25.4395-76.6113 6.83594-57.959 6.83594-35.2051C6.83594-12.4512 25.4395 6.15234 48.2422 6.15234ZM48.1934-13.5254C47.2168-13.5254 46.582-14.209 46.582-15.2344L46.582-17.5781C39.5996-17.9199 35.8887-21.1426 34.668-24.3164C34.375-25 34.2773-25.6836 34.2773-26.2695C34.2773-28.6133 35.8398-30.2246 38.5742-30.2246C40.5762-30.2246 41.8945-29.1992 42.8223-27.4902C43.4082-26.2207 44.5312-25.293 46.582-24.9512L46.582-31.3477L44.6289-31.7871C37.793-33.252 34.082-36.377 34.082-42.0898C34.082-48.3398 39.2578-52.4902 46.582-52.9297L46.582-55.4199C46.582-56.4453 47.2168-57.1289 48.1934-57.1289C49.1699-57.1289 49.8535-56.4453 49.8535-55.4199L49.8535-52.9297C56.1523-52.3926 60.1074-49.4141 61.2793-45.8008C61.4746-45.2148 61.6211-44.5801 61.6211-43.9453C61.6211-41.8457 60.0098-40.3809 57.4707-40.3809C55.5664-40.3809 54.1992-41.2598 53.125-43.0176C52.4414-44.2871 51.3672-45.1172 49.8535-45.4102L49.8535-39.3066L51.9043-38.8672C59.0332-37.4512 62.5977-34.375 62.5977-28.6621C62.5977-22.3145 57.5195-18.1641 49.8535-17.5781L49.8535-15.2344C49.8535-14.209 49.1699-13.5254 48.1934-13.5254ZM46.582-40.0879L46.582-45.5566C44.5312-45.3613 43.2617-44.2871 43.2617-42.8711C43.2617-41.5039 44.2871-40.5762 46.2891-40.1367ZM49.8535-30.6152L49.8535-24.9512C52.1973-25.2441 53.4668-26.2207 53.4668-27.7832C53.4668-29.1992 52.5391-29.9805 50.293-30.5176Z"/>
  </g>
  <g id="Bold-S" transform="matrix(1 0 0 1 2292.44 696)">
   <path d="M47.5586 5.46875C69.873 5.46875 88.2324-12.8906 88.2324-35.2539C88.2324-57.5684 69.873-75.9277 47.5098-75.9277C25.1953-75.9277 6.83594-57.5684 6.83594-35.2539C6.83594-12.8906 25.1953 5.46875 47.5586 5.46875ZM47.5098-13.1348C46.4844-13.1348 45.752-13.8672 45.752-14.9414L45.752-17.4316C39.3555-17.8711 35.4004-20.9473 34.1797-24.6094C33.9355-25.1953 33.8379-25.7812 33.8379-26.3184C33.8379-28.3691 35.2539-29.834 37.5488-29.834C39.3555-29.834 40.5273-28.9062 41.3086-27.2461C41.9434-25.6348 43.2617-24.3652 45.752-24.0234L45.752-32.0312L44.3848-32.3242C37.6465-33.8379 33.9844-36.9141 33.9844-42.4805C33.9844-48.4863 38.8672-52.4902 45.752-53.0273L45.752-55.6152C45.752-56.6895 46.4844-57.4707 47.5098-57.4707C48.584-57.4707 49.3164-56.6895 49.3164-55.6152L49.3164-53.0273C55.1758-52.4902 59.1797-49.5117 60.3027-45.6543C60.498-45.1172 60.5957-44.5312 60.5957-43.9941C60.5957-42.0898 59.1797-40.7227 56.9824-40.7227C55.2734-40.7227 54.1016-41.6016 53.1738-43.2129C52.4414-44.9219 51.1719-45.9961 49.3164-46.3867L49.3164-38.7207L50.7812-38.4277C57.8613-37.0605 61.4258-33.8867 61.4258-28.2715C61.4258-21.9238 56.3965-18.0176 49.3164-17.4316L49.3164-14.9414C49.3164-13.8672 48.584-13.1348 47.5098-13.1348ZM45.752-39.5996L45.752-46.4844C43.3105-46.0938 41.8945-44.7754 41.8945-43.1152C41.8945-41.4551 43.0664-40.332 45.459-39.6973ZM49.3164-31.2012L49.3164-24.0234C52.1484-24.3652 53.5645-25.6348 53.5645-27.5879C53.5645-29.2969 52.5879-30.3223 49.9023-31.0547Z"/>
  </g>
  <g id="Semibold-S" transform="matrix(1 0 0 1 1996.2 696)">
   <path d="M47.0703 4.98047C69.0918 4.98047 87.3047-13.1836 87.3047-35.2539C87.3047-57.2754 69.0918-75.4883 47.0215-75.4883C25-75.4883 6.83594-57.2754 6.83594-35.2539C6.83594-13.1836 25.0488 4.98047 47.0703 4.98047ZM47.0703-12.8418C45.9473-12.8418 45.166-13.623 45.166-14.7949L45.166-17.334C39.209-17.8223 35.0586-20.8008 33.8379-24.8047C33.6914-25.3418 33.5938-25.8789 33.5938-26.3672C33.5938-28.2227 34.8633-29.541 36.8652-29.541C38.4766-29.541 39.5508-28.7109 40.2344-27.0996C40.918-25.2441 42.3828-23.7793 45.166-23.3398L45.166-32.4707L44.2383-32.666C37.5-34.2285 33.9355-37.3047 33.9355-42.7246C33.9355-48.584 38.5742-52.4902 45.166-53.125L45.166-55.7617C45.166-56.8848 45.9473-57.666 47.0703-57.666C48.1445-57.666 48.9746-56.8848 48.9746-55.7617L48.9746-53.125C54.541-52.5391 58.5449-49.5605 59.668-45.5566C59.7656-45.0195 59.9121-44.5312 59.9121-43.9941C59.9121-42.2363 58.5938-41.0156 56.6895-41.0156C55.0293-41.0156 54.0039-41.8457 53.2715-43.3594C52.4902-45.3613 51.0254-46.582 48.9746-47.0215L48.9746-38.3301L50-38.1348C57.0312-36.8164 60.6445-33.5938 60.6445-27.9785C60.6445-21.6797 55.6641-17.9199 48.9746-17.334L48.9746-14.7949C48.9746-13.623 48.1445-12.8418 47.0703-12.8418ZM45.166-39.3066L45.166-47.0703C42.4805-46.6309 40.9668-45.0684 40.9668-43.2617C40.9668-41.4062 42.1875-40.1855 44.873-39.3555ZM48.9746-31.543L48.9746-23.3398C52.1484-23.7305 53.6133-25.293 53.6133-27.4414C53.6133-29.3457 52.5879-30.5664 49.6094-31.3965Z"/>
  </g>
  <g id="Medium-S" transform="matrix(1 0 0 1 1699.83 696)">
   <path d="M46.7285 4.63867C68.5547 4.63867 86.6211-13.4277 86.6211-35.2539C86.6211-57.0801 68.5059-75.1465 46.6797-75.1465C24.8535-75.1465 6.83594-57.0801 6.83594-35.2539C6.83594-13.4277 24.9023 4.63867 46.7285 4.63867ZM46.6797-12.6465C45.5566-12.6465 44.7266-13.4277 44.7266-14.6484L44.7266-17.2363C39.1113-17.7734 34.8145-20.7031 33.5938-24.9512C33.4473-25.4395 33.3496-25.9277 33.3496-26.3672C33.3496-28.0762 34.5703-29.2969 36.377-29.2969C37.793-29.2969 38.8184-28.5645 39.4531-27.002C40.1367-24.9023 41.748-23.291 44.7266-22.8516L44.7266-32.8125L44.1406-32.959C37.4023-34.5215 33.8867-37.5977 33.8867-42.9199C33.8867-48.6816 38.3789-52.5391 44.7266-53.1738L44.7266-55.8594C44.7266-57.0312 45.5566-57.8613 46.6797-57.8613C47.8027-57.8613 48.6816-57.0312 48.6816-55.8594L48.6816-53.1738C54.0039-52.5879 58.0078-49.6582 59.1309-45.459C59.2773-44.9707 59.375-44.4824 59.375-44.043C59.375-42.3828 58.1543-41.2109 56.3965-41.2109C54.8828-41.2109 53.9062-42.041 53.3203-43.457C52.4902-45.7031 50.9277-47.0215 48.6816-47.5098L48.6816-38.0371L49.4141-37.8906C56.3965-36.6699 60.0098-33.3496 60.0098-27.7832C60.0098-21.4844 55.0781-17.8223 48.6816-17.2363L48.6816-14.6484C48.6816-13.4277 47.8027-12.6465 46.6797-12.6465ZM44.7266-39.0625L44.7266-47.5586C41.8457-47.0215 40.2832-45.3125 40.2832-43.3594C40.2832-41.4062 41.5527-40.0391 44.4336-39.1602ZM48.6816-31.8359L48.6816-22.8516C52.0996-23.2422 53.6621-25 53.6621-27.2949C53.6621-29.3945 52.5879-30.7617 49.4141-31.6406Z"/>
  </g>
  <g id="Regular-S" transform="matrix(1 0 0 1 1403.58 696)">
   <path d="M46.2402 4.15039C67.7734 4.15039 85.6934-13.7207 85.6934-35.2539C85.6934-56.7871 67.7246-74.6582 46.1914-74.6582C24.707-74.6582 6.83594-56.7871 6.83594-35.2539C6.83594-13.7207 24.7559 4.15039 46.2402 4.15039ZM46.2402-12.3535C45.0195-12.3535 44.1406-13.2324 44.1406-14.4531L44.1406-17.1875C38.9648-17.7246 34.4727-20.5566 33.3008-25.1465C33.2031-25.5371 33.1055-25.9766 33.1055-26.416C33.1055-27.9297 34.1797-29.0039 35.6934-29.0039C36.9629-29.0039 37.8906-28.3691 38.4277-26.8555C39.1113-24.5117 40.8691-22.7051 44.1406-22.168L44.1406-33.252L43.9453-33.3496C37.3047-34.9121 33.8379-37.9883 33.8379-43.2129C33.8379-48.7793 38.0859-52.5391 44.1406-53.2715L44.1406-56.0059C44.1406-57.2266 45.0195-58.0566 46.2402-58.0566C47.4121-58.0566 48.291-57.2266 48.291-56.0059L48.291-53.2715C53.3691-52.6367 57.373-49.707 58.4961-45.3613C58.5938-44.9219 58.6914-44.4824 58.6914-44.043C58.6914-42.5293 57.6172-41.4551 56.1035-41.4551C54.6875-41.4551 53.8086-42.2852 53.3691-43.6035C52.4902-46.1426 50.8301-47.6562 48.291-48.1445L48.291-37.6465L48.6816-37.5977C55.6152-36.4258 59.2285-33.0566 59.2285-27.4902C59.2285-21.2402 54.3457-17.7246 48.291-17.1387L48.291-14.4531C48.291-13.2324 47.4121-12.3535 46.2402-12.3535ZM44.1406-38.7695L44.1406-48.1445C41.0645-47.5586 39.3555-45.6543 39.3555-43.5059C39.3555-41.3574 40.6738-39.8926 43.8477-38.8184ZM48.291-32.2266L48.291-22.168C52.0996-22.6562 53.7109-24.6094 53.7109-27.1484C53.7109-29.4434 52.6367-31.0059 49.1211-31.9824Z"/>
  </g>
  <g id="Light-S" transform="matrix(1 0 0 1 1107.6 696)">
   <path d="M45.5078 3.41797C66.6992 3.41797 84.2285-14.0625 84.2285-35.2539C84.2285-56.4453 66.6504-73.9258 45.5078-73.9258C24.3164-73.9258 6.83594-56.4453 6.83594-35.2539C6.83594-14.0625 24.3652 3.41797 45.5078 3.41797ZM45.5078-12.9883C44.5312-12.9883 43.7988-13.6719 43.7988-14.6973L43.7988-17.627C38.4277-18.0664 34.1309-21.0449 33.0566-25.5859C32.959-25.9766 32.8613-26.3184 32.8613-26.709C32.8613-27.9785 33.7402-28.8574 34.9609-28.8574C36.0352-28.8574 36.7676-28.2715 37.1094-27.0508C37.7441-24.2188 40.0391-22.1191 43.7988-21.6309L43.7988-33.6914L43.457-33.7891C36.9629-35.3027 33.6426-38.2324 33.6426-43.1152C33.6426-48.3398 37.9395-52.0508 43.7988-52.6367L43.7988-55.3223C43.7988-56.3965 44.4824-57.0801 45.5078-57.0801C46.4844-57.0801 47.2168-56.3477 47.2168-55.3223L47.2168-52.6367C52.2949-52.0996 56.2988-49.1699 57.2754-44.9707C57.373-44.5801 57.4707-44.1895 57.4707-43.7988C57.4707-42.5781 56.5918-41.6992 55.3711-41.6992C54.1992-41.6992 53.5645-42.3828 53.2227-43.5059C52.4414-46.2891 50.293-48.0957 47.2168-48.5352L47.2168-37.1582L47.9004-37.0605C54.6387-35.7422 58.0078-32.6172 58.0078-27.4414C58.0078-21.6797 53.3691-18.0664 47.2168-17.5781L47.2168-14.6973C47.2168-13.7207 46.4844-12.9883 45.5078-12.9883ZM43.7988-38.0371L43.7988-48.5352C40.2832-47.998 38.0371-45.8984 38.0371-43.3105C38.0371-40.8203 39.7949-39.209 43.5059-38.1348ZM47.2168-32.8125L47.2168-21.6309C51.4648-22.0215 53.6621-24.2676 53.6621-27.1973C53.6621-29.834 52.1484-31.543 48.0469-32.6172Z"/>
  </g>
  <g id="Thin-S" transform="matrix(1 0 0 1 811.867 696)">
   <path d="M44.5801 2.49023C65.2832 2.49023 82.2754-14.5508 82.2754-35.2539C82.2754-55.957 65.2344-72.998 44.5312-72.998C23.8281-72.998 6.83594-55.957 6.83594-35.2539C6.83594-14.5508 23.877 2.49023 44.5801 2.49023ZM44.5312-13.8184C43.8477-13.8184 43.3105-14.3066 43.3105-15.0391L43.3105-18.1641C37.793-18.5547 33.6426-21.6797 32.7148-26.123C32.666-26.4648 32.6172-26.8066 32.6172-27.1484C32.6172-28.0273 33.2031-28.6133 33.9844-28.6133C34.8145-28.6133 35.2539-28.1738 35.4492-27.2949C35.8887-23.7793 38.9648-21.2891 43.3105-20.8984L43.3105-34.2285L42.7734-34.3262C36.4746-35.791 33.3984-38.5742 33.3984-42.9688C33.3984-47.8027 37.6953-51.3672 43.3105-51.8066L43.3105-54.4922C43.3105-55.2734 43.7988-55.7129 44.5312-55.7129C45.2637-55.7129 45.8008-55.2246 45.8008-54.4922L45.8008-51.8066C50.9277-51.416 54.834-48.4375 55.7129-44.4824C55.7617-44.1895 55.8594-43.8477 55.8594-43.5059C55.8594-42.627 55.2734-42.041 54.4434-42.041C53.6133-42.041 53.1738-42.5293 52.9785-43.4082C52.3926-46.4355 49.6094-48.6328 45.8008-49.0234L45.8008-36.5234L46.875-36.3281C53.3203-34.9121 56.4453-32.0801 56.4453-27.3926C56.4453-22.2168 52.0508-18.5547 45.8008-18.1152L45.8008-15.0391C45.8008-14.3555 45.2637-13.8184 44.5312-13.8184ZM43.3105-37.1582L43.3105-49.0234C39.3066-48.6328 36.2793-46.2402 36.2793-43.0664C36.2793-40.0879 38.5742-38.3301 43.0664-37.207ZM45.8008-33.6426L45.8008-20.8984C50.5859-21.2402 53.5645-23.8281 53.5645-27.2949C53.5645-30.4199 51.5137-32.2754 46.6309-33.3984Z"/>
  </g>
  <g id="Ultralight-S" transform="matrix(1 0 0 1 515.644 696)">
   <path d="M44.043 1.95312C64.502 1.95312 81.2988-14.7949 81.2988-35.2539C81.2988-55.7129 64.502-72.4609 44.043-72.4609C23.584-72.4609 6.83594-55.7129 6.83594-35.2539C6.83594-14.7949 23.584 1.95312 44.043 1.95312ZM44.043-14.2578C43.457-14.2578 43.0664-14.6484 43.0664-15.2344L43.0664-18.5059C37.4512-18.7988 33.4473-21.9727 32.5684-26.4648C32.5195-26.7578 32.4707-27.0508 32.4707-27.3438C32.4707-28.0762 32.9102-28.5156 33.4961-28.5156C34.1797-28.5156 34.4727-28.0762 34.5703-27.3926C34.9609-23.584 38.3789-20.8984 43.0664-20.5566L43.0664-34.5215L42.3828-34.668C36.2793-36.084 33.252-38.7695 33.252-42.8711C33.252-47.5098 37.5977-51.0254 43.0664-51.3672L43.0664-54.0527C43.0664-54.6875 43.4082-55.0293 44.043-55.0293C44.6289-55.0293 45.0684-54.6387 45.0684-54.0527L45.0684-51.3672C50.1953-51.0742 54.1016-48.0957 54.8828-44.2383C54.9316-43.9453 54.9805-43.6523 54.9805-43.3594C54.9805-42.6758 54.5898-42.2363 53.9551-42.2363C53.3203-42.2363 52.9785-42.627 52.8809-43.3105C52.3926-46.582 49.2676-48.9746 45.0684-49.2676L45.0684-36.2305L46.3379-35.9375C52.6855-34.4727 55.6152-31.7871 55.6152-27.3438C55.6152-22.5098 51.416-18.7988 45.0684-18.457L45.0684-15.2344C45.0684-14.6484 44.6289-14.2578 44.043-14.2578ZM43.0664-36.6699L43.0664-49.2676C38.7695-48.9746 35.4004-46.3867 35.4004-42.9199C35.4004-39.6973 37.9395-37.8906 42.8711-36.7188ZM45.0684-34.0332L45.0684-20.5566C50.1465-20.8008 53.5645-23.584 53.5645-27.3438C53.5645-30.7129 51.1719-32.6172 45.8984-33.8379Z"/>
  </g>
 </g>
</svg>
