<?xml version="1.0" encoding="UTF-8"?>
<!--Generator: Apple Native CoreSVG 149-->
<!DOCTYPE svg
PUBLIC "-//W3C//DTD SVG 1.1//EN"
       "http://www.w3.org/Graphics/SVG/1.1/DTD/svg11.dtd">
<svg version="1.1" xmlns="http://www.w3.org/2000/svg" xmlns:xlink="http://www.w3.org/1999/xlink" width="3300" height="2200">
 <!--glyph: "uni100883.medium", point size: 100.000000, font version: "Version 16.0d18e1", template writer version: "8"-->
 <g id="Notes">
  <rect height="2200" id="artboard" style="fill:white;opacity:1" width="3300" x="0" y="0"/>
  <line id="" style="fill:none;stroke:black;opacity:1;stroke-width:0.5;" x1="263" x2="3036" y1="292" y2="292"/>
  <text style="stroke:none;fill:black;font-family:-apple-system,&quot;SF Pro Display&quot;,&quot;SF Pro Text&quot;,Helvetica,sans-serif;font-weight:bold;" transform="matrix(1 0 0 1 263 322)">Weight/Scale Variations</text>
  <text style="stroke:none;fill:black;font-family:-apple-system,&quot;SF Pro Display&quot;,&quot;SF Pro Text&quot;,Helvetica,sans-serif;text-anchor:middle;" transform="matrix(1 0 0 1 559.711 322)">Ultralight</text>
  <text style="stroke:none;fill:black;font-family:-apple-system,&quot;SF Pro Display&quot;,&quot;SF Pro Text&quot;,Helvetica,sans-serif;text-anchor:middle;" transform="matrix(1 0 0 1 856.422 322)">Thin</text>
  <text style="stroke:none;fill:black;font-family:-apple-system,&quot;SF Pro Display&quot;,&quot;SF Pro Text&quot;,Helvetica,sans-serif;text-anchor:middle;" transform="matrix(1 0 0 1 1153.13 322)">Light</text>
  <text style="stroke:none;fill:black;font-family:-apple-system,&quot;SF Pro Display&quot;,&quot;SF Pro Text&quot;,Helvetica,sans-serif;text-anchor:middle;" transform="matrix(1 0 0 1 1449.84 322)">Regular</text>
  <text style="stroke:none;fill:black;font-family:-apple-system,&quot;SF Pro Display&quot;,&quot;SF Pro Text&quot;,Helvetica,sans-serif;text-anchor:middle;" transform="matrix(1 0 0 1 1746.56 322)">Medium</text>
  <text style="stroke:none;fill:black;font-family:-apple-system,&quot;SF Pro Display&quot;,&quot;SF Pro Text&quot;,Helvetica,sans-serif;text-anchor:middle;" transform="matrix(1 0 0 1 2043.27 322)">Semibold</text>
  <text style="stroke:none;fill:black;font-family:-apple-system,&quot;SF Pro Display&quot;,&quot;SF Pro Text&quot;,Helvetica,sans-serif;text-anchor:middle;" transform="matrix(1 0 0 1 2339.98 322)">Bold</text>
  <text style="stroke:none;fill:black;font-family:-apple-system,&quot;SF Pro Display&quot;,&quot;SF Pro Text&quot;,Helvetica,sans-serif;text-anchor:middle;" transform="matrix(1 0 0 1 2636.69 322)">Heavy</text>
  <text style="stroke:none;fill:black;font-family:-apple-system,&quot;SF Pro Display&quot;,&quot;SF Pro Text&quot;,Helvetica,sans-serif;text-anchor:middle;" transform="matrix(1 0 0 1 2933.4 322)">Black</text>
  <line id="" style="fill:none;stroke:black;opacity:1;stroke-width:0.5;" x1="263" x2="3036" y1="1903" y2="1903"/>
  <g id="" transform="matrix(1 0 0 1 263 1933)">
   <path d="M9.24805 0.830078C13.5547 0.830078 17.1387-2.74414 17.1387-7.05078C17.1387-11.3574 13.5449-14.9316 9.23828-14.9316C4.94141-14.9316 1.36719-11.3574 1.36719-7.05078C1.36719-2.74414 4.95117 0.830078 9.24805 0.830078ZM9.24805-0.654297C5.70312-0.654297 2.87109-3.49609 2.87109-7.05078C2.87109-10.6055 5.69336-13.4473 9.23828-13.4473C12.793-13.4473 15.6348-10.6055 15.6445-7.05078C15.6543-3.49609 12.8027-0.654297 9.24805-0.654297ZM6.39648-6.31836L8.50586-6.31836L8.50586-4.19922C8.50586-3.75977 8.79883-3.45703 9.22852-3.45703C9.67773-3.45703 9.9707-3.75977 9.9707-4.19922L9.9707-6.31836L12.0996-6.31836C12.5391-6.31836 12.8418-6.61133 12.8418-7.04102C12.8418-7.48047 12.5391-7.7832 12.0996-7.7832L9.9707-7.7832L9.9707-9.89258C9.9707-10.3418 9.67773-10.6445 9.22852-10.6445C8.79883-10.6445 8.50586-10.3418 8.50586-9.89258L8.50586-7.7832L6.39648-7.7832C5.94727-7.7832 5.64453-7.48047 5.64453-7.04102C5.64453-6.61133 5.94727-6.31836 6.39648-6.31836Z"/>
  </g>
  <g id="" transform="matrix(1 0 0 1 281.506 1933)">
   <path d="M11.709 2.91016C17.1582 2.91016 21.6699-1.61133 21.6699-7.05078C21.6699-12.5 17.1484-17.0117 11.6992-17.0117C6.25977-17.0117 1.74805-12.5 1.74805-7.05078C1.74805-1.61133 6.26953 2.91016 11.709 2.91016ZM11.709 1.25C7.09961 1.25 3.41797-2.44141 3.41797-7.05078C3.41797-11.6602 7.08984-15.3516 11.6992-15.3516C16.3086-15.3516 20-11.6602 20.0098-7.05078C20.0195-2.44141 16.3184 1.25 11.709 1.25ZM7.98828-6.23047L10.8789-6.23047L10.8789-3.32031C10.8789-2.83203 11.2109-2.5 11.6895-2.5C12.1777-2.5 12.5195-2.83203 12.5195-3.32031L12.5195-6.23047L15.4297-6.23047C15.918-6.23047 16.25-6.5625 16.25-7.04102C16.25-7.5293 15.918-7.87109 15.4297-7.87109L12.5195-7.87109L12.5195-10.7617C12.5195-11.2695 12.1777-11.6016 11.6895-11.6016C11.2109-11.6016 10.8789-11.2598 10.8789-10.7617L10.8789-7.87109L7.98828-7.87109C7.48047-7.87109 7.14844-7.5293 7.14844-7.04102C7.14844-6.5625 7.49023-6.23047 7.98828-6.23047Z"/>
  </g>
  <g id="" transform="matrix(1 0 0 1 304.924 1933)">
   <path d="M14.9707 5.66406C21.9336 5.66406 27.6953-0.0976562 27.6953-7.05078C27.6953-14.0137 21.9238-19.7754 14.9609-19.7754C8.00781-19.7754 2.25586-14.0137 2.25586-7.05078C2.25586-0.0976562 8.01758 5.66406 14.9707 5.66406ZM14.9707 3.84766C8.93555 3.84766 4.08203-1.01562 4.08203-7.05078C4.08203-13.0957 8.92578-17.9492 14.9609-17.9492C21.0059-17.9492 25.8594-13.0957 25.8691-7.05078C25.8789-1.01562 21.0156 3.84766 14.9707 3.84766ZM10.0586-6.14258L14.0625-6.14258L14.0625-2.12891C14.0625-1.5918 14.4336-1.2207 14.9512-1.2207C15.4883-1.2207 15.8594-1.5918 15.8594-2.12891L15.8594-6.14258L19.8828-6.14258C20.4102-6.14258 20.791-6.51367 20.791-7.03125C20.791-7.56836 20.4199-7.94922 19.8828-7.94922L15.8594-7.94922L15.8594-11.9531C15.8594-12.5098 15.4883-12.8809 14.9512-12.8809C14.4336-12.8809 14.0625-12.5 14.0625-11.9531L14.0625-7.94922L10.0586-7.94922C9.50195-7.94922 9.13086-7.56836 9.13086-7.03125C9.13086-6.51367 9.51172-6.14258 10.0586-6.14258Z"/>
  </g>
  <text style="stroke:none;fill:black;font-family:-apple-system,&quot;SF Pro Display&quot;,&quot;SF Pro Text&quot;,Helvetica,sans-serif;font-weight:bold;" transform="matrix(1 0 0 1 263 1953)">Design Variations</text>
  <text style="stroke:none;fill:black;font-family:-apple-system,&quot;SF Pro Display&quot;,&quot;SF Pro Text&quot;,Helvetica,sans-serif;" transform="matrix(1 0 0 1 263 1971)">Symbols are supported in up to nine weights and three scales.</text>
  <text style="stroke:none;fill:black;font-family:-apple-system,&quot;SF Pro Display&quot;,&quot;SF Pro Text&quot;,Helvetica,sans-serif;" transform="matrix(1 0 0 1 263 1989)">For optimal layout with text and other symbols, vertically align</text>
  <text style="stroke:none;fill:black;font-family:-apple-system,&quot;SF Pro Display&quot;,&quot;SF Pro Text&quot;,Helvetica,sans-serif;" transform="matrix(1 0 0 1 263 2007)">symbols with the adjacent text.</text>
  <line id="" style="fill:none;stroke:#00AEEF;stroke-width:0.5;opacity:1.0;" x1="776" x2="776" y1="1919" y2="1933"/>
  <g id="" transform="matrix(1 0 0 1 776 1933)">
   <path d="M3.31055 0.126953C3.82812 0.126953 4.08203-0.0683594 4.26758-0.605469L5.52734-4.0625L11.2891-4.0625L12.5488-0.605469C12.7344-0.0683594 12.9883 0.126953 13.4961 0.126953C14.0137 0.126953 14.3457-0.185547 14.3457-0.673828C14.3457-0.839844 14.3164-0.986328 14.2383-1.20117L9.6582-13.3887C9.43359-13.9941 9.0332-14.2871 8.4082-14.2871C7.80273-14.2871 7.39258-13.9941 7.17773-13.3984L2.59766-1.19141C2.51953-0.976562 2.49023-0.830078 2.49023-0.664062C2.49023-0.175781 2.80273 0.126953 3.31055 0.126953ZM6.00586-5.53711L8.37891-12.1094L8.42773-12.1094L10.8008-5.53711Z"/>
  </g>
  <line id="" style="fill:none;stroke:#00AEEF;stroke-width:0.5;opacity:1.0;" x1="792.836" x2="792.836" y1="1919" y2="1933"/>
  <text style="stroke:none;fill:black;font-family:-apple-system,&quot;SF Pro Display&quot;,&quot;SF Pro Text&quot;,Helvetica,sans-serif;font-weight:bold;" transform="matrix(1 0 0 1 776 1953)">Margins</text>
  <text style="stroke:none;fill:black;font-family:-apple-system,&quot;SF Pro Display&quot;,&quot;SF Pro Text&quot;,Helvetica,sans-serif;" transform="matrix(1 0 0 1 776 1971)">Leading and trailing margins on the left and right side of each symbol</text>
  <text style="stroke:none;fill:black;font-family:-apple-system,&quot;SF Pro Display&quot;,&quot;SF Pro Text&quot;,Helvetica,sans-serif;" transform="matrix(1 0 0 1 776 1989)">can be adjusted by modifying the x-location of the margin guidelines.</text>
  <text style="stroke:none;fill:black;font-family:-apple-system,&quot;SF Pro Display&quot;,&quot;SF Pro Text&quot;,Helvetica,sans-serif;" transform="matrix(1 0 0 1 776 2007)">Modifications are automatically applied proportionally to all</text>
  <text style="stroke:none;fill:black;font-family:-apple-system,&quot;SF Pro Display&quot;,&quot;SF Pro Text&quot;,Helvetica,sans-serif;" transform="matrix(1 0 0 1 776 2025)">scales and weights.</text>
  <g id="" transform="matrix(1 0 0 1 1289 1933)">
   <path d="M2.8418 1.86523L4.54102 3.57422C5.40039 4.44336 6.38672 4.38477 7.31445 3.35938L17.4902-7.85156C17.7539-7.76367 18.0273-7.7832 18.3398-7.8418L19.4043-8.03711L20.0684-7.36328L20.0293-6.80664C19.9902-6.30859 20.1172-5.92773 20.6055-5.44922L21.3672-4.70703C21.8457-4.22852 22.4609-4.19922 22.9297-4.66797L25.8398-7.58789C26.3086-8.05664 26.2891-8.65234 25.8105-9.13086L25.0391-9.89258C24.5605-10.3711 24.1895-10.5273 23.7109-10.4883L23.1348-10.4395L22.4902-11.0742L22.7344-12.1973C22.8613-12.7637 22.7051-13.2031 22.1191-13.7891L19.9219-15.9766C16.582-19.2969 12.1484-19.2188 9.25781-16.3281C8.83789-15.918 8.80859-15.3418 9.04297-14.9512C9.27734-14.5898 9.73633-14.3555 10.3809-14.5215C11.8457-14.8633 13.3691-14.9219 14.7949-13.9844L14.209-12.5293C14.0137-12.0508 13.9844-11.6504 14.1113-11.2891L3.04688-0.898438C2.06055 0.0195312 1.98242 0.996094 2.8418 1.86523ZM10.752-15.957C13.1836-17.7344 16.4746-17.4316 18.7012-15.2051L21.1328-12.793C21.3672-12.5586 21.4062-12.373 21.3379-12.0312L21.0156-10.5469L22.5195-9.0625L23.5059-9.12109C23.7598-9.13086 23.8379-9.11133 24.0332-8.91602L24.6094-8.33984L22.168-5.89844L21.5918-6.47461C21.3965-6.66992 21.3672-6.74805 21.377-7.01172L21.4453-7.98828L19.9512-9.47266L18.4277-9.21875C18.1055-9.15039 17.959-9.17969 17.7148-9.41406L15.7129-11.416C15.459-11.6504 15.4297-11.8164 15.5859-12.1875L16.4648-14.2773C14.9023-15.7324 12.8711-16.3574 10.8398-15.7617C10.6836-15.7227 10.625-15.8496 10.752-15.957ZM5.27344 2.30469L4.10156 1.14258C3.63281 0.683594 3.74023 0.341797 4.14062-0.0195312L14.9512-10.1953L16.416-8.71094L6.42578 2.27539C6.07422 2.67578 5.74219 2.77344 5.27344 2.30469Z"/>
  </g>
  <text style="stroke:none;fill:black;font-family:-apple-system,&quot;SF Pro Display&quot;,&quot;SF Pro Text&quot;,Helvetica,sans-serif;font-weight:bold;" transform="matrix(1 0 0 1 1289 1953)">Exporting</text>
  <text style="stroke:none;fill:black;font-family:-apple-system,&quot;SF Pro Display&quot;,&quot;SF Pro Text&quot;,Helvetica,sans-serif;" transform="matrix(1 0 0 1 1289 1971)">Symbols should be outlined when exporting to ensure the</text>
  <text style="stroke:none;fill:black;font-family:-apple-system,&quot;SF Pro Display&quot;,&quot;SF Pro Text&quot;,Helvetica,sans-serif;" transform="matrix(1 0 0 1 1289 1989)">design is preserved when submitting to Xcode.</text>
  <text id="template-version" style="stroke:none;fill:black;font-family:-apple-system,&quot;SF Pro Display&quot;,&quot;SF Pro Text&quot;,Helvetica,sans-serif;text-anchor:end;" transform="matrix(1 0 0 1 3036 1933)">Template v.2.0</text>
  <text style="stroke:none;fill:black;font-family:-apple-system,&quot;SF Pro Display&quot;,&quot;SF Pro Text&quot;,Helvetica,sans-serif;text-anchor:end;" transform="matrix(1 0 0 1 3036 1951)">Requires Xcode 12 or greater</text>
  <text style="stroke:none;fill:black;font-family:-apple-system,&quot;SF Pro Display&quot;,&quot;SF Pro Text&quot;,Helvetica,sans-serif;text-anchor:end;" transform="matrix(1 0 0 1 3036 1969)">Generated from xmark.diamond</text>
  <text style="stroke:none;fill:black;font-family:-apple-system,&quot;SF Pro Display&quot;,&quot;SF Pro Text&quot;,Helvetica,sans-serif;text-anchor:end;" transform="matrix(1 0 0 1 3036 1987)">Typeset at 100 points</text>
  <text style="stroke:none;fill:black;font-family:-apple-system,&quot;SF Pro Display&quot;,&quot;SF Pro Text&quot;,Helvetica,sans-serif;" transform="matrix(1 0 0 1 263 726)">Small</text>
  <text style="stroke:none;fill:black;font-family:-apple-system,&quot;SF Pro Display&quot;,&quot;SF Pro Text&quot;,Helvetica,sans-serif;" transform="matrix(1 0 0 1 263 1156)">Medium</text>
  <text style="stroke:none;fill:black;font-family:-apple-system,&quot;SF Pro Display&quot;,&quot;SF Pro Text&quot;,Helvetica,sans-serif;" transform="matrix(1 0 0 1 263 1586)">Large</text>
 </g>
 <g id="Guides">
  <g id="H-reference" style="fill:#27AAE1;stroke:none;" transform="matrix(1 0 0 1 339 696)">
   <path d="M0.976562 0L3.66211 0L12.9883-24.4629L45.752-24.4629L55.127 0L57.7637 0L30.6152-70.459L28.125-70.459ZM29.3457-67.1387L29.4434-67.1387L44.873-26.709L13.8672-26.709Z"/>
  </g>
  <line id="Baseline-S" style="fill:none;stroke:#27AAE1;opacity:1;stroke-width:0.5;" x1="263" x2="3036" y1="696" y2="696"/>
  <line id="Capline-S" style="fill:none;stroke:#27AAE1;opacity:1;stroke-width:0.5;" x1="263" x2="3036" y1="625.541" y2="625.541"/>
  <g id="H-reference" style="fill:#27AAE1;stroke:none;" transform="matrix(1 0 0 1 339 1126)">
   <path d="M0.976562 0L3.66211 0L12.9883-24.4629L45.752-24.4629L55.127 0L57.7637 0L30.6152-70.459L28.125-70.459ZM29.3457-67.1387L29.4434-67.1387L44.873-26.709L13.8672-26.709Z"/>
  </g>
  <line id="Baseline-M" style="fill:none;stroke:#27AAE1;opacity:1;stroke-width:0.5;" x1="263" x2="3036" y1="1126" y2="1126"/>
  <line id="Capline-M" style="fill:none;stroke:#27AAE1;opacity:1;stroke-width:0.5;" x1="263" x2="3036" y1="1055.54" y2="1055.54"/>
  <g id="H-reference" style="fill:#27AAE1;stroke:none;" transform="matrix(1 0 0 1 339 1556)">
   <path d="M0.976562 0L3.66211 0L12.9883-24.4629L45.752-24.4629L55.127 0L57.7637 0L30.6152-70.459L28.125-70.459ZM29.3457-67.1387L29.4434-67.1387L44.873-26.709L13.8672-26.709Z"/>
  </g>
  <line id="Baseline-L" style="fill:none;stroke:#27AAE1;opacity:1;stroke-width:0.5;" x1="263" x2="3036" y1="1556" y2="1556"/>
  <line id="Capline-L" style="fill:none;stroke:#27AAE1;opacity:1;stroke-width:0.5;" x1="263" x2="3036" y1="1485.54" y2="1485.54"/>
  <line id="left-margin" style="fill:none;stroke:#00AEEF;stroke-width:0.5;opacity:1.0;" x1="1384.46" x2="1384.46" y1="1030.79" y2="1150.12"/>
  <line id="right-margin" style="fill:none;stroke:#00AEEF;stroke-width:0.5;opacity:1.0;" x1="1515.23" x2="1515.23" y1="1030.79" y2="1150.12"/>
 </g>
 <g id="Symbols">
  <g id="Black-L" transform="matrix(1 0 0 1 2844.63 1556)">
   <path d="M20.9473-18.3594L71.875 32.5195C82.666 43.3594 94.873 43.3594 105.664 32.6172L156.641-18.4082C167.432-29.1992 167.383-41.3574 156.592-52.1973L105.713-103.076C94.873-113.867 82.666-113.916 71.9238-103.125L20.8984-52.1484C10.1074-41.3574 10.1562-29.1504 20.9473-18.3594ZM37.2559-30.7617C34.2285-33.7891 33.9844-36.5234 37.2559-39.7949L84.2285-86.7676C87.5-90.0391 90.2344-89.8438 93.3105-86.8164L140.283-39.7949C143.359-36.7188 143.555-33.9844 140.283-30.7129L93.3105 16.2109C90.0391 19.4824 87.3047 19.2871 84.2773 16.2598ZM70.752-9.27734C73.1934-9.27734 75.1465-10.0098 76.709-11.6211L88.8184-23.6816L100.977-11.6211C102.539-10.0586 104.492-9.27734 106.934-9.27734C111.426-9.27734 114.893-12.7441 114.893-17.334C114.893-19.3848 114.062-21.3379 112.5-22.8516L100.293-35.1074L112.549-47.4609C114.062-49.0234 114.941-50.9277 114.941-52.9297C114.941-57.5195 111.475-60.9863 106.934-60.9863C104.541-60.9863 102.686-60.2539 101.074-58.6426L88.8184-46.5332L76.6602-58.6426C75.0977-60.2051 73.1934-60.9375 70.752-60.9375C66.2598-60.9375 62.793-57.5195 62.793-52.9297C62.793-50.9277 63.6719-48.9258 65.1855-47.4121L77.4414-35.1074L65.1855-22.8516C63.6719-21.3379 62.793-19.3359 62.793-17.334C62.793-12.7441 66.2598-9.27734 70.752-9.27734Z"/>
  </g>
  <g id="Heavy-L" transform="matrix(1 0 0 1 2549.16 1556)">
   <path d="M20.6543-19.1895L71.4355 31.5918C81.8359 41.9922 93.2617 41.9922 103.564 31.6895L154.492-19.2383C164.795-29.541 164.795-41.0156 154.395-51.3672L103.613-102.148C93.2617-112.5 81.8359-112.549 71.4844-102.197L20.5566-51.3184C10.2539-40.9668 10.3027-29.541 20.6543-19.1895ZM34.5703-30.0293C31.1035-33.5449 30.9082-36.8164 34.5703-40.5273L82.2754-88.1836C85.9863-91.8945 89.2578-91.6992 92.7246-88.2324L140.479-40.4785C143.945-37.0117 144.141-33.6914 140.479-30.0293L92.7734 17.6758C89.1113 21.3379 85.7422 21.1914 82.3242 17.7246ZM68.6523-9.17969C70.8008-9.17969 72.5098-9.91211 73.9258-11.3281L87.5488-24.9512L101.27-11.3281C102.686-9.91211 104.395-9.17969 106.543-9.17969C110.596-9.17969 113.672-12.3535 113.672-16.4062C113.672-18.2617 112.891-19.9707 111.523-21.3379L97.8027-35.1562L111.572-48.9746C112.988-50.3906 113.721-52.0996 113.721-53.9062C113.721-58.0078 110.596-61.084 106.592-61.084C104.443-61.084 102.832-60.4492 101.367-58.9844L87.5488-45.2637L73.877-58.9355C72.4609-60.3516 70.8008-61.0352 68.6523-61.0352C64.5996-61.0352 61.4746-57.959 61.4746-53.9062C61.4746-52.0508 62.2559-50.293 63.6719-48.9746L77.4414-35.1562L63.6719-21.3379C62.2559-19.9707 61.4746-18.2129 61.4746-16.4062C61.4746-12.3535 64.5996-9.17969 68.6523-9.17969Z"/>
  </g>
  <g id="Bold-L" transform="matrix(1 0 0 1 2253.84 1556)">
   <path d="M20.3125-20.1172L70.9961 30.5664C80.8594 40.4297 91.4551 40.4785 101.27 30.6641L152.051-20.166C161.865-29.9805 161.865-40.5762 152.002-50.4395L101.318-101.074C91.4551-110.986 80.9082-111.035 71.0449-101.172L20.2148-50.3906C10.3516-40.5273 10.4492-29.9805 20.3125-20.1172ZM31.543-29.248C27.6367-33.2031 27.4902-37.1582 31.5918-41.2598L80.127-89.7949C84.2285-93.9453 88.1836-93.7988 92.1387-89.8438L140.723-41.2598C144.629-37.3047 144.824-33.3496 140.674-29.248L92.1387 19.2871C88.0371 23.3887 84.0332 23.2422 80.1758 19.3359ZM66.2598-9.13086C68.0664-9.13086 69.5801-9.76562 70.8008-10.9863L86.1328-26.3672L101.562-10.9863C102.783-9.76562 104.297-9.13086 106.104-9.13086C109.619-9.13086 112.305-11.8652 112.305-15.332C112.305-16.9922 111.621-18.457 110.449-19.6777L94.9707-35.1562L110.449-50.7324C111.719-51.9531 112.354-53.3691 112.354-54.9805C112.354-58.4961 109.619-61.1816 106.152-61.1816C104.395-61.1816 102.979-60.5957 101.709-59.3262L86.1328-43.8965L70.7031-59.2773C69.4824-60.5469 68.0664-61.1328 66.2598-61.1328C62.7441-61.1328 60.0586-58.4473 60.0586-54.9805C60.0586-53.3691 60.7422-51.8555 61.9141-50.6836L77.3926-35.1562L61.9141-19.6289C60.7422-18.457 60.0586-16.9434 60.0586-15.332C60.0586-11.8652 62.7441-9.13086 66.2598-9.13086Z"/>
  </g>
  <g id="Semibold-L" transform="matrix(1 0 0 1 1958.09 1556)">
   <path d="M20.0684-20.752L70.6543 29.8828C80.1758 39.4043 90.1855 39.4531 99.6582 29.9805L150.391-20.8008C159.863-30.2734 159.863-40.2832 150.342-49.8047L99.7559-100.391C90.1855-109.912 80.2246-109.961 70.752-100.488L19.9707-49.707C10.4492-40.2344 10.5469-30.2734 20.0684-20.752ZM29.4922-28.7109C25.2441-33.0078 25.0977-37.4023 29.541-41.7969L78.6133-90.918C83.0566-95.3613 87.4023-95.2637 91.6992-90.9668L140.869-41.7969C145.117-37.5488 145.264-33.1055 140.82-28.7109L91.748 20.4102C87.3047 24.8047 82.8613 24.707 78.6621 20.459ZM64.5996-9.08203C66.2109-9.08203 67.5293-9.66797 68.6523-10.791L85.2051-27.3438L101.807-10.791C102.881-9.66797 104.199-9.08203 105.859-9.08203C108.936-9.08203 111.377-11.5234 111.377-14.6484C111.377-16.1133 110.791-17.4316 109.668-18.5059L93.0664-35.1562L109.717-51.9043C110.84-53.0273 111.377-54.2969 111.377-55.7617C111.377-58.8379 108.984-61.2305 105.859-61.2305C104.346-61.2305 103.076-60.7422 101.904-59.5703L85.2051-42.9199L68.5547-59.5215C67.4805-60.6445 66.2109-61.1816 64.5996-61.1816C61.5234-61.1816 59.082-58.7891 59.082-55.7129C59.082-54.248 59.668-52.8809 60.7422-51.8555L77.3926-35.1562L60.7422-18.5059C59.668-17.4316 59.082-16.1133 59.082-14.6484C59.082-11.5234 61.5234-9.08203 64.5996-9.08203Z"/>
  </g>
  <g id="Medium-L" transform="matrix(1 0 0 1 1662.11 1556)">
   <path d="M19.873-21.1914L70.4102 29.2969C79.6875 38.5742 89.2578 38.623 98.4375 29.4434L149.17-21.2891C158.35-30.4688 158.35-40.0391 149.072-49.3164L98.5352-99.8535C89.2578-109.131 79.7363-109.18 70.5078-99.9512L19.7754-49.2188C10.5469-39.9902 10.5957-30.4688 19.873-21.1914ZM27.9297-28.3203C23.3887-32.8613 23.291-37.5488 27.9297-42.2363L77.4902-91.748C82.1289-96.4355 86.8164-96.3379 91.3574-91.7969L140.967-42.1875C145.459-37.6953 145.605-32.9102 140.967-28.2715L91.4062 21.2402C86.7676 25.8789 81.9824 25.7812 77.5391 21.3379ZM63.3301-9.08203C64.7949-9.08203 66.0156-9.57031 66.9922-10.5957L84.4727-28.0762L101.953-10.5957C102.93-9.61914 104.15-9.08203 105.615-9.08203C108.398-9.08203 110.645-11.2793 110.645-14.1113C110.645-15.4785 110.107-16.6504 109.131-17.627L91.6016-35.1562L109.131-52.7832C110.205-53.8574 110.693-54.9805 110.693-56.2988C110.693-59.082 108.447-61.2793 105.664-61.2793C104.297-61.2793 103.174-60.8398 102.1-59.7656L84.4727-42.2363L66.8945-59.7168C65.918-60.7422 64.7949-61.2305 63.3301-61.2305C60.5469-61.2305 58.3008-59.082 58.3008-56.25C58.3008-54.9316 58.8379-53.7109 59.8633-52.7344L77.3926-35.1562L59.8633-17.5781C58.8379-16.6504 58.3008-15.4297 58.3008-14.1113C58.3008-11.2793 60.5469-9.08203 63.3301-9.08203Z"/>
  </g>
  <g id="Regular-L" transform="matrix(1 0 0 1 1366.35 1556)">
   <path d="M19.6777-21.8262L70.1172 28.6133C79.0527 37.5488 88.0371 37.5977 96.875 28.7598L147.51-21.9238C156.348-30.7617 156.348-39.7461 147.412-48.6816L96.9727-99.1211C88.0371-108.105 79.1016-108.154 70.2148-99.2188L19.4824-48.584C10.5957-39.6973 10.6934-30.7617 19.6777-21.8262ZM25.8789-27.7832C21.0449-32.6172 20.9473-37.793 25.9277-42.7246L76.0254-92.8223C80.957-97.8027 86.084-97.7539 90.9668-92.8711L141.113-42.7246C145.947-37.8906 146.094-32.666 141.113-27.7344L91.0156 22.3145C86.0352 27.2949 80.8105 27.1973 76.0742 22.4121ZM61.7188-9.0332C62.9395-9.0332 64.0137-9.47266 64.8926-10.4004L83.4961-29.0527L102.148-10.4004C103.027-9.52148 104.053-9.0332 105.322-9.0332C107.764-9.0332 109.717-10.9863 109.717-13.3789C109.717-14.6484 109.229-15.625 108.35-16.5039L89.6973-35.2051L108.398-53.9551C109.326-54.8828 109.766-55.8594 109.766-57.0312C109.766-59.4727 107.812-61.377 105.371-61.377C104.248-61.377 103.271-60.9375 102.344-60.0098L83.4961-41.2598L64.7949-59.9609C63.916-60.8398 62.9395-61.2793 61.7188-61.2793C59.2773-61.2793 57.3242-59.4238 57.3242-56.9824C57.3242-55.8105 57.8125-54.7363 58.6914-53.9062L77.3438-35.2051L58.6914-16.4551C57.8125-15.625 57.3242-14.5996 57.3242-13.3789C57.3242-10.9863 59.2773-9.0332 61.7188-9.0332Z"/>
  </g>
  <g id="Light-L" transform="matrix(1 0 0 1 1070.76 1556)">
   <path d="M19.2383-22.5586L69.7266 27.9297C78.125 36.3281 86.7676 36.2793 95.0684 27.9785L145.557-22.6074C153.857-30.9082 154.004-39.5508 145.605-47.998L95.166-98.3887C86.6699-106.885 78.1738-106.836 69.7754-98.4375L19.1406-47.9004C10.7422-39.502 10.791-31.0059 19.2383-22.5586ZM23.9746-27.0508C18.6523-32.373 18.6523-38.0371 23.9746-43.4082L74.1699-93.6035C79.5898-98.9746 85.1562-98.9746 90.5273-93.6035L140.723-43.4082C145.947-38.1836 146.143-32.373 140.723-27.0508L90.5273 23.0957C85.1562 28.5156 79.3945 28.3691 74.2188 23.1445ZM60.1562-9.57031C61.1816-9.57031 61.9629-9.91211 62.6953-10.6934L82.373-30.3711L102.051-10.6934C102.783-9.96094 103.613-9.57031 104.59-9.57031C106.494-9.57031 108.008-11.084 108.008-12.9395C108.008-13.916 107.666-14.6973 106.934-15.4297L87.1582-35.2051L106.982-55.0293C107.715-55.7617 108.057-56.4941 108.057-57.4707C108.057-59.3262 106.543-60.791 104.639-60.791C103.711-60.791 102.93-60.498 102.148-59.668L82.373-39.9414L62.6465-59.668C61.8652-60.4492 61.1816-60.7422 60.1562-60.7422C58.252-60.7422 56.7383-59.3262 56.7383-57.4707C56.7383-56.4941 57.0801-55.6641 57.8125-54.9805L77.5391-35.2051L57.8125-15.3809C57.0801-14.6973 56.7383-13.916 56.7383-12.9395C56.7383-11.084 58.252-9.57031 60.1562-9.57031Z"/>
  </g>
  <g id="Thin-L" transform="matrix(1 0 0 1 775.563 1556)">
   <path d="M18.6523-23.5352L69.1895 27.002C76.9043 34.7168 85.0586 34.5703 92.6758 27.002L143.018-23.5352C150.635-31.1035 150.928-39.2578 143.164-47.0215L92.7246-97.4609C84.9121-105.273 76.9043-105.127 69.1895-97.4121L18.6523-47.0215C10.9375-39.2578 10.9375-31.25 18.6523-23.5352ZM21.4355-26.123C15.4785-31.9824 15.5762-38.3789 21.4355-44.2871L71.7773-94.5801C77.7344-100.537 83.9844-100.537 89.9414-94.5801L140.186-44.3359C145.996-38.5742 146.191-31.9824 140.234-26.123L89.9414 24.1211C83.9844 30.0781 77.5391 29.9316 71.7773 24.1211ZM58.0566-10.3027C58.7891-10.3027 59.2285-10.498 59.8145-11.1328L80.8594-32.1289L101.855-11.1328C102.49-10.498 102.979-10.3027 103.613-10.3027C104.834-10.3027 105.811-11.1816 105.811-12.3535C105.811-12.9883 105.615-13.4766 105.078-14.0137L83.8867-35.2051L105.078-56.3965C105.615-56.9336 105.811-57.373 105.811-58.0566C105.811-59.1797 104.834-60.0586 103.613-60.0586C102.979-60.0586 102.49-59.8633 101.904-59.2773L80.8594-38.2324L59.8145-59.2773C59.1797-59.8633 58.7891-60.0586 58.0566-60.0586C56.8359-60.0586 55.9082-59.1797 55.9082-58.0566C55.9082-57.373 56.1035-56.8848 56.6406-56.3965L77.7832-35.2051L56.6406-14.0137C56.1035-13.4766 55.9082-12.9883 55.9082-12.3535C55.9082-11.1816 56.8359-10.3027 58.0566-10.3027Z"/>
  </g>
  <g id="Ultralight-L" transform="matrix(1 0 0 1 479.633 1556)">
   <path d="M18.3594-24.0234L68.8965 26.5137C76.2695 33.8867 84.2285 33.6914 91.4551 26.4648L141.748-23.9746C148.975-31.2012 149.316-39.1602 141.943-46.5332L91.5039-96.9727C84.0332-104.443 76.2695-104.248 68.8965-96.875L18.4082-46.5332C10.9863-39.1602 10.9863-31.3965 18.3594-24.0234ZM20.166-25.6348C13.8672-31.7871 13.9648-38.5742 20.166-44.7266L70.5078-95.1172C76.7578-101.367 83.3496-101.367 89.6484-95.1172L139.893-44.8242C145.996-38.7207 146.24-31.7871 139.99-25.6348L89.5996 24.6582C83.3496 30.9082 76.6113 30.7617 70.5078 24.6582ZM56.9824-10.6934C57.5684-10.6934 57.8125-10.791 58.3496-11.3281L80.0781-33.0566L101.807-11.3281C102.295-10.791 102.637-10.6934 103.125-10.6934C104.004-10.6934 104.639-11.2305 104.639-12.0605C104.639-12.5 104.541-12.8418 104.102-13.2812L82.1777-35.2051L104.102-57.0801C104.541-57.5195 104.639-57.8613 104.639-58.3496C104.639-59.1309 104.004-59.7168 103.125-59.7168C102.637-59.7168 102.295-59.5703 101.758-59.0332L80.0781-37.3535L58.3496-59.082C57.8125-59.5703 57.5684-59.7168 56.9824-59.7168C56.1035-59.7168 55.4688-59.1309 55.4688-58.3496C55.4688-57.8613 55.5664-57.5195 56.0059-57.0801L77.9297-35.2051L56.0059-13.2812C55.5664-12.8418 55.4688-12.5488 55.4688-12.0605C55.4688-11.2305 56.1035-10.6934 56.9824-10.6934Z"/>
  </g>
  <g id="Black-M" transform="matrix(1 0 0 1 2863.5 1126)">
   <path d="M16.4551-21.4355L56.0547 18.1641C64.7461 26.8555 75.0488 26.8555 83.7402 18.1641L123.291-21.4355C131.982-30.127 132.031-40.3809 123.34-49.0723L83.7402-88.6719C75.0488-97.3633 64.7461-97.3633 56.0547-88.6719L16.5039-49.1211C7.8125-40.4297 7.76367-30.127 16.4551-21.4355ZM31.4941-32.3242C29.4922-34.3262 29.2969-35.9863 31.4941-38.1836L66.9434-73.6328C69.1895-75.8789 70.8008-75.6836 72.8516-73.6328L108.301-38.1836C110.303-36.1816 110.498-34.5215 108.301-32.3242L72.8516 3.125C70.6055 5.37109 68.9941 5.17578 66.9434 3.125ZM56.8848-15.4785C59.0332-15.4785 60.6934-16.1133 62.0605-17.4805L69.9219-25.293L77.832-17.4805C79.1992-16.1133 80.8594-15.4785 82.959-15.4785C86.8652-15.4785 89.8438-18.4082 89.8438-22.3633C89.8438-24.0723 89.0625-25.7812 87.7441-27.0996L79.7852-35.1562L87.7441-43.1641C89.0625-44.4824 89.8438-46.1914 89.8438-47.9004C89.8438-51.8555 86.8652-54.7852 82.959-54.7852C80.8594-54.7852 79.1992-54.1504 77.832-52.7832L69.9219-44.9219L62.0605-52.7832C60.6934-54.1504 59.0332-54.7852 56.8848-54.7852C53.0273-54.7852 50.0488-51.8555 50.0488-47.9004C50.0488-46.1914 50.8301-44.4824 52.1484-43.1641L60.1562-35.1562L52.1484-27.0996C50.8301-25.7812 50.0488-24.0723 50.0488-22.3633C50.0488-18.4082 53.0273-15.4785 56.8848-15.4785Z"/>
  </g>
  <g id="Heavy-M" transform="matrix(1 0 0 1 2567.87 1126)">
   <path d="M16.2598-22.1191L55.7129 17.334C64.0625 25.6836 73.584 25.6836 81.9336 17.3828L121.436-22.168C129.785-30.4688 129.785-40.0391 121.436-48.3887L81.9336-87.8418C73.6328-96.1914 64.0625-96.1914 55.7129-87.8906L16.2109-48.3398C7.86133-40.0391 7.91016-30.4688 16.2598-22.1191ZM29.0527-31.7383C26.709-34.1309 26.5137-36.2305 29.0527-38.7695L65.2832-75C67.8711-77.5879 69.9707-77.3926 72.3633-75.0488L108.594-38.7695C110.986-36.4258 111.133-34.2773 108.594-31.7383L72.3633 4.49219C69.8242 7.03125 67.6758 6.88477 65.332 4.54102ZM54.9805-15.2832C56.8848-15.2832 58.3496-15.8203 59.5703-17.0898L68.8477-26.3184L78.1738-17.0898C79.3945-15.8691 80.8594-15.2832 82.7637-15.2832C86.2305-15.2832 88.916-17.9199 88.916-21.4844C88.916-23.0469 88.2324-24.5605 87.0605-25.7324L77.6855-35.1562L87.0605-44.5801C88.2812-45.8008 88.916-47.2656 88.916-48.8281C88.916-52.3926 86.2793-55.0293 82.7637-55.0293C80.9082-55.0293 79.4434-54.4434 78.1738-53.2227L68.8477-43.9453L59.5703-53.2227C58.3008-54.4434 56.8848-55.0293 54.9805-55.0293C51.4648-55.0293 48.8281-52.3438 48.8281-48.8281C48.8281-47.2656 49.5117-45.752 50.6836-44.5801L60.1074-35.1562L50.6836-25.7324C49.5117-24.5605 48.8281-22.998 48.8281-21.4844C48.8281-17.9199 51.4648-15.2832 54.9805-15.2832Z"/>
  </g>
  <g id="Bold-M" transform="matrix(1 0 0 1 2272.35 1126)">
   <path d="M15.9668-22.9492L55.3223 16.4062C63.2812 24.3652 72.0215 24.4141 79.9316 16.4551L119.385-22.998C127.295-30.9082 127.246-39.6484 119.287-47.6074L79.9805-86.9141C72.0215-94.873 63.2812-94.9219 55.3711-86.9629L15.918-47.5586C7.95898-39.5996 8.00781-30.9082 15.9668-22.9492ZM26.3184-31.1035C23.584-33.8379 23.4375-36.5234 26.3672-39.4531L63.4766-76.5625C66.3574-79.4434 69.043-79.3457 71.7773-76.5625L108.936-39.4043C111.719-36.6699 111.865-33.9844 108.936-31.0547L71.8262 6.05469C68.8965 8.93555 66.2109 8.83789 63.4766 6.10352ZM52.832-15.0391C54.4434-15.0391 55.7129-15.5762 56.7871-16.6504L67.627-27.4902L78.5645-16.6504C79.5898-15.5762 80.9082-15.0391 82.5195-15.0391C85.5469-15.0391 87.8906-17.3828 87.8906-20.459C87.8906-21.875 87.3047-23.1445 86.2793-24.2188L75.3418-35.1562L86.2793-46.1914C87.3535-47.2168 87.9395-48.5352 87.9395-49.9023C87.9395-52.9785 85.5957-55.2734 82.5195-55.2734C80.957-55.2734 79.7363-54.7852 78.6133-53.7109L67.627-42.7734L56.7383-53.6621C55.6641-54.7363 54.4434-55.2734 52.832-55.2734C49.7559-55.2734 47.4121-52.9297 47.4121-49.8535C47.4121-48.4863 47.998-47.168 49.0723-46.1426L60.0098-35.1562L49.0723-24.1699C47.998-23.1445 47.4121-21.8262 47.4121-20.459C47.4121-17.3828 49.7559-15.0391 52.832-15.0391Z"/>
  </g>
  <g id="Semibold-M" transform="matrix(1 0 0 1 1976.45 1126)">
   <path d="M15.8203-23.4863L55.0293 15.7715C62.7441 23.4375 70.8984 23.4863 78.5156 15.8691L117.92-23.5352C125.586-31.2012 125.537-39.3555 117.871-47.0215L78.6133-86.2793C70.8984-93.9941 62.793-94.043 55.127-86.377L15.7227-46.9727C8.05664-39.3066 8.10547-31.1523 15.8203-23.4863ZM24.4141-30.6641C21.4355-33.6914 21.2891-36.7188 24.4629-39.8926L62.1582-77.5879C65.332-80.7617 68.3594-80.6641 71.4355-77.6367L109.18-39.8438C112.207-36.8164 112.354-33.7891 109.18-30.6152L71.4355 7.08008C68.2617 10.2539 65.1855 10.1562 62.207 7.17773ZM51.3184-14.8926C52.7344-14.8926 53.9551-15.3809 54.8828-16.3086L66.7969-28.2715L78.8086-16.3086C79.7363-15.3809 80.9082-14.8926 82.373-14.8926C85.0586-14.8926 87.207-17.041 87.207-19.7754C87.207-21.0449 86.6699-22.2168 85.7422-23.1445L73.7305-35.1562L85.791-47.2656C86.7676-48.2422 87.2559-49.3652 87.2559-50.6348C87.2559-53.3691 85.1074-55.4688 82.373-55.4688C81.0059-55.4688 79.8828-55.0293 78.9062-54.0039L66.7969-42.041L54.7852-54.0039C53.8574-54.9805 52.7344-55.4199 51.3184-55.4199C48.584-55.4199 46.4844-53.3203 46.4844-50.5859C46.4844-49.3164 47.0215-48.1445 47.9492-47.2168L59.9609-35.1562L47.9492-23.1445C47.0215-22.2168 46.4844-21.0449 46.4844-19.7754C46.4844-17.041 48.584-14.8926 51.3184-14.8926Z"/>
  </g>
  <g id="Medium-M" transform="matrix(1 0 0 1 1680.37 1126)">
   <path d="M15.6738-23.9258L54.834 15.2832C62.3535 22.7539 70.0684 22.8027 77.4902 15.3809L116.846-23.9746C124.268-31.3965 124.219-39.1113 116.748-46.6309L77.5879-85.791C70.0684-93.3105 62.3535-93.3594 54.9316-85.8887L15.5273-46.5332C8.10547-39.1113 8.1543-31.3965 15.6738-23.9258ZM22.998-30.3223C19.7754-33.5449 19.6777-36.8652 23.0469-40.2344L61.2305-78.418C64.5996-81.7871 67.8711-81.6895 71.1426-78.418L109.375-40.1855C112.598-36.9629 112.695-33.6426 109.326-30.2734L71.1914 7.91016C67.8223 11.2305 64.4531 11.1328 61.2305 7.95898ZM50.1953-14.7461C51.4648-14.7461 52.5879-15.2344 53.418-16.1133L66.1621-28.9062L79.0039-16.1133C79.834-15.2344 80.9082-14.7461 82.2266-14.7461C84.7168-14.7461 86.6699-16.748 86.6699-19.2383C86.6699-20.459 86.1816-21.4844 85.3516-22.3633L72.5098-35.2051L85.3516-48.0957C86.2793-48.9746 86.7188-50 86.7188-51.1719C86.7188-53.6621 84.7656-55.6152 82.2754-55.6152C81.0547-55.6152 80.0293-55.2246 79.1016-54.2969L66.1621-41.4062L53.3203-54.248C52.4902-55.127 51.4648-55.5176 50.1953-55.5176C47.7051-55.5176 45.752-53.6133 45.752-51.123C45.752-49.9512 46.2402-48.877 47.0703-48.0469L59.9121-35.2051L47.0703-22.3145C46.2402-21.4844 45.752-20.4102 45.752-19.2383C45.752-16.748 47.7051-14.7461 50.1953-14.7461Z"/>
  </g>
  <g id="Regular-M" transform="matrix(1 0 0 1 1384.46 1126)">
   <path d="M15.4785-24.4629L54.5898 14.6484C61.8164 21.875 68.9453 21.9238 76.123 14.7949L115.43-24.5605C122.559-31.6895 122.51-38.8672 115.283-46.0938L76.2207-85.1562C68.9941-92.3828 61.8652-92.4805 54.6875-85.3027L15.332-45.9961C8.1543-38.8184 8.25195-31.6895 15.4785-24.4629ZM21.1426-29.8828C17.6758-33.3984 17.5781-37.0605 21.1914-40.6738L59.9609-79.4434C63.5742-83.0566 67.2363-83.0078 70.752-79.4922L109.619-40.625C113.086-37.1582 113.184-33.4473 109.57-29.834L70.8008 8.93555C67.1875 12.5488 63.4277 12.4512 60.0098 9.0332ZM48.7305-14.5996C49.8047-14.5996 50.7812-15.0391 51.5137-15.8203L65.3809-29.6875L79.248-15.8203C79.9805-15.0879 80.957-14.5996 82.0801-14.5996C84.2285-14.5996 85.9863-16.3574 85.9863-18.5547C85.9863-19.6777 85.5469-20.5566 84.8145-21.3379L70.9473-35.2051L84.8633-49.1699C85.6445-50 86.0352-50.8301 86.0352-51.9043C86.0352-54.0527 84.2773-55.8105 82.1289-55.8105C81.1035-55.8105 80.2246-55.4199 79.3945-54.5898L65.3809-40.6738L51.416-54.541C50.6836-55.3223 49.8047-55.7129 48.7305-55.7129C46.5332-55.7129 44.8242-54.0039 44.8242-51.8555C44.8242-50.7812 45.2148-49.8535 45.9961-49.1211L59.8633-35.2051L45.9961-21.2891C45.2148-20.5566 44.8242-19.6289 44.8242-18.5547C44.8242-16.3574 46.5332-14.5996 48.7305-14.5996Z"/>
  </g>
  <g id="Light-M" transform="matrix(1 0 0 1 1088.78 1126)">
   <path d="M15.0879-25.0977L54.1992 14.0137C60.9863 20.8008 67.8223 20.8008 74.4629 14.1113L113.672-25.1465C120.361-31.8359 120.41-38.6719 113.672-45.4102L74.5605-84.5215C67.7734-91.3086 60.9863-91.3086 54.2969-84.5703L14.9902-45.3613C8.30078-38.623 8.34961-31.8359 15.0879-25.0977ZM19.4336-29.248C15.5273-33.1055 15.4785-37.3047 19.4336-41.2598L58.3008-80.127C62.3047-84.1309 66.4062-84.082 70.3613-80.1758L109.229-41.2598C113.135-37.4023 113.232-33.1543 109.229-29.1992L70.3613 9.61914C66.4062 13.623 62.1582 13.5254 58.3496 9.7168ZM47.3145-15.0879C48.1934-15.0879 48.9258-15.4297 49.5605-16.0645L64.3555-30.8594L79.1504-16.0645C79.7852-15.4297 80.5176-15.0879 81.3965-15.0879C83.1055-15.0879 84.4727-16.4551 84.4727-18.1641C84.4727-19.043 84.1309-19.7266 83.5449-20.3613L68.7012-35.2051L83.5449-50.0977C84.2285-50.7812 84.5215-51.416 84.5215-52.2949C84.5215-53.9551 83.1543-55.3223 81.4453-55.3223C80.6152-55.3223 79.9316-55.0293 79.248-54.2969L64.3555-39.502L49.5117-54.2969C48.877-54.9316 48.1934-55.2246 47.3145-55.2246C45.6055-55.2246 44.2383-53.9551 44.2383-52.2461C44.2383-51.416 44.5801-50.6836 45.2148-50.0488L60.0098-35.2051L45.2148-20.3125C44.5801-19.7266 44.2383-18.9941 44.2383-18.1641C44.2383-16.4551 45.6055-15.0879 47.3145-15.0879Z"/>
  </g>
  <g id="Thin-M" transform="matrix(1 0 0 1 793.434 1126)">
   <path d="M14.5996-25.9277L53.7109 13.1836C59.8633 19.3359 66.3086 19.2383 72.3145 13.2324L111.426-25.9766C117.432-31.9824 117.627-38.4277 111.475-44.5801L72.4121-83.6426C66.2109-89.8438 59.8633-89.7461 53.7598-83.6426L14.5508-44.5312C8.44727-38.4277 8.44727-32.0801 14.5996-25.9277ZM17.1875-28.3691C12.6953-32.8125 12.7441-37.5977 17.1875-42.041L56.1523-81.0059C60.6445-85.498 65.332-85.498 69.8242-81.0547L108.74-42.0898C113.135-37.7441 113.281-32.8125 108.789-28.3691L69.8242 10.5469C65.332 15.0391 60.498 14.9414 56.1523 10.5957ZM45.459-15.7715C46.0938-15.7715 46.4844-15.918 46.9727-16.4551L62.9883-32.4707L79.0039-16.4551C79.4922-15.9668 79.9316-15.7715 80.5176-15.7715C81.5918-15.7715 82.4707-16.5527 82.4707-17.627C82.4707-18.2129 82.2754-18.6523 81.8359-19.0918L65.7227-35.2051L81.8359-51.3184C82.3242-51.8066 82.4707-52.1973 82.4707-52.7832C82.4707-53.8086 81.6406-54.6387 80.5176-54.6387C79.9805-54.6387 79.541-54.4434 79.0039-53.9551L62.9883-37.9395L46.9727-53.9551C46.4844-54.4434 46.0938-54.6387 45.459-54.6387C44.3359-54.6387 43.5059-53.8086 43.5059-52.7832C43.5059-52.1973 43.7012-51.7578 44.1406-51.3184L60.2539-35.2051L44.1406-19.0918C43.7012-18.6523 43.5059-18.2129 43.5059-17.627C43.5059-16.5527 44.3359-15.7715 45.459-15.7715Z"/>
  </g>
  <g id="Ultralight-M" transform="matrix(1 0 0 1 497.406 1126)">
   <path d="M14.3555-26.3672L53.4668 12.7441C59.3262 18.6035 65.5273 18.457 71.2402 12.7441L110.254-26.3672C115.967-32.0801 116.211-38.2812 110.352-44.1406L71.2891-83.2031C65.3809-89.1113 59.3262-88.9648 53.4668-83.1543L14.3555-44.1406C8.49609-38.2812 8.49609-32.2266 14.3555-26.3672ZM16.0156-27.9297C11.2305-32.6172 11.3281-37.7441 16.0156-42.4805L55.0293-81.4941C59.7656-86.2305 64.7949-86.2305 69.5801-81.4941L108.496-42.5293C113.135-37.8906 113.33-32.6172 108.594-27.9297L69.5312 11.0352C64.7949 15.7715 59.668 15.6738 55.0293 11.0352ZM44.4824-16.1133C44.9707-16.1133 45.2148-16.2109 45.6543-16.6504L62.3047-33.252L78.9062-16.6504C79.3457-16.2109 79.6387-16.1133 80.0781-16.1133C80.8594-16.1133 81.4453-16.6504 81.4453-17.334C81.4453-17.7734 81.3477-18.0664 80.957-18.457L64.209-35.2051L80.957-51.9531C81.3477-52.2949 81.4453-52.6367 81.4453-53.0273C81.4453-53.7598 80.8594-54.2969 80.0781-54.2969C79.6387-54.2969 79.3457-54.1992 78.9062-53.7598L62.3047-37.1094L45.6543-53.7598C45.2148-54.1992 44.9707-54.2969 44.4824-54.2969C43.7012-54.2969 43.1152-53.7598 43.1152-53.0273C43.1152-52.6367 43.2129-52.3438 43.6035-51.9531L60.3516-35.2051L43.6035-18.457C43.2129-18.0664 43.1152-17.7734 43.1152-17.334C43.1152-16.6504 43.7012-16.1133 44.4824-16.1133Z"/>
  </g>
  <g id="Black-S" transform="matrix(1 0 0 1 2878.69 696)">
   <path d="M12.8906-24.4629L43.8965 6.54297C50.6836 13.3301 58.6914 13.3301 65.4785 6.54297L96.4844-24.4629C103.271-31.25 103.271-39.2578 96.4844-46.0449L65.4785-77.0508C58.6914-83.8379 50.6836-83.8379 43.8965-77.0508L12.8906-46.0449C6.10352-39.2578 6.10352-31.25 12.8906-24.4629ZM24.5117-32.9102C22.9004-34.5215 22.7539-35.8398 24.5117-37.5977L52.3438-65.4297C54.1016-67.1875 55.4199-67.041 57.0312-65.4297L84.8633-37.5977C86.4746-35.9863 86.6211-34.668 84.8633-32.9102L57.0312-5.07812C55.2734-3.32031 53.9551-3.4668 52.3438-5.07812ZM44.4336-19.7266C46.0938-19.7266 47.3633-20.2148 48.4375-21.2891L54.6875-27.4902L60.9863-21.2891C62.0605-20.2148 63.3301-19.7266 64.9902-19.7266C68.0176-19.7266 70.3125-22.0215 70.3125-25.0977C70.3125-26.416 69.7266-27.7344 68.7012-28.7598L62.3535-35.1562L68.7012-41.5527C69.7266-42.5781 70.3125-43.8965 70.3125-45.2148C70.3125-48.291 68.0176-50.5859 64.9902-50.5859C63.3301-50.5859 62.0605-50.0977 60.9863-49.0234L54.6875-42.7734L48.4375-49.0234C47.3633-50.0977 46.0938-50.5859 44.4336-50.5859C41.4062-50.5859 39.1113-48.291 39.1113-45.2148C39.1113-43.8965 39.6973-42.5781 40.7227-41.5527L47.1191-35.1562L40.7227-28.7598C39.6973-27.7344 39.1113-26.416 39.1113-25.0977C39.1113-22.0215 41.4062-19.7266 44.4336-19.7266Z"/>
  </g>
  <g id="Heavy-S" transform="matrix(1 0 0 1 2582.71 696)">
   <path d="M12.7441-24.9512L43.6523 5.95703C50.2441 12.5488 57.7148 12.5488 64.3066 6.00586L95.2637-24.9512C101.807-31.543 101.807-39.0137 95.2148-45.5566L64.3066-76.4648C57.7148-83.0566 50.2441-83.0566 43.7012-76.5137L12.7441-45.5566C6.15234-38.9648 6.20117-31.4941 12.7441-24.9512ZM22.8516-32.5195C20.9961-34.375 20.8496-35.9863 22.8516-37.9883L51.2695-66.4062C53.2227-68.3594 54.8828-68.2617 56.6895-66.4062L85.1562-37.9883C86.9629-36.1328 87.1094-34.4727 85.1562-32.5195L56.6895-4.10156C54.7363-2.14844 53.0762-2.24609 51.2695-4.10156ZM43.1152-19.5312C44.6289-19.5312 45.8008-19.9707 46.7285-20.9473L54.0039-28.1738L61.2793-20.9473C62.207-19.9707 63.3789-19.5312 64.8926-19.5312C67.6758-19.5312 69.7754-21.6309 69.7754-24.4629C69.7754-25.6836 69.2383-26.9043 68.3105-27.832L60.9863-35.1562L68.3105-42.5293C69.2871-43.5059 69.7754-44.6777 69.7754-45.8984C69.7754-48.6816 67.6758-50.8301 64.8926-50.8301C63.4277-50.8301 62.2559-50.3906 61.2793-49.3652L54.0039-42.1387L46.7285-49.3652C45.752-50.3418 44.6289-50.7812 43.1152-50.7812C40.332-50.7812 38.2324-48.6816 38.2324-45.8984C38.2324-44.6777 38.7695-43.457 39.6973-42.5293L47.0215-35.1562L39.6973-27.832C38.7695-26.9043 38.2324-25.6836 38.2324-24.4629C38.2324-21.6309 40.332-19.5312 43.1152-19.5312Z"/>
  </g>
  <g id="Bold-S" transform="matrix(1 0 0 1 2286.78 696)">
   <path d="M12.5977-25.4883L43.4082 5.32227C49.7559 11.6699 56.6406 11.7188 62.9395 5.41992L93.8477-25.4883C100.146-31.8359 100.146-38.7207 93.7988-45.0195L62.9883-75.8301C56.6406-82.1777 49.7559-82.2266 43.457-75.9277L12.5-45.0195C6.20117-38.6719 6.25-31.7871 12.5977-25.4883ZM20.9473-32.1289C18.8965-34.2285 18.75-36.1816 20.9473-38.3789L50.0488-67.4805C52.2461-69.6777 54.248-69.5801 56.2988-67.5293L85.4492-38.3789C87.5-36.2793 87.6465-34.3262 85.4004-32.1289L56.3477-3.02734C54.1504-0.830078 52.0996-0.927734 50.0488-2.97852ZM41.6504-19.2871C42.9199-19.2871 44.043-19.7266 44.873-20.5566L53.1738-28.9062L61.5723-20.5566C62.4023-19.7266 63.4766-19.2871 64.7949-19.2871C67.2852-19.2871 69.1895-21.2402 69.1895-23.7305C69.1895-24.9023 68.7012-25.9277 67.8711-26.7578L59.4727-35.2051L67.8711-43.6035C68.75-44.4824 69.2383-45.5078 69.2383-46.6797C69.2383-49.1699 67.2852-51.0742 64.7949-51.0742C63.5254-51.0742 62.5488-50.6836 61.6211-49.8047L53.1738-41.4062L44.8242-49.7559C43.9941-50.6348 42.9199-51.0254 41.6504-51.0254C39.1602-51.0254 37.2559-49.1211 37.2559-46.6309C37.2559-45.5078 37.6953-44.4336 38.5742-43.6035L46.9727-35.2051L38.5742-26.7578C37.6953-25.9277 37.2559-24.8535 37.2559-23.7305C37.2559-21.2402 39.1602-19.2871 41.6504-19.2871Z"/>
  </g>
  <g id="Semibold-S" transform="matrix(1 0 0 1 1990.63 696)">
   <path d="M12.5-25.8301L43.2129 4.93164C49.4141 11.084 55.8594 11.1328 62.0117 5.0293L92.9199-25.8789C99.0234-32.0312 98.9746-38.5254 92.8223-44.6777L62.0605-75.4395C55.9082-81.5918 49.4141-81.6406 43.2617-75.4883L12.4023-44.6289C6.25-38.4766 6.29883-31.9824 12.5-25.8301ZM19.6289-31.8359C17.3828-34.082 17.2852-36.3281 19.6777-38.6719L49.2188-68.2129C51.5625-70.6055 53.8086-70.5078 56.0547-68.2617L85.6445-38.6719C87.8906-36.4258 87.9883-34.1797 85.6445-31.7871L56.1035-2.29492C53.7109 0.0976562 51.4648 0 49.2188-2.19727ZM40.625-19.0918C41.7969-19.0918 42.8223-19.5312 43.5547-20.3125L52.6367-29.3945L61.7676-20.3125C62.5488-19.5801 63.5254-19.0918 64.6973-19.0918C66.9922-19.0918 68.7988-20.9473 68.7988-23.2422C68.7988-24.3164 68.3594-25.293 67.5781-26.0742L58.4473-35.2051L67.5781-44.3848C68.4082-45.2148 68.7988-46.1426 68.7988-47.168C68.7988-49.4629 67.041-51.2695 64.7461-51.2695C63.623-51.2695 62.6953-50.8789 61.8652-50.0488L52.6367-40.918L43.5059-50.0488C42.7246-50.8301 41.7969-51.2207 40.625-51.2207C38.3301-51.2207 36.5723-49.4629 36.5723-47.168C36.5723-46.0938 37.0117-45.1172 37.793-44.3359L46.9238-35.2051L37.793-26.0254C37.0117-25.293 36.5723-24.2676 36.5723-23.2422C36.5723-20.9473 38.3301-19.0918 40.625-19.0918Z"/>
  </g>
  <g id="Medium-S" transform="matrix(1 0 0 1 1694.33 696)">
   <path d="M12.4023-26.123L43.0664 4.58984C49.1211 10.6445 55.2734 10.6934 61.2793 4.6875L92.1875-26.1719C98.1934-32.1777 98.0957-38.3301 92.041-44.3848L61.377-75.0977C55.3223-81.1523 49.1699-81.2012 43.1641-75.1953L12.2559-44.3359C6.25-38.3301 6.34766-32.1777 12.4023-26.123ZM18.6523-31.6406C16.3086-34.0332 16.2109-36.4258 18.6523-38.916L48.584-68.7988C51.0254-71.2891 53.4668-71.2402 55.8594-68.8477L85.791-38.8672C88.1836-36.4746 88.2812-34.082 85.791-31.5918L55.9082-1.70898C53.418 0.78125 50.9277 0.732422 48.584-1.61133ZM39.8438-18.9941C40.918-18.9941 41.8945-19.3848 42.5781-20.1172L52.2461-29.7852L61.9141-20.1172C62.6465-19.4336 63.5742-18.9941 64.6484-18.9941C66.7969-18.9941 68.457-20.7031 68.457-22.8516C68.457-23.877 68.0664-24.8047 67.334-25.5371L57.666-35.2051L67.3828-44.9707C68.1641-45.7031 68.5059-46.582 68.5059-47.6074C68.5059-49.707 66.8457-51.416 64.6973-51.416C63.6719-51.416 62.8418-51.0254 62.0605-50.293L52.2461-40.5273L42.5293-50.2441C41.7969-50.9766 40.918-51.3184 39.8438-51.3184C37.7441-51.3184 36.0352-49.6582 36.0352-47.5586C36.0352-46.5332 36.4258-45.6055 37.1582-44.9219L46.875-35.2051L37.1582-25.4883C36.4258-24.8047 36.0352-23.877 36.0352-22.8516C36.0352-20.7031 37.7441-18.9941 39.8438-18.9941Z"/>
  </g>
  <g id="Regular-S" transform="matrix(1 0 0 1 1398.16 696)">
   <path d="M12.2559-26.4648L42.9199 4.15039C48.7793 10.0586 54.541 10.1074 60.4004 4.29688L91.2109-26.5625C97.0703-32.373 96.9727-38.1348 91.0645-44.043L60.4492-74.6582C54.5898-80.5664 48.8281-80.6152 42.9688-74.8047L12.1582-43.9453C6.29883-38.0859 6.39648-32.373 12.2559-26.4648ZM17.334-31.3477C14.8438-33.8867 14.7461-36.5723 17.3828-39.209L47.7051-69.5312C50.3906-72.168 53.0273-72.1191 55.5664-69.5801L86.0352-39.1602C88.5742-36.6211 88.623-33.9355 85.9863-31.2988L55.6152-0.976562C52.9785 1.66016 50.293 1.61133 47.7539-0.878906ZM38.8672-18.8477C39.7949-18.8477 40.6738-19.1895 41.3086-19.873L51.709-30.3223L62.1582-19.873C62.7441-19.2383 63.623-18.8477 64.5996-18.8477C66.5039-18.8477 68.0664-20.4102 68.0664-22.3633C68.0664-23.3398 67.7246-24.1211 67.041-24.8047L56.6406-35.2051L67.0898-45.7031C67.7734-46.3867 68.1152-47.168 68.1152-48.0957C68.1152-50.0488 66.5527-51.5625 64.6484-51.5625C63.7207-51.5625 62.9883-51.2695 62.2559-50.5371L51.709-40.0391L41.2109-50.4883C40.5762-51.1719 39.7949-51.5137 38.8672-51.5137C36.9141-51.5137 35.3516-50 35.3516-48.0469C35.3516-47.1191 35.7422-46.2891 36.377-45.6543L46.8262-35.2051L36.377-24.7559C35.7422-24.1211 35.3516-23.291 35.3516-22.3633C35.3516-20.4102 36.9141-18.8477 38.8672-18.8477Z"/>
  </g>
  <g id="Light-S" transform="matrix(1 0 0 1 1102.35 696)">
   <path d="M11.9629-27.0508L42.5781 3.61328C48.0469 9.08203 53.5645 9.08203 58.9355 3.71094L89.6973-27.0996C95.1172-32.5195 95.1172-37.9883 89.6484-43.457L59.0332-74.0723C53.5645-79.5898 48.0957-79.5898 42.627-74.1699L11.8652-43.4082C6.39648-37.9395 6.49414-32.5195 11.9629-27.0508ZM15.8691-30.7617C12.9395-33.6914 12.8906-36.7676 15.8691-39.7461L46.2891-70.1172C49.2676-73.1445 52.3438-73.0957 55.2246-70.166L85.6934-39.6973C88.5742-36.8164 88.6719-33.6914 85.6934-30.7617L55.2734-0.341797C52.2949 2.63672 49.1699 2.58789 46.3379-0.292969ZM37.5977-19.2871C38.3789-19.2871 39.0137-19.5312 39.5508-20.1172L50.7812-31.3477L62.0605-20.1172C62.5488-19.5801 63.2324-19.2871 64.0137-19.2871C65.5273-19.2871 66.748-20.5078 66.748-22.0215C66.748-22.8027 66.4551-23.3887 65.918-23.9746L54.6387-35.2051L65.918-46.5332C66.5039-47.1191 66.7969-47.7051 66.7969-48.4375C66.7969-49.9512 65.5762-51.123 64.0625-51.123C63.3301-51.123 62.7441-50.8789 62.1094-50.293L50.7812-39.0137L39.502-50.2441C38.9648-50.8301 38.3789-51.0742 37.5977-51.0742C36.084-51.0742 34.8633-49.9023 34.8633-48.3887C34.8633-47.6562 35.1562-47.0215 35.6934-46.4844L46.9727-35.2051L35.6934-23.9258C35.1562-23.3887 34.8633-22.7539 34.8633-22.0215C34.8633-20.5078 36.084-19.2871 37.5977-19.2871Z"/>
  </g>
  <g id="Thin-S" transform="matrix(1 0 0 1 806.813 696)">
   <path d="M11.5234-27.7832L42.1875 2.88086C47.1191 7.8125 52.2461 7.76367 57.0801 2.88086L87.6953-27.832C92.5781-32.666 92.6758-37.793 87.7441-42.7246L57.1289-73.3398C52.1484-78.3203 47.1191-78.2715 42.1875-73.3398L11.4746-42.6758C6.5918-37.793 6.5918-32.7148 11.5234-27.7832ZM13.8672-30.0293C10.498-33.3984 10.498-37.0117 13.8672-40.4297L44.3848-70.9473C47.8027-74.3652 51.416-74.3652 54.7852-70.9473L85.3027-40.4297C88.623-37.1094 88.7695-33.3984 85.3027-30.0293L54.834 0.439453C51.3672 3.90625 47.7051 3.80859 44.3848 0.488281ZM35.9375-19.8242C36.4746-19.8242 36.8652-20.0195 37.3047-20.459L49.6094-32.7637L61.9141-20.459C62.3047-20.0195 62.7441-19.8242 63.2324-19.8242C64.209-19.8242 64.9902-20.6055 64.9902-21.5332C64.9902-22.0703 64.7949-22.4609 64.4043-22.8516L52.0508-35.2051L64.4531-47.6074C64.8438-47.998 64.9902-48.3887 64.9902-48.877C64.9902-49.8535 64.209-50.5859 63.2324-50.5859C62.7441-50.5859 62.4023-50.3906 61.9629-49.9512L49.6094-37.6465L37.2559-49.9512C36.8652-50.3906 36.4746-50.5371 35.9375-50.5371C34.9609-50.5371 34.2285-49.8047 34.2285-48.877C34.2285-48.3887 34.375-47.9492 34.7656-47.6074L47.1191-35.2051L34.7656-22.8027C34.375-22.4609 34.2285-22.0215 34.2285-21.5332C34.2285-20.6055 34.9609-19.8242 35.9375-19.8242Z"/>
  </g>
  <g id="Ultralight-S" transform="matrix(1 0 0 1 510.712 696)">
   <path d="M11.3281-28.1738L41.9434 2.49023C46.6309 7.12891 51.5625 7.03125 56.1035 2.49023L86.6699-28.1738C91.2598-32.7637 91.4062-37.6953 86.7676-42.334L56.1523-72.9492C51.4648-77.6367 46.6309-77.5391 41.9922-72.9004L11.2793-42.334C6.64062-37.6465 6.64062-32.8125 11.3281-28.1738ZM12.8418-29.6387C9.17969-33.252 9.22852-37.1582 12.8418-40.7715L43.4082-71.3379C47.0703-75 50.9277-75 54.5898-71.3379L85.0586-40.8203C88.623-37.2559 88.7695-33.252 85.1074-29.6387L54.5898 0.878906C50.9277 4.54102 46.9727 4.44336 43.4082 0.878906ZM35.1074-20.166C35.5469-20.166 35.7422-20.2637 36.1328-20.6055L48.9746-33.4961L61.8164-20.6055C62.207-20.2637 62.4512-20.166 62.8418-20.166C63.5254-20.166 64.0625-20.6543 64.0625-21.2891C64.0625-21.6797 63.9648-21.9238 63.6719-22.2656L50.6836-35.2051L63.6719-48.1445C63.9648-48.4863 64.0625-48.7305 64.0625-49.1211C64.0625-49.7559 63.5254-50.2441 62.8418-50.2441C62.4512-50.2441 62.207-50.1465 61.8164-49.8047L48.9746-36.9141L36.084-49.8047C35.7422-50.1465 35.5469-50.2441 35.1074-50.2441C34.4238-50.2441 33.8867-49.7559 33.8867-49.1211C33.8867-48.7305 33.9844-48.4863 34.2773-48.1445L47.2656-35.2051L34.2773-22.2656C33.9844-21.9238 33.8867-21.6797 33.8867-21.2891C33.8867-20.6543 34.4238-20.166 35.1074-20.166Z"/>
  </g>
 </g>
</svg>
