<?xml version="1.0" encoding="UTF-8"?>
<!--Generator: Apple Native CoreSVG 149-->
<!DOCTYPE svg
PUBLIC "-//W3C//DTD SVG 1.1//EN"
       "http://www.w3.org/Graphics/SVG/1.1/DTD/svg11.dtd">
<svg version="1.1" xmlns="http://www.w3.org/2000/svg" xmlns:xlink="http://www.w3.org/1999/xlink" width="3300" height="2200">
 <!--glyph: "uni100883.medium", point size: 100.0, font version: "17.0d8e1", template writer version: "58"-->
 <style>.hierarchical-0:secondary {fill:#4D4D4D}
.hierarchical-1:primary {fill:#212121}

.SFSymbolsPreview212121 {fill:#212121;opacity:1.0}
.SFSymbolsPreview4D4D4D {fill:#4D4D4D;opacity:1.0}
</style>
 <g id="Notes">
  <rect height="2200" id="artboard" style="fill:white;opacity:1" width="3300" x="0" y="0"/>
  <line style="fill:none;stroke:black;opacity:1;stroke-width:0.5;" x1="263" x2="3036" y1="292" y2="292"/>
  <text style="stroke:none;fill:black;font-family:SF Pro,SF Pro Display,SF Pro Text,sans-serif;font-size:13;font-weight:bold;" transform="matrix(1 0 0 1 263 322)">Weight/Scale Variations</text>
  <text style="stroke:none;fill:black;font-family:SF Pro,SF Pro Display,SF Pro Text,sans-serif;font-size:13;text-anchor:middle;" transform="matrix(1 0 0 1 559.711 322)">Ultralight</text>
  <text style="stroke:none;fill:black;font-family:SF Pro,SF Pro Display,SF Pro Text,sans-serif;font-size:13;text-anchor:middle;" transform="matrix(1 0 0 1 856.422 322)">Thin</text>
  <text style="stroke:none;fill:black;font-family:SF Pro,SF Pro Display,SF Pro Text,sans-serif;font-size:13;text-anchor:middle;" transform="matrix(1 0 0 1 1153.13 322)">Light</text>
  <text style="stroke:none;fill:black;font-family:SF Pro,SF Pro Display,SF Pro Text,sans-serif;font-size:13;text-anchor:middle;" transform="matrix(1 0 0 1 1449.84 322)">Regular</text>
  <text style="stroke:none;fill:black;font-family:SF Pro,SF Pro Display,SF Pro Text,sans-serif;font-size:13;text-anchor:middle;" transform="matrix(1 0 0 1 1746.56 322)">Medium</text>
  <text style="stroke:none;fill:black;font-family:SF Pro,SF Pro Display,SF Pro Text,sans-serif;font-size:13;text-anchor:middle;" transform="matrix(1 0 0 1 2043.27 322)">Semibold</text>
  <text style="stroke:none;fill:black;font-family:SF Pro,SF Pro Display,SF Pro Text,sans-serif;font-size:13;text-anchor:middle;" transform="matrix(1 0 0 1 2339.98 322)">Bold</text>
  <text style="stroke:none;fill:black;font-family:SF Pro,SF Pro Display,SF Pro Text,sans-serif;font-size:13;text-anchor:middle;" transform="matrix(1 0 0 1 2636.69 322)">Heavy</text>
  <text style="stroke:none;fill:black;font-family:SF Pro,SF Pro Display,SF Pro Text,sans-serif;font-size:13;text-anchor:middle;" transform="matrix(1 0 0 1 2933.4 322)">Black</text>
  <line style="fill:none;stroke:black;opacity:1;stroke-width:0.5;" x1="263" x2="3036" y1="1903" y2="1903"/>
  <g transform="matrix(1 0 0 1 263 1933)">
   <path d="M9.24805 0.830078Q10.8691 0.830078 12.2949 0.214844Q13.7207-0.400391 14.8096-1.49414Q15.8984-2.58789 16.5186-4.01367Q17.1387-5.43945 17.1387-7.05078Q17.1387-8.66211 16.5186-10.0879Q15.8984-11.5137 14.8047-12.6074Q13.7109-13.7012 12.2852-14.3164Q10.8594-14.9316 9.23828-14.9316Q7.62695-14.9316 6.20117-14.3164Q4.77539-13.7012 3.69141-12.6074Q2.60742-11.5137 1.9873-10.0879Q1.36719-8.66211 1.36719-7.05078Q1.36719-5.43945 1.9873-4.01367Q2.60742-2.58789 3.69629-1.49414Q4.78516-0.400391 6.21094 0.214844Q7.63672 0.830078 9.24805 0.830078ZM9.24805-0.654297Q7.91992-0.654297 6.7627-1.14746Q5.60547-1.64062 4.73145-2.51953Q3.85742-3.39844 3.36426-4.56055Q2.87109-5.72266 2.87109-7.05078Q2.87109-8.37891 3.35938-9.54102Q3.84766-10.7031 4.72168-11.582Q5.5957-12.4609 6.75293-12.9541Q7.91016-13.4473 9.23828-13.4473Q10.5762-13.4473 11.7334-12.9541Q12.8906-12.4609 13.7695-11.582Q14.6484-10.7031 15.1465-9.54102Q15.6445-8.37891 15.6445-7.05078Q15.6445-5.72266 15.1514-4.56055Q14.6582-3.39844 13.7842-2.51953Q12.9102-1.64062 11.748-1.14746Q10.5859-0.654297 9.24805-0.654297ZM5.83984-7.04102Q5.83984-6.71875 6.04492-6.51855Q6.25-6.31836 6.5918-6.31836L8.50586-6.31836L8.50586-4.39453Q8.50586-4.0625 8.70605-3.85742Q8.90625-3.65234 9.22852-3.65234Q9.56055-3.65234 9.76562-3.85742Q9.9707-4.0625 9.9707-4.39453L9.9707-6.31836L11.8945-6.31836Q12.2266-6.31836 12.4316-6.51855Q12.6367-6.71875 12.6367-7.04102Q12.6367-7.37305 12.4316-7.57812Q12.2266-7.7832 11.8945-7.7832L9.9707-7.7832L9.9707-9.69727Q9.9707-10.0391 9.76562-10.2441Q9.56055-10.4492 9.22852-10.4492Q8.90625-10.4492 8.70605-10.2441Q8.50586-10.0391 8.50586-9.69727L8.50586-7.7832L6.5918-7.7832Q6.25-7.7832 6.04492-7.57812Q5.83984-7.37305 5.83984-7.04102Z"/>
  </g>
  <g transform="matrix(1 0 0 1 281.867 1933)">
   <path d="M11.709 2.91016Q13.75 2.91016 15.5518 2.12891Q17.3535 1.34766 18.7305-0.0292969Q20.1074-1.40625 20.8887-3.20801Q21.6699-5.00977 21.6699-7.05078Q21.6699-9.0918 20.8887-10.8936Q20.1074-12.6953 18.7305-14.0723Q17.3535-15.4492 15.5469-16.2305Q13.7402-17.0117 11.6992-17.0117Q9.6582-17.0117 7.85645-16.2305Q6.05469-15.4492 4.68262-14.0723Q3.31055-12.6953 2.5293-10.8936Q1.74805-9.0918 1.74805-7.05078Q1.74805-5.00977 2.5293-3.20801Q3.31055-1.40625 4.6875-0.0292969Q6.06445 1.34766 7.86621 2.12891Q9.66797 2.91016 11.709 2.91016ZM11.709 1.25Q9.98047 1.25 8.47656 0.605469Q6.97266-0.0390625 5.83496-1.17676Q4.69727-2.31445 4.05762-3.81836Q3.41797-5.32227 3.41797-7.05078Q3.41797-8.7793 4.05762-10.2832Q4.69727-11.7871 5.83008-12.9297Q6.96289-14.0723 8.4668-14.7119Q9.9707-15.3516 11.6992-15.3516Q13.4277-15.3516 14.9316-14.7119Q16.4355-14.0723 17.5781-12.9297Q18.7207-11.7871 19.3652-10.2832Q20.0098-8.7793 20.0098-7.05078Q20.0098-5.32227 19.3701-3.81836Q18.7305-2.31445 17.5928-1.17676Q16.4551-0.0390625 14.9463 0.605469Q13.4375 1.25 11.709 1.25ZM7.39258-7.04102Q7.39258-6.68945 7.62695-6.46484Q7.86133-6.24023 8.23242-6.24023L10.8789-6.24023L10.8789-3.57422Q10.8789-3.21289 11.1035-2.9834Q11.3281-2.75391 11.6797-2.75391Q12.0508-2.75391 12.2852-2.9834Q12.5195-3.21289 12.5195-3.57422L12.5195-6.24023L15.1758-6.24023Q15.5371-6.24023 15.7715-6.46484Q16.0059-6.68945 16.0059-7.04102Q16.0059-7.41211 15.7715-7.6416Q15.5371-7.87109 15.1758-7.87109L12.5195-7.87109L12.5195-10.5176Q12.5195-10.8984 12.2852-11.1279Q12.0508-11.3574 11.6797-11.3574Q11.3281-11.3574 11.1035-11.1279Q10.8789-10.8984 10.8789-10.5176L10.8789-7.87109L8.23242-7.87109Q7.85156-7.87109 7.62207-7.6416Q7.39258-7.41211 7.39258-7.04102Z"/>
  </g>
  <g transform="matrix(1 0 0 1 305.646 1933)">
   <path d="M14.9707 5.66406Q17.0605 5.66406 18.96 5.01465Q20.8594 4.36523 22.4512 3.19336Q24.043 2.02148 25.2197 0.429688Q26.3965-1.16211 27.0459-3.06641Q27.6953-4.9707 27.6953-7.05078Q27.6953-9.14062 27.0459-11.04Q26.3965-12.9395 25.2197-14.5312Q24.043-16.123 22.4512-17.2998Q20.8594-18.4766 18.9551-19.126Q17.0508-19.7754 14.9609-19.7754Q12.8711-19.7754 10.9717-19.126Q9.07227-18.4766 7.48535-17.2998Q5.89844-16.123 4.72168-14.5312Q3.54492-12.9395 2.90039-11.04Q2.25586-9.14062 2.25586-7.05078Q2.25586-4.9707 2.90527-3.06641Q3.55469-1.16211 4.72656 0.429688Q5.89844 2.02148 7.49023 3.19336Q9.08203 4.36523 10.9814 5.01465Q12.8809 5.66406 14.9707 5.66406ZM14.9707 3.84766Q13.1641 3.84766 11.5283 3.2959Q9.89258 2.74414 8.53516 1.74805Q7.17773 0.751953 6.17676-0.610352Q5.17578-1.97266 4.62891-3.6084Q4.08203-5.24414 4.08203-7.05078Q4.08203-8.86719 4.62891-10.5029Q5.17578-12.1387 6.17188-13.501Q7.16797-14.8633 8.52539-15.8594Q9.88281-16.8555 11.5186-17.4023Q13.1543-17.9492 14.9609-17.9492Q16.7773-17.9492 18.4131-17.4023Q20.0488-16.8555 21.4111-15.8594Q22.7734-14.8633 23.7695-13.501Q24.7656-12.1387 25.3174-10.5029Q25.8691-8.86719 25.8691-7.05078Q25.8789-5.24414 25.332-3.6084Q24.7852-1.97266 23.7842-0.610352Q22.7832 0.751953 21.4209 1.74805Q20.0586 2.74414 18.4229 3.2959Q16.7871 3.84766 14.9707 3.84766ZM9.45312-7.04102Q9.45312-6.66016 9.71191-6.41113Q9.9707-6.16211 10.3711-6.16211L14.0625-6.16211L14.0625-2.46094Q14.0625-2.06055 14.3115-1.80664Q14.5605-1.55273 14.9414-1.55273Q15.3516-1.55273 15.6055-1.80664Q15.8594-2.06055 15.8594-2.46094L15.8594-6.16211L19.5605-6.16211Q19.9609-6.16211 20.2148-6.41113Q20.4688-6.66016 20.4688-7.04102Q20.4688-7.45117 20.2148-7.70508Q19.9609-7.95898 19.5605-7.95898L15.8594-7.95898L15.8594-11.6504Q15.8594-12.0605 15.6055-12.3145Q15.3516-12.5684 14.9414-12.5684Q14.5605-12.5684 14.3115-12.3096Q14.0625-12.0508 14.0625-11.6504L14.0625-7.95898L10.3711-7.95898Q9.96094-7.95898 9.70703-7.70508Q9.45312-7.45117 9.45312-7.04102Z"/>
  </g>
  <text style="stroke:none;fill:black;font-family:SF Pro,SF Pro Display,SF Pro Text,sans-serif;font-size:13;font-weight:bold;" transform="matrix(1 0 0 1 263 1953)">Design Variations</text>
  <text style="stroke:none;fill:black;font-family:SF Pro,SF Pro Display,SF Pro Text,sans-serif;font-size:13;" transform="matrix(1 0 0 1 263 1971)">Symbols are supported in up to nine weights and three scales.</text>
  <text style="stroke:none;fill:black;font-family:SF Pro,SF Pro Display,SF Pro Text,sans-serif;font-size:13;" transform="matrix(1 0 0 1 263 1989)">For optimal layout with text and other symbols, vertically align</text>
  <text style="stroke:none;fill:black;font-family:SF Pro,SF Pro Display,SF Pro Text,sans-serif;font-size:13;" transform="matrix(1 0 0 1 263 2007)">symbols with the adjacent text.</text>
  <line style="fill:none;stroke:#00AEEF;stroke-width:0.5;opacity:1.0;" x1="776" x2="776" y1="1919" y2="1933"/>
  <g transform="matrix(1 0 0 1 776 1933)">
   <path d="M3.31055 0.15625Q3.70117 0.15625 3.91602-0.00976562Q4.13086-0.175781 4.26758-0.585938L5.52734-4.0332L11.2891-4.0332L12.5488-0.585938Q12.6855-0.175781 12.9004-0.00976562Q13.1152 0.15625 13.4961 0.15625Q13.8867 0.15625 14.1162-0.0585938Q14.3457-0.273438 14.3457-0.644531Q14.3457-0.869141 14.2383-1.17188L9.6582-13.3691Q9.48242-13.8184 9.17969-14.043Q8.87695-14.2676 8.4082-14.2676Q7.5-14.2676 7.17773-13.3789L2.59766-1.16211Q2.49023-0.859375 2.49023-0.634766Q2.49023-0.263672 2.70996-0.0537109Q2.92969 0.15625 3.31055 0.15625ZM6.00586-5.51758L8.37891-12.0898L8.42773-12.0898L10.8008-5.51758Z"/>
  </g>
  <line style="fill:none;stroke:#00AEEF;stroke-width:0.5;opacity:1.0;" x1="793.197" x2="793.197" y1="1919" y2="1933"/>
  <text style="stroke:none;fill:black;font-family:SF Pro,SF Pro Display,SF Pro Text,sans-serif;font-size:13;font-weight:bold;" transform="matrix(1 0 0 1 776 1953)">Margins</text>
  <text style="stroke:none;fill:black;font-family:SF Pro,SF Pro Display,SF Pro Text,sans-serif;font-size:13;" transform="matrix(1 0 0 1 776 1971)">Leading and trailing margins on the left and right side of each symbol</text>
  <text style="stroke:none;fill:black;font-family:SF Pro,SF Pro Display,SF Pro Text,sans-serif;font-size:13;" transform="matrix(1 0 0 1 776 1989)">can be adjusted by modifying the x-location of the margin guidelines.</text>
  <text style="stroke:none;fill:black;font-family:SF Pro,SF Pro Display,SF Pro Text,sans-serif;font-size:13;" transform="matrix(1 0 0 1 776 2007)">Modifications are automatically applied proportionally to all</text>
  <text style="stroke:none;fill:black;font-family:SF Pro,SF Pro Display,SF Pro Text,sans-serif;font-size:13;" transform="matrix(1 0 0 1 776 2025)">scales and weights.</text>
  <g transform="matrix(1 0 0 1 1289 1933)">
   <path d="M2.8418 1.86523L4.54102 3.57422Q5.18555 4.22852 5.90332 4.17969Q6.62109 4.13086 7.31445 3.35938L18.0078-8.42773L17.041-9.4043L6.42578 2.27539Q6.16211 2.57812 5.89355 2.61719Q5.625 2.65625 5.27344 2.30469L4.10156 1.14258Q3.75 0.791016 3.79395 0.522461Q3.83789 0.253906 4.14062-0.0195312L15.6152-10.8203L14.6387-11.7871L3.04688-0.898438Q2.30469-0.214844 2.25098 0.498047Q2.19727 1.21094 2.8418 1.86523ZM9.25781-16.3281Q8.94531-16.0254 8.90625-15.6348Q8.86719-15.2441 9.04297-14.9512Q9.21875-14.6777 9.55566-14.541Q9.89258-14.4043 10.3809-14.5215Q11.4746-14.7754 12.5977-14.7314Q13.7207-14.6875 14.7949-13.9844L14.209-12.5293Q13.9551-11.9043 14.0674-11.4404Q14.1797-10.9766 14.5801-10.5664L16.875-8.25195Q17.2363-7.88086 17.5781-7.82227Q17.9199-7.76367 18.3398-7.8418L19.4043-8.03711L20.0684-7.36328L20.0293-6.80664Q20-6.43555 20.1221-6.12305Q20.2441-5.81055 20.6055-5.44922L21.3672-4.70703Q21.7285-4.3457 22.1533-4.33105Q22.5781-4.31641 22.9297-4.66797L25.8398-7.58789Q26.1914-7.93945 26.1816-8.35449Q26.1719-8.76953 25.8105-9.13086L25.0391-9.89258Q24.6875-10.2539 24.3799-10.3857Q24.0723-10.5176 23.7109-10.4883L23.1348-10.4395L22.4902-11.0742L22.7344-12.1973Q22.832-12.6172 22.6953-12.9834Q22.5586-13.3496 22.1191-13.7891L19.9219-15.9766Q18.6719-17.2168 17.2607-17.8369Q15.8496-18.457 14.4189-18.4814Q12.9883-18.5059 11.665-17.959Q10.3418-17.4121 9.25781-16.3281ZM10.752-15.957Q11.6602-16.6211 12.7002-16.9043Q13.7402-17.1875 14.8047-17.085Q15.8691-16.9824 16.8701-16.5137Q17.8711-16.0449 18.7012-15.2051L21.1328-12.793Q21.3086-12.6172 21.3525-12.4512Q21.3965-12.2852 21.3379-12.0312L21.0156-10.5469L22.5195-9.0625L23.5059-9.12109Q23.6914-9.13086 23.7891-9.09668Q23.8867-9.0625 24.0332-8.91602L24.6094-8.33984L22.168-5.89844L21.5918-6.47461Q21.4453-6.62109 21.4062-6.71875Q21.3672-6.81641 21.377-7.01172L21.4453-7.98828L19.9512-9.47266L18.4277-9.21875Q18.1836-9.16992 18.042-9.2041Q17.9004-9.23828 17.7148-9.41406L15.7129-11.416Q15.5176-11.5918 15.4932-11.7529Q15.4688-11.9141 15.5859-12.1875L16.4648-14.2773Q15.293-15.3711 13.8281-15.791Q12.3633-16.2109 10.8398-15.7617Q10.7227-15.7324 10.6885-15.8057Q10.6543-15.8789 10.752-15.957Z"/>
  </g>
  <text style="stroke:none;fill:black;font-family:SF Pro,SF Pro Display,SF Pro Text,sans-serif;font-size:13;font-weight:bold;" transform="matrix(1 0 0 1 1289 1953)">Exporting</text>
  <text style="stroke:none;fill:black;font-family:SF Pro,SF Pro Display,SF Pro Text,sans-serif;font-size:13;" transform="matrix(1 0 0 1 1289 1971)">Symbols should be outlined when exporting to ensure the</text>
  <text style="stroke:none;fill:black;font-family:SF Pro,SF Pro Display,SF Pro Text,sans-serif;font-size:13;" transform="matrix(1 0 0 1 1289 1989)">design is preserved when submitting to Xcode.</text>
  <text id="template-version" style="stroke:none;fill:black;font-family:SF Pro,SF Pro Display,SF Pro Text,sans-serif;font-size:13;text-anchor:end;" transform="matrix(1 0 0 1 3036 1933)">Template v.3.0</text>
  <text style="stroke:none;fill:black;font-family:SF Pro,SF Pro Display,SF Pro Text,sans-serif;font-size:13;text-anchor:end;" transform="matrix(1 0 0 1 3036 1951)">Requires Xcode 13 or greater</text>
  <text id="descriptive-name" style="stroke:none;fill:black;font-family:SF Pro,SF Pro Display,SF Pro Text,sans-serif;font-size:13;text-anchor:end;" transform="matrix(1 0 0 1 3036 1969)">Generated from xmark.diamond</text>
  <text style="stroke:none;fill:black;font-family:SF Pro,SF Pro Display,SF Pro Text,sans-serif;font-size:13;text-anchor:end;" transform="matrix(1 0 0 1 3036 1987)">Typeset at 100 points</text>
  <text style="stroke:none;fill:black;font-family:SF Pro,SF Pro Display,SF Pro Text,sans-serif;font-size:13;" transform="matrix(1 0 0 1 263 726)">Small</text>
  <text style="stroke:none;fill:black;font-family:SF Pro,SF Pro Display,SF Pro Text,sans-serif;font-size:13;" transform="matrix(1 0 0 1 263 1156)">Medium</text>
  <text style="stroke:none;fill:black;font-family:SF Pro,SF Pro Display,SF Pro Text,sans-serif;font-size:13;" transform="matrix(1 0 0 1 263 1586)">Large</text>
 </g>
 <g id="Guides">
  <g id="H-reference" style="fill:#27AAE1;stroke:none;" transform="matrix(1 0 0 1 339 696)">
   <path d="M0.976562 0L3.66211 0L29.3457-67.1387L30.0293-67.1387L30.0293-70.459L28.125-70.459ZM11.6699-24.4629L46.9727-24.4629L46.2402-26.709L12.4512-26.709ZM55.127 0L57.7637 0L30.6152-70.459L29.4434-70.459L29.4434-67.1387Z"/>
  </g>
  <line id="Baseline-S" style="fill:none;stroke:#27AAE1;opacity:1;stroke-width:0.5;" x1="263" x2="3036" y1="696" y2="696"/>
  <line id="Capline-S" style="fill:none;stroke:#27AAE1;opacity:1;stroke-width:0.5;" x1="263" x2="3036" y1="625.541" y2="625.541"/>
  <g id="H-reference" style="fill:#27AAE1;stroke:none;" transform="matrix(1 0 0 1 339 1126)">
   <path d="M0.976562 0L3.66211 0L29.3457-67.1387L30.0293-67.1387L30.0293-70.459L28.125-70.459ZM11.6699-24.4629L46.9727-24.4629L46.2402-26.709L12.4512-26.709ZM55.127 0L57.7637 0L30.6152-70.459L29.4434-70.459L29.4434-67.1387Z"/>
  </g>
  <line id="Baseline-M" style="fill:none;stroke:#27AAE1;opacity:1;stroke-width:0.5;" x1="263" x2="3036" y1="1126" y2="1126"/>
  <line id="Capline-M" style="fill:none;stroke:#27AAE1;opacity:1;stroke-width:0.5;" x1="263" x2="3036" y1="1055.54" y2="1055.54"/>
  <g id="H-reference" style="fill:#27AAE1;stroke:none;" transform="matrix(1 0 0 1 339 1556)">
   <path d="M0.976562 0L3.66211 0L29.3457-67.1387L30.0293-67.1387L30.0293-70.459L28.125-70.459ZM11.6699-24.4629L46.9727-24.4629L46.2402-26.709L12.4512-26.709ZM55.127 0L57.7637 0L30.6152-70.459L29.4434-70.459L29.4434-67.1387Z"/>
  </g>
  <line id="Baseline-L" style="fill:none;stroke:#27AAE1;opacity:1;stroke-width:0.5;" x1="263" x2="3036" y1="1556" y2="1556"/>
  <line id="Capline-L" style="fill:none;stroke:#27AAE1;opacity:1;stroke-width:0.5;" x1="263" x2="3036" y1="1485.54" y2="1485.54"/>
  <line id="left-margin-Regular-M" style="fill:none;stroke:#00AEEF;stroke-width:0.5;opacity:1.0;" x1="1384.46" x2="1384.46" y1="1030.79" y2="1150.12"/>
  <line id="right-margin-Regular-M" style="fill:none;stroke:#00AEEF;stroke-width:0.5;opacity:1.0;" x1="1515.23" x2="1515.23" y1="1030.79" y2="1150.12"/>
 </g>
 <g id="Symbols">
  <g id="Black-L" transform="matrix(1 0 0 1 2844.63 1556)">
   <path class="hierarchical-0:secondary SFSymbolsPreview4D4D4D" d="M20.9473-18.3594L71.875 32.5195Q79.9805 40.625 88.7695 40.6494Q97.5586 40.6738 105.664 32.6172L156.641-18.4082Q164.746-26.4648 164.722-35.2783Q164.697-44.0918 156.592-52.1973L105.713-103.076Q97.6074-111.182 88.7939-111.206Q79.9805-111.23 71.9238-103.125L20.8984-52.1484Q12.793-44.043 12.8418-35.2539Q12.8906-26.4648 20.9473-18.3594ZM37.2559-30.7617Q34.9609-33.0566 34.8877-35.2051Q34.8145-37.3535 37.2559-39.7949L84.2285-86.7676Q86.6699-89.209 88.8428-89.1357Q91.0156-89.0625 93.3105-86.8164L140.283-39.7949Q142.578-37.5 142.651-35.3516Q142.725-33.2031 140.283-30.7129L93.3105 16.2109Q90.8691 18.7012 88.6963 18.6279Q86.5234 18.5547 84.2773 16.2598Z"/>
   <path class="hierarchical-1:primary SFSymbolsPreview212121" d="M70.8008-9.27734Q74.4141-9.27734 76.709-11.6211L88.8184-23.6816L100.977-11.6211Q103.369-9.27734 106.934-9.27734Q110.352-9.27734 112.646-11.5967Q114.941-13.916 114.941-17.334Q114.941-20.459 112.5-22.8516L100.293-35.1074L112.549-47.4609Q114.941-49.8535 114.941-52.9297Q114.941-56.3965 112.646-58.6914Q110.352-60.9863 106.934-60.9863Q103.418-60.9863 101.074-58.6426L88.8184-46.5332L76.6602-58.6426Q74.3652-60.9375 70.8008-60.9375Q67.3828-60.9375 65.0879-58.6426Q62.793-56.3477 62.793-52.9297Q62.793-49.8047 65.1855-47.4121L77.4902-35.1074L65.1855-22.8516Q62.793-20.459 62.793-17.334Q62.793-13.916 65.0879-11.5967Q67.3828-9.27734 70.8008-9.27734Z"/>
  </g>
  <g id="Heavy-L" transform="matrix(1 0 0 1 2549.16 1556)">
   <path class="hierarchical-0:secondary SFSymbolsPreview4D4D4D" d="M20.6543-19.1895L71.4844 31.5918Q79.248 39.3555 87.5488 39.4043Q95.8496 39.4531 103.613 31.6895L154.492-19.2383Q162.256-26.9531 162.231-35.2783Q162.207-43.6035 154.443-51.3672L103.662-102.148Q95.8984-109.912 87.5732-109.937Q79.248-109.961 71.5332-102.197L20.5566-51.3184Q12.793-43.5547 12.8418-35.2539Q12.8906-26.9531 20.6543-19.1895ZM34.5703-30.0781Q31.9336-32.666 31.8848-35.2051Q31.8359-37.7441 34.5703-40.4785L82.2754-88.1836Q85.0098-90.9668 87.5732-90.8936Q90.1367-90.8203 92.7734-88.2324L140.479-40.4785Q143.066-37.8906 143.14-35.3516Q143.213-32.8125 140.479-30.0293L92.7734 17.6758Q90.0391 20.459 87.4756 20.3857Q84.9121 20.3125 82.3242 17.7246Z"/>
   <path class="hierarchical-1:primary SFSymbolsPreview212121" d="M68.6523-9.22852Q71.875-9.22852 73.9258-11.3281L87.5977-24.9512L101.27-11.3281Q103.418-9.22852 106.592-9.22852Q109.619-9.22852 111.67-11.3037Q113.721-13.3789 113.721-16.4062Q113.721-19.2383 111.523-21.3379L97.8027-35.1074L111.572-48.9746Q113.721-51.123 113.721-53.9062Q113.721-56.9824 111.67-59.0332Q109.619-61.084 106.592-61.084Q103.516-61.084 101.367-58.9844L87.5977-45.3125L73.877-58.9355Q71.8262-61.0352 68.6523-61.0352Q65.625-61.0352 63.5742-58.9844Q61.5234-56.9336 61.5234-53.9062Q61.5234-51.0742 63.6719-48.9258L77.4902-35.1074L63.6719-21.3379Q61.5234-19.2383 61.5234-16.4062Q61.5234-13.3789 63.5742-11.3037Q65.625-9.22852 68.6523-9.22852Z"/>
  </g>
  <g id="Bold-L" transform="matrix(1 0 0 1 2253.84 1556)">
   <path class="hierarchical-0:secondary SFSymbolsPreview4D4D4D" d="M20.3125-20.1172L70.9961 30.5664Q78.418 37.9883 86.1572 38.0127Q93.8965 38.0371 101.27 30.7129L152.1-20.166Q159.424-27.5391 159.424-35.3027Q159.424-43.0664 152.002-50.4395L101.367-101.123Q93.9453-108.545 86.1816-108.569Q78.418-108.594 71.0938-101.172L20.2148-50.3906Q12.8418-43.0176 12.8906-35.2783Q12.9395-27.5391 20.3125-20.1172ZM31.5918-29.2969Q28.6133-32.2754 28.5645-35.2295Q28.5156-38.1836 31.5918-41.2598L80.127-89.7949Q83.2031-92.9199 86.1816-92.8711Q89.1602-92.8223 92.1387-89.8438L140.723-41.2598Q143.652-38.3301 143.726-35.3271Q143.799-32.3242 140.723-29.248L92.1875 19.2871Q89.0625 22.4121 86.084 22.3389Q83.1055 22.2656 80.1758 19.3359Z"/>
   <path class="hierarchical-1:primary SFSymbolsPreview212121" d="M66.2598-9.17969Q68.9941-9.17969 70.8008-11.0352L86.1816-26.3672L101.562-11.0352Q103.467-9.17969 106.152-9.17969Q108.74-9.17969 110.522-10.9619Q112.305-12.7441 112.305-15.3809Q112.305-17.8223 110.449-19.6777L94.9707-35.1562L110.498-50.7324Q112.354-52.5879 112.354-54.9805Q112.354-57.6172 110.571-59.3994Q108.789-61.1816 106.152-61.1816Q103.564-61.1816 101.709-59.3262L86.1816-43.8965L70.7031-59.3262Q68.9453-61.1328 66.2598-61.1328Q63.623-61.1328 61.8408-59.3506Q60.0586-57.5684 60.0586-54.9805Q60.0586-52.4902 61.9141-50.6836L77.4414-35.1562L61.9141-19.6777Q60.0586-17.8223 60.0586-15.3809Q60.0586-12.7441 61.8408-10.9619Q63.623-9.17969 66.2598-9.17969Z"/>
  </g>
  <g id="Semibold-L" transform="matrix(1 0 0 1 1958.09 1556)">
   <path class="hierarchical-0:secondary SFSymbolsPreview4D4D4D" d="M20.0684-20.7031L70.6543 29.834Q77.832 37.0117 85.2051 37.0361Q92.5781 37.0605 99.6582 29.9805L150.391-20.8008Q157.471-27.8809 157.471-35.2783Q157.471-42.6758 150.342-49.8047L99.7559-100.391Q92.627-107.568 85.2295-107.593Q77.832-107.617 70.752-100.439L19.9219-49.707Q12.8418-42.627 12.8906-35.2539Q12.9395-27.8809 20.0684-20.7031ZM29.4922-28.7109Q26.2695-31.9336 26.2451-35.2051Q26.2207-38.4766 29.541-41.7969L78.6133-90.918Q81.9336-94.2383 85.2051-94.1895Q88.4766-94.1406 91.6992-90.9668L140.869-41.7969Q144.043-38.623 144.092-35.3027Q144.141-31.9824 140.869-28.6621L91.748 20.3613Q88.4277 23.7305 85.1318 23.6816Q81.8359 23.6328 78.6621 20.459Z"/>
   <path class="hierarchical-1:primary SFSymbolsPreview212121" d="M64.5996-9.13086Q67.041-9.13086 68.6523-10.791L85.2051-27.3438L101.807-10.791Q103.467-9.13086 105.859-9.13086Q108.154-9.13086 109.766-10.7178Q111.377-12.3047 111.377-14.6484Q111.377-16.8457 109.668-18.5059L93.0664-35.1562L109.717-51.9043Q111.377-53.5645 111.377-55.7129Q111.377-58.0566 109.79-59.6436Q108.203-61.2305 105.908-61.2305Q103.613-61.2305 101.904-59.5703L85.2051-42.9199L68.5547-59.5215Q66.9922-61.1816 64.5996-61.1816Q62.2559-61.1816 60.6689-59.5947Q59.082-58.0078 59.082-55.7129Q59.082-53.4668 60.7422-51.8555L77.3926-35.1562L60.7422-18.5059Q59.082-16.8457 59.082-14.6484Q59.082-12.3047 60.6689-10.7178Q62.2559-9.13086 64.5996-9.13086Z"/>
  </g>
  <g id="Medium-L" transform="matrix(1 0 0 1 1662.11 1556)">
   <path class="hierarchical-0:secondary SFSymbolsPreview4D4D4D" d="M19.9219-21.1914L70.4102 29.2969Q77.3926 36.2793 84.4727 36.3037Q91.5527 36.3281 98.4375 29.4434L149.17-21.2891Q156.006-28.1738 156.006-35.2783Q156.006-42.3828 149.072-49.3164L98.5352-99.8535Q91.6016-106.836 84.5215-106.86Q77.4414-106.885 70.5078-99.9023L19.7266-49.2188Q12.8418-42.334 12.8906-35.2539Q12.9395-28.1738 19.9219-21.1914ZM27.9297-28.3203Q24.5117-31.7383 24.4873-35.2295Q24.4629-38.7207 27.9785-42.1875L77.4902-91.748Q81.0059-95.2637 84.4971-95.2148Q87.9883-95.166 91.4062-91.7969L140.967-42.1875Q144.336-38.8184 144.385-35.2783Q144.434-31.7383 140.967-28.2715L91.4062 21.2402Q87.8906 24.7559 84.375 24.707Q80.8594 24.6582 77.5391 21.2891Z"/>
   <path class="hierarchical-1:primary SFSymbolsPreview212121" d="M63.2812-9.08203Q65.5273-9.08203 66.9922-10.5957L84.4238-28.0762L101.953-10.5957Q103.467-9.08203 105.615-9.08203Q107.715-9.08203 109.155-10.5469Q110.596-12.0117 110.596-14.1113Q110.596-16.1133 109.082-17.627L91.5527-35.2051L109.131-52.7832Q110.645-54.3457 110.645-56.2988Q110.645-58.3984 109.204-59.8633Q107.764-61.3281 105.664-61.3281Q103.613-61.3281 102.051-59.7656L84.4238-42.1875L66.8945-59.7168Q65.4785-61.2305 63.2812-61.2305Q61.2305-61.2305 59.7656-59.79Q58.3008-58.3496 58.3008-56.25Q58.3008-54.1992 59.8145-52.7344L77.3438-35.2051L59.8145-17.627Q58.3008-16.1133 58.3008-14.1113Q58.3008-12.0117 59.7656-10.5469Q61.2305-9.08203 63.2812-9.08203Z"/>
  </g>
  <g id="Regular-L" transform="matrix(1 0 0 1 1366.35 1556)">
   <path class="hierarchical-0:secondary SFSymbolsPreview4D4D4D" d="M19.6777-21.8262L70.1172 28.6133Q76.8066 35.3027 83.5205 35.3516Q90.2344 35.4004 96.875 28.7598L147.51-21.9238Q154.102-28.5645 154.102-35.2783Q154.102-41.9922 147.412-48.6816L96.9727-99.1211Q90.2832-105.859 83.5693-105.884Q76.8555-105.908 70.2148-99.2188L19.4824-48.584Q12.8418-41.9434 12.8906-35.2539Q12.9395-28.5645 19.6777-21.8262ZM25.8789-27.7832Q22.2168-31.4453 22.2168-35.2295Q22.2168-39.0137 25.9277-42.7246L76.0254-92.8223Q79.7363-96.582 83.5205-96.5576Q87.3047-96.5332 90.9668-92.8711L141.113-42.7246Q144.727-39.1113 144.775-35.2783Q144.824-31.4453 141.113-27.7344L91.0156 22.3145Q87.2559 26.0742 83.4473 26.0254Q79.6387 25.9766 76.0742 22.4121Z"/>
   <path class="hierarchical-1:primary SFSymbolsPreview212121" d="M61.6699-9.0332Q63.5742-9.0332 64.8438-10.4004L83.4961-29.0527L102.148-10.4004Q103.516-9.0332 105.322-9.0332Q107.129-9.0332 108.398-10.3027Q109.668-11.5723 109.668-13.3789Q109.668-15.1855 108.35-16.5039L89.6484-35.2051L108.398-53.9551Q109.717-55.3223 109.717-57.0312Q109.717-58.8379 108.447-60.1074Q107.178-61.377 105.371-61.377Q103.662-61.377 102.295-60.0098L83.4961-41.2598L64.7461-59.9609Q63.5254-61.2793 61.6699-61.2793Q59.8633-61.2793 58.5938-60.0342Q57.3242-58.7891 57.3242-56.9824Q57.3242-55.1758 58.6426-53.9062L77.3438-35.2051L58.6426-16.4551Q57.3242-15.1855 57.3242-13.3789Q57.3242-11.5723 58.5938-10.3027Q59.8633-9.0332 61.6699-9.0332Z"/>
  </g>
  <g id="Light-L" transform="matrix(1 0 0 1 1070.76 1556)">
   <path class="hierarchical-0:secondary SFSymbolsPreview4D4D4D" d="M19.2383-22.5586L69.7266 27.9297Q76.0254 34.2285 82.4219 34.2285Q88.8184 34.2285 95.0684 28.0273L145.605-22.6074Q151.807-28.8574 151.855-35.2539Q151.904-41.6504 145.557-47.9492L95.166-98.3887Q88.8184-104.736 82.4219-104.736Q76.0254-104.736 69.7754-98.4375L19.1406-47.9004Q12.8418-41.6016 12.8662-35.2539Q12.8906-28.9062 19.2383-22.5586ZM23.9746-27.0508Q19.9707-31.0547 19.9707-35.2051Q19.9707-39.3555 24.0234-43.4082L74.1699-93.5547Q78.2227-97.6562 82.373-97.6318Q86.5234-97.6074 90.5273-93.6035L140.723-43.4082Q144.629-39.502 144.702-35.2783Q144.775-31.0547 140.723-27.0508L90.5273 23.0957Q86.4746 27.1484 82.2998 27.0996Q78.125 27.0508 74.2188 23.1445Z"/>
   <path class="hierarchical-1:primary SFSymbolsPreview212121" d="M60.1074-9.57031Q61.5723-9.57031 62.6465-10.6934L82.3242-30.3711L102.002-10.6934Q103.125-9.57031 104.59-9.57031Q106.006-9.57031 107.007-10.5469Q108.008-11.5234 108.008-12.9395Q108.008-14.3555 106.934-15.4297L87.1582-35.2051L106.934-54.9805Q108.008-56.1035 108.008-57.4707Q108.008-58.8867 107.007-59.8633Q106.006-60.8398 104.59-60.8398Q103.223-60.8398 102.1-59.668L82.3242-39.9414L62.5977-59.668Q61.5723-60.7422 60.1074-60.7422Q58.6914-60.7422 57.6904-59.79Q56.6895-58.8379 56.6895-57.4219Q56.6895-56.0059 57.7637-54.9805L77.5391-35.2051L57.7637-15.3809Q56.6895-14.3555 56.6895-12.9395Q56.6895-11.5234 57.6904-10.5469Q58.6914-9.57031 60.1074-9.57031Z"/>
  </g>
  <g id="Thin-L" transform="matrix(1 0 0 1 775.563 1556)">
   <path class="hierarchical-0:secondary SFSymbolsPreview4D4D4D" d="M18.6523-23.5352L69.1895 27.002Q75 32.7637 80.9814 32.7393Q86.9629 32.7148 92.6758 27.002L143.066-23.5352Q148.73-29.248 148.853-35.2295Q148.975-41.2109 143.164-47.0215L92.7734-97.4121Q86.8652-103.271 80.9082-103.247Q74.9512-103.223 69.1895-97.4121L18.6523-47.0215Q12.8418-41.2109 12.8662-35.2783Q12.8906-29.3457 18.6523-23.5352ZM21.4355-26.0742Q16.9922-30.5176 17.0166-35.1807Q17.041-39.8438 21.4844-44.2871L71.7773-94.5801Q76.2207-99.0723 80.8594-99.0723Q85.498-99.0723 89.9414-94.5801L140.186-44.3359Q144.531-39.9902 144.629-35.2539Q144.727-30.5176 140.234-26.123L89.9414 24.1211Q85.4492 28.6133 80.7861 28.54Q76.123 28.4668 71.7773 24.1211Z"/>
   <path class="hierarchical-1:primary SFSymbolsPreview212121" d="M58.0078-10.3027Q58.9844-10.3027 59.8145-11.084L80.8105-32.1289L101.855-11.084Q102.637-10.3027 103.564-10.3027Q104.492-10.3027 105.127-10.8887Q105.762-11.4746 105.762-12.3535Q105.762-13.2812 105.029-14.0137L83.8379-35.2051L105.029-56.3965Q105.762-57.1289 105.762-58.0566Q105.762-58.8867 105.151-59.4727Q104.541-60.0586 103.613-60.0586Q102.686-60.0586 101.855-59.2773L80.8105-38.2324L59.7656-59.2773Q58.9844-60.0586 58.0078-60.0586Q57.1289-60.0586 56.4941-59.4727Q55.8594-58.8867 55.8594-58.0566Q55.8594-57.1289 56.5918-56.3477L77.7832-35.2051L56.5918-14.0137Q55.8594-13.2812 55.8594-12.3535Q55.8594-11.4746 56.4941-10.8887Q57.1289-10.3027 58.0078-10.3027Z"/>
  </g>
  <g id="Ultralight-L" transform="matrix(1 0 0 1 479.609 1556)">
   <path class="hierarchical-0:secondary SFSymbolsPreview4D4D4D" d="M18.3594-24.0234L68.8965 26.5137Q74.4629 32.0312 80.249 31.958Q86.0352 31.8848 91.4062 26.5137L141.748-24.0234Q147.168-29.4434 147.314-35.2295Q147.461-41.0156 141.895-46.5332L91.5039-96.9238Q85.8887-102.539 80.1514-102.466Q74.4141-102.393 68.8965-96.875L18.4082-46.5332Q12.8418-40.9668 12.8418-35.2539Q12.8418-29.541 18.3594-24.0234ZM20.166-25.5859Q15.4297-30.2734 15.4785-35.1807Q15.5273-40.0879 20.166-44.7266L70.5078-95.0684Q75.1953-99.8047 80.0781-99.8047Q84.9609-99.8047 89.6484-95.1172L139.893-44.8242Q144.434-40.2344 144.556-35.2539Q144.678-30.2734 139.99-25.6348L89.5996 24.6582Q84.9609 29.3457 80.0293 29.2725Q75.0977 29.1992 70.5566 24.6582Z"/>
   <path class="hierarchical-1:primary SFSymbolsPreview212121" d="M56.9824-10.6445Q57.666-10.6445 58.3496-11.3281L80.0293-33.0566L101.807-11.3281Q102.441-10.6445 103.125-10.6445Q103.76-10.6445 104.224-11.0352Q104.688-11.4258 104.688-12.0605Q104.688-12.7441 104.102-13.2812L82.2266-35.2051L104.102-57.0801Q104.639-57.6172 104.639-58.3496Q104.639-58.9355 104.199-59.3262Q103.76-59.7168 103.125-59.7168Q102.441-59.7168 101.758-59.0332L80.0293-37.3535L58.3496-59.0332Q57.666-59.668 56.9824-59.668Q56.3965-59.668 55.9326-59.3018Q55.4688-58.9355 55.4688-58.3496Q55.4688-57.666 56.0059-57.0801L77.9297-35.2051L56.0059-13.2812Q55.4688-12.7441 55.4688-12.0605Q55.4688-11.4258 55.9326-11.0352Q56.3965-10.6445 56.9824-10.6445Z"/>
  </g>
  <g id="Black-M" transform="matrix(1 0 0 1 2863.89 1126)">
   <path class="hierarchical-0:secondary SFSymbolsPreview4D4D4D" d="M16.4062-21.6797L55.9082 17.8223Q62.3535 24.2676 69.4824 24.2676Q76.6113 24.2676 83.0566 17.8711L122.607-21.6797Q129.053-28.125 129.053-35.2539Q129.053-42.3828 122.607-48.8281L83.0566-88.3789Q76.6602-94.7754 69.5068-94.7998Q62.3535-94.8242 55.957-88.3789L16.3574-48.8281Q9.96094-42.3828 9.96094-35.2539Q9.96094-28.125 16.4062-21.6797ZM30.5664-32.1289Q28.9551-33.7402 28.8818-35.2051Q28.8086-36.6699 30.5664-38.4277L66.3574-74.2188Q68.1152-75.9766 69.5801-75.9033Q71.0449-75.8301 72.6562-74.2188L108.447-38.4277Q110.059-36.8164 110.132-35.3271Q110.205-33.8379 108.447-32.1289L72.6562 3.71094Q70.8984 5.41992 69.4336 5.37109Q67.9688 5.32227 66.3574 3.71094Z"/>
   <path class="hierarchical-1:primary SFSymbolsPreview212121" d="M56.1523-15.332Q59.1797-15.332 61.1328-17.2852L69.5312-25.6348L77.9785-17.2852Q79.9316-15.332 82.959-15.332Q85.791-15.332 87.6709-17.2363Q89.5508-19.1406 89.5508-22.0215Q89.5508-24.5605 87.5488-26.5625L79.0527-35.1562L87.5488-43.75Q89.5508-45.752 89.5508-48.291Q89.5508-51.123 87.6709-53.0273Q85.791-54.9316 82.959-54.9316Q79.9805-54.9316 78.0273-53.0273L69.5312-44.5801L61.1328-52.9785Q59.1797-54.9316 56.1523-54.9316Q53.3691-54.9316 51.4648-53.0273Q49.5605-51.123 49.5605-48.291Q49.5605-45.7031 51.5625-43.75L60.1562-35.1562L51.5625-26.5625Q49.5605-24.5605 49.5605-22.0215Q49.5605-19.1406 51.4648-17.2363Q53.3691-15.332 56.1523-15.332Z"/>
  </g>
  <g id="Heavy-M" transform="matrix(1 0 0 1 2568.16 1126)">
   <path class="hierarchical-0:secondary SFSymbolsPreview4D4D4D" d="M16.2109-22.3145L55.6152 17.0898Q61.8164 23.291 68.5303 23.291Q75.2441 23.291 81.3965 17.1387L120.898-22.3633Q127.1-28.5156 127.1-35.2539Q127.1-41.9922 120.898-48.1934L81.4453-87.5977Q75.293-93.7988 68.5547-93.8232Q61.8164-93.8477 55.6641-87.6465L16.1133-48.1445Q9.96094-41.9434 9.96094-35.2295Q9.96094-28.5156 16.2109-22.3145ZM28.3203-31.5918Q26.5137-33.4473 26.4404-35.2051Q26.3672-36.9629 28.3691-38.9648L64.8438-75.4395Q66.8457-77.4414 68.6035-77.3682Q70.3613-77.2949 72.2168-75.4395L108.74-38.9648Q110.547-37.1094 110.62-35.3271Q110.693-33.5449 108.691-31.5918L72.2168 4.93164Q70.2148 6.88477 68.457 6.83594Q66.6992 6.78711 64.8438 4.98047Z"/>
   <path class="hierarchical-1:primary SFSymbolsPreview212121" d="M54.3945-15.1367Q57.1289-15.1367 58.8867-16.9434L68.5547-26.6113L78.2715-16.9434Q80.0293-15.1367 82.7637-15.1367Q85.3027-15.1367 87.0117-16.8701Q88.7207-18.6035 88.7207-21.1914Q88.7207-23.5352 86.9141-25.3418L77.1484-35.1562L86.9141-45.0195Q88.7207-46.8262 88.7207-49.1211Q88.7207-51.709 87.0117-53.418Q85.3027-55.127 82.7637-55.127Q80.127-55.127 78.3691-53.418L68.5547-43.6523L58.8379-53.3691Q57.0801-55.127 54.3945-55.127Q51.9043-55.127 50.1709-53.3936Q48.4375-51.6602 48.4375-49.1211Q48.4375-46.7773 50.2441-45.0195L60.0586-35.1562L50.2441-25.3418Q48.4375-23.5352 48.4375-21.1914Q48.4375-18.6035 50.1709-16.8701Q51.9043-15.1367 54.3945-15.1367Z"/>
  </g>
  <g id="Bold-M" transform="matrix(1 0 0 1 2272.52 1126)">
   <path class="hierarchical-0:secondary SFSymbolsPreview4D4D4D" d="M15.9668-23.0957L55.2734 16.2598Q61.1816 22.168 67.4316 22.1924Q73.6816 22.2168 79.5898 16.3574L119.043-23.1445Q124.951-29.0039 124.927-35.2783Q124.902-41.5527 118.945-47.4609L79.6387-86.7676Q73.7305-92.6758 67.4805-92.7246Q61.2305-92.7734 55.3223-86.8652L15.8691-47.4121Q9.96094-41.5039 9.98535-35.2539Q10.0098-29.0039 15.9668-23.0957ZM25.8789-31.0059Q23.7793-33.1543 23.7061-35.2539Q23.6328-37.3535 25.8789-39.5508L63.1836-76.8555Q65.3809-79.0527 67.4805-79.0283Q69.5801-79.0039 71.7285-76.8555L109.033-39.5508Q111.133-37.4512 111.206-35.3271Q111.279-33.2031 109.033-31.0059L71.7285 6.34766Q69.4824 8.54492 67.3828 8.52051Q65.2832 8.49609 63.1836 6.39648Z"/>
   <path class="hierarchical-1:primary SFSymbolsPreview212121" d="M52.4902-14.9902Q54.834-14.9902 56.3965-16.5527L67.4805-27.6855L78.6621-16.5527Q80.2246-14.9902 82.5684-14.9902Q84.7656-14.9902 86.2793-16.5283Q87.793-18.0664 87.793-20.3125Q87.793-22.3633 86.2305-23.9746L75.0488-35.2051L86.2305-46.4844Q87.8418-48.0469 87.8418-50.0977Q87.8418-52.3438 86.3281-53.8574Q84.8145-55.3711 82.5684-55.3711Q80.3223-55.3711 78.7598-53.8086L67.4805-42.627L56.3477-53.7598Q54.834-55.3223 52.4902-55.3223Q50.293-55.3223 48.7549-53.8086Q47.2168-52.2949 47.2168-50.0977Q47.2168-47.998 48.8281-46.4355L60.0586-35.2051L48.8281-23.9258Q47.2168-22.3633 47.2168-20.3125Q47.2168-18.0664 48.7549-16.5283Q50.293-14.9902 52.4902-14.9902Z"/>
  </g>
  <g id="Semibold-M" transform="matrix(1 0 0 1 1976.57 1126)">
   <path class="hierarchical-0:secondary SFSymbolsPreview4D4D4D" d="M15.7715-23.584L55.0293 15.6738Q60.7422 21.3867 66.6748 21.4355Q72.6074 21.4844 78.3203 15.7715L117.725-23.6328Q123.438-29.3457 123.389-35.2783Q123.34-41.2109 117.627-46.9727L78.418-86.1816Q72.6562-91.8945 66.7236-91.9434Q60.791-91.9922 55.0781-86.2793L15.6738-46.875Q9.96094-41.1621 9.98535-35.2539Q10.0098-29.3457 15.7715-23.584ZM24.1211-30.6152Q21.875-32.9102 21.8018-35.2295Q21.7285-37.5488 24.1699-39.9414L62.0117-77.7832Q64.4043-80.1758 66.7236-80.1514Q69.043-80.127 71.3379-77.832L109.229-39.9414Q111.523-37.6465 111.572-35.3027Q111.621-32.959 109.229-30.5664L71.3867 7.27539Q68.9453 9.66797 66.626 9.64355Q64.3066 9.61914 62.0117 7.32422Z"/>
   <path class="hierarchical-1:primary SFSymbolsPreview212121" d="M51.0742-14.8438Q53.2227-14.8438 54.5898-16.3086L66.6992-28.418L78.9062-16.3086Q80.3223-14.8438 82.373-14.8438Q84.375-14.8438 85.7422-16.2354Q87.1094-17.627 87.1094-19.6777Q87.1094-21.582 85.6934-22.998L73.5352-35.2051L85.7422-47.4609Q87.1582-48.877 87.1582-50.7324Q87.1582-52.7344 85.791-54.126Q84.4238-55.5176 82.4219-55.5176Q80.4199-55.5176 79.0039-54.1016L66.6992-41.8945L54.541-54.0527Q53.1738-55.4688 51.0742-55.4688Q49.1211-55.4688 47.7295-54.1016Q46.3379-52.7344 46.3379-50.7324Q46.3379-48.7793 47.7539-47.4121L59.9609-35.2051L47.7539-22.9492Q46.3379-21.582 46.3379-19.6777Q46.3379-17.627 47.7295-16.2354Q49.1211-14.8438 51.0742-14.8438Z"/>
  </g>
  <g id="Medium-M" transform="matrix(1 0 0 1 1680.44 1126)">
   <path class="hierarchical-0:secondary SFSymbolsPreview4D4D4D" d="M15.625-23.9746L54.834 15.2344Q60.4492 20.8008 66.1377 20.8496Q71.8262 20.8984 77.3926 15.332L116.699-24.0234Q122.266-29.5898 122.241-35.2783Q122.217-40.9668 116.602-46.582L77.4414-85.7422Q71.875-91.3086 66.1621-91.3574Q60.4492-91.4062 54.9316-85.8398L15.5273-46.4844Q9.96094-40.918 10.0098-35.2539Q10.0586-29.5898 15.625-23.9746ZM22.8516-30.2734Q20.4102-32.7148 20.3613-35.2295Q20.3125-37.7441 22.9004-40.2832L61.1328-78.5156Q63.623-81.0059 66.1377-81.0059Q68.6523-81.0059 71.0938-78.5645L109.424-40.2344Q111.816-37.8418 111.865-35.3027Q111.914-32.7637 109.375-30.2246L71.1426 8.00781Q68.5547 10.498 66.0645 10.498Q63.5742 10.498 61.1328 8.05664Z"/>
   <path class="hierarchical-1:primary SFSymbolsPreview212121" d="M50.0488-14.7461Q52.002-14.7461 53.2715-16.0645L66.1133-28.9551L79.0527-16.0645Q80.3711-14.7461 82.2266-14.7461Q84.0332-14.7461 85.3271-16.04Q86.6211-17.334 86.6211-19.1895Q86.6211-20.9473 85.3027-22.2656L72.3633-35.2051L85.3027-48.1934Q86.6699-49.5117 86.6699-51.2695Q86.6699-53.0762 85.376-54.3701Q84.082-55.6641 82.2754-55.6641Q80.4688-55.6641 79.1504-54.2969L66.1133-41.3574L53.1738-54.248Q51.9531-55.5664 50.0488-55.5664Q48.2422-55.5664 46.9482-54.2969Q45.6543-53.0273 45.6543-51.2207Q45.6543-49.4141 46.9727-48.1445L59.9121-35.2051L46.9727-22.2168Q45.6543-20.9473 45.6543-19.1895Q45.6543-17.334 46.9482-16.04Q48.2422-14.7461 50.0488-14.7461Z"/>
  </g>
  <g id="Regular-M" transform="matrix(1 0 0 1 1384.46 1126)">
   <path class="hierarchical-0:secondary SFSymbolsPreview4D4D4D" d="M15.4785-24.4629L54.5898 14.6484Q60.0098 20.0684 65.3809 20.1172Q70.752 20.166 76.123 14.7949L115.43-24.5605Q120.801-29.8828 120.752-35.2783Q120.703-40.6738 115.283-46.0938L76.2207-85.1562Q70.8008-90.5762 65.4297-90.625Q60.0586-90.6738 54.6875-85.3027L15.332-45.9961Q9.96094-40.5762 10.0098-35.2295Q10.0586-29.8828 15.4785-24.4629ZM21.1426-29.8828Q18.5547-32.5195 18.5059-35.2539Q18.457-37.9883 21.1914-40.6738L59.9609-79.4434Q62.6465-82.1289 65.3809-82.1289Q68.1152-82.1289 70.752-79.4922L109.619-40.625Q112.207-38.0371 112.256-35.2783Q112.305-32.5195 109.57-29.834L70.8008 8.93555Q68.0664 11.6211 65.332 11.6211Q62.5977 11.6211 60.0098 9.0332Z"/>
   <path class="hierarchical-1:primary SFSymbolsPreview212121" d="M48.7305-14.5996Q50.4395-14.5996 51.5625-15.8203L65.3809-29.6875L79.2969-15.8203Q80.4688-14.5996 82.0801-14.5996Q83.6914-14.5996 84.8389-15.7715Q85.9863-16.9434 85.9863-18.5547Q85.9863-20.166 84.8145-21.3379L70.9473-35.2051L84.8633-49.1699Q86.0352-50.3418 86.0352-51.9043Q86.0352-53.5156 84.8877-54.6631Q83.7402-55.8105 82.1289-55.8105Q80.6152-55.8105 79.4434-54.5898L65.3809-40.6738L51.4648-54.541Q50.3906-55.7129 48.7305-55.7129Q47.1191-55.7129 45.9717-54.5898Q44.8242-53.4668 44.8242-51.8555Q44.8242-50.2441 45.9961-49.1211L59.8633-35.2051L45.9961-21.2891Q44.8242-20.166 44.8242-18.5547Q44.8242-16.9434 45.9717-15.7715Q47.1191-14.5996 48.7305-14.5996Z"/>
  </g>
  <g id="Light-M" transform="matrix(1 0 0 1 1088.78 1126)">
   <path class="hierarchical-0:secondary SFSymbolsPreview4D4D4D" d="M15.0879-25.0977L54.248 14.0137Q59.2773 19.0918 64.3799 19.1162Q69.4824 19.1406 74.5117 14.1113L113.721-25.1465Q118.701-30.127 118.701-35.2539Q118.701-40.3809 113.672-45.459L74.6094-84.5215Q69.4824-89.5996 64.4043-89.624Q59.3262-89.6484 54.2969-84.5703L14.9902-45.3613Q9.96094-40.2832 9.98535-35.2295Q10.0098-30.1758 15.0879-25.0977ZM19.4336-29.248Q16.5039-32.1777 16.4795-35.2539Q16.4551-38.3301 19.4824-41.2598L58.3008-80.127Q61.2793-83.1055 64.3311-83.1055Q67.3828-83.1055 70.3613-80.1758L109.277-41.2598Q112.109-38.3789 112.183-35.2783Q112.256-32.1777 109.229-29.1992L70.4102 9.61914Q67.3828 12.5977 64.3066 12.5977Q61.2305 12.5977 58.3496 9.7168Z"/>
   <path class="hierarchical-1:primary SFSymbolsPreview212121" d="M47.3145-15.0879Q48.6328-15.0879 49.5605-16.1133L64.3066-30.8594L79.1504-16.1133Q80.127-15.0879 81.3965-15.0879Q82.666-15.0879 83.5693-15.9912Q84.4727-16.8945 84.4727-18.1641Q84.4727-19.4336 83.4961-20.3613L68.7012-35.2051L83.5449-50.0977Q84.4727-51.0254 84.4727-52.2949Q84.4727-53.5645 83.5938-54.4434Q82.7148-55.3223 81.4453-55.3223Q80.2246-55.3223 79.248-54.2969L64.3066-39.502L49.5117-54.2969Q48.6328-55.2246 47.3145-55.2246Q46.0449-55.2246 45.1416-54.3701Q44.2383-53.5156 44.2383-52.2461Q44.2383-50.9766 45.166-50.0488L60.0098-35.2051L45.166-20.3125Q44.2383-19.4336 44.2383-18.1641Q44.2383-16.8945 45.1416-15.9912Q46.0449-15.0879 47.3145-15.0879Z"/>
  </g>
  <g id="Thin-M" transform="matrix(1 0 0 1 793.434 1126)">
   <path class="hierarchical-0:secondary SFSymbolsPreview4D4D4D" d="M14.5996-25.9277L53.7598 13.1836Q58.3496 17.7734 63.0859 17.749Q67.8223 17.7246 72.3145 13.2324L111.426-25.9766Q115.967-30.4688 116.04-35.2295Q116.113-39.9902 111.475-44.5801L72.4121-83.6426Q67.7734-88.2812 63.0615-88.2568Q58.3496-88.2324 53.7598-83.6426L14.5508-44.5312Q9.96094-39.9414 9.98535-35.2539Q10.0098-30.5664 14.5996-25.9277ZM17.1875-28.3691Q13.8184-31.6895 13.8428-35.2051Q13.8672-38.7207 17.1875-42.041L56.1523-81.0059Q59.5215-84.375 62.9883-84.375Q66.4551-84.375 69.8242-81.0547L108.789-42.0898Q112.012-38.8184 112.085-35.2539Q112.158-31.6895 108.789-28.3691L69.873 10.5469Q66.4551 13.916 62.9395 13.8672Q59.4238 13.8184 56.1523 10.5957Z"/>
   <path class="hierarchical-1:primary SFSymbolsPreview212121" d="M45.459-15.7715Q46.2891-15.7715 47.0215-16.4551L62.9883-32.4707L79.0039-16.4551Q79.6875-15.7715 80.5176-15.7715Q81.3477-15.7715 81.9092-16.3086Q82.4707-16.8457 82.4707-17.627Q82.4707-18.457 81.8359-19.0918L65.7227-35.2051L81.8359-51.3184Q82.5195-51.9531 82.5195-52.7832Q82.5195-53.5645 81.9336-54.1016Q81.3477-54.6387 80.5176-54.6387Q79.7363-54.6387 79.0527-53.9551L62.9883-37.9395L46.9727-53.9551Q46.2891-54.6387 45.459-54.6387Q44.6289-54.6387 44.0674-54.1016Q43.5059-53.5645 43.5059-52.7832Q43.5059-51.9531 44.1406-51.3184L60.2539-35.2051L44.1406-19.0918Q43.5059-18.457 43.5059-17.627Q43.5059-16.8457 44.0674-16.3086Q44.6289-15.7715 45.459-15.7715Z"/>
  </g>
  <g id="Ultralight-M" transform="matrix(1 0 0 1 497.406 1126)">
   <path class="hierarchical-0:secondary SFSymbolsPreview4D4D4D" d="M14.3555-26.3672L53.5156 12.7441Q57.8613 17.1387 62.4023 17.0898Q66.9434 17.041 71.2402 12.7441L110.254-26.3672Q114.551-30.6641 114.648-35.2051Q114.746-39.7461 110.4-44.1406L71.3379-83.2031Q66.8945-87.6465 62.3535-87.5977Q57.8125-87.5488 53.4668-83.1543L14.3555-44.1406Q9.96094-39.7461 9.96094-35.2539Q9.96094-30.7617 14.3555-26.3672ZM16.0156-27.9297Q12.4023-31.4941 12.4512-35.2295Q12.5-38.9648 16.0156-42.4316L55.0293-81.4941Q58.5938-85.0586 62.2803-85.0586Q65.9668-85.0586 69.5801-81.4941L108.545-42.5293Q111.963-39.0137 112.036-35.2539Q112.109-31.4941 108.594-27.9297L69.5801 11.0352Q65.9668 14.5508 62.2314 14.5264Q58.4961 14.502 55.0293 11.0352Z"/>
   <path class="hierarchical-1:primary SFSymbolsPreview212121" d="M44.4824-16.1133Q45.1172-16.1133 45.6543-16.6504L62.2559-33.252L78.9062-16.6504Q79.4434-16.1133 80.0293-16.1133Q80.6641-16.1133 81.0547-16.4551Q81.4453-16.7969 81.4453-17.3828Q81.4453-17.9199 80.957-18.4082L64.209-35.2051L80.957-51.9531Q81.4453-52.4414 81.4453-53.0273Q81.4453-53.6133 81.0547-53.9551Q80.6641-54.2969 80.0781-54.2969Q79.4434-54.2969 78.9062-53.7598L62.2559-37.1094L45.6543-53.7598Q45.1172-54.2969 44.4824-54.2969Q43.8965-54.2969 43.5059-53.9551Q43.1152-53.6133 43.1152-53.0273Q43.1152-52.4414 43.6035-51.9531L60.3516-35.2051L43.6035-18.4082Q43.1152-17.9199 43.1152-17.3828Q43.1152-16.7969 43.5059-16.4551Q43.8965-16.1133 44.4824-16.1133Z"/>
  </g>
  <g id="Black-S" transform="matrix(1 0 0 1 2878.69 696)">
   <path class="hierarchical-0:secondary SFSymbolsPreview4D4D4D" d="M12.8906-24.4629L43.8965 6.54297Q49.0234 11.6211 54.7119 11.6211Q60.4004 11.6211 65.4785 6.54297L96.4844-24.4629Q101.611-29.541 101.611-35.2539Q101.611-40.9668 96.4844-46.0449L65.4785-77.0508Q60.4004-82.1289 54.7119-82.1289Q49.0234-82.1289 43.8965-77.0508L12.8906-46.0449Q7.8125-40.9668 7.8125-35.2539Q7.8125-29.541 12.8906-24.4629ZM24.5117-32.9102Q23.3398-34.1309 23.2666-35.2051Q23.1934-36.2793 24.5117-37.5977L52.3438-65.4297Q53.6621-66.748 54.7607-66.6992Q55.8594-66.6504 57.0312-65.4297L84.8633-37.5977Q86.084-36.377 86.1328-35.3027Q86.1816-34.2285 84.8633-32.9102L57.0312-5.07812Q55.7129-3.75977 54.6387-3.80859Q53.5645-3.85742 52.3438-5.07812Z"/>
   <path class="hierarchical-1:primary SFSymbolsPreview212121" d="M44.4336-19.7266Q46.875-19.7266 48.4375-21.2891L54.6875-27.4902L60.9863-21.2891Q62.5488-19.7266 64.9902-19.7266Q67.2852-19.7266 68.7988-21.2646Q70.3125-22.8027 70.3125-25.0977Q70.3125-27.1484 68.7012-28.7598L62.3535-35.1562L68.7012-41.5527Q70.3125-43.1641 70.3125-45.2148Q70.3125-47.5098 68.7988-49.0479Q67.2852-50.5859 64.9902-50.5859Q62.5488-50.5859 60.9863-49.0234L54.6875-42.7734L48.4375-49.0234Q46.875-50.5859 44.4336-50.5859Q42.1875-50.5859 40.6494-49.0479Q39.1113-47.5098 39.1113-45.2148Q39.1113-43.1641 40.7227-41.5527L47.1191-35.1562L40.7227-28.7598Q39.1113-27.1484 39.1113-25.0977Q39.1113-22.8027 40.6494-21.2646Q42.1875-19.7266 44.4336-19.7266Z"/>
  </g>
  <g id="Heavy-S" transform="matrix(1 0 0 1 2582.68 696)">
   <path class="hierarchical-0:secondary SFSymbolsPreview4D4D4D" d="M12.7441-24.9512L43.6523 5.95703Q48.6328 10.8887 54.0039 10.9131Q59.375 10.9375 64.2578 6.00586L95.2637-24.9512Q100.195-29.8828 100.171-35.2783Q100.146-40.6738 95.2148-45.5566L64.3066-76.4648Q59.375-81.3965 54.0039-81.4209Q48.6328-81.4453 43.7012-76.5137L12.6953-45.5566Q7.8125-40.625 7.8125-35.2295Q7.8125-29.834 12.7441-24.9512ZM22.8027-32.5195Q21.4844-33.9355 21.4111-35.2051Q21.3379-36.4746 22.8516-37.9883L51.2695-66.4062Q52.7344-67.8711 54.0283-67.8223Q55.3223-67.7734 56.6895-66.4062L85.1562-37.9883Q86.5234-36.5723 86.5479-35.3027Q86.5723-34.0332 85.1074-32.5195L56.6895-4.10156Q55.2246-2.63672 53.9307-2.66113Q52.6367-2.68555 51.2695-4.10156Z"/>
   <path class="hierarchical-1:primary SFSymbolsPreview212121" d="M43.1152-19.5312Q45.3613-19.5312 46.7773-20.9473L54.0039-28.1738L61.2793-20.9473Q62.6953-19.5312 64.8926-19.5312Q66.9922-19.5312 68.3838-20.9473Q69.7754-22.3633 69.7754-24.4629Q69.7754-26.3672 68.3105-27.832L61.0352-35.1562L68.3105-42.5293Q69.8242-43.9941 69.8242-45.8984Q69.8242-47.998 68.4082-49.4141Q66.9922-50.8301 64.9414-50.8301Q62.7441-50.8301 61.2793-49.3652L54.0039-42.1387L46.7285-49.3652Q45.3125-50.7812 43.1152-50.7812Q41.0645-50.7812 39.6484-49.3896Q38.2324-47.998 38.2324-45.8984Q38.2324-43.9941 39.6973-42.5293L47.0703-35.1562L39.6973-27.832Q38.2324-26.3672 38.2324-24.4629Q38.2324-22.3633 39.6484-20.9473Q41.0645-19.5312 43.1152-19.5312Z"/>
  </g>
  <g id="Bold-S" transform="matrix(1 0 0 1 2286.78 696)">
   <path class="hierarchical-0:secondary SFSymbolsPreview4D4D4D" d="M12.5977-25.4883L43.4082 5.37109Q48.1934 10.1074 53.1982 10.1318Q58.2031 10.1562 62.9395 5.41992L93.8477-25.5371Q98.6328-30.2734 98.6084-35.3027Q98.584-40.332 93.7988-45.0684L62.9883-75.8789Q58.252-80.6152 53.2227-80.6396Q48.1934-80.6641 43.457-75.9277L12.5488-45.0195Q7.8125-40.2832 7.83691-35.2539Q7.86133-30.2246 12.5977-25.4883ZM20.9473-32.1289Q19.4336-33.6914 19.3848-35.2295Q19.3359-36.7676 20.9473-38.4277L50.0488-67.4805Q51.709-69.1406 53.2471-69.1162Q54.7852-69.0918 56.2988-67.5293L85.4492-38.3789Q87.0117-36.8164 87.0361-35.3027Q87.0605-33.7891 85.4492-32.1289L56.3477-3.02734Q54.6875-1.36719 53.1494-1.3916Q51.6113-1.41602 50.0488-2.97852Z"/>
   <path class="hierarchical-1:primary SFSymbolsPreview212121" d="M41.6504-19.2871Q43.6523-19.2871 44.9219-20.6055L53.2227-28.9062L61.5723-20.6055Q62.8906-19.2871 64.8438-19.2871Q66.6992-19.2871 67.9688-20.5811Q69.2383-21.875 69.2383-23.7305Q69.2383-25.4883 67.9199-26.8066L59.5215-35.2051L67.9199-43.6523Q69.2383-44.9707 69.2383-46.6797Q69.2383-48.5352 67.9688-49.8047Q66.6992-51.0742 64.8438-51.0742Q62.9883-51.0742 61.6699-49.8047L53.2227-41.4062L44.873-49.7559Q43.6035-51.0742 41.6504-51.0742Q39.8438-51.0742 38.5498-49.8047Q37.2559-48.5352 37.2559-46.6309Q37.2559-44.9219 38.5742-43.6035L46.9727-35.2051L38.5742-26.7578Q37.2559-25.4883 37.2559-23.7305Q37.2559-21.875 38.5498-20.5811Q39.8438-19.2871 41.6504-19.2871Z"/>
  </g>
  <g id="Semibold-S" transform="matrix(1 0 0 1 1990.63 696)">
   <path class="hierarchical-0:secondary SFSymbolsPreview4D4D4D" d="M12.4512-25.8301L43.2129 4.93164Q47.8516 9.52148 52.6367 9.5459Q57.4219 9.57031 62.0117 5.0293L92.8711-25.8789Q97.5098-30.5176 97.4854-35.3027Q97.4609-40.0879 92.7734-44.6777L62.0605-75.4395Q57.4219-80.0293 52.6611-80.0537Q47.9004-80.0781 43.2617-75.5371L12.4023-44.6289Q7.76367-39.9902 7.8125-35.2051Q7.86133-30.4199 12.4512-25.8301ZM19.6289-31.8359Q17.9688-33.5449 17.9443-35.2295Q17.9199-36.9141 19.6289-38.7207L49.1699-68.2129Q50.9766-70.0195 52.6611-69.9951Q54.3457-69.9707 56.0547-68.2617L85.6445-38.6719Q87.3535-36.9629 87.3779-35.2783Q87.4023-33.5938 85.6445-31.7871L56.0547-2.29492Q54.2969-0.488281 52.5879-0.512695Q50.8789-0.537109 49.2188-2.19727Z"/>
   <path class="hierarchical-1:primary SFSymbolsPreview212121" d="M40.5762-19.1406Q42.3828-19.1406 43.5547-20.3125L52.6367-29.4434L61.7188-20.3125Q62.9395-19.1406 64.6973-19.1406Q66.4062-19.1406 67.5781-20.3125Q68.75-21.4844 68.75-23.2422Q68.75-24.8535 67.5293-26.0742L58.4473-35.2051L67.5781-44.3848Q68.7988-45.6055 68.7988-47.168Q68.7988-48.9258 67.6025-50.0977Q66.4062-51.2695 64.7461-51.2695Q63.0371-51.2695 61.8164-50.0488L52.6367-40.918L43.5059-50Q42.334-51.2207 40.5762-51.2207Q38.916-51.2207 37.7197-50.0488Q36.5234-48.877 36.5234-47.168Q36.5234-45.5078 37.7441-44.3359L46.875-35.2051L37.7441-26.0254Q36.5234-24.8535 36.5234-23.2422Q36.5234-21.4844 37.7197-20.3125Q38.916-19.1406 40.5762-19.1406Z"/>
  </g>
  <g id="Medium-S" transform="matrix(1 0 0 1 1694.33 696)">
   <path class="hierarchical-0:secondary SFSymbolsPreview4D4D4D" d="M12.3535-26.123L43.1152 4.58984Q47.6074 9.08203 52.1973 9.13086Q56.7871 9.17969 61.3281 4.6875L92.1387-26.1719Q96.6797-30.7129 96.6309-35.3027Q96.582-39.8926 92.041-44.3848L61.377-75.0977Q56.8359-79.5898 52.2461-79.6387Q47.6562-79.6875 43.1152-75.1953L12.3047-44.3359Q7.76367-39.7949 7.8125-35.2051Q7.86133-30.6152 12.3535-26.123ZM18.6035-31.6406Q16.8945-33.3984 16.8701-35.2295Q16.8457-37.0605 18.6523-38.916L48.5352-68.7988Q50.4395-70.6543 52.2461-70.6299Q54.0527-70.6055 55.8105-68.8477L85.8398-38.8672Q87.5977-37.1094 87.6221-35.2783Q87.6465-33.4473 85.791-31.5918L55.8594-1.70898Q54.0527 0.146484 52.1973 0.146484Q50.3418 0.146484 48.584-1.61133Z"/>
   <path class="hierarchical-1:primary SFSymbolsPreview212121" d="M39.8438-18.9941Q41.5039-18.9941 42.5781-20.1172L52.2461-29.834L61.9141-20.1172Q63.0859-18.9941 64.6973-18.9941Q66.2598-18.9941 67.3584-20.1172Q68.457-21.2402 68.457-22.8516Q68.457-24.3652 67.334-25.5371L57.666-35.2051L67.3828-44.9707Q68.5059-46.0938 68.5059-47.5586Q68.5059-49.1699 67.4072-50.2686Q66.3086-51.3672 64.6973-51.3672Q63.1836-51.3672 62.0117-50.2441L52.2461-40.5273L42.5293-50.2441Q41.4551-51.3672 39.8438-51.3672Q38.2812-51.3672 37.1582-50.2686Q36.0352-49.1699 36.0352-47.5586Q36.0352-45.9961 37.1582-44.9219L46.8262-35.2051L37.1582-25.4883Q36.0352-24.3652 36.0352-22.8516Q36.0352-21.2402 37.1582-20.1172Q38.2812-18.9941 39.8438-18.9941Z"/>
  </g>
  <g id="Regular-S" transform="matrix(1 0 0 1 1398.16 696)">
   <path class="hierarchical-0:secondary SFSymbolsPreview4D4D4D" d="M12.2559-26.4648L42.9199 4.15039Q47.3145 8.54492 51.6602 8.59375Q56.0059 8.64258 60.4004 4.29688L91.2109-26.5625Q95.6055-30.957 95.5566-35.3027Q95.5078-39.6484 91.0645-44.043L60.4492-74.6582Q56.0547-79.0527 51.709-79.1016Q47.3633-79.1504 42.9688-74.8047L12.1582-43.9453Q7.76367-39.5508 7.8125-35.2051Q7.86133-30.8594 12.2559-26.4648ZM17.334-31.3477Q15.4785-33.252 15.4541-35.2295Q15.4297-37.207 17.3828-39.209L47.7051-69.5312Q49.707-71.5332 51.6846-71.5088Q53.6621-71.4844 55.5664-69.5801L86.0352-39.1602Q87.9395-37.2559 87.9395-35.2783Q87.9395-33.3008 85.9863-31.2988L55.6152-0.976562Q53.6621 1.02539 51.6602 1.02539Q49.6582 1.02539 47.7539-0.878906Z"/>
   <path class="hierarchical-1:primary SFSymbolsPreview212121" d="M38.8184-18.8477Q40.332-18.8477 41.3086-19.873L51.709-30.3223L62.1094-19.873Q63.1836-18.8477 64.5996-18.8477Q66.0156-18.8477 67.041-19.873Q68.0664-20.8984 68.0664-22.3633Q68.0664-23.7793 67.041-24.8047L56.6406-35.2051L67.0898-45.7031Q68.1152-46.7285 68.1152-48.0957Q68.1152-49.5605 67.0898-50.5615Q66.0645-51.5625 64.6484-51.5625Q63.3301-51.5625 62.2559-50.5371L51.709-40.0391L41.2109-50.4883Q40.2832-51.5137 38.8184-51.5137Q37.4023-51.5137 36.377-50.5127Q35.3516-49.5117 35.3516-48.0469Q35.3516-46.6309 36.377-45.6543L46.7773-35.2051L36.377-24.7559Q35.3516-23.7793 35.3516-22.3633Q35.3516-20.8984 36.377-19.873Q37.4023-18.8477 38.8184-18.8477Z"/>
  </g>
  <g id="Light-S" transform="matrix(1 0 0 1 1102.35 696)">
   <path class="hierarchical-0:secondary SFSymbolsPreview4D4D4D" d="M11.9141-27.0508L42.5781 3.61328Q46.6797 7.66602 50.7812 7.69043Q54.8828 7.71484 58.9844 3.71094L89.6973-27.0996Q93.75-31.1523 93.75-35.2539Q93.75-39.3555 89.6484-43.457L59.0332-74.0723Q54.9316-78.1738 50.8301-78.1982Q46.7285-78.2227 42.627-74.1699L11.8652-43.4082Q7.76367-39.3066 7.8125-35.2295Q7.86133-31.1523 11.9141-27.0508ZM15.8203-30.7617Q13.6719-32.959 13.6719-35.2295Q13.6719-37.5 15.8691-39.7461L46.2891-70.1172Q48.5352-72.3633 50.8057-72.3633Q53.0762-72.3633 55.2246-70.166L85.6934-39.6973Q87.8906-37.5488 87.8906-35.2539Q87.8906-32.959 85.6934-30.7617L55.2734-0.341797Q53.0762 1.9043 50.7812 1.87988Q48.4863 1.85547 46.2891-0.292969Z"/>
   <path class="hierarchical-1:primary SFSymbolsPreview212121" d="M37.5977-19.2871Q38.7695-19.2871 39.5996-20.1172L50.7812-31.3965L62.0117-20.1172Q62.8906-19.2871 64.0137-19.2871Q65.1367-19.2871 65.9424-20.0684Q66.748-20.8496 66.748-22.0215Q66.748-23.1445 65.918-23.9746L54.6875-35.2051L65.9668-46.5332Q66.7969-47.3633 66.7969-48.4375Q66.7969-49.5605 65.9912-50.3418Q65.1855-51.123 64.0625-51.123Q62.9883-51.123 62.1094-50.293L50.7812-39.0137L39.502-50.2441Q38.7207-51.0742 37.5977-51.0742Q36.4746-51.0742 35.6689-50.3174Q34.8633-49.5605 34.8633-48.3887Q34.8633-47.2656 35.6934-46.4844L46.9238-35.2051L35.6934-23.9258Q34.8633-23.1445 34.8633-22.0215Q34.8633-20.8496 35.6689-20.0684Q36.4746-19.2871 37.5977-19.2871Z"/>
  </g>
  <g id="Thin-S" transform="matrix(1 0 0 1 806.813 696)">
   <path class="hierarchical-0:secondary SFSymbolsPreview4D4D4D" d="M11.5234-27.7832L42.1875 2.83203Q45.8496 6.54297 49.6338 6.54297Q53.418 6.54297 57.0801 2.88086L87.6953-27.832Q91.3574-31.4453 91.3818-35.2295Q91.4062-39.0137 87.7441-42.7246L57.1289-73.3398Q53.418-77.0508 49.6582-77.0264Q45.8984-77.002 42.1875-73.3398L11.4746-42.6758Q7.8125-38.9648 7.8125-35.2295Q7.8125-31.4941 11.5234-27.7832ZM13.8672-30.0293Q11.3281-32.5684 11.3281-35.2295Q11.3281-37.8906 13.8672-40.4297L44.3848-70.9473Q46.9727-73.4863 49.6094-73.4863Q52.2461-73.4863 54.7852-70.9473L85.3027-40.4785Q87.793-37.9395 87.8418-35.2539Q87.8906-32.5684 85.3027-29.9805L54.7852 0.488281Q52.2461 3.02734 49.5605 3.00293Q46.875 2.97852 44.3848 0.488281Z"/>
   <path class="hierarchical-1:primary SFSymbolsPreview212121" d="M35.9375-19.873Q36.6699-19.873 37.2559-20.459L49.5605-32.7637L61.8652-20.459Q62.4512-19.873 63.2324-19.873Q63.916-19.873 64.4287-20.3613Q64.9414-20.8496 64.9414-21.5332Q64.9414-22.2656 64.4043-22.8516L52.002-35.2051L64.4043-47.6074Q64.9902-48.1934 64.9902-48.877Q64.9902-49.6094 64.4775-50.0732Q63.9648-50.5371 63.2324-50.5371Q62.5-50.5371 61.9141-49.9512L49.5605-37.6465L37.207-49.9512Q36.6699-50.5371 35.9375-50.5371Q35.2051-50.5371 34.6924-50.0488Q34.1797-49.5605 34.1797-48.877Q34.1797-48.1445 34.7656-47.6074L47.1191-35.2051L34.7656-22.8027Q34.1797-22.2656 34.1797-21.5332Q34.1797-20.8496 34.6924-20.3613Q35.2051-19.873 35.9375-19.873Z"/>
  </g>
  <g id="Ultralight-S" transform="matrix(1 0 0 1 510.712 696)">
   <path class="hierarchical-0:secondary SFSymbolsPreview4D4D4D" d="M11.2793-28.1738L41.9434 2.49023Q45.459 5.95703 49.0723 5.93262Q52.6855 5.9082 56.1035 2.49023L86.6699-28.1738Q90.0879-31.5918 90.1611-35.2051Q90.2344-38.8184 86.7676-42.334L56.1523-72.9492Q52.6367-76.4648 49.0479-76.416Q45.459-76.3672 41.9922-72.9004L11.2793-42.334Q7.8125-38.8184 7.8125-35.2539Q7.8125-31.6895 11.2793-28.1738ZM12.8418-29.6387Q10.1074-32.3242 10.1318-35.2051Q10.1562-38.0859 12.8418-40.8203L43.4082-71.3379Q46.1426-74.0723 48.999-74.0723Q51.8555-74.0723 54.5898-71.3379L85.0586-40.8203Q87.7441-38.1836 87.793-35.2539Q87.8418-32.3242 85.1074-29.6387L54.5898 0.878906Q51.8555 3.61328 48.9746 3.58887Q46.0938 3.56445 43.4082 0.878906Z"/>
   <path class="hierarchical-1:primary SFSymbolsPreview212121" d="M35.0586-20.166Q35.5957-20.166 36.084-20.6055L48.9258-33.4961L61.8164-20.6055Q62.2559-20.166 62.793-20.166Q63.3301-20.166 63.6963-20.4834Q64.0625-20.8008 64.0625-21.2891Q64.0625-21.8262 63.623-22.2656L50.6836-35.2051L63.623-48.1445Q64.0625-48.584 64.0625-49.0723Q64.0625-49.6094 63.6963-49.9268Q63.3301-50.2441 62.793-50.2441Q62.2559-50.2441 61.8164-49.8047L48.9258-36.9629L36.084-49.8047Q35.5957-50.2441 35.0586-50.2441Q34.5703-50.2441 34.2041-49.9268Q33.8379-49.6094 33.8379-49.1211Q33.8379-48.584 34.2773-48.1445L47.2168-35.2051L34.2773-22.2656Q33.8379-21.8262 33.8379-21.2891Q33.8379-20.8008 34.2041-20.4834Q34.5703-20.166 35.0586-20.166Z"/>
  </g>
 </g>
</svg>
