<?xml version="1.0" encoding="UTF-8"?>
<!--Generator: Apple Native CoreSVG 149-->
<!DOCTYPE svg
PUBLIC "-//W3C//DTD SVG 1.1//EN"
       "http://www.w3.org/Graphics/SVG/1.1/DTD/svg11.dtd">
<svg version="1.1" xmlns="http://www.w3.org/2000/svg" xmlns:xlink="http://www.w3.org/1999/xlink" width="3300" height="2200">
 <!--glyph: "uni1002E2.medium", point size: 100.000000, font version: "Version 16.0d18e1", template writer version: "8"-->
 <g id="Notes">
  <rect height="2200" id="artboard" style="fill:white;opacity:1" width="3300" x="0" y="0"/>
  <line id="" style="fill:none;stroke:black;opacity:1;stroke-width:0.5;" x1="263" x2="3036" y1="292" y2="292"/>
  <text style="stroke:none;fill:black;font-family:-apple-system,&quot;SF Pro Display&quot;,&quot;SF Pro Text&quot;,Helvetica,sans-serif;font-weight:bold;" transform="matrix(1 0 0 1 263 322)">Weight/Scale Variations</text>
  <text style="stroke:none;fill:black;font-family:-apple-system,&quot;SF Pro Display&quot;,&quot;SF Pro Text&quot;,Helvetica,sans-serif;text-anchor:middle;" transform="matrix(1 0 0 1 559.711 322)">Ultralight</text>
  <text style="stroke:none;fill:black;font-family:-apple-system,&quot;SF Pro Display&quot;,&quot;SF Pro Text&quot;,Helvetica,sans-serif;text-anchor:middle;" transform="matrix(1 0 0 1 856.422 322)">Thin</text>
  <text style="stroke:none;fill:black;font-family:-apple-system,&quot;SF Pro Display&quot;,&quot;SF Pro Text&quot;,Helvetica,sans-serif;text-anchor:middle;" transform="matrix(1 0 0 1 1153.13 322)">Light</text>
  <text style="stroke:none;fill:black;font-family:-apple-system,&quot;SF Pro Display&quot;,&quot;SF Pro Text&quot;,Helvetica,sans-serif;text-anchor:middle;" transform="matrix(1 0 0 1 1449.84 322)">Regular</text>
  <text style="stroke:none;fill:black;font-family:-apple-system,&quot;SF Pro Display&quot;,&quot;SF Pro Text&quot;,Helvetica,sans-serif;text-anchor:middle;" transform="matrix(1 0 0 1 1746.56 322)">Medium</text>
  <text style="stroke:none;fill:black;font-family:-apple-system,&quot;SF Pro Display&quot;,&quot;SF Pro Text&quot;,Helvetica,sans-serif;text-anchor:middle;" transform="matrix(1 0 0 1 2043.27 322)">Semibold</text>
  <text style="stroke:none;fill:black;font-family:-apple-system,&quot;SF Pro Display&quot;,&quot;SF Pro Text&quot;,Helvetica,sans-serif;text-anchor:middle;" transform="matrix(1 0 0 1 2339.98 322)">Bold</text>
  <text style="stroke:none;fill:black;font-family:-apple-system,&quot;SF Pro Display&quot;,&quot;SF Pro Text&quot;,Helvetica,sans-serif;text-anchor:middle;" transform="matrix(1 0 0 1 2636.69 322)">Heavy</text>
  <text style="stroke:none;fill:black;font-family:-apple-system,&quot;SF Pro Display&quot;,&quot;SF Pro Text&quot;,Helvetica,sans-serif;text-anchor:middle;" transform="matrix(1 0 0 1 2933.4 322)">Black</text>
  <line id="" style="fill:none;stroke:black;opacity:1;stroke-width:0.5;" x1="263" x2="3036" y1="1903" y2="1903"/>
  <g id="" transform="matrix(1 0 0 1 263 1933)">
   <path d="M9.24805 0.830078C13.5547 0.830078 17.1387-2.74414 17.1387-7.05078C17.1387-11.3574 13.5449-14.9316 9.23828-14.9316C4.94141-14.9316 1.36719-11.3574 1.36719-7.05078C1.36719-2.74414 4.95117 0.830078 9.24805 0.830078ZM9.24805-0.654297C5.70312-0.654297 2.87109-3.49609 2.87109-7.05078C2.87109-10.6055 5.69336-13.4473 9.23828-13.4473C12.793-13.4473 15.6348-10.6055 15.6445-7.05078C15.6543-3.49609 12.8027-0.654297 9.24805-0.654297ZM6.39648-6.31836L8.50586-6.31836L8.50586-4.19922C8.50586-3.75977 8.79883-3.45703 9.22852-3.45703C9.67773-3.45703 9.9707-3.75977 9.9707-4.19922L9.9707-6.31836L12.0996-6.31836C12.5391-6.31836 12.8418-6.61133 12.8418-7.04102C12.8418-7.48047 12.5391-7.7832 12.0996-7.7832L9.9707-7.7832L9.9707-9.89258C9.9707-10.3418 9.67773-10.6445 9.22852-10.6445C8.79883-10.6445 8.50586-10.3418 8.50586-9.89258L8.50586-7.7832L6.39648-7.7832C5.94727-7.7832 5.64453-7.48047 5.64453-7.04102C5.64453-6.61133 5.94727-6.31836 6.39648-6.31836Z"/>
  </g>
  <g id="" transform="matrix(1 0 0 1 281.506 1933)">
   <path d="M11.709 2.91016C17.1582 2.91016 21.6699-1.61133 21.6699-7.05078C21.6699-12.5 17.1484-17.0117 11.6992-17.0117C6.25977-17.0117 1.74805-12.5 1.74805-7.05078C1.74805-1.61133 6.26953 2.91016 11.709 2.91016ZM11.709 1.25C7.09961 1.25 3.41797-2.44141 3.41797-7.05078C3.41797-11.6602 7.08984-15.3516 11.6992-15.3516C16.3086-15.3516 20-11.6602 20.0098-7.05078C20.0195-2.44141 16.3184 1.25 11.709 1.25ZM7.98828-6.23047L10.8789-6.23047L10.8789-3.32031C10.8789-2.83203 11.2109-2.5 11.6895-2.5C12.1777-2.5 12.5195-2.83203 12.5195-3.32031L12.5195-6.23047L15.4297-6.23047C15.918-6.23047 16.25-6.5625 16.25-7.04102C16.25-7.5293 15.918-7.87109 15.4297-7.87109L12.5195-7.87109L12.5195-10.7617C12.5195-11.2695 12.1777-11.6016 11.6895-11.6016C11.2109-11.6016 10.8789-11.2598 10.8789-10.7617L10.8789-7.87109L7.98828-7.87109C7.48047-7.87109 7.14844-7.5293 7.14844-7.04102C7.14844-6.5625 7.49023-6.23047 7.98828-6.23047Z"/>
  </g>
  <g id="" transform="matrix(1 0 0 1 304.924 1933)">
   <path d="M14.9707 5.66406C21.9336 5.66406 27.6953-0.0976562 27.6953-7.05078C27.6953-14.0137 21.9238-19.7754 14.9609-19.7754C8.00781-19.7754 2.25586-14.0137 2.25586-7.05078C2.25586-0.0976562 8.01758 5.66406 14.9707 5.66406ZM14.9707 3.84766C8.93555 3.84766 4.08203-1.01562 4.08203-7.05078C4.08203-13.0957 8.92578-17.9492 14.9609-17.9492C21.0059-17.9492 25.8594-13.0957 25.8691-7.05078C25.8789-1.01562 21.0156 3.84766 14.9707 3.84766ZM10.0586-6.14258L14.0625-6.14258L14.0625-2.12891C14.0625-1.5918 14.4336-1.2207 14.9512-1.2207C15.4883-1.2207 15.8594-1.5918 15.8594-2.12891L15.8594-6.14258L19.8828-6.14258C20.4102-6.14258 20.791-6.51367 20.791-7.03125C20.791-7.56836 20.4199-7.94922 19.8828-7.94922L15.8594-7.94922L15.8594-11.9531C15.8594-12.5098 15.4883-12.8809 14.9512-12.8809C14.4336-12.8809 14.0625-12.5 14.0625-11.9531L14.0625-7.94922L10.0586-7.94922C9.50195-7.94922 9.13086-7.56836 9.13086-7.03125C9.13086-6.51367 9.51172-6.14258 10.0586-6.14258Z"/>
  </g>
  <text style="stroke:none;fill:black;font-family:-apple-system,&quot;SF Pro Display&quot;,&quot;SF Pro Text&quot;,Helvetica,sans-serif;font-weight:bold;" transform="matrix(1 0 0 1 263 1953)">Design Variations</text>
  <text style="stroke:none;fill:black;font-family:-apple-system,&quot;SF Pro Display&quot;,&quot;SF Pro Text&quot;,Helvetica,sans-serif;" transform="matrix(1 0 0 1 263 1971)">Symbols are supported in up to nine weights and three scales.</text>
  <text style="stroke:none;fill:black;font-family:-apple-system,&quot;SF Pro Display&quot;,&quot;SF Pro Text&quot;,Helvetica,sans-serif;" transform="matrix(1 0 0 1 263 1989)">For optimal layout with text and other symbols, vertically align</text>
  <text style="stroke:none;fill:black;font-family:-apple-system,&quot;SF Pro Display&quot;,&quot;SF Pro Text&quot;,Helvetica,sans-serif;" transform="matrix(1 0 0 1 263 2007)">symbols with the adjacent text.</text>
  <line id="" style="fill:none;stroke:#00AEEF;stroke-width:0.5;opacity:1.0;" x1="776" x2="776" y1="1919" y2="1933"/>
  <g id="" transform="matrix(1 0 0 1 776 1933)">
   <path d="M3.31055 0.126953C3.82812 0.126953 4.08203-0.0683594 4.26758-0.605469L5.52734-4.0625L11.2891-4.0625L12.5488-0.605469C12.7344-0.0683594 12.9883 0.126953 13.4961 0.126953C14.0137 0.126953 14.3457-0.185547 14.3457-0.673828C14.3457-0.839844 14.3164-0.986328 14.2383-1.20117L9.6582-13.3887C9.43359-13.9941 9.0332-14.2871 8.4082-14.2871C7.80273-14.2871 7.39258-13.9941 7.17773-13.3984L2.59766-1.19141C2.51953-0.976562 2.49023-0.830078 2.49023-0.664062C2.49023-0.175781 2.80273 0.126953 3.31055 0.126953ZM6.00586-5.53711L8.37891-12.1094L8.42773-12.1094L10.8008-5.53711Z"/>
  </g>
  <line id="" style="fill:none;stroke:#00AEEF;stroke-width:0.5;opacity:1.0;" x1="792.836" x2="792.836" y1="1919" y2="1933"/>
  <text style="stroke:none;fill:black;font-family:-apple-system,&quot;SF Pro Display&quot;,&quot;SF Pro Text&quot;,Helvetica,sans-serif;font-weight:bold;" transform="matrix(1 0 0 1 776 1953)">Margins</text>
  <text style="stroke:none;fill:black;font-family:-apple-system,&quot;SF Pro Display&quot;,&quot;SF Pro Text&quot;,Helvetica,sans-serif;" transform="matrix(1 0 0 1 776 1971)">Leading and trailing margins on the left and right side of each symbol</text>
  <text style="stroke:none;fill:black;font-family:-apple-system,&quot;SF Pro Display&quot;,&quot;SF Pro Text&quot;,Helvetica,sans-serif;" transform="matrix(1 0 0 1 776 1989)">can be adjusted by modifying the x-location of the margin guidelines.</text>
  <text style="stroke:none;fill:black;font-family:-apple-system,&quot;SF Pro Display&quot;,&quot;SF Pro Text&quot;,Helvetica,sans-serif;" transform="matrix(1 0 0 1 776 2007)">Modifications are automatically applied proportionally to all</text>
  <text style="stroke:none;fill:black;font-family:-apple-system,&quot;SF Pro Display&quot;,&quot;SF Pro Text&quot;,Helvetica,sans-serif;" transform="matrix(1 0 0 1 776 2025)">scales and weights.</text>
  <g id="" transform="matrix(1 0 0 1 1289 1933)">
   <path d="M2.8418 1.86523L4.54102 3.57422C5.40039 4.44336 6.38672 4.38477 7.31445 3.35938L17.4902-7.85156C17.7539-7.76367 18.0273-7.7832 18.3398-7.8418L19.4043-8.03711L20.0684-7.36328L20.0293-6.80664C19.9902-6.30859 20.1172-5.92773 20.6055-5.44922L21.3672-4.70703C21.8457-4.22852 22.4609-4.19922 22.9297-4.66797L25.8398-7.58789C26.3086-8.05664 26.2891-8.65234 25.8105-9.13086L25.0391-9.89258C24.5605-10.3711 24.1895-10.5273 23.7109-10.4883L23.1348-10.4395L22.4902-11.0742L22.7344-12.1973C22.8613-12.7637 22.7051-13.2031 22.1191-13.7891L19.9219-15.9766C16.582-19.2969 12.1484-19.2188 9.25781-16.3281C8.83789-15.918 8.80859-15.3418 9.04297-14.9512C9.27734-14.5898 9.73633-14.3555 10.3809-14.5215C11.8457-14.8633 13.3691-14.9219 14.7949-13.9844L14.209-12.5293C14.0137-12.0508 13.9844-11.6504 14.1113-11.2891L3.04688-0.898438C2.06055 0.0195312 1.98242 0.996094 2.8418 1.86523ZM10.752-15.957C13.1836-17.7344 16.4746-17.4316 18.7012-15.2051L21.1328-12.793C21.3672-12.5586 21.4062-12.373 21.3379-12.0312L21.0156-10.5469L22.5195-9.0625L23.5059-9.12109C23.7598-9.13086 23.8379-9.11133 24.0332-8.91602L24.6094-8.33984L22.168-5.89844L21.5918-6.47461C21.3965-6.66992 21.3672-6.74805 21.377-7.01172L21.4453-7.98828L19.9512-9.47266L18.4277-9.21875C18.1055-9.15039 17.959-9.17969 17.7148-9.41406L15.7129-11.416C15.459-11.6504 15.4297-11.8164 15.5859-12.1875L16.4648-14.2773C14.9023-15.7324 12.8711-16.3574 10.8398-15.7617C10.6836-15.7227 10.625-15.8496 10.752-15.957ZM5.27344 2.30469L4.10156 1.14258C3.63281 0.683594 3.74023 0.341797 4.14062-0.0195312L14.9512-10.1953L16.416-8.71094L6.42578 2.27539C6.07422 2.67578 5.74219 2.77344 5.27344 2.30469Z"/>
  </g>
  <text style="stroke:none;fill:black;font-family:-apple-system,&quot;SF Pro Display&quot;,&quot;SF Pro Text&quot;,Helvetica,sans-serif;font-weight:bold;" transform="matrix(1 0 0 1 1289 1953)">Exporting</text>
  <text style="stroke:none;fill:black;font-family:-apple-system,&quot;SF Pro Display&quot;,&quot;SF Pro Text&quot;,Helvetica,sans-serif;" transform="matrix(1 0 0 1 1289 1971)">Symbols should be outlined when exporting to ensure the</text>
  <text style="stroke:none;fill:black;font-family:-apple-system,&quot;SF Pro Display&quot;,&quot;SF Pro Text&quot;,Helvetica,sans-serif;" transform="matrix(1 0 0 1 1289 1989)">design is preserved when submitting to Xcode.</text>
  <text id="template-version" style="stroke:none;fill:black;font-family:-apple-system,&quot;SF Pro Display&quot;,&quot;SF Pro Text&quot;,Helvetica,sans-serif;text-anchor:end;" transform="matrix(1 0 0 1 3036 1933)">Template v.2.0</text>
  <text style="stroke:none;fill:black;font-family:-apple-system,&quot;SF Pro Display&quot;,&quot;SF Pro Text&quot;,Helvetica,sans-serif;text-anchor:end;" transform="matrix(1 0 0 1 3036 1951)">Requires Xcode 12 or greater</text>
  <text style="stroke:none;fill:black;font-family:-apple-system,&quot;SF Pro Display&quot;,&quot;SF Pro Text&quot;,Helvetica,sans-serif;text-anchor:end;" transform="matrix(1 0 0 1 3036 1969)">Generated from tag.fill</text>
  <text style="stroke:none;fill:black;font-family:-apple-system,&quot;SF Pro Display&quot;,&quot;SF Pro Text&quot;,Helvetica,sans-serif;text-anchor:end;" transform="matrix(1 0 0 1 3036 1987)">Typeset at 100 points</text>
  <text style="stroke:none;fill:black;font-family:-apple-system,&quot;SF Pro Display&quot;,&quot;SF Pro Text&quot;,Helvetica,sans-serif;" transform="matrix(1 0 0 1 263 726)">Small</text>
  <text style="stroke:none;fill:black;font-family:-apple-system,&quot;SF Pro Display&quot;,&quot;SF Pro Text&quot;,Helvetica,sans-serif;" transform="matrix(1 0 0 1 263 1156)">Medium</text>
  <text style="stroke:none;fill:black;font-family:-apple-system,&quot;SF Pro Display&quot;,&quot;SF Pro Text&quot;,Helvetica,sans-serif;" transform="matrix(1 0 0 1 263 1586)">Large</text>
 </g>
 <g id="Guides">
  <g id="H-reference" style="fill:#27AAE1;stroke:none;" transform="matrix(1 0 0 1 339 696)">
   <path d="M0.976562 0L3.66211 0L12.9883-24.4629L45.752-24.4629L55.127 0L57.7637 0L30.6152-70.459L28.125-70.459ZM29.3457-67.1387L29.4434-67.1387L44.873-26.709L13.8672-26.709Z"/>
  </g>
  <line id="Baseline-S" style="fill:none;stroke:#27AAE1;opacity:1;stroke-width:0.5;" x1="263" x2="3036" y1="696" y2="696"/>
  <line id="Capline-S" style="fill:none;stroke:#27AAE1;opacity:1;stroke-width:0.5;" x1="263" x2="3036" y1="625.541" y2="625.541"/>
  <g id="H-reference" style="fill:#27AAE1;stroke:none;" transform="matrix(1 0 0 1 339 1126)">
   <path d="M0.976562 0L3.66211 0L12.9883-24.4629L45.752-24.4629L55.127 0L57.7637 0L30.6152-70.459L28.125-70.459ZM29.3457-67.1387L29.4434-67.1387L44.873-26.709L13.8672-26.709Z"/>
  </g>
  <line id="Baseline-M" style="fill:none;stroke:#27AAE1;opacity:1;stroke-width:0.5;" x1="263" x2="3036" y1="1126" y2="1126"/>
  <line id="Capline-M" style="fill:none;stroke:#27AAE1;opacity:1;stroke-width:0.5;" x1="263" x2="3036" y1="1055.54" y2="1055.54"/>
  <g id="H-reference" style="fill:#27AAE1;stroke:none;" transform="matrix(1 0 0 1 339 1556)">
   <path d="M0.976562 0L3.66211 0L12.9883-24.4629L45.752-24.4629L55.127 0L57.7637 0L30.6152-70.459L28.125-70.459ZM29.3457-67.1387L29.4434-67.1387L44.873-26.709L13.8672-26.709Z"/>
  </g>
  <line id="Baseline-L" style="fill:none;stroke:#27AAE1;opacity:1;stroke-width:0.5;" x1="263" x2="3036" y1="1556" y2="1556"/>
  <line id="Capline-L" style="fill:none;stroke:#27AAE1;opacity:1;stroke-width:0.5;" x1="263" x2="3036" y1="1485.54" y2="1485.54"/>
  <line id="left-margin" style="fill:none;stroke:#00AEEF;stroke-width:0.5;opacity:1.0;" x1="1384.07" x2="1384.07" y1="1030.79" y2="1150.12"/>
  <line id="right-margin" style="fill:none;stroke:#00AEEF;stroke-width:0.5;opacity:1.0;" x1="1515.62" x2="1515.62" y1="1030.79" y2="1150.12"/>
 </g>
 <g id="Symbols">
  <g id="Black-L" transform="matrix(1 0 0 1 2842.9 1556)">
   <path d="M97.2168 39.1602L159.863-23.4863C165.527-29.1504 166.553-32.9102 166.553-41.6016L166.553-65.3809C166.553-73.2422 164.648-76.7578 158.496-82.8613L144.287-97.0703C138.135-103.223 134.668-105.176 126.807-105.176L103.027-105.176C94.3359-105.176 90.8203-103.857 85.1562-98.1934L22.5098-35.5469C11.8164-24.8535 11.7188-12.6953 22.5098-1.9043L63.5742 39.1113C74.3652 49.9023 86.5234 49.8535 97.2168 39.1602ZM114.111-45.5078C108.154-45.5078 103.516-50.1465 103.516-56.1035C103.516-62.0117 108.154-66.6504 114.111-66.6504C120.068-66.6504 124.707-62.0117 124.707-56.1035C124.707-50.1465 120.068-45.5078 114.111-45.5078Z"/>
  </g>
  <g id="Heavy-L" transform="matrix(1 0 0 1 2547.63 1556)">
   <path d="M94.9707 37.3535L157.373-25.1465C162.744-30.5176 163.623-33.9355 163.623-42.1387L163.623-65.9668C163.623-73.4863 161.865-76.5625 156.055-82.4219L141.748-96.6797C135.889-102.539 132.812-104.297 125.293-104.297L101.465-104.297C93.2617-104.297 89.9902-103.223 84.6191-97.8516L22.168-35.4492C11.9141-25.2441 11.8652-13.7695 22.168-3.4668L62.9883 37.3047C73.3398 47.6074 84.7168 47.5586 94.9707 37.3535ZM113.135-47.168C107.471-47.168 103.174-51.5625 103.174-57.1777C103.174-62.7441 107.471-67.1387 113.135-67.1387C118.799-67.1387 123.096-62.7441 123.096-57.1777C123.096-51.5625 118.799-47.168 113.135-47.168Z"/>
  </g>
  <g id="Bold-L" transform="matrix(1 0 0 1 2252.55 1556)">
   <path d="M92.4316 35.3027L154.59-26.9531C159.668-31.9824 160.352-35.0586 160.352-42.7246L160.352-66.6016C160.352-73.6816 158.74-76.416 153.271-81.8359L138.867-96.2891C133.398-101.709 130.713-103.369 123.633-103.369L99.7559-103.369C92.041-103.369 89.1113-102.539 84.0332-97.5098L21.7773-35.3516C12.0605-25.6348 12.0117-15.0391 21.8262-5.22461L62.3535 35.2539C72.168 45.0684 82.7637 45.0195 92.4316 35.3027ZM112.061-49.0723C106.787-49.0723 102.734-53.125 102.734-58.3496C102.734-63.5742 106.787-67.627 112.061-67.627C117.334-67.627 121.338-63.5742 121.338-58.3496C121.338-53.125 117.334-49.0723 112.061-49.0723Z"/>
  </g>
  <g id="Semibold-L" transform="matrix(1 0 0 1 1956.96 1556)">
   <path d="M90.7227 33.8867L152.686-28.1738C157.568-33.0078 158.105-35.8398 158.105-43.1641L158.105-67.041C158.105-73.877 156.592-76.2695 151.367-81.4941L136.865-95.9961C131.689-101.172 129.248-102.734 122.461-102.734L98.5352-102.734C91.2598-102.734 88.4766-102.051 83.6426-97.2168L21.5332-35.2539C12.207-25.9277 12.1094-15.8691 21.582-6.44531L61.9141 33.8867C71.3867 43.3105 81.3965 43.2617 90.7227 33.8867ZM111.279-50.3418C106.25-50.3418 102.49-54.248 102.49-59.1797C102.49-64.1113 106.25-68.0176 111.279-68.0176C116.309-68.0176 120.117-64.1113 120.117-59.1797C120.117-54.248 116.309-50.3418 111.279-50.3418Z"/>
  </g>
  <g id="Medium-L" transform="matrix(1 0 0 1 1661.11 1556)">
   <path d="M89.4043 32.8613L151.221-29.1016C155.957-33.7891 156.396-36.4258 156.396-43.457L156.396-67.3828C156.396-73.9746 154.932-76.1719 149.951-81.2012L135.4-95.752C130.371-100.781 128.174-102.197 121.582-102.197L97.6562-102.197C90.625-102.197 88.0371-101.709 83.3496-97.0215L21.3379-35.1562C12.2559-26.123 12.1582-16.5039 21.3867-7.32422L61.5723 32.8125C70.8008 41.9922 80.3223 41.9434 89.4043 32.8613ZM110.742-51.3184C105.908-51.3184 102.246-55.0293 102.246-59.8145C102.246-64.5508 105.908-68.2617 110.742-68.2617C115.576-68.2617 119.189-64.5508 119.189-59.8145C119.189-55.0293 115.576-51.3184 110.742-51.3184Z"/>
  </g>
  <g id="Regular-L" transform="matrix(1 0 0 1 1365.52 1556)">
   <path d="M87.6953 31.4453L149.365-30.3711C153.809-34.8145 154.15-37.207 154.15-43.8477L154.15-67.8223C154.15-74.1699 152.832-76.0742 148.047-80.8105L133.398-95.459C128.662-100.244 126.758-101.562 120.41-101.562L96.4355-101.562C89.7949-101.562 87.4023-101.221 82.959-96.7773L21.0449-35.1074C12.3535-26.416 12.2559-17.334 21.0938-8.54492L61.1328 31.3965C70.0195 40.2832 79.0039 40.1855 87.6953 31.4453ZM109.961-52.5879C105.42-52.5879 101.953-56.1035 101.953-60.5957C101.953-65.0879 105.42-68.6035 109.961-68.6035C114.551-68.6035 118.018-65.0879 118.018-60.5957C118.018-56.1035 114.551-52.5879 109.961-52.5879Z"/>
  </g>
  <g id="Light-L" transform="matrix(1 0 0 1 1069.56 1556)">
   <path d="M86.1328 31.3965L148.145-30.7617C152.246-34.9121 152.637-36.8652 152.637-43.5547L152.637-67.5293C152.637-73.3398 151.66-75.0488 146.875-79.834L132.08-94.6777C127.246-99.4629 125.586-100.439 119.727-100.439L95.8008-100.439C89.0625-100.439 87.1094-100.049 83.0078-95.9473L20.7031-33.9844C12.4512-25.7324 12.4023-17.0898 20.752-8.74023L60.8887 31.3965C69.2871 39.7461 77.9297 39.6484 86.1328 31.3965ZM109.521-53.3203C105.42-53.3203 102.344-56.4941 102.344-60.498C102.344-64.5508 105.42-67.6758 109.521-67.6758C113.623-67.6758 116.699-64.5508 116.699-60.498C116.699-56.4941 113.623-53.3203 109.521-53.3203Z"/>
  </g>
  <g id="Thin-L" transform="matrix(1 0 0 1 773.854 1556)">
   <path d="M84.082 31.3477L146.533-31.3477C150.195-35.0098 150.684-36.4258 150.684-43.1641L150.684-67.1387C150.684-72.3145 150.146-73.7305 145.312-78.5645L130.273-93.6035C125.439-98.4375 124.023-98.9746 118.848-98.9746L94.873-98.9746C88.1348-98.9746 86.7188-98.4863 83.0566-94.8242L20.2148-32.5195C12.5-24.8047 12.5488-16.6992 20.2148-9.0332L60.6445 31.3477C68.3594 39.0625 76.5137 38.9648 84.082 31.3477ZM108.887-54.2969C105.42-54.2969 102.783-56.9336 102.783-60.4004C102.783-63.8672 105.42-66.4551 108.887-66.4551C112.354-66.4551 114.99-63.8672 114.99-60.4004C114.99-56.9336 112.354-54.2969 108.887-54.2969Z"/>
  </g>
  <g id="Ultralight-L" transform="matrix(1 0 0 1 477.655 1556)">
   <path d="M83.0566 31.2988L145.703-31.6406C149.17-35.0586 149.658-36.2305 149.658-42.9688L149.658-66.9434C149.658-71.7773 149.365-73.0469 144.531-77.8809L129.346-93.0664C124.512-97.9004 123.242-98.1934 118.408-98.1934L94.4336-98.1934C87.6465-98.1934 86.5234-97.7051 83.1055-94.2871L19.9707-31.7871C12.5488-24.3652 12.6465-16.5039 19.9707-9.22852L60.498 31.2988C67.8711 38.7207 75.8301 38.623 83.0566 31.2988ZM108.594-54.834C105.42-54.834 103.027-57.1777 103.027-60.3516C103.027-63.4766 105.42-65.8691 108.594-65.8691C111.719-65.8691 114.111-63.4766 114.111-60.3516C114.111-57.1777 111.719-54.834 108.594-54.834Z"/>
  </g>
  <g id="Black-M" transform="matrix(1 0 0 1 2861.65 1126)">
   <path d="M77.6367 24.8535L126.66-24.1699C131.201-28.7598 132.275-31.8848 132.275-39.3066L132.275-57.666C132.275-64.0137 130.811-67.0898 125.586-72.3145L114.6-83.252C109.424-88.4766 106.348-89.9414 100-89.9414L81.6406-89.9414C74.2188-89.9414 71.3379-88.623 66.7969-84.082L17.7734-35.0586C9.0332-26.3184 9.08203-16.1133 17.7734-7.42188L50 24.8535C58.6914 33.5449 68.9453 33.5449 77.6367 24.8535ZM89.5508-41.3574C84.7168-41.3574 81.0059-45.0684 81.0059-49.9023C81.0059-54.7363 84.7168-58.4961 89.5508-58.4961C94.3848-58.4961 98.1445-54.7363 98.1445-49.9023C98.1445-45.0684 94.3848-41.3574 89.5508-41.3574Z"/>
  </g>
  <g id="Heavy-M" transform="matrix(1 0 0 1 2566.35 1126)">
   <path d="M75.5371 22.8516L124.219-25.8301C128.564-30.2246 129.443-33.1055 129.443-39.9414L129.443-58.3984C129.443-64.4531 128.027-67.1875 123.193-72.0215L112.158-83.0566C107.275-87.8906 104.541-89.3555 98.5352-89.3555L80.0781-89.3555C73.2422-89.3555 70.5078-88.2812 66.1621-83.8867L17.4805-35.2051C9.17969-26.9043 9.13086-17.3828 17.4805-9.08203L49.4141 22.8516C57.7637 31.1523 67.2363 31.1523 75.5371 22.8516ZM88.5742-42.9688C84.0332-42.9688 80.4688-46.5332 80.4688-51.123C80.4688-55.6641 84.0332-59.2285 88.5742-59.2285C93.1641-59.2285 96.7285-55.6641 96.7285-51.123C96.7285-46.5332 93.1641-42.9688 88.5742-42.9688Z"/>
  </g>
  <g id="Bold-M" transform="matrix(1 0 0 1 2271.2 1126)">
   <path d="M73.1934 20.6543L121.533-27.6855C125.635-31.8359 126.318-34.4238 126.318-40.6738L126.318-59.1797C126.318-64.9414 124.951-67.2363 120.508-71.7285L109.375-82.8125C104.932-87.2559 102.588-88.623 96.8262-88.623L78.3691-88.623C72.1191-88.623 69.6289-87.8418 65.5273-83.7402L17.1387-35.4004C9.27734-27.5391 9.22852-18.8477 17.1387-10.9375L48.7305 20.6543C56.6895 28.5645 65.3809 28.5156 73.1934 20.6543ZM87.5-44.8242C83.2031-44.8242 79.8828-48.1445 79.8828-52.4414C79.8828-56.6895 83.2031-60.0586 87.5-60.0586C91.8457-60.0586 95.166-56.6895 95.166-52.4414C95.166-48.1445 91.8457-44.8242 87.5-44.8242Z"/>
  </g>
  <g id="Semibold-M" transform="matrix(1 0 0 1 1975.59 1126)">
   <path d="M71.6309 19.1406L119.678-28.9551C123.633-32.9102 124.121-35.3516 124.121-41.2109L124.121-59.7168C124.121-65.2344 122.803-67.334 118.652-71.4844L107.471-82.666C103.32-86.8164 101.221-88.1348 95.7031-88.1348L77.1973-88.1348C71.3379-88.1348 68.9941-87.5488 65.0391-83.5938L16.8945-35.5469C9.375-27.9785 9.27734-19.8242 16.9434-12.207L48.291 19.0918C55.957 26.7578 64.0625 26.709 71.6309 19.1406ZM86.7676-46.0449C82.6172-46.0449 79.4922-49.2676 79.4922-53.3691C79.4922-57.4219 82.6172-60.6445 86.7676-60.6445C90.918-60.6445 94.043-57.4219 94.043-53.3691C94.043-49.2676 90.918-46.0449 86.7676-46.0449Z"/>
  </g>
  <g id="Medium-M" transform="matrix(1 0 0 1 1679.71 1126)">
   <path d="M70.4102 17.9688L118.262-29.9316C122.07-33.7891 122.461-36.0352 122.461-41.6016L122.461-60.1074C122.461-65.5273 121.191-67.3828 117.236-71.3379L106.055-82.5195C102.051-86.4746 100.195-87.7441 94.8242-87.7441L76.2695-87.7441C70.752-87.7441 68.5059-87.3535 64.6973-83.4961L16.748-35.6445C9.42383-28.3203 9.32617-20.5566 16.7969-13.1836L47.9492 17.9688C55.3711 25.3418 63.0859 25.293 70.4102 17.9688ZM86.2305-47.0215C82.2266-47.0215 79.1992-50.0977 79.1992-54.0527C79.1992-57.959 82.2266-61.084 86.2305-61.084C90.2344-61.084 93.2617-57.959 93.2617-54.0527C93.2617-50.0977 90.2344-47.0215 86.2305-47.0215Z"/>
  </g>
  <g id="Regular-M" transform="matrix(1 0 0 1 1384.07 1126)">
   <path d="M68.7988 16.5039L116.406-31.2012C120.068-34.8633 120.312-36.9629 120.312-42.0898L120.312-60.6445C120.312-65.8203 119.092-67.4316 115.381-71.1426L104.15-82.373C100.488-86.0352 98.877-87.3047 93.7012-87.3047L75.0977-87.3047C69.9707-87.3047 67.9199-87.0605 64.2578-83.3984L16.5039-35.7422C9.52148-28.7598 9.375-21.5332 16.5527-14.4043L47.4609 16.4551C54.6387 23.584 61.8164 23.4863 68.7988 16.5039ZM85.498-48.2422C81.6406-48.2422 78.8086-51.2207 78.8086-54.9316C78.8086-58.6914 81.6406-61.6211 85.498-61.6211C89.3066-61.6211 92.1875-58.6914 92.1875-54.9316C92.1875-51.2207 89.3066-48.2422 85.498-48.2422Z"/>
  </g>
  <g id="Light-M" transform="matrix(1 0 0 1 1088.02 1126)">
   <path d="M67.4316 16.4551L115.332-31.5918C118.701-34.9609 118.994-36.6699 118.994-41.8457L118.994-60.4004C118.994-65.1367 118.066-66.5527 114.355-70.2637L102.93-81.6406C99.2676-85.3516 97.8516-86.2793 93.1152-86.2793L74.5117-86.2793C69.3359-86.2793 67.627-85.9863 64.3066-82.666L16.2109-34.7656C9.61914-28.1738 9.52148-21.2891 16.2109-14.5996L47.3145 16.4062C54.0039 23.0957 60.8887 23.0469 67.4316 16.4551ZM85.0586-48.9258C81.6895-48.9258 79.1504-51.5625 79.1504-54.8828C79.1504-58.2031 81.6895-60.791 85.0586-60.791C88.4766-60.791 91.0156-58.2031 91.0156-54.8828C91.0156-51.5625 88.4766-48.9258 85.0586-48.9258Z"/>
  </g>
  <g id="Thin-M" transform="matrix(1 0 0 1 792.213 1126)">
   <path d="M65.625 16.3574L113.916-32.0801C116.846-35.0098 117.188-36.2793 117.188-41.4551L117.188-60.0586C117.188-64.209 116.699-65.3809 112.988-69.0918L101.367-80.7129C97.6074-84.4238 96.4355-84.9609 92.334-84.9609L73.7305-84.9609C68.5059-84.9609 67.2852-84.6191 64.3555-81.6406L15.7715-33.4473C9.7168-27.3438 9.7168-20.9473 15.8203-14.8926L47.0703 16.3574C53.1738 22.5098 59.6191 22.4121 65.625 16.3574ZM84.5215-49.8047C81.6895-49.8047 79.5898-51.9531 79.5898-54.7363C79.5898-57.5684 81.6895-59.7168 84.5215-59.7168C87.3535-59.7168 89.502-57.5684 89.502-54.7363C89.502-51.9531 87.3535-49.8047 84.5215-49.8047Z"/>
  </g>
  <g id="Ultralight-M" transform="matrix(1 0 0 1 495.942 1126)">
   <path d="M64.6973 16.3574L113.184-32.373C115.918-35.0586 116.309-36.0352 116.309-41.3086L116.309-59.8633C116.309-63.7207 116.016-64.7461 112.256-68.5059L100.537-80.2246C96.8262-83.9355 95.752-84.2773 91.8945-84.2773L73.3398-84.2773C68.1152-84.2773 67.1387-83.8867 64.4043-81.1523L15.5762-32.7637C9.76562-26.9531 9.81445-20.8008 15.5762-15.0391L46.9238 16.3574C52.7832 22.168 58.9844 22.1191 64.6973 16.3574ZM84.2773-50.2441C81.7383-50.2441 79.834-52.1484 79.834-54.6875C79.834-57.2266 81.7383-59.1309 84.2773-59.1309C86.7676-59.1309 88.7207-57.2266 88.7207-54.6875C88.7207-52.1484 86.7676-50.2441 84.2773-50.2441Z"/>
  </g>
  <g id="Black-S" transform="matrix(1 0 0 1 2877.3 696)">
   <path d="M60.6445 11.6699L99.0234-26.709C102.588-30.2734 103.418-32.7148 103.418-38.4766L103.418-52.8809C103.418-57.8125 102.246-60.2051 98.1934-64.2578L89.5996-72.8516C85.5469-76.9043 83.1543-78.0762 78.2227-78.0762L63.8184-78.0762C58.0566-78.0762 55.8105-77.0508 52.2461-73.4863L13.8672-35.1074C7.08008-28.3203 7.08008-20.3613 13.8672-13.5742L39.1113 11.6699C45.8984 18.457 53.8574 18.457 60.6445 11.6699ZM70.0684-40.1367C66.3086-40.1367 63.3789-43.0664 63.3789-46.8262C63.3789-50.5859 66.3086-53.5156 70.0684-53.5156C73.8281-53.5156 76.7578-50.5859 76.7578-46.8262C76.7578-43.0664 73.8281-40.1367 70.0684-40.1367Z"/>
  </g>
  <g id="Heavy-S" transform="matrix(1 0 0 1 2581.59 696)">
   <path d="M59.2285 10.1562L97.3145-27.9297C100.732-31.3477 101.416-33.6426 101.416-39.0137L101.416-53.4668C101.416-58.2031 100.244-60.3516 96.4844-64.1602L87.8418-72.7539C84.082-76.5625 81.9336-77.6855 77.1484-77.6855L62.7441-77.6855C57.373-77.6855 55.2246-76.9043 51.8066-73.4375L13.6719-35.3516C7.17773-28.8086 7.12891-21.3867 13.7207-14.7949L38.6719 10.1562C45.2637 16.6992 52.6855 16.6992 59.2285 10.1562ZM69.3848-41.3086C65.7715-41.3086 62.9395-44.1406 62.9395-47.7539C62.9395-51.3672 65.7715-54.1992 69.3848-54.1992C72.998-54.1992 75.8301-51.3672 75.8301-47.7539C75.8301-44.1406 72.998-41.3086 69.3848-41.3086Z"/>
  </g>
  <g id="Bold-S" transform="matrix(1 0 0 1 2286 696)">
   <path d="M57.6172 8.49609L95.3613-29.2969C98.6816-32.6172 99.1699-34.7168 99.1699-39.5996L99.1699-54.1016C99.1699-58.6914 97.998-60.5469 94.5312-64.0137L85.8887-72.6562C82.4219-76.123 80.5664-77.2949 75.9766-77.2949L61.4746-77.2949C56.5918-77.2949 54.5898-76.709 51.2695-73.3887L13.4766-35.5957C7.27539-29.3945 7.17773-22.5098 13.4766-16.2109L38.1836 8.44727C44.5312 14.7461 51.3672 14.7461 57.6172 8.49609ZM68.6035-42.627C65.1367-42.627 62.5-45.3613 62.5-48.7793C62.5-52.1973 65.1367-54.9316 68.6035-54.9316C72.1191-54.9316 74.7559-52.1973 74.7559-48.7793C74.7559-45.3613 72.1191-42.627 68.6035-42.627Z"/>
  </g>
  <g id="Semibold-S" transform="matrix(1 0 0 1 1990.07 696)">
   <path d="M56.4941 7.32422L94.043-30.2246C97.2656-33.4473 97.6074-35.4492 97.6074-39.9902L97.6074-54.541C97.6074-58.9844 96.4844-60.6934 93.2129-63.916L84.5215-72.6074C81.2988-75.8789 79.5898-77.002 75.1465-77.002L60.6445-77.002C56.0547-77.002 54.1016-76.5625 50.9277-73.3887L13.3301-35.791C7.32422-29.7852 7.22656-23.2422 13.3789-17.1387L37.8418 7.32422C43.9941 13.4277 50.4395 13.3789 56.4941 7.32422ZM68.0664-43.5547C64.6973-43.5547 62.1582-46.1426 62.1582-49.4629C62.1582-52.7832 64.6973-55.4199 68.0664-55.4199C71.4844-55.4199 74.0234-52.7832 74.0234-49.4629C74.0234-46.1426 71.4844-43.5547 68.0664-43.5547Z"/>
  </g>
  <g id="Medium-S" transform="matrix(1 0 0 1 1693.94 696)">
   <path d="M55.6641 6.44531L93.0176-30.957C96.1426-34.082 96.4355-35.9863 96.4355-40.332L96.4355-54.834C96.4355-59.2285 95.3125-60.791 92.1875-63.8672L83.4961-72.5586C80.4199-75.6348 78.9062-76.8066 74.5117-76.8066L59.9609-76.8066C55.6641-76.8066 53.7598-76.4648 50.6348-73.3398L13.2324-35.9375C7.37305-30.0781 7.22656-23.877 13.2812-17.8711L37.5977 6.39648C43.6035 12.4023 49.7559 12.3535 55.6641 6.44531ZM67.6758-44.2383C64.4043-44.2383 61.9141-46.7773 61.9141-50C61.9141-53.2715 64.4043-55.8105 67.6758-55.8105C70.9961-55.8105 73.4863-53.2715 73.4863-50C73.4863-46.7773 70.9961-44.2383 67.6758-44.2383Z"/>
  </g>
  <g id="Regular-S" transform="matrix(1 0 0 1 1397.99 696)">
   <path d="M54.541 5.32227L91.6992-31.8848C94.7266-34.9121 94.9219-36.7188 94.9219-40.7227L94.9219-55.2734C94.9219-59.5703 93.7988-60.8887 90.8691-63.7695L82.1777-72.5098C79.2969-75.3906 77.9297-76.5137 73.6816-76.5137L59.1309-76.5137C55.127-76.5137 53.3203-76.3672 50.293-73.3398L13.0859-36.1328C7.42188-30.4688 7.27539-24.6094 13.1348-18.8477L37.2559 5.27344C43.1152 11.084 48.877 11.0352 54.541 5.32227ZM67.1387-45.1172C63.9648-45.1172 61.5723-47.6074 61.5723-50.7324C61.5723-53.8086 63.9648-56.2988 67.1387-56.2988C70.3613-56.2988 72.7539-53.8086 72.7539-50.7324C72.7539-47.6074 70.3613-45.1172 67.1387-45.1172Z"/>
  </g>
  <g id="Light-S" transform="matrix(1 0 0 1 1101.89 696)">
   <path d="M53.3691 5.27344L90.7715-32.2266C93.5059-34.9609 93.7012-36.4746 93.7012-40.4785L93.7012-55.0293C93.7012-58.9355 92.8711-60.1074 89.9902-62.9883L81.1035-71.875C78.2227-74.7559 77.0508-75.5859 73.1445-75.5859L58.5938-75.5859C54.541-75.5859 53.0762-75.3906 50.3418-72.6562L12.793-35.2539C7.4707-29.9316 7.42188-24.4141 12.8418-18.9941L37.1094 5.22461C42.5293 10.6445 48.0469 10.5957 53.3691 5.27344ZM66.7969-45.7031C63.9648-45.7031 61.8652-47.9004 61.8652-50.6348C61.8652-53.418 63.9648-55.5664 66.7969-55.5664C69.6289-55.5664 71.7285-53.418 71.7285-50.6348C71.7285-47.9004 69.6289-45.7031 66.7969-45.7031Z"/>
  </g>
  <g id="Thin-S" transform="matrix(1 0 0 1 805.958 696)">
   <path d="M51.7578 5.22461L89.502-32.666C91.8945-35.0586 92.1387-36.1328 92.1387-40.1855L92.1387-54.7363C92.1387-58.1055 91.6992-59.082 88.7695-61.9629L79.6875-71.0449C76.8066-73.9746 75.8301-74.4141 72.4609-74.4141L57.9102-74.4141C53.8574-74.4141 52.7832-74.1699 50.3906-71.7773L12.4512-34.082C7.56836-29.1992 7.56836-24.1211 12.4512-19.2383L36.9141 5.22461C41.8457 10.1074 46.9238 10.0586 51.7578 5.22461ZM66.3086-46.4844C64.0137-46.4844 62.2559-48.2422 62.2559-50.5371C62.2559-52.832 64.0137-54.6387 66.3086-54.6387C68.6523-54.6387 70.4102-52.832 70.4102-50.5371C70.4102-48.2422 68.6523-46.4844 66.3086-46.4844Z"/>
  </g>
  <g id="Ultralight-S" transform="matrix(1 0 0 1 509.638 696)">
   <path d="M50.9277 5.17578L88.8672-32.9102C91.0645-35.1074 91.3574-35.9375 91.3574-40.0391L91.3574-54.5898C91.3574-57.666 91.0645-58.5449 88.1348-61.4258L79.0039-70.6055C76.0742-73.5352 75.1953-73.8281 72.1191-73.8281L57.5684-73.8281C53.4668-73.8281 52.6367-73.5352 50.4395-71.3379L12.2559-33.4961C7.61719-28.8574 7.66602-23.9746 12.2559-19.3359L36.8164 5.17578C41.4551 9.81445 46.3867 9.76562 50.9277 5.17578ZM66.0645-46.875C64.0137-46.875 62.4512-48.4375 62.4512-50.4883C62.4512-52.5391 64.0137-54.1016 66.0645-54.1016C68.1152-54.1016 69.6777-52.5391 69.6777-50.4883C69.6777-48.4375 68.1152-46.875 66.0645-46.875Z"/>
  </g>
 </g>
</svg>
