<?xml version="1.0" encoding="UTF-8"?>
<!--Generator: Apple Native CoreSVG 149-->
<!DOCTYPE svg
PUBLIC "-//W3C//DTD SVG 1.1//EN"
       "http://www.w3.org/Graphics/SVG/1.1/DTD/svg11.dtd">
<svg version="1.1" xmlns="http://www.w3.org/2000/svg" xmlns:xlink="http://www.w3.org/1999/xlink" width="3300" height="2200">
 <!--glyph: "uni10007E.medium", point size: 100.000000, font version: "Version 16.0d18e1", template writer version: "8"-->
 <g id="Notes">
  <rect height="2200" id="artboard" style="fill:white;opacity:1" width="3300" x="0" y="0"/>
  <line id="" style="fill:none;stroke:black;opacity:1;stroke-width:0.5;" x1="263" x2="3036" y1="292" y2="292"/>
  <text style="stroke:none;fill:black;font-family:-apple-system,&quot;SF Pro Display&quot;,&quot;SF Pro Text&quot;,Helvetica,sans-serif;font-weight:bold;" transform="matrix(1 0 0 1 263 322)">Weight/Scale Variations</text>
  <text style="stroke:none;fill:black;font-family:-apple-system,&quot;SF Pro Display&quot;,&quot;SF Pro Text&quot;,Helvetica,sans-serif;text-anchor:middle;" transform="matrix(1 0 0 1 559.711 322)">Ultralight</text>
  <text style="stroke:none;fill:black;font-family:-apple-system,&quot;SF Pro Display&quot;,&quot;SF Pro Text&quot;,Helvetica,sans-serif;text-anchor:middle;" transform="matrix(1 0 0 1 856.422 322)">Thin</text>
  <text style="stroke:none;fill:black;font-family:-apple-system,&quot;SF Pro Display&quot;,&quot;SF Pro Text&quot;,Helvetica,sans-serif;text-anchor:middle;" transform="matrix(1 0 0 1 1153.13 322)">Light</text>
  <text style="stroke:none;fill:black;font-family:-apple-system,&quot;SF Pro Display&quot;,&quot;SF Pro Text&quot;,Helvetica,sans-serif;text-anchor:middle;" transform="matrix(1 0 0 1 1449.84 322)">Regular</text>
  <text style="stroke:none;fill:black;font-family:-apple-system,&quot;SF Pro Display&quot;,&quot;SF Pro Text&quot;,Helvetica,sans-serif;text-anchor:middle;" transform="matrix(1 0 0 1 1746.56 322)">Medium</text>
  <text style="stroke:none;fill:black;font-family:-apple-system,&quot;SF Pro Display&quot;,&quot;SF Pro Text&quot;,Helvetica,sans-serif;text-anchor:middle;" transform="matrix(1 0 0 1 2043.27 322)">Semibold</text>
  <text style="stroke:none;fill:black;font-family:-apple-system,&quot;SF Pro Display&quot;,&quot;SF Pro Text&quot;,Helvetica,sans-serif;text-anchor:middle;" transform="matrix(1 0 0 1 2339.98 322)">Bold</text>
  <text style="stroke:none;fill:black;font-family:-apple-system,&quot;SF Pro Display&quot;,&quot;SF Pro Text&quot;,Helvetica,sans-serif;text-anchor:middle;" transform="matrix(1 0 0 1 2636.69 322)">Heavy</text>
  <text style="stroke:none;fill:black;font-family:-apple-system,&quot;SF Pro Display&quot;,&quot;SF Pro Text&quot;,Helvetica,sans-serif;text-anchor:middle;" transform="matrix(1 0 0 1 2933.4 322)">Black</text>
  <line id="" style="fill:none;stroke:black;opacity:1;stroke-width:0.5;" x1="263" x2="3036" y1="1903" y2="1903"/>
  <g id="" transform="matrix(1 0 0 1 263 1933)">
   <path d="M9.24805 0.830078C13.5547 0.830078 17.1387-2.74414 17.1387-7.05078C17.1387-11.3574 13.5449-14.9316 9.23828-14.9316C4.94141-14.9316 1.36719-11.3574 1.36719-7.05078C1.36719-2.74414 4.95117 0.830078 9.24805 0.830078ZM9.24805-0.654297C5.70312-0.654297 2.87109-3.49609 2.87109-7.05078C2.87109-10.6055 5.69336-13.4473 9.23828-13.4473C12.793-13.4473 15.6348-10.6055 15.6445-7.05078C15.6543-3.49609 12.8027-0.654297 9.24805-0.654297ZM6.39648-6.31836L8.50586-6.31836L8.50586-4.19922C8.50586-3.75977 8.79883-3.45703 9.22852-3.45703C9.67773-3.45703 9.9707-3.75977 9.9707-4.19922L9.9707-6.31836L12.0996-6.31836C12.5391-6.31836 12.8418-6.61133 12.8418-7.04102C12.8418-7.48047 12.5391-7.7832 12.0996-7.7832L9.9707-7.7832L9.9707-9.89258C9.9707-10.3418 9.67773-10.6445 9.22852-10.6445C8.79883-10.6445 8.50586-10.3418 8.50586-9.89258L8.50586-7.7832L6.39648-7.7832C5.94727-7.7832 5.64453-7.48047 5.64453-7.04102C5.64453-6.61133 5.94727-6.31836 6.39648-6.31836Z"/>
  </g>
  <g id="" transform="matrix(1 0 0 1 281.506 1933)">
   <path d="M11.709 2.91016C17.1582 2.91016 21.6699-1.61133 21.6699-7.05078C21.6699-12.5 17.1484-17.0117 11.6992-17.0117C6.25977-17.0117 1.74805-12.5 1.74805-7.05078C1.74805-1.61133 6.26953 2.91016 11.709 2.91016ZM11.709 1.25C7.09961 1.25 3.41797-2.44141 3.41797-7.05078C3.41797-11.6602 7.08984-15.3516 11.6992-15.3516C16.3086-15.3516 20-11.6602 20.0098-7.05078C20.0195-2.44141 16.3184 1.25 11.709 1.25ZM7.98828-6.23047L10.8789-6.23047L10.8789-3.32031C10.8789-2.83203 11.2109-2.5 11.6895-2.5C12.1777-2.5 12.5195-2.83203 12.5195-3.32031L12.5195-6.23047L15.4297-6.23047C15.918-6.23047 16.25-6.5625 16.25-7.04102C16.25-7.5293 15.918-7.87109 15.4297-7.87109L12.5195-7.87109L12.5195-10.7617C12.5195-11.2695 12.1777-11.6016 11.6895-11.6016C11.2109-11.6016 10.8789-11.2598 10.8789-10.7617L10.8789-7.87109L7.98828-7.87109C7.48047-7.87109 7.14844-7.5293 7.14844-7.04102C7.14844-6.5625 7.49023-6.23047 7.98828-6.23047Z"/>
  </g>
  <g id="" transform="matrix(1 0 0 1 304.924 1933)">
   <path d="M14.9707 5.66406C21.9336 5.66406 27.6953-0.0976562 27.6953-7.05078C27.6953-14.0137 21.9238-19.7754 14.9609-19.7754C8.00781-19.7754 2.25586-14.0137 2.25586-7.05078C2.25586-0.0976562 8.01758 5.66406 14.9707 5.66406ZM14.9707 3.84766C8.93555 3.84766 4.08203-1.01562 4.08203-7.05078C4.08203-13.0957 8.92578-17.9492 14.9609-17.9492C21.0059-17.9492 25.8594-13.0957 25.8691-7.05078C25.8789-1.01562 21.0156 3.84766 14.9707 3.84766ZM10.0586-6.14258L14.0625-6.14258L14.0625-2.12891C14.0625-1.5918 14.4336-1.2207 14.9512-1.2207C15.4883-1.2207 15.8594-1.5918 15.8594-2.12891L15.8594-6.14258L19.8828-6.14258C20.4102-6.14258 20.791-6.51367 20.791-7.03125C20.791-7.56836 20.4199-7.94922 19.8828-7.94922L15.8594-7.94922L15.8594-11.9531C15.8594-12.5098 15.4883-12.8809 14.9512-12.8809C14.4336-12.8809 14.0625-12.5 14.0625-11.9531L14.0625-7.94922L10.0586-7.94922C9.50195-7.94922 9.13086-7.56836 9.13086-7.03125C9.13086-6.51367 9.51172-6.14258 10.0586-6.14258Z"/>
  </g>
  <text style="stroke:none;fill:black;font-family:-apple-system,&quot;SF Pro Display&quot;,&quot;SF Pro Text&quot;,Helvetica,sans-serif;font-weight:bold;" transform="matrix(1 0 0 1 263 1953)">Design Variations</text>
  <text style="stroke:none;fill:black;font-family:-apple-system,&quot;SF Pro Display&quot;,&quot;SF Pro Text&quot;,Helvetica,sans-serif;" transform="matrix(1 0 0 1 263 1971)">Symbols are supported in up to nine weights and three scales.</text>
  <text style="stroke:none;fill:black;font-family:-apple-system,&quot;SF Pro Display&quot;,&quot;SF Pro Text&quot;,Helvetica,sans-serif;" transform="matrix(1 0 0 1 263 1989)">For optimal layout with text and other symbols, vertically align</text>
  <text style="stroke:none;fill:black;font-family:-apple-system,&quot;SF Pro Display&quot;,&quot;SF Pro Text&quot;,Helvetica,sans-serif;" transform="matrix(1 0 0 1 263 2007)">symbols with the adjacent text.</text>
  <line id="" style="fill:none;stroke:#00AEEF;stroke-width:0.5;opacity:1.0;" x1="776" x2="776" y1="1919" y2="1933"/>
  <g id="" transform="matrix(1 0 0 1 776 1933)">
   <path d="M3.31055 0.126953C3.82812 0.126953 4.08203-0.0683594 4.26758-0.605469L5.52734-4.0625L11.2891-4.0625L12.5488-0.605469C12.7344-0.0683594 12.9883 0.126953 13.4961 0.126953C14.0137 0.126953 14.3457-0.185547 14.3457-0.673828C14.3457-0.839844 14.3164-0.986328 14.2383-1.20117L9.6582-13.3887C9.43359-13.9941 9.0332-14.2871 8.4082-14.2871C7.80273-14.2871 7.39258-13.9941 7.17773-13.3984L2.59766-1.19141C2.51953-0.976562 2.49023-0.830078 2.49023-0.664062C2.49023-0.175781 2.80273 0.126953 3.31055 0.126953ZM6.00586-5.53711L8.37891-12.1094L8.42773-12.1094L10.8008-5.53711Z"/>
  </g>
  <line id="" style="fill:none;stroke:#00AEEF;stroke-width:0.5;opacity:1.0;" x1="792.836" x2="792.836" y1="1919" y2="1933"/>
  <text style="stroke:none;fill:black;font-family:-apple-system,&quot;SF Pro Display&quot;,&quot;SF Pro Text&quot;,Helvetica,sans-serif;font-weight:bold;" transform="matrix(1 0 0 1 776 1953)">Margins</text>
  <text style="stroke:none;fill:black;font-family:-apple-system,&quot;SF Pro Display&quot;,&quot;SF Pro Text&quot;,Helvetica,sans-serif;" transform="matrix(1 0 0 1 776 1971)">Leading and trailing margins on the left and right side of each symbol</text>
  <text style="stroke:none;fill:black;font-family:-apple-system,&quot;SF Pro Display&quot;,&quot;SF Pro Text&quot;,Helvetica,sans-serif;" transform="matrix(1 0 0 1 776 1989)">can be adjusted by modifying the x-location of the margin guidelines.</text>
  <text style="stroke:none;fill:black;font-family:-apple-system,&quot;SF Pro Display&quot;,&quot;SF Pro Text&quot;,Helvetica,sans-serif;" transform="matrix(1 0 0 1 776 2007)">Modifications are automatically applied proportionally to all</text>
  <text style="stroke:none;fill:black;font-family:-apple-system,&quot;SF Pro Display&quot;,&quot;SF Pro Text&quot;,Helvetica,sans-serif;" transform="matrix(1 0 0 1 776 2025)">scales and weights.</text>
  <g id="" transform="matrix(1 0 0 1 1289 1933)">
   <path d="M2.8418 1.86523L4.54102 3.57422C5.40039 4.44336 6.38672 4.38477 7.31445 3.35938L17.4902-7.85156C17.7539-7.76367 18.0273-7.7832 18.3398-7.8418L19.4043-8.03711L20.0684-7.36328L20.0293-6.80664C19.9902-6.30859 20.1172-5.92773 20.6055-5.44922L21.3672-4.70703C21.8457-4.22852 22.4609-4.19922 22.9297-4.66797L25.8398-7.58789C26.3086-8.05664 26.2891-8.65234 25.8105-9.13086L25.0391-9.89258C24.5605-10.3711 24.1895-10.5273 23.7109-10.4883L23.1348-10.4395L22.4902-11.0742L22.7344-12.1973C22.8613-12.7637 22.7051-13.2031 22.1191-13.7891L19.9219-15.9766C16.582-19.2969 12.1484-19.2188 9.25781-16.3281C8.83789-15.918 8.80859-15.3418 9.04297-14.9512C9.27734-14.5898 9.73633-14.3555 10.3809-14.5215C11.8457-14.8633 13.3691-14.9219 14.7949-13.9844L14.209-12.5293C14.0137-12.0508 13.9844-11.6504 14.1113-11.2891L3.04688-0.898438C2.06055 0.0195312 1.98242 0.996094 2.8418 1.86523ZM10.752-15.957C13.1836-17.7344 16.4746-17.4316 18.7012-15.2051L21.1328-12.793C21.3672-12.5586 21.4062-12.373 21.3379-12.0312L21.0156-10.5469L22.5195-9.0625L23.5059-9.12109C23.7598-9.13086 23.8379-9.11133 24.0332-8.91602L24.6094-8.33984L22.168-5.89844L21.5918-6.47461C21.3965-6.66992 21.3672-6.74805 21.377-7.01172L21.4453-7.98828L19.9512-9.47266L18.4277-9.21875C18.1055-9.15039 17.959-9.17969 17.7148-9.41406L15.7129-11.416C15.459-11.6504 15.4297-11.8164 15.5859-12.1875L16.4648-14.2773C14.9023-15.7324 12.8711-16.3574 10.8398-15.7617C10.6836-15.7227 10.625-15.8496 10.752-15.957ZM5.27344 2.30469L4.10156 1.14258C3.63281 0.683594 3.74023 0.341797 4.14062-0.0195312L14.9512-10.1953L16.416-8.71094L6.42578 2.27539C6.07422 2.67578 5.74219 2.77344 5.27344 2.30469Z"/>
  </g>
  <text style="stroke:none;fill:black;font-family:-apple-system,&quot;SF Pro Display&quot;,&quot;SF Pro Text&quot;,Helvetica,sans-serif;font-weight:bold;" transform="matrix(1 0 0 1 1289 1953)">Exporting</text>
  <text style="stroke:none;fill:black;font-family:-apple-system,&quot;SF Pro Display&quot;,&quot;SF Pro Text&quot;,Helvetica,sans-serif;" transform="matrix(1 0 0 1 1289 1971)">Symbols should be outlined when exporting to ensure the</text>
  <text style="stroke:none;fill:black;font-family:-apple-system,&quot;SF Pro Display&quot;,&quot;SF Pro Text&quot;,Helvetica,sans-serif;" transform="matrix(1 0 0 1 1289 1989)">design is preserved when submitting to Xcode.</text>
  <text id="template-version" style="stroke:none;fill:black;font-family:-apple-system,&quot;SF Pro Display&quot;,&quot;SF Pro Text&quot;,Helvetica,sans-serif;text-anchor:end;" transform="matrix(1 0 0 1 3036 1933)">Template v.2.0</text>
  <text style="stroke:none;fill:black;font-family:-apple-system,&quot;SF Pro Display&quot;,&quot;SF Pro Text&quot;,Helvetica,sans-serif;text-anchor:end;" transform="matrix(1 0 0 1 3036 1951)">Requires Xcode 12 or greater</text>
  <text style="stroke:none;fill:black;font-family:-apple-system,&quot;SF Pro Display&quot;,&quot;SF Pro Text&quot;,Helvetica,sans-serif;text-anchor:end;" transform="matrix(1 0 0 1 3036 1969)">Generated from arrow.up.arrow.down.circle</text>
  <text style="stroke:none;fill:black;font-family:-apple-system,&quot;SF Pro Display&quot;,&quot;SF Pro Text&quot;,Helvetica,sans-serif;text-anchor:end;" transform="matrix(1 0 0 1 3036 1987)">Typeset at 100 points</text>
  <text style="stroke:none;fill:black;font-family:-apple-system,&quot;SF Pro Display&quot;,&quot;SF Pro Text&quot;,Helvetica,sans-serif;" transform="matrix(1 0 0 1 263 726)">Small</text>
  <text style="stroke:none;fill:black;font-family:-apple-system,&quot;SF Pro Display&quot;,&quot;SF Pro Text&quot;,Helvetica,sans-serif;" transform="matrix(1 0 0 1 263 1156)">Medium</text>
  <text style="stroke:none;fill:black;font-family:-apple-system,&quot;SF Pro Display&quot;,&quot;SF Pro Text&quot;,Helvetica,sans-serif;" transform="matrix(1 0 0 1 263 1586)">Large</text>
 </g>
 <g id="Guides">
  <g id="H-reference" style="fill:#27AAE1;stroke:none;" transform="matrix(1 0 0 1 339 696)">
   <path d="M0.976562 0L3.66211 0L12.9883-24.4629L45.752-24.4629L55.127 0L57.7637 0L30.6152-70.459L28.125-70.459ZM29.3457-67.1387L29.4434-67.1387L44.873-26.709L13.8672-26.709Z"/>
  </g>
  <line id="Baseline-S" style="fill:none;stroke:#27AAE1;opacity:1;stroke-width:0.5;" x1="263" x2="3036" y1="696" y2="696"/>
  <line id="Capline-S" style="fill:none;stroke:#27AAE1;opacity:1;stroke-width:0.5;" x1="263" x2="3036" y1="625.541" y2="625.541"/>
  <g id="H-reference" style="fill:#27AAE1;stroke:none;" transform="matrix(1 0 0 1 339 1126)">
   <path d="M0.976562 0L3.66211 0L12.9883-24.4629L45.752-24.4629L55.127 0L57.7637 0L30.6152-70.459L28.125-70.459ZM29.3457-67.1387L29.4434-67.1387L44.873-26.709L13.8672-26.709Z"/>
  </g>
  <line id="Baseline-M" style="fill:none;stroke:#27AAE1;opacity:1;stroke-width:0.5;" x1="263" x2="3036" y1="1126" y2="1126"/>
  <line id="Capline-M" style="fill:none;stroke:#27AAE1;opacity:1;stroke-width:0.5;" x1="263" x2="3036" y1="1055.54" y2="1055.54"/>
  <g id="H-reference" style="fill:#27AAE1;stroke:none;" transform="matrix(1 0 0 1 339 1556)">
   <path d="M0.976562 0L3.66211 0L12.9883-24.4629L45.752-24.4629L55.127 0L57.7637 0L30.6152-70.459L28.125-70.459ZM29.3457-67.1387L29.4434-67.1387L44.873-26.709L13.8672-26.709Z"/>
  </g>
  <line id="Baseline-L" style="fill:none;stroke:#27AAE1;opacity:1;stroke-width:0.5;" x1="263" x2="3036" y1="1556" y2="1556"/>
  <line id="Capline-L" style="fill:none;stroke:#27AAE1;opacity:1;stroke-width:0.5;" x1="263" x2="3036" y1="1485.54" y2="1485.54"/>
  <line id="left-margin" style="fill:none;stroke:#00AEEF;stroke-width:0.5;opacity:1.0;" x1="1391.3" x2="1391.3" y1="1030.79" y2="1150.12"/>
  <line id="right-margin" style="fill:none;stroke:#00AEEF;stroke-width:0.5;opacity:1.0;" x1="1508.39" x2="1508.39" y1="1030.79" y2="1150.12"/>
 </g>
 <g id="Symbols">
  <g id="Black-L" transform="matrix(1 0 0 1 2854.05 1556)">
   <path d="M79.3457 32.8613C116.748 32.8613 147.412 2.19727 147.412-35.2051C147.412-72.6074 116.748-103.271 79.2969-103.271C41.8945-103.271 11.2793-72.6074 11.2793-35.2051C11.2793 2.19727 41.9434 32.8613 79.3457 32.8613ZM79.3457 12.4023C52.9785 12.4023 31.7383-8.83789 31.7383-35.2051C31.7383-61.5723 52.9297-82.8125 79.2969-82.8125C105.664-82.8125 126.953-61.5723 126.953-35.2051C127.002-8.83789 105.713 12.4023 79.3457 12.4023ZM100.781-6.93359L115.283-21.875C116.162-22.8027 116.797-24.1699 116.797-25.5371C116.797-28.4668 114.697-30.5664 111.719-30.5664C110.303-30.5664 109.082-30.1758 108.154-29.1504L102.441-23.1934L102.1-22.8027L102.148-26.0254L102.148-60.0586C102.148-62.9395 99.9023-65.1855 96.9727-65.1855C93.9941-65.1855 91.7969-62.9395 91.7969-60.0586L91.7969-25.9766L91.8457-22.7539L91.4551-23.1934L85.791-29.1504C84.8633-30.1758 83.5449-30.5664 82.2266-30.5664C79.248-30.5664 77.1484-28.4668 77.1484-25.5371C77.1484-24.2188 77.7832-22.8516 78.7109-21.875L93.1641-6.93359C95.2148-4.83398 98.6328-4.6875 100.781-6.93359ZM57.8613-63.4766L43.4082-48.5352C42.4805-47.5586 41.8457-46.1914 41.8457-44.873C41.8457-41.9434 43.9453-39.8438 46.9238-39.8438C48.3398-39.8438 49.5117-40.2832 50.4395-41.2598L56.1523-47.2168L56.543-47.6562L56.4941-44.3848L56.4941-10.3516C56.4941-7.4707 58.7402-5.22461 61.6699-5.22461C64.6484-5.22461 66.8457-7.4707 66.8457-10.3516L66.8457-44.4336L66.7969-47.6562L67.1387-47.2168L72.8027-41.2598C73.7305-40.2344 75.0488-39.8438 76.416-39.8438C79.3457-39.8438 81.543-41.9434 81.543-44.873C81.543-46.2402 80.8105-47.6074 79.9316-48.5352L65.4297-63.4766C63.3789-65.5762 60.0098-65.7715 57.8613-63.4766Z"/>
  </g>
  <g id="Heavy-L" transform="matrix(1 0 0 1 2558.39 1556)">
   <path d="M78.2715 31.7871C115.088 31.7871 145.312 1.5625 145.312-35.2051C145.312-72.0215 115.039-102.246 78.2715-102.246C41.4551-102.246 11.2793-72.0215 11.2793-35.2051C11.2793 1.5625 41.5039 31.7871 78.2715 31.7871ZM78.2715 14.0137C51.0254 14.0137 29.0527-7.95898 29.0527-35.2051C29.0527-62.5 50.9766-84.4727 78.2715-84.4727C105.518-84.4727 127.49-62.5 127.539-35.2051C127.539-7.95898 105.566 14.0137 78.2715 14.0137ZM99.8535-6.54297L114.697-21.8262C115.527-22.7051 116.162-23.9746 116.162-25.2441C116.162-27.9785 114.209-29.9316 111.426-29.9316C110.107-29.9316 108.984-29.4922 108.105-28.5645L102.1-22.3145L101.074-21.1914L101.074-60.6445C101.074-63.3301 99.0234-65.4297 96.3379-65.4297C93.5547-65.4297 91.5039-63.3301 91.5039-60.6445L91.5039-24.4629L91.6016-21.1426L90.5273-22.3145L84.5703-28.5645C83.6426-29.4922 82.4707-29.9316 81.2012-29.9316C78.418-29.9316 76.5137-27.9785 76.5137-25.2441C76.5137-24.0234 77.0508-22.7539 77.9297-21.8262L92.8223-6.54297C94.6777-4.63867 97.8516-4.49219 99.8535-6.54297ZM56.6406-63.8672L41.7969-48.584C40.9668-47.6562 40.3809-46.3867 40.3809-45.166C40.3809-42.4316 42.334-40.4785 45.0684-40.4785C46.3867-40.4785 47.5098-40.918 48.3887-41.8457L54.4434-48.0957L55.4688-49.2676L55.4199-45.8984L55.4199-9.76562C55.4199-7.08008 57.4707-4.98047 60.2051-4.98047C62.9395-4.98047 64.9902-7.08008 64.9902-9.76562L64.9902-45.8984L64.8926-49.2676L65.9668-48.0957L71.9727-41.7969C72.8516-40.8691 74.0234-40.4785 75.293-40.4785C78.0273-40.4785 80.0293-42.4316 80.0293-45.166C80.0293-46.3867 79.3945-47.7051 78.5645-48.584L63.6719-63.8672C61.7676-65.7715 58.6914-65.9668 56.6406-63.8672Z"/>
  </g>
  <g id="Bold-L" transform="matrix(1 0 0 1 2262.88 1556)">
   <path d="M77.0996 30.5664C113.232 30.5664 142.92 0.878906 142.92-35.2539C142.92-71.3379 113.184-101.074 77.0508-101.074C40.9668-101.074 11.2793-71.3379 11.2793-35.2539C11.2793 0.878906 41.0156 30.5664 77.0996 30.5664ZM77.0996 15.8203C48.8281 15.8203 26.0742-6.98242 26.0742-35.2539C26.0742-63.5254 48.7793-86.2793 77.0508-86.2793C105.371-86.2793 128.125-63.5254 128.174-35.2539C128.174-6.98242 105.371 15.8203 77.0996 15.8203ZM98.8281-6.10352L114.062-21.7773C114.844-22.5586 115.43-23.7793 115.43-24.9023C115.43-27.3926 113.623-29.1504 111.133-29.1504C109.912-29.1504 108.838-28.7598 108.057-27.9297L101.66-21.2891L99.9023-19.3848L99.9512-22.8027L99.9512-61.3281C99.9512-63.7695 98.0469-65.6738 95.6055-65.6738C93.1152-65.6738 91.2109-63.7695 91.2109-61.3281L91.2109-22.7539L91.3086-19.3848L89.502-21.2891L83.1543-27.9297C82.3242-28.7598 81.2012-29.1504 80.0781-29.1504C77.5391-29.1504 75.7812-27.3926 75.7812-24.9023C75.7812-23.7793 76.3184-22.6074 77.0996-21.7773L92.3828-6.10352C94.043-4.44336 96.9727-4.24805 98.8281-6.10352ZM55.3223-64.2578L40.0391-48.584C39.2578-47.7539 38.7207-46.582 38.7207-45.459C38.7207-43.0176 40.5273-41.2109 43.0176-41.2109C44.1895-41.2109 45.2148-41.6504 46.0449-42.4805L52.4414-49.0723L54.248-51.0254L54.1992-47.5586L54.1992-9.0332C54.1992-6.5918 56.0547-4.73633 58.5449-4.73633C61.084-4.73633 62.8906-6.64062 62.8906-9.0332L62.8906-47.5586L62.793-51.0254L64.5996-49.0723L70.9961-42.4316C71.8262-41.6016 72.9004-41.2109 74.0723-41.2109C76.5625-41.2109 78.3691-42.9688 78.3691-45.459C78.3691-46.6309 77.7832-47.8027 77.002-48.584L61.7188-64.2578C60.0098-65.9668 57.2266-66.2109 55.3223-64.2578Z"/>
  </g>
  <g id="Semibold-L" transform="matrix(1 0 0 1 1966.97 1556)">
   <path d="M76.2695 29.7363C111.914 29.7363 141.309 0.390625 141.309-35.2539C141.309-70.8984 111.865-100.244 76.2695-100.244C40.625-100.244 11.2793-70.8984 11.2793-35.2539C11.2793 0.390625 40.6738 29.7363 76.2695 29.7363ZM76.2695 17.041C47.3145 17.041 24.0234-6.25 24.0234-35.2539C24.0234-64.209 47.2656-87.5488 76.2695-87.5488C105.225-87.5488 128.564-64.209 128.613-35.2539C128.662-6.25 105.273 17.041 76.2695 17.041ZM98.0957-5.81055L113.623-21.7285C114.404-22.5098 114.893-23.584 114.893-24.6582C114.893-27.002 113.232-28.6621 110.889-28.6621C109.766-28.6621 108.789-28.2715 108.057-27.4902L101.367-20.6055L99.0723-18.1641L99.1699-21.6309L99.1699-61.7676C99.1699-64.1113 97.4121-65.8203 95.0684-65.8203C92.7734-65.8203 91.0156-64.0625 91.0156-61.7676L91.0156-21.6309L91.1621-18.1152L88.8184-20.6055L82.1777-27.4902C81.3965-28.2715 80.3711-28.6621 79.248-28.6621C76.9043-28.6621 75.293-27.002 75.293-24.6582C75.293-23.6328 75.7812-22.5098 76.5137-21.7285L92.0898-5.81055C93.6035-4.24805 96.3867-4.10156 98.0957-5.81055ZM54.4434-64.5508L38.8184-48.6328C38.0859-47.8027 37.5977-46.6797 37.5977-45.7031C37.5977-43.4082 39.3066-41.6992 41.6016-41.6992C42.6758-41.6992 43.6523-42.1387 44.4336-42.9199L51.123-49.7559L53.418-52.2461L53.3203-48.6816L53.3203-8.54492C53.3203-6.29883 55.0781-4.54102 57.4219-4.54102C59.7656-4.54102 61.4746-6.29883 61.4746-8.54492L61.4746-48.7305L61.3281-52.2461L63.6719-49.7559L70.3125-42.8711C71.0938-42.0898 72.1191-41.6992 73.1934-41.6992C75.5371-41.6992 77.1973-43.3594 77.1973-45.7031C77.1973-46.7285 76.709-47.9004 75.9766-48.6328L60.3516-64.5508C58.7891-66.1133 56.2012-66.3574 54.4434-64.5508Z"/>
  </g>
  <g id="Medium-L" transform="matrix(1 0 0 1 1670.87 1556)">
   <path d="M75.6836 29.1504C110.938 29.1504 140.088 0 140.088-35.2539C140.088-70.5078 110.889-99.6582 75.6348-99.6582C40.3809-99.6582 11.2793-70.5078 11.2793-35.2539C11.2793 0 40.3809 29.1504 75.6836 29.1504ZM75.6836 18.0176C46.1426 18.0176 22.4609-5.76172 22.4609-35.2539C22.4609-64.7461 46.1426-88.5254 75.6348-88.5254C105.127-88.5254 128.906-64.7461 128.906-35.2539C128.955-5.76172 105.176 18.0176 75.6836 18.0176ZM97.5586-5.56641L113.33-21.6797C114.062-22.4121 114.551-23.4863 114.551-24.4629C114.551-26.6602 112.939-28.2715 110.742-28.2715C109.668-28.2715 108.691-27.8809 108.008-27.1484L101.172-20.0684L98.4375-17.2363L98.5352-20.752L98.5352-62.1094C98.5352-64.3066 96.875-65.918 94.7266-65.918C92.5293-65.918 90.8691-64.3066 90.8691-62.1094L90.8691-20.7031L91.0156-17.1875L88.2812-20.0684L81.3965-27.1484C80.6641-27.8809 79.7363-28.2715 78.6621-28.2715C76.416-28.2715 74.9512-26.709 74.9512-24.4629C74.9512-23.4863 75.3418-22.4609 76.0254-21.6797L91.8457-5.56641C93.3105-4.15039 95.9473-3.95508 97.5586-5.56641ZM53.7109-64.7461L37.8906-48.6328C37.207-47.8516 36.7188-46.7773 36.7188-45.8496C36.7188-43.7012 38.3301-42.041 40.5273-42.041C41.5527-42.041 42.4805-42.4805 43.2129-43.2617L50.0977-50.293L52.7832-53.1738L52.6855-49.5605L52.6855-8.20312C52.6855-6.05469 54.3457-4.44336 56.543-4.44336C58.7891-4.44336 60.4004-6.05469 60.4004-8.20312L60.4004-49.6094L60.2539-53.1738L62.9883-50.293L69.8242-43.2129C70.5566-42.4805 71.5332-42.041 72.5586-42.041C74.7559-42.041 76.3184-43.6523 76.3184-45.8496C76.3184-46.875 75.8301-47.9492 75.1465-48.6328L59.3262-64.7461C57.8613-66.2109 55.4199-66.4551 53.7109-64.7461Z"/>
  </g>
  <g id="Regular-L" transform="matrix(1 0 0 1 1374.97 1556)">
   <path d="M74.8535 28.3203C109.668 28.3203 138.477-0.488281 138.477-35.2539C138.477-70.0684 109.619-98.877 74.8047-98.877C40.0391-98.877 11.2793-70.0684 11.2793-35.2539C11.2793-0.488281 40.0879 28.3203 74.8535 28.3203ZM74.8535 19.2383C44.6777 19.2383 20.4102-5.07812 20.4102-35.2539C20.4102-65.4785 44.6289-89.7461 74.8047-89.7461C105.029-89.7461 129.297-65.4785 129.346-35.2539C129.395-5.07812 105.078 19.2383 74.8535 19.2383ZM52.832-64.9902L36.7188-48.6816C36.0352-47.9004 35.5957-46.9238 35.5957-46.0449C35.5957-44.0918 37.1094-42.5781 39.1113-42.5781C40.0391-42.5781 40.9668-43.0176 41.6504-43.7012L48.7793-50.9277L51.9531-54.3945L51.8555-50.6836L51.8555-7.71484C51.8555-5.71289 53.418-4.24805 55.4199-4.24805C57.4707-4.24805 58.9844-5.76172 58.9844-7.71484L58.9844-50.7324L58.7891-54.3945L62.0605-50.9277L69.1895-43.6523C69.873-42.9688 70.8008-42.5781 71.7285-42.5781C73.7305-42.5781 75.1953-44.043 75.1953-46.0449C75.1953-47.0215 74.7559-47.998 74.1211-48.6816L58.0078-64.9902C56.6406-66.3574 54.3945-66.6016 52.832-64.9902ZM96.8262-5.27344L112.891-21.6309C113.574-22.3145 114.014-23.3398 114.014-24.2188C114.014-26.2695 112.549-27.7344 110.547-27.7344C109.57-27.7344 108.643-27.3438 107.959-26.709L100.879-19.3848L97.6562-16.0156L97.7539-19.6289L97.7539-62.5488C97.7539-64.5996 96.2402-66.1133 94.1895-66.1133C92.1875-66.1133 90.6738-64.5996 90.6738-62.5488L90.6738-19.5801L90.8203-15.9668L87.5488-19.3848L80.4688-26.709C79.7363-27.3926 78.8574-27.7344 77.8809-27.7344C75.8301-27.7344 74.4629-26.3184 74.4629-24.2188C74.4629-23.3398 74.8047-22.3633 75.4883-21.6309L91.6016-5.27344C92.8711-4.00391 95.3613-3.80859 96.8262-5.27344Z"/>
  </g>
  <g id="Light-L" transform="matrix(1 0 0 1 1079.18 1556)">
   <path d="M73.9258 27.3926C108.301 27.3926 136.621-0.927734 136.621-35.2539C136.621-69.6289 108.252-97.9492 73.9258-97.9492C39.5508-97.9492 11.2793-69.6289 11.2793-35.2539C11.2793-0.927734 39.5996 27.3926 73.9258 27.3926ZM73.9258 20.5078C43.1152 20.5078 18.2129-4.44336 18.2129-35.2539C18.2129-66.1133 43.0664-91.0156 73.9258-91.0156C104.736-91.0156 129.688-66.1133 129.736-35.2539C129.736-4.44336 104.785 20.5078 73.9258 20.5078ZM52.6367-65.5273L35.6934-48.4863C35.1562-47.9004 34.8145-47.1191 34.8145-46.3379C34.8145-44.8242 36.0352-43.6035 37.5488-43.6035C38.3301-43.6035 39.0625-43.9453 39.6973-44.5312L47.6074-52.5879L51.9531-57.0801L51.8555-52.5879L51.8555-6.73828C51.8555-5.12695 53.125-3.95508 54.6875-3.95508C56.3477-3.95508 57.5195-5.17578 57.5195-6.73828L57.5195-52.6367L57.3242-57.0801L61.7188-52.5879L69.6777-44.5312C70.2637-43.9453 71.0449-43.6035 71.7773-43.6035C73.291-43.6035 74.5117-44.7754 74.5117-46.3379C74.5117-47.168 74.2188-47.9492 73.6328-48.4863L56.6895-65.5273C55.6152-66.6016 53.8574-66.748 52.6367-65.5273ZM95.2148-4.78516L112.061-21.8262C112.646-22.4121 113.037-23.1445 113.037-23.9258C113.037-25.5371 111.816-26.709 110.254-26.709C109.473-26.709 108.691-26.3672 108.154-25.8301L100.195-17.7734L95.8496-13.2812L95.9961-17.7246L95.9961-63.5254C95.9961-65.1855 94.7266-66.3574 93.1152-66.3574C91.5039-66.3574 90.332-65.1367 90.332-63.5254L90.332-17.6758L90.4785-13.2324L86.084-17.7734L78.1738-25.8301C77.5879-26.416 76.8555-26.709 76.0254-26.709C74.4141-26.709 73.291-25.5859 73.291-23.9258C73.291-23.1445 73.584-22.4121 74.1211-21.8262L91.0645-4.78516C92.1387-3.75977 94.043-3.61328 95.2148-4.78516Z"/>
  </g>
  <g id="Thin-L" transform="matrix(1 0 0 1 783.693 1556)">
   <path d="M72.7051 26.1719C106.494 26.1719 134.18-1.51367 134.18-35.2539C134.18-69.043 106.494-96.7285 72.7051-96.7285C38.9648-96.7285 11.2793-69.043 11.2793-35.2539C11.2793-1.51367 38.9648 26.1719 72.7051 26.1719ZM72.7051 22.168C41.0156 22.168 15.2832-3.56445 15.2832-35.2539C15.2832-66.9922 41.0156-92.7246 72.7051-92.7246C104.395-92.7246 130.176-66.9922 130.176-35.2539C130.176-3.56445 104.443 22.168 72.7051 22.168ZM52.3438-66.2109L34.375-48.291C33.9355-47.8516 33.7402-47.3633 33.7402-46.7285C33.7402-45.8008 34.5703-44.9707 35.5469-44.9707C35.9863-44.9707 36.6211-45.2148 37.0605-45.6543L46.0938-54.7363L51.9531-60.6934L51.8066-55.127L51.8066-5.46875C51.8066-4.3457 52.7344-3.61328 53.7598-3.61328C54.7852-3.61328 55.5176-4.44336 55.5176-5.46875L55.5176-55.127L55.3711-60.6934L61.2793-54.7363L70.3125-45.6543C70.752-45.2148 71.3379-44.9707 71.8262-44.9707C72.7539-44.9707 73.584-45.8008 73.584-46.7285C73.584-47.4121 73.4863-47.8516 73.0469-48.291L54.9805-66.2109C54.248-66.8945 53.125-66.9922 52.3438-66.2109ZM93.0664-4.10156L111.035-22.0215C111.475-22.4609 111.67-22.9492 111.67-23.5352C111.67-24.5117 110.84-25.3418 109.863-25.3418C109.326-25.3418 108.789-25.0977 108.35-24.707L99.3164-15.5762L93.457-9.61914L93.6035-15.1855L93.6035-64.8438C93.6035-65.9668 92.7246-66.6992 91.6504-66.6992C90.625-66.6992 89.8926-65.8691 89.8926-64.8438L89.8926-15.1855L90.0391-9.61914L84.1797-15.5762L75.1465-24.707C74.707-25.1465 74.1699-25.3418 73.584-25.3418C72.5586-25.3418 71.8262-24.6094 71.8262-23.5352C71.8262-22.8516 71.9238-22.4609 72.3633-22.0215L90.4297-4.10156C91.1621-3.41797 92.334-3.41797 93.0664-4.10156Z"/>
  </g>
  <g id="Ultralight-L" transform="matrix(1 0 0 1 487.616 1556)">
   <path d="M72.1191 25.5371C105.566 25.5371 132.91-1.80664 132.91-35.2539C132.91-68.75 105.566-96.0938 72.1191-96.0938C38.623-96.0938 11.2793-68.75 11.2793-35.2539C11.2793-1.80664 38.623 25.5371 72.1191 25.5371ZM72.1191 23.0469C39.9414 23.0469 13.7695-3.125 13.7695-35.2539C13.7695-67.4316 39.9414-93.6035 72.1191-93.6035C104.248-93.6035 130.42-67.4316 130.42-35.2539C130.42-3.125 104.248 23.0469 72.1191 23.0469ZM52.1973-66.5527L33.6914-48.1445C33.3496-47.8027 33.2031-47.4609 33.2031-46.9238C33.2031-46.2891 33.8379-45.6543 34.4727-45.6543C34.8145-45.6543 35.3516-45.8984 35.6934-46.2402L45.3125-55.8105L51.9531-62.5488L51.8066-56.3965L51.8066-4.78516C51.8066-3.95508 52.4902-3.41797 53.2715-3.41797C54.0039-3.41797 54.541-4.05273 54.541-4.78516L54.541-56.3965L54.3945-62.5488L61.0352-55.8105L70.6055-46.2402C70.9961-45.8984 71.4844-45.6543 71.8262-45.6543C72.5098-45.6543 73.1445-46.2891 73.1445-46.9238C73.1445-47.5586 73.0957-47.8027 72.7051-48.1445L54.1016-66.5527C53.5645-67.041 52.7344-67.0898 52.1973-66.5527ZM91.9434-3.75977L110.498-22.1191C110.84-22.5098 110.986-22.8516 110.986-23.3398C110.986-24.0234 110.352-24.6582 109.717-24.6582C109.277-24.6582 108.838-24.4141 108.496-24.1211L98.877-14.4531L92.2363-7.76367L92.3828-13.916L92.3828-65.5273C92.3828-66.3574 91.6992-66.8945 90.918-66.8945C90.1855-66.8945 89.6484-66.2598 89.6484-65.5273L89.6484-13.916L89.7949-7.76367L83.1543-14.4531L73.584-24.1211C73.1934-24.5117 72.7539-24.6582 72.3633-24.6582C71.6309-24.6582 71.0449-24.0723 71.0449-23.3398C71.0449-22.7539 71.0938-22.5098 71.4844-22.1191L90.0879-3.75977C90.625-3.27148 91.4062-3.27148 91.9434-3.75977Z"/>
  </g>
  <g id="Black-M" transform="matrix(1 0 0 1 2870.97 1126)">
   <path d="M62.4023 18.457C91.9922 18.457 116.113-5.61523 116.113-35.2051C116.113-64.7949 91.9922-88.8672 62.4023-88.8672C32.8125-88.8672 8.74023-64.7949 8.74023-35.2051C8.74023-5.61523 32.8125 18.457 62.4023 18.457ZM62.4023 0.195312C42.8711 0.195312 27.002-15.625 27.002-35.2051C27.002-54.7363 42.8711-70.6055 62.4023-70.6055C81.9824-70.6055 97.8027-54.7363 97.8027-35.2051C97.8027-15.625 81.9824 0.195312 62.4023 0.195312ZM78.5156-13.5254L89.6484-25.0488C90.332-25.7812 90.8691-26.8555 90.8691-27.9785C90.8691-30.3223 89.1602-31.9824 86.7676-31.9824C85.6445-31.9824 84.7168-31.6895 83.9844-30.8594L79.541-26.2695L79.5898-26.2695L79.5898-54.1992C79.5898-56.4941 77.7832-58.3008 75.4395-58.3008C73.0957-58.3008 71.3379-56.4941 71.3379-54.1992L71.3379-26.2695L66.9922-30.8594C66.2598-31.6895 65.1855-31.9824 64.1113-31.9824C61.7676-31.9824 60.0586-30.3223 60.0586-27.9785C60.0586-26.8555 60.5469-25.7812 61.3281-25.0488L72.4609-13.5254C74.1699-11.8164 76.7578-11.7676 78.5156-13.5254ZM46.3379-56.9336L35.2539-45.4102C34.4727-44.6777 33.9844-43.6035 33.9844-42.4805C33.9844-40.1855 35.6934-38.4766 38.0371-38.4766C39.1602-38.4766 40.0879-38.7695 40.8691-39.5996L45.2637-44.1895L45.2637-16.2598C45.2637-13.9648 47.0703-12.1582 49.3652-12.1582C51.7578-12.1582 53.5156-13.9648 53.5156-16.2598L53.5156-44.1895L53.4668-44.1895L57.8613-39.5996C58.5938-38.7695 59.668-38.4766 60.7422-38.4766C63.0859-38.4766 64.8438-40.1855 64.8438-42.4805C64.8438-43.6035 64.3066-44.6777 63.5254-45.4102L52.3926-56.9336C50.6836-58.6426 47.998-58.7402 46.3379-56.9336Z"/>
  </g>
  <g id="Heavy-M" transform="matrix(1 0 0 1 2575.19 1126)">
   <path d="M61.5234 17.5293C90.5273 17.5293 114.258-6.20117 114.258-35.2051C114.258-64.2578 90.5273-87.9883 61.4746-87.9883C32.4707-87.9883 8.74023-64.2578 8.74023-35.2051C8.74023-6.20117 32.4707 17.5293 61.5234 17.5293ZM61.5234 1.61133C41.1133 1.61133 24.6582-14.8438 24.6582-35.2051C24.6582-55.6152 41.1133-72.0703 61.4746-72.0703C81.8848-72.0703 98.3398-55.6152 98.3398-35.2051C98.3398-14.8438 81.8848 1.61133 61.5234 1.61133ZM77.9297-13.2324L89.2578-24.9512C89.9414-25.6836 90.3809-26.6602 90.3809-27.7344C90.3809-29.9316 88.8184-31.543 86.5723-31.543C85.498-31.543 84.5703-31.2012 83.8867-30.4688L79.2969-25.6836L78.9062-25.2441L78.9062-54.5898C78.9062-56.7871 77.1973-58.4961 75.0488-58.4961C72.8027-58.4961 71.1426-56.7871 71.1426-54.5898L71.1426-25.2441L70.7031-25.6836L66.2109-30.4688C65.4785-31.2012 64.502-31.543 63.4766-31.543C61.2305-31.543 59.668-29.9316 59.668-27.7344C59.668-26.709 60.1074-25.6836 60.8398-24.9512L72.168-13.2324C73.7305-11.6699 76.2695-11.5723 77.9297-13.2324ZM45.0684-57.1777L33.7891-45.5078C33.0566-44.7754 32.5684-43.75 32.5684-42.7246C32.5684-40.5273 34.1797-38.916 36.4258-38.916C37.5-38.916 38.3789-39.2578 39.1113-39.9902L43.6523-44.7266L44.0918-45.2148L44.043-42.4805L44.043-15.8691C44.043-13.6719 45.752-11.9629 47.9492-11.9629C50.1953-11.9629 51.8555-13.6719 51.8555-15.8691L51.8555-45.2148L52.2461-44.7266L56.7871-39.9902C57.5195-39.209 58.4961-38.916 59.5215-38.916C61.7676-38.916 63.3789-40.5273 63.3789-42.7246C63.3789-43.75 62.8418-44.7754 62.1582-45.5078L50.7812-57.1777C49.2188-58.7891 46.6797-58.8867 45.0684-57.1777Z"/>
  </g>
  <g id="Bold-M" transform="matrix(1 0 0 1 2279.5 1126)">
   <path d="M60.498 16.5039C88.8672 16.5039 112.207-6.83594 112.207-35.2051C112.207-63.623 88.8672-86.9629 60.4492-86.9629C32.0312-86.9629 8.74023-63.623 8.74023-35.2051C8.74023-6.83594 32.0801 16.5039 60.498 16.5039ZM60.498 3.22266C39.1602 3.22266 22.0703-13.916 22.0703-35.2051C22.0703-56.543 39.1602-73.6816 60.4492-73.6816C81.7383-73.6816 98.9258-56.543 98.9258-35.2051C98.9746-13.916 81.7871 3.22266 60.498 3.22266ZM77.2461-12.9395L88.8184-24.8047C89.4531-25.4883 89.8926-26.4648 89.8926-27.4414C89.8926-29.4922 88.4277-31.0059 86.3281-31.0059C85.3027-31.0059 84.4238-30.6641 83.7891-29.9805L79.0527-25.0977L78.1738-24.0723L78.1738-55.0293C78.1738-57.0801 76.6113-58.6426 74.5605-58.6426C72.4609-58.6426 70.8984-57.0801 70.8984-55.0293L70.8984-26.6602L70.9473-24.0723L70.0195-25.0977L65.332-29.9805C64.6484-30.6641 63.7207-31.0059 62.793-31.0059C60.6445-31.0059 59.1797-29.541 59.1797-27.4414C59.1797-26.5137 59.6191-25.5371 60.3027-24.8047L71.875-12.9395C73.291-11.4746 75.7324-11.377 77.2461-12.9395ZM43.7012-57.4707L32.1289-45.5566C31.4941-44.873 31.0059-43.8965 31.0059-42.9688C31.0059-40.918 32.5195-39.4043 34.6191-39.4043C35.5957-39.4043 36.4746-39.7461 37.1582-40.4297L41.8457-45.3613L42.7734-46.3379L42.7246-43.75L42.7246-15.3809C42.7246-13.3301 44.3359-11.7676 46.3867-11.7676C48.4863-11.7676 50.0488-13.3301 50.0488-15.3809L50.0488-43.75L49.9512-46.3379L50.8789-45.3613L55.6152-40.4297C56.25-39.6973 57.1777-39.4043 58.1543-39.4043C60.2539-39.4043 61.7676-40.8691 61.7676-42.9688C61.7676-43.9453 61.2793-44.9219 60.5957-45.5566L49.0234-57.4707C47.6074-58.9355 45.2637-59.082 43.7012-57.4707Z"/>
  </g>
  <g id="Semibold-M" transform="matrix(1 0 0 1 1983.5 1126)">
   <path d="M59.7656 15.8203C87.7441 15.8203 110.791-7.27539 110.791-35.2539C110.791-63.2324 87.6953-86.2793 59.7656-86.2793C31.7871-86.2793 8.74023-63.2324 8.74023-35.2539C8.74023-7.27539 31.7871 15.8203 59.7656 15.8203ZM59.7656 4.3457C37.8418 4.3457 20.2637-13.3301 20.2637-35.2539C20.2637-57.1777 37.793-74.8047 59.7656-74.8047C81.6895-74.8047 99.3164-57.1777 99.3652-35.2539C99.3652-13.3301 81.6895 4.3457 59.7656 4.3457ZM76.8066-12.6953L88.4766-24.7559C89.1113-25.3906 89.5508-26.3672 89.5508-27.2461C89.5508-29.248 88.1348-30.6641 86.1328-30.6641C85.2051-30.6641 84.3262-30.3223 83.6914-29.6387L78.8574-24.6582L77.6367-23.291L77.6855-25.7812L77.6855-55.3223C77.6855-57.3242 76.1719-58.7891 74.2188-58.7891C72.2168-58.7891 70.752-57.2754 70.752-55.3223L70.752-25.7324L70.8008-23.2422L69.5312-24.6582L64.6973-29.6387C64.0625-30.3223 63.1836-30.6641 62.3047-30.6641C60.2539-30.6641 58.8867-29.248 58.8867-27.2461C58.8867-26.3672 59.2773-25.4395 59.9121-24.7559L71.6309-12.6953C72.9492-11.377 75.3418-11.2305 76.8066-12.6953ZM42.7246-57.666L31.0059-45.6543C30.3711-44.9707 29.9316-43.9941 29.9316-43.1641C29.9316-41.1621 31.3965-39.7461 33.3496-39.7461C34.2773-39.7461 35.1074-40.0879 35.791-40.7715L40.625-45.752L41.8457-47.168L41.7969-44.6289L41.7969-15.0391C41.7969-13.0859 43.3105-11.6211 45.2637-11.6211C47.3145-11.6211 48.7793-13.1348 48.7793-15.0391L48.7793-44.6289L48.6816-47.168L49.9512-45.752L54.7852-40.7227C55.4199-40.0391 56.2988-39.7461 57.2266-39.7461C59.1797-39.7461 60.6445-41.1621 60.6445-43.1641C60.6445-44.043 60.1562-45.0195 59.5703-45.6543L47.8027-57.666C46.4844-59.0332 44.2383-59.2285 42.7246-57.666Z"/>
  </g>
  <g id="Medium-M" transform="matrix(1 0 0 1 1687.3 1126)">
   <path d="M59.2285 15.2344C86.9141 15.2344 109.766-7.61719 109.766-35.2539C109.766-62.8906 86.8652-85.7422 59.1797-85.7422C31.543-85.7422 8.74023-62.8906 8.74023-35.2539C8.74023-7.61719 31.5918 15.2344 59.2285 15.2344ZM59.2285 5.17578C36.8164 5.17578 18.8965-12.8418 18.8965-35.2539C18.8965-57.666 36.8164-75.6348 59.1797-75.6348C81.5918-75.6348 99.6094-57.666 99.6582-35.2539C99.707-12.8418 81.6406 5.17578 59.2285 5.17578ZM76.416-12.5488L88.2324-24.6582C88.8672-25.293 89.3066-26.2207 89.3066-27.0996C89.3066-29.0039 87.9395-30.3711 85.9863-30.3711C85.1074-30.3711 84.2285-30.0293 83.6426-29.3945L78.7598-24.3164L77.2461-22.7051L77.2949-25.0977L77.2949-55.5664C77.2949-57.4707 75.8789-58.8867 73.9746-58.8867C72.0703-58.8867 70.6055-57.4707 70.6055-55.5664L70.6055-25.0488L70.7031-22.6562L69.1895-24.3164L64.2578-29.3945C63.623-30.0293 62.793-30.3711 61.9141-30.3711C59.9609-30.3711 58.6426-29.0039 58.6426-27.0996C58.6426-26.2695 59.0332-25.3418 59.6191-24.6582L71.4844-12.5488C72.7051-11.2793 75.0488-11.084 76.416-12.5488ZM41.9922-57.8125L30.127-45.6543C29.541-45.0195 29.1016-44.0918 29.1016-43.2617C29.1016-41.4062 30.5176-39.9902 32.4219-39.9902C33.3008-39.9902 34.1309-40.332 34.7656-41.0156L39.6973-46.0938L41.1621-47.7539L41.1133-45.2637L41.1133-14.7949C41.1133-12.9395 42.5293-11.5234 44.4336-11.5234C46.3867-11.5234 47.8027-12.9395 47.8027-14.7949L47.8027-45.3125L47.7051-47.7539L49.2188-46.0938L54.1504-40.9668C54.7852-40.332 55.6152-39.9902 56.4941-39.9902C58.3984-39.9902 59.7656-41.3574 59.7656-43.2617C59.7656-44.1406 59.3262-45.0684 58.7402-45.6543L46.875-57.8125C45.6055-59.1309 43.5059-59.3262 41.9922-57.8125Z"/>
  </g>
  <g id="Regular-M" transform="matrix(1 0 0 1 1391.3 1126)">
   <path d="M58.5449 14.5508C85.791 14.5508 108.35-8.05664 108.35-35.2539C108.35-62.5 85.7422-85.0586 58.4961-85.0586C31.2988-85.0586 8.74023-62.5 8.74023-35.2539C8.74023-8.05664 31.3477 14.5508 58.5449 14.5508ZM58.5449 6.25C35.498 6.25 17.0898-12.207 17.0898-35.2539C17.0898-58.3008 35.4492-76.7578 58.4961-76.7578C81.543-76.7578 100-58.3008 100.049-35.2539C100.098-12.207 81.5918 6.25 58.5449 6.25ZM75.9766-12.3047L87.9395-24.6094C88.5254-25.1953 88.9648-26.123 88.9648-26.8555C88.9648-28.7109 87.6465-30.0293 85.8398-30.0293C84.9609-30.0293 84.1309-29.6875 83.5938-29.1016L78.5645-23.877L76.709-21.9238L76.8066-24.2188L76.8066-55.8594C76.8066-57.666 75.4395-58.9844 73.6328-58.9844C71.8262-58.9844 70.459-57.666 70.459-55.8594L70.459-24.1699L70.5566-21.875L68.7012-23.877L63.6719-29.1016C63.0371-29.6875 62.3047-30.0293 61.4258-30.0293C59.5703-30.0293 58.3496-28.7598 58.3496-26.8555C58.3496-26.123 58.6914-25.2441 59.2285-24.6094L71.2402-12.3047C72.4121-11.1328 74.6582-10.9375 75.9766-12.3047ZM41.0645-58.0078L29.0039-45.752C28.4668-45.0684 28.0273-44.1895 28.0273-43.457C28.0273-41.6504 29.3945-40.332 31.2012-40.332C32.0312-40.332 32.8125-40.7227 33.3984-41.3086L38.4277-46.4844L40.2832-48.5352L40.1855-46.1426L40.1855-14.4531C40.1855-12.6953 41.5527-11.377 43.3594-11.377C45.2148-11.377 46.5332-12.6953 46.5332-14.4531L46.5332-46.1914L46.4355-48.5352L48.291-46.4844L53.3691-41.2598C53.9551-40.6738 54.7363-40.332 55.5664-40.332C57.373-40.332 58.6426-41.6016 58.6426-43.457C58.6426-44.2383 58.252-45.166 57.7148-45.752L45.7031-58.0078C44.5312-59.2285 42.4805-59.4238 41.0645-58.0078Z"/>
  </g>
  <g id="Light-M" transform="matrix(1 0 0 1 1095.42 1126)">
   <path d="M57.7148 13.7207C84.5215 13.7207 106.689-8.44727 106.689-35.2539C106.689-62.1094 84.5215-84.2285 57.666-84.2285C30.8594-84.2285 8.74023-62.1094 8.74023-35.2539C8.74023-8.44727 30.9082 13.7207 57.7148 13.7207ZM57.7148 7.37305C34.082 7.37305 15.0879-11.6699 15.0879-35.2539C15.0879-58.8867 34.082-77.9297 57.666-77.9297C81.2988-77.9297 100.342-58.8867 100.391-35.2539C100.391-11.6699 81.3477 7.37305 57.7148 7.37305ZM40.8691-58.4961L28.125-45.6055C27.6367-45.0684 27.3438-44.3359 27.3438-43.7012C27.3438-42.334 28.418-41.2598 29.7852-41.2598C30.4688-41.2598 31.1523-41.5527 31.6406-42.0898L37.4023-47.9492L40.2832-50.9766L40.1855-47.8516L40.1855-13.5742C40.1855-12.1582 41.3086-11.1328 42.7246-11.1328C44.1895-11.1328 45.2148-12.207 45.2148-13.5742L45.2148-47.8516L45.1172-50.9766L47.998-47.9492L53.7598-42.041C54.2969-41.5527 54.9316-41.2598 55.6152-41.2598C56.9824-41.2598 58.0566-42.2852 58.0566-43.7012C58.0566-44.4336 57.7637-45.1172 57.2754-45.6055L44.5312-58.4961C43.6035-59.4238 41.9922-59.5703 40.8691-58.4961ZM74.5117-11.8652L87.207-24.7559C87.7441-25.2441 88.0371-25.9766 88.0371-26.6113C88.0371-28.0273 87.0117-29.1016 85.5957-29.1016C84.8633-29.1016 84.2285-28.8086 83.7402-28.3203L77.9785-22.4121L75.0977-19.4336L75.1953-22.5098L75.1953-56.7383C75.1953-58.2031 74.0723-59.2285 72.6562-59.2285C71.2402-59.2285 70.166-58.1543 70.166-56.7383L70.166-22.4609L70.2637-19.3848L67.3828-22.4121L61.6211-28.3203C61.084-28.8574 60.4492-29.1016 59.7656-29.1016C58.3008-29.1016 57.3242-28.0762 57.3242-26.6113C57.3242-25.9766 57.5684-25.293 58.0566-24.7559L70.8008-11.8652C71.7285-10.9375 73.4863-10.791 74.5117-11.8652Z"/>
  </g>
  <g id="Thin-M" transform="matrix(1 0 0 1 799.806 1126)">
   <path d="M56.6406 12.5977C82.9102 12.5977 104.492-8.98438 104.492-35.2539C104.492-61.5723 82.9102-83.1543 56.5918-83.1543C30.3223-83.1543 8.74023-61.5723 8.74023-35.2539C8.74023-8.98438 30.3223 12.5977 56.6406 12.5977ZM56.6406 8.88672C32.2266 8.88672 12.4512-10.8887 12.4512-35.2539C12.4512-59.6191 32.2266-79.4434 56.5918-79.4434C81.0059-79.4434 100.781-59.6191 100.781-35.2539C100.781-10.8887 81.0059 8.88672 56.6406 8.88672ZM40.625-59.082L26.9531-45.4102C26.5625-45.0195 26.3672-44.5801 26.3672-44.0918C26.3672-43.2129 27.0996-42.4805 27.9785-42.4805C28.418-42.4805 28.9062-42.7246 29.2969-43.0664L36.0352-49.8535L40.2832-54.1992L40.1855-50.0977L40.1855-12.4512C40.1855-11.4746 40.9668-10.791 41.8457-10.791C42.8223-10.791 43.457-11.5234 43.457-12.4512L43.457-50.0977L43.3594-54.1992L47.5586-49.8535L54.3457-43.0664C54.7363-42.6758 55.2246-42.4805 55.6641-42.4805C56.543-42.4805 57.2266-43.2129 57.2266-44.0918C57.2266-44.6289 57.0801-45.0195 56.7383-45.4102L43.0176-59.082C42.334-59.7168 41.3574-59.7656 40.625-59.082ZM72.6074-11.2305L86.2793-24.9512C86.6699-25.3418 86.8652-25.7324 86.8652-26.2695C86.8652-27.1484 86.1328-27.8809 85.2539-27.8809C84.7656-27.8809 84.2773-27.6367 83.9355-27.3438L77.1484-20.459L72.9492-16.1621L73.0469-20.2637L73.0469-57.9102C73.0469-58.8867 72.2656-59.5703 71.3867-59.5703C70.459-59.5703 69.7754-58.8379 69.7754-57.9102L69.7754-20.2148L69.873-16.1621L65.6738-20.459L58.8867-27.3438C58.4961-27.6855 58.0566-27.8809 57.5684-27.8809C56.6406-27.8809 56.0059-27.1973 56.0059-26.2695C56.0059-25.7324 56.1035-25.3418 56.4941-24.9512L70.2148-11.2305C70.8496-10.6445 71.9238-10.5957 72.6074-11.2305Z"/>
  </g>
  <g id="Ultralight-M" transform="matrix(1 0 0 1 503.656 1126)">
   <path d="M56.0547 12.0605C82.0801 12.0605 103.369-9.22852 103.369-35.2539C103.369-61.2793 82.0801-82.5684 56.0547-82.5684C30.0293-82.5684 8.74023-61.2793 8.74023-35.2539C8.74023-9.22852 30.0293 12.0605 56.0547 12.0605ZM56.0547 9.66797C31.2988 9.66797 11.1328-10.498 11.1328-35.2539C11.1328-60.0586 31.2988-80.1758 56.0547-80.1758C80.8594-80.1758 100.977-60.0586 100.977-35.2539C100.977-10.498 80.8594 9.66797 56.0547 9.66797ZM40.5273-59.4238L26.3184-45.2637C26.0254-44.9707 25.9277-44.6777 25.9277-44.2383C25.9277-43.6523 26.4648-43.1152 27.0508-43.1152C27.3438-43.1152 27.7832-43.2617 28.0762-43.6035L35.3516-50.8789L40.2832-55.8594L40.1367-51.2695L40.1367-11.8164C40.1367-11.1328 40.7715-10.6445 41.4062-10.6445C42.0898-10.6445 42.5781-11.1816 42.5781-11.8164L42.5781-51.2695L42.4316-55.8594L47.3633-50.8789L54.6387-43.6035C54.9316-43.3105 55.3711-43.1152 55.6641-43.1152C56.2988-43.1152 56.8359-43.6523 56.8359-44.2383C56.8359-44.7266 56.7871-44.9707 56.4453-45.2637L42.1875-59.4238C41.748-59.8145 41.0156-59.8633 40.5273-59.4238ZM71.6309-10.9375L85.791-25.0488C86.084-25.3418 86.2305-25.6348 86.2305-26.0742C86.2305-26.709 85.6934-27.2461 85.0586-27.2461C84.7168-27.2461 84.3262-27.0508 84.0332-26.8066L76.7578-19.4824L71.8262-14.502L71.9727-19.0918L71.9727-58.4961C71.9727-59.2285 71.3867-59.7168 70.7031-59.7168C70.0195-59.7168 69.5312-59.1797 69.5312-58.4961L69.5312-19.0918L69.6777-14.502L64.7461-19.4824L57.4707-26.8066C57.1777-27.0996 56.8359-27.2461 56.4453-27.2461C55.8105-27.2461 55.3223-26.7578 55.3223-26.0742C55.3223-25.5859 55.3711-25.3418 55.6641-25.0488L69.9219-10.9375C70.4102-10.498 71.1426-10.498 71.6309-10.9375Z"/>
  </g>
  <g id="Black-S" transform="matrix(1 0 0 1 2884.57 696)">
   <path d="M48.8281 6.78711C71.9727 6.78711 90.8203-12.0605 90.8203-35.2051C90.8203-58.3496 71.9727-77.1973 48.8281-77.1973C25.6836-77.1973 6.83594-58.3496 6.83594-35.2051C6.83594-12.0605 25.6836 6.78711 48.8281 6.78711ZM48.8281-7.37305C33.4473-7.37305 20.9961-19.8242 20.9961-35.2051C20.9961-50.5859 33.4473-63.0371 48.8281-63.0371C64.209-63.0371 76.6602-50.5859 76.6602-35.2051C76.6602-19.8242 64.209-7.37305 48.8281-7.37305ZM61.4746-18.2129L70.2148-27.2461C70.752-27.832 71.1426-28.6621 71.1426-29.541C71.1426-31.3477 69.8242-32.666 67.9688-32.666C67.0898-32.666 66.3574-32.4219 65.7715-31.7871L62.3047-28.1738L62.3047-50.0977C62.3047-51.9043 60.8887-53.3203 59.082-53.3203C57.2266-53.3203 55.8594-51.9043 55.8594-50.0977L55.8594-28.1738L52.4414-31.7871C51.8555-32.4219 51.0254-32.666 50.1953-32.666C48.3398-32.666 47.0215-31.3477 47.0215-29.541C47.0215-28.6621 47.4121-27.832 47.998-27.2461L56.7383-18.2129C58.0566-16.8945 60.1074-16.8457 61.4746-18.2129ZM36.1816-52.2461L27.4902-43.2129C26.9043-42.627 26.5137-41.7969 26.5137-40.918C26.5137-39.1113 27.832-37.793 29.6875-37.793C30.5664-37.793 31.2988-38.0371 31.8848-38.6719L35.3516-42.2852L35.3516-20.3613C35.3516-18.5547 36.7676-17.1387 38.5742-17.1387C40.4297-17.1387 41.7969-18.5547 41.7969-20.3613L41.7969-42.2852L45.2148-38.6719C45.8008-38.0371 46.6309-37.793 47.4609-37.793C49.3164-37.793 50.6836-39.1113 50.6836-40.918C50.6836-41.7969 50.2441-42.627 49.6582-43.2129L40.918-52.2461C39.5996-53.5645 37.5-53.6621 36.1816-52.2461Z"/>
  </g>
  <g id="Heavy-S" transform="matrix(1 0 0 1 2588.47 696)">
   <path d="M48.2422 6.15234C70.9961 6.15234 89.5996-12.4512 89.5996-35.2051C89.5996-57.959 70.9961-76.6113 48.1934-76.6113C25.4395-76.6113 6.83594-57.959 6.83594-35.2051C6.83594-12.4512 25.4395 6.15234 48.2422 6.15234ZM48.2422-6.39648C32.2754-6.39648 19.4336-19.2871 19.4336-35.2051C19.4336-51.1719 32.2754-64.0137 48.1934-64.0137C64.1602-64.0137 77.002-51.1719 77.0508-35.2051C77.0508-19.2871 64.1602-6.39648 48.2422-6.39648ZM61.1816-18.0664L69.9707-27.1484C70.5078-27.7344 70.8984-28.5645 70.8984-29.3457C70.8984-31.1523 69.6289-32.4219 67.8223-32.4219C66.9922-32.4219 66.2598-32.1777 65.6738-31.543L62.207-27.9297L61.9629-27.6367L61.9629-50.293C61.9629-52.0508 60.5957-53.418 58.8379-53.418C57.0801-53.418 55.7129-52.0508 55.7129-50.293L55.7129-29.6875L55.7617-27.6367L55.5176-27.9297L52.0508-31.543C51.5137-32.1777 50.6836-32.4219 49.9023-32.4219C48.0957-32.4219 46.8262-31.1523 46.8262-29.3457C46.8262-28.5645 47.2168-27.7344 47.7539-27.1484L56.5918-18.0664C57.8125-16.7969 59.8633-16.6992 61.1816-18.0664ZM35.2539-52.3926L26.4648-43.3105C25.9277-42.7246 25.5371-41.8945 25.5371-41.0645C25.5371-39.3066 26.8066-38.0371 28.6133-38.0371C29.4434-38.0371 30.1758-38.2812 30.7129-38.916L34.2285-42.5293L34.4727-42.8223L34.4238-40.7715L34.4238-20.1172C34.4238-18.4082 35.791-17.041 37.5488-17.041C39.3555-17.041 40.6738-18.4082 40.6738-20.1172L40.6738-42.8223L40.918-42.5293L44.3359-38.8672C44.9219-38.2812 45.7031-38.0371 46.5332-38.0371C48.3398-38.0371 49.6582-39.3066 49.6582-41.0645C49.6582-41.8945 49.2188-42.7246 48.6328-43.3105L39.8438-52.3926C38.5742-53.6621 36.5723-53.7598 35.2539-52.3926Z"/>
  </g>
  <g id="Bold-S" transform="matrix(1 0 0 1 2292.44 696)">
   <path d="M47.5586 5.46875C69.873 5.46875 88.2324-12.8906 88.2324-35.2539C88.2324-57.5684 69.873-75.9277 47.5098-75.9277C25.1953-75.9277 6.83594-57.5684 6.83594-35.2539C6.83594-12.8906 25.1953 5.46875 47.5586 5.46875ZM47.5586-5.32227C30.957-5.32227 17.6758-18.6523 17.6758-35.2539C17.6758-51.8066 30.957-65.1367 47.5098-65.1367C64.1113-65.1367 77.4414-51.8066 77.4414-35.2539C77.4414-18.6523 64.1113-5.32227 47.5586-5.32227ZM60.8398-17.8711L69.7266-27.0508C70.2637-27.5879 70.6543-28.418 70.6543-29.1992C70.6543-30.9082 69.3848-32.1289 67.6758-32.1289C66.8457-32.1289 66.1133-31.8848 65.5762-31.2988L62.0605-27.6367L61.5723-27.0996L61.6211-28.9062L61.6211-50.5371C61.6211-52.2461 60.3027-53.5156 58.5938-53.5156C56.8848-53.5156 55.6152-52.2461 55.6152-50.5371L55.6152-28.8574L55.6641-27.0508L55.127-27.6367L51.6602-31.2988C51.0742-31.8848 50.3418-32.1289 49.5605-32.1289C47.8027-32.1289 46.582-30.9082 46.582-29.1992C46.582-28.418 46.9727-27.6367 47.5098-27.0508L56.3965-17.8711C57.5195-16.6992 59.5703-16.5527 60.8398-17.8711ZM34.2285-52.5391L25.3418-43.3594C24.8047-42.7734 24.4141-41.9922 24.4141-41.2109C24.4141-39.5508 25.6348-38.2812 27.3926-38.2812C28.2227-38.2812 28.9062-38.5742 29.4434-39.1602L32.959-42.8223L33.4473-43.3594L33.3984-41.5039L33.3984-19.873C33.3984-18.2129 34.7168-16.8945 36.4258-16.8945C38.1836-16.8945 39.4531-18.2129 39.4531-19.873L39.4531-41.5527L39.4043-43.3594L39.8926-42.8223L43.4082-39.1113C43.9453-38.5254 44.6777-38.2812 45.5078-38.2812C47.2168-38.2812 48.4863-39.502 48.4863-41.2109C48.4863-41.9922 48.0469-42.8223 47.5098-43.3594L38.623-52.5391C37.4512-53.7598 35.498-53.9062 34.2285-52.5391Z"/>
  </g>
  <g id="Semibold-S" transform="matrix(1 0 0 1 1996.2 696)">
   <path d="M47.0703 4.98047C69.0918 4.98047 87.3047-13.1836 87.3047-35.2539C87.3047-57.2754 69.0918-75.4883 47.0215-75.4883C25-75.4883 6.83594-57.2754 6.83594-35.2539C6.83594-13.1836 25.0488 4.98047 47.0703 4.98047ZM47.0703-4.58984C30.0781-4.58984 16.4551-18.2129 16.4551-35.2539C16.4551-52.2461 30.0293-65.8691 47.0215-65.8691C64.0625-65.8691 77.6855-52.2461 77.7344-35.2539C77.7344-18.2129 64.0625-4.58984 47.0703-4.58984ZM60.6445-17.7246L69.5312-26.9531C70.0684-27.4902 70.459-28.3203 70.459-29.0527C70.459-30.7617 69.2383-31.9336 67.5293-31.9336C66.748-31.9336 66.0156-31.6406 65.5273-31.1035L61.9629-27.4414L61.3281-26.6602L61.377-28.3691L61.377-50.6836C61.377-52.3438 60.1074-53.6133 58.4473-53.6133C56.7871-53.6133 55.5176-52.3438 55.5176-50.6836L55.5176-28.3203L55.5664-26.6602L54.8828-27.4414L51.3672-31.1035C50.8301-31.6406 50.0977-31.9336 49.3164-31.9336C47.6074-31.9336 46.4355-30.7617 46.4355-29.0527C46.4355-28.3203 46.7773-27.5391 47.3145-26.9531L56.25-17.7246C57.373-16.6016 59.375-16.4551 60.6445-17.7246ZM33.4961-52.6855L24.5117-43.4082C24.0234-42.8711 23.6328-42.041 23.6328-41.3574C23.6328-39.6973 24.8535-38.4766 26.5625-38.4766C27.3438-38.4766 28.0273-38.7695 28.5645-39.3066L32.1289-43.0176L32.7637-43.7988L32.7148-42.041L32.7148-19.7266C32.7148-18.0664 33.9844-16.7969 35.6445-16.7969C37.3535-16.7969 38.5742-18.0664 38.5742-19.7266L38.5742-42.041L38.5254-43.7988L39.209-43.0176L42.7246-39.3066C43.2617-38.7207 43.9941-38.4766 44.7754-38.4766C46.4355-38.4766 47.6562-39.6484 47.6562-41.3574C47.6562-42.0898 47.2656-42.9199 46.7285-43.4082L37.793-52.6855C36.6699-53.8086 34.7656-53.9551 33.4961-52.6855Z"/>
  </g>
  <g id="Medium-S" transform="matrix(1 0 0 1 1699.83 696)">
   <path d="M46.7285 4.63867C68.5547 4.63867 86.6211-13.4277 86.6211-35.2539C86.6211-57.0801 68.5059-75.1465 46.6797-75.1465C24.8535-75.1465 6.83594-57.0801 6.83594-35.2539C6.83594-13.4277 24.9023 4.63867 46.7285 4.63867ZM46.7285-4.00391C29.3945-4.00391 15.5273-17.9199 15.5273-35.2539C15.5273-52.5879 29.3457-66.4551 46.6797-66.4551C64.0137-66.4551 77.8809-52.5879 77.9297-35.2539C77.9785-17.9199 64.0625-4.00391 46.7285-4.00391ZM60.4492-17.627L69.3848-26.9043C69.9219-27.4414 70.3125-28.2227 70.3125-28.9551C70.3125-30.6152 69.1406-31.7871 67.4805-31.7871C66.6992-31.7871 65.9668-31.4941 65.4785-30.957L61.9141-27.2461L61.1328-26.3672L61.1816-27.9297L61.1816-50.8301C61.1816-52.4414 59.9609-53.6621 58.3008-53.6621C56.6895-53.6621 55.4199-52.4414 55.4199-50.8301L55.4199-27.9297L55.5176-26.3184L54.6875-27.2461L51.123-30.957C50.5859-31.4941 49.9023-31.7871 49.1211-31.7871C47.4609-31.7871 46.3379-30.6152 46.3379-28.9551C46.3379-28.2715 46.6797-27.4902 47.168-26.9043L56.1523-17.627C57.2266-16.5527 59.2285-16.4062 60.4492-17.627ZM32.959-52.7344L23.9258-43.457C23.4375-42.9199 23.0469-42.0898 23.0469-41.4551C23.0469-39.7949 24.2676-38.5742 25.9277-38.5742C26.709-38.5742 27.3438-38.916 27.8809-39.4531L31.4453-43.1641L32.2266-44.0918L32.1777-42.4316L32.1777-19.5801C32.1777-17.9688 33.3984-16.748 35.0586-16.748C36.7188-16.748 37.9395-17.9688 37.9395-19.5801L37.9395-42.4805L37.8418-44.0918L38.6719-43.1641L42.2363-39.4043C42.7734-38.8672 43.457-38.5742 44.2383-38.5742C45.8496-38.5742 47.0215-39.7461 47.0215-41.4551C47.0215-42.1387 46.6797-42.9688 46.1426-43.457L37.1582-52.7344C36.084-53.8574 34.2285-54.0527 32.959-52.7344Z"/>
  </g>
  <g id="Regular-S" transform="matrix(1 0 0 1 1403.58 696)">
   <path d="M46.2402 4.15039C67.7734 4.15039 85.6934-13.7207 85.6934-35.2539C85.6934-56.7871 67.7246-74.6582 46.1914-74.6582C24.707-74.6582 6.83594-56.7871 6.83594-35.2539C6.83594-13.7207 24.7559 4.15039 46.2402 4.15039ZM46.2402-3.27148C28.5156-3.27148 14.3555-17.4805 14.3555-35.2539C14.3555-53.0273 28.4668-67.2363 46.1914-67.2363C63.9648-67.2363 78.1738-53.0273 78.2227-35.2539C78.2715-17.4805 64.0137-3.27148 46.2402-3.27148ZM60.2051-17.5293L69.2383-26.8066C69.7266-27.3438 70.1172-28.1738 70.1172-28.8086C70.1172-30.4688 68.9941-31.5918 67.334-31.5918C66.6016-31.5918 65.8691-31.2988 65.3809-30.8105L61.8164-27.0508L60.8887-25.9766L60.9375-27.4414L60.9375-50.9766C60.9375-52.5879 59.7656-53.7598 58.1543-53.7598C56.543-53.7598 55.3223-52.5879 55.3223-50.9766L55.3223-27.3926L55.4199-25.9277L54.4434-27.0508L50.8301-30.8105C50.3418-31.2988 49.6582-31.5918 48.9258-31.5918C47.2656-31.5918 46.1914-30.4688 46.1914-28.8086C46.1914-28.1738 46.4844-27.3926 46.9727-26.8066L56.0547-17.5293C57.0312-16.4551 59.0332-16.3086 60.2051-17.5293ZM32.2266-52.832L23.1445-43.5547C22.6562-42.9688 22.3145-42.1875 22.3145-41.5527C22.3145-39.9414 23.4863-38.7695 25.0977-38.7695C25.8301-38.7695 26.5137-39.1113 27.002-39.5996L30.6152-43.3594L31.543-44.4824L31.4941-42.9199L31.4941-19.3848C31.4941-17.8223 32.666-16.6504 34.2773-16.6504C35.9375-16.6504 37.1094-17.8223 37.1094-19.3848L37.1094-42.9688L37.0117-44.4824L37.9883-43.3594L41.5527-39.5508C42.0898-39.0625 42.7734-38.7695 43.5059-38.7695C45.1172-38.7695 46.2402-39.8926 46.2402-41.5527C46.2402-42.2363 45.8496-43.0664 45.4102-43.5547L36.3281-52.832C35.3027-53.9551 33.4961-54.1016 32.2266-52.832Z"/>
  </g>
  <g id="Light-S" transform="matrix(1 0 0 1 1107.6 696)">
   <path d="M45.5078 3.41797C66.6992 3.41797 84.2285-14.0625 84.2285-35.2539C84.2285-56.4453 66.6504-73.9258 45.5078-73.9258C24.3164-73.9258 6.83594-56.4453 6.83594-35.2539C6.83594-14.0625 24.3652 3.41797 45.5078 3.41797ZM45.5078-2.29492C27.2461-2.29492 12.5977-16.9922 12.5977-35.2539C12.5977-53.5156 27.1973-68.2129 45.5078-68.2129C63.7695-68.2129 78.4668-53.5156 78.5156-35.2539C78.5156-16.9922 63.8184-2.29492 45.5078-2.29492ZM32.0801-53.2715L22.3633-43.4082C21.9727-42.9199 21.6797-42.334 21.6797-41.7969C21.6797-40.5273 22.6074-39.5996 23.877-39.5996C24.4629-39.5996 25-39.8438 25.4395-40.2832L29.6875-44.6289L31.543-46.6309L31.4941-44.4336L31.4941-18.6035C31.4941-17.3828 32.4219-16.4551 33.6914-16.4551C35.0098-16.4551 35.9375-17.3828 35.9375-18.6035L35.9375-44.4824L35.8398-46.6309L37.6953-44.6289L41.9434-40.2832C42.3828-39.8438 42.9688-39.5996 43.5547-39.5996C44.7754-39.5996 45.7031-40.4785 45.7031-41.7969C45.7031-42.3828 45.4102-43.0176 45.0195-43.4082L35.3027-53.2715C34.4727-54.1016 33.0566-54.248 32.0801-53.2715ZM58.9355-17.0898L68.6035-26.9531C69.043-27.3926 69.3359-28.0273 69.3359-28.5645C69.3359-29.8828 68.4082-30.7617 67.1387-30.7617C66.5039-30.7617 65.918-30.5176 65.5273-30.127L61.2793-25.7812L59.4238-23.7793L59.5215-25.9277L59.5215-51.7578C59.5215-53.0273 58.5449-53.9551 57.2754-53.9551C56.0059-53.9551 55.0781-53.0273 55.0781-51.7578L55.0781-25.8789L55.1758-23.7793L53.2715-25.7812L49.0234-30.127C48.584-30.5664 48.0469-30.7617 47.4609-30.7617C46.1426-30.7617 45.2637-29.8828 45.2637-28.5645C45.2637-28.0273 45.5078-27.4414 45.9473-26.9531L55.6152-17.0898C56.4453-16.2598 58.0078-16.1621 58.9355-17.0898Z"/>
  </g>
  <g id="Thin-S" transform="matrix(1 0 0 1 811.867 696)">
   <path d="M44.5801 2.49023C65.2832 2.49023 82.2754-14.5508 82.2754-35.2539C82.2754-55.957 65.2344-72.998 44.5312-72.998C23.8281-72.998 6.83594-55.957 6.83594-35.2539C6.83594-14.5508 23.877 2.49023 44.5801 2.49023ZM44.5801-0.927734C25.5859-0.927734 10.2539-16.3086 10.2539-35.2539C10.2539-54.1992 25.5859-69.5801 44.5312-69.5801C63.5254-69.5801 78.8574-54.1992 78.8574-35.2539C78.8574-16.3086 63.5254-0.927734 44.5801-0.927734ZM31.8848-53.8086L21.3379-43.2129C20.9961-42.9199 20.8496-42.4805 20.8496-42.0898C20.8496-41.3086 21.4844-40.6738 22.2656-40.6738C22.6562-40.6738 23.0469-40.8691 23.3887-41.1621L28.5156-46.3379L31.543-49.4629L31.4453-46.4355L31.4453-17.5781C31.4453-16.748 32.1289-16.1621 32.959-16.1621C33.7891-16.1621 34.375-16.7969 34.375-17.5781L34.375-46.4355L34.2773-49.4629L37.3535-46.3379L42.4316-41.1621C42.7734-40.8691 43.2129-40.6738 43.5547-40.6738C44.3848-40.6738 44.9707-41.3086 44.9707-42.0898C44.9707-42.5293 44.873-42.9199 44.5312-43.2129L33.9844-53.8086C33.3984-54.3457 32.5195-54.4434 31.8848-53.8086ZM57.2266-16.5527L67.7734-27.1484C68.0664-27.4414 68.2617-27.832 68.2617-28.2715C68.2617-29.0527 67.627-29.6875 66.8457-29.6875C66.4062-29.6875 66.0156-29.4922 65.7227-29.248L60.5957-24.0234L57.5684-20.8984L57.6172-23.9258L57.6172-52.7832C57.6172-53.6133 56.9824-54.1992 56.1523-54.1992C55.3223-54.1992 54.7363-53.5645 54.7363-52.7832L54.7363-23.9258L54.834-20.8984L51.7578-24.0234L46.6309-29.248C46.3379-29.541 45.9473-29.6875 45.5078-29.6875C44.6777-29.6875 44.0918-29.1016 44.0918-28.2715C44.0918-27.832 44.2383-27.4414 44.5312-27.1484L55.127-16.5527C55.6641-16.0156 56.6406-15.9668 57.2266-16.5527Z"/>
  </g>
  <g id="Ultralight-S" transform="matrix(1 0 0 1 515.644 696)">
   <path d="M44.043 1.95312C64.502 1.95312 81.2988-14.7949 81.2988-35.2539C81.2988-55.7129 64.502-72.4609 44.043-72.4609C23.584-72.4609 6.83594-55.7129 6.83594-35.2539C6.83594-14.7949 23.584 1.95312 44.043 1.95312ZM44.043-0.244141C24.7559-0.244141 9.08203-15.9668 9.08203-35.2539C9.08203-54.541 24.7559-70.2637 44.043-70.2637C63.3789-70.2637 79.0527-54.541 79.0527-35.2539C79.0527-15.9668 63.3789-0.244141 44.043-0.244141ZM31.7871-54.1016L20.8008-43.1152C20.5078-42.8711 20.4102-42.627 20.4102-42.2363C20.4102-41.6992 20.8984-41.2109 21.4355-41.2109C21.6797-41.2109 22.0703-41.4062 22.3145-41.6504L27.8809-47.2168L31.543-50.9277L31.4453-47.4609L31.4453-17.041C31.4453-16.4062 31.9824-16.0156 32.5684-16.0156C33.1543-16.0156 33.5938-16.4551 33.5938-17.041L33.5938-47.4609L33.4961-50.9277L37.1582-47.2168L42.7246-41.6504C42.9688-41.4062 43.3105-41.2109 43.6035-41.2109C44.1406-41.2109 44.6289-41.6992 44.6289-42.2363C44.6289-42.6758 44.5312-42.8711 44.2871-43.1152L33.252-54.1016C32.8613-54.4434 32.1777-54.541 31.7871-54.1016ZM56.3477-16.2598L67.334-27.2461C67.5781-27.4902 67.7246-27.7344 67.7246-28.125C67.7246-28.6621 67.2363-29.1504 66.6992-29.1504C66.3574-29.1504 66.0645-28.9551 65.8203-28.7598L60.2539-23.1445L56.5918-19.4336L56.6895-22.9004L56.6895-53.3203C56.6895-53.9551 56.1523-54.3457 55.5664-54.3457C54.9805-54.3457 54.541-53.9062 54.541-53.3203L54.541-22.9004L54.6387-19.4336L50.9766-23.1445L45.4102-28.7598C45.166-29.0039 44.8242-29.1504 44.5312-29.1504C43.9453-29.1504 43.5059-28.7109 43.5059-28.125C43.5059-27.7344 43.5547-27.4902 43.7988-27.2461L54.834-16.2598C55.2734-15.918 55.9082-15.8691 56.3477-16.2598Z"/>
  </g>
 </g>
</svg>
