<?xml version="1.0" encoding="UTF-8"?>
<!--Generator: Apple Native CoreSVG 149-->
<!DOCTYPE svg
PUBLIC "-//W3C//DTD SVG 1.1//EN"
       "http://www.w3.org/Graphics/SVG/1.1/DTD/svg11.dtd">
<svg version="1.1" xmlns="http://www.w3.org/2000/svg" xmlns:xlink="http://www.w3.org/1999/xlink" width="3300" height="2200">
 <!--glyph: "uni100302.medium", point size: 100.0, font version: "17.0d8e1", template writer version: "58"-->
 <g id="Notes">
  <rect height="2200" id="artboard" style="fill:white;opacity:1" width="3300" x="0" y="0"/>
  <line style="fill:none;stroke:black;opacity:1;stroke-width:0.5;" x1="263" x2="3036" y1="292" y2="292"/>
  <text style="stroke:none;fill:black;font-family:SF Pro,SF Pro Display,SF Pro Text,sans-serif;font-size:13;font-weight:bold;" transform="matrix(1 0 0 1 263 322)">Weight/Scale Variations</text>
  <text style="stroke:none;fill:black;font-family:SF Pro,SF Pro Display,SF Pro Text,sans-serif;font-size:13;text-anchor:middle;" transform="matrix(1 0 0 1 559.711 322)">Ultralight</text>
  <text style="stroke:none;fill:black;font-family:SF Pro,SF Pro Display,SF Pro Text,sans-serif;font-size:13;text-anchor:middle;" transform="matrix(1 0 0 1 856.422 322)">Thin</text>
  <text style="stroke:none;fill:black;font-family:SF Pro,SF Pro Display,SF Pro Text,sans-serif;font-size:13;text-anchor:middle;" transform="matrix(1 0 0 1 1153.13 322)">Light</text>
  <text style="stroke:none;fill:black;font-family:SF Pro,SF Pro Display,SF Pro Text,sans-serif;font-size:13;text-anchor:middle;" transform="matrix(1 0 0 1 1449.84 322)">Regular</text>
  <text style="stroke:none;fill:black;font-family:SF Pro,SF Pro Display,SF Pro Text,sans-serif;font-size:13;text-anchor:middle;" transform="matrix(1 0 0 1 1746.56 322)">Medium</text>
  <text style="stroke:none;fill:black;font-family:SF Pro,SF Pro Display,SF Pro Text,sans-serif;font-size:13;text-anchor:middle;" transform="matrix(1 0 0 1 2043.27 322)">Semibold</text>
  <text style="stroke:none;fill:black;font-family:SF Pro,SF Pro Display,SF Pro Text,sans-serif;font-size:13;text-anchor:middle;" transform="matrix(1 0 0 1 2339.98 322)">Bold</text>
  <text style="stroke:none;fill:black;font-family:SF Pro,SF Pro Display,SF Pro Text,sans-serif;font-size:13;text-anchor:middle;" transform="matrix(1 0 0 1 2636.69 322)">Heavy</text>
  <text style="stroke:none;fill:black;font-family:SF Pro,SF Pro Display,SF Pro Text,sans-serif;font-size:13;text-anchor:middle;" transform="matrix(1 0 0 1 2933.4 322)">Black</text>
  <line style="fill:none;stroke:black;opacity:1;stroke-width:0.5;" x1="263" x2="3036" y1="1903" y2="1903"/>
  <g transform="matrix(1 0 0 1 263 1933)">
   <path d="M9.24805 0.830078Q10.8691 0.830078 12.2949 0.214844Q13.7207-0.400391 14.8096-1.49414Q15.8984-2.58789 16.5186-4.01367Q17.1387-5.43945 17.1387-7.05078Q17.1387-8.66211 16.5186-10.0879Q15.8984-11.5137 14.8047-12.6074Q13.7109-13.7012 12.2852-14.3164Q10.8594-14.9316 9.23828-14.9316Q7.62695-14.9316 6.20117-14.3164Q4.77539-13.7012 3.69141-12.6074Q2.60742-11.5137 1.9873-10.0879Q1.36719-8.66211 1.36719-7.05078Q1.36719-5.43945 1.9873-4.01367Q2.60742-2.58789 3.69629-1.49414Q4.78516-0.400391 6.21094 0.214844Q7.63672 0.830078 9.24805 0.830078ZM9.24805-0.654297Q7.91992-0.654297 6.7627-1.14746Q5.60547-1.64062 4.73145-2.51953Q3.85742-3.39844 3.36426-4.56055Q2.87109-5.72266 2.87109-7.05078Q2.87109-8.37891 3.35938-9.54102Q3.84766-10.7031 4.72168-11.582Q5.5957-12.4609 6.75293-12.9541Q7.91016-13.4473 9.23828-13.4473Q10.5762-13.4473 11.7334-12.9541Q12.8906-12.4609 13.7695-11.582Q14.6484-10.7031 15.1465-9.54102Q15.6445-8.37891 15.6445-7.05078Q15.6445-5.72266 15.1514-4.56055Q14.6582-3.39844 13.7842-2.51953Q12.9102-1.64062 11.748-1.14746Q10.5859-0.654297 9.24805-0.654297ZM5.83984-7.04102Q5.83984-6.71875 6.04492-6.51855Q6.25-6.31836 6.5918-6.31836L8.50586-6.31836L8.50586-4.39453Q8.50586-4.0625 8.70605-3.85742Q8.90625-3.65234 9.22852-3.65234Q9.56055-3.65234 9.76562-3.85742Q9.9707-4.0625 9.9707-4.39453L9.9707-6.31836L11.8945-6.31836Q12.2266-6.31836 12.4316-6.51855Q12.6367-6.71875 12.6367-7.04102Q12.6367-7.37305 12.4316-7.57812Q12.2266-7.7832 11.8945-7.7832L9.9707-7.7832L9.9707-9.69727Q9.9707-10.0391 9.76562-10.2441Q9.56055-10.4492 9.22852-10.4492Q8.90625-10.4492 8.70605-10.2441Q8.50586-10.0391 8.50586-9.69727L8.50586-7.7832L6.5918-7.7832Q6.25-7.7832 6.04492-7.57812Q5.83984-7.37305 5.83984-7.04102Z"/>
  </g>
  <g transform="matrix(1 0 0 1 281.867 1933)">
   <path d="M11.709 2.91016Q13.75 2.91016 15.5518 2.12891Q17.3535 1.34766 18.7305-0.0292969Q20.1074-1.40625 20.8887-3.20801Q21.6699-5.00977 21.6699-7.05078Q21.6699-9.0918 20.8887-10.8936Q20.1074-12.6953 18.7305-14.0723Q17.3535-15.4492 15.5469-16.2305Q13.7402-17.0117 11.6992-17.0117Q9.6582-17.0117 7.85645-16.2305Q6.05469-15.4492 4.68262-14.0723Q3.31055-12.6953 2.5293-10.8936Q1.74805-9.0918 1.74805-7.05078Q1.74805-5.00977 2.5293-3.20801Q3.31055-1.40625 4.6875-0.0292969Q6.06445 1.34766 7.86621 2.12891Q9.66797 2.91016 11.709 2.91016ZM11.709 1.25Q9.98047 1.25 8.47656 0.605469Q6.97266-0.0390625 5.83496-1.17676Q4.69727-2.31445 4.05762-3.81836Q3.41797-5.32227 3.41797-7.05078Q3.41797-8.7793 4.05762-10.2832Q4.69727-11.7871 5.83008-12.9297Q6.96289-14.0723 8.4668-14.7119Q9.9707-15.3516 11.6992-15.3516Q13.4277-15.3516 14.9316-14.7119Q16.4355-14.0723 17.5781-12.9297Q18.7207-11.7871 19.3652-10.2832Q20.0098-8.7793 20.0098-7.05078Q20.0098-5.32227 19.3701-3.81836Q18.7305-2.31445 17.5928-1.17676Q16.4551-0.0390625 14.9463 0.605469Q13.4375 1.25 11.709 1.25ZM7.39258-7.04102Q7.39258-6.68945 7.62695-6.46484Q7.86133-6.24023 8.23242-6.24023L10.8789-6.24023L10.8789-3.57422Q10.8789-3.21289 11.1035-2.9834Q11.3281-2.75391 11.6797-2.75391Q12.0508-2.75391 12.2852-2.9834Q12.5195-3.21289 12.5195-3.57422L12.5195-6.24023L15.1758-6.24023Q15.5371-6.24023 15.7715-6.46484Q16.0059-6.68945 16.0059-7.04102Q16.0059-7.41211 15.7715-7.6416Q15.5371-7.87109 15.1758-7.87109L12.5195-7.87109L12.5195-10.5176Q12.5195-10.8984 12.2852-11.1279Q12.0508-11.3574 11.6797-11.3574Q11.3281-11.3574 11.1035-11.1279Q10.8789-10.8984 10.8789-10.5176L10.8789-7.87109L8.23242-7.87109Q7.85156-7.87109 7.62207-7.6416Q7.39258-7.41211 7.39258-7.04102Z"/>
  </g>
  <g transform="matrix(1 0 0 1 305.646 1933)">
   <path d="M14.9707 5.66406Q17.0605 5.66406 18.96 5.01465Q20.8594 4.36523 22.4512 3.19336Q24.043 2.02148 25.2197 0.429688Q26.3965-1.16211 27.0459-3.06641Q27.6953-4.9707 27.6953-7.05078Q27.6953-9.14062 27.0459-11.04Q26.3965-12.9395 25.2197-14.5312Q24.043-16.123 22.4512-17.2998Q20.8594-18.4766 18.9551-19.126Q17.0508-19.7754 14.9609-19.7754Q12.8711-19.7754 10.9717-19.126Q9.07227-18.4766 7.48535-17.2998Q5.89844-16.123 4.72168-14.5312Q3.54492-12.9395 2.90039-11.04Q2.25586-9.14062 2.25586-7.05078Q2.25586-4.9707 2.90527-3.06641Q3.55469-1.16211 4.72656 0.429688Q5.89844 2.02148 7.49023 3.19336Q9.08203 4.36523 10.9814 5.01465Q12.8809 5.66406 14.9707 5.66406ZM14.9707 3.84766Q13.1641 3.84766 11.5283 3.2959Q9.89258 2.74414 8.53516 1.74805Q7.17773 0.751953 6.17676-0.610352Q5.17578-1.97266 4.62891-3.6084Q4.08203-5.24414 4.08203-7.05078Q4.08203-8.86719 4.62891-10.5029Q5.17578-12.1387 6.17188-13.501Q7.16797-14.8633 8.52539-15.8594Q9.88281-16.8555 11.5186-17.4023Q13.1543-17.9492 14.9609-17.9492Q16.7773-17.9492 18.4131-17.4023Q20.0488-16.8555 21.4111-15.8594Q22.7734-14.8633 23.7695-13.501Q24.7656-12.1387 25.3174-10.5029Q25.8691-8.86719 25.8691-7.05078Q25.8789-5.24414 25.332-3.6084Q24.7852-1.97266 23.7842-0.610352Q22.7832 0.751953 21.4209 1.74805Q20.0586 2.74414 18.4229 3.2959Q16.7871 3.84766 14.9707 3.84766ZM9.45312-7.04102Q9.45312-6.66016 9.71191-6.41113Q9.9707-6.16211 10.3711-6.16211L14.0625-6.16211L14.0625-2.46094Q14.0625-2.06055 14.3115-1.80664Q14.5605-1.55273 14.9414-1.55273Q15.3516-1.55273 15.6055-1.80664Q15.8594-2.06055 15.8594-2.46094L15.8594-6.16211L19.5605-6.16211Q19.9609-6.16211 20.2148-6.41113Q20.4688-6.66016 20.4688-7.04102Q20.4688-7.45117 20.2148-7.70508Q19.9609-7.95898 19.5605-7.95898L15.8594-7.95898L15.8594-11.6504Q15.8594-12.0605 15.6055-12.3145Q15.3516-12.5684 14.9414-12.5684Q14.5605-12.5684 14.3115-12.3096Q14.0625-12.0508 14.0625-11.6504L14.0625-7.95898L10.3711-7.95898Q9.96094-7.95898 9.70703-7.70508Q9.45312-7.45117 9.45312-7.04102Z"/>
  </g>
  <text style="stroke:none;fill:black;font-family:SF Pro,SF Pro Display,SF Pro Text,sans-serif;font-size:13;font-weight:bold;" transform="matrix(1 0 0 1 263 1953)">Design Variations</text>
  <text style="stroke:none;fill:black;font-family:SF Pro,SF Pro Display,SF Pro Text,sans-serif;font-size:13;" transform="matrix(1 0 0 1 263 1971)">Symbols are supported in up to nine weights and three scales.</text>
  <text style="stroke:none;fill:black;font-family:SF Pro,SF Pro Display,SF Pro Text,sans-serif;font-size:13;" transform="matrix(1 0 0 1 263 1989)">For optimal layout with text and other symbols, vertically align</text>
  <text style="stroke:none;fill:black;font-family:SF Pro,SF Pro Display,SF Pro Text,sans-serif;font-size:13;" transform="matrix(1 0 0 1 263 2007)">symbols with the adjacent text.</text>
  <line style="fill:none;stroke:#00AEEF;stroke-width:0.5;opacity:1.0;" x1="776" x2="776" y1="1919" y2="1933"/>
  <g transform="matrix(1 0 0 1 776 1933)">
   <path d="M3.31055 0.15625Q3.70117 0.15625 3.91602-0.00976562Q4.13086-0.175781 4.26758-0.585938L5.52734-4.0332L11.2891-4.0332L12.5488-0.585938Q12.6855-0.175781 12.9004-0.00976562Q13.1152 0.15625 13.4961 0.15625Q13.8867 0.15625 14.1162-0.0585938Q14.3457-0.273438 14.3457-0.644531Q14.3457-0.869141 14.2383-1.17188L9.6582-13.3691Q9.48242-13.8184 9.17969-14.043Q8.87695-14.2676 8.4082-14.2676Q7.5-14.2676 7.17773-13.3789L2.59766-1.16211Q2.49023-0.859375 2.49023-0.634766Q2.49023-0.263672 2.70996-0.0537109Q2.92969 0.15625 3.31055 0.15625ZM6.00586-5.51758L8.37891-12.0898L8.42773-12.0898L10.8008-5.51758Z"/>
  </g>
  <line style="fill:none;stroke:#00AEEF;stroke-width:0.5;opacity:1.0;" x1="793.197" x2="793.197" y1="1919" y2="1933"/>
  <text style="stroke:none;fill:black;font-family:SF Pro,SF Pro Display,SF Pro Text,sans-serif;font-size:13;font-weight:bold;" transform="matrix(1 0 0 1 776 1953)">Margins</text>
  <text style="stroke:none;fill:black;font-family:SF Pro,SF Pro Display,SF Pro Text,sans-serif;font-size:13;" transform="matrix(1 0 0 1 776 1971)">Leading and trailing margins on the left and right side of each symbol</text>
  <text style="stroke:none;fill:black;font-family:SF Pro,SF Pro Display,SF Pro Text,sans-serif;font-size:13;" transform="matrix(1 0 0 1 776 1989)">can be adjusted by modifying the x-location of the margin guidelines.</text>
  <text style="stroke:none;fill:black;font-family:SF Pro,SF Pro Display,SF Pro Text,sans-serif;font-size:13;" transform="matrix(1 0 0 1 776 2007)">Modifications are automatically applied proportionally to all</text>
  <text style="stroke:none;fill:black;font-family:SF Pro,SF Pro Display,SF Pro Text,sans-serif;font-size:13;" transform="matrix(1 0 0 1 776 2025)">scales and weights.</text>
  <g transform="matrix(1 0 0 1 1289 1933)">
   <path d="M2.8418 1.86523L4.54102 3.57422Q5.18555 4.22852 5.90332 4.17969Q6.62109 4.13086 7.31445 3.35938L18.0078-8.42773L17.041-9.4043L6.42578 2.27539Q6.16211 2.57812 5.89355 2.61719Q5.625 2.65625 5.27344 2.30469L4.10156 1.14258Q3.75 0.791016 3.79395 0.522461Q3.83789 0.253906 4.14062-0.0195312L15.6152-10.8203L14.6387-11.7871L3.04688-0.898438Q2.30469-0.214844 2.25098 0.498047Q2.19727 1.21094 2.8418 1.86523ZM9.25781-16.3281Q8.94531-16.0254 8.90625-15.6348Q8.86719-15.2441 9.04297-14.9512Q9.21875-14.6777 9.55566-14.541Q9.89258-14.4043 10.3809-14.5215Q11.4746-14.7754 12.5977-14.7314Q13.7207-14.6875 14.7949-13.9844L14.209-12.5293Q13.9551-11.9043 14.0674-11.4404Q14.1797-10.9766 14.5801-10.5664L16.875-8.25195Q17.2363-7.88086 17.5781-7.82227Q17.9199-7.76367 18.3398-7.8418L19.4043-8.03711L20.0684-7.36328L20.0293-6.80664Q20-6.43555 20.1221-6.12305Q20.2441-5.81055 20.6055-5.44922L21.3672-4.70703Q21.7285-4.3457 22.1533-4.33105Q22.5781-4.31641 22.9297-4.66797L25.8398-7.58789Q26.1914-7.93945 26.1816-8.35449Q26.1719-8.76953 25.8105-9.13086L25.0391-9.89258Q24.6875-10.2539 24.3799-10.3857Q24.0723-10.5176 23.7109-10.4883L23.1348-10.4395L22.4902-11.0742L22.7344-12.1973Q22.832-12.6172 22.6953-12.9834Q22.5586-13.3496 22.1191-13.7891L19.9219-15.9766Q18.6719-17.2168 17.2607-17.8369Q15.8496-18.457 14.4189-18.4814Q12.9883-18.5059 11.665-17.959Q10.3418-17.4121 9.25781-16.3281ZM10.752-15.957Q11.6602-16.6211 12.7002-16.9043Q13.7402-17.1875 14.8047-17.085Q15.8691-16.9824 16.8701-16.5137Q17.8711-16.0449 18.7012-15.2051L21.1328-12.793Q21.3086-12.6172 21.3525-12.4512Q21.3965-12.2852 21.3379-12.0312L21.0156-10.5469L22.5195-9.0625L23.5059-9.12109Q23.6914-9.13086 23.7891-9.09668Q23.8867-9.0625 24.0332-8.91602L24.6094-8.33984L22.168-5.89844L21.5918-6.47461Q21.4453-6.62109 21.4062-6.71875Q21.3672-6.81641 21.377-7.01172L21.4453-7.98828L19.9512-9.47266L18.4277-9.21875Q18.1836-9.16992 18.042-9.2041Q17.9004-9.23828 17.7148-9.41406L15.7129-11.416Q15.5176-11.5918 15.4932-11.7529Q15.4688-11.9141 15.5859-12.1875L16.4648-14.2773Q15.293-15.3711 13.8281-15.791Q12.3633-16.2109 10.8398-15.7617Q10.7227-15.7324 10.6885-15.8057Q10.6543-15.8789 10.752-15.957Z"/>
  </g>
  <text style="stroke:none;fill:black;font-family:SF Pro,SF Pro Display,SF Pro Text,sans-serif;font-size:13;font-weight:bold;" transform="matrix(1 0 0 1 1289 1953)">Exporting</text>
  <text style="stroke:none;fill:black;font-family:SF Pro,SF Pro Display,SF Pro Text,sans-serif;font-size:13;" transform="matrix(1 0 0 1 1289 1971)">Symbols should be outlined when exporting to ensure the</text>
  <text style="stroke:none;fill:black;font-family:SF Pro,SF Pro Display,SF Pro Text,sans-serif;font-size:13;" transform="matrix(1 0 0 1 1289 1989)">design is preserved when submitting to Xcode.</text>
  <text id="template-version" style="stroke:none;fill:black;font-family:SF Pro,SF Pro Display,SF Pro Text,sans-serif;font-size:13;text-anchor:end;" transform="matrix(1 0 0 1 3036 1933)">Template v.3.0</text>
  <text style="stroke:none;fill:black;font-family:SF Pro,SF Pro Display,SF Pro Text,sans-serif;font-size:13;text-anchor:end;" transform="matrix(1 0 0 1 3036 1951)">Requires Xcode 13 or greater</text>
  <text id="descriptive-name" style="stroke:none;fill:black;font-family:SF Pro,SF Pro Display,SF Pro Text,sans-serif;font-size:13;text-anchor:end;" transform="matrix(1 0 0 1 3036 1969)">Generated from text.alignright</text>
  <text style="stroke:none;fill:black;font-family:SF Pro,SF Pro Display,SF Pro Text,sans-serif;font-size:13;text-anchor:end;" transform="matrix(1 0 0 1 3036 1987)">Typeset at 100 points</text>
  <text style="stroke:none;fill:black;font-family:SF Pro,SF Pro Display,SF Pro Text,sans-serif;font-size:13;" transform="matrix(1 0 0 1 263 726)">Small</text>
  <text style="stroke:none;fill:black;font-family:SF Pro,SF Pro Display,SF Pro Text,sans-serif;font-size:13;" transform="matrix(1 0 0 1 263 1156)">Medium</text>
  <text style="stroke:none;fill:black;font-family:SF Pro,SF Pro Display,SF Pro Text,sans-serif;font-size:13;" transform="matrix(1 0 0 1 263 1586)">Large</text>
 </g>
 <g id="Guides">
  <g id="H-reference" style="fill:#27AAE1;stroke:none;" transform="matrix(1 0 0 1 339 696)">
   <path d="M0.976562 0L3.66211 0L29.3457-67.1387L30.0293-67.1387L30.0293-70.459L28.125-70.459ZM11.6699-24.4629L46.9727-24.4629L46.2402-26.709L12.4512-26.709ZM55.127 0L57.7637 0L30.6152-70.459L29.4434-70.459L29.4434-67.1387Z"/>
  </g>
  <line id="Baseline-S" style="fill:none;stroke:#27AAE1;opacity:1;stroke-width:0.5;" x1="263" x2="3036" y1="696" y2="696"/>
  <line id="Capline-S" style="fill:none;stroke:#27AAE1;opacity:1;stroke-width:0.5;" x1="263" x2="3036" y1="625.541" y2="625.541"/>
  <g id="H-reference" style="fill:#27AAE1;stroke:none;" transform="matrix(1 0 0 1 339 1126)">
   <path d="M0.976562 0L3.66211 0L29.3457-67.1387L30.0293-67.1387L30.0293-70.459L28.125-70.459ZM11.6699-24.4629L46.9727-24.4629L46.2402-26.709L12.4512-26.709ZM55.127 0L57.7637 0L30.6152-70.459L29.4434-70.459L29.4434-67.1387Z"/>
  </g>
  <line id="Baseline-M" style="fill:none;stroke:#27AAE1;opacity:1;stroke-width:0.5;" x1="263" x2="3036" y1="1126" y2="1126"/>
  <line id="Capline-M" style="fill:none;stroke:#27AAE1;opacity:1;stroke-width:0.5;" x1="263" x2="3036" y1="1055.54" y2="1055.54"/>
  <g id="H-reference" style="fill:#27AAE1;stroke:none;" transform="matrix(1 0 0 1 339 1556)">
   <path d="M0.976562 0L3.66211 0L29.3457-67.1387L30.0293-67.1387L30.0293-70.459L28.125-70.459ZM11.6699-24.4629L46.9727-24.4629L46.2402-26.709L12.4512-26.709ZM55.127 0L57.7637 0L30.6152-70.459L29.4434-70.459L29.4434-67.1387Z"/>
  </g>
  <line id="Baseline-L" style="fill:none;stroke:#27AAE1;opacity:1;stroke-width:0.5;" x1="263" x2="3036" y1="1556" y2="1556"/>
  <line id="Capline-L" style="fill:none;stroke:#27AAE1;opacity:1;stroke-width:0.5;" x1="263" x2="3036" y1="1485.54" y2="1485.54"/>
  <line id="left-margin-Regular-M" style="fill:none;stroke:#00AEEF;stroke-width:0.5;opacity:1.0;" x1="1388.2" x2="1388.2" y1="1030.79" y2="1150.12"/>
  <line id="right-margin-Regular-M" style="fill:none;stroke:#00AEEF;stroke-width:0.5;opacity:1.0;" x1="1511.49" x2="1511.49" y1="1030.79" y2="1150.12"/>
 </g>
 <g id="Symbols">
  <g id="Black-L" transform="matrix(1 0 0 1 2847.17 1556)">
   <path d="M24.4629-76.6113L147.998-76.6113Q151.514-76.6113 153.955-79.0527Q156.396-81.4941 156.396-84.9609Q156.396-88.4766 153.955-90.918Q151.514-93.3594 147.998-93.3594L24.4629-93.3594Q20.9473-93.3594 18.5059-90.918Q16.0645-88.4766 16.0645-84.9609Q16.0645-81.4941 18.5059-79.0527Q20.9473-76.6113 24.4629-76.6113ZM24.4629-10.6445L147.998-10.6445Q151.514-10.6445 153.955-13.0859Q156.396-15.5273 156.396-19.043Q156.396-22.5098 153.955-24.9512Q151.514-27.3926 147.998-27.3926L24.4629-27.3926Q20.9473-27.3926 18.5059-24.9512Q16.0645-22.5098 16.0645-19.043Q16.0645-15.5273 18.5059-13.0859Q20.9473-10.6445 24.4629-10.6445ZM78.5156-43.6035L147.998-43.6035Q151.514-43.6035 153.955-46.0449Q156.396-48.4863 156.396-52.002Q156.396-55.4688 153.955-57.9102Q151.514-60.3516 147.998-60.3516L78.5156-60.3516Q75.0488-60.3516 72.6074-57.9102Q70.166-55.4688 70.166-52.002Q70.166-48.4863 72.6074-46.0449Q75.0488-43.6035 78.5156-43.6035ZM78.5156 22.3145L147.998 22.3145Q151.514 22.3145 153.955 19.873Q156.396 17.4316 156.396 13.9648Q156.396 10.4492 153.955 8.00781Q151.514 5.56641 147.998 5.56641L78.5156 5.56641Q75.0488 5.56641 72.6074 8.00781Q70.166 10.4492 70.166 13.9648Q70.166 17.4316 72.6074 19.873Q75.0488 22.3145 78.5156 22.3145Z"/>
  </g>
  <g id="Heavy-L" transform="matrix(1 0 0 1 2552.19 1556)">
   <path d="M23.4375-77.6367L145.508-77.6367Q148.633-77.6367 150.781-79.7607Q152.93-81.8848 152.93-84.9609Q152.93-88.0371 150.781-90.1855Q148.633-92.334 145.508-92.334L23.4375-92.334Q20.3613-92.334 18.2129-90.1855Q16.0645-88.0371 16.0645-84.9609Q16.0645-81.8848 18.2129-79.7607Q20.3613-77.6367 23.4375-77.6367ZM23.4375-11.6211L145.508-11.6211Q148.633-11.6211 150.781-13.7695Q152.93-15.918 152.93-18.9941Q152.93-22.0703 150.781-24.2188Q148.633-26.3672 145.508-26.3672L23.4375-26.3672Q20.3613-26.3672 18.2129-24.2188Q16.0645-22.0703 16.0645-18.9941Q16.0645-15.918 18.2129-13.7695Q20.3613-11.6211 23.4375-11.6211ZM75.3906-44.5801L145.508-44.5801Q148.633-44.5801 150.781-46.7285Q152.93-48.877 152.93-52.002Q152.93-55.0293 150.781-57.1777Q148.633-59.3262 145.508-59.3262L75.3906-59.3262Q72.3633-59.3262 70.2148-57.1777Q68.0664-55.0293 68.0664-52.002Q68.0664-48.877 70.2148-46.7285Q72.3633-44.5801 75.3906-44.5801ZM75.3906 21.3379L145.508 21.3379Q148.633 21.3379 150.781 19.1895Q152.93 17.041 152.93 14.0137Q152.93 10.9375 150.781 8.78906Q148.633 6.64062 145.508 6.64062L75.3906 6.64062Q72.3633 6.64062 70.2148 8.78906Q68.0664 10.9375 68.0664 14.0137Q68.0664 17.041 70.2148 19.1895Q72.3633 21.3379 75.3906 21.3379Z"/>
  </g>
  <g id="Bold-L" transform="matrix(1 0 0 1 2257.43 1556)">
   <path d="M22.3145-78.7598L142.773-78.7598Q145.361-78.7598 147.192-80.5664Q149.023-82.373 149.023-84.9609Q149.023-87.5977 147.192-89.4043Q145.361-91.2109 142.773-91.2109L22.3145-91.2109Q19.6777-91.2109 17.8711-89.4043Q16.0645-87.5977 16.0645-84.9609Q16.0645-82.373 17.8711-80.5664Q19.6777-78.7598 22.3145-78.7598ZM22.3145-12.7441L142.773-12.7441Q145.361-12.7441 147.192-14.5508Q149.023-16.3574 149.023-18.9453Q149.023-21.582 147.192-23.3887Q145.361-25.1953 142.773-25.1953L22.3145-25.1953Q19.6777-25.1953 17.8711-23.3887Q16.0645-21.582 16.0645-18.9453Q16.0645-16.3574 17.8711-14.5508Q19.6777-12.7441 22.3145-12.7441ZM71.9238-45.7031L142.773-45.7031Q145.361-45.7031 147.192-47.5342Q149.023-49.3652 149.023-51.9531Q149.023-54.541 147.192-56.3721Q145.361-58.2031 142.773-58.2031L71.9238-58.2031Q69.3359-58.2031 67.5293-56.3721Q65.7227-54.541 65.7227-51.9531Q65.7227-49.3652 67.5293-47.5342Q69.3359-45.7031 71.9238-45.7031ZM71.9238 20.3125L142.773 20.3125Q145.361 20.3125 147.192 18.4814Q149.023 16.6504 149.023 14.0625Q149.023 11.4746 147.192 9.66797Q145.361 7.86133 142.773 7.86133L71.9238 7.86133Q69.3359 7.86133 67.5293 9.66797Q65.7227 11.4746 65.7227 14.0625Q65.7227 16.6504 67.5293 18.4814Q69.3359 20.3125 71.9238 20.3125Z"/>
  </g>
  <g id="Semibold-L" transform="matrix(1 0 0 1 1962.07 1556)">
   <path d="M21.5332-79.4922L140.82-79.4922Q143.115-79.4922 144.727-81.0791Q146.338-82.666 146.338-84.9609Q146.338-87.2559 144.727-88.8184Q143.115-90.3809 140.82-90.3809L21.5332-90.3809Q19.2383-90.3809 17.6514-88.8184Q16.0645-87.2559 16.0645-84.9609Q16.0645-82.666 17.6514-81.0791Q19.2383-79.4922 21.5332-79.4922ZM21.5332-13.4766L140.82-13.4766Q143.115-13.4766 144.727-15.0635Q146.338-16.6504 146.338-18.8965Q146.338-21.1914 144.727-22.7783Q143.115-24.3652 140.82-24.3652L21.5332-24.3652Q19.2383-24.3652 17.6514-22.7783Q16.0645-21.1914 16.0645-18.8965Q16.0645-16.6504 17.6514-15.0635Q19.2383-13.4766 21.5332-13.4766ZM69.4824-46.4844L140.82-46.4844Q143.115-46.4844 144.727-48.0713Q146.338-49.6582 146.338-51.9531Q146.338-54.1992 144.727-55.7861Q143.115-57.373 140.82-57.373L69.4824-57.373Q67.2363-57.373 65.6494-55.7861Q64.0625-54.1992 64.0625-51.9531Q64.0625-49.6582 65.6494-48.0713Q67.2363-46.4844 69.4824-46.4844ZM69.4824 19.5312L140.82 19.5312Q143.115 19.5312 144.727 17.9443Q146.338 16.3574 146.338 14.1113Q146.338 11.8164 144.727 10.2295Q143.115 8.64258 140.82 8.64258L69.4824 8.64258Q67.2363 8.64258 65.6494 10.2295Q64.0625 11.8164 64.0625 14.1113Q64.0625 16.3574 65.6494 17.9443Q67.2363 19.5312 69.4824 19.5312Z"/>
  </g>
  <g id="Medium-L" transform="matrix(1 0 0 1 1666.38 1556)">
   <path d="M20.9473-80.0781L139.404-80.0781Q141.406-80.0781 142.847-81.4941Q144.287-82.9102 144.287-84.9609Q144.287-87.0117 142.847-88.4033Q141.406-89.7949 139.404-89.7949L20.9473-89.7949Q18.8477-89.7949 17.4561-88.4033Q16.0645-87.0117 16.0645-84.9609Q16.0645-82.9102 17.4561-81.4941Q18.8477-80.0781 20.9473-80.0781ZM20.9473-14.0625L139.404-14.0625Q141.406-14.0625 142.847-15.4541Q144.287-16.8457 144.287-18.8965Q144.287-20.9473 142.847-22.3389Q141.406-23.7305 139.404-23.7305L20.9473-23.7305Q18.8477-23.7305 17.4561-22.3389Q16.0645-20.9473 16.0645-18.8965Q16.0645-16.8457 17.4561-15.4541Q18.8477-14.0625 20.9473-14.0625ZM67.6758-47.0703L139.404-47.0703Q141.406-47.0703 142.847-48.4863Q144.287-49.9023 144.287-51.9043Q144.287-53.9551 142.847-55.3711Q141.406-56.7871 139.404-56.7871L67.6758-56.7871Q65.625-56.7871 64.2334-55.3711Q62.8418-53.9551 62.8418-51.9043Q62.8418-49.9023 64.2334-48.4863Q65.625-47.0703 67.6758-47.0703ZM67.6758 18.9941L139.404 18.9941Q141.406 18.9941 142.847 17.5781Q144.287 16.1621 144.287 14.1113Q144.287 12.1094 142.847 10.6934Q141.406 9.27734 139.404 9.27734L67.6758 9.27734Q65.625 9.27734 64.2334 10.6934Q62.8418 12.1094 62.8418 14.1113Q62.8418 16.1621 64.2334 17.5781Q65.625 18.9941 67.6758 18.9941Z"/>
  </g>
  <g id="Regular-L" transform="matrix(1 0 0 1 1370.99 1556)">
   <path d="M20.166-80.8594L137.5-80.8594Q139.209-80.8594 140.43-82.0312Q141.65-83.2031 141.65-84.9609Q141.65-86.6699 140.43-87.8418Q139.209-89.0137 137.5-89.0137L20.166-89.0137Q18.4082-89.0137 17.2363-87.8418Q16.0645-86.6699 16.0645-84.9609Q16.0645-83.2031 17.2363-82.0312Q18.4082-80.8594 20.166-80.8594ZM20.166-14.7949L137.5-14.7949Q139.209-14.7949 140.43-15.9668Q141.65-17.1387 141.65-18.8477Q141.65-20.6055 140.43-21.7773Q139.209-22.9492 137.5-22.9492L20.166-22.9492Q18.4082-22.9492 17.2363-21.7773Q16.0645-20.6055 16.0645-18.8477Q16.0645-17.1387 17.2363-15.9668Q18.4082-14.7949 20.166-14.7949ZM65.2832-47.8027L137.5-47.8027Q139.209-47.8027 140.43-48.999Q141.65-50.1953 141.65-51.9043Q141.65-53.6133 140.43-54.8096Q139.209-56.0059 137.5-56.0059L65.2832-56.0059Q63.5742-56.0059 62.4023-54.8096Q61.2305-53.6133 61.2305-51.9043Q61.2305-50.1953 62.4023-48.999Q63.5742-47.8027 65.2832-47.8027ZM65.2832 18.2617L137.5 18.2617Q139.209 18.2617 140.43 17.0654Q141.65 15.8691 141.65 14.1602Q141.65 12.4512 140.43 11.2793Q139.209 10.1074 137.5 10.1074L65.2832 10.1074Q63.5742 10.1074 62.4023 11.2793Q61.2305 12.4512 61.2305 14.1602Q61.2305 15.8691 62.4023 17.0654Q63.5742 18.2617 65.2832 18.2617Z"/>
  </g>
  <g id="Light-L" transform="matrix(1 0 0 1 1075.2 1556)">
   <path d="M19.2383-81.7871L136.572-81.7871Q137.939-81.7871 138.867-82.666Q139.795-83.5449 139.795-84.9121Q139.795-86.2793 138.867-87.1826Q137.939-88.0859 136.572-88.0859L19.2383-88.0859Q17.8711-88.0859 16.9678-87.1826Q16.0645-86.2793 16.0645-84.9121Q16.0645-83.5449 16.9678-82.666Q17.8711-81.7871 19.2383-81.7871ZM19.2383-15.625L136.572-15.625Q137.939-15.625 138.867-16.5283Q139.795-17.4316 139.795-18.75Q139.795-20.1172 138.867-21.0205Q137.939-21.9238 136.572-21.9238L19.2383-21.9238Q17.8711-21.9238 16.9678-21.0205Q16.0645-20.1172 16.0645-18.75Q16.0645-17.4316 16.9678-16.5283Q17.8711-15.625 19.2383-15.625ZM62.5-48.6816L136.572-48.6816Q137.939-48.6816 138.867-49.6094Q139.795-50.5371 139.795-51.8555Q139.795-53.1738 138.867-54.1016Q137.939-55.0293 136.572-55.0293L62.5-55.0293Q61.1816-55.0293 60.2783-54.1016Q59.375-53.1738 59.375-51.8555Q59.375-50.5371 60.2783-49.6094Q61.1816-48.6816 62.5-48.6816ZM62.5 17.4805L136.572 17.4805Q137.939 17.4805 138.867 16.5527Q139.795 15.625 139.795 14.3066Q139.795 12.9395 138.867 12.0361Q137.939 11.1328 136.572 11.1328L62.5 11.1328Q61.1816 11.1328 60.2783 12.0361Q59.375 12.9395 59.375 14.3066Q59.375 15.625 60.2783 16.5527Q61.1816 17.4805 62.5 17.4805Z"/>
  </g>
  <g id="Thin-L" transform="matrix(1 0 0 1 779.713 1556)">
   <path d="M17.9688-82.959L135.4-82.959Q136.279-82.959 136.816-83.4961Q137.354-84.0332 137.354-84.9121Q137.354-85.7422 136.816-86.2793Q136.279-86.8164 135.4-86.8164L17.9688-86.8164Q17.1387-86.8164 16.6016-86.2793Q16.0645-85.7422 16.0645-84.9121Q16.0645-84.0332 16.6016-83.4961Q17.1387-82.959 17.9688-82.959ZM17.9688-16.748L135.4-16.748Q136.279-16.748 136.816-17.2852Q137.354-17.8223 137.354-18.6523Q137.354-19.5312 136.816-20.0684Q136.279-20.6055 135.4-20.6055L17.9688-20.6055Q17.1387-20.6055 16.6016-20.0684Q16.0645-19.5312 16.0645-18.6523Q16.0645-17.8223 16.6016-17.2852Q17.1387-16.748 17.9688-16.748ZM58.8379-49.8535L135.4-49.8535Q136.279-49.8535 136.816-50.3906Q137.354-50.9277 137.354-51.7578Q137.354-52.6367 136.816-53.1738Q136.279-53.7109 135.4-53.7109L58.8379-53.7109Q58.0078-53.7109 57.4707-53.1738Q56.9336-52.6367 56.9336-51.7578Q56.9336-50.9277 57.4707-50.3906Q58.0078-49.8535 58.8379-49.8535ZM58.8379 16.4062L135.4 16.4062Q136.279 16.4062 136.816 15.8447Q137.354 15.2832 137.354 14.4531Q137.354 13.623 136.816 13.0859Q136.279 12.5488 135.4 12.5488L58.8379 12.5488Q58.0078 12.5488 57.4707 13.0859Q56.9336 13.623 56.9336 14.4531Q56.9336 15.2832 57.4707 15.8447Q58.0078 16.4062 58.8379 16.4062Z"/>
  </g>
  <g id="Ultralight-L" transform="matrix(1 0 0 1 483.612 1556)">
   <path d="M17.334-83.5938L134.766-83.5938Q135.4-83.5938 135.767-83.9355Q136.133-84.2773 136.133-84.8633Q136.133-85.498 135.767-85.8398Q135.4-86.1816 134.766-86.1816L17.334-86.1816Q16.7969-86.1816 16.4307-85.8398Q16.0645-85.498 16.0645-84.8633Q16.0645-84.2773 16.4307-83.9355Q16.7969-83.5938 17.334-83.5938ZM17.334-17.2852L134.766-17.2852Q135.4-17.2852 135.767-17.6514Q136.133-18.0176 136.133-18.5547Q136.133-19.1895 135.767-19.5557Q135.4-19.9219 134.766-19.9219L17.334-19.9219Q16.7969-19.9219 16.4307-19.5557Q16.0645-19.1895 16.0645-18.5547Q16.0645-18.0176 16.4307-17.6514Q16.7969-17.2852 17.334-17.2852ZM56.9824-50.4395L134.766-50.4395Q135.4-50.4395 135.767-50.8057Q136.133-51.1719 136.133-51.709Q136.133-52.3438 135.767-52.71Q135.4-53.0762 134.766-53.0762L56.9824-53.0762Q56.3477-53.0762 56.0303-52.71Q55.7129-52.3438 55.7129-51.709Q55.7129-51.1719 56.0303-50.8057Q56.3477-50.4395 56.9824-50.4395ZM56.9824 15.8691L134.766 15.8691Q135.4 15.8691 135.767 15.5029Q136.133 15.1367 136.133 14.5508Q136.133 13.9648 135.767 13.5986Q135.4 13.2324 134.766 13.2324L56.9824 13.2324Q56.3477 13.2324 56.0303 13.5986Q55.7129 13.9648 55.7129 14.5508Q55.7129 15.1367 56.0303 15.5029Q56.3477 15.8691 56.9824 15.8691Z"/>
  </g>
  <g id="Black-M" transform="matrix(1 0 0 1 2865.38 1126)">
   <path d="M19.4824-66.748L116.553-66.748Q119.482-66.748 121.533-68.7988Q123.584-70.8496 123.584-73.7793Q123.584-76.709 121.533-78.7598Q119.482-80.8105 116.553-80.8105L19.4824-80.8105Q16.5527-80.8105 14.502-78.7598Q12.4512-76.709 12.4512-73.7793Q12.4512-70.8496 14.502-68.7988Q16.5527-66.748 19.4824-66.748ZM19.4824-15.625L116.553-15.625Q119.482-15.625 121.533-17.6758Q123.584-19.7266 123.584-22.6562Q123.584-25.5859 121.533-27.6611Q119.482-29.7363 116.553-29.7363L19.4824-29.7363Q16.5527-29.7363 14.502-27.6611Q12.4512-25.5859 12.4512-22.6562Q12.4512-19.7266 14.502-17.6758Q16.5527-15.625 19.4824-15.625ZM62.5977-41.1621L116.553-41.1621Q119.482-41.1621 121.533-43.2373Q123.584-45.3125 123.584-48.2422Q123.584-51.1719 121.533-53.2227Q119.482-55.2734 116.553-55.2734L62.5977-55.2734Q59.668-55.2734 57.6172-53.2227Q55.5664-51.1719 55.5664-48.2422Q55.5664-45.3125 57.6172-43.2373Q59.668-41.1621 62.5977-41.1621ZM62.5977 9.91211L116.553 9.91211Q119.482 9.91211 121.533 7.86133Q123.584 5.81055 123.584 2.88086Q123.584-0.0488281 121.533-2.09961Q119.482-4.15039 116.553-4.15039L62.5977-4.15039Q59.668-4.15039 57.6172-2.09961Q55.5664-0.0488281 55.5664 2.88086Q55.5664 5.81055 57.6172 7.86133Q59.668 9.91211 62.5977 9.91211Z"/>
  </g>
  <g id="Heavy-M" transform="matrix(1 0 0 1 2570.18 1126)">
   <path d="M18.7012-67.5293L114.307-67.5293Q116.943-67.5293 118.75-69.3604Q120.557-71.1914 120.557-73.7793Q120.557-76.3672 118.75-78.1982Q116.943-80.0293 114.307-80.0293L18.7012-80.0293Q16.1133-80.0293 14.2822-78.1982Q12.4512-76.3672 12.4512-73.7793Q12.4512-71.1914 14.2822-69.3604Q16.1133-67.5293 18.7012-67.5293ZM18.7012-16.4062L114.307-16.4062Q116.943-16.4062 118.75-18.2129Q120.557-20.0195 120.557-22.6562Q120.557-25.2441 118.75-27.0752Q116.943-28.9062 114.307-28.9062L18.7012-28.9062Q16.1133-28.9062 14.2822-27.0752Q12.4512-25.2441 12.4512-22.6562Q12.4512-20.0195 14.2822-18.2129Q16.1133-16.4062 18.7012-16.4062ZM60.1562-41.9434L114.307-41.9434Q116.943-41.9434 118.75-43.7744Q120.557-45.6055 120.557-48.2422Q120.557-50.8301 118.75-52.6367Q116.943-54.4434 114.307-54.4434L60.1562-54.4434Q57.5195-54.4434 55.7129-52.6367Q53.9062-50.8301 53.9062-48.2422Q53.9062-45.6055 55.7129-43.7744Q57.5195-41.9434 60.1562-41.9434ZM60.1562 9.13086L114.307 9.13086Q116.943 9.13086 118.75 7.32422Q120.557 5.51758 120.557 2.88086Q120.557 0.292969 118.75-1.51367Q116.943-3.32031 114.307-3.32031L60.1562-3.32031Q57.5195-3.32031 55.7129-1.51367Q53.9062 0.292969 53.9062 2.88086Q53.9062 5.51758 55.7129 7.32422Q57.5195 9.13086 60.1562 9.13086Z"/>
  </g>
  <g id="Bold-M" transform="matrix(1 0 0 1 2275.13 1126)">
   <path d="M17.8223-68.4082L111.816-68.4082Q114.062-68.4082 115.649-69.9707Q117.236-71.5332 117.236-73.7793Q117.236-76.0254 115.649-77.5879Q114.062-79.1504 111.816-79.1504L17.8223-79.1504Q15.5762-79.1504 14.0137-77.5879Q12.4512-76.0254 12.4512-73.7793Q12.4512-71.5332 14.0137-69.9707Q15.5762-68.4082 17.8223-68.4082ZM17.8223-17.2852L111.816-17.2852Q114.062-17.2852 115.649-18.8477Q117.236-20.4102 117.236-22.6562Q117.236-24.9023 115.649-26.4648Q114.062-28.0273 111.816-28.0273L17.8223-28.0273Q15.5762-28.0273 14.0137-26.4648Q12.4512-24.9023 12.4512-22.6562Q12.4512-20.4102 14.0137-18.8477Q15.5762-17.2852 17.8223-17.2852ZM57.4219-42.8223L111.816-42.8223Q114.062-42.8223 115.649-44.4092Q117.236-45.9961 117.236-48.2422Q117.236-50.4883 115.649-52.0264Q114.062-53.5645 111.816-53.5645L57.4219-53.5645Q55.1758-53.5645 53.6133-52.0264Q52.0508-50.4883 52.0508-48.2422Q52.0508-45.9961 53.6133-44.4092Q55.1758-42.8223 57.4219-42.8223ZM57.4219 8.30078L111.816 8.30078Q114.062 8.30078 115.649 6.73828Q117.236 5.17578 117.236 2.92969Q117.236 0.683594 115.649-0.878906Q114.062-2.44141 111.816-2.44141L57.4219-2.44141Q55.1758-2.44141 53.6133-0.878906Q52.0508 0.683594 52.0508 2.92969Q52.0508 5.17578 53.6133 6.73828Q55.1758 8.30078 57.4219 8.30078Z"/>
  </g>
  <g id="Semibold-M" transform="matrix(1 0 0 1 1979.59 1126)">
   <path d="M17.1875-68.9941L110.107-68.9941Q112.109-68.9941 113.501-70.3857Q114.893-71.7773 114.893-73.7793Q114.893-75.7324 113.501-77.124Q112.109-78.5156 110.107-78.5156L17.1875-78.5156Q15.2344-78.5156 13.8428-77.124Q12.4512-75.7324 12.4512-73.7793Q12.4512-71.7773 13.8428-70.3857Q15.2344-68.9941 17.1875-68.9941ZM17.1875-17.8711L110.107-17.8711Q112.109-17.8711 113.501-19.2383Q114.893-20.6055 114.893-22.6074Q114.893-24.6094 113.501-26.001Q112.109-27.3926 110.107-27.3926L17.1875-27.3926Q15.2344-27.3926 13.8428-26.001Q12.4512-24.6094 12.4512-22.6074Q12.4512-20.6055 13.8428-19.2383Q15.2344-17.8711 17.1875-17.8711ZM55.5176-43.4082L110.107-43.4082Q112.109-43.4082 113.501-44.7998Q114.893-46.1914 114.893-48.1934Q114.893-50.1953 113.501-51.5625Q112.109-52.9297 110.107-52.9297L55.5176-52.9297Q53.5156-52.9297 52.124-51.5625Q50.7324-50.1953 50.7324-48.1934Q50.7324-46.1914 52.124-44.7998Q53.5156-43.4082 55.5176-43.4082ZM55.5176 7.66602L110.107 7.66602Q112.109 7.66602 113.501 6.29883Q114.893 4.93164 114.893 2.92969Q114.893 0.927734 113.501-0.439453Q112.109-1.80664 110.107-1.80664L55.5176-1.80664Q53.5156-1.80664 52.124-0.439453Q50.7324 0.927734 50.7324 2.92969Q50.7324 4.93164 52.124 6.29883Q53.5156 7.66602 55.5176 7.66602Z"/>
  </g>
  <g id="Medium-M" transform="matrix(1 0 0 1 1683.76 1126)">
   <path d="M16.6992-69.4824L108.789-69.4824Q110.596-69.4824 111.865-70.7275Q113.135-71.9727 113.135-73.7793Q113.135-75.5371 111.865-76.7822Q110.596-78.0273 108.789-78.0273L16.6992-78.0273Q14.9414-78.0273 13.6963-76.7822Q12.4512-75.5371 12.4512-73.7793Q12.4512-71.9727 13.6963-70.7275Q14.9414-69.4824 16.6992-69.4824ZM16.6992-18.3105L108.789-18.3105Q110.596-18.3105 111.865-19.5557Q113.135-20.8008 113.135-22.6074Q113.135-24.4141 111.865-25.6592Q110.596-26.9043 108.789-26.9043L16.6992-26.9043Q14.9414-26.9043 13.6963-25.6592Q12.4512-24.4141 12.4512-22.6074Q12.4512-20.8008 13.6963-19.5557Q14.9414-18.3105 16.6992-18.3105ZM54.0527-43.8965L108.789-43.8965Q110.596-43.8965 111.865-45.1416Q113.135-46.3867 113.135-48.1934Q113.135-50 111.865-51.2451Q110.596-52.4902 108.789-52.4902L54.0527-52.4902Q52.2461-52.4902 51.001-51.2451Q49.7559-50 49.7559-48.1934Q49.7559-46.3867 51.001-45.1416Q52.2461-43.8965 54.0527-43.8965ZM54.0527 7.22656L108.789 7.22656Q110.596 7.22656 111.865 6.00586Q113.135 4.78516 113.135 2.97852Q113.135 1.17188 111.865-0.0976562Q110.596-1.36719 108.789-1.36719L54.0527-1.36719Q52.2461-1.36719 51.001-0.0976562Q49.7559 1.17188 49.7559 2.97852Q49.7559 4.78516 51.001 6.00586Q52.2461 7.22656 54.0527 7.22656Z"/>
  </g>
  <g id="Regular-M" transform="matrix(1 0 0 1 1388.2 1126)">
   <path d="M16.1133-70.0684L107.08-70.0684Q108.643-70.0684 109.741-71.1426Q110.84-72.2168 110.84-73.7793Q110.84-75.293 109.741-76.3672Q108.643-77.4414 107.08-77.4414L16.1133-77.4414Q14.5996-77.4414 13.5254-76.3672Q12.4512-75.293 12.4512-73.7793Q12.4512-72.2168 13.5254-71.1426Q14.5996-70.0684 16.1133-70.0684ZM16.1133-18.8965L107.08-18.8965Q108.643-18.8965 109.741-19.9707Q110.84-21.0449 110.84-22.6074Q110.84-24.1699 109.741-25.2197Q108.643-26.2695 107.08-26.2695L16.1133-26.2695Q14.5996-26.2695 13.5254-25.2197Q12.4512-24.1699 12.4512-22.6074Q12.4512-21.0449 13.5254-19.9707Q14.5996-18.8965 16.1133-18.8965ZM52.1973-44.4824L107.08-44.4824Q108.643-44.4824 109.741-45.5566Q110.84-46.6309 110.84-48.1934Q110.84-49.7559 109.741-50.8057Q108.643-51.8555 107.08-51.8555L52.1973-51.8555Q50.6348-51.8555 49.5605-50.8057Q48.4863-49.7559 48.4863-48.1934Q48.4863-46.6309 49.5605-45.5566Q50.6348-44.4824 52.1973-44.4824ZM52.1973 6.64062L107.08 6.64062Q108.643 6.64062 109.741 5.59082Q110.84 4.54102 110.84 2.97852Q110.84 1.41602 109.741 0.341797Q108.643-0.732422 107.08-0.732422L52.1973-0.732422Q50.6348-0.732422 49.5605 0.341797Q48.4863 1.41602 48.4863 2.97852Q48.4863 4.54102 49.5605 5.59082Q50.6348 6.64062 52.1973 6.64062Z"/>
  </g>
  <g id="Light-M" transform="matrix(1 0 0 1 1092.32 1126)">
   <path d="M15.2832-70.8984L106.25-70.8984Q107.471-70.8984 108.325-71.7285Q109.18-72.5586 109.18-73.7793Q109.18-74.9512 108.325-75.7812Q107.471-76.6113 106.25-76.6113L15.2832-76.6113Q14.1113-76.6113 13.2812-75.7812Q12.4512-74.9512 12.4512-73.7793Q12.4512-72.5586 13.2812-71.7285Q14.1113-70.8984 15.2832-70.8984ZM15.2832-19.6289L106.25-19.6289Q107.471-19.6289 108.325-20.459Q109.18-21.2891 109.18-22.5098Q109.18-23.7305 108.325-24.5361Q107.471-25.3418 106.25-25.3418L15.2832-25.3418Q14.1113-25.3418 13.2812-24.5361Q12.4512-23.7305 12.4512-22.5098Q12.4512-21.2891 13.2812-20.459Q14.1113-19.6289 15.2832-19.6289ZM49.707-45.2637L106.25-45.2637Q107.471-45.2637 108.325-46.0938Q109.18-46.9238 109.18-48.1445Q109.18-49.3652 108.325-50.1709Q107.471-50.9766 106.25-50.9766L49.707-50.9766Q48.4863-50.9766 47.6562-50.1709Q46.8262-49.3652 46.8262-48.1445Q46.8262-46.9238 47.6562-46.0938Q48.4863-45.2637 49.707-45.2637ZM49.707 5.9082L106.25 5.9082Q107.471 5.9082 108.325 5.10254Q109.18 4.29688 109.18 3.07617Q109.18 1.85547 108.325 1.0498Q107.471 0.244141 106.25 0.244141L49.707 0.244141Q48.4863 0.244141 47.6562 1.0498Q46.8262 1.85547 46.8262 3.07617Q46.8262 4.29688 47.6562 5.10254Q48.4863 5.9082 49.707 5.9082Z"/>
  </g>
  <g id="Thin-M" transform="matrix(1 0 0 1 796.705 1126)">
   <path d="M14.209-71.9727L105.176-71.9727Q105.957-71.9727 106.47-72.4609Q106.982-72.9492 106.982-73.7305Q106.982-74.4629 106.47-74.9756Q105.957-75.4883 105.176-75.4883L14.209-75.4883Q13.4277-75.4883 12.9395-74.9756Q12.4512-74.4629 12.4512-73.7305Q12.4512-72.9492 12.9395-72.4609Q13.4277-71.9727 14.209-71.9727ZM14.209-20.6543L105.176-20.6543Q105.957-20.6543 106.47-21.1426Q106.982-21.6309 106.982-22.4121Q106.982-23.1934 106.47-23.6816Q105.957-24.1699 105.176-24.1699L14.209-24.1699Q13.4277-24.1699 12.9395-23.6816Q12.4512-23.1934 12.4512-22.4121Q12.4512-21.6309 12.9395-21.1426Q13.4277-20.6543 14.209-20.6543ZM46.3867-46.2891L105.176-46.2891Q105.957-46.2891 106.47-46.8018Q106.982-47.3145 106.982-48.0957Q106.982-48.8281 106.47-49.3164Q105.957-49.8047 105.176-49.8047L46.3867-49.8047Q45.6543-49.8047 45.166-49.3164Q44.6777-48.8281 44.6777-48.0957Q44.6777-47.3145 45.166-46.8018Q45.6543-46.2891 46.3867-46.2891ZM46.3867 4.98047L105.176 4.98047Q105.957 4.98047 106.47 4.49219Q106.982 4.00391 106.982 3.27148Q106.982 2.49023 106.47 1.97754Q105.957 1.46484 105.176 1.46484L46.3867 1.46484Q45.6543 1.46484 45.166 1.97754Q44.6777 2.49023 44.6777 3.27148Q44.6777 4.00391 45.166 4.49219Q45.6543 4.98047 46.3867 4.98047Z"/>
  </g>
  <g id="Ultralight-M" transform="matrix(1 0 0 1 500.556 1126)">
   <path d="M13.6719-72.5098L104.639-72.5098Q105.176-72.5098 105.518-72.8516Q105.859-73.1934 105.859-73.7305Q105.859-74.2676 105.518-74.585Q105.176-74.9023 104.639-74.9023L13.6719-74.9023Q13.0859-74.9023 12.7686-74.585Q12.4512-74.2676 12.4512-73.7305Q12.4512-73.1934 12.7686-72.8516Q13.0859-72.5098 13.6719-72.5098ZM13.6719-21.1426L104.639-21.1426Q105.176-21.1426 105.518-21.4844Q105.859-21.8262 105.859-22.3145Q105.859-22.9004 105.518-23.2178Q105.176-23.5352 104.639-23.5352L13.6719-23.5352Q13.0859-23.5352 12.7686-23.2178Q12.4512-22.9004 12.4512-22.3145Q12.4512-21.8262 12.7686-21.4844Q13.0859-21.1426 13.6719-21.1426ZM44.7266-46.8262L104.639-46.8262Q105.176-46.8262 105.518-47.168Q105.859-47.5098 105.859-48.0469Q105.859-48.584 105.518-48.9014Q105.176-49.2188 104.639-49.2188L44.7266-49.2188Q44.1895-49.2188 43.8721-48.9014Q43.5547-48.584 43.5547-48.0469Q43.5547-47.5098 43.8721-47.168Q44.1895-46.8262 44.7266-46.8262ZM44.7266 4.49219L104.639 4.49219Q105.176 4.49219 105.518 4.1748Q105.859 3.85742 105.859 3.32031Q105.859 2.7832 105.518 2.46582Q105.176 2.14844 104.639 2.14844L44.7266 2.14844Q44.1895 2.14844 43.8721 2.46582Q43.5547 2.7832 43.5547 3.32031Q43.5547 3.85742 43.8721 4.1748Q44.1895 4.49219 44.7266 4.49219Z"/>
  </g>
  <g id="Black-S" transform="matrix(1 0 0 1 2879.69 696)">
   <path d="M15.4785-59.7168L91.9434-59.7168Q94.3359-59.7168 95.9961-61.377Q97.6562-63.0371 97.6562-65.4297Q97.6562-67.8223 95.9961-69.4824Q94.3359-71.1426 91.9434-71.1426L15.4785-71.1426Q13.0859-71.1426 11.4258-69.4824Q9.76562-67.8223 9.76562-65.4297Q9.76562-63.0371 11.4258-61.377Q13.0859-59.7168 15.4785-59.7168ZM15.4785-19.6777L91.9434-19.6777Q94.3359-19.6777 95.9961-21.3379Q97.6562-22.998 97.6562-25.3906Q97.6562-27.7832 95.9961-29.4434Q94.3359-31.1035 91.9434-31.1035L15.4785-31.1035Q13.0859-31.1035 11.4258-29.4434Q9.76562-27.7832 9.76562-25.3906Q9.76562-22.998 11.4258-21.3379Q13.0859-19.6777 15.4785-19.6777ZM49.6582-39.6973L91.9434-39.6973Q94.3359-39.6973 95.9961-41.3574Q97.6562-43.0176 97.6562-45.4102Q97.6562-47.8027 95.9961-49.4629Q94.3359-51.123 91.9434-51.123L49.6582-51.123Q47.2656-51.123 45.6055-49.4629Q43.9453-47.8027 43.9453-45.4102Q43.9453-43.0176 45.6055-41.3574Q47.2656-39.6973 49.6582-39.6973ZM49.6582 0.341797L91.9434 0.341797Q94.3359 0.341797 95.9961-1.31836Q97.6562-2.97852 97.6562-5.37109Q97.6562-7.76367 95.9961-9.42383Q94.3359-11.084 91.9434-11.084L49.6582-11.084Q47.2656-11.084 45.6055-9.42383Q43.9453-7.76367 43.9453-5.37109Q43.9453-2.97852 45.6055-1.31836Q47.2656 0.341797 49.6582 0.341797Z"/>
  </g>
  <g id="Heavy-S" transform="matrix(1 0 0 1 2584.15 696)">
   <path d="M14.8926-60.3027L90.1367-60.3027Q92.2852-60.3027 93.7988-61.792Q95.3125-63.2812 95.3125-65.4297Q95.3125-67.5781 93.7988-69.0674Q92.2852-70.5566 90.1367-70.5566L14.8926-70.5566Q12.7441-70.5566 11.2549-69.0674Q9.76562-67.5781 9.76562-65.4297Q9.76562-63.2812 11.2549-61.792Q12.7441-60.3027 14.8926-60.3027ZM14.8926-20.2637L90.1367-20.2637Q92.2852-20.2637 93.7988-21.7529Q95.3125-23.2422 95.3125-25.3906Q95.3125-27.5391 93.7988-29.0283Q92.2852-30.5176 90.1367-30.5176L14.8926-30.5176Q12.7441-30.5176 11.2549-29.0283Q9.76562-27.5391 9.76562-25.3906Q9.76562-23.2422 11.2549-21.7529Q12.7441-20.2637 14.8926-20.2637ZM47.8516-40.2832L90.1367-40.2832Q92.2852-40.2832 93.7988-41.7725Q95.3125-43.2617 95.3125-45.4102Q95.3125-47.5586 93.7988-49.0479Q92.2852-50.5371 90.1367-50.5371L47.8516-50.5371Q45.7031-50.5371 44.2139-49.0479Q42.7246-47.5586 42.7246-45.4102Q42.7246-43.2617 44.2139-41.7725Q45.7031-40.2832 47.8516-40.2832ZM47.8516-0.244141L90.1367-0.244141Q92.2852-0.244141 93.7988-1.7334Q95.3125-3.22266 95.3125-5.37109Q95.3125-7.51953 93.7988-9.00879Q92.2852-10.498 90.1367-10.498L47.8516-10.498Q45.7031-10.498 44.2139-9.00879Q42.7246-7.51953 42.7246-5.37109Q42.7246-3.22266 44.2139-1.7334Q45.7031-0.244141 47.8516-0.244141Z"/>
  </g>
  <g id="Bold-S" transform="matrix(1 0 0 1 2288.76 696)">
   <path d="M14.2578-60.9375L88.1348-60.9375Q90.0391-60.9375 91.3574-62.2559Q92.6758-63.5742 92.6758-65.4297Q92.6758-67.334 91.3574-68.6279Q90.0391-69.9219 88.1348-69.9219L14.2578-69.9219Q12.4023-69.9219 11.084-68.6279Q9.76562-67.334 9.76562-65.4297Q9.76562-63.5742 11.084-62.2559Q12.4023-60.9375 14.2578-60.9375ZM14.2578-20.8984L88.1348-20.8984Q90.0391-20.8984 91.3574-22.2168Q92.6758-23.5352 92.6758-25.3906Q92.6758-27.2949 91.3574-28.5889Q90.0391-29.8828 88.1348-29.8828L14.2578-29.8828Q12.4023-29.8828 11.084-28.5889Q9.76562-27.2949 9.76562-25.3906Q9.76562-23.5352 11.084-22.2168Q12.4023-20.8984 14.2578-20.8984ZM45.8984-40.918L88.1348-40.918Q90.0391-40.918 91.3574-42.2363Q92.6758-43.5547 92.6758-45.4102Q92.6758-47.3145 91.3574-48.6084Q90.0391-49.9023 88.1348-49.9023L45.8984-49.9023Q43.9941-49.9023 42.7002-48.6084Q41.4062-47.3145 41.4062-45.4102Q41.4062-43.5547 42.7002-42.2363Q43.9941-40.918 45.8984-40.918ZM45.8984-0.878906L88.1348-0.878906Q90.0391-0.878906 91.3574-2.17285Q92.6758-3.4668 92.6758-5.37109Q92.6758-7.27539 91.3574-8.56934Q90.0391-9.86328 88.1348-9.86328L45.8984-9.86328Q43.9941-9.86328 42.7002-8.56934Q41.4062-7.27539 41.4062-5.37109Q41.4062-3.4668 42.7002-2.17285Q43.9941-0.878906 45.8984-0.878906Z"/>
  </g>
  <g id="Semibold-S" transform="matrix(1 0 0 1 1992.97 696)">
   <path d="M13.8184-61.377L86.7188-61.377Q88.4277-61.377 89.624-62.5488Q90.8203-63.7207 90.8203-65.4297Q90.8203-67.1387 89.624-68.3105Q88.4277-69.4824 86.7188-69.4824L13.8184-69.4824Q12.1094-69.4824 10.9375-68.3105Q9.76562-67.1387 9.76562-65.4297Q9.76562-63.7207 10.9375-62.5488Q12.1094-61.377 13.8184-61.377ZM13.8184-21.2891L86.7188-21.2891Q88.4277-21.2891 89.624-22.4854Q90.8203-23.6816 90.8203-25.3906Q90.8203-27.0996 89.624-28.2715Q88.4277-29.4434 86.7188-29.4434L13.8184-29.4434Q12.1094-29.4434 10.9375-28.2715Q9.76562-27.0996 9.76562-25.3906Q9.76562-23.6816 10.9375-22.4854Q12.1094-21.2891 13.8184-21.2891ZM44.4824-41.3086L86.7188-41.3086Q88.4277-41.3086 89.624-42.5049Q90.8203-43.7012 90.8203-45.4102Q90.8203-47.1191 89.624-48.291Q88.4277-49.4629 86.7188-49.4629L44.4824-49.4629Q42.8223-49.4629 41.626-48.291Q40.4297-47.1191 40.4297-45.4102Q40.4297-43.7012 41.626-42.5049Q42.8223-41.3086 44.4824-41.3086ZM44.4824-1.26953L86.7188-1.26953Q88.4277-1.26953 89.624-2.46582Q90.8203-3.66211 90.8203-5.37109Q90.8203-7.08008 89.624-8.25195Q88.4277-9.42383 86.7188-9.42383L44.4824-9.42383Q42.8223-9.42383 41.626-8.25195Q40.4297-7.08008 40.4297-5.37109Q40.4297-3.66211 41.626-2.46582Q42.8223-1.26953 44.4824-1.26953Z"/>
  </g>
  <g id="Medium-S" transform="matrix(1 0 0 1 1696.95 696)">
   <path d="M13.4766-61.7188L85.6445-61.7188Q87.2559-61.7188 88.3545-62.793Q89.4531-63.8672 89.4531-65.4297Q89.4531-66.9922 88.3545-68.0664Q87.2559-69.1406 85.6445-69.1406L13.4766-69.1406Q11.9141-69.1406 10.8398-68.0664Q9.76562-66.9922 9.76562-65.4297Q9.76562-63.8672 10.8398-62.793Q11.9141-61.7188 13.4766-61.7188ZM13.4766-21.6309L85.6445-21.6309Q87.2559-21.6309 88.3545-22.7295Q89.4531-23.8281 89.4531-25.3906Q89.4531-26.9531 88.3545-28.0273Q87.2559-29.1016 85.6445-29.1016L13.4766-29.1016Q11.9141-29.1016 10.8398-28.0273Q9.76562-26.9531 9.76562-25.3906Q9.76562-23.8281 10.8398-22.7295Q11.9141-21.6309 13.4766-21.6309ZM43.457-41.6504L85.6445-41.6504Q87.2559-41.6504 88.3545-42.749Q89.4531-43.8477 89.4531-45.4102Q89.4531-46.9727 88.3545-48.0469Q87.2559-49.1211 85.6445-49.1211L43.457-49.1211Q41.8945-49.1211 40.8203-48.0469Q39.7461-46.9727 39.7461-45.4102Q39.7461-43.8477 40.8203-42.749Q41.8945-41.6504 43.457-41.6504ZM43.457-1.61133L85.6445-1.61133Q87.2559-1.61133 88.3545-2.68555Q89.4531-3.75977 89.4531-5.37109Q89.4531-6.93359 88.3545-8.00781Q87.2559-9.08203 85.6445-9.08203L43.457-9.08203Q41.8945-9.08203 40.8203-8.00781Q39.7461-6.93359 39.7461-5.37109Q39.7461-3.75977 40.8203-2.68555Q41.8945-1.61133 43.457-1.61133Z"/>
  </g>
  <g id="Regular-S" transform="matrix(1 0 0 1 1401.14 696)">
   <path d="M13.0371-62.1582L84.2773-62.1582Q85.6934-62.1582 86.6699-63.1104Q87.6465-64.0625 87.6465-65.4297Q87.6465-66.7969 86.6699-67.749Q85.6934-68.7012 84.2773-68.7012L13.0371-68.7012Q11.6699-68.7012 10.7178-67.749Q9.76562-66.7969 9.76562-65.4297Q9.76562-64.0625 10.7178-63.1104Q11.6699-62.1582 13.0371-62.1582ZM13.0371-22.0703L84.2773-22.0703Q85.6934-22.0703 86.6699-23.0469Q87.6465-24.0234 87.6465-25.3906Q87.6465-26.7578 86.6699-27.71Q85.6934-28.6621 84.2773-28.6621L13.0371-28.6621Q11.6699-28.6621 10.7178-27.71Q9.76562-26.7578 9.76562-25.3906Q9.76562-24.0234 10.7178-23.0469Q11.6699-22.0703 13.0371-22.0703ZM42.0898-42.0898L84.2773-42.0898Q85.6934-42.0898 86.6699-43.0664Q87.6465-44.043 87.6465-45.4102Q87.6465-46.7773 86.6699-47.7295Q85.6934-48.6816 84.2773-48.6816L42.0898-48.6816Q40.7227-48.6816 39.7705-47.7295Q38.8184-46.7773 38.8184-45.4102Q38.8184-44.043 39.7705-43.0664Q40.7227-42.0898 42.0898-42.0898ZM42.0898-2.05078L84.2773-2.05078Q85.6934-2.05078 86.6699-3.00293Q87.6465-3.95508 87.6465-5.37109Q87.6465-6.73828 86.6699-7.69043Q85.6934-8.64258 84.2773-8.64258L42.0898-8.64258Q40.7227-8.64258 39.7705-7.69043Q38.8184-6.73828 38.8184-5.37109Q38.8184-3.95508 39.7705-3.00293Q40.7227-2.05078 42.0898-2.05078Z"/>
  </g>
  <g id="Light-S" transform="matrix(1 0 0 1 1105.16 696)">
   <path d="M12.3047-62.8906L83.5449-62.8906Q84.668-62.8906 85.4248-63.623Q86.1816-64.3555 86.1816-65.4297Q86.1816-66.5039 85.4248-67.2363Q84.668-67.9688 83.5449-67.9688L12.3047-67.9688Q11.2305-67.9688 10.498-67.2363Q9.76562-66.5039 9.76562-65.4297Q9.76562-64.3555 10.498-63.623Q11.2305-62.8906 12.3047-62.8906ZM12.3047-22.7539L83.5449-22.7539Q84.668-22.7539 85.4248-23.4863Q86.1816-24.2188 86.1816-25.293Q86.1816-26.3672 85.4248-27.124Q84.668-27.8809 83.5449-27.8809L12.3047-27.8809Q11.2305-27.8809 10.498-27.124Q9.76562-26.3672 9.76562-25.293Q9.76562-24.2188 10.498-23.4863Q11.2305-22.7539 12.3047-22.7539ZM39.8926-42.7734L83.5449-42.7734Q84.668-42.7734 85.4248-43.5303Q86.1816-44.2871 86.1816-45.3613Q86.1816-46.4355 85.4248-47.168Q84.668-47.9004 83.5449-47.9004L39.8926-47.9004Q38.8184-47.9004 38.0859-47.168Q37.3535-46.4355 37.3535-45.3613Q37.3535-44.2871 38.0859-43.5303Q38.8184-42.7734 39.8926-42.7734ZM39.8926-2.68555L83.5449-2.68555Q84.668-2.68555 85.4248-3.41797Q86.1816-4.15039 86.1816-5.27344Q86.1816-6.34766 85.4248-7.08008Q84.668-7.8125 83.5449-7.8125L39.8926-7.8125Q38.8184-7.8125 38.0859-7.08008Q37.3535-6.34766 37.3535-5.27344Q37.3535-4.15039 38.0859-3.41797Q38.8184-2.68555 39.8926-2.68555Z"/>
  </g>
  <g id="Thin-S" transform="matrix(1 0 0 1 809.425 696)">
   <path d="M11.3281-63.8184L82.6172-63.8184Q83.3496-63.8184 83.7891-64.2578Q84.2285-64.6973 84.2285-65.3809Q84.2285-66.1133 83.7891-66.5527Q83.3496-66.9922 82.6172-66.9922L11.3281-66.9922Q10.6445-66.9922 10.2051-66.5527Q9.76562-66.1133 9.76562-65.3809Q9.76562-64.6973 10.2051-64.2578Q10.6445-63.8184 11.3281-63.8184ZM11.3281-23.6328L82.6172-23.6328Q83.3496-23.6328 83.7891-24.0723Q84.2285-24.5117 84.2285-25.1953Q84.2285-25.8789 83.7891-26.3428Q83.3496-26.8066 82.6172-26.8066L11.3281-26.8066Q10.6445-26.8066 10.2051-26.3428Q9.76562-25.8789 9.76562-25.1953Q9.76562-24.5117 10.2051-24.0723Q10.6445-23.6328 11.3281-23.6328ZM37.0117-43.7012L82.6172-43.7012Q83.3496-43.7012 83.7891-44.165Q84.2285-44.6289 84.2285-45.3125Q84.2285-45.9961 83.7891-46.4355Q83.3496-46.875 82.6172-46.875L37.0117-46.875Q36.2793-46.875 35.8398-46.4355Q35.4004-45.9961 35.4004-45.3125Q35.4004-44.6289 35.8398-44.165Q36.2793-43.7012 37.0117-43.7012ZM37.0117-3.51562L82.6172-3.51562Q83.3496-3.51562 83.7891-3.95508Q84.2285-4.39453 84.2285-5.12695Q84.2285-5.81055 83.7891-6.25Q83.3496-6.68945 82.6172-6.68945L37.0117-6.68945Q36.2793-6.68945 35.8398-6.25Q35.4004-5.81055 35.4004-5.12695Q35.4004-4.39453 35.8398-3.95508Q36.2793-3.51562 37.0117-3.51562Z"/>
  </g>
  <g id="Ultralight-S" transform="matrix(1 0 0 1 513.202 696)">
   <path d="M10.8398-64.3066L82.1289-64.3066Q82.666-64.3066 82.959-64.5996Q83.252-64.8926 83.252-65.3809Q83.252-65.8691 82.959-66.1621Q82.666-66.4551 82.1289-66.4551L10.8398-66.4551Q10.3516-66.4551 10.0586-66.1621Q9.76562-65.8691 9.76562-65.3809Q9.76562-64.8926 10.0586-64.5996Q10.3516-64.3066 10.8398-64.3066ZM10.8398-24.0723L82.1289-24.0723Q82.666-24.0723 82.959-24.3652Q83.252-24.6582 83.252-25.1465Q83.252-25.6348 82.959-25.9521Q82.666-26.2695 82.1289-26.2695L10.8398-26.2695Q10.3516-26.2695 10.0586-25.9521Q9.76562-25.6348 9.76562-25.1465Q9.76562-24.6582 10.0586-24.3652Q10.3516-24.0723 10.8398-24.0723ZM35.498-44.1895L82.1289-44.1895Q82.666-44.1895 82.959-44.4824Q83.252-44.7754 83.252-45.2637Q83.252-45.8008 82.959-46.0938Q82.666-46.3867 82.1289-46.3867L35.498-46.3867Q35.0098-46.3867 34.7168-46.0938Q34.4238-45.8008 34.4238-45.2637Q34.4238-44.7754 34.7168-44.4824Q35.0098-44.1895 35.498-44.1895ZM35.498-3.95508L82.1289-3.95508Q82.666-3.95508 82.959-4.24805Q83.252-4.54102 83.252-5.0293Q83.252-5.51758 82.959-5.83496Q82.666-6.15234 82.1289-6.15234L35.498-6.15234Q35.0098-6.15234 34.7168-5.83496Q34.4238-5.51758 34.4238-5.0293Q34.4238-4.54102 34.7168-4.24805Q35.0098-3.95508 35.498-3.95508Z"/>
  </g>
 </g>
</svg>
