<?xml version="1.0" encoding="UTF-8"?>
<!--Generator: Apple Native CoreSVG 149-->
<!DOCTYPE svg
PUBLIC "-//W3C//DTD SVG 1.1//EN"
       "http://www.w3.org/Graphics/SVG/1.1/DTD/svg11.dtd">
<svg version="1.1" xmlns="http://www.w3.org/2000/svg" xmlns:xlink="http://www.w3.org/1999/xlink" width="3300" height="2200">
 <!--glyph: "uni100243.medium", point size: 100.000000, font version: "Version 16.0d18e1", template writer version: "8"-->
 <g id="Notes">
  <rect height="2200" id="artboard" style="fill:white;opacity:1" width="3300" x="0" y="0"/>
  <line id="" style="fill:none;stroke:black;opacity:1;stroke-width:0.5;" x1="263" x2="3036" y1="292" y2="292"/>
  <text style="stroke:none;fill:black;font-family:-apple-system,&quot;SF Pro Display&quot;,&quot;SF Pro Text&quot;,Helvetica,sans-serif;font-weight:bold;" transform="matrix(1 0 0 1 263 322)">Weight/Scale Variations</text>
  <text style="stroke:none;fill:black;font-family:-apple-system,&quot;SF Pro Display&quot;,&quot;SF Pro Text&quot;,Helvetica,sans-serif;text-anchor:middle;" transform="matrix(1 0 0 1 559.711 322)">Ultralight</text>
  <text style="stroke:none;fill:black;font-family:-apple-system,&quot;SF Pro Display&quot;,&quot;SF Pro Text&quot;,Helvetica,sans-serif;text-anchor:middle;" transform="matrix(1 0 0 1 856.422 322)">Thin</text>
  <text style="stroke:none;fill:black;font-family:-apple-system,&quot;SF Pro Display&quot;,&quot;SF Pro Text&quot;,Helvetica,sans-serif;text-anchor:middle;" transform="matrix(1 0 0 1 1153.13 322)">Light</text>
  <text style="stroke:none;fill:black;font-family:-apple-system,&quot;SF Pro Display&quot;,&quot;SF Pro Text&quot;,Helvetica,sans-serif;text-anchor:middle;" transform="matrix(1 0 0 1 1449.84 322)">Regular</text>
  <text style="stroke:none;fill:black;font-family:-apple-system,&quot;SF Pro Display&quot;,&quot;SF Pro Text&quot;,Helvetica,sans-serif;text-anchor:middle;" transform="matrix(1 0 0 1 1746.56 322)">Medium</text>
  <text style="stroke:none;fill:black;font-family:-apple-system,&quot;SF Pro Display&quot;,&quot;SF Pro Text&quot;,Helvetica,sans-serif;text-anchor:middle;" transform="matrix(1 0 0 1 2043.27 322)">Semibold</text>
  <text style="stroke:none;fill:black;font-family:-apple-system,&quot;SF Pro Display&quot;,&quot;SF Pro Text&quot;,Helvetica,sans-serif;text-anchor:middle;" transform="matrix(1 0 0 1 2339.98 322)">Bold</text>
  <text style="stroke:none;fill:black;font-family:-apple-system,&quot;SF Pro Display&quot;,&quot;SF Pro Text&quot;,Helvetica,sans-serif;text-anchor:middle;" transform="matrix(1 0 0 1 2636.69 322)">Heavy</text>
  <text style="stroke:none;fill:black;font-family:-apple-system,&quot;SF Pro Display&quot;,&quot;SF Pro Text&quot;,Helvetica,sans-serif;text-anchor:middle;" transform="matrix(1 0 0 1 2933.4 322)">Black</text>
  <line id="" style="fill:none;stroke:black;opacity:1;stroke-width:0.5;" x1="263" x2="3036" y1="1903" y2="1903"/>
  <g id="" transform="matrix(1 0 0 1 263 1933)">
   <path d="M9.24805 0.830078C13.5547 0.830078 17.1387-2.74414 17.1387-7.05078C17.1387-11.3574 13.5449-14.9316 9.23828-14.9316C4.94141-14.9316 1.36719-11.3574 1.36719-7.05078C1.36719-2.74414 4.95117 0.830078 9.24805 0.830078ZM9.24805-0.654297C5.70312-0.654297 2.87109-3.49609 2.87109-7.05078C2.87109-10.6055 5.69336-13.4473 9.23828-13.4473C12.793-13.4473 15.6348-10.6055 15.6445-7.05078C15.6543-3.49609 12.8027-0.654297 9.24805-0.654297ZM6.39648-6.31836L8.50586-6.31836L8.50586-4.19922C8.50586-3.75977 8.79883-3.45703 9.22852-3.45703C9.67773-3.45703 9.9707-3.75977 9.9707-4.19922L9.9707-6.31836L12.0996-6.31836C12.5391-6.31836 12.8418-6.61133 12.8418-7.04102C12.8418-7.48047 12.5391-7.7832 12.0996-7.7832L9.9707-7.7832L9.9707-9.89258C9.9707-10.3418 9.67773-10.6445 9.22852-10.6445C8.79883-10.6445 8.50586-10.3418 8.50586-9.89258L8.50586-7.7832L6.39648-7.7832C5.94727-7.7832 5.64453-7.48047 5.64453-7.04102C5.64453-6.61133 5.94727-6.31836 6.39648-6.31836Z"/>
  </g>
  <g id="" transform="matrix(1 0 0 1 281.506 1933)">
   <path d="M11.709 2.91016C17.1582 2.91016 21.6699-1.61133 21.6699-7.05078C21.6699-12.5 17.1484-17.0117 11.6992-17.0117C6.25977-17.0117 1.74805-12.5 1.74805-7.05078C1.74805-1.61133 6.26953 2.91016 11.709 2.91016ZM11.709 1.25C7.09961 1.25 3.41797-2.44141 3.41797-7.05078C3.41797-11.6602 7.08984-15.3516 11.6992-15.3516C16.3086-15.3516 20-11.6602 20.0098-7.05078C20.0195-2.44141 16.3184 1.25 11.709 1.25ZM7.98828-6.23047L10.8789-6.23047L10.8789-3.32031C10.8789-2.83203 11.2109-2.5 11.6895-2.5C12.1777-2.5 12.5195-2.83203 12.5195-3.32031L12.5195-6.23047L15.4297-6.23047C15.918-6.23047 16.25-6.5625 16.25-7.04102C16.25-7.5293 15.918-7.87109 15.4297-7.87109L12.5195-7.87109L12.5195-10.7617C12.5195-11.2695 12.1777-11.6016 11.6895-11.6016C11.2109-11.6016 10.8789-11.2598 10.8789-10.7617L10.8789-7.87109L7.98828-7.87109C7.48047-7.87109 7.14844-7.5293 7.14844-7.04102C7.14844-6.5625 7.49023-6.23047 7.98828-6.23047Z"/>
  </g>
  <g id="" transform="matrix(1 0 0 1 304.924 1933)">
   <path d="M14.9707 5.66406C21.9336 5.66406 27.6953-0.0976562 27.6953-7.05078C27.6953-14.0137 21.9238-19.7754 14.9609-19.7754C8.00781-19.7754 2.25586-14.0137 2.25586-7.05078C2.25586-0.0976562 8.01758 5.66406 14.9707 5.66406ZM14.9707 3.84766C8.93555 3.84766 4.08203-1.01562 4.08203-7.05078C4.08203-13.0957 8.92578-17.9492 14.9609-17.9492C21.0059-17.9492 25.8594-13.0957 25.8691-7.05078C25.8789-1.01562 21.0156 3.84766 14.9707 3.84766ZM10.0586-6.14258L14.0625-6.14258L14.0625-2.12891C14.0625-1.5918 14.4336-1.2207 14.9512-1.2207C15.4883-1.2207 15.8594-1.5918 15.8594-2.12891L15.8594-6.14258L19.8828-6.14258C20.4102-6.14258 20.791-6.51367 20.791-7.03125C20.791-7.56836 20.4199-7.94922 19.8828-7.94922L15.8594-7.94922L15.8594-11.9531C15.8594-12.5098 15.4883-12.8809 14.9512-12.8809C14.4336-12.8809 14.0625-12.5 14.0625-11.9531L14.0625-7.94922L10.0586-7.94922C9.50195-7.94922 9.13086-7.56836 9.13086-7.03125C9.13086-6.51367 9.51172-6.14258 10.0586-6.14258Z"/>
  </g>
  <text style="stroke:none;fill:black;font-family:-apple-system,&quot;SF Pro Display&quot;,&quot;SF Pro Text&quot;,Helvetica,sans-serif;font-weight:bold;" transform="matrix(1 0 0 1 263 1953)">Design Variations</text>
  <text style="stroke:none;fill:black;font-family:-apple-system,&quot;SF Pro Display&quot;,&quot;SF Pro Text&quot;,Helvetica,sans-serif;" transform="matrix(1 0 0 1 263 1971)">Symbols are supported in up to nine weights and three scales.</text>
  <text style="stroke:none;fill:black;font-family:-apple-system,&quot;SF Pro Display&quot;,&quot;SF Pro Text&quot;,Helvetica,sans-serif;" transform="matrix(1 0 0 1 263 1989)">For optimal layout with text and other symbols, vertically align</text>
  <text style="stroke:none;fill:black;font-family:-apple-system,&quot;SF Pro Display&quot;,&quot;SF Pro Text&quot;,Helvetica,sans-serif;" transform="matrix(1 0 0 1 263 2007)">symbols with the adjacent text.</text>
  <line id="" style="fill:none;stroke:#00AEEF;stroke-width:0.5;opacity:1.0;" x1="776" x2="776" y1="1919" y2="1933"/>
  <g id="" transform="matrix(1 0 0 1 776 1933)">
   <path d="M3.31055 0.126953C3.82812 0.126953 4.08203-0.0683594 4.26758-0.605469L5.52734-4.0625L11.2891-4.0625L12.5488-0.605469C12.7344-0.0683594 12.9883 0.126953 13.4961 0.126953C14.0137 0.126953 14.3457-0.185547 14.3457-0.673828C14.3457-0.839844 14.3164-0.986328 14.2383-1.20117L9.6582-13.3887C9.43359-13.9941 9.0332-14.2871 8.4082-14.2871C7.80273-14.2871 7.39258-13.9941 7.17773-13.3984L2.59766-1.19141C2.51953-0.976562 2.49023-0.830078 2.49023-0.664062C2.49023-0.175781 2.80273 0.126953 3.31055 0.126953ZM6.00586-5.53711L8.37891-12.1094L8.42773-12.1094L10.8008-5.53711Z"/>
  </g>
  <line id="" style="fill:none;stroke:#00AEEF;stroke-width:0.5;opacity:1.0;" x1="792.836" x2="792.836" y1="1919" y2="1933"/>
  <text style="stroke:none;fill:black;font-family:-apple-system,&quot;SF Pro Display&quot;,&quot;SF Pro Text&quot;,Helvetica,sans-serif;font-weight:bold;" transform="matrix(1 0 0 1 776 1953)">Margins</text>
  <text style="stroke:none;fill:black;font-family:-apple-system,&quot;SF Pro Display&quot;,&quot;SF Pro Text&quot;,Helvetica,sans-serif;" transform="matrix(1 0 0 1 776 1971)">Leading and trailing margins on the left and right side of each symbol</text>
  <text style="stroke:none;fill:black;font-family:-apple-system,&quot;SF Pro Display&quot;,&quot;SF Pro Text&quot;,Helvetica,sans-serif;" transform="matrix(1 0 0 1 776 1989)">can be adjusted by modifying the x-location of the margin guidelines.</text>
  <text style="stroke:none;fill:black;font-family:-apple-system,&quot;SF Pro Display&quot;,&quot;SF Pro Text&quot;,Helvetica,sans-serif;" transform="matrix(1 0 0 1 776 2007)">Modifications are automatically applied proportionally to all</text>
  <text style="stroke:none;fill:black;font-family:-apple-system,&quot;SF Pro Display&quot;,&quot;SF Pro Text&quot;,Helvetica,sans-serif;" transform="matrix(1 0 0 1 776 2025)">scales and weights.</text>
  <g id="" transform="matrix(1 0 0 1 1289 1933)">
   <path d="M2.8418 1.86523L4.54102 3.57422C5.40039 4.44336 6.38672 4.38477 7.31445 3.35938L17.4902-7.85156C17.7539-7.76367 18.0273-7.7832 18.3398-7.8418L19.4043-8.03711L20.0684-7.36328L20.0293-6.80664C19.9902-6.30859 20.1172-5.92773 20.6055-5.44922L21.3672-4.70703C21.8457-4.22852 22.4609-4.19922 22.9297-4.66797L25.8398-7.58789C26.3086-8.05664 26.2891-8.65234 25.8105-9.13086L25.0391-9.89258C24.5605-10.3711 24.1895-10.5273 23.7109-10.4883L23.1348-10.4395L22.4902-11.0742L22.7344-12.1973C22.8613-12.7637 22.7051-13.2031 22.1191-13.7891L19.9219-15.9766C16.582-19.2969 12.1484-19.2188 9.25781-16.3281C8.83789-15.918 8.80859-15.3418 9.04297-14.9512C9.27734-14.5898 9.73633-14.3555 10.3809-14.5215C11.8457-14.8633 13.3691-14.9219 14.7949-13.9844L14.209-12.5293C14.0137-12.0508 13.9844-11.6504 14.1113-11.2891L3.04688-0.898438C2.06055 0.0195312 1.98242 0.996094 2.8418 1.86523ZM10.752-15.957C13.1836-17.7344 16.4746-17.4316 18.7012-15.2051L21.1328-12.793C21.3672-12.5586 21.4062-12.373 21.3379-12.0312L21.0156-10.5469L22.5195-9.0625L23.5059-9.12109C23.7598-9.13086 23.8379-9.11133 24.0332-8.91602L24.6094-8.33984L22.168-5.89844L21.5918-6.47461C21.3965-6.66992 21.3672-6.74805 21.377-7.01172L21.4453-7.98828L19.9512-9.47266L18.4277-9.21875C18.1055-9.15039 17.959-9.17969 17.7148-9.41406L15.7129-11.416C15.459-11.6504 15.4297-11.8164 15.5859-12.1875L16.4648-14.2773C14.9023-15.7324 12.8711-16.3574 10.8398-15.7617C10.6836-15.7227 10.625-15.8496 10.752-15.957ZM5.27344 2.30469L4.10156 1.14258C3.63281 0.683594 3.74023 0.341797 4.14062-0.0195312L14.9512-10.1953L16.416-8.71094L6.42578 2.27539C6.07422 2.67578 5.74219 2.77344 5.27344 2.30469Z"/>
  </g>
  <text style="stroke:none;fill:black;font-family:-apple-system,&quot;SF Pro Display&quot;,&quot;SF Pro Text&quot;,Helvetica,sans-serif;font-weight:bold;" transform="matrix(1 0 0 1 1289 1953)">Exporting</text>
  <text style="stroke:none;fill:black;font-family:-apple-system,&quot;SF Pro Display&quot;,&quot;SF Pro Text&quot;,Helvetica,sans-serif;" transform="matrix(1 0 0 1 1289 1971)">Symbols should be outlined when exporting to ensure the</text>
  <text style="stroke:none;fill:black;font-family:-apple-system,&quot;SF Pro Display&quot;,&quot;SF Pro Text&quot;,Helvetica,sans-serif;" transform="matrix(1 0 0 1 1289 1989)">design is preserved when submitting to Xcode.</text>
  <text id="template-version" style="stroke:none;fill:black;font-family:-apple-system,&quot;SF Pro Display&quot;,&quot;SF Pro Text&quot;,Helvetica,sans-serif;text-anchor:end;" transform="matrix(1 0 0 1 3036 1933)">Template v.2.0</text>
  <text style="stroke:none;fill:black;font-family:-apple-system,&quot;SF Pro Display&quot;,&quot;SF Pro Text&quot;,Helvetica,sans-serif;text-anchor:end;" transform="matrix(1 0 0 1 3036 1951)">Requires Xcode 12 or greater</text>
  <text style="stroke:none;fill:black;font-family:-apple-system,&quot;SF Pro Display&quot;,&quot;SF Pro Text&quot;,Helvetica,sans-serif;text-anchor:end;" transform="matrix(1 0 0 1 3036 1969)">Generated from doc.on.clipboard</text>
  <text style="stroke:none;fill:black;font-family:-apple-system,&quot;SF Pro Display&quot;,&quot;SF Pro Text&quot;,Helvetica,sans-serif;text-anchor:end;" transform="matrix(1 0 0 1 3036 1987)">Typeset at 100 points</text>
  <text style="stroke:none;fill:black;font-family:-apple-system,&quot;SF Pro Display&quot;,&quot;SF Pro Text&quot;,Helvetica,sans-serif;" transform="matrix(1 0 0 1 263 726)">Small</text>
  <text style="stroke:none;fill:black;font-family:-apple-system,&quot;SF Pro Display&quot;,&quot;SF Pro Text&quot;,Helvetica,sans-serif;" transform="matrix(1 0 0 1 263 1156)">Medium</text>
  <text style="stroke:none;fill:black;font-family:-apple-system,&quot;SF Pro Display&quot;,&quot;SF Pro Text&quot;,Helvetica,sans-serif;" transform="matrix(1 0 0 1 263 1586)">Large</text>
 </g>
 <g id="Guides">
  <g id="H-reference" style="fill:#27AAE1;stroke:none;" transform="matrix(1 0 0 1 339 696)">
   <path d="M0.976562 0L3.66211 0L12.9883-24.4629L45.752-24.4629L55.127 0L57.7637 0L30.6152-70.459L28.125-70.459ZM29.3457-67.1387L29.4434-67.1387L44.873-26.709L13.8672-26.709Z"/>
  </g>
  <line id="Baseline-S" style="fill:none;stroke:#27AAE1;opacity:1;stroke-width:0.5;" x1="263" x2="3036" y1="696" y2="696"/>
  <line id="Capline-S" style="fill:none;stroke:#27AAE1;opacity:1;stroke-width:0.5;" x1="263" x2="3036" y1="625.541" y2="625.541"/>
  <g id="H-reference" style="fill:#27AAE1;stroke:none;" transform="matrix(1 0 0 1 339 1126)">
   <path d="M0.976562 0L3.66211 0L12.9883-24.4629L45.752-24.4629L55.127 0L57.7637 0L30.6152-70.459L28.125-70.459ZM29.3457-67.1387L29.4434-67.1387L44.873-26.709L13.8672-26.709Z"/>
  </g>
  <line id="Baseline-M" style="fill:none;stroke:#27AAE1;opacity:1;stroke-width:0.5;" x1="263" x2="3036" y1="1126" y2="1126"/>
  <line id="Capline-M" style="fill:none;stroke:#27AAE1;opacity:1;stroke-width:0.5;" x1="263" x2="3036" y1="1055.54" y2="1055.54"/>
  <g id="H-reference" style="fill:#27AAE1;stroke:none;" transform="matrix(1 0 0 1 339 1556)">
   <path d="M0.976562 0L3.66211 0L12.9883-24.4629L45.752-24.4629L55.127 0L57.7637 0L30.6152-70.459L28.125-70.459ZM29.3457-67.1387L29.4434-67.1387L44.873-26.709L13.8672-26.709Z"/>
  </g>
  <line id="Baseline-L" style="fill:none;stroke:#27AAE1;opacity:1;stroke-width:0.5;" x1="263" x2="3036" y1="1556" y2="1556"/>
  <line id="Capline-L" style="fill:none;stroke:#27AAE1;opacity:1;stroke-width:0.5;" x1="263" x2="3036" y1="1485.54" y2="1485.54"/>
  <line id="left-margin" style="fill:none;stroke:#00AEEF;stroke-width:0.5;opacity:1.0;" x1="1387.47" x2="1387.47" y1="1030.79" y2="1150.12"/>
  <line id="right-margin" style="fill:none;stroke:#00AEEF;stroke-width:0.5;opacity:1.0;" x1="1512.22" x2="1512.22" y1="1030.79" y2="1150.12"/>
 </g>
 <g id="Symbols">
  <g id="Black-L" transform="matrix(1 0 0 1 2847.93 1556)">
   <path d="M16.0645 24.1211C16.0645 39.4043 24.707 48.0469 39.8926 48.0469L97.8516 48.0469C113.037 48.0469 121.631 39.3555 121.631 24.1211L121.631 12.5977L131.104 12.5977C146.289 12.5977 154.883 3.90625 154.883-11.3281L154.883-94.5801C154.883-109.814 146.289-118.506 131.104-118.506L73.1445-118.506C57.959-118.506 49.3164-109.863 49.3164-94.5801L49.3164-83.0566L39.8926-83.0566C24.707-83.0566 16.0645-74.4141 16.0645-59.1797ZM88.623-92.4805C85.6445-92.4805 83.5449-94.873 83.5449-97.5098L83.5449-99.1699C83.5449-101.123 85.2051-104.199 88.623-104.199L115.625-104.199C119.092-104.199 120.752-101.123 120.752-99.1699L120.752-97.5098C120.752-94.873 118.555-92.4805 115.625-92.4805ZM36.3281 21.3867L36.3281-56.4453C36.3281-60.6445 38.1836-62.8418 42.7246-62.8418L57.2754-62.8418L57.2754-35.5469C57.2754-22.7051 63.2324-16.6992 76.123-16.6992L101.416-16.6992L101.416 21.3867C101.416 25.6348 99.5117 27.7832 94.9707 27.7832L42.7246 27.7832C38.1836 27.7832 36.3281 25.6348 36.3281 21.3867ZM77.4414-32.6172C74.6094-32.6172 73.1934-34.0332 73.1934-36.8652L73.1934-60.1074L100.439-32.6172Z"/>
  </g>
  <g id="Heavy-L" transform="matrix(1 0 0 1 2552.48 1556)">
   <path d="M16.0645 24.1699C16.0645 38.8184 24.1211 46.9238 38.7207 46.9238L97.0703 46.9238C111.621 46.9238 119.727 38.8184 119.727 24.1699L119.727 12.5977L129.688 12.5977C144.238 12.5977 152.344 4.44336 152.344-10.1562L152.344-94.6777C152.344-109.326 144.238-117.432 129.688-117.432L71.2891-117.432C56.7871-117.432 48.6816-109.326 48.6816-94.6777L48.6816-83.1055L38.7207-83.1055C24.1699-83.1055 16.0645-74.9512 16.0645-60.3516ZM86.6699-92.6758C83.7891-92.6758 81.8848-94.9219 81.8848-97.3145L81.8848-98.9258C81.8848-100.781 83.4473-103.564 86.6699-103.564L114.355-103.564C117.578-103.564 119.141-100.781 119.141-98.9258L119.141-97.3145C119.141-94.9219 117.188-92.6758 114.355-92.6758ZM33.5938 22.0703L33.5938-58.2031C33.5938-63.0371 35.8887-65.5762 41.0156-65.5762L57.3242-65.5762L57.3242-35.8887C57.3242-24.3164 62.793-18.8965 74.3164-18.8965L102.197-18.8965L102.197 22.0703C102.197 26.9043 99.9023 29.4434 94.7754 29.4434L40.9668 29.4434C35.8887 29.4434 33.5938 26.9043 33.5938 22.0703ZM75.5371-33.0078C72.7539-33.0078 71.4355-34.3262 71.4355-37.1582L71.4355-62.9395L101.074-33.0078Z"/>
  </g>
  <g id="Bold-L" transform="matrix(1 0 0 1 2257.21 1556)">
   <path d="M16.0645 24.2676C16.0645 38.1836 23.5352 45.7031 37.4023 45.7031L96.2402 45.7031C110.107 45.7031 117.578 38.1836 117.578 24.2676L117.578 12.5488L128.125 12.5488C141.992 12.5488 149.463 5.0293 149.463-8.88672L149.463-94.8242C149.463-108.691 141.992-116.26 128.125-116.26L69.2871-116.26C55.4688-116.26 47.9492-108.74 47.9492-94.8242L47.9492-83.1055L37.4023-83.1055C23.584-83.1055 16.0645-75.5859 16.0645-61.6699ZM84.5215-92.8711C81.7383-92.8711 80.0781-94.9219 80.0781-97.1191L80.0781-98.584C80.0781-100.439 81.4941-102.832 84.5215-102.832L112.939-102.832C115.918-102.832 117.383-100.439 117.383-98.584L117.383-97.1191C117.383-94.9219 115.674-92.8711 112.939-92.8711ZM30.5176 22.8027L30.5176-60.2051C30.5176-65.6738 33.252-68.6523 39.0625-68.6523L57.373-68.6523L57.373-36.3281C57.373-26.1719 62.2559-21.3379 72.3145-21.3379L103.125-21.3379L103.125 22.8027C103.125 28.3203 100.391 31.25 94.5801 31.25L39.0137 31.25C33.252 31.25 30.5176 28.3203 30.5176 22.8027ZM73.4375-33.3984C70.6543-33.3984 69.3848-34.668 69.3848-37.4512L69.3848-66.1133L101.758-33.3984Z"/>
  </g>
  <g id="Semibold-L" transform="matrix(1 0 0 1 1961.5 1556)">
   <path d="M16.0645 24.2676C16.0645 37.7441 23.0957 44.873 36.4746 44.873L95.6543 44.873C109.033 44.873 116.064 37.7441 116.064 24.2676L116.064 12.5488L127.051 12.5488C140.43 12.5488 147.461 5.41992 147.461-8.00781L147.461-94.873C147.461-108.301 140.43-115.43 127.051-115.43L67.8711-115.43C54.541-115.43 47.4609-108.35 47.4609-94.873L47.4609-83.1055L36.4746-83.1055C23.1445-83.1055 16.0645-75.9766 16.0645-62.5488ZM83.0078-93.0176C80.2734-93.0176 78.8086-94.9707 78.8086-96.9727L78.8086-98.3887C78.8086-100.195 80.127-102.344 83.0078-102.344L111.963-102.344C114.795-102.344 116.162-100.195 116.162-98.3887L116.162-96.9727C116.162-94.9707 114.648-93.0176 111.963-93.0176ZM28.418 23.291L28.418-61.5723C28.418-67.4805 31.4453-70.8008 37.6953-70.8008L57.373-70.8008L57.373-36.5723C57.373-27.3926 61.8652-23.0469 70.9473-23.0469L103.76-23.0469L103.76 23.291C103.76 29.2969 100.684 32.5195 94.4336 32.5195L37.6465 32.5195C31.4453 32.5195 28.418 29.2969 28.418 23.291ZM72.0215-33.6914C69.2383-33.6914 68.0176-34.8633 68.0176-37.6465L68.0176-68.3105L102.246-33.6914Z"/>
  </g>
  <g id="Medium-L" transform="matrix(1 0 0 1 1665.55 1556)">
   <path d="M16.0645 24.3164C16.0645 37.4512 22.8027 44.2383 35.791 44.2383L95.2148 44.2383C108.203 44.2383 114.941 37.4023 114.941 24.3164L114.941 12.5488L126.27 12.5488C139.209 12.5488 145.947 5.71289 145.947-7.37305L145.947-94.9219C145.947-108.008 139.209-114.844 126.27-114.844L66.7969-114.844C53.8574-114.844 47.0703-108.057 47.0703-94.9219L47.0703-83.1543L35.791-83.1543C22.8516-83.1543 16.0645-76.3184 16.0645-63.2324ZM81.8359-93.1641C79.1992-93.1641 77.832-94.9707 77.832-96.875L77.832-98.2422C77.832-100.049 79.1504-101.953 81.8359-101.953L111.182-101.953C113.916-101.953 115.234-100.049 115.234-98.2422L115.234-96.875C115.234-94.9707 113.818-93.1641 111.182-93.1641ZM26.8066 23.6816L26.8066-62.5977C26.8066-68.8477 30.127-72.4121 36.6699-72.4121L57.4219-72.4121L57.4219-36.8164C57.4219-28.3691 61.6211-24.3164 69.873-24.3164L104.199-24.3164L104.199 23.6816C104.199 30.0293 100.928 33.4961 94.3359 33.4961L36.6211 33.4961C30.127 33.4961 26.8066 30.0293 26.8066 23.6816ZM70.8984-33.8867C68.1152-33.8867 66.9922-35.0586 66.9922-37.8418L66.9922-69.9707L102.637-33.8867Z"/>
  </g>
  <g id="Regular-L" transform="matrix(1 0 0 1 1369.82 1556)">
   <path d="M16.0645 24.3652C16.0645 37.0117 22.3633 43.3594 34.8633 43.3594L94.6777 43.3594C107.178 43.3594 113.477 36.9629 113.477 24.3652L113.477 12.5L125.195 12.5C137.695 12.5 143.994 6.10352 143.994-6.49414L143.994-95.0195C143.994-107.617 137.695-114.014 125.195-114.014L65.4297-114.014C52.9785-114.014 46.582-107.666 46.582-95.0195L46.582-83.1543L34.8633-83.1543C22.4609-83.1543 16.0645-76.709 16.0645-64.1602ZM80.3711-93.3105C77.7832-93.3105 76.5625-94.9707 76.5625-96.7773L76.5625-97.998C76.5625-99.8047 77.7832-101.465 80.3711-101.465L110.254-101.465C112.793-101.465 114.014-99.8047 114.014-97.998L114.014-96.7773C114.014-94.9707 112.793-93.3105 110.254-93.3105ZM24.707 24.2188L24.707-63.9648C24.707-70.6543 28.3203-74.5117 35.3516-74.5117L57.4707-74.5117L57.4707-37.0605C57.4707-29.5898 61.2305-26.0254 68.5059-26.0254L104.834-26.0254L104.834 24.2188C104.834 31.0059 101.221 34.7168 94.1895 34.7168L35.3027 34.7168C28.3203 34.7168 24.707 31.0059 24.707 24.2188ZM69.4824-34.1797C66.6992-34.1797 65.625-35.2539 65.625-38.0371L65.625-72.168L103.125-34.1797Z"/>
  </g>
  <g id="Light-L" transform="matrix(1 0 0 1 1073.69 1556)">
   <path d="M16.0645 24.6582C16.0645 36.5723 22.1191 42.6758 33.9355 42.6758L94.4336 42.6758C106.25 42.6758 112.305 36.5234 112.305 24.6582L112.305 12.5488L124.951 12.5488C136.768 12.5488 142.822 6.44531 142.822-5.41992L142.822-95.2637C142.822-107.129 136.768-113.281 124.951-113.281L64.4043-113.281C52.7344-113.281 46.582-107.178 46.582-95.2637L46.582-83.1543L33.9355-83.1543C22.2168-83.1543 16.0645-77.0508 16.0645-65.1855ZM80.3711-93.7012C78.0273-93.7012 76.9043-95.2148 76.9043-96.8262L76.9043-97.998C76.9043-99.5605 78.0273-101.123 80.3711-101.123L109.033-101.123C111.377-101.123 112.5-99.5605 112.5-97.998L112.5-96.8262C112.5-95.2148 111.377-93.7012 109.033-93.7012ZM22.7051 24.5117L22.7051-65.0391C22.7051-72.3633 26.6113-76.5625 34.2773-76.5625L58.3984-76.5625L58.3984-37.9883C58.3984-31.1035 61.8652-27.9785 68.4082-27.9785L105.664-27.9785L105.664 24.5117C105.664 32.0312 101.709 36.0352 94.0918 36.0352L34.2285 36.0352C26.6113 36.0352 22.7051 32.0312 22.7051 24.5117ZM69.043-34.2773C65.918-34.2773 64.6973-35.498 64.6973-38.623L64.6973-74.1699L104.248-34.2773Z"/>
  </g>
  <g id="Thin-L" transform="matrix(1 0 0 1 777.785 1556)">
   <path d="M16.0645 25.0977C16.0645 35.9863 21.7773 41.6992 32.666 41.6992L94.1406 41.6992C105.029 41.6992 110.742 35.9863 110.742 25.0977L110.742 12.6465L124.658 12.6465C135.498 12.6465 141.211 6.88477 141.211-3.95508L141.211-95.6543C141.211-106.543 135.498-112.256 124.658-112.256L63.1348-112.256C52.4414-112.256 46.5332-106.543 46.5332-95.6543L46.5332-83.2031L32.666-83.2031C21.9238-83.2031 16.0645-77.4414 16.0645-66.6016ZM80.3223-94.2383C78.3203-94.2383 77.2949-95.5566 77.2949-96.9238L77.2949-97.9492C77.2949-99.2676 78.3203-100.635 80.3223-100.635L107.422-100.635C109.473-100.635 110.449-99.2676 110.449-97.9492L110.449-96.9238C110.449-95.5566 109.473-94.2383 107.422-94.2383ZM19.9707 24.9512L19.9707-66.4062C19.9707-74.5605 24.3652-79.248 32.8613-79.248L59.6191-79.248L59.6191-39.1602C59.6191-33.1543 62.6465-30.5664 68.2129-30.5664L106.787-30.5664L106.787 24.9512C106.787 33.3984 102.393 37.793 93.9453 37.793L32.8613 37.793C24.3652 37.793 19.9707 33.3984 19.9707 24.9512ZM68.5059-34.4238C64.8926-34.4238 63.5254-35.8398 63.5254-39.4043L63.5254-76.8066L105.811-34.4238Z"/>
  </g>
  <g id="Ultralight-L" transform="matrix(1 0 0 1 481.488 1556)">
   <path d="M16.0645 25.293C16.0645 35.6934 21.6309 41.2109 31.9824 41.2109L93.9941 41.2109C104.395 41.2109 109.912 35.6934 109.912 25.293L109.912 12.6953L124.463 12.6953C134.863 12.6953 140.381 7.12891 140.381-3.22266L140.381-95.8496C140.381-106.201 134.863-111.719 124.463-111.719L62.4512-111.719C52.2461-111.719 46.5332-106.201 46.5332-95.8496L46.5332-83.2031L31.9824-83.2031C21.7773-83.2031 16.0645-77.6855 16.0645-67.2852ZM80.3223-94.5312C78.4668-94.5312 77.5391-95.752 77.5391-96.9727L77.5391-97.9004C77.5391-99.1211 78.4668-100.391 80.3223-100.391L106.641-100.391C108.496-100.391 109.424-99.1211 109.424-97.9004L109.424-96.9727C109.424-95.752 108.496-94.5312 106.641-94.5312ZM18.6035 25.1465L18.6035-67.1387C18.6035-75.7324 23.2422-80.6641 32.1289-80.6641L60.3027-80.6641L60.3027-39.7461C60.3027-34.1797 63.0859-31.8848 68.1152-31.8848L107.373-31.8848L107.373 25.1465C107.373 34.082 102.783 38.6719 93.8965 38.6719L32.1289 38.6719C23.2422 38.6719 18.6035 34.082 18.6035 25.1465ZM68.2129-34.5215C64.4043-34.5215 62.8906-35.9863 62.8906-39.7949L62.8906-78.125L106.592-34.5215Z"/>
  </g>
  <g id="Black-M" transform="matrix(1 0 0 1 2865.75 1126)">
   <path d="M12.4512 10.8887C12.4512 23.0957 19.7266 30.3711 31.9824 30.3711L76.709 30.3711C88.9648 30.3711 96.2402 23.0957 96.2402 10.8887L96.2402 1.9043L103.32 1.9043C115.576 1.9043 122.852-5.37109 122.852-17.627L122.852-81.25C122.852-93.5059 115.576-100.781 103.32-100.781L58.5938-100.781C46.3379-100.781 39.0625-93.5059 39.0625-81.25L39.0625-72.2656L31.9824-72.2656C19.7266-72.2656 12.4512-64.9902 12.4512-52.7344ZM71.2891-79.5898C68.9941-79.5898 67.1387-81.5918 67.1387-83.7891L67.1387-85.1562C67.1387-86.5723 68.5059-89.3555 71.2891-89.3555L90.6738-89.3555C93.5059-89.3555 94.873-86.5723 94.873-85.1562L94.873-83.7891C94.873-81.5918 92.9199-79.5898 90.6738-79.5898ZM30.7617 7.91016L30.7617-49.8047C30.7617-52.6367 31.8359-54.0039 34.9121-54.0039L44.8242-54.0039L44.8242-35.4492C44.8242-24.1211 50-18.9453 61.3281-18.9453L77.9785-18.9453L77.9785 7.91016C77.9785 10.7422 76.8555 12.1094 73.7793 12.1094L34.9121 12.1094C31.8359 12.1094 30.7617 10.7422 30.7617 7.91016ZM62.3047-32.8125C59.9121-32.8125 58.6914-34.0332 58.6914-36.4258L58.6914-51.7578L77.6367-32.8125Z"/>
  </g>
  <g id="Heavy-M" transform="matrix(1 0 0 1 2570.28 1126)">
   <path d="M12.4512 10.8398C12.4512 22.6074 19.1895 29.3945 30.957 29.3945L75.9766 29.3945C87.6953 29.3945 94.4336 22.6074 94.4336 10.8398L94.4336 1.85547L101.904 1.85547C113.623 1.85547 120.361-4.93164 120.361-16.6992L120.361-81.2988C120.361-93.0664 113.623-99.8047 101.904-99.8047L56.8848-99.8047C45.1172-99.8047 38.3789-93.0664 38.3789-81.2988L38.3789-72.3145L30.957-72.3145C19.1895-72.3145 12.4512-65.5273 12.4512-53.7598ZM69.1895-79.6875C66.9434-79.6875 65.2344-81.543 65.2344-83.5449L65.2344-84.8633C65.2344-86.2793 66.5527-88.7207 69.1895-88.7207L89.5996-88.7207C92.2852-88.7207 93.5547-86.2793 93.5547-84.8633L93.5547-83.5449C93.5547-81.543 91.8457-79.6875 89.5996-79.6875ZM28.2715 8.59375L28.2715-51.5137C28.2715-54.7852 29.7363-56.4941 33.3008-56.4941L44.6289-56.4941L44.6289-35.5957C44.6289-25.4883 49.3164-20.8496 59.375-20.8496L78.6133-20.8496L78.6133 8.59375C78.6133 11.8652 77.1973 13.5742 73.6328 13.5742L33.252 13.5742C29.7363 13.5742 28.2715 11.8652 28.2715 8.59375ZM60.3516-33.1543C58.1055-33.1543 56.9336-34.3262 56.9336-36.5723L56.9336-54.3457L78.0273-33.1543Z"/>
  </g>
  <g id="Bold-M" transform="matrix(1 0 0 1 2274.96 1126)">
   <path d="M12.4512 10.8398C12.4512 22.0703 18.6035 28.2715 29.7852 28.2715L75.0977 28.2715C86.2793 28.2715 92.4316 22.0215 92.4316 10.8398L92.4316 1.80664L100.244 1.80664C111.426 1.80664 117.578-4.39453 117.578-15.625L117.578-81.3477C117.578-92.5293 111.426-98.7305 100.244-98.7305L54.9316-98.7305C43.75-98.7305 37.5977-92.5781 37.5977-81.3477L37.5977-72.3145L29.7852-72.3145C18.6035-72.3145 12.4512-66.1133 12.4512-54.8828ZM66.7969-79.7852C64.5996-79.7852 63.1348-81.4941 63.1348-83.3008L63.1348-84.5215C63.1348-85.9863 64.3555-88.0859 66.7969-88.0859L88.3789-88.0859C90.8691-88.0859 92.041-85.9863 92.041-84.5215L92.041-83.3008C92.041-81.4941 90.5762-79.7852 88.3789-79.7852ZM25.5371 9.27734L25.5371-53.3691C25.5371-57.1777 27.3926-59.2285 31.4453-59.2285L44.4336-59.2285L44.4336-35.791C44.4336-27.0508 48.5352-22.9492 57.2266-22.9492L79.3457-22.9492L79.3457 9.27734C79.3457 13.1348 77.4902 15.1855 73.4375 15.1855L31.4453 15.1855C27.3926 15.1855 25.5371 13.1348 25.5371 9.27734ZM58.2031-33.5938C56.0547-33.5938 55.0293-34.5703 55.0293-36.7676L55.0293-57.2266L78.418-33.5938Z"/>
  </g>
  <g id="Semibold-M" transform="matrix(1 0 0 1 1979.2 1126)">
   <path d="M12.4512 10.791C12.4512 21.6797 18.2129 27.4414 29.0039 27.4414L74.5117 27.4414C85.3027 27.4414 91.0645 21.6309 91.0645 10.791L91.0645 1.80664L99.1211 1.80664C109.912 1.80664 115.674-4.05273 115.674-14.8926L115.674-81.3477C115.674-92.1875 109.912-97.998 99.1211-97.998L53.5645-97.998C42.8223-97.998 37.0605-92.2363 37.0605-81.3477L37.0605-72.3145L29.0039-72.3145C18.2129-72.3145 12.4512-66.5039 12.4512-55.6641ZM65.1855-79.8828C62.9883-79.8828 61.7188-81.4453 61.7188-83.1543L61.7188-84.3262C61.7188-85.791 62.793-87.5977 65.1855-87.5977L87.5488-87.5977C89.9414-87.5977 91.0156-85.791 91.0156-84.3262L91.0156-83.1543C91.0156-81.4453 89.7461-79.8828 87.5488-79.8828ZM23.6328 9.76562L23.6328-54.6387C23.6328-58.8379 25.7324-61.1328 30.1758-61.1328L44.2383-61.1328L44.2383-35.9375C44.2383-28.125 48.0469-24.4141 55.7617-24.4141L79.8828-24.4141L79.8828 9.76562C79.8828 14.0137 77.7344 16.3086 73.291 16.3086L30.1758 16.3086C25.7324 16.3086 23.6328 14.0137 23.6328 9.76562ZM56.6895-33.8379C54.6387-33.8379 53.7109-34.7656 53.7109-36.8652L53.7109-59.2285L78.7109-33.8379Z"/>
  </g>
  <g id="Medium-M" transform="matrix(1 0 0 1 1683.23 1126)">
   <path d="M12.4512 10.791C12.4512 21.3867 17.9199 26.8555 28.3691 26.8555L74.0723 26.8555C84.5215 26.8555 89.9902 21.3379 89.9902 10.791L89.9902 1.75781L98.291 1.75781C108.74 1.75781 114.209-3.75977 114.209-14.3066L114.209-81.3477C114.209-91.9434 108.74-97.4609 98.291-97.4609L52.5879-97.4609C42.1387-97.4609 36.6699-91.9434 36.6699-81.3477L36.6699-72.3633L28.3691-72.3633C17.9199-72.3633 12.4512-66.7969 12.4512-56.25ZM63.916-79.9316C61.7676-79.9316 60.5957-81.3965 60.5957-83.0078L60.5957-84.1309C60.5957-85.5957 61.6699-87.2559 63.916-87.2559L86.9141-87.2559C89.209-87.2559 90.2344-85.5957 90.2344-84.1309L90.2344-83.0078C90.2344-81.3965 89.1113-79.9316 86.9141-79.9316ZM22.168 10.1562L22.168-55.6152C22.168-60.1074 24.5117-62.5977 29.248-62.5977L44.1406-62.5977L44.1406-36.0352C44.1406-28.9551 47.6074-25.5371 54.6387-25.5371L80.2734-25.5371L80.2734 10.1562C80.2734 14.6484 77.9297 17.1387 73.1934 17.1387L29.1992 17.1387C24.5117 17.1387 22.168 14.6484 22.168 10.1562ZM55.5664-34.082C53.5645-34.082 52.6855-34.9121 52.6855-36.9629L52.6855-60.7422L78.9551-34.082Z"/>
  </g>
  <g id="Regular-M" transform="matrix(1 0 0 1 1387.47 1126)">
   <path d="M12.4512 10.791C12.4512 20.9961 17.4805 26.123 27.5879 26.123L73.4863 26.123C83.5938 26.123 88.623 20.9473 88.623 10.791L88.623 1.75781L97.168 1.75781C107.227 1.75781 112.305-3.41797 112.305-13.5742L112.305-81.3965C112.305-91.5527 107.227-96.7285 97.168-96.7285L51.2695-96.7285C41.2109-96.7285 36.1328-91.6016 36.1328-81.3965L36.1328-72.3633L27.5879-72.3633C17.5293-72.3633 12.4512-67.2363 12.4512-57.0312ZM62.3047-79.9805C60.1562-79.9805 59.1797-81.3965 59.1797-82.8613L59.1797-83.8867C59.1797-85.4004 60.1562-86.7676 62.3047-86.7676L86.1328-86.7676C88.2324-86.7676 89.2578-85.4004 89.2578-83.8867L89.2578-82.8613C89.2578-81.3965 88.2324-79.9805 86.1328-79.9805ZM20.3125 10.6445L20.3125-56.9336C20.3125-61.7188 22.9004-64.502 27.9785-64.502L43.9941-64.502L43.9941-36.1816C43.9941-30.0293 47.1191-26.9531 53.1738-26.9531L80.7617-26.9531L80.7617 10.6445C80.7617 15.5273 78.125 18.2617 73.0957 18.2617L27.9297 18.2617C22.9004 18.2617 20.3125 15.5273 20.3125 10.6445ZM54.1016-34.3262C52.1484-34.3262 51.3672-35.1074 51.3672-37.0605L51.3672-62.6953L79.248-34.3262Z"/>
  </g>
  <g id="Light-M" transform="matrix(1 0 0 1 1091.29 1126)">
   <path d="M12.4512 11.0352C12.4512 20.6055 17.2852 25.4395 26.709 25.4395L73.291 25.4395C82.7637 25.4395 87.5488 20.5566 87.5488 11.0352L87.5488 1.80664L96.9238 1.80664C106.396 1.80664 111.23-3.07617 111.23-12.5977L111.23-81.6406C111.23-91.1621 106.396-96.0449 96.9238-96.0449L50.3906-96.0449C40.9668-96.0449 36.084-91.2109 36.084-81.6406L36.084-72.3633L26.709-72.3633C17.334-72.3633 12.4512-67.4805 12.4512-57.959ZM62.3047-80.3711C60.3516-80.3711 59.4727-81.5918 59.4727-82.9102L59.4727-83.8867C59.4727-85.2051 60.3516-86.4258 62.3047-86.4258L85.0586-86.4258C86.9629-86.4258 87.8418-85.2051 87.8418-83.8867L87.8418-82.9102C87.8418-81.5918 86.9629-80.3711 85.0586-80.3711ZM18.5059 10.9375L18.5059-57.8613C18.5059-63.2324 21.3867-66.3574 27.0508-66.3574L44.8242-66.3574L44.8242-36.9629C44.8242-31.3477 47.6562-28.7109 53.0762-28.7109L81.543-28.7109L81.543 10.9375C81.543 16.4551 78.6133 19.4336 72.998 19.4336L27.002 19.4336C21.3867 19.4336 18.5059 16.4551 18.5059 10.9375ZM53.7109-34.4238C51.4648-34.4238 50.5371-35.3516 50.5371-37.5977L50.5371-64.502L80.2734-34.4238Z"/>
  </g>
  <g id="Thin-M" transform="matrix(1 0 0 1 795.314 1126)">
   <path d="M12.4512 11.4258C12.4512 20.0684 16.9434 24.6094 25.5859 24.6094L73.0469 24.6094C81.6406 24.6094 86.1328 20.0684 86.1328 11.4258L86.1328 1.85547L96.6797 1.85547C105.273 1.85547 109.766-2.68555 109.766-11.3281L109.766-81.9824C109.766-90.625 105.273-95.1172 96.6797-95.1172L49.2188-95.1172C40.6738-95.1172 36.084-90.625 36.084-81.9824L36.084-72.4121L25.5859-72.4121C17.041-72.4121 12.4512-67.8711 12.4512-59.2285ZM62.2559-80.8594C60.6445-80.8594 59.8145-81.9336 59.8145-83.0078L59.8145-83.8379C59.8145-84.9121 60.6445-86.0352 62.2559-86.0352L83.5938-86.0352C85.2539-86.0352 86.0352-84.9121 86.0352-83.8379L86.0352-83.0078C86.0352-81.9336 85.2539-80.8594 83.5938-80.8594ZM16.0645 11.3281L16.0645-59.082C16.0645-65.2344 19.3848-68.75 25.7812-68.75L45.9473-68.75L45.9473-37.9883C45.9473-33.1543 48.3887-31.0547 52.9297-31.0547L82.5195-31.0547L82.5195 11.3281C82.5195 17.627 79.1992 20.9473 72.8516 20.9473L25.7324 20.9473C19.3848 20.9473 16.0645 17.627 16.0645 11.3281ZM53.2227-34.5703C50.5371-34.5703 49.4629-35.6445 49.4629-38.2812L49.4629-66.8457L81.6895-34.5703Z"/>
  </g>
  <g id="Ultralight-M" transform="matrix(1 0 0 1 498.969 1126)">
   <path d="M12.4512 11.6211C12.4512 19.8242 16.7969 24.1699 25 24.1699L72.9004 24.1699C81.1035 24.1699 85.4492 19.8242 85.4492 11.6211L85.4492 1.9043L96.5332 1.9043C104.688 1.9043 109.033-2.44141 109.033-10.6445L109.033-82.1289C109.033-90.332 104.688-94.6777 96.5332-94.6777L48.6328-94.6777C40.5273-94.6777 36.084-90.332 36.084-82.1289L36.084-72.4121L25-72.4121C16.9434-72.4121 12.4512-68.0664 12.4512-59.8633ZM62.2559-81.1035C60.7422-81.1035 60.0098-82.0801 60.0098-83.0566L60.0098-83.7891C60.0098-84.8145 60.7422-85.791 62.2559-85.791L82.8613-85.791C84.375-85.791 85.1074-84.8145 85.1074-83.7891L85.1074-83.0566C85.1074-82.0801 84.375-81.1035 82.8613-81.1035ZM14.8438 11.4746L14.8438-59.7656C14.8438-66.2598 18.3594-70.0195 25.0977-70.0195L46.5332-70.0195L46.5332-38.5254C46.5332-34.082 48.7305-32.2266 52.832-32.2266L83.0566-32.2266L83.0566 11.4746C83.0566 18.2617 79.541 21.7773 72.7539 21.7773L25.0977 21.7773C18.3594 21.7773 14.8438 18.2617 14.8438 11.4746ZM52.9297-34.6191C50.0488-34.6191 48.9258-35.791 48.9258-38.6719L48.9258-68.0664L82.373-34.6191Z"/>
  </g>
  <g id="Black-S" transform="matrix(1 0 0 1 2880.47 696)">
   <path d="M9.76562 0.878906C9.76562 10.4492 15.4297 16.1133 25 16.1133L60.0586 16.1133C69.6289 16.1133 75.293 10.4492 75.293 0.878906L75.293-6.15234L80.8594-6.15234C90.4297-6.15234 96.0938-11.8164 96.0938-21.3867L96.0938-71.2891C96.0938-80.8594 90.4297-86.5234 80.8594-86.5234L45.8008-86.5234C36.2305-86.5234 30.5664-80.8594 30.5664-71.2891L30.5664-64.2578L25-64.2578C15.4297-64.2578 9.76562-58.5938 9.76562-49.0234ZM55.7129-69.9707C53.9062-69.9707 52.4414-71.5332 52.4414-73.2422L52.4414-74.3164C52.4414-75.4395 53.5156-77.5879 55.7129-77.5879L70.9961-77.5879C73.1934-77.5879 74.2676-75.4395 74.2676-74.3164L74.2676-73.2422C74.2676-71.5332 72.7539-69.9707 70.9961-69.9707ZM23.9258-1.36719L23.9258-46.7773C23.9258-49.0234 24.8047-50.0977 27.2461-50.0977L35.1074-50.0977L35.1074-35.4004C35.1074-26.6113 39.1113-22.6074 47.9004-22.6074L61.1328-22.6074L61.1328-1.36719C61.1328 0.878906 60.2539 1.95312 57.8125 1.95312L27.2461 1.95312C24.8047 1.95312 23.9258 0.878906 23.9258-1.36719ZM48.6816-33.3496C46.8262-33.3496 45.8496-34.3262 45.8496-36.1816L45.8496-48.3398L60.8398-33.3496Z"/>
  </g>
  <g id="Heavy-S" transform="matrix(1 0 0 1 2584.66 696)">
   <path d="M9.76562 0.830078C9.76562 10.1074 15.0391 15.4297 24.3164 15.4297L59.5215 15.4297C68.75 15.4297 74.0234 10.1074 74.0234 0.830078L74.0234-6.20117L79.7852-6.20117C89.0137-6.20117 94.2871-11.4746 94.2871-20.752L94.2871-71.2891C94.2871-80.5664 89.0137-85.8887 79.7852-85.8887L44.5801-85.8887C35.3027-85.8887 30.0293-80.5664 30.0293-71.2891L30.0293-64.2578L24.3164-64.2578C15.0391-64.2578 9.76562-58.9844 9.76562-49.707ZM54.1016-70.0195C52.2949-70.0195 50.9766-71.4844 50.9766-73.0957L50.9766-74.0723C50.9766-75.2441 52.002-77.1484 54.1016-77.1484L70.3125-77.1484C72.3633-77.1484 73.3887-75.2441 73.3887-74.0723L73.3887-73.0957C73.3887-71.4844 72.0703-70.0195 70.3125-70.0195ZM22.2656-0.927734L22.2656-47.9492C22.2656-50.4883 23.3887-51.8066 26.123-51.8066L34.8633-51.8066L34.8633-35.4492C34.8633-27.5391 38.5254-23.877 46.4355-23.877L61.5723-23.877L61.5723-0.927734C61.5723 1.66016 60.4492 2.92969 57.7148 2.92969L26.0742 2.92969C23.3887 2.92969 22.2656 1.66016 22.2656-0.927734ZM47.2168-33.6426C45.5078-33.6426 44.6289-34.4727 44.6289-36.2305L44.6289-50.1465L61.0352-33.6426Z"/>
  </g>
  <g id="Bold-S" transform="matrix(1 0 0 1 2288.95 696)">
   <path d="M9.76562 0.78125C9.76562 9.7168 14.6484 14.5996 23.5352 14.5996L58.8867 14.5996C67.7734 14.5996 72.6074 9.7168 72.6074 0.78125L72.6074-6.20117L78.5645-6.20117C87.4512-6.20117 92.2852-11.1328 92.2852-20.0684L92.2852-71.2891C92.2852-80.2246 87.4512-85.1074 78.5645-85.1074L43.2129-85.1074C34.3262-85.1074 29.4434-80.2246 29.4434-71.2891L29.4434-64.3066L23.5352-64.3066C14.6484-64.3066 9.76562-59.375 9.76562-50.4395ZM52.2461-70.0684C50.4883-70.0684 49.3164-71.3867 49.3164-72.9004L49.3164-73.8281C49.3164-75.0488 50.293-76.6602 52.2461-76.6602L69.4824-76.6602C71.4844-76.6602 72.4121-75.0488 72.4121-73.8281L72.4121-72.9004C72.4121-71.3867 71.2402-70.0684 69.4824-70.0684ZM20.3613-0.390625L20.3613-49.2676C20.3613-52.1484 21.7773-53.6621 24.8047-53.6621L34.5703-53.6621L34.5703-35.498C34.5703-28.5645 37.8906-25.2441 44.8242-25.2441L62.0117-25.2441L62.0117-0.390625C62.0117 2.49023 60.6445 4.00391 57.5684 4.00391L24.8047 4.00391C21.7773 4.00391 20.3613 2.49023 20.3613-0.390625ZM45.6055-33.9355C43.9941-33.9355 43.2617-34.668 43.2617-36.2793L43.2617-52.0996L61.2305-33.9355Z"/>
  </g>
  <g id="Semibold-S" transform="matrix(1 0 0 1 1992.92 696)">
   <path d="M9.76562 0.732422C9.76562 9.47266 14.3555 14.0625 22.998 14.0625L58.4473 14.0625C67.0898 14.0625 71.6309 9.42383 71.6309 0.732422L71.6309-6.25L77.6855-6.25C86.3281-6.25 90.918-10.8887 90.918-19.5801L90.918-71.2891C90.918-79.9805 86.3281-84.6191 77.6855-84.6191L42.2363-84.6191C33.5938-84.6191 29.0527-80.0293 29.0527-71.2891L29.0527-64.3066L22.998-64.3066C14.3555-64.3066 9.76562-59.668 9.76562-50.9766ZM51.0254-70.0684C49.2188-70.0684 48.1934-71.3379 48.1934-72.7539L48.1934-73.6816C48.1934-74.9023 49.1211-76.3672 51.0254-76.3672L68.9453-76.3672C70.8496-76.3672 71.7773-74.9023 71.7773-73.6816L71.7773-72.7539C71.7773-71.3379 70.7031-70.0684 68.9453-70.0684ZM19.0918-0.0488281L19.0918-50.1953C19.0918-53.2715 20.6543-54.9805 23.9258-54.9805L34.375-54.9805L34.375-35.498C34.375-29.248 37.4512-26.2207 43.7012-26.2207L62.3535-26.2207L62.3535-0.0488281C62.3535 3.07617 60.791 4.78516 57.4707 4.78516L23.9258 4.78516C20.6543 4.78516 19.0918 3.07617 19.0918-0.0488281ZM44.5312-34.1309C42.9688-34.1309 42.2852-34.8145 42.2852-36.3281L42.2852-53.4668L61.3281-34.1309Z"/>
  </g>
  <g id="Medium-S" transform="matrix(1 0 0 1 1696.73 696)">
   <path d="M9.76562 0.732422C9.76562 9.27734 14.1113 13.6719 22.5586 13.6719L58.1055 13.6719C66.5527 13.6719 70.8984 9.22852 70.8984 0.732422L70.8984-6.25L77.0508-6.25C85.498-6.25 89.8926-10.6934 89.8926-19.2383L89.8926-71.2891C89.8926-79.7852 85.498-84.2285 77.0508-84.2285L41.5039-84.2285C33.0566-84.2285 28.7109-79.834 28.7109-71.2891L28.7109-64.3066L22.5586-64.3066C14.1113-64.3066 9.76562-59.8633 9.76562-51.3672ZM50.0488-70.1172C48.291-70.1172 47.3633-71.3379 47.3633-72.6562L47.3633-73.5352C47.3633-74.7559 48.1934-76.123 50.0488-76.123L68.5547-76.123C70.4102-76.123 71.2402-74.7559 71.2402-73.5352L71.2402-72.6562C71.2402-71.3379 70.3125-70.1172 68.5547-70.1172ZM18.0664 0.244141L18.0664-50.8789C18.0664-54.1504 19.8242-55.957 23.291-55.957L34.2773-55.957L34.2773-35.5469C34.2773-29.7852 37.1094-26.9531 42.8223-26.9531L62.5977-26.9531L62.5977 0.244141C62.5977 3.51562 60.8887 5.32227 57.4219 5.32227L23.2422 5.32227C19.8242 5.32227 18.0664 3.51562 18.0664 0.244141ZM43.6523-34.2773C42.2363-34.2773 41.6016-34.9121 41.6016-36.377L41.6016-54.541L61.4746-34.2773Z"/>
  </g>
  <g id="Regular-S" transform="matrix(1 0 0 1 1400.7 696)">
   <path d="M9.76562 0.683594C9.76562 9.0332 13.8184 13.1348 22.0215 13.1348L57.666 13.1348C65.8691 13.1348 69.9707 8.98438 69.9707 0.683594L69.9707-6.29883L76.2207-6.29883C84.4238-6.29883 88.5254-10.4492 88.5254-18.75L88.5254-71.2891C88.5254-79.5898 84.4238-83.7402 76.2207-83.7402L40.5762-83.7402C32.373-83.7402 28.3203-79.6387 28.3203-71.2891L28.3203-64.3066L22.0215-64.3066C13.8184-64.3066 9.76562-60.1562 9.76562-51.8555ZM48.8281-70.1172C47.0703-70.1172 46.2402-71.2891 46.2402-72.5098L46.2402-73.3887C46.2402-74.6094 47.0703-75.7812 48.8281-75.7812L68.0176-75.7812C69.7754-75.7812 70.6055-74.6094 70.6055-73.3887L70.6055-72.5098C70.6055-71.2891 69.7754-70.1172 68.0176-70.1172ZM16.7969 0.585938L16.7969-51.7578C16.7969-55.2734 18.7012-57.2754 22.4121-57.2754L34.082-57.2754L34.082-35.5957C34.082-30.4688 36.6699-27.9297 41.748-27.9297L62.8906-27.9297L62.8906 0.585938C62.8906 4.10156 60.9863 6.10352 57.3242 6.10352L22.3633 6.10352C18.7012 6.10352 16.7969 4.10156 16.7969 0.585938ZM42.5781-34.4727C41.2109-34.4727 40.625-35.0586 40.625-36.4258L40.625-55.9082L61.5723-34.4727Z"/>
  </g>
  <g id="Light-S" transform="matrix(1 0 0 1 1104.48 696)">
   <path d="M9.76562 0.927734C9.76562 8.69141 13.623 12.5488 21.2891 12.5488L57.5195 12.5488C65.1367 12.5488 68.9941 8.64258 68.9941 0.927734L68.9941-6.25L76.0254-6.25C83.6914-6.25 87.5488-10.1562 87.5488-17.8711L87.5488-71.4844C87.5488-79.1992 83.6914-83.1543 76.0254-83.1543L39.7949-83.1543C32.1777-83.1543 28.3203-79.248 28.3203-71.4844L28.3203-64.3066L21.2891-64.3066C13.6719-64.3066 9.76562-60.4004 9.76562-52.6855ZM48.8281-70.459C47.2168-70.459 46.4844-71.4844 46.4844-72.5586L46.4844-73.3398C46.4844-74.4629 47.2168-75.4883 48.8281-75.4883L67.041-75.4883C68.6035-75.4883 69.3848-74.4629 69.3848-73.3398L69.3848-72.5586C69.3848-71.4844 68.6035-70.459 67.041-70.459ZM15.1855 0.830078L15.1855-52.5879C15.1855-56.5918 17.3828-58.8867 21.582-58.8867L34.8145-58.8867L34.8145-36.2793C34.8145-31.6895 37.1582-29.4434 41.6504-29.4434L63.5742-29.4434L63.5742 0.830078C63.5742 4.88281 61.4258 7.12891 57.2266 7.12891L21.5332 7.12891C17.3828 7.12891 15.1855 4.88281 15.1855 0.830078ZM42.2363-34.5703C40.5762-34.5703 39.9414-35.2539 39.9414-36.8652L39.9414-57.4707L62.5-34.5703Z"/>
  </g>
  <g id="Thin-S" transform="matrix(1 0 0 1 808.4 696)">
   <path d="M9.76562 1.26953C9.76562 8.20312 13.3789 11.8164 20.2637 11.8164L57.2754 11.8164C64.209 11.8164 67.7734 8.20312 67.7734 1.26953L67.7734-6.20117L75.7812-6.20117C82.7148-6.20117 86.2793-9.81445 86.2793-16.748L86.2793-71.7773C86.2793-78.7109 82.7148-82.3242 75.7812-82.3242L38.7695-82.3242C31.9336-82.3242 28.2715-78.7598 28.2715-71.7773L28.2715-64.3555L20.2637-64.3555C13.4277-64.3555 9.76562-60.7422 9.76562-53.8086ZM48.7793-70.8496C47.4609-70.8496 46.8262-71.7285 46.8262-72.6562L46.8262-73.3398C46.8262-74.2188 47.4609-75.0977 48.7793-75.0977L65.7715-75.0977C67.1387-75.0977 67.7734-74.2188 67.7734-73.3398L67.7734-72.6562C67.7734-71.7285 67.1387-70.8496 65.7715-70.8496ZM13.0859 1.17188L13.0859-53.7109C13.0859-58.3496 15.5762-61.0352 20.459-61.0352L35.791-61.0352L35.791-37.207C35.791-33.252 37.793-31.4941 41.5039-31.4941L64.4531-31.4941L64.4531 1.17188C64.4531 5.95703 61.9629 8.49609 57.1289 8.49609L20.4102 8.49609C15.5762 8.49609 13.0859 5.95703 13.0859 1.17188ZM41.7969-34.668C39.7949-34.668 38.9648-35.498 38.9648-37.5L38.9648-59.5703L63.7207-34.668Z"/>
  </g>
  <g id="Ultralight-S" transform="matrix(1 0 0 1 512.006 696)">
   <path d="M9.76562 1.41602C9.76562 7.95898 13.2324 11.4258 19.7266 11.4258L57.1777 11.4258C63.6719 11.4258 67.1387 7.95898 67.1387 1.41602L67.1387-6.15234L75.6836-6.15234C82.1777-6.15234 85.6445-9.61914 85.6445-16.1621L85.6445-71.9238C85.6445-78.4668 82.1777-81.9336 75.6836-81.9336L38.2324-81.9336C31.8359-81.9336 28.2715-78.4668 28.2715-71.9238L28.2715-64.3555L19.7266-64.3555C13.3301-64.3555 9.76562-60.8887 9.76562-54.3457ZM48.7793-71.0938C47.5586-71.0938 46.9727-71.875 46.9727-72.7051L46.9727-73.291C46.9727-74.1211 47.5586-74.9023 48.7793-74.9023L65.1367-74.9023C66.3574-74.9023 66.9434-74.1211 66.9434-73.291L66.9434-72.7051C66.9434-71.875 66.3574-71.0938 65.1367-71.0938ZM11.9629 1.31836L11.9629-54.248C11.9629-59.2773 14.6484-62.1582 19.873-62.1582L36.3281-62.1582L36.3281-37.6953C36.3281-34.082 38.0859-32.5684 41.4062-32.5684L64.9414-32.5684L64.9414 1.31836C64.9414 6.49414 62.2559 9.22852 57.0312 9.22852L19.873 9.22852C14.6484 9.22852 11.9629 6.49414 11.9629 1.31836ZM41.5527-34.7656C39.3555-34.7656 38.4766-35.5957 38.4766-37.8418L38.4766-60.6445L64.3555-34.7656Z"/>
  </g>
 </g>
</svg>
