<?xml version="1.0" encoding="UTF-8"?>
<!--Generator: Apple Native CoreSVG 149-->
<!DOCTYPE svg
PUBLIC "-//W3C//DTD SVG 1.1//EN"
       "http://www.w3.org/Graphics/SVG/1.1/DTD/svg11.dtd">
<svg version="1.1" xmlns="http://www.w3.org/2000/svg" xmlns:xlink="http://www.w3.org/1999/xlink" width="3300" height="2200">
 <!--glyph: "uni1007FE.medium", point size: 100.000000, font version: "Version 16.0d18e1", template writer version: "8"-->
 <g id="Notes">
  <rect height="2200" id="artboard" style="fill:white;opacity:1" width="3300" x="0" y="0"/>
  <line id="" style="fill:none;stroke:black;opacity:1;stroke-width:0.5;" x1="263" x2="3036" y1="292" y2="292"/>
  <text style="stroke:none;fill:black;font-family:-apple-system,&quot;SF Pro Display&quot;,&quot;SF Pro Text&quot;,Helvetica,sans-serif;font-weight:bold;" transform="matrix(1 0 0 1 263 322)">Weight/Scale Variations</text>
  <text style="stroke:none;fill:black;font-family:-apple-system,&quot;SF Pro Display&quot;,&quot;SF Pro Text&quot;,Helvetica,sans-serif;text-anchor:middle;" transform="matrix(1 0 0 1 559.711 322)">Ultralight</text>
  <text style="stroke:none;fill:black;font-family:-apple-system,&quot;SF Pro Display&quot;,&quot;SF Pro Text&quot;,Helvetica,sans-serif;text-anchor:middle;" transform="matrix(1 0 0 1 856.422 322)">Thin</text>
  <text style="stroke:none;fill:black;font-family:-apple-system,&quot;SF Pro Display&quot;,&quot;SF Pro Text&quot;,Helvetica,sans-serif;text-anchor:middle;" transform="matrix(1 0 0 1 1153.13 322)">Light</text>
  <text style="stroke:none;fill:black;font-family:-apple-system,&quot;SF Pro Display&quot;,&quot;SF Pro Text&quot;,Helvetica,sans-serif;text-anchor:middle;" transform="matrix(1 0 0 1 1449.84 322)">Regular</text>
  <text style="stroke:none;fill:black;font-family:-apple-system,&quot;SF Pro Display&quot;,&quot;SF Pro Text&quot;,Helvetica,sans-serif;text-anchor:middle;" transform="matrix(1 0 0 1 1746.56 322)">Medium</text>
  <text style="stroke:none;fill:black;font-family:-apple-system,&quot;SF Pro Display&quot;,&quot;SF Pro Text&quot;,Helvetica,sans-serif;text-anchor:middle;" transform="matrix(1 0 0 1 2043.27 322)">Semibold</text>
  <text style="stroke:none;fill:black;font-family:-apple-system,&quot;SF Pro Display&quot;,&quot;SF Pro Text&quot;,Helvetica,sans-serif;text-anchor:middle;" transform="matrix(1 0 0 1 2339.98 322)">Bold</text>
  <text style="stroke:none;fill:black;font-family:-apple-system,&quot;SF Pro Display&quot;,&quot;SF Pro Text&quot;,Helvetica,sans-serif;text-anchor:middle;" transform="matrix(1 0 0 1 2636.69 322)">Heavy</text>
  <text style="stroke:none;fill:black;font-family:-apple-system,&quot;SF Pro Display&quot;,&quot;SF Pro Text&quot;,Helvetica,sans-serif;text-anchor:middle;" transform="matrix(1 0 0 1 2933.4 322)">Black</text>
  <line id="" style="fill:none;stroke:black;opacity:1;stroke-width:0.5;" x1="263" x2="3036" y1="1903" y2="1903"/>
  <g id="" transform="matrix(1 0 0 1 263 1933)">
   <path d="M9.24805 0.830078C13.5547 0.830078 17.1387-2.74414 17.1387-7.05078C17.1387-11.3574 13.5449-14.9316 9.23828-14.9316C4.94141-14.9316 1.36719-11.3574 1.36719-7.05078C1.36719-2.74414 4.95117 0.830078 9.24805 0.830078ZM9.24805-0.654297C5.70312-0.654297 2.87109-3.49609 2.87109-7.05078C2.87109-10.6055 5.69336-13.4473 9.23828-13.4473C12.793-13.4473 15.6348-10.6055 15.6445-7.05078C15.6543-3.49609 12.8027-0.654297 9.24805-0.654297ZM6.39648-6.31836L8.50586-6.31836L8.50586-4.19922C8.50586-3.75977 8.79883-3.45703 9.22852-3.45703C9.67773-3.45703 9.9707-3.75977 9.9707-4.19922L9.9707-6.31836L12.0996-6.31836C12.5391-6.31836 12.8418-6.61133 12.8418-7.04102C12.8418-7.48047 12.5391-7.7832 12.0996-7.7832L9.9707-7.7832L9.9707-9.89258C9.9707-10.3418 9.67773-10.6445 9.22852-10.6445C8.79883-10.6445 8.50586-10.3418 8.50586-9.89258L8.50586-7.7832L6.39648-7.7832C5.94727-7.7832 5.64453-7.48047 5.64453-7.04102C5.64453-6.61133 5.94727-6.31836 6.39648-6.31836Z"/>
  </g>
  <g id="" transform="matrix(1 0 0 1 281.506 1933)">
   <path d="M11.709 2.91016C17.1582 2.91016 21.6699-1.61133 21.6699-7.05078C21.6699-12.5 17.1484-17.0117 11.6992-17.0117C6.25977-17.0117 1.74805-12.5 1.74805-7.05078C1.74805-1.61133 6.26953 2.91016 11.709 2.91016ZM11.709 1.25C7.09961 1.25 3.41797-2.44141 3.41797-7.05078C3.41797-11.6602 7.08984-15.3516 11.6992-15.3516C16.3086-15.3516 20-11.6602 20.0098-7.05078C20.0195-2.44141 16.3184 1.25 11.709 1.25ZM7.98828-6.23047L10.8789-6.23047L10.8789-3.32031C10.8789-2.83203 11.2109-2.5 11.6895-2.5C12.1777-2.5 12.5195-2.83203 12.5195-3.32031L12.5195-6.23047L15.4297-6.23047C15.918-6.23047 16.25-6.5625 16.25-7.04102C16.25-7.5293 15.918-7.87109 15.4297-7.87109L12.5195-7.87109L12.5195-10.7617C12.5195-11.2695 12.1777-11.6016 11.6895-11.6016C11.2109-11.6016 10.8789-11.2598 10.8789-10.7617L10.8789-7.87109L7.98828-7.87109C7.48047-7.87109 7.14844-7.5293 7.14844-7.04102C7.14844-6.5625 7.49023-6.23047 7.98828-6.23047Z"/>
  </g>
  <g id="" transform="matrix(1 0 0 1 304.924 1933)">
   <path d="M14.9707 5.66406C21.9336 5.66406 27.6953-0.0976562 27.6953-7.05078C27.6953-14.0137 21.9238-19.7754 14.9609-19.7754C8.00781-19.7754 2.25586-14.0137 2.25586-7.05078C2.25586-0.0976562 8.01758 5.66406 14.9707 5.66406ZM14.9707 3.84766C8.93555 3.84766 4.08203-1.01562 4.08203-7.05078C4.08203-13.0957 8.92578-17.9492 14.9609-17.9492C21.0059-17.9492 25.8594-13.0957 25.8691-7.05078C25.8789-1.01562 21.0156 3.84766 14.9707 3.84766ZM10.0586-6.14258L14.0625-6.14258L14.0625-2.12891C14.0625-1.5918 14.4336-1.2207 14.9512-1.2207C15.4883-1.2207 15.8594-1.5918 15.8594-2.12891L15.8594-6.14258L19.8828-6.14258C20.4102-6.14258 20.791-6.51367 20.791-7.03125C20.791-7.56836 20.4199-7.94922 19.8828-7.94922L15.8594-7.94922L15.8594-11.9531C15.8594-12.5098 15.4883-12.8809 14.9512-12.8809C14.4336-12.8809 14.0625-12.5 14.0625-11.9531L14.0625-7.94922L10.0586-7.94922C9.50195-7.94922 9.13086-7.56836 9.13086-7.03125C9.13086-6.51367 9.51172-6.14258 10.0586-6.14258Z"/>
  </g>
  <text style="stroke:none;fill:black;font-family:-apple-system,&quot;SF Pro Display&quot;,&quot;SF Pro Text&quot;,Helvetica,sans-serif;font-weight:bold;" transform="matrix(1 0 0 1 263 1953)">Design Variations</text>
  <text style="stroke:none;fill:black;font-family:-apple-system,&quot;SF Pro Display&quot;,&quot;SF Pro Text&quot;,Helvetica,sans-serif;" transform="matrix(1 0 0 1 263 1971)">Symbols are supported in up to nine weights and three scales.</text>
  <text style="stroke:none;fill:black;font-family:-apple-system,&quot;SF Pro Display&quot;,&quot;SF Pro Text&quot;,Helvetica,sans-serif;" transform="matrix(1 0 0 1 263 1989)">For optimal layout with text and other symbols, vertically align</text>
  <text style="stroke:none;fill:black;font-family:-apple-system,&quot;SF Pro Display&quot;,&quot;SF Pro Text&quot;,Helvetica,sans-serif;" transform="matrix(1 0 0 1 263 2007)">symbols with the adjacent text.</text>
  <line id="" style="fill:none;stroke:#00AEEF;stroke-width:0.5;opacity:1.0;" x1="776" x2="776" y1="1919" y2="1933"/>
  <g id="" transform="matrix(1 0 0 1 776 1933)">
   <path d="M3.31055 0.126953C3.82812 0.126953 4.08203-0.0683594 4.26758-0.605469L5.52734-4.0625L11.2891-4.0625L12.5488-0.605469C12.7344-0.0683594 12.9883 0.126953 13.4961 0.126953C14.0137 0.126953 14.3457-0.185547 14.3457-0.673828C14.3457-0.839844 14.3164-0.986328 14.2383-1.20117L9.6582-13.3887C9.43359-13.9941 9.0332-14.2871 8.4082-14.2871C7.80273-14.2871 7.39258-13.9941 7.17773-13.3984L2.59766-1.19141C2.51953-0.976562 2.49023-0.830078 2.49023-0.664062C2.49023-0.175781 2.80273 0.126953 3.31055 0.126953ZM6.00586-5.53711L8.37891-12.1094L8.42773-12.1094L10.8008-5.53711Z"/>
  </g>
  <line id="" style="fill:none;stroke:#00AEEF;stroke-width:0.5;opacity:1.0;" x1="792.836" x2="792.836" y1="1919" y2="1933"/>
  <text style="stroke:none;fill:black;font-family:-apple-system,&quot;SF Pro Display&quot;,&quot;SF Pro Text&quot;,Helvetica,sans-serif;font-weight:bold;" transform="matrix(1 0 0 1 776 1953)">Margins</text>
  <text style="stroke:none;fill:black;font-family:-apple-system,&quot;SF Pro Display&quot;,&quot;SF Pro Text&quot;,Helvetica,sans-serif;" transform="matrix(1 0 0 1 776 1971)">Leading and trailing margins on the left and right side of each symbol</text>
  <text style="stroke:none;fill:black;font-family:-apple-system,&quot;SF Pro Display&quot;,&quot;SF Pro Text&quot;,Helvetica,sans-serif;" transform="matrix(1 0 0 1 776 1989)">can be adjusted by modifying the x-location of the margin guidelines.</text>
  <text style="stroke:none;fill:black;font-family:-apple-system,&quot;SF Pro Display&quot;,&quot;SF Pro Text&quot;,Helvetica,sans-serif;" transform="matrix(1 0 0 1 776 2007)">Modifications are automatically applied proportionally to all</text>
  <text style="stroke:none;fill:black;font-family:-apple-system,&quot;SF Pro Display&quot;,&quot;SF Pro Text&quot;,Helvetica,sans-serif;" transform="matrix(1 0 0 1 776 2025)">scales and weights.</text>
  <g id="" transform="matrix(1 0 0 1 1289 1933)">
   <path d="M2.8418 1.86523L4.54102 3.57422C5.40039 4.44336 6.38672 4.38477 7.31445 3.35938L17.4902-7.85156C17.7539-7.76367 18.0273-7.7832 18.3398-7.8418L19.4043-8.03711L20.0684-7.36328L20.0293-6.80664C19.9902-6.30859 20.1172-5.92773 20.6055-5.44922L21.3672-4.70703C21.8457-4.22852 22.4609-4.19922 22.9297-4.66797L25.8398-7.58789C26.3086-8.05664 26.2891-8.65234 25.8105-9.13086L25.0391-9.89258C24.5605-10.3711 24.1895-10.5273 23.7109-10.4883L23.1348-10.4395L22.4902-11.0742L22.7344-12.1973C22.8613-12.7637 22.7051-13.2031 22.1191-13.7891L19.9219-15.9766C16.582-19.2969 12.1484-19.2188 9.25781-16.3281C8.83789-15.918 8.80859-15.3418 9.04297-14.9512C9.27734-14.5898 9.73633-14.3555 10.3809-14.5215C11.8457-14.8633 13.3691-14.9219 14.7949-13.9844L14.209-12.5293C14.0137-12.0508 13.9844-11.6504 14.1113-11.2891L3.04688-0.898438C2.06055 0.0195312 1.98242 0.996094 2.8418 1.86523ZM10.752-15.957C13.1836-17.7344 16.4746-17.4316 18.7012-15.2051L21.1328-12.793C21.3672-12.5586 21.4062-12.373 21.3379-12.0312L21.0156-10.5469L22.5195-9.0625L23.5059-9.12109C23.7598-9.13086 23.8379-9.11133 24.0332-8.91602L24.6094-8.33984L22.168-5.89844L21.5918-6.47461C21.3965-6.66992 21.3672-6.74805 21.377-7.01172L21.4453-7.98828L19.9512-9.47266L18.4277-9.21875C18.1055-9.15039 17.959-9.17969 17.7148-9.41406L15.7129-11.416C15.459-11.6504 15.4297-11.8164 15.5859-12.1875L16.4648-14.2773C14.9023-15.7324 12.8711-16.3574 10.8398-15.7617C10.6836-15.7227 10.625-15.8496 10.752-15.957ZM5.27344 2.30469L4.10156 1.14258C3.63281 0.683594 3.74023 0.341797 4.14062-0.0195312L14.9512-10.1953L16.416-8.71094L6.42578 2.27539C6.07422 2.67578 5.74219 2.77344 5.27344 2.30469Z"/>
  </g>
  <text style="stroke:none;fill:black;font-family:-apple-system,&quot;SF Pro Display&quot;,&quot;SF Pro Text&quot;,Helvetica,sans-serif;font-weight:bold;" transform="matrix(1 0 0 1 1289 1953)">Exporting</text>
  <text style="stroke:none;fill:black;font-family:-apple-system,&quot;SF Pro Display&quot;,&quot;SF Pro Text&quot;,Helvetica,sans-serif;" transform="matrix(1 0 0 1 1289 1971)">Symbols should be outlined when exporting to ensure the</text>
  <text style="stroke:none;fill:black;font-family:-apple-system,&quot;SF Pro Display&quot;,&quot;SF Pro Text&quot;,Helvetica,sans-serif;" transform="matrix(1 0 0 1 1289 1989)">design is preserved when submitting to Xcode.</text>
  <text id="template-version" style="stroke:none;fill:black;font-family:-apple-system,&quot;SF Pro Display&quot;,&quot;SF Pro Text&quot;,Helvetica,sans-serif;text-anchor:end;" transform="matrix(1 0 0 1 3036 1933)">Template v.2.0</text>
  <text style="stroke:none;fill:black;font-family:-apple-system,&quot;SF Pro Display&quot;,&quot;SF Pro Text&quot;,Helvetica,sans-serif;text-anchor:end;" transform="matrix(1 0 0 1 3036 1951)">Requires Xcode 12 or greater</text>
  <text style="stroke:none;fill:black;font-family:-apple-system,&quot;SF Pro Display&quot;,&quot;SF Pro Text&quot;,Helvetica,sans-serif;text-anchor:end;" transform="matrix(1 0 0 1 3036 1969)">Generated from wallet.pass</text>
  <text style="stroke:none;fill:black;font-family:-apple-system,&quot;SF Pro Display&quot;,&quot;SF Pro Text&quot;,Helvetica,sans-serif;text-anchor:end;" transform="matrix(1 0 0 1 3036 1987)">Typeset at 100 points</text>
  <text style="stroke:none;fill:black;font-family:-apple-system,&quot;SF Pro Display&quot;,&quot;SF Pro Text&quot;,Helvetica,sans-serif;" transform="matrix(1 0 0 1 263 726)">Small</text>
  <text style="stroke:none;fill:black;font-family:-apple-system,&quot;SF Pro Display&quot;,&quot;SF Pro Text&quot;,Helvetica,sans-serif;" transform="matrix(1 0 0 1 263 1156)">Medium</text>
  <text style="stroke:none;fill:black;font-family:-apple-system,&quot;SF Pro Display&quot;,&quot;SF Pro Text&quot;,Helvetica,sans-serif;" transform="matrix(1 0 0 1 263 1586)">Large</text>
 </g>
 <g id="Guides">
  <g id="H-reference" style="fill:#27AAE1;stroke:none;" transform="matrix(1 0 0 1 339 696)">
   <path d="M0.976562 0L3.66211 0L12.9883-24.4629L45.752-24.4629L55.127 0L57.7637 0L30.6152-70.459L28.125-70.459ZM29.3457-67.1387L29.4434-67.1387L44.873-26.709L13.8672-26.709Z"/>
  </g>
  <line id="Baseline-S" style="fill:none;stroke:#27AAE1;opacity:1;stroke-width:0.5;" x1="263" x2="3036" y1="696" y2="696"/>
  <line id="Capline-S" style="fill:none;stroke:#27AAE1;opacity:1;stroke-width:0.5;" x1="263" x2="3036" y1="625.541" y2="625.541"/>
  <g id="H-reference" style="fill:#27AAE1;stroke:none;" transform="matrix(1 0 0 1 339 1126)">
   <path d="M0.976562 0L3.66211 0L12.9883-24.4629L45.752-24.4629L55.127 0L57.7637 0L30.6152-70.459L28.125-70.459ZM29.3457-67.1387L29.4434-67.1387L44.873-26.709L13.8672-26.709Z"/>
  </g>
  <line id="Baseline-M" style="fill:none;stroke:#27AAE1;opacity:1;stroke-width:0.5;" x1="263" x2="3036" y1="1126" y2="1126"/>
  <line id="Capline-M" style="fill:none;stroke:#27AAE1;opacity:1;stroke-width:0.5;" x1="263" x2="3036" y1="1055.54" y2="1055.54"/>
  <g id="H-reference" style="fill:#27AAE1;stroke:none;" transform="matrix(1 0 0 1 339 1556)">
   <path d="M0.976562 0L3.66211 0L12.9883-24.4629L45.752-24.4629L55.127 0L57.7637 0L30.6152-70.459L28.125-70.459ZM29.3457-67.1387L29.4434-67.1387L44.873-26.709L13.8672-26.709Z"/>
  </g>
  <line id="Baseline-L" style="fill:none;stroke:#27AAE1;opacity:1;stroke-width:0.5;" x1="263" x2="3036" y1="1556" y2="1556"/>
  <line id="Capline-L" style="fill:none;stroke:#27AAE1;opacity:1;stroke-width:0.5;" x1="263" x2="3036" y1="1485.54" y2="1485.54"/>
  <line id="left-margin" style="fill:none;stroke:#00AEEF;stroke-width:0.5;opacity:1.0;" x1="1396.33" x2="1396.33" y1="1030.79" y2="1150.12"/>
  <line id="right-margin" style="fill:none;stroke:#00AEEF;stroke-width:0.5;opacity:1.0;" x1="1503.36" x2="1503.36" y1="1030.79" y2="1150.12"/>
 </g>
 <g id="Symbols">
  <g id="Black-L" transform="matrix(1 0 0 1 2859.65 1556)">
   <path d="M39.8926 35.2539L107.617 35.2539C122.803 35.2539 131.445 26.5625 131.445 11.3281L131.445-81.8359C131.445-97.0703 122.803-105.664 107.617-105.664L88.3789-105.664C85.3516-105.664 83.7402-104.297 83.7402-101.807C83.7402-96.7773 80.1758-91.748 73.7793-91.748C67.334-91.748 63.7207-96.7773 63.7207-101.807C63.7207-104.297 62.1582-105.664 59.1309-105.664L39.8926-105.664C24.707-105.664 16.0645-97.0703 16.0645-81.8359L16.0645 11.3281C16.0645 26.5625 24.707 35.2539 39.8926 35.2539ZM42.7246 14.9902C38.1836 14.9902 36.3281 12.8418 36.3281 8.59375L36.3281-79.1016C36.3281-83.3008 38.1836-85.498 42.7246-85.498L52.7344-85.498C56.3477-77.6855 64.0137-73.1445 73.7793-73.1445C83.4961-73.1445 91.1621-77.6855 94.7754-85.498L104.785-85.498C109.326-85.498 111.23-83.3008 111.23-79.1016L111.23 8.59375C111.23 12.8418 109.326 14.9902 104.785 14.9902ZM53.6133-52.2949L93.8477-52.2949C96.4355-52.2949 98.3398-54.2969 98.3398-56.8848C98.3398-59.375 96.4355-61.2793 93.8477-61.2793L53.6133-61.2793C50.9766-61.2793 49.0723-59.375 49.0723-56.8848C49.0723-54.2969 50.9766-52.2949 53.6133-52.2949ZM53.6133-32.2754L74.6094-32.2754C77.1973-32.2754 79.1504-34.2285 79.1504-36.7188C79.1504-39.3066 77.1973-41.3086 74.6094-41.3086L53.6133-41.3086C50.9766-41.3086 49.0723-39.3066 49.0723-36.7188C49.0723-34.2285 50.9766-32.2754 53.6133-32.2754Z"/>
  </g>
  <g id="Heavy-L" transform="matrix(1 0 0 1 2564.18 1556)">
   <path d="M38.7207 34.4727L106.348 34.4727C120.85 34.4727 128.955 26.3672 128.955 11.7188L128.955-82.2266C128.955-96.8262 120.898-104.932 106.348-104.932L87.207-104.932C84.4238-104.932 82.959-103.564 82.959-101.221C82.959-95.752 79.1016-90.7715 72.5098-90.7715C65.918-90.7715 62.0605-95.752 62.0605-101.221C62.0605-103.564 60.5469-104.932 57.8125-104.932L38.7207-104.932C24.1211-104.932 16.0645-96.8262 16.0645-82.2266L16.0645 11.7188C16.0645 26.3672 24.1699 34.4727 38.7207 34.4727ZM41.0156 16.9922C35.8887 16.9922 33.5938 14.4043 33.5938 9.61914L33.5938-80.0781C33.5938-84.9121 35.8887-87.4512 41.0156-87.4512L51.709-87.4512C55.0293-79.3457 62.6953-74.5605 72.5098-74.5605C82.3242-74.5605 89.9902-79.3457 93.3105-87.4512L104.053-87.4512C109.18-87.4512 111.475-84.9121 111.475-80.0781L111.475 9.61914C111.475 14.4043 109.18 16.9922 104.053 16.9922ZM51.3672-53.3691L93.6523-53.3691C96.0449-53.3691 97.9004-55.2734 97.9004-57.7148C97.9004-60.0586 96.0449-61.8652 93.6523-61.8652L51.3672-61.8652C48.877-61.8652 47.0703-60.0586 47.0703-57.7148C47.0703-55.2734 48.877-53.3691 51.3672-53.3691ZM51.3672-32.7148L72.9492-32.7148C75.3418-32.7148 77.1973-34.5703 77.1973-36.9141C77.1973-39.3066 75.3418-41.2109 72.9492-41.2109L51.3672-41.2109C48.877-41.2109 47.0703-39.3066 47.0703-36.9141C47.0703-34.5703 48.877-32.7148 51.3672-32.7148Z"/>
  </g>
  <g id="Bold-L" transform="matrix(1 0 0 1 2268.86 1556)">
   <path d="M37.4023 33.6426L104.883 33.6426C118.652 33.6426 126.172 26.123 126.172 12.207L126.172-82.666C126.172-96.582 118.701-104.053 104.883-104.053L85.8887-104.053C83.4473-104.053 82.0801-102.734 82.0801-100.537C82.0801-94.6289 77.8809-89.6484 71.1426-89.6484C64.3555-89.6484 60.1562-94.6289 60.1562-100.537C60.1562-102.734 58.7402-104.053 56.3477-104.053L37.4023-104.053C23.5352-104.053 16.0645-96.582 16.0645-82.666L16.0645 12.207C16.0645 26.123 23.584 33.6426 37.4023 33.6426ZM39.0625 19.1895C33.252 19.1895 30.5176 16.2109 30.5176 10.7422L30.5176-81.2012C30.5176-86.7188 33.252-89.6484 39.0625-89.6484L50.6836-89.6484C53.5645-81.25 61.1816-76.1719 71.1426-76.1719C81.0547-76.1719 88.6719-81.25 91.5527-89.6484L103.223-89.6484C108.984-89.6484 111.719-86.7188 111.719-81.2012L111.719 10.7422C111.719 16.2109 108.984 19.1895 103.223 19.1895ZM48.877-54.5898L93.4082-54.5898C95.6543-54.5898 97.3633-56.3477 97.3633-58.5938C97.3633-60.8398 95.6543-62.5 93.4082-62.5L48.877-62.5C46.5332-62.5 44.8242-60.8398 44.8242-58.5938C44.8242-56.3477 46.5332-54.5898 48.877-54.5898ZM48.877-33.2031L71.0449-33.2031C73.3398-33.2031 75-34.9121 75-37.1094C75-39.3555 73.3398-41.1133 71.0449-41.1133L48.877-41.1133C46.5332-41.1133 44.8242-39.3555 44.8242-37.1094C44.8242-34.9121 46.5332-33.2031 48.877-33.2031Z"/>
  </g>
  <g id="Semibold-L" transform="matrix(1 0 0 1 1973.1 1556)">
   <path d="M36.4746 33.0566L103.857 33.0566C117.139 33.0566 124.268 25.9277 124.268 12.5L124.268-82.959C124.268-96.4355 117.188-103.516 103.857-103.516L84.9609-103.516C82.7637-103.516 81.4453-102.197 81.4453-100.098C81.4453-93.8477 77.002-88.916 70.166-88.916C63.2812-88.916 58.8379-93.8477 58.8379-100.098C58.8379-102.197 57.5195-103.516 55.3223-103.516L36.4746-103.516C23.0957-103.516 16.0645-96.4355 16.0645-82.959L16.0645 12.5C16.0645 25.9277 23.1445 33.0566 36.4746 33.0566ZM37.6953 20.752C31.4453 20.752 28.418 17.4316 28.418 11.5234L28.418-81.9824C28.418-87.9395 31.4453-91.1621 37.6953-91.1621L49.9512-91.1621C52.5879-82.5195 60.1562-77.2461 70.166-77.2461C80.127-77.2461 87.6953-82.5195 90.332-91.1621L102.637-91.1621C108.838-91.1621 111.914-87.9395 111.914-81.9824L111.914 11.5234C111.914 17.4316 108.838 20.752 102.637 20.752ZM47.1191-55.4199L93.2617-55.4199C95.3613-55.4199 96.9727-57.0801 96.9727-59.2285C96.9727-61.3281 95.3613-62.9395 93.2617-62.9395L47.1191-62.9395C44.9219-62.9395 43.3105-61.3281 43.3105-59.2285C43.3105-57.0801 44.9219-55.4199 47.1191-55.4199ZM47.1191-33.5449L69.7754-33.5449C71.9238-33.5449 73.5352-35.1562 73.5352-37.2559C73.5352-39.3555 71.9238-41.0645 69.7754-41.0645L47.1191-41.0645C44.9219-41.0645 43.3105-39.3555 43.3105-37.2559C43.3105-35.1562 44.9219-33.5449 47.1191-33.5449Z"/>
  </g>
  <g id="Medium-L" transform="matrix(1 0 0 1 1677.12 1556)">
   <path d="M35.791 32.666L103.076 32.666C116.016 32.666 122.803 25.8301 122.803 12.7441L122.803-83.2031C122.803-96.2891 116.064-103.076 103.076-103.076L84.2773-103.076C82.2266-103.076 80.957-101.758 80.957-99.7559C80.957-93.2617 76.3672-88.3301 69.4336-88.3301C62.5-88.3301 57.8613-93.2617 57.8613-99.7559C57.8613-101.758 56.5918-103.076 54.541-103.076L35.791-103.076C22.8027-103.076 16.0645-96.2891 16.0645-83.2031L16.0645 12.7441C16.0645 25.8301 22.8516 32.666 35.791 32.666ZM36.6699 21.9238C30.127 21.9238 26.8066 18.3594 26.8066 12.1094L26.8066-82.5684C26.8066-88.916 30.127-92.334 36.6699-92.334L49.4629-92.334C51.8555-83.5449 59.4238-78.0762 69.4336-78.0762C79.4434-78.0762 86.9629-83.5449 89.4043-92.334L102.197-92.334C108.74-92.334 112.061-88.916 112.061-82.5684L112.061 12.1094C112.061 18.3594 108.74 21.9238 102.197 21.9238ZM45.8008-56.0547L93.1152-56.0547C95.166-56.0547 96.7285-57.666 96.7285-59.7168C96.7285-61.7676 95.166-63.2812 93.1152-63.2812L45.8008-63.2812C43.7012-63.2812 42.1387-61.7676 42.1387-59.7168C42.1387-57.666 43.7012-56.0547 45.8008-56.0547ZM45.8008-33.8379L68.75-33.8379C70.8496-33.8379 72.3633-35.3516 72.3633-37.3535C72.3633-39.4043 70.8496-41.0156 68.75-41.0156L45.8008-41.0156C43.7012-41.0156 42.1387-39.4043 42.1387-37.3535C42.1387-35.3516 43.7012-33.8379 45.8008-33.8379Z"/>
  </g>
  <g id="Regular-L" transform="matrix(1 0 0 1 1381.36 1556)">
   <path d="M34.8633 32.0801L102.1 32.0801C114.502 32.0801 120.898 25.6348 120.898 13.0859L120.898-83.4961C120.898-96.1426 114.6-102.49 102.1-102.49L83.3984-102.49C81.543-102.49 80.3711-101.221 80.3711-99.2676C80.3711-92.4805 75.5371-87.5488 68.5059-87.5488C61.4258-87.5488 56.543-92.4805 56.543-99.2676C56.543-101.221 55.3711-102.49 53.5156-102.49L34.8633-102.49C22.3633-102.49 16.0645-96.1426 16.0645-83.4961L16.0645 13.0859C16.0645 25.6348 22.4609 32.0801 34.8633 32.0801ZM35.3516 23.4375C28.3203 23.4375 24.707 19.5801 24.707 12.8906L24.707-83.3008C24.707-90.1367 28.3203-93.8477 35.3516-93.8477L48.8281-93.8477C50.9277-84.8633 58.3984-79.1504 68.5059-79.1504C78.5645-79.1504 86.0352-84.8633 88.1348-93.8477L101.611-93.8477C108.643-93.8477 112.256-90.1367 112.256-83.3008L112.256 12.8906C112.256 19.5801 108.643 23.4375 101.611 23.4375ZM44.0918-56.8848L92.9688-56.8848C94.873-56.8848 96.3379-58.3984 96.3379-60.3516C96.3379-62.2559 94.873-63.7207 92.9688-63.7207L44.0918-63.7207C42.0898-63.7207 40.625-62.2559 40.625-60.3516C40.625-58.3984 42.0898-56.8848 44.0918-56.8848ZM44.0918-34.1309L67.4805-34.1309C69.4336-34.1309 70.8984-35.5957 70.8984-37.5C70.8984-39.4043 69.4336-40.918 67.4805-40.918L44.0918-40.918C42.0898-40.918 40.625-39.4043 40.625-37.5C40.625-35.5957 42.0898-34.1309 44.0918-34.1309Z"/>
  </g>
  <g id="Light-L" transform="matrix(1 0 0 1 1085.43 1556)">
   <path d="M33.9355 31.7871L101.514 31.7871C113.184 31.7871 119.336 25.6348 119.336 13.7695L119.336-84.1309C119.336-95.9961 113.281-102.1 101.514-102.1L82.8125-102.1C81.4453-102.1 80.5176-101.123 80.5176-99.6582C80.5176-92.4805 75.293-87.1094 67.7246-87.1094C60.1074-87.1094 54.834-92.4805 54.834-99.6582C54.834-101.123 53.9551-102.1 52.5879-102.1L33.9355-102.1C22.1191-102.1 16.0645-95.9961 16.0645-84.1309L16.0645 13.7695C16.0645 25.6348 22.2168 31.7871 33.9355 31.7871ZM34.2773 25.1465C26.6113 25.1465 22.7051 20.9473 22.7051 13.623L22.7051-83.9844C22.7051-91.4551 26.6113-95.5078 34.2773-95.5078L48.8281-95.5078C50.5371-86.4746 57.8613-80.6641 67.7246-80.6641C77.5879-80.6641 84.8633-86.4746 86.6211-95.5078L101.172-95.5078C108.789-95.5078 112.744-91.4551 112.744-83.9844L112.744 13.623C112.744 20.9473 108.789 25.1465 101.172 25.1465ZM42.5781-58.3008L92.9199-58.3008C94.4824-58.3008 95.6543-59.4727 95.6543-61.0352C95.6543-62.6465 94.4824-63.7695 92.9199-63.7695L42.5781-63.7695C40.9668-63.7695 39.7461-62.6465 39.7461-61.0352C39.7461-59.4727 40.9668-58.3008 42.5781-58.3008ZM42.5781-35.0098L67.041-35.0098C68.6035-35.0098 69.7754-36.2305 69.7754-37.6953C69.7754-39.2578 68.6035-40.4785 67.041-40.4785L42.5781-40.4785C40.9668-40.4785 39.7461-39.2578 39.7461-37.6953C39.7461-36.2305 40.9668-35.0098 42.5781-35.0098Z"/>
  </g>
  <g id="Thin-L" transform="matrix(1 0 0 1 789.747 1556)">
   <path d="M32.666 31.3477L100.732 31.3477C111.426 31.3477 117.285 25.6348 117.285 14.7461L117.285-84.9609C117.285-95.8496 111.572-101.611 100.732-101.611L82.0312-101.611C81.25-101.611 80.7617-101.025 80.7617-100.195C80.7617-92.5293 74.9512-86.5723 66.6992-86.5723C58.3984-86.5723 52.5879-92.5293 52.5879-100.195C52.5879-101.025 52.0996-101.611 51.3184-101.611L32.666-101.611C21.7773-101.611 16.0645-95.8496 16.0645-84.9609L16.0645 14.7461C16.0645 25.6348 21.9238 31.3477 32.666 31.3477ZM32.8613 27.4414C24.3652 27.4414 19.9707 22.7051 19.9707 14.5996L19.9707-84.8145C19.9707-93.2617 24.3652-97.6562 32.8613-97.6562L48.877-97.6562C50-88.623 57.0801-82.666 66.6992-82.666C76.2695-82.666 83.3496-88.623 84.4727-97.6562L100.537-97.6562C108.984-97.6562 113.379-93.2617 113.379-84.8145L113.379 14.5996C113.379 22.7051 108.984 27.4414 100.537 27.4414ZM40.5762-60.1074L92.8711-60.1074C93.8965-60.1074 94.7266-60.8887 94.7266-61.9629C94.7266-63.1348 93.8965-63.8672 92.8711-63.8672L40.5762-63.8672C39.4531-63.8672 38.623-63.1348 38.623-61.9629C38.623-60.8887 39.4531-60.1074 40.5762-60.1074ZM40.5762-36.1816L66.4062-36.1816C67.4805-36.1816 68.3105-37.0117 68.3105-37.9883C68.3105-39.0137 67.4805-39.8438 66.4062-39.8438L40.5762-39.8438C39.4531-39.8438 38.623-39.0137 38.623-37.9883C38.623-37.0117 39.4531-36.1816 40.5762-36.1816Z"/>
  </g>
  <g id="Ultralight-L" transform="matrix(1 0 0 1 493.549 1556)">
   <path d="M31.9824 31.1523L100.293 31.1523C110.547 31.1523 116.26 25.5859 116.26 15.2344L116.26-85.4004C116.26-95.8008 110.693-101.318 100.293-101.318L81.6406-101.318C81.1523-101.318 80.8594-100.928 80.8594-100.439C80.8594-92.5293 74.7559-86.2793 66.1621-86.2793C57.5195-86.2793 51.4648-92.5293 51.4648-100.439C51.4648-100.928 51.1719-101.318 50.6348-101.318L31.9824-101.318C21.6309-101.318 16.0645-95.8008 16.0645-85.4004L16.0645 15.2344C16.0645 25.5859 21.7773 31.1523 31.9824 31.1523ZM32.1289 28.5645C23.2422 28.5645 18.6035 23.6328 18.6035 15.0879L18.6035-85.2539C18.6035-94.1895 23.2422-98.7793 32.1289-98.7793L48.9258-98.7793C49.7559-89.6973 56.7383-83.6914 66.1621-83.6914C75.5859-83.6914 82.5195-89.6973 83.3984-98.7793L100.195-98.7793C109.082-98.7793 113.672-94.1895 113.672-85.2539L113.672 15.0879C113.672 23.6328 109.082 28.5645 100.195 28.5645ZM39.5508-61.0352L92.8711-61.0352C93.6035-61.0352 94.2383-61.5723 94.2383-62.4512C94.2383-63.3789 93.6035-63.916 92.8711-63.916L39.5508-63.916C38.6719-63.916 38.0859-63.3789 38.0859-62.4512C38.0859-61.5723 38.6719-61.0352 39.5508-61.0352ZM39.5508-36.7676L66.1133-36.7676C66.9434-36.7676 67.5781-37.4023 67.5781-38.1348C67.5781-38.916 66.9434-39.5508 66.1133-39.5508L39.5508-39.5508C38.6719-39.5508 38.0859-38.916 38.0859-38.1348C38.0859-37.4023 38.6719-36.7676 39.5508-36.7676Z"/>
  </g>
  <g id="Black-M" transform="matrix(1 0 0 1 2874.98 1126)">
   <path d="M31.9824 20.2148L84.8633 20.2148C97.1191 20.2148 104.395 12.9395 104.395 0.683594L104.395-71.1426C104.395-83.3984 97.1191-90.625 84.8633-90.625L69.7754-90.625C67.2852-90.625 66.0645-89.6973 66.0645-87.8418C66.0645-84.2773 63.4766-80.1758 58.4473-80.1758C53.3691-80.1758 50.7812-84.2773 50.7812-87.8418C50.7812-89.6973 49.6094-90.625 47.0703-90.625L31.9824-90.625C19.7266-90.625 12.4512-83.3984 12.4512-71.1426L12.4512 0.683594C12.4512 12.9395 19.7266 20.2148 31.9824 20.2148ZM34.9121 1.9043C31.8359 1.9043 30.7617 0.585938 30.7617-2.24609L30.7617-68.2129C30.7617-71.0449 31.8359-72.3633 34.9121-72.3633L42.1875-72.3633C45.2148-66.748 51.123-63.5254 58.4473-63.5254C65.7227-63.5254 71.6309-66.748 74.6582-72.3633L81.9336-72.3633C85.0098-72.3633 86.1328-71.0449 86.1328-68.2129L86.1328-2.24609C86.1328 0.585938 85.0098 1.9043 81.9336 1.9043ZM43.7988-47.7051L72.998-47.7051C75-47.7051 76.4648-49.2676 76.4648-51.2695C76.4648-53.2227 75-54.6875 72.998-54.6875L43.7988-54.6875C41.748-54.6875 40.2344-53.2227 40.2344-51.2695C40.2344-49.2676 41.748-47.7051 43.7988-47.7051ZM43.7988-32.8125L59.8633-32.8125C61.8652-32.8125 63.3301-34.3262 63.3301-36.2305C63.3301-38.2324 61.8652-39.7949 59.8633-39.7949L43.7988-39.7949C41.748-39.7949 40.2344-38.2324 40.2344-36.2305C40.2344-34.3262 41.748-32.8125 43.7988-32.8125Z"/>
  </g>
  <g id="Heavy-M" transform="matrix(1 0 0 1 2579.41 1126)">
   <path d="M30.957 19.4824L83.5938 19.4824C95.3125 19.4824 102.1 12.6953 102.1 0.927734L102.1-71.3867C102.1-83.2031 95.3125-89.8926 83.5938-89.8926L68.6523-89.8926C66.3086-89.8926 65.1855-88.916 65.1855-87.0605C65.1855-83.2031 62.3535-79.1992 57.2754-79.1992C52.1973-79.1992 49.3652-83.2031 49.3652-87.0605C49.3652-88.916 48.1934-89.8926 45.8984-89.8926L30.957-89.8926C19.1895-89.8926 12.4512-83.2031 12.4512-71.3867L12.4512 0.927734C12.4512 12.6953 19.1895 19.4824 30.957 19.4824ZM33.3008 3.66211C29.7363 3.66211 28.2715 1.95312 28.2715-1.31836L28.2715-69.1406C28.2715-72.4609 29.7363-74.1211 33.3008-74.1211L41.1133-74.1211C43.8477-68.1152 49.8047-64.6973 57.2754-64.6973C64.7461-64.6973 70.6543-68.1152 73.4375-74.1211L81.25-74.1211C84.8145-74.1211 86.2793-72.4609 86.2793-69.1406L86.2793-1.31836C86.2793 1.95312 84.8145 3.66211 81.25 3.66211ZM41.748-48.5352L72.7539-48.5352C74.707-48.5352 76.123-50.0488 76.123-52.002C76.123-53.8574 74.707-55.3223 72.7539-55.3223L41.748-55.3223C39.7461-55.3223 38.2812-53.8574 38.2812-52.002C38.2812-50.0488 39.7461-48.5352 41.748-48.5352ZM41.748-33.0566L58.1543-33.0566C60.0586-33.0566 61.5234-34.5215 61.5234-36.377C61.5234-38.3301 60.0586-39.8438 58.1543-39.8438L41.748-39.8438C39.7461-39.8438 38.2812-38.3301 38.2812-36.377C38.2812-34.5215 39.7461-33.0566 41.748-33.0566Z"/>
  </g>
  <g id="Bold-M" transform="matrix(1 0 0 1 2284 1126)">
   <path d="M29.7852 18.6523L82.1777 18.6523C93.3105 18.6523 99.5117 12.4512 99.5117 1.2207L99.5117-71.6797C99.5117-82.959 93.3105-89.1113 82.1777-89.1113L67.334-89.1113C65.2832-89.1113 64.1113-88.0371 64.1113-86.2305C64.1113-81.9336 61.084-78.0762 55.957-78.0762C50.8789-78.0762 47.8027-81.9336 47.8027-86.2305C47.8027-88.0371 46.6309-89.1113 44.5801-89.1113L29.7852-89.1113C18.6035-89.1113 12.4512-82.959 12.4512-71.6797L12.4512 1.2207C12.4512 12.4512 18.6035 18.6523 29.7852 18.6523ZM31.4453 5.56641C27.3926 5.56641 25.5371 3.51562 25.5371-0.292969L25.5371-70.166C25.5371-74.0234 27.3926-76.0742 31.4453-76.0742L39.8926-76.0742C42.3828-69.7266 48.3398-65.9668 55.957-65.9668C63.623-65.9668 69.5312-69.7266 72.0215-76.0742L80.4688-76.0742C84.5703-76.0742 86.4258-74.0234 86.4258-70.166L86.4258-0.292969C86.4258 3.51562 84.5703 5.56641 80.4688 5.56641ZM39.4043-49.4629L72.5098-49.4629C74.3652-49.4629 75.7812-50.9277 75.7812-52.7832C75.7812-54.5898 74.3652-55.957 72.5098-55.957L39.4043-55.957C37.5-55.957 36.084-54.5898 36.084-52.7832C36.084-50.9277 37.5-49.4629 39.4043-49.4629ZM39.4043-33.3496L56.2012-33.3496C58.0566-33.3496 59.4727-34.7656 59.4727-36.5723C59.4727-38.4277 58.0566-39.8438 56.2012-39.8438L39.4043-39.8438C37.5-39.8438 36.084-38.4277 36.084-36.5723C36.084-34.7656 37.5-33.3496 39.4043-33.3496Z"/>
  </g>
  <g id="Semibold-M" transform="matrix(1 0 0 1 1988.19 1126)">
   <path d="M29.0039 18.1152L81.1523 18.1152C91.9434 18.1152 97.7051 12.2559 97.7051 1.41602L97.7051-71.9238C97.7051-82.7637 91.9434-88.5254 81.1523-88.5254L66.4551-88.5254C64.5508-88.5254 63.4277-87.4512 63.4277-85.6445C63.4277-81.1035 60.2051-77.3438 55.0781-77.3438C49.9512-77.3438 46.6797-81.1035 46.6797-85.6445C46.6797-87.4512 45.5566-88.5254 43.6523-88.5254L29.0039-88.5254C18.2129-88.5254 12.4512-82.7637 12.4512-71.9238L12.4512 1.41602C12.4512 12.2559 18.2129 18.1152 29.0039 18.1152ZM30.1758 6.93359C25.7324 6.93359 23.6328 4.58984 23.6328 0.439453L23.6328-70.8984C23.6328-75.0977 25.7324-77.3926 30.1758-77.3926L39.1113-77.3926C41.4062-70.8008 47.3145-66.8457 55.0781-66.8457C62.8418-66.8457 68.75-70.8008 71.0449-77.3926L79.9805-77.3926C84.375-77.3926 86.5234-75.0977 86.5234-70.8984L86.5234 0.439453C86.5234 4.58984 84.375 6.93359 79.9805 6.93359ZM37.793-50.0977L72.3633-50.0977C74.1699-50.0977 75.5371-51.5137 75.5371-53.3203C75.5371-55.0781 74.1699-56.4453 72.3633-56.4453L37.793-56.4453C35.9375-56.4453 34.5703-55.0781 34.5703-53.3203C34.5703-51.5137 35.9375-50.0977 37.793-50.0977ZM37.793-33.5449L54.8828-33.5449C56.6895-33.5449 58.0566-34.9121 58.0566-36.6699C58.0566-38.4766 56.6895-39.8926 54.8828-39.8926L37.793-39.8926C35.9375-39.8926 34.5703-38.4766 34.5703-36.6699C34.5703-34.9121 35.9375-33.5449 37.793-33.5449Z"/>
  </g>
  <g id="Medium-M" transform="matrix(1 0 0 1 1692.16 1126)">
   <path d="M28.3691 17.6758L80.4199 17.6758C90.8691 17.6758 96.3379 12.1582 96.3379 1.61133L96.3379-72.0703C96.3379-82.666 90.918-88.1348 80.4199-88.1348L65.8203-88.1348C64.0137-88.1348 62.8906-87.0117 62.8906-85.2051C62.8906-80.4199 59.5703-76.7578 54.3945-76.7578C49.2676-76.7578 45.8984-80.4199 45.8984-85.2051C45.8984-87.0117 44.7754-88.1348 42.9688-88.1348L28.3691-88.1348C17.9199-88.1348 12.4512-82.666 12.4512-72.0703L12.4512 1.61133C12.4512 12.1582 17.9199 17.6758 28.3691 17.6758ZM29.248 7.91016C24.5117 7.91016 22.168 5.41992 22.168 0.976562L22.168-71.4355C22.168-75.9277 24.5117-78.418 29.248-78.418L38.5742-78.418C40.6738-71.6797 46.582-67.5293 54.3945-67.5293C62.207-67.5293 68.1152-71.6797 70.2148-78.418L79.541-78.418C84.2773-78.418 86.6211-75.9277 86.6211-71.4355L86.6211 0.976562C86.6211 5.41992 84.2773 7.91016 79.541 7.91016ZM36.6211-50.5859L72.2168-50.5859C73.9746-50.5859 75.3418-51.9531 75.3418-53.7598C75.3418-55.4688 73.9746-56.7871 72.2168-56.7871L36.6211-56.7871C34.7656-56.7871 33.4473-55.4688 33.4473-53.7598C33.4473-51.9531 34.7656-50.5859 36.6211-50.5859ZM36.6211-33.6914L53.8574-33.6914C55.6641-33.6914 56.9824-35.0586 56.9824-36.7676C56.9824-38.5254 55.6641-39.8926 53.8574-39.8926L36.6211-39.8926C34.7656-39.8926 33.4473-38.5254 33.4473-36.7676C33.4473-35.0586 34.7656-33.6914 36.6211-33.6914Z"/>
  </g>
  <g id="Regular-M" transform="matrix(1 0 0 1 1396.33 1126)">
   <path d="M27.5879 17.0898L79.4434 17.0898C89.502 17.0898 94.5801 11.9629 94.5801 1.80664L94.5801-72.2656C94.5801-82.4707 89.5508-87.5977 79.4434-87.5977L64.9414-87.5977C63.2812-87.5977 62.207-86.4258 62.207-84.668C62.207-79.5898 58.6914-76.0254 53.5156-76.0254C48.3398-76.0254 44.7754-79.5898 44.7754-84.668C44.7754-86.4258 43.7012-87.5977 42.041-87.5977L27.5879-87.5977C17.4805-87.5977 12.4512-82.4707 12.4512-72.2656L12.4512 1.80664C12.4512 11.9629 17.5293 17.0898 27.5879 17.0898ZM27.9785 9.22852C22.9004 9.22852 20.3125 6.49414 20.3125 1.66016L20.3125-72.1191C20.3125-77.002 22.9004-79.7363 27.9785-79.7363L37.8418-79.7363C39.6973-72.7539 45.6055-68.4082 53.5156-68.4082C61.4258-68.4082 67.334-72.7539 69.1895-79.7363L79.0527-79.7363C84.1309-79.7363 86.7188-77.002 86.7188-72.1191L86.7188 1.66016C86.7188 6.49414 84.1309 9.22852 79.0527 9.22852ZM35.0098-51.2207L72.0703-51.2207C73.7793-51.2207 75.0488-52.5391 75.0488-54.2969C75.0488-55.957 73.7793-57.2754 72.0703-57.2754L35.0098-57.2754C33.252-57.2754 31.9824-55.957 31.9824-54.2969C31.9824-52.5391 33.252-51.2207 35.0098-51.2207ZM35.0098-33.8867L52.5391-33.8867C54.2969-33.8867 55.5664-35.2051 55.5664-36.8652C55.5664-38.5742 54.2969-39.8926 52.5391-39.8926L35.0098-39.8926C33.252-39.8926 31.9824-38.5742 31.9824-36.8652C31.9824-35.2051 33.252-33.8867 35.0098-33.8867Z"/>
  </g>
  <g id="Light-M" transform="matrix(1 0 0 1 1100.33 1126)">
   <path d="M26.709 16.8457L78.9062 16.8457C88.3301 16.8457 93.1641 11.9629 93.1641 2.44141L93.1641-72.8516C93.1641-82.373 88.3789-87.207 78.9062-87.207L64.4531-87.207C63.1836-87.207 62.3535-86.3281 62.3535-85.0098C62.3535-79.5898 58.4473-75.6348 52.832-75.6348C47.168-75.6348 43.2617-79.5898 43.2617-85.0098C43.2617-86.3281 42.4316-87.207 41.1621-87.207L26.709-87.207C17.2852-87.207 12.4512-82.373 12.4512-72.8516L12.4512 2.44141C12.4512 11.9629 17.334 16.8457 26.709 16.8457ZM27.0508 10.791C21.3867 10.791 18.5059 7.71484 18.5059 2.29492L18.5059-72.7051C18.5059-78.2227 21.3867-81.2012 27.0508-81.2012L37.8418-81.2012C39.3555-74.2188 45.0684-69.7754 52.832-69.7754C60.5469-69.7754 66.3086-74.2188 67.8223-81.2012L78.6133-81.2012C84.2285-81.2012 87.1582-78.2227 87.1582-72.7051L87.1582 2.29492C87.1582 7.71484 84.2285 10.791 78.6133 10.791ZM33.6426-52.4902L72.0215-52.4902C73.3887-52.4902 74.4629-53.5156 74.4629-54.9316C74.4629-56.2988 73.3887-57.3242 72.0215-57.3242L33.6426-57.3242C32.2266-57.3242 31.2012-56.2988 31.2012-54.9316C31.2012-53.5156 32.2266-52.4902 33.6426-52.4902ZM33.6426-34.668L52.1484-34.668C53.5156-34.668 54.5898-35.7422 54.5898-37.0605C54.5898-38.4277 53.5156-39.502 52.1484-39.502L33.6426-39.502C32.2266-39.502 31.2012-38.4277 31.2012-37.0605C31.2012-35.7422 32.2266-34.668 33.6426-34.668Z"/>
  </g>
  <g id="Thin-M" transform="matrix(1 0 0 1 804.518 1126)">
   <path d="M25.5859 16.4551L78.2227 16.4551C86.7188 16.4551 91.3574 11.9141 91.3574 3.27148L91.3574-73.584C91.3574-82.2754 86.8164-86.7676 78.2227-86.7676L63.7695-86.7676C62.9883-86.7676 62.5488-86.2305 62.5488-85.4492C62.5488-79.6387 58.1543-75.1465 51.9043-75.1465C45.6543-75.1465 41.2598-79.6387 41.2598-85.4492C41.2598-86.2305 40.7715-86.7676 40.0391-86.7676L25.5859-86.7676C16.9434-86.7676 12.4512-82.2754 12.4512-73.584L12.4512 3.27148C12.4512 11.9141 17.041 16.4551 25.5859 16.4551ZM25.7812 12.8418C19.3848 12.8418 16.0645 9.27734 16.0645 3.17383L16.0645-73.4863C16.0645-79.834 19.3848-83.1543 25.7812-83.1543L37.8418-83.1543C38.8672-76.123 44.4336-71.582 51.9043-71.582C59.375-71.582 64.9414-76.123 65.918-83.1543L78.0273-83.1543C84.4238-83.1543 87.7441-79.834 87.7441-73.4863L87.7441 3.17383C87.7441 9.27734 84.4238 12.8418 78.0273 12.8418ZM31.8848-54.1016L71.9727-54.1016C72.9004-54.1016 73.6328-54.7852 73.6328-55.7617C73.6328-56.7383 72.9004-57.4219 71.9727-57.4219L31.8848-57.4219C30.9082-57.4219 30.1758-56.7383 30.1758-55.7617C30.1758-54.7852 30.9082-54.1016 31.8848-54.1016ZM31.8848-35.6934L51.6113-35.6934C52.5391-35.6934 53.2715-36.4258 53.2715-37.3047C53.2715-38.2324 52.5391-38.9648 51.6113-38.9648L31.8848-38.9648C30.9082-38.9648 30.1758-38.2324 30.1758-37.3047C30.1758-36.4258 30.9082-35.6934 31.8848-35.6934Z"/>
  </g>
  <g id="Ultralight-M" transform="matrix(1 0 0 1 508.295 1126)">
   <path d="M25 16.2598L77.8809 16.2598C85.9375 16.2598 90.3809 11.9141 90.3809 3.71094L90.3809-73.9746C90.3809-82.1777 86.0352-86.5234 77.8809-86.5234L63.4277-86.5234C62.9395-86.5234 62.6465-86.1816 62.6465-85.6934C62.6465-79.6387 58.0078-74.8535 51.416-74.8535C44.873-74.8535 40.2344-79.6387 40.2344-85.6934C40.2344-86.1816 39.9414-86.5234 39.4531-86.5234L25-86.5234C16.7969-86.5234 12.4512-82.1777 12.4512-73.9746L12.4512 3.71094C12.4512 11.9141 16.9434 16.2598 25 16.2598ZM25.0977 13.8672C18.3594 13.8672 14.8438 10.1074 14.8438 3.61328L14.8438-73.877C14.8438-80.6152 18.3594-84.1309 25.0977-84.1309L37.8906-84.1309C38.623-77.0996 44.0918-72.4609 51.416-72.4609C58.7891-72.4609 64.209-77.0996 64.9414-84.1309L77.7344-84.1309C84.5215-84.1309 87.9883-80.6152 87.9883-73.877L87.9883 3.61328C87.9883 10.1074 84.5215 13.8672 77.7344 13.8672ZM30.957-54.9805L71.9727-54.9805C72.6562-54.9805 73.1934-55.4199 73.1934-56.1523C73.1934-56.9824 72.6562-57.4707 71.9727-57.4707L30.957-57.4707C30.2246-57.4707 29.6875-56.9824 29.6875-56.1523C29.6875-55.4199 30.2246-54.9805 30.957-54.9805ZM30.957-36.2305L51.3184-36.2305C52.0508-36.2305 52.5879-36.7676 52.5879-37.4512C52.5879-38.1348 52.0508-38.6719 51.3184-38.6719L30.957-38.6719C30.2246-38.6719 29.6875-38.1348 29.6875-37.4512C29.6875-36.7676 30.2246-36.2305 30.957-36.2305Z"/>
  </g>
  <g id="Black-S" transform="matrix(1 0 0 1 2887.7 696)">
   <path d="M25 8.1543L66.4062 8.1543C75.9766 8.1543 81.6406 2.49023 81.6406-7.08008L81.6406-63.3789C81.6406-72.9492 75.9766-78.5645 66.4062-78.5645L54.5898-78.5645C52.6367-78.5645 51.709-77.832 51.709-76.3672C51.709-73.584 49.6582-70.3613 45.7031-70.3613C41.748-70.3613 39.6973-73.584 39.6973-76.3672C39.6973-77.832 38.7695-78.5645 36.8164-78.5645L25-78.5645C15.4297-78.5645 9.76562-72.9492 9.76562-63.3789L9.76562-7.08008C9.76562 2.49023 15.4297 8.1543 25 8.1543ZM27.2461-6.00586C24.8047-6.00586 23.9258-7.08008 23.9258-9.32617L23.9258-61.1328C23.9258-63.3789 24.8047-64.4531 27.2461-64.4531L33.0078-64.4531C35.3516-60.0098 39.9414-57.4707 45.7031-57.4707C51.4648-57.4707 56.0547-60.0098 58.3984-64.4531L64.1602-64.4531C66.6016-64.4531 67.4805-63.3789 67.4805-61.1328L67.4805-9.32617C67.4805-7.08008 66.6016-6.00586 64.1602-6.00586ZM34.1797-45.0684L57.1777-45.0684C58.7402-45.0684 59.9121-46.2891 59.9121-47.8516C59.9121-49.3652 58.7402-50.5371 57.1777-50.5371L34.1797-50.5371C32.5684-50.5371 31.3965-49.3652 31.3965-47.8516C31.3965-46.2891 32.5684-45.0684 34.1797-45.0684ZM34.1797-33.3496L46.7773-33.3496C48.3398-33.3496 49.5117-34.5215 49.5117-36.0352C49.5117-37.5977 48.3398-38.8184 46.7773-38.8184L34.1797-38.8184C32.5684-38.8184 31.3965-37.5977 31.3965-36.0352C31.3965-34.5215 32.5684-33.3496 34.1797-33.3496Z"/>
  </g>
  <g id="Heavy-S" transform="matrix(1 0 0 1 2591.79 696)">
   <path d="M24.3164 7.61719L65.4785 7.61719C74.7559 7.61719 80.0293 2.29492 80.0293-6.93359L80.0293-63.5254C80.0293-72.8027 74.7559-78.0762 65.4785-78.0762L53.7598-78.0762C51.9531-78.0762 50.9766-77.2461 50.9766-75.7812C50.9766-72.7539 48.8281-69.6777 44.873-69.6777C40.9668-69.6777 38.7695-72.7539 38.7695-75.7812C38.7695-77.2461 37.8418-78.0762 35.9863-78.0762L24.3164-78.0762C15.0391-78.0762 9.76562-72.8027 9.76562-63.5254L9.76562-6.93359C9.76562 2.29492 15.0391 7.61719 24.3164 7.61719ZM26.123-4.83398C23.3887-4.83398 22.2656-6.15234 22.2656-8.69141L22.2656-61.7676C22.2656-64.3066 23.3887-65.625 26.123-65.625L32.1777-65.625C34.375-60.9375 39.0137-58.2031 44.873-58.2031C50.7812-58.2031 55.4199-60.9375 57.6172-65.625L63.6719-65.625C66.4062-65.625 67.5293-64.3066 67.5293-61.7676L67.5293-8.69141C67.5293-6.15234 66.4062-4.83398 63.6719-4.83398ZM32.7637-45.5566L57.0312-45.5566C58.5449-45.5566 59.7168-46.7773 59.7168-48.3398C59.7168-49.8047 58.5449-50.9766 57.0312-50.9766L32.7637-50.9766C31.1523-50.9766 29.9805-49.8047 29.9805-48.3398C29.9805-46.7773 31.1523-45.5566 32.7637-45.5566ZM32.7637-33.4473L45.5078-33.4473C47.0703-33.4473 48.2422-34.6191 48.2422-36.1328C48.2422-37.6953 47.0703-38.8672 45.5078-38.8672L32.7637-38.8672C31.1523-38.8672 29.9805-37.6953 29.9805-36.1328C29.9805-34.6191 31.1523-33.4473 32.7637-33.4473Z"/>
  </g>
  <g id="Bold-S" transform="matrix(1 0 0 1 2295.98 696)">
   <path d="M23.5352 7.03125L64.4531 7.03125C73.3398 7.03125 78.2227 2.09961 78.2227-6.78711L78.2227-63.6719C78.2227-72.6074 73.3398-77.4902 64.4531-77.4902L52.8809-77.4902C51.123-77.4902 50.1953-76.6113 50.1953-75.0977C50.1953-71.7773 47.9004-68.8477 43.9941-68.8477C40.0879-68.8477 37.793-71.7773 37.793-75.0977C37.793-76.6113 36.8164-77.4902 35.1074-77.4902L23.5352-77.4902C14.6484-77.4902 9.76562-72.6074 9.76562-63.6719L9.76562-6.78711C9.76562 2.09961 14.6484 7.03125 23.5352 7.03125ZM24.8047-3.56445C21.7773-3.56445 20.3613-5.12695 20.3613-7.95898L20.3613-62.5C20.3613-65.3809 21.7773-66.8945 24.8047-66.8945L31.25-66.8945C33.3008-61.9629 37.9395-59.0332 43.9941-59.0332C50-59.0332 54.6875-61.9629 56.6895-66.8945L63.1348-66.8945C66.2109-66.8945 67.627-65.3809 67.627-62.5L67.627-7.95898C67.627-5.12695 66.2109-3.56445 63.1348-3.56445ZM31.1523-46.0938L56.8359-46.0938C58.3496-46.0938 59.5215-47.3145 59.5215-48.877C59.5215-50.3418 58.3496-51.5137 56.8359-51.5137L31.1523-51.5137C29.541-51.5137 28.418-50.3418 28.418-48.877C28.418-47.3145 29.541-46.0938 31.1523-46.0938ZM31.1523-33.5938L44.0918-33.5938C45.6055-33.5938 46.7773-34.7168 46.7773-36.2305C46.7773-37.7441 45.6055-38.9648 44.0918-38.9648L31.1523-38.9648C29.541-38.9648 28.418-37.7441 28.418-36.2305C28.418-34.7168 29.541-33.5938 31.1523-33.5938Z"/>
  </g>
  <g id="Semibold-S" transform="matrix(1 0 0 1 1999.91 696)">
   <path d="M22.998 6.64062L63.7695 6.64062C72.3633 6.64062 76.9531 2.00195 76.9531-6.68945L76.9531-63.7695C76.9531-72.5098 72.4121-77.0996 63.7695-77.0996L52.2461-77.0996C50.5859-77.0996 49.6094-76.1719 49.6094-74.6094C49.6094-71.1426 47.2168-68.3105 43.3594-68.3105C39.502-68.3105 37.0605-71.1426 37.0605-74.6094C37.0605-76.1719 36.084-77.0996 34.4727-77.0996L22.998-77.0996C14.3555-77.0996 9.76562-72.5098 9.76562-63.7695L9.76562-6.68945C9.76562 2.00195 14.3555 6.64062 22.998 6.64062ZM23.9258-2.68555C20.6543-2.68555 19.0918-4.39453 19.0918-7.4707L19.0918-62.9883C19.0918-66.1133 20.6543-67.8223 23.9258-67.8223L30.6641-67.8223C32.5684-62.6465 37.2559-59.5703 43.3594-59.5703C49.5117-59.5703 54.1992-62.6465 56.0547-67.8223L62.793-67.8223C66.0645-67.8223 67.6758-66.1133 67.6758-62.9883L67.6758-7.4707C67.6758-4.39453 66.0645-2.68555 62.793-2.68555ZM30.0293-46.4844L56.6895-46.4844C58.252-46.4844 59.375-47.7051 59.375-49.2188C59.375-50.6836 58.252-51.8555 56.6895-51.8555L30.0293-51.8555C28.4668-51.8555 27.3438-50.6836 27.3438-49.2188C27.3438-47.7051 28.4668-46.4844 30.0293-46.4844ZM30.0293-33.6426L43.1152-33.6426C44.6289-33.6426 45.8008-34.8145 45.8008-36.2793C45.8008-37.793 44.6289-39.0137 43.1152-39.0137L30.0293-39.0137C28.4668-39.0137 27.3438-37.793 27.3438-36.2793C27.3438-34.8145 28.4668-33.6426 30.0293-33.6426Z"/>
  </g>
  <g id="Medium-S" transform="matrix(1 0 0 1 1703.66 696)">
   <path d="M22.5586 6.29883L63.2324 6.29883C71.6797 6.29883 76.0254 1.9043 76.0254-6.64062L76.0254-63.8672C76.0254-72.4121 71.6797-76.8066 63.2324-76.8066L51.7578-76.8066C50.1953-76.8066 49.2188-75.8301 49.2188-74.2676C49.2188-70.6055 46.7285-67.9199 42.8711-67.9199C39.0137-67.9199 36.5234-70.6055 36.5234-74.2676C36.5234-75.8301 35.5469-76.8066 33.9844-76.8066L22.5586-76.8066C14.1113-76.8066 9.76562-72.4121 9.76562-63.8672L9.76562-6.64062C9.76562 1.9043 14.1113 6.29883 22.5586 6.29883ZM23.291-2.00195C19.8242-2.00195 18.0664-3.85742 18.0664-7.12891L18.0664-63.3789C18.0664-66.6504 19.8242-68.5059 23.291-68.5059L30.2246-68.5059C31.9824-63.2324 36.6699-60.0098 42.8711-60.0098C49.0723-60.0098 53.7598-63.2324 55.5664-68.5059L62.5-68.5059C65.9668-68.5059 67.6758-66.6504 67.6758-63.3789L67.6758-7.12891C67.6758-3.85742 65.9668-2.00195 62.5-2.00195ZM29.1992-46.7773L56.5918-46.7773C58.1543-46.7773 59.2773-47.9492 59.2773-49.5117C59.2773-50.9766 58.1543-52.0996 56.5918-52.0996L29.1992-52.0996C27.6367-52.0996 26.5137-50.9766 26.5137-49.5117C26.5137-47.9492 27.6367-46.7773 29.1992-46.7773ZM29.1992-33.7402L42.3828-33.7402C43.8965-33.7402 45.0195-34.8633 45.0195-36.3281C45.0195-37.8418 43.8965-39.0625 42.3828-39.0625L29.1992-39.0625C27.6367-39.0625 26.5137-37.8418 26.5137-36.3281C26.5137-34.8633 27.6367-33.7402 29.1992-33.7402Z"/>
  </g>
  <g id="Regular-S" transform="matrix(1 0 0 1 1407.56 696)">
   <path d="M22.0215 5.9082L62.5 5.9082C70.7031 5.9082 74.8047 1.75781 74.8047-6.54297L74.8047-63.9648C74.8047-72.3145 70.7031-76.416 62.5-76.416L51.123-76.416C49.6582-76.416 48.6328-75.3906 48.6328-73.7793C48.6328-69.9707 46.0938-67.3828 42.2852-67.3828C38.4277-67.3828 35.8398-69.9707 35.8398-73.7793C35.8398-75.3906 34.8633-76.416 33.3496-76.416L22.0215-76.416C13.8184-76.416 9.76562-72.3145 9.76562-63.9648L9.76562-6.54297C9.76562 1.75781 13.8184 5.9082 22.0215 5.9082ZM22.4121-1.12305C18.7012-1.12305 16.7969-3.125 16.7969-6.64062L16.7969-63.8672C16.7969-67.3828 18.7012-69.3848 22.4121-69.3848L29.6875-69.3848C31.2988-63.916 35.9863-60.5469 42.2852-60.5469C48.584-60.5469 53.2715-63.916 54.8828-69.3848L62.1582-69.3848C65.8203-69.3848 67.7246-67.3828 67.7246-63.8672L67.7246-6.64062C67.7246-3.125 65.8203-1.12305 62.1582-1.12305ZM28.125-47.168L56.4941-47.168C58.0078-47.168 59.1309-48.3398 59.1309-49.8535C59.1309-51.3184 58.0078-52.4414 56.4941-52.4414L28.125-52.4414C26.5625-52.4414 25.4395-51.3184 25.4395-49.8535C25.4395-48.3398 26.5625-47.168 28.125-47.168ZM28.125-33.7891L41.4062-33.7891C42.9199-33.7891 44.043-34.9609 44.043-36.4258C44.043-37.9395 42.9199-39.1113 41.4062-39.1113L28.125-39.1113C26.5625-39.1113 25.4395-37.9395 25.4395-36.4258C25.4395-34.9609 26.5625-33.7891 28.125-33.7891Z"/>
  </g>
  <g id="Light-S" transform="matrix(1 0 0 1 1111.48 696)">
   <path d="M21.2891 5.66406L62.0605 5.66406C69.6777 5.66406 73.5352 1.75781 73.5352-5.95703L73.5352-64.4531C73.5352-72.2168 69.6777-76.123 62.0605-76.123L50.6836-76.123C49.5605-76.123 48.7793-75.293 48.7793-74.0723C48.7793-69.9707 45.8984-67.041 41.6504-67.041C37.4023-67.041 34.5215-69.9707 34.5215-74.0723C34.5215-75.293 33.7402-76.123 32.6172-76.123L21.2891-76.123C13.623-76.123 9.76562-72.2168 9.76562-64.4531L9.76562-5.95703C9.76562 1.75781 13.6719 5.66406 21.2891 5.66406ZM21.582 0.244141C17.3828 0.244141 15.1855-2.05078 15.1855-6.05469L15.1855-64.3555C15.1855-68.457 17.3828-70.6543 21.582-70.6543L29.6387-70.6543C30.957-65.2344 35.5469-61.7676 41.6504-61.7676C47.8027-61.7676 52.3438-65.2344 53.6621-70.6543L61.7676-70.6543C65.9668-70.6543 68.1152-68.457 68.1152-64.3555L68.1152-6.05469C68.1152-2.05078 65.9668 0.244141 61.7676 0.244141ZM26.9043-48.2422L56.4453-48.2422C57.666-48.2422 58.5938-49.1699 58.5938-50.3906C58.5938-51.6113 57.666-52.4902 56.4453-52.4902L26.9043-52.4902C25.6348-52.4902 24.7559-51.6113 24.7559-50.3906C24.7559-49.1699 25.6348-48.2422 26.9043-48.2422ZM26.9043-34.5215L41.0156-34.5215C42.2363-34.5215 43.1641-35.4004 43.1641-36.5723C43.1641-37.793 42.2363-38.7207 41.0156-38.7207L26.9043-38.7207C25.6348-38.7207 24.7559-37.793 24.7559-36.5723C24.7559-35.4004 25.6348-34.5215 26.9043-34.5215Z"/>
  </g>
  <g id="Thin-S" transform="matrix(1 0 0 1 815.578 696)">
   <path d="M20.2637 5.32227L61.4258 5.32227C68.2617 5.32227 71.9238 1.70898 71.9238-5.22461L71.9238-65.1367C71.9238-72.1191 68.3594-75.6836 61.4258-75.6836L50.0977-75.6836C49.4141-75.6836 48.9746-75.1953 48.9746-74.5117C48.9746-70.0195 45.6543-66.6016 40.8691-66.6016C36.084-66.6016 32.7148-70.0195 32.7148-74.5117C32.7148-75.1953 32.2754-75.6836 31.5918-75.6836L20.2637-75.6836C13.3789-75.6836 9.76562-72.1191 9.76562-65.1367L9.76562-5.22461C9.76562 1.70898 13.4277 5.32227 20.2637 5.32227ZM20.459 2.05078C15.5762 2.05078 13.0859-0.634766 13.0859-5.32227L13.0859-65.0391C13.0859-69.873 15.5762-72.4121 20.459-72.4121L29.6387-72.4121C30.5664-66.8945 34.9121-63.3301 40.8691-63.3301C46.7773-63.3301 51.123-66.8945 52.0508-72.4121L61.2793-72.4121C66.1133-72.4121 68.6035-69.873 68.6035-65.0391L68.6035-5.32227C68.6035-0.634766 66.1133 2.05078 61.2793 2.05078ZM25.3418-49.707L56.4453-49.707C57.2266-49.707 57.8613-50.293 57.8613-51.123C57.8613-52.002 57.2266-52.5879 56.4453-52.5879L25.3418-52.5879C24.4629-52.5879 23.877-52.002 23.877-51.123C23.877-50.293 24.4629-49.707 25.3418-49.707ZM25.3418-35.4004L40.5273-35.4004C41.3574-35.4004 41.9922-36.0352 41.9922-36.8164C41.9922-37.5977 41.3574-38.2324 40.5273-38.2324L25.3418-38.2324C24.4629-38.2324 23.877-37.5977 23.877-36.8164C23.877-36.0352 24.4629-35.4004 25.3418-35.4004Z"/>
  </g>
  <g id="Ultralight-S" transform="matrix(1 0 0 1 519.281 696)">
   <path d="M19.7266 5.17578L61.084 5.17578C67.5293 5.17578 71.0938 1.70898 71.0938-4.83398L71.0938-65.4785C71.0938-72.0215 67.627-75.4883 61.084-75.4883L49.7559-75.4883C49.3164-75.4883 49.0723-75.1465 49.0723-74.707C49.0723-70.0195 45.5078-66.3574 40.4297-66.3574C35.3516-66.3574 31.7871-70.0195 31.7871-74.707C31.7871-75.1465 31.543-75.4883 31.0547-75.4883L19.7266-75.4883C13.2324-75.4883 9.76562-72.0215 9.76562-65.4785L9.76562-4.83398C9.76562 1.70898 13.3301 5.17578 19.7266 5.17578ZM19.873 2.97852C14.6484 2.97852 11.9629 0.0976562 11.9629-4.93164L11.9629-65.3809C11.9629-70.6055 14.6484-73.291 19.873-73.291L29.6875-73.291C30.3711-67.7734 34.6191-64.1602 40.4297-64.1602C46.2402-64.1602 50.4883-67.7734 51.1719-73.291L60.9863-73.291C66.2109-73.291 68.8965-70.6055 68.8965-65.3809L68.8965-4.93164C68.8965 0.0976562 66.2109 2.97852 60.9863 2.97852ZM24.5117-50.4395L56.3965-50.4395C56.9824-50.4395 57.4707-50.8789 57.4707-51.5137C57.4707-52.1973 56.9824-52.6367 56.3965-52.6367L24.5117-52.6367C23.877-52.6367 23.3887-52.1973 23.3887-51.5137C23.3887-50.8789 23.877-50.4395 24.5117-50.4395ZM24.5117-35.8887L40.2832-35.8887C40.918-35.8887 41.4062-36.377 41.4062-36.9141C41.4062-37.5 40.918-37.9883 40.2832-37.9883L24.5117-37.9883C23.877-37.9883 23.3887-37.5 23.3887-36.9141C23.3887-36.377 23.877-35.8887 24.5117-35.8887Z"/>
  </g>
 </g>
</svg>
