<?xml version="1.0" encoding="UTF-8"?>
<!--Generator: Apple Native CoreSVG 149-->
<!DOCTYPE svg
PUBLIC "-//W3C//DTD SVG 1.1//EN"
       "http://www.w3.org/Graphics/SVG/1.1/DTD/svg11.dtd">
<svg version="1.1" xmlns="http://www.w3.org/2000/svg" xmlns:xlink="http://www.w3.org/1999/xlink" width="3300" height="2200">
 <!--glyph: "uni100063.medium", point size: 100.0, font version: "17.0d8e1", template writer version: "58"-->
 <style>.multicolor-0:systemBlueColor {fill:#007AFF;opacity:1.0}
.multicolor-1:white {fill:#FFFFFF;opacity:1.0}

.hierarchical-0:tertiary {fill:#8E8E8E}
.hierarchical-1:primary {fill:#212121}

.SFSymbolsPreview007AFF {fill:#007AFF;opacity:1.0}
.SFSymbolsPreviewFFFFFF {fill:#FFFFFF;opacity:1.0}
</style>
 <g id="Notes">
  <rect height="2200" id="artboard" style="fill:white;opacity:1" width="3300" x="0" y="0"/>
  <line style="fill:none;stroke:black;opacity:1;stroke-width:0.5;" x1="263" x2="3036" y1="292" y2="292"/>
  <text style="stroke:none;fill:black;font-family:SF Pro,SF Pro Display,SF Pro Text,sans-serif;font-size:13;font-weight:bold;" transform="matrix(1 0 0 1 263 322)">Weight/Scale Variations</text>
  <text style="stroke:none;fill:black;font-family:SF Pro,SF Pro Display,SF Pro Text,sans-serif;font-size:13;text-anchor:middle;" transform="matrix(1 0 0 1 559.711 322)">Ultralight</text>
  <text style="stroke:none;fill:black;font-family:SF Pro,SF Pro Display,SF Pro Text,sans-serif;font-size:13;text-anchor:middle;" transform="matrix(1 0 0 1 856.422 322)">Thin</text>
  <text style="stroke:none;fill:black;font-family:SF Pro,SF Pro Display,SF Pro Text,sans-serif;font-size:13;text-anchor:middle;" transform="matrix(1 0 0 1 1153.13 322)">Light</text>
  <text style="stroke:none;fill:black;font-family:SF Pro,SF Pro Display,SF Pro Text,sans-serif;font-size:13;text-anchor:middle;" transform="matrix(1 0 0 1 1449.84 322)">Regular</text>
  <text style="stroke:none;fill:black;font-family:SF Pro,SF Pro Display,SF Pro Text,sans-serif;font-size:13;text-anchor:middle;" transform="matrix(1 0 0 1 1746.56 322)">Medium</text>
  <text style="stroke:none;fill:black;font-family:SF Pro,SF Pro Display,SF Pro Text,sans-serif;font-size:13;text-anchor:middle;" transform="matrix(1 0 0 1 2043.27 322)">Semibold</text>
  <text style="stroke:none;fill:black;font-family:SF Pro,SF Pro Display,SF Pro Text,sans-serif;font-size:13;text-anchor:middle;" transform="matrix(1 0 0 1 2339.98 322)">Bold</text>
  <text style="stroke:none;fill:black;font-family:SF Pro,SF Pro Display,SF Pro Text,sans-serif;font-size:13;text-anchor:middle;" transform="matrix(1 0 0 1 2636.69 322)">Heavy</text>
  <text style="stroke:none;fill:black;font-family:SF Pro,SF Pro Display,SF Pro Text,sans-serif;font-size:13;text-anchor:middle;" transform="matrix(1 0 0 1 2933.4 322)">Black</text>
  <line style="fill:none;stroke:black;opacity:1;stroke-width:0.5;" x1="263" x2="3036" y1="1903" y2="1903"/>
  <g transform="matrix(1 0 0 1 263 1933)">
   <path d="M9.24805 0.830078Q10.8691 0.830078 12.2949 0.214844Q13.7207-0.400391 14.8096-1.49414Q15.8984-2.58789 16.5186-4.01367Q17.1387-5.43945 17.1387-7.05078Q17.1387-8.66211 16.5186-10.0879Q15.8984-11.5137 14.8047-12.6074Q13.7109-13.7012 12.2852-14.3164Q10.8594-14.9316 9.23828-14.9316Q7.62695-14.9316 6.20117-14.3164Q4.77539-13.7012 3.69141-12.6074Q2.60742-11.5137 1.9873-10.0879Q1.36719-8.66211 1.36719-7.05078Q1.36719-5.43945 1.9873-4.01367Q2.60742-2.58789 3.69629-1.49414Q4.78516-0.400391 6.21094 0.214844Q7.63672 0.830078 9.24805 0.830078ZM9.24805-0.654297Q7.91992-0.654297 6.7627-1.14746Q5.60547-1.64062 4.73145-2.51953Q3.85742-3.39844 3.36426-4.56055Q2.87109-5.72266 2.87109-7.05078Q2.87109-8.37891 3.35938-9.54102Q3.84766-10.7031 4.72168-11.582Q5.5957-12.4609 6.75293-12.9541Q7.91016-13.4473 9.23828-13.4473Q10.5762-13.4473 11.7334-12.9541Q12.8906-12.4609 13.7695-11.582Q14.6484-10.7031 15.1465-9.54102Q15.6445-8.37891 15.6445-7.05078Q15.6445-5.72266 15.1514-4.56055Q14.6582-3.39844 13.7842-2.51953Q12.9102-1.64062 11.748-1.14746Q10.5859-0.654297 9.24805-0.654297ZM5.83984-7.04102Q5.83984-6.71875 6.04492-6.51855Q6.25-6.31836 6.5918-6.31836L8.50586-6.31836L8.50586-4.39453Q8.50586-4.0625 8.70605-3.85742Q8.90625-3.65234 9.22852-3.65234Q9.56055-3.65234 9.76562-3.85742Q9.9707-4.0625 9.9707-4.39453L9.9707-6.31836L11.8945-6.31836Q12.2266-6.31836 12.4316-6.51855Q12.6367-6.71875 12.6367-7.04102Q12.6367-7.37305 12.4316-7.57812Q12.2266-7.7832 11.8945-7.7832L9.9707-7.7832L9.9707-9.69727Q9.9707-10.0391 9.76562-10.2441Q9.56055-10.4492 9.22852-10.4492Q8.90625-10.4492 8.70605-10.2441Q8.50586-10.0391 8.50586-9.69727L8.50586-7.7832L6.5918-7.7832Q6.25-7.7832 6.04492-7.57812Q5.83984-7.37305 5.83984-7.04102Z"/>
  </g>
  <g transform="matrix(1 0 0 1 281.867 1933)">
   <path d="M11.709 2.91016Q13.75 2.91016 15.5518 2.12891Q17.3535 1.34766 18.7305-0.0292969Q20.1074-1.40625 20.8887-3.20801Q21.6699-5.00977 21.6699-7.05078Q21.6699-9.0918 20.8887-10.8936Q20.1074-12.6953 18.7305-14.0723Q17.3535-15.4492 15.5469-16.2305Q13.7402-17.0117 11.6992-17.0117Q9.6582-17.0117 7.85645-16.2305Q6.05469-15.4492 4.68262-14.0723Q3.31055-12.6953 2.5293-10.8936Q1.74805-9.0918 1.74805-7.05078Q1.74805-5.00977 2.5293-3.20801Q3.31055-1.40625 4.6875-0.0292969Q6.06445 1.34766 7.86621 2.12891Q9.66797 2.91016 11.709 2.91016ZM11.709 1.25Q9.98047 1.25 8.47656 0.605469Q6.97266-0.0390625 5.83496-1.17676Q4.69727-2.31445 4.05762-3.81836Q3.41797-5.32227 3.41797-7.05078Q3.41797-8.7793 4.05762-10.2832Q4.69727-11.7871 5.83008-12.9297Q6.96289-14.0723 8.4668-14.7119Q9.9707-15.3516 11.6992-15.3516Q13.4277-15.3516 14.9316-14.7119Q16.4355-14.0723 17.5781-12.9297Q18.7207-11.7871 19.3652-10.2832Q20.0098-8.7793 20.0098-7.05078Q20.0098-5.32227 19.3701-3.81836Q18.7305-2.31445 17.5928-1.17676Q16.4551-0.0390625 14.9463 0.605469Q13.4375 1.25 11.709 1.25ZM7.39258-7.04102Q7.39258-6.68945 7.62695-6.46484Q7.86133-6.24023 8.23242-6.24023L10.8789-6.24023L10.8789-3.57422Q10.8789-3.21289 11.1035-2.9834Q11.3281-2.75391 11.6797-2.75391Q12.0508-2.75391 12.2852-2.9834Q12.5195-3.21289 12.5195-3.57422L12.5195-6.24023L15.1758-6.24023Q15.5371-6.24023 15.7715-6.46484Q16.0059-6.68945 16.0059-7.04102Q16.0059-7.41211 15.7715-7.6416Q15.5371-7.87109 15.1758-7.87109L12.5195-7.87109L12.5195-10.5176Q12.5195-10.8984 12.2852-11.1279Q12.0508-11.3574 11.6797-11.3574Q11.3281-11.3574 11.1035-11.1279Q10.8789-10.8984 10.8789-10.5176L10.8789-7.87109L8.23242-7.87109Q7.85156-7.87109 7.62207-7.6416Q7.39258-7.41211 7.39258-7.04102Z"/>
  </g>
  <g transform="matrix(1 0 0 1 305.646 1933)">
   <path d="M14.9707 5.66406Q17.0605 5.66406 18.96 5.01465Q20.8594 4.36523 22.4512 3.19336Q24.043 2.02148 25.2197 0.429688Q26.3965-1.16211 27.0459-3.06641Q27.6953-4.9707 27.6953-7.05078Q27.6953-9.14062 27.0459-11.04Q26.3965-12.9395 25.2197-14.5312Q24.043-16.123 22.4512-17.2998Q20.8594-18.4766 18.9551-19.126Q17.0508-19.7754 14.9609-19.7754Q12.8711-19.7754 10.9717-19.126Q9.07227-18.4766 7.48535-17.2998Q5.89844-16.123 4.72168-14.5312Q3.54492-12.9395 2.90039-11.04Q2.25586-9.14062 2.25586-7.05078Q2.25586-4.9707 2.90527-3.06641Q3.55469-1.16211 4.72656 0.429688Q5.89844 2.02148 7.49023 3.19336Q9.08203 4.36523 10.9814 5.01465Q12.8809 5.66406 14.9707 5.66406ZM14.9707 3.84766Q13.1641 3.84766 11.5283 3.2959Q9.89258 2.74414 8.53516 1.74805Q7.17773 0.751953 6.17676-0.610352Q5.17578-1.97266 4.62891-3.6084Q4.08203-5.24414 4.08203-7.05078Q4.08203-8.86719 4.62891-10.5029Q5.17578-12.1387 6.17188-13.501Q7.16797-14.8633 8.52539-15.8594Q9.88281-16.8555 11.5186-17.4023Q13.1543-17.9492 14.9609-17.9492Q16.7773-17.9492 18.4131-17.4023Q20.0488-16.8555 21.4111-15.8594Q22.7734-14.8633 23.7695-13.501Q24.7656-12.1387 25.3174-10.5029Q25.8691-8.86719 25.8691-7.05078Q25.8789-5.24414 25.332-3.6084Q24.7852-1.97266 23.7842-0.610352Q22.7832 0.751953 21.4209 1.74805Q20.0586 2.74414 18.4229 3.2959Q16.7871 3.84766 14.9707 3.84766ZM9.45312-7.04102Q9.45312-6.66016 9.71191-6.41113Q9.9707-6.16211 10.3711-6.16211L14.0625-6.16211L14.0625-2.46094Q14.0625-2.06055 14.3115-1.80664Q14.5605-1.55273 14.9414-1.55273Q15.3516-1.55273 15.6055-1.80664Q15.8594-2.06055 15.8594-2.46094L15.8594-6.16211L19.5605-6.16211Q19.9609-6.16211 20.2148-6.41113Q20.4688-6.66016 20.4688-7.04102Q20.4688-7.45117 20.2148-7.70508Q19.9609-7.95898 19.5605-7.95898L15.8594-7.95898L15.8594-11.6504Q15.8594-12.0605 15.6055-12.3145Q15.3516-12.5684 14.9414-12.5684Q14.5605-12.5684 14.3115-12.3096Q14.0625-12.0508 14.0625-11.6504L14.0625-7.95898L10.3711-7.95898Q9.96094-7.95898 9.70703-7.70508Q9.45312-7.45117 9.45312-7.04102Z"/>
  </g>
  <text style="stroke:none;fill:black;font-family:SF Pro,SF Pro Display,SF Pro Text,sans-serif;font-size:13;font-weight:bold;" transform="matrix(1 0 0 1 263 1953)">Design Variations</text>
  <text style="stroke:none;fill:black;font-family:SF Pro,SF Pro Display,SF Pro Text,sans-serif;font-size:13;" transform="matrix(1 0 0 1 263 1971)">Symbols are supported in up to nine weights and three scales.</text>
  <text style="stroke:none;fill:black;font-family:SF Pro,SF Pro Display,SF Pro Text,sans-serif;font-size:13;" transform="matrix(1 0 0 1 263 1989)">For optimal layout with text and other symbols, vertically align</text>
  <text style="stroke:none;fill:black;font-family:SF Pro,SF Pro Display,SF Pro Text,sans-serif;font-size:13;" transform="matrix(1 0 0 1 263 2007)">symbols with the adjacent text.</text>
  <line style="fill:none;stroke:#00AEEF;stroke-width:0.5;opacity:1.0;" x1="776" x2="776" y1="1919" y2="1933"/>
  <g transform="matrix(1 0 0 1 776 1933)">
   <path d="M3.31055 0.15625Q3.70117 0.15625 3.91602-0.00976562Q4.13086-0.175781 4.26758-0.585938L5.52734-4.0332L11.2891-4.0332L12.5488-0.585938Q12.6855-0.175781 12.9004-0.00976562Q13.1152 0.15625 13.4961 0.15625Q13.8867 0.15625 14.1162-0.0585938Q14.3457-0.273438 14.3457-0.644531Q14.3457-0.869141 14.2383-1.17188L9.6582-13.3691Q9.48242-13.8184 9.17969-14.043Q8.87695-14.2676 8.4082-14.2676Q7.5-14.2676 7.17773-13.3789L2.59766-1.16211Q2.49023-0.859375 2.49023-0.634766Q2.49023-0.263672 2.70996-0.0537109Q2.92969 0.15625 3.31055 0.15625ZM6.00586-5.51758L8.37891-12.0898L8.42773-12.0898L10.8008-5.51758Z"/>
  </g>
  <line style="fill:none;stroke:#00AEEF;stroke-width:0.5;opacity:1.0;" x1="793.197" x2="793.197" y1="1919" y2="1933"/>
  <text style="stroke:none;fill:black;font-family:SF Pro,SF Pro Display,SF Pro Text,sans-serif;font-size:13;font-weight:bold;" transform="matrix(1 0 0 1 776 1953)">Margins</text>
  <text style="stroke:none;fill:black;font-family:SF Pro,SF Pro Display,SF Pro Text,sans-serif;font-size:13;" transform="matrix(1 0 0 1 776 1971)">Leading and trailing margins on the left and right side of each symbol</text>
  <text style="stroke:none;fill:black;font-family:SF Pro,SF Pro Display,SF Pro Text,sans-serif;font-size:13;" transform="matrix(1 0 0 1 776 1989)">can be adjusted by modifying the x-location of the margin guidelines.</text>
  <text style="stroke:none;fill:black;font-family:SF Pro,SF Pro Display,SF Pro Text,sans-serif;font-size:13;" transform="matrix(1 0 0 1 776 2007)">Modifications are automatically applied proportionally to all</text>
  <text style="stroke:none;fill:black;font-family:SF Pro,SF Pro Display,SF Pro Text,sans-serif;font-size:13;" transform="matrix(1 0 0 1 776 2025)">scales and weights.</text>
  <g transform="matrix(1 0 0 1 1289 1933)">
   <path d="M2.8418 1.86523L4.54102 3.57422Q5.18555 4.22852 5.90332 4.17969Q6.62109 4.13086 7.31445 3.35938L18.0078-8.42773L17.041-9.4043L6.42578 2.27539Q6.16211 2.57812 5.89355 2.61719Q5.625 2.65625 5.27344 2.30469L4.10156 1.14258Q3.75 0.791016 3.79395 0.522461Q3.83789 0.253906 4.14062-0.0195312L15.6152-10.8203L14.6387-11.7871L3.04688-0.898438Q2.30469-0.214844 2.25098 0.498047Q2.19727 1.21094 2.8418 1.86523ZM9.25781-16.3281Q8.94531-16.0254 8.90625-15.6348Q8.86719-15.2441 9.04297-14.9512Q9.21875-14.6777 9.55566-14.541Q9.89258-14.4043 10.3809-14.5215Q11.4746-14.7754 12.5977-14.7314Q13.7207-14.6875 14.7949-13.9844L14.209-12.5293Q13.9551-11.9043 14.0674-11.4404Q14.1797-10.9766 14.5801-10.5664L16.875-8.25195Q17.2363-7.88086 17.5781-7.82227Q17.9199-7.76367 18.3398-7.8418L19.4043-8.03711L20.0684-7.36328L20.0293-6.80664Q20-6.43555 20.1221-6.12305Q20.2441-5.81055 20.6055-5.44922L21.3672-4.70703Q21.7285-4.3457 22.1533-4.33105Q22.5781-4.31641 22.9297-4.66797L25.8398-7.58789Q26.1914-7.93945 26.1816-8.35449Q26.1719-8.76953 25.8105-9.13086L25.0391-9.89258Q24.6875-10.2539 24.3799-10.3857Q24.0723-10.5176 23.7109-10.4883L23.1348-10.4395L22.4902-11.0742L22.7344-12.1973Q22.832-12.6172 22.6953-12.9834Q22.5586-13.3496 22.1191-13.7891L19.9219-15.9766Q18.6719-17.2168 17.2607-17.8369Q15.8496-18.457 14.4189-18.4814Q12.9883-18.5059 11.665-17.959Q10.3418-17.4121 9.25781-16.3281ZM10.752-15.957Q11.6602-16.6211 12.7002-16.9043Q13.7402-17.1875 14.8047-17.085Q15.8691-16.9824 16.8701-16.5137Q17.8711-16.0449 18.7012-15.2051L21.1328-12.793Q21.3086-12.6172 21.3525-12.4512Q21.3965-12.2852 21.3379-12.0312L21.0156-10.5469L22.5195-9.0625L23.5059-9.12109Q23.6914-9.13086 23.7891-9.09668Q23.8867-9.0625 24.0332-8.91602L24.6094-8.33984L22.168-5.89844L21.5918-6.47461Q21.4453-6.62109 21.4062-6.71875Q21.3672-6.81641 21.377-7.01172L21.4453-7.98828L19.9512-9.47266L18.4277-9.21875Q18.1836-9.16992 18.042-9.2041Q17.9004-9.23828 17.7148-9.41406L15.7129-11.416Q15.5176-11.5918 15.4932-11.7529Q15.4688-11.9141 15.5859-12.1875L16.4648-14.2773Q15.293-15.3711 13.8281-15.791Q12.3633-16.2109 10.8398-15.7617Q10.7227-15.7324 10.6885-15.8057Q10.6543-15.8789 10.752-15.957Z"/>
  </g>
  <text style="stroke:none;fill:black;font-family:SF Pro,SF Pro Display,SF Pro Text,sans-serif;font-size:13;font-weight:bold;" transform="matrix(1 0 0 1 1289 1953)">Exporting</text>
  <text style="stroke:none;fill:black;font-family:SF Pro,SF Pro Display,SF Pro Text,sans-serif;font-size:13;" transform="matrix(1 0 0 1 1289 1971)">Symbols should be outlined when exporting to ensure the</text>
  <text style="stroke:none;fill:black;font-family:SF Pro,SF Pro Display,SF Pro Text,sans-serif;font-size:13;" transform="matrix(1 0 0 1 1289 1989)">design is preserved when submitting to Xcode.</text>
  <text id="template-version" style="stroke:none;fill:black;font-family:SF Pro,SF Pro Display,SF Pro Text,sans-serif;font-size:13;text-anchor:end;" transform="matrix(1 0 0 1 3036 1933)">Template v.3.0</text>
  <text style="stroke:none;fill:black;font-family:SF Pro,SF Pro Display,SF Pro Text,sans-serif;font-size:13;text-anchor:end;" transform="matrix(1 0 0 1 3036 1951)">Requires Xcode 13 or greater</text>
  <text id="descriptive-name" style="stroke:none;fill:black;font-family:SF Pro,SF Pro Display,SF Pro Text,sans-serif;font-size:13;text-anchor:end;" transform="matrix(1 0 0 1 3036 1969)">Generated from checkmark.circle.fill</text>
  <text style="stroke:none;fill:black;font-family:SF Pro,SF Pro Display,SF Pro Text,sans-serif;font-size:13;text-anchor:end;" transform="matrix(1 0 0 1 3036 1987)">Typeset at 100 points</text>
  <text style="stroke:none;fill:black;font-family:SF Pro,SF Pro Display,SF Pro Text,sans-serif;font-size:13;" transform="matrix(1 0 0 1 263 726)">Small</text>
  <text style="stroke:none;fill:black;font-family:SF Pro,SF Pro Display,SF Pro Text,sans-serif;font-size:13;" transform="matrix(1 0 0 1 263 1156)">Medium</text>
  <text style="stroke:none;fill:black;font-family:SF Pro,SF Pro Display,SF Pro Text,sans-serif;font-size:13;" transform="matrix(1 0 0 1 263 1586)">Large</text>
 </g>
 <g id="Guides">
  <g id="H-reference" style="fill:#27AAE1;stroke:none;" transform="matrix(1 0 0 1 339 696)">
   <path d="M0.976562 0L3.66211 0L29.3457-67.1387L30.0293-67.1387L30.0293-70.459L28.125-70.459ZM11.6699-24.4629L46.9727-24.4629L46.2402-26.709L12.4512-26.709ZM55.127 0L57.7637 0L30.6152-70.459L29.4434-70.459L29.4434-67.1387Z"/>
  </g>
  <line id="Baseline-S" style="fill:none;stroke:#27AAE1;opacity:1;stroke-width:0.5;" x1="263" x2="3036" y1="696" y2="696"/>
  <line id="Capline-S" style="fill:none;stroke:#27AAE1;opacity:1;stroke-width:0.5;" x1="263" x2="3036" y1="625.541" y2="625.541"/>
  <g id="H-reference" style="fill:#27AAE1;stroke:none;" transform="matrix(1 0 0 1 339 1126)">
   <path d="M0.976562 0L3.66211 0L29.3457-67.1387L30.0293-67.1387L30.0293-70.459L28.125-70.459ZM11.6699-24.4629L46.9727-24.4629L46.2402-26.709L12.4512-26.709ZM55.127 0L57.7637 0L30.6152-70.459L29.4434-70.459L29.4434-67.1387Z"/>
  </g>
  <line id="Baseline-M" style="fill:none;stroke:#27AAE1;opacity:1;stroke-width:0.5;" x1="263" x2="3036" y1="1126" y2="1126"/>
  <line id="Capline-M" style="fill:none;stroke:#27AAE1;opacity:1;stroke-width:0.5;" x1="263" x2="3036" y1="1055.54" y2="1055.54"/>
  <g id="H-reference" style="fill:#27AAE1;stroke:none;" transform="matrix(1 0 0 1 339 1556)">
   <path d="M0.976562 0L3.66211 0L29.3457-67.1387L30.0293-67.1387L30.0293-70.459L28.125-70.459ZM11.6699-24.4629L46.9727-24.4629L46.2402-26.709L12.4512-26.709ZM55.127 0L57.7637 0L30.6152-70.459L29.4434-70.459L29.4434-67.1387Z"/>
  </g>
  <line id="Baseline-L" style="fill:none;stroke:#27AAE1;opacity:1;stroke-width:0.5;" x1="263" x2="3036" y1="1556" y2="1556"/>
  <line id="Capline-L" style="fill:none;stroke:#27AAE1;opacity:1;stroke-width:0.5;" x1="263" x2="3036" y1="1485.54" y2="1485.54"/>
  <line id="left-margin-Regular-M" style="fill:none;stroke:#00AEEF;stroke-width:0.5;opacity:1.0;" x1="1391.3" x2="1391.3" y1="1030.79" y2="1150.12"/>
  <line id="right-margin-Regular-M" style="fill:none;stroke:#00AEEF;stroke-width:0.5;opacity:1.0;" x1="1508.39" x2="1508.39" y1="1030.79" y2="1150.12"/>
 </g>
 <g id="Symbols">
  <g id="Black-L" transform="matrix(1 0 0 1 2854.05 1556)">
   <path class="multicolor-0:systemBlueColor hierarchical-0:tertiary SFSymbolsPreview007AFF" d="M79.3457 32.8613Q90.5762 32.8613 100.757 29.3945Q110.938 25.9277 119.458 19.6777Q127.979 13.4277 134.229 4.90723Q140.479-3.61328 143.945-13.7939Q147.412-23.9746 147.412-35.2051Q147.412-46.4355 143.945-56.6162Q140.479-66.7969 134.204-75.3174Q127.93-83.8379 119.434-90.1123Q110.938-96.3867 100.732-99.8291Q90.5273-103.271 79.2969-103.271Q68.1152-103.271 57.9102-99.8291Q47.7051-96.3867 39.209-90.1123Q30.7129-83.8379 24.4385-75.3174Q18.1641-66.7969 14.7217-56.6162Q11.2793-46.4355 11.2793-35.2051Q11.2793-23.9746 14.7217-13.7939Q18.1641-3.61328 24.4385 4.90723Q30.7129 13.4277 39.2334 19.6777Q47.7539 25.9277 57.9346 29.3945Q68.1152 32.8613 79.3457 32.8613Z"/>
   <path class="multicolor-1:white hierarchical-1:primary SFSymbolsPreviewFFFFFF" d="M72.4121-3.02734Q69.9707-3.02734 67.9688-4.15039Q65.9668-5.27344 64.2578-7.27539L50.293-23.7305Q48.9746-25.293 48.4375-26.6846Q47.9004-28.0762 47.9004-29.6875Q47.9004-33.1543 50.3662-35.5469Q52.832-37.9395 56.25-37.9395Q58.252-37.9395 59.79-37.1338Q61.3281-36.3281 62.6953-34.7168L72.3145-23.291L95.1172-59.375Q96.6309-61.7676 98.4131-62.9639Q100.195-64.1602 102.49-64.1602Q105.859-64.1602 108.447-61.9141Q111.035-59.668 111.035-56.2012Q111.035-54.8828 110.571-53.4668Q110.107-52.0508 109.131-50.6348L80.3223-7.42188Q78.9062-5.37109 76.8311-4.19922Q74.7559-3.02734 72.4121-3.02734Z"/>
  </g>
  <g id="Heavy-L" transform="matrix(1 0 0 1 2558.39 1556)">
   <path class="multicolor-0:systemBlueColor hierarchical-0:tertiary SFSymbolsPreview007AFF" d="M78.2715 31.7871Q89.3555 31.7871 99.3652 28.3691Q109.375 24.9512 117.749 18.7988Q126.123 12.6465 132.3 4.24805Q138.477-4.15039 141.895-14.1602Q145.312-24.1699 145.312-35.2051Q145.312-46.2402 141.895-56.2744Q138.477-66.3086 132.3-74.6826Q126.123-83.0566 117.749-89.2578Q109.375-95.459 99.3408-98.8525Q89.3066-102.246 78.2227-102.246Q67.2363-102.246 57.2021-98.8525Q47.168-95.459 38.7939-89.2578Q30.4199-83.0566 24.2432-74.6826Q18.0664-66.3086 14.6729-56.2744Q11.2793-46.2402 11.2793-35.2051Q11.2793-24.1699 14.6729-14.1602Q18.0664-4.15039 24.2432 4.24805Q30.4199 12.6465 38.8184 18.7988Q47.2168 24.9512 57.2266 28.3691Q67.2363 31.7871 78.2715 31.7871Z"/>
   <path class="multicolor-1:white hierarchical-1:primary SFSymbolsPreviewFFFFFF" d="M71.3379-3.41797Q69.1406-3.41797 67.334-4.41895Q65.5273-5.41992 64.0137-7.27539L49.4141-24.6094Q48.2422-25.9766 47.7539-27.2705Q47.2656-28.5645 47.2656-29.9805Q47.2656-33.0566 49.4385-35.2051Q51.6113-37.3535 54.6875-37.3535Q56.4453-37.3535 57.8613-36.6211Q59.2773-35.8887 60.5469-34.3262L71.1914-21.4844L95.3125-59.6191Q96.6309-61.7676 98.2178-62.8174Q99.8047-63.8672 101.855-63.8672Q104.834-63.8672 107.129-61.8896Q109.424-59.9121 109.424-56.8359Q109.424-55.6152 108.984-54.2969Q108.545-52.9785 107.666-51.7578L78.4668-7.42188Q77.1484-5.51758 75.293-4.46777Q73.4375-3.41797 71.3379-3.41797Z"/>
  </g>
  <g id="Bold-L" transform="matrix(1 0 0 1 2262.85 1556)">
   <path class="multicolor-0:systemBlueColor hierarchical-0:tertiary SFSymbolsPreview007AFF" d="M77.0996 30.6152Q87.9395 30.6152 97.7783 27.2461Q107.617 23.877 115.869 17.8223Q124.121 11.7676 130.176 3.51562Q136.23-4.73633 139.6-14.5752Q142.969-24.4141 142.969-35.2539Q142.969-46.0938 139.6-55.9326Q136.23-65.7715 130.151-73.999Q124.072-82.2266 115.845-88.3057Q107.617-94.3848 97.7539-97.7295Q87.8906-101.074 77.0508-101.074Q66.2598-101.074 56.3965-97.7295Q46.5332-94.3848 38.3301-88.3057Q30.127-82.2266 24.0479-73.999Q17.9688-65.7715 14.624-55.9326Q11.2793-46.0938 11.2793-35.2539Q11.2793-24.4141 14.624-14.5752Q17.9688-4.73633 24.0479 3.51562Q30.127 11.7676 38.3545 17.8223Q46.582 23.877 56.4209 27.2461Q66.2598 30.6152 77.0996 30.6152Z"/>
   <path class="multicolor-1:white hierarchical-1:primary SFSymbolsPreviewFFFFFF" d="M70.166-3.90625Q68.2617-3.90625 66.6992-4.76074Q65.1367-5.61523 63.7207-7.32422L48.4375-25.5859Q47.4609-26.7578 47.0215-27.9053Q46.582-29.0527 46.582-30.3223Q46.582-32.959 48.4375-34.8145Q50.293-36.6699 52.9297-36.6699Q54.4922-36.6699 55.7617-36.0352Q57.0312-35.4004 58.1543-33.9355L70.0195-19.4336L95.5566-59.9121Q96.6797-61.7188 98.0713-62.6221Q99.4629-63.5254 101.123-63.5254Q103.711-63.5254 105.688-61.8408Q107.666-60.1562 107.666-57.5195Q107.666-56.3965 107.227-55.2246Q106.787-54.0527 106.055-52.9785L76.3672-7.37305Q75.2441-5.71289 73.6328-4.80957Q72.0215-3.90625 70.166-3.90625Z"/>
  </g>
  <g id="Semibold-L" transform="matrix(1 0 0 1 1966.97 1556)">
   <path class="multicolor-0:systemBlueColor hierarchical-0:tertiary SFSymbolsPreview007AFF" d="M76.2695 29.7852Q86.9629 29.7852 96.6797 26.4648Q106.396 23.1445 114.551 17.1631Q122.705 11.1816 128.687 3.02734Q134.668-5.12695 137.988-14.8438Q141.309-24.5605 141.309-35.2539Q141.309-45.9473 137.988-55.6641Q134.668-65.3809 128.662-73.5107Q122.656-81.6406 114.526-87.6465Q106.396-93.6523 96.6553-96.9727Q86.9141-100.293 76.2207-100.293Q65.5273-100.293 55.8105-96.9727Q46.0938-93.6523 37.9883-87.6465Q29.8828-81.6406 23.877-73.5107Q17.8711-65.3809 14.5752-55.6641Q11.2793-45.9473 11.2793-35.2539Q11.2793-24.5605 14.5996-14.8438Q17.9199-5.12695 23.9014 3.02734Q29.8828 11.1816 38.0127 17.1631Q46.1426 23.1445 55.8594 26.4648Q65.5762 29.7852 76.2695 29.7852Z"/>
   <path class="multicolor-1:white hierarchical-1:primary SFSymbolsPreviewFFFFFF" d="M69.2871-4.19922Q67.5781-4.19922 66.1621-4.95605Q64.7461-5.71289 63.4766-7.27539L47.7051-26.2695Q46.875-27.2949 46.46-28.3447Q46.0449-29.3945 46.0449-30.5176Q46.0449-32.8613 47.6807-34.5215Q49.3164-36.1816 51.6602-36.1816Q53.0762-36.1816 54.2236-35.5957Q55.3711-35.0098 56.4453-33.5938L69.0918-17.9688L95.6055-60.1074Q96.6309-61.6699 97.876-62.4756Q99.1211-63.2812 100.586-63.2812Q102.832-63.2812 104.614-61.792Q106.396-60.3027 106.396-57.959Q106.396-56.9336 105.957-55.8594Q105.518-54.7852 104.883-53.8086L74.8535-7.32422Q73.877-5.81055 72.4121-5.00488Q70.9473-4.19922 69.2871-4.19922Z"/>
  </g>
  <g id="Medium-L" transform="matrix(1 0 0 1 1670.87 1556)">
   <path class="multicolor-0:systemBlueColor hierarchical-0:tertiary SFSymbolsPreview007AFF" d="M75.6836 29.1504Q86.2305 29.1504 95.8496 25.8545Q105.469 22.5586 113.55 16.626Q121.631 10.6934 127.563 2.63672Q133.496-5.41992 136.792-15.0635Q140.088-24.707 140.088-35.2539Q140.088-45.8496 136.792-55.4688Q133.496-65.0879 127.539-73.1445Q121.582-81.2012 113.525-87.1582Q105.469-93.1152 95.8252-96.3867Q86.1816-99.6582 75.6348-99.6582Q65.0391-99.6582 55.4199-96.3867Q45.8008-93.1152 37.7441-87.1582Q29.6875-81.2012 23.7549-73.1445Q17.8223-65.0879 14.5508-55.4688Q11.2793-45.8496 11.2793-35.2539Q11.2793-24.707 14.5508-15.0635Q17.8223-5.41992 23.7549 2.63672Q29.6875 10.6934 37.7686 16.626Q45.8496 22.5586 55.4688 25.8545Q65.0879 29.1504 75.6836 29.1504Z"/>
   <path class="multicolor-1:white hierarchical-1:primary SFSymbolsPreviewFFFFFF" d="M68.7012-4.39453Q67.1387-4.39453 65.8447-5.07812Q64.5508-5.76172 63.3301-7.27539L47.2168-26.7578Q46.4355-27.6855 46.0693-28.6621Q45.7031-29.6387 45.7031-30.7129Q45.7031-32.8125 47.168-34.3018Q48.6328-35.791 50.7812-35.791Q52.0508-35.791 53.125-35.2539Q54.1992-34.7168 55.2246-33.3496L68.457-16.8945L95.752-60.2051Q96.6309-61.6699 97.7783-62.3779Q98.9258-63.0859 100.195-63.0859Q102.246-63.0859 103.857-61.7676Q105.469-60.4492 105.469-58.3008Q105.469-57.3242 105.054-56.3232Q104.639-55.3223 104.053-54.3945L73.7793-7.32422Q72.8516-5.85938 71.5332-5.12695Q70.2148-4.39453 68.7012-4.39453Z"/>
  </g>
  <g id="Regular-L" transform="matrix(1 0 0 1 1374.97 1556)">
   <path class="multicolor-0:systemBlueColor hierarchical-0:tertiary SFSymbolsPreview007AFF" d="M74.8535 28.3203Q85.3027 28.3203 94.7998 25.0732Q104.297 21.8262 112.256 15.9668Q120.215 10.1074 126.099 2.14844Q131.982-5.81055 135.229-15.332Q138.477-24.8535 138.477-35.2539Q138.477-45.7031 135.229-55.2002Q131.982-64.6973 126.099-72.6562Q120.215-80.6152 112.256-86.499Q104.297-92.3828 94.7754-95.6299Q85.2539-98.877 74.8047-98.877Q64.3555-98.877 54.8584-95.6299Q45.3613-92.3828 37.4268-86.499Q29.4922-80.6152 23.6084-72.6562Q17.7246-64.6973 14.502-55.2002Q11.2793-45.7031 11.2793-35.2539Q11.2793-24.8535 14.5264-15.332Q17.7734-5.81055 23.6328 2.14844Q29.4922 10.1074 37.4512 15.9668Q45.4102 21.8262 54.9072 25.0732Q64.4043 28.3203 74.8535 28.3203Z"/>
   <path class="multicolor-1:white hierarchical-1:primary SFSymbolsPreviewFFFFFF" d="M67.8711-4.6875Q66.5039-4.6875 65.3564-5.27344Q64.209-5.85938 63.1348-7.27539L46.5332-27.3926Q45.8984-28.1738 45.5566-29.0771Q45.2148-29.9805 45.2148-30.9082Q45.2148-32.7148 46.46-34.0088Q47.7051-35.3027 49.5605-35.3027Q50.6836-35.3027 51.6602-34.8389Q52.6367-34.375 53.5645-33.0566L67.627-15.4785L95.8984-60.4004Q96.6309-61.6211 97.6318-62.2314Q98.6328-62.8418 99.707-62.8418Q101.465-62.8418 102.856-61.7188Q104.248-60.5957 104.248-58.7402Q104.248-57.8613 103.833-56.9336Q103.418-56.0059 102.93-55.2246L72.3633-7.27539Q71.5332-5.95703 70.3857-5.32227Q69.2383-4.6875 67.8711-4.6875Z"/>
  </g>
  <g id="Light-L" transform="matrix(1 0 0 1 1079.18 1556)">
   <path class="multicolor-0:systemBlueColor hierarchical-0:tertiary SFSymbolsPreview007AFF" d="M73.9258 27.3926Q84.2285 27.3926 93.6035 24.1943Q102.979 20.9961 110.815 15.2344Q118.652 9.47266 124.438 1.63574Q130.225-6.20117 133.423-15.5762Q136.621-24.9512 136.621-35.2539Q136.621-45.5566 133.423-54.9316Q130.225-64.3066 124.438-72.1436Q118.652-79.9805 110.815-85.7666Q102.979-91.5527 93.6035-94.751Q84.2285-97.9492 73.877-97.9492Q63.5742-97.9492 54.2236-94.751Q44.873-91.5527 37.0361-85.7666Q29.1992-79.9805 23.4131-72.1436Q17.627-64.3066 14.4531-54.9316Q11.2793-45.5566 11.2793-35.2539Q11.2793-24.9512 14.4775-15.5762Q17.6758-6.20117 23.4375 1.63574Q29.1992 9.47266 37.0361 15.2344Q44.873 20.9961 54.248 24.1943Q63.623 27.3926 73.9258 27.3926Z"/>
   <path class="multicolor-1:white hierarchical-1:primary SFSymbolsPreviewFFFFFF" d="M67.041-4.93164Q65.9668-4.93164 65.1123-5.37109Q64.2578-5.81055 63.4766-6.83594L45.7031-27.9297Q45.2148-28.5645 44.9463-29.248Q44.6777-29.9316 44.6777-30.6641Q44.6777-32.0801 45.6543-33.0566Q46.6309-34.0332 47.998-34.0332Q48.877-34.0332 49.6338-33.667Q50.3906-33.3008 51.0742-32.3242L66.8457-13.3301L96.875-60.5469Q97.4609-61.4258 98.2422-61.9141Q99.0234-62.4023 99.8535-62.4023Q101.172-62.4023 102.222-61.499Q103.271-60.5957 103.271-59.2285Q103.271-58.5938 102.979-57.8857Q102.686-57.1777 102.344-56.5918L70.459-6.83594Q69.8242-5.9082 68.9453-5.41992Q68.0664-4.93164 67.041-4.93164Z"/>
  </g>
  <g id="Thin-L" transform="matrix(1 0 0 1 783.693 1556)">
   <path class="multicolor-0:systemBlueColor hierarchical-0:tertiary SFSymbolsPreview007AFF" d="M72.7051 26.1719Q82.8613 26.1719 92.041 23.0469Q101.221 19.9219 108.911 14.2822Q116.602 8.64258 122.266 0.952148Q127.93-6.73828 131.055-15.9424Q134.18-25.1465 134.18-35.2539Q134.18-45.4102 131.055-54.5898Q127.93-63.7695 122.29-71.46Q116.65-79.1504 108.936-84.8145Q101.221-90.4785 92.0166-93.6035Q82.8125-96.7285 72.7051-96.7285Q62.5488-96.7285 53.3691-93.6035Q44.1895-90.4785 36.499-84.8145Q28.8086-79.1504 23.1689-71.46Q17.5293-63.7695 14.4043-54.5898Q11.2793-45.4102 11.2793-35.2539Q11.2793-25.1465 14.4043-15.9424Q17.5293-6.73828 23.1689 0.952148Q28.8086 8.64258 36.5234 14.2822Q44.2383 19.9219 53.418 23.0469Q62.5977 26.1719 72.7051 26.1719Z"/>
   <path class="multicolor-1:white hierarchical-1:primary SFSymbolsPreviewFFFFFF" d="M66.0156-5.27344Q65.3809-5.27344 64.917-5.51758Q64.4531-5.76172 64.0137-6.29883L44.6777-28.6621Q44.4336-29.0527 44.2383-29.4922Q44.043-29.9316 44.043-30.3711Q44.043-31.2012 44.6289-31.7627Q45.2148-32.3242 45.9961-32.3242Q46.582-32.3242 47.0459-32.1045Q47.5098-31.8848 47.8516-31.4453L65.918-10.4492L98.291-60.7422Q98.6328-61.2305 99.1211-61.5234Q99.6094-61.8164 100.098-61.8164Q100.879-61.8164 101.489-61.2305Q102.1-60.6445 102.1-59.8633Q102.1-59.5703 101.953-59.1553Q101.807-58.7402 101.66-58.4473L67.9688-6.29883Q67.5781-5.81055 67.0898-5.54199Q66.6016-5.27344 66.0156-5.27344Z"/>
  </g>
  <g id="Ultralight-L" transform="matrix(1 0 0 1 487.592 1556)">
   <path class="multicolor-0:systemBlueColor hierarchical-0:tertiary SFSymbolsPreview007AFF" d="M72.0703 25.5371Q82.1289 25.5371 91.2354 22.4609Q100.342 19.3848 107.935 13.7939Q115.527 8.20312 121.143 0.585938Q126.758-7.03125 129.858-16.1133Q132.959-25.1953 132.959-35.2539Q132.959-45.3125 129.858-54.4189Q126.758-63.5254 121.167-71.1182Q115.576-78.7109 107.959-84.3262Q100.342-89.9414 91.2354-93.0176Q82.1289-96.0938 72.0703-96.0938Q62.0605-96.0938 52.9541-93.0176Q43.8477-89.9414 36.2305-84.3262Q28.6133-78.7109 23.0225-71.1182Q17.4316-63.5254 14.3555-54.4189Q11.2793-45.3125 11.2793-35.2539Q11.2793-25.1953 14.3555-16.1133Q17.4316-7.03125 23.0225 0.585938Q28.6133 8.20312 36.2305 13.7939Q43.8477 19.3848 52.9541 22.4609Q62.0605 25.5371 72.0703 25.5371Z"/>
   <path class="multicolor-1:white hierarchical-1:primary SFSymbolsPreviewFFFFFF" d="M65.4297-5.41992Q64.9902-5.41992 64.7217-5.56641Q64.4531-5.71289 64.209-6.00586L44.0918-29.0039Q43.9453-29.2969 43.7988-29.5898Q43.6523-29.8828 43.6523-30.1758Q43.6523-30.7617 44.0674-31.1035Q44.4824-31.4453 44.9219-31.4453Q45.3125-31.4453 45.6299-31.2988Q45.9473-31.1523 46.1426-30.9082L65.3809-8.98438L98.9258-60.791Q99.1699-61.084 99.5117-61.2793Q99.8535-61.4746 100.146-61.4746Q100.635-61.4746 101.025-61.0596Q101.416-60.6445 101.416-60.2051Q101.416-60.0586 101.367-59.79Q101.318-59.5215 101.221-59.375L66.6504-6.00586Q66.4062-5.76172 66.1133-5.59082Q65.8203-5.41992 65.4297-5.41992Z"/>
  </g>
  <g id="Black-M" transform="matrix(1 0 0 1 2871.32 1126)">
   <path class="multicolor-0:systemBlueColor hierarchical-0:tertiary SFSymbolsPreview007AFF" d="M62.0605 18.1152Q73.0957 18.1152 82.7637 13.9648Q92.4316 9.81445 99.7559 2.46582Q107.08-4.88281 111.255-14.5264Q115.43-24.1699 115.43-35.2051Q115.43-46.2402 111.255-55.8838Q107.08-65.5273 99.7559-72.876Q92.4316-80.2246 82.7637-84.375Q73.0957-88.5254 62.0605-88.5254Q51.0742-88.5254 41.4062-84.375Q31.7383-80.2246 24.3896-72.876Q17.041-65.5273 12.8906-55.8838Q8.74023-46.2402 8.74023-35.2051Q8.74023-24.1699 12.8906-14.5264Q17.041-4.88281 24.3896 2.46582Q31.7383 9.81445 41.4062 13.9648Q51.0742 18.1152 62.0605 18.1152Z"/>
   <path class="multicolor-1:white hierarchical-1:primary SFSymbolsPreviewFFFFFF" d="M56.7383-10.1074Q54.7363-10.1074 53.125-11.0107Q51.5137-11.9141 50.1465-13.4766L39.502-25.7812Q38.3789-27.0996 37.9395-28.2227Q37.5-29.3457 37.5-30.6641Q37.5-33.5449 39.5752-35.5225Q41.6504-37.5 44.4336-37.5Q46.0449-37.5 47.29-36.8408Q48.5352-36.1816 49.6094-34.9609L56.7383-26.8555L73.9258-53.8574Q76.4648-57.8125 80.0293-57.8125Q82.8613-57.8125 84.9854-55.9082Q87.1094-54.0039 87.1094-51.2207Q87.1094-50.1953 86.7676-49.0479Q86.4258-47.9004 85.6445-46.7773L63.2324-13.623Q62.0605-12.0117 60.376-11.0596Q58.6914-10.1074 56.7383-10.1074Z"/>
  </g>
  <g id="Heavy-M" transform="matrix(1 0 0 1 2575.43 1126)">
   <path class="multicolor-0:systemBlueColor hierarchical-0:tertiary SFSymbolsPreview007AFF" d="M61.2305 17.2852Q72.0703 17.2852 81.5918 13.1836Q91.1133 9.08203 98.3154 1.85547Q105.518-5.37109 109.644-14.8682Q113.77-24.3652 113.77-35.2051Q113.77-46.0449 109.644-55.542Q105.518-65.0391 98.3154-72.29Q91.1133-79.541 81.5918-83.6182Q72.0703-87.6953 61.2305-87.6953Q50.4395-87.6953 40.918-83.6182Q31.3965-79.541 24.1699-72.29Q16.9434-65.0391 12.8418-55.542Q8.74023-46.0449 8.74023-35.2051Q8.74023-24.3652 12.8418-14.8682Q16.9434-5.37109 24.1699 1.85547Q31.3965 9.08203 40.918 13.1836Q50.4395 17.2852 61.2305 17.2852Z"/>
   <path class="multicolor-1:white hierarchical-1:primary SFSymbolsPreviewFFFFFF" d="M55.9082-10.4004Q54.0527-10.4004 52.5879-11.2061Q51.123-12.0117 49.8535-13.5254L38.8184-26.4648Q37.8418-27.6367 37.4268-28.6865Q37.0117-29.7363 37.0117-30.957Q37.0117-33.5449 38.8672-35.3516Q40.7227-37.1582 43.2129-37.1582Q44.7266-37.1582 45.874-36.5479Q47.0215-35.9375 48.0469-34.7168L55.8594-25.4883L73.877-54.0039Q76.1719-57.5684 79.3945-57.5684Q81.9336-57.5684 83.8623-55.8838Q85.791-54.1992 85.791-51.6602Q85.791-50.6836 85.4248-49.6094Q85.0586-48.5352 84.375-47.5098L61.8164-13.623Q60.7422-12.1094 59.2041-11.2549Q57.666-10.4004 55.9082-10.4004Z"/>
  </g>
  <g id="Bold-M" transform="matrix(1 0 0 1 2279.65 1126)">
   <path class="multicolor-0:systemBlueColor hierarchical-0:tertiary SFSymbolsPreview007AFF" d="M60.3027 16.3574Q70.9473 16.3574 80.2734 12.3291Q89.5996 8.30078 96.7041 1.17188Q103.809-5.95703 107.861-15.2832Q111.914-24.6094 111.914-35.2539Q111.914-45.8496 107.861-55.1758Q103.809-64.502 96.7041-71.6309Q89.5996-78.7598 80.249-82.7881Q70.8984-86.8164 60.3027-86.8164Q49.707-86.8164 40.3564-82.7881Q31.0059-78.7598 23.9014-71.6309Q16.7969-64.502 12.7686-55.1758Q8.74023-45.8496 8.74023-35.2539Q8.74023-24.6094 12.7686-15.2832Q16.7969-5.95703 23.9258 1.17188Q31.0547 8.30078 40.3809 12.3291Q49.707 16.3574 60.3027 16.3574Z"/>
   <path class="multicolor-1:white hierarchical-1:primary SFSymbolsPreviewFFFFFF" d="M54.9316-10.791Q53.2715-10.791 51.9531-11.499Q50.6348-12.207 49.4629-13.623L38.0371-27.2949Q37.207-28.3203 36.8164-29.2969Q36.4258-30.2734 36.4258-31.3477Q36.4258-33.5938 38.0371-35.1807Q39.6484-36.7676 41.8457-36.7676Q43.2129-36.7676 44.2627-36.2305Q45.3125-35.6934 46.2891-34.4727L54.834-24.0234L73.8281-54.248Q75.7812-57.373 78.6621-57.373Q80.8594-57.373 82.5439-55.9082Q84.2285-54.4434 84.2285-52.1973Q84.2285-51.2695 83.8623-50.293Q83.4961-49.3164 82.9102-48.3887L60.2051-13.7207Q59.2285-12.3047 57.8857-11.5479Q56.543-10.791 54.9316-10.791Z"/>
  </g>
  <g id="Semibold-M" transform="matrix(1 0 0 1 1983.6 1126)">
   <path class="multicolor-0:systemBlueColor hierarchical-0:tertiary SFSymbolsPreview007AFF" d="M59.668 15.6738Q70.1172 15.6738 79.3457 11.6943Q88.5742 7.71484 95.6055 0.683594Q102.637-6.34766 106.616-15.5518Q110.596-24.7559 110.596-35.2539Q110.596-45.7031 106.616-54.9072Q102.637-64.1113 95.6055-71.1426Q88.5742-78.1738 79.3457-82.1777Q70.1172-86.1816 59.6191-86.1816Q49.1699-86.1816 39.9658-82.1777Q30.7617-78.1738 23.7305-71.1426Q16.6992-64.1113 12.7197-54.9072Q8.74023-45.7031 8.74023-35.2539Q8.74023-24.7559 12.7197-15.5518Q16.6992-6.34766 23.7305 0.683594Q30.7617 7.71484 39.9902 11.6943Q49.2188 15.6738 59.668 15.6738Z"/>
   <path class="multicolor-1:white hierarchical-1:primary SFSymbolsPreviewFFFFFF" d="M54.248-11.0352Q52.7344-11.0352 51.5137-11.6943Q50.293-12.3535 49.2188-13.6719L37.4512-27.8809Q36.7676-28.7598 36.4014-29.6875Q36.0352-30.6152 36.0352-31.5918Q36.0352-33.6426 37.4512-35.083Q38.8672-36.5234 40.918-36.5234Q42.1387-36.5234 43.1152-36.0107Q44.0918-35.498 45.0684-34.2773L54.1016-22.998L73.7793-54.3945Q75.5371-57.1777 78.125-57.1777Q80.0781-57.1777 81.6406-55.9082Q83.2031-54.6387 83.2031-52.5879Q83.2031-51.6602 82.8125-50.7324Q82.4219-49.8047 81.8848-48.9746L59.082-13.7207Q58.2031-12.4512 56.958-11.7432Q55.7129-11.0352 54.248-11.0352Z"/>
  </g>
  <g id="Medium-M" transform="matrix(1 0 0 1 1687.38 1126)">
   <path class="multicolor-0:systemBlueColor hierarchical-0:tertiary SFSymbolsPreview007AFF" d="M59.1797 15.1855Q69.5312 15.1855 78.6621 11.2305Q87.793 7.27539 94.751 0.317383Q101.709-6.64062 105.664-15.7715Q109.619-24.9023 109.619-35.2539Q109.619-45.6055 105.664-54.7363Q101.709-63.8672 94.751-70.8252Q87.793-77.7832 78.6377-81.7383Q69.4824-85.6934 59.1309-85.6934Q48.7793-85.6934 39.6484-81.7383Q30.5176-77.7832 23.584-70.8252Q16.6504-63.8672 12.6953-54.7363Q8.74023-45.6055 8.74023-35.2539Q8.74023-24.9023 12.6953-15.7715Q16.6504-6.64062 23.6084 0.317383Q30.5664 7.27539 39.6973 11.2305Q48.8281 15.1855 59.1797 15.1855Z"/>
   <path class="multicolor-1:white hierarchical-1:primary SFSymbolsPreviewFFFFFF" d="M53.7598-11.1816Q52.3438-11.1816 51.2207-11.792Q50.0977-12.4023 49.0234-13.7207L37.0605-28.2715Q36.4258-29.1016 36.084-29.9561Q35.7422-30.8105 35.7422-31.7383Q35.7422-33.5938 37.0361-34.9365Q38.3301-36.2793 40.1855-36.2793Q41.3574-36.2793 42.2852-35.791Q43.2129-35.3027 44.1895-34.082L53.5645-22.168L73.7793-54.4922Q75.3418-57.0312 77.7344-57.0312Q79.541-57.0312 80.957-55.8594Q82.373-54.6875 82.373-52.7832Q82.373-51.9531 82.0068-51.0498Q81.6406-50.1465 81.1035-49.3652L58.252-13.7207Q57.4219-12.5 56.2744-11.8408Q55.127-11.1816 53.7598-11.1816Z"/>
  </g>
  <g id="Regular-M" transform="matrix(1 0 0 1 1391.3 1126)">
   <path class="multicolor-0:systemBlueColor hierarchical-0:tertiary SFSymbolsPreview007AFF" d="M58.5449 14.5508Q68.75 14.5508 77.7588 10.6445Q86.7676 6.73828 93.6523-0.146484Q100.537-7.03125 104.443-16.04Q108.35-25.0488 108.35-35.2539Q108.35-45.459 104.443-54.4678Q100.537-63.4766 93.6523-70.3613Q86.7676-77.2461 77.7344-81.1523Q68.7012-85.0586 58.4961-85.0586Q48.291-85.0586 39.2822-81.1523Q30.2734-77.2461 23.4131-70.3613Q16.5527-63.4766 12.6465-54.4678Q8.74023-45.459 8.74023-35.2539Q8.74023-25.0488 12.6465-16.04Q16.5527-7.03125 23.4375-0.146484Q30.3223 6.73828 39.3311 10.6445Q48.3398 14.5508 58.5449 14.5508Z"/>
   <path class="multicolor-1:white hierarchical-1:primary SFSymbolsPreviewFFFFFF" d="M53.0762-11.4258Q51.8066-11.4258 50.7812-11.9629Q49.7559-12.5 48.7793-13.7695L36.5234-28.8086Q35.9863-29.541 35.6689-30.3467Q35.3516-31.1523 35.3516-31.9824Q35.3516-33.6426 36.4746-34.8389Q37.5977-36.0352 39.2578-36.0352Q40.332-36.0352 41.1865-35.5957Q42.041-35.1562 42.9688-33.9355L52.8809-21.1426L73.7305-54.6387Q75.0977-56.8848 77.2461-56.8848Q78.8086-56.8848 80.0781-55.8838Q81.3477-54.8828 81.3477-53.1738Q81.3477-52.3438 80.957-51.5137Q80.5664-50.6836 80.127-49.9512L57.1777-13.7695Q56.3965-12.5977 55.3711-12.0117Q54.3457-11.4258 53.0762-11.4258Z"/>
  </g>
  <g id="Light-M" transform="matrix(1 0 0 1 1095.42 1126)">
   <path class="multicolor-0:systemBlueColor hierarchical-0:tertiary SFSymbolsPreview007AFF" d="M57.7148 13.7207Q67.7734 13.7207 76.6357 9.8877Q85.498 6.05469 92.2607-0.708008Q99.0234-7.4707 102.856-16.333Q106.689-25.1953 106.689-35.2539Q106.689-45.3125 102.856-54.1748Q99.0234-63.0371 92.2607-69.7998Q85.498-76.5625 76.6113-80.3955Q67.7246-84.2285 57.666-84.2285Q47.6074-84.2285 38.7451-80.3955Q29.8828-76.5625 23.1445-69.7998Q16.4062-63.0371 12.5732-54.1748Q8.74023-45.3125 8.74023-35.2539Q8.74023-25.1953 12.5732-16.333Q16.4062-7.4707 23.1689-0.708008Q29.9316 6.05469 38.7939 9.8877Q47.6562 13.7207 57.7148 13.7207Z"/>
   <path class="multicolor-1:white hierarchical-1:primary SFSymbolsPreviewFFFFFF" d="M52.3438-11.6699Q51.3672-11.6699 50.5859-12.0605Q49.8047-12.4512 49.0723-13.4277L35.791-29.3457Q35.3516-29.9316 35.1074-30.542Q34.8633-31.1523 34.8633-31.7871Q34.8633-33.1055 35.7422-34.0088Q36.6211-34.9121 37.8418-34.9121Q38.7207-34.9121 39.3799-34.5703Q40.0391-34.2285 40.7227-33.3496L52.1973-19.2383L74.6094-54.7852Q75.7324-56.4941 77.3438-56.4941Q78.5156-56.4941 79.4922-55.7129Q80.4688-54.9316 80.4688-53.6133Q80.4688-53.0273 80.2002-52.3926Q79.9316-51.7578 79.5898-51.2207L55.4688-13.4277Q54.834-12.5488 54.0771-12.1094Q53.3203-11.6699 52.3438-11.6699Z"/>
  </g>
  <g id="Thin-M" transform="matrix(1 0 0 1 799.782 1126)">
   <path class="multicolor-0:systemBlueColor hierarchical-0:tertiary SFSymbolsPreview007AFF" d="M56.5918 12.5977Q66.5039 12.5977 75.1709 8.88672Q83.8379 5.17578 90.4297-1.44043Q97.0215-8.05664 100.781-16.7236Q104.541-25.3906 104.541-35.2539Q104.541-45.1172 100.781-53.7842Q97.0215-62.4512 90.4297-69.0674Q83.8379-75.6836 75.1709-79.3945Q66.5039-83.1055 56.5918-83.1055Q46.7285-83.1055 38.0615-79.3945Q29.3945-75.6836 22.8271-69.0674Q16.2598-62.4512 12.5-53.7842Q8.74023-45.1172 8.74023-35.2539Q8.74023-25.3906 12.4756-16.7236Q16.2109-8.05664 22.8027-1.44043Q29.3945 5.17578 38.0859 8.88672Q46.7773 12.5977 56.5918 12.5977Z"/>
   <path class="multicolor-1:white hierarchical-1:primary SFSymbolsPreviewFFFFFF" d="M51.416-11.9629Q50.7812-11.9629 50.3662-12.1826Q49.9512-12.4023 49.5117-12.9395L34.8633-29.9805Q34.6191-30.3223 34.4482-30.7129Q34.2773-31.1035 34.2773-31.543Q34.2773-32.3242 34.8145-32.8369Q35.3516-33.3496 36.084-33.3496Q36.6211-33.3496 37.0117-33.1543Q37.4023-32.959 37.793-32.4707L51.3184-16.6504L75.8789-54.9316Q76.6113-55.957 77.5391-55.957Q78.2227-55.957 78.8086-55.4443Q79.3945-54.9316 79.3945-54.1992Q79.3945-53.8574 79.248-53.4912Q79.1016-53.125 78.9551-52.832L53.2715-12.9395Q52.8809-12.4512 52.417-12.207Q51.9531-11.9629 51.416-11.9629Z"/>
  </g>
  <g id="Ultralight-M" transform="matrix(1 0 0 1 503.632 1126)">
   <path class="multicolor-0:systemBlueColor hierarchical-0:tertiary SFSymbolsPreview007AFF" d="M56.0547 12.0605Q65.8203 12.0605 74.3896 8.37402Q82.959 4.6875 89.4775-1.83105Q95.9961-8.34961 99.707-16.9189Q103.418-25.4883 103.418-35.2539Q103.418-45.0195 99.707-53.5889Q95.9961-62.1582 89.4775-68.6768Q82.959-75.1953 74.3896-78.8818Q65.8203-82.5684 56.0547-82.5684Q46.2891-82.5684 37.7197-78.8818Q29.1504-75.1953 22.6562-68.6768Q16.1621-62.1582 12.4512-53.5889Q8.74023-45.0195 8.74023-35.2539Q8.74023-25.4883 12.4268-16.9189Q16.1133-8.34961 22.6318-1.83105Q29.1504 4.6875 37.7197 8.37402Q46.2891 12.0605 56.0547 12.0605Z"/>
   <path class="multicolor-1:white hierarchical-1:primary SFSymbolsPreviewFFFFFF" d="M50.8789-12.1094Q50.4883-12.1094 50.2197-12.2314Q49.9512-12.3535 49.6582-12.6953L34.375-30.3223Q34.1797-30.6152 34.0576-30.8594Q33.9355-31.1035 33.9355-31.3965Q33.9355-31.9336 34.3018-32.2754Q34.668-32.6172 35.1074-32.6172Q35.498-32.6172 35.7666-32.4951Q36.0352-32.373 36.2793-32.0801L50.8301-15.332L76.4648-55.0781Q77.0508-55.7129 77.5879-55.7129Q78.0273-55.7129 78.418-55.3223Q78.8086-54.9316 78.8086-54.4922Q78.8086-54.2969 78.7354-54.0527Q78.6621-53.8086 78.5645-53.6621L52.0996-12.6953Q51.8066-12.4512 51.5381-12.2803Q51.2695-12.1094 50.8789-12.1094Z"/>
  </g>
  <g id="Black-S" transform="matrix(1 0 0 1 2884.57 696)">
   <path class="multicolor-0:systemBlueColor hierarchical-0:tertiary SFSymbolsPreview007AFF" d="M48.8281 6.78711Q57.5195 6.78711 65.1123 3.51562Q72.7051 0.244141 78.4912-5.54199Q84.2773-11.3281 87.5488-18.9209Q90.8203-26.5137 90.8203-35.2051Q90.8203-43.8965 87.5488-51.4893Q84.2773-59.082 78.4912-64.8682Q72.7051-70.6543 65.1123-73.9258Q57.5195-77.1973 48.8281-77.1973Q40.1367-77.1973 32.5439-73.9258Q24.9512-70.6543 19.165-64.8682Q13.3789-59.082 10.1074-51.4893Q6.83594-43.8965 6.83594-35.2051Q6.83594-26.5137 10.1074-18.9209Q13.3789-11.3281 19.165-5.54199Q24.9512 0.244141 32.5439 3.51562Q40.1367 6.78711 48.8281 6.78711Z"/>
   <path class="multicolor-1:white hierarchical-1:primary SFSymbolsPreviewFFFFFF" d="M44.6777-15.4297Q43.0664-15.4297 41.7725-16.1621Q40.4785-16.8945 39.4043-18.1152L31.1035-27.6367Q29.4922-29.4922 29.4922-31.543Q29.4922-33.8379 31.1768-35.4248Q32.8613-37.0117 35.1074-37.0117Q36.377-37.0117 37.3779-36.499Q38.3789-35.9863 39.209-35.0586L44.6777-28.9551L57.959-49.7559Q60.0098-52.9297 62.8906-52.9297Q65.1855-52.9297 66.8945-51.416Q68.6035-49.9023 68.6035-47.6074Q68.6035-46.8262 68.3594-45.9229Q68.1152-45.0195 67.4316-44.0918L49.8535-18.2617Q47.8516-15.4297 44.6777-15.4297Z"/>
  </g>
  <g id="Heavy-S" transform="matrix(1 0 0 1 2588.47 696)">
   <path class="multicolor-0:systemBlueColor hierarchical-0:tertiary SFSymbolsPreview007AFF" d="M48.1934 6.15234Q56.7871 6.15234 64.2578 2.92969Q71.7285-0.292969 77.4414-6.00586Q83.1543-11.7188 86.377-19.1895Q89.5996-26.6602 89.5996-35.2051Q89.5996-43.75 86.377-51.2451Q83.1543-58.7402 77.4414-64.4531Q71.7285-70.166 64.2334-73.3887Q56.7383-76.6113 48.1934-76.6113Q39.6484-76.6113 32.1777-73.3887Q24.707-70.166 18.9941-64.4531Q13.2812-58.7402 10.0586-51.2451Q6.83594-43.75 6.83594-35.2051Q6.83594-26.6602 10.0586-19.1895Q13.2812-11.7188 18.9941-6.00586Q24.707-0.292969 32.2021 2.92969Q39.6973 6.15234 48.1934 6.15234Z"/>
   <path class="multicolor-1:white hierarchical-1:primary SFSymbolsPreviewFFFFFF" d="M43.9941-15.6738Q42.5293-15.6738 41.3086-16.3574Q40.0879-17.041 39.0625-18.2617L30.5664-28.2227Q29.1016-29.9316 29.1016-31.8359Q29.1016-33.9355 30.6152-35.4004Q32.1289-36.8652 34.2285-36.8652Q35.4004-36.8652 36.3525-36.4014Q37.3047-35.9375 38.1348-34.9609L43.9453-28.0762L57.7637-49.9023Q59.6191-52.832 62.3047-52.832Q64.4043-52.832 65.9668-51.4648Q67.5293-50.0977 67.5293-47.9492Q67.5293-47.2168 67.2607-46.3379Q66.9922-45.459 66.3574-44.5801L48.8281-18.3594Q46.9727-15.6738 43.9941-15.6738Z"/>
  </g>
  <g id="Bold-S" transform="matrix(1 0 0 1 2292.42 696)">
   <path class="multicolor-0:systemBlueColor hierarchical-0:tertiary SFSymbolsPreview007AFF" d="M47.5586 5.46875Q55.957 5.46875 63.3057 2.29492Q70.6543-0.878906 76.2695-6.51855Q81.8848-12.1582 85.083-19.5068Q88.2812-26.8555 88.2812-35.2539Q88.2812-43.6035 85.083-50.9766Q81.8848-58.3496 76.2695-63.9648Q70.6543-69.5801 63.2812-72.7539Q55.9082-75.9277 47.5098-75.9277Q39.1602-75.9277 31.7871-72.7539Q24.4141-69.5801 18.8232-63.9648Q13.2324-58.3496 10.0342-50.9766Q6.83594-43.6035 6.83594-35.2539Q6.83594-26.8555 10.0342-19.5068Q13.2324-12.1582 18.8477-6.51855Q24.4629-0.878906 31.8115 2.29492Q39.1602 5.46875 47.5586 5.46875Z"/>
   <path class="multicolor-1:white hierarchical-1:primary SFSymbolsPreviewFFFFFF" d="M43.3105-15.9668Q41.9434-15.9668 40.8203-16.5771Q39.6973-17.1875 38.7207-18.3594L30.0293-28.8086Q28.7109-30.4199 28.7109-32.1777Q28.7109-34.082 30.0537-35.4004Q31.3965-36.7188 33.3008-36.7188Q34.375-36.7188 35.2783-36.2793Q36.1816-35.8398 36.9629-34.8145L43.2129-27.0508L57.666-50.0977Q59.2773-52.6855 61.6699-52.6855Q63.5254-52.6855 64.9658-51.4893Q66.4062-50.293 66.4062-48.3398Q66.4062-47.6074 66.0889-46.7773Q65.7715-45.9473 65.2344-45.1172L47.7539-18.457Q46.0938-15.9668 43.3105-15.9668Z"/>
  </g>
  <g id="Semibold-S" transform="matrix(1 0 0 1 1996.2 696)">
   <path class="multicolor-0:systemBlueColor hierarchical-0:tertiary SFSymbolsPreview007AFF" d="M47.0703 4.98047Q55.3711 4.98047 62.6465 1.85547Q69.9219-1.26953 75.4639-6.86035Q81.0059-12.4512 84.1553-19.7266Q87.3047-27.002 87.3047-35.2539Q87.3047-43.5059 84.1553-50.7812Q81.0059-58.0566 75.4395-63.623Q69.873-69.1895 62.5977-72.3389Q55.3223-75.4883 47.0215-75.4883Q38.7695-75.4883 31.4941-72.3389Q24.2188-69.1895 18.6768-63.623Q13.1348-58.0566 9.98535-50.7812Q6.83594-43.5059 6.83594-35.2539Q6.83594-27.002 9.98535-19.7266Q13.1348-12.4512 18.7012-6.86035Q24.2676-1.26953 31.543 1.85547Q38.8184 4.98047 47.0703 4.98047Z"/>
   <path class="multicolor-1:white hierarchical-1:primary SFSymbolsPreviewFFFFFF" d="M42.8223-16.1133Q41.5039-16.1133 40.4541-16.6748Q39.4043-17.2363 38.4766-18.4082L29.6387-29.1992Q28.418-30.7129 28.418-32.373Q28.418-34.082 29.6387-35.3271Q30.8594-36.5723 32.6172-36.5723Q33.6426-36.5723 34.4971-36.1572Q35.3516-35.7422 36.1328-34.668L42.6758-26.3184L57.5195-50.1465Q58.9844-52.5391 61.2305-52.5391Q62.8906-52.5391 64.2334-51.4648Q65.5762-50.3906 65.5762-48.584Q65.5762-47.8027 65.2344-47.0215Q64.8926-46.2402 64.4043-45.459L46.9238-18.457Q45.4102-16.1133 42.8223-16.1133Z"/>
  </g>
  <g id="Medium-S" transform="matrix(1 0 0 1 1699.83 696)">
   <path class="multicolor-0:systemBlueColor hierarchical-0:tertiary SFSymbolsPreview007AFF" d="M46.7285 4.63867Q54.9316 4.63867 62.1338 1.51367Q69.3359-1.61133 74.8535-7.12891Q80.3711-12.6465 83.4961-19.8486Q86.6211-27.0508 86.6211-35.2539Q86.6211-43.4082 83.4961-50.6348Q80.3711-57.8613 74.8291-63.3789Q69.2871-68.8965 62.085-71.9971Q54.8828-75.0977 46.6797-75.0977Q38.4766-75.0977 31.2744-71.9971Q24.0723-68.8965 18.5791-63.3789Q13.0859-57.8613 9.96094-50.6348Q6.83594-43.4082 6.83594-35.2539Q6.83594-27.0508 9.96094-19.8486Q13.0859-12.6465 18.6035-7.12891Q24.1211-1.61133 31.3232 1.51367Q38.5254 4.63867 46.7285 4.63867Z"/>
   <path class="multicolor-1:white hierarchical-1:primary SFSymbolsPreviewFFFFFF" d="M42.4316-16.2109Q41.2598-16.2109 40.2344-16.7725Q39.209-17.334 38.2812-18.457L29.3457-29.4922Q28.2227-30.9082 28.2227-32.5195Q28.2227-34.1309 29.3457-35.3027Q30.4688-36.4746 32.1289-36.4746Q33.1055-36.4746 33.9355-36.0596Q34.7656-35.6445 35.5469-34.6191L42.2852-25.7812L57.4707-50.1953Q58.8379-52.4414 60.8887-52.4414Q62.4512-52.4414 63.7207-51.4404Q64.9902-50.4395 64.9902-48.7305Q64.9902-47.998 64.6484-47.2168Q64.3066-46.4355 63.8184-45.7031L46.3867-18.5059Q44.9219-16.2109 42.4316-16.2109Z"/>
  </g>
  <g id="Regular-S" transform="matrix(1 0 0 1 1403.58 696)">
   <path class="multicolor-0:systemBlueColor hierarchical-0:tertiary SFSymbolsPreview007AFF" d="M46.2402 4.15039Q54.3457 4.15039 61.4746 1.07422Q68.6035-2.00195 74.0479-7.4707Q79.4922-12.9395 82.5928-20.0684Q85.6934-27.1973 85.6934-35.2539Q85.6934-43.3105 82.5928-50.4395Q79.4922-57.5684 74.0234-63.0371Q68.5547-68.5059 61.4258-71.582Q54.2969-74.6582 46.1914-74.6582Q38.1348-74.6582 31.0059-71.582Q23.877-68.5059 18.457-63.0371Q13.0371-57.5684 9.93652-50.4395Q6.83594-43.3105 6.83594-35.2539Q6.83594-27.1973 9.93652-20.0684Q13.0371-12.9395 18.4814-7.4707Q23.9258-2.00195 31.0547 1.07422Q38.1836 4.15039 46.2402 4.15039Z"/>
   <path class="multicolor-1:white hierarchical-1:primary SFSymbolsPreviewFFFFFF" d="M41.9434-16.4062Q40.8203-16.4062 39.8682-16.9189Q38.916-17.4316 38.0371-18.5547L28.9551-29.9316Q27.9297-31.25 27.9297-32.7637Q27.9297-34.2285 28.9307-35.3027Q29.9316-36.377 31.4453-36.377Q32.373-36.377 33.1543-35.9863Q33.9355-35.5957 34.7168-34.5215L41.748-25.0977L57.3242-50.3418Q58.5449-52.3438 60.4492-52.3438Q61.8652-52.3438 63.0127-51.4648Q64.1602-50.5859 64.1602-49.0234Q64.1602-48.291 63.7939-47.5342Q63.4277-46.7773 63.0371-46.0938L45.6055-18.5547Q44.2871-16.4062 41.9434-16.4062Z"/>
  </g>
  <g id="Light-S" transform="matrix(1 0 0 1 1107.6 696)">
   <path class="multicolor-0:systemBlueColor hierarchical-0:tertiary SFSymbolsPreview007AFF" d="M45.5078 3.41797Q53.4668 3.41797 60.4736 0.415039Q67.4805-2.58789 72.8271-7.95898Q78.1738-13.3301 81.2012-20.3125Q84.2285-27.2949 84.2285-35.2539Q84.2285-43.2129 81.2012-50.1953Q78.1738-57.1777 72.8027-62.5488Q67.4316-67.9199 60.4492-70.9229Q53.4668-73.9258 45.459-73.9258Q37.5488-73.9258 30.542-70.9229Q23.5352-67.9199 18.2129-62.5488Q12.8906-57.1777 9.86328-50.1953Q6.83594-43.2129 6.83594-35.2539Q6.83594-27.2949 9.86328-20.3125Q12.8906-13.3301 18.2373-7.95898Q23.584-2.58789 30.5908 0.415039Q37.5977 3.41797 45.5078 3.41797Z"/>
   <path class="multicolor-1:white hierarchical-1:primary SFSymbolsPreviewFFFFFF" d="M41.2598-16.6016Q40.3809-16.6016 39.6729-16.9922Q38.9648-17.3828 38.2812-18.2617L28.3203-30.3711Q27.4902-31.4453 27.4902-32.5684Q27.4902-33.7402 28.2715-34.5459Q29.0527-35.3516 30.2246-35.3516Q30.957-35.3516 31.543-35.0586Q32.1289-34.7656 32.7148-33.9355L41.1133-23.3887L58.1055-50.4395Q59.082-52.002 60.5469-52.002Q61.6211-52.002 62.5-51.2939Q63.3789-50.5859 63.3789-49.4141Q63.3789-48.877 63.1104-48.291Q62.8418-47.7051 62.5488-47.2168L44.0918-18.2617Q43.0176-16.6016 41.2598-16.6016Z"/>
  </g>
  <g id="Thin-S" transform="matrix(1 0 0 1 811.867 696)">
   <path class="multicolor-0:systemBlueColor hierarchical-0:tertiary SFSymbolsPreview007AFF" d="M44.5312 2.44141Q52.3438 2.44141 59.1553-0.488281Q65.9668-3.41797 71.1914-8.64258Q76.416-13.8672 79.3457-20.6787Q82.2754-27.4902 82.2754-35.2539Q82.2754-43.0176 79.3457-49.8291Q76.416-56.6406 71.1914-61.8652Q65.9668-67.0898 59.1553-70.0195Q52.3438-72.9492 44.5312-72.9492Q36.7676-72.9492 29.9316-70.0195Q23.0957-67.0898 17.9199-61.8652Q12.7441-56.6406 9.79004-49.8291Q6.83594-43.0176 6.83594-35.2539Q6.83594-27.4902 9.79004-20.6787Q12.7441-13.8672 17.9199-8.64258Q23.0957-3.41797 29.9316-0.488281Q36.7676 2.44141 44.5312 2.44141Z"/>
   <path class="multicolor-1:white hierarchical-1:primary SFSymbolsPreviewFFFFFF" d="M40.4297-16.9434Q39.8926-16.9434 39.4775-17.1631Q39.0625-17.3828 38.6719-17.8711L27.4902-31.0059Q26.9531-31.7383 26.9531-32.4219Q26.9531-33.1055 27.4414-33.5938Q27.9297-34.082 28.6133-34.082Q29.0527-34.082 29.4189-33.9111Q29.7852-33.7402 30.1758-33.252L40.332-21.1914L59.1797-50.6348Q59.8633-51.6113 60.6934-51.6113Q61.3281-51.6113 61.8652-51.1475Q62.4023-50.6836 62.4023-50Q62.4023-49.707 62.2559-49.3652Q62.1094-49.0234 61.9629-48.7305L42.0898-17.8711Q41.4062-16.9434 40.4297-16.9434Z"/>
  </g>
  <g id="Ultralight-S" transform="matrix(1 0 0 1 515.644 696)">
   <path class="multicolor-0:systemBlueColor hierarchical-0:tertiary SFSymbolsPreview007AFF" d="M44.043 1.95312Q51.7578 1.95312 58.4717-0.927734Q65.1855-3.80859 70.3369-8.95996Q75.4883-14.1113 78.3936-20.8252Q81.2988-27.5391 81.2988-35.2539Q81.2988-42.9688 78.3936-49.6826Q75.4883-56.3965 70.3369-61.5479Q65.1855-66.6992 58.4717-69.5801Q51.7578-72.4609 44.043-72.4609Q36.377-72.4609 29.6387-69.5801Q22.9004-66.6992 17.7734-61.5479Q12.6465-56.3965 9.74121-49.6826Q6.83594-42.9688 6.83594-35.2539Q6.83594-27.5391 9.74121-20.8252Q12.6465-14.1113 17.7734-8.95996Q22.9004-3.80859 29.6387-0.927734Q36.377 1.95312 44.043 1.95312Z"/>
   <path class="multicolor-1:white hierarchical-1:primary SFSymbolsPreviewFFFFFF" d="M39.9902-17.0898Q39.5996-17.0898 39.3555-17.2363Q39.1113-17.3828 38.8672-17.6758L27.0508-31.2988Q26.6602-31.8359 26.6602-32.2754Q26.6602-32.7637 27.002-33.0811Q27.3438-33.3984 27.7832-33.3984Q28.125-33.3984 28.3447-33.2764Q28.5645-33.1543 28.8086-32.8613L39.9414-20.0195L59.7168-50.7324Q60.2051-51.3672 60.791-51.3672Q61.1816-51.3672 61.5479-51.0254Q61.9141-50.6836 61.9141-50.2441Q61.9141-50.0977 61.8164-49.8779Q61.7188-49.6582 61.6211-49.4629L41.0645-17.6758Q40.5762-17.0898 39.9902-17.0898Z"/>
  </g>
 </g>
</svg>
