<?xml version="1.0" encoding="UTF-8"?>
<!--Generator: Apple Native CoreSVG 149-->
<!DOCTYPE svg
PUBLIC "-//W3C//DTD SVG 1.1//EN"
       "http://www.w3.org/Graphics/SVG/1.1/DTD/svg11.dtd">
<svg version="1.1" xmlns="http://www.w3.org/2000/svg" xmlns:xlink="http://www.w3.org/1999/xlink" width="3300" height="2200">
 <!--glyph: "uni100884.medium", point size: 100.000000, font version: "Version 16.0d18e1", template writer version: "8"-->
 <g id="Notes">
  <rect height="2200" id="artboard" style="fill:white;opacity:1" width="3300" x="0" y="0"/>
  <line id="" style="fill:none;stroke:black;opacity:1;stroke-width:0.5;" x1="263" x2="3036" y1="292" y2="292"/>
  <text style="stroke:none;fill:black;font-family:-apple-system,&quot;SF Pro Display&quot;,&quot;SF Pro Text&quot;,Helvetica,sans-serif;font-weight:bold;" transform="matrix(1 0 0 1 263 322)">Weight/Scale Variations</text>
  <text style="stroke:none;fill:black;font-family:-apple-system,&quot;SF Pro Display&quot;,&quot;SF Pro Text&quot;,Helvetica,sans-serif;text-anchor:middle;" transform="matrix(1 0 0 1 559.711 322)">Ultralight</text>
  <text style="stroke:none;fill:black;font-family:-apple-system,&quot;SF Pro Display&quot;,&quot;SF Pro Text&quot;,Helvetica,sans-serif;text-anchor:middle;" transform="matrix(1 0 0 1 856.422 322)">Thin</text>
  <text style="stroke:none;fill:black;font-family:-apple-system,&quot;SF Pro Display&quot;,&quot;SF Pro Text&quot;,Helvetica,sans-serif;text-anchor:middle;" transform="matrix(1 0 0 1 1153.13 322)">Light</text>
  <text style="stroke:none;fill:black;font-family:-apple-system,&quot;SF Pro Display&quot;,&quot;SF Pro Text&quot;,Helvetica,sans-serif;text-anchor:middle;" transform="matrix(1 0 0 1 1449.84 322)">Regular</text>
  <text style="stroke:none;fill:black;font-family:-apple-system,&quot;SF Pro Display&quot;,&quot;SF Pro Text&quot;,Helvetica,sans-serif;text-anchor:middle;" transform="matrix(1 0 0 1 1746.56 322)">Medium</text>
  <text style="stroke:none;fill:black;font-family:-apple-system,&quot;SF Pro Display&quot;,&quot;SF Pro Text&quot;,Helvetica,sans-serif;text-anchor:middle;" transform="matrix(1 0 0 1 2043.27 322)">Semibold</text>
  <text style="stroke:none;fill:black;font-family:-apple-system,&quot;SF Pro Display&quot;,&quot;SF Pro Text&quot;,Helvetica,sans-serif;text-anchor:middle;" transform="matrix(1 0 0 1 2339.98 322)">Bold</text>
  <text style="stroke:none;fill:black;font-family:-apple-system,&quot;SF Pro Display&quot;,&quot;SF Pro Text&quot;,Helvetica,sans-serif;text-anchor:middle;" transform="matrix(1 0 0 1 2636.69 322)">Heavy</text>
  <text style="stroke:none;fill:black;font-family:-apple-system,&quot;SF Pro Display&quot;,&quot;SF Pro Text&quot;,Helvetica,sans-serif;text-anchor:middle;" transform="matrix(1 0 0 1 2933.4 322)">Black</text>
  <line id="" style="fill:none;stroke:black;opacity:1;stroke-width:0.5;" x1="263" x2="3036" y1="1903" y2="1903"/>
  <g id="" transform="matrix(1 0 0 1 263 1933)">
   <path d="M9.24805 0.830078C13.5547 0.830078 17.1387-2.74414 17.1387-7.05078C17.1387-11.3574 13.5449-14.9316 9.23828-14.9316C4.94141-14.9316 1.36719-11.3574 1.36719-7.05078C1.36719-2.74414 4.95117 0.830078 9.24805 0.830078ZM9.24805-0.654297C5.70312-0.654297 2.87109-3.49609 2.87109-7.05078C2.87109-10.6055 5.69336-13.4473 9.23828-13.4473C12.793-13.4473 15.6348-10.6055 15.6445-7.05078C15.6543-3.49609 12.8027-0.654297 9.24805-0.654297ZM6.39648-6.31836L8.50586-6.31836L8.50586-4.19922C8.50586-3.75977 8.79883-3.45703 9.22852-3.45703C9.67773-3.45703 9.9707-3.75977 9.9707-4.19922L9.9707-6.31836L12.0996-6.31836C12.5391-6.31836 12.8418-6.61133 12.8418-7.04102C12.8418-7.48047 12.5391-7.7832 12.0996-7.7832L9.9707-7.7832L9.9707-9.89258C9.9707-10.3418 9.67773-10.6445 9.22852-10.6445C8.79883-10.6445 8.50586-10.3418 8.50586-9.89258L8.50586-7.7832L6.39648-7.7832C5.94727-7.7832 5.64453-7.48047 5.64453-7.04102C5.64453-6.61133 5.94727-6.31836 6.39648-6.31836Z"/>
  </g>
  <g id="" transform="matrix(1 0 0 1 281.506 1933)">
   <path d="M11.709 2.91016C17.1582 2.91016 21.6699-1.61133 21.6699-7.05078C21.6699-12.5 17.1484-17.0117 11.6992-17.0117C6.25977-17.0117 1.74805-12.5 1.74805-7.05078C1.74805-1.61133 6.26953 2.91016 11.709 2.91016ZM11.709 1.25C7.09961 1.25 3.41797-2.44141 3.41797-7.05078C3.41797-11.6602 7.08984-15.3516 11.6992-15.3516C16.3086-15.3516 20-11.6602 20.0098-7.05078C20.0195-2.44141 16.3184 1.25 11.709 1.25ZM7.98828-6.23047L10.8789-6.23047L10.8789-3.32031C10.8789-2.83203 11.2109-2.5 11.6895-2.5C12.1777-2.5 12.5195-2.83203 12.5195-3.32031L12.5195-6.23047L15.4297-6.23047C15.918-6.23047 16.25-6.5625 16.25-7.04102C16.25-7.5293 15.918-7.87109 15.4297-7.87109L12.5195-7.87109L12.5195-10.7617C12.5195-11.2695 12.1777-11.6016 11.6895-11.6016C11.2109-11.6016 10.8789-11.2598 10.8789-10.7617L10.8789-7.87109L7.98828-7.87109C7.48047-7.87109 7.14844-7.5293 7.14844-7.04102C7.14844-6.5625 7.49023-6.23047 7.98828-6.23047Z"/>
  </g>
  <g id="" transform="matrix(1 0 0 1 304.924 1933)">
   <path d="M14.9707 5.66406C21.9336 5.66406 27.6953-0.0976562 27.6953-7.05078C27.6953-14.0137 21.9238-19.7754 14.9609-19.7754C8.00781-19.7754 2.25586-14.0137 2.25586-7.05078C2.25586-0.0976562 8.01758 5.66406 14.9707 5.66406ZM14.9707 3.84766C8.93555 3.84766 4.08203-1.01562 4.08203-7.05078C4.08203-13.0957 8.92578-17.9492 14.9609-17.9492C21.0059-17.9492 25.8594-13.0957 25.8691-7.05078C25.8789-1.01562 21.0156 3.84766 14.9707 3.84766ZM10.0586-6.14258L14.0625-6.14258L14.0625-2.12891C14.0625-1.5918 14.4336-1.2207 14.9512-1.2207C15.4883-1.2207 15.8594-1.5918 15.8594-2.12891L15.8594-6.14258L19.8828-6.14258C20.4102-6.14258 20.791-6.51367 20.791-7.03125C20.791-7.56836 20.4199-7.94922 19.8828-7.94922L15.8594-7.94922L15.8594-11.9531C15.8594-12.5098 15.4883-12.8809 14.9512-12.8809C14.4336-12.8809 14.0625-12.5 14.0625-11.9531L14.0625-7.94922L10.0586-7.94922C9.50195-7.94922 9.13086-7.56836 9.13086-7.03125C9.13086-6.51367 9.51172-6.14258 10.0586-6.14258Z"/>
  </g>
  <text style="stroke:none;fill:black;font-family:-apple-system,&quot;SF Pro Display&quot;,&quot;SF Pro Text&quot;,Helvetica,sans-serif;font-weight:bold;" transform="matrix(1 0 0 1 263 1953)">Design Variations</text>
  <text style="stroke:none;fill:black;font-family:-apple-system,&quot;SF Pro Display&quot;,&quot;SF Pro Text&quot;,Helvetica,sans-serif;" transform="matrix(1 0 0 1 263 1971)">Symbols are supported in up to nine weights and three scales.</text>
  <text style="stroke:none;fill:black;font-family:-apple-system,&quot;SF Pro Display&quot;,&quot;SF Pro Text&quot;,Helvetica,sans-serif;" transform="matrix(1 0 0 1 263 1989)">For optimal layout with text and other symbols, vertically align</text>
  <text style="stroke:none;fill:black;font-family:-apple-system,&quot;SF Pro Display&quot;,&quot;SF Pro Text&quot;,Helvetica,sans-serif;" transform="matrix(1 0 0 1 263 2007)">symbols with the adjacent text.</text>
  <line id="" style="fill:none;stroke:#00AEEF;stroke-width:0.5;opacity:1.0;" x1="776" x2="776" y1="1919" y2="1933"/>
  <g id="" transform="matrix(1 0 0 1 776 1933)">
   <path d="M3.31055 0.126953C3.82812 0.126953 4.08203-0.0683594 4.26758-0.605469L5.52734-4.0625L11.2891-4.0625L12.5488-0.605469C12.7344-0.0683594 12.9883 0.126953 13.4961 0.126953C14.0137 0.126953 14.3457-0.185547 14.3457-0.673828C14.3457-0.839844 14.3164-0.986328 14.2383-1.20117L9.6582-13.3887C9.43359-13.9941 9.0332-14.2871 8.4082-14.2871C7.80273-14.2871 7.39258-13.9941 7.17773-13.3984L2.59766-1.19141C2.51953-0.976562 2.49023-0.830078 2.49023-0.664062C2.49023-0.175781 2.80273 0.126953 3.31055 0.126953ZM6.00586-5.53711L8.37891-12.1094L8.42773-12.1094L10.8008-5.53711Z"/>
  </g>
  <line id="" style="fill:none;stroke:#00AEEF;stroke-width:0.5;opacity:1.0;" x1="792.836" x2="792.836" y1="1919" y2="1933"/>
  <text style="stroke:none;fill:black;font-family:-apple-system,&quot;SF Pro Display&quot;,&quot;SF Pro Text&quot;,Helvetica,sans-serif;font-weight:bold;" transform="matrix(1 0 0 1 776 1953)">Margins</text>
  <text style="stroke:none;fill:black;font-family:-apple-system,&quot;SF Pro Display&quot;,&quot;SF Pro Text&quot;,Helvetica,sans-serif;" transform="matrix(1 0 0 1 776 1971)">Leading and trailing margins on the left and right side of each symbol</text>
  <text style="stroke:none;fill:black;font-family:-apple-system,&quot;SF Pro Display&quot;,&quot;SF Pro Text&quot;,Helvetica,sans-serif;" transform="matrix(1 0 0 1 776 1989)">can be adjusted by modifying the x-location of the margin guidelines.</text>
  <text style="stroke:none;fill:black;font-family:-apple-system,&quot;SF Pro Display&quot;,&quot;SF Pro Text&quot;,Helvetica,sans-serif;" transform="matrix(1 0 0 1 776 2007)">Modifications are automatically applied proportionally to all</text>
  <text style="stroke:none;fill:black;font-family:-apple-system,&quot;SF Pro Display&quot;,&quot;SF Pro Text&quot;,Helvetica,sans-serif;" transform="matrix(1 0 0 1 776 2025)">scales and weights.</text>
  <g id="" transform="matrix(1 0 0 1 1289 1933)">
   <path d="M2.8418 1.86523L4.54102 3.57422C5.40039 4.44336 6.38672 4.38477 7.31445 3.35938L17.4902-7.85156C17.7539-7.76367 18.0273-7.7832 18.3398-7.8418L19.4043-8.03711L20.0684-7.36328L20.0293-6.80664C19.9902-6.30859 20.1172-5.92773 20.6055-5.44922L21.3672-4.70703C21.8457-4.22852 22.4609-4.19922 22.9297-4.66797L25.8398-7.58789C26.3086-8.05664 26.2891-8.65234 25.8105-9.13086L25.0391-9.89258C24.5605-10.3711 24.1895-10.5273 23.7109-10.4883L23.1348-10.4395L22.4902-11.0742L22.7344-12.1973C22.8613-12.7637 22.7051-13.2031 22.1191-13.7891L19.9219-15.9766C16.582-19.2969 12.1484-19.2188 9.25781-16.3281C8.83789-15.918 8.80859-15.3418 9.04297-14.9512C9.27734-14.5898 9.73633-14.3555 10.3809-14.5215C11.8457-14.8633 13.3691-14.9219 14.7949-13.9844L14.209-12.5293C14.0137-12.0508 13.9844-11.6504 14.1113-11.2891L3.04688-0.898438C2.06055 0.0195312 1.98242 0.996094 2.8418 1.86523ZM10.752-15.957C13.1836-17.7344 16.4746-17.4316 18.7012-15.2051L21.1328-12.793C21.3672-12.5586 21.4062-12.373 21.3379-12.0312L21.0156-10.5469L22.5195-9.0625L23.5059-9.12109C23.7598-9.13086 23.8379-9.11133 24.0332-8.91602L24.6094-8.33984L22.168-5.89844L21.5918-6.47461C21.3965-6.66992 21.3672-6.74805 21.377-7.01172L21.4453-7.98828L19.9512-9.47266L18.4277-9.21875C18.1055-9.15039 17.959-9.17969 17.7148-9.41406L15.7129-11.416C15.459-11.6504 15.4297-11.8164 15.5859-12.1875L16.4648-14.2773C14.9023-15.7324 12.8711-16.3574 10.8398-15.7617C10.6836-15.7227 10.625-15.8496 10.752-15.957ZM5.27344 2.30469L4.10156 1.14258C3.63281 0.683594 3.74023 0.341797 4.14062-0.0195312L14.9512-10.1953L16.416-8.71094L6.42578 2.27539C6.07422 2.67578 5.74219 2.77344 5.27344 2.30469Z"/>
  </g>
  <text style="stroke:none;fill:black;font-family:-apple-system,&quot;SF Pro Display&quot;,&quot;SF Pro Text&quot;,Helvetica,sans-serif;font-weight:bold;" transform="matrix(1 0 0 1 1289 1953)">Exporting</text>
  <text style="stroke:none;fill:black;font-family:-apple-system,&quot;SF Pro Display&quot;,&quot;SF Pro Text&quot;,Helvetica,sans-serif;" transform="matrix(1 0 0 1 1289 1971)">Symbols should be outlined when exporting to ensure the</text>
  <text style="stroke:none;fill:black;font-family:-apple-system,&quot;SF Pro Display&quot;,&quot;SF Pro Text&quot;,Helvetica,sans-serif;" transform="matrix(1 0 0 1 1289 1989)">design is preserved when submitting to Xcode.</text>
  <text id="template-version" style="stroke:none;fill:black;font-family:-apple-system,&quot;SF Pro Display&quot;,&quot;SF Pro Text&quot;,Helvetica,sans-serif;text-anchor:end;" transform="matrix(1 0 0 1 3036 1933)">Template v.2.0</text>
  <text style="stroke:none;fill:black;font-family:-apple-system,&quot;SF Pro Display&quot;,&quot;SF Pro Text&quot;,Helvetica,sans-serif;text-anchor:end;" transform="matrix(1 0 0 1 3036 1951)">Requires Xcode 12 or greater</text>
  <text style="stroke:none;fill:black;font-family:-apple-system,&quot;SF Pro Display&quot;,&quot;SF Pro Text&quot;,Helvetica,sans-serif;text-anchor:end;" transform="matrix(1 0 0 1 3036 1969)">Generated from xmark.diamond.fill</text>
  <text style="stroke:none;fill:black;font-family:-apple-system,&quot;SF Pro Display&quot;,&quot;SF Pro Text&quot;,Helvetica,sans-serif;text-anchor:end;" transform="matrix(1 0 0 1 3036 1987)">Typeset at 100 points</text>
  <text style="stroke:none;fill:black;font-family:-apple-system,&quot;SF Pro Display&quot;,&quot;SF Pro Text&quot;,Helvetica,sans-serif;" transform="matrix(1 0 0 1 263 726)">Small</text>
  <text style="stroke:none;fill:black;font-family:-apple-system,&quot;SF Pro Display&quot;,&quot;SF Pro Text&quot;,Helvetica,sans-serif;" transform="matrix(1 0 0 1 263 1156)">Medium</text>
  <text style="stroke:none;fill:black;font-family:-apple-system,&quot;SF Pro Display&quot;,&quot;SF Pro Text&quot;,Helvetica,sans-serif;" transform="matrix(1 0 0 1 263 1586)">Large</text>
 </g>
 <g id="Guides">
  <g id="H-reference" style="fill:#27AAE1;stroke:none;" transform="matrix(1 0 0 1 339 696)">
   <path d="M0.976562 0L3.66211 0L12.9883-24.4629L45.752-24.4629L55.127 0L57.7637 0L30.6152-70.459L28.125-70.459ZM29.3457-67.1387L29.4434-67.1387L44.873-26.709L13.8672-26.709Z"/>
  </g>
  <line id="Baseline-S" style="fill:none;stroke:#27AAE1;opacity:1;stroke-width:0.5;" x1="263" x2="3036" y1="696" y2="696"/>
  <line id="Capline-S" style="fill:none;stroke:#27AAE1;opacity:1;stroke-width:0.5;" x1="263" x2="3036" y1="625.541" y2="625.541"/>
  <g id="H-reference" style="fill:#27AAE1;stroke:none;" transform="matrix(1 0 0 1 339 1126)">
   <path d="M0.976562 0L3.66211 0L12.9883-24.4629L45.752-24.4629L55.127 0L57.7637 0L30.6152-70.459L28.125-70.459ZM29.3457-67.1387L29.4434-67.1387L44.873-26.709L13.8672-26.709Z"/>
  </g>
  <line id="Baseline-M" style="fill:none;stroke:#27AAE1;opacity:1;stroke-width:0.5;" x1="263" x2="3036" y1="1126" y2="1126"/>
  <line id="Capline-M" style="fill:none;stroke:#27AAE1;opacity:1;stroke-width:0.5;" x1="263" x2="3036" y1="1055.54" y2="1055.54"/>
  <g id="H-reference" style="fill:#27AAE1;stroke:none;" transform="matrix(1 0 0 1 339 1556)">
   <path d="M0.976562 0L3.66211 0L12.9883-24.4629L45.752-24.4629L55.127 0L57.7637 0L30.6152-70.459L28.125-70.459ZM29.3457-67.1387L29.4434-67.1387L44.873-26.709L13.8672-26.709Z"/>
  </g>
  <line id="Baseline-L" style="fill:none;stroke:#27AAE1;opacity:1;stroke-width:0.5;" x1="263" x2="3036" y1="1556" y2="1556"/>
  <line id="Capline-L" style="fill:none;stroke:#27AAE1;opacity:1;stroke-width:0.5;" x1="263" x2="3036" y1="1485.54" y2="1485.54"/>
  <line id="left-margin" style="fill:none;stroke:#00AEEF;stroke-width:0.5;opacity:1.0;" x1="1384.46" x2="1384.46" y1="1030.79" y2="1150.12"/>
  <line id="right-margin" style="fill:none;stroke:#00AEEF;stroke-width:0.5;opacity:1.0;" x1="1515.23" x2="1515.23" y1="1030.79" y2="1150.12"/>
 </g>
 <g id="Symbols">
  <g id="Black-L" transform="matrix(1 0 0 1 2844.63 1556)">
   <path d="M20.9473-18.3594L71.875 32.5195C82.666 43.3594 94.873 43.3594 105.664 32.6172L156.641-18.4082C167.432-29.1992 167.383-41.3574 156.592-52.1973L105.713-103.076C94.873-113.867 82.666-113.916 71.9238-103.125L20.8984-52.1484C10.1074-41.3574 10.1562-29.1504 20.9473-18.3594ZM69.5312-7.4707C64.6973-7.4707 60.9863-11.1816 60.9863-16.1133C60.9863-18.2617 61.9141-20.4102 63.5742-22.0215L76.6113-35.1074L63.5742-48.2422C61.9141-49.8535 60.9863-52.002 60.9863-54.1504C60.9863-59.082 64.6973-62.7441 69.5312-62.7441C72.168-62.7441 74.2188-61.9629 75.8789-60.2539L88.8184-47.3633L101.855-60.3027C103.564-62.0117 105.566-62.793 108.154-62.793C113.037-62.793 116.748-59.082 116.748-54.1992C116.748-52.0508 115.82-49.9023 114.16-48.291L101.123-35.1074L114.111-22.0215C115.771-20.4102 116.699-18.2617 116.699-16.1133C116.699-11.1816 112.988-7.4707 108.154-7.4707C105.518-7.4707 103.467-8.30078 101.758-9.96094L88.8184-22.8027L75.9277-9.96094C74.2188-8.25195 72.168-7.4707 69.5312-7.4707Z"/>
  </g>
  <g id="Heavy-L" transform="matrix(1 0 0 1 2549.16 1556)">
   <path d="M20.6543-19.1895L71.4355 31.5918C81.8359 41.9922 93.2617 41.9922 103.564 31.6895L154.492-19.2383C164.795-29.541 164.795-41.0156 154.395-51.3672L103.613-102.148C93.2617-112.5 81.8359-112.549 71.4844-102.197L20.5566-51.3184C10.2539-40.9668 10.3027-29.541 20.6543-19.1895ZM67.5781-7.66602C63.2812-7.66602 59.9609-10.9863 59.9609-15.332C59.9609-17.2852 60.791-19.1895 62.2559-20.6055L76.7578-35.1562L62.2559-49.6582C60.791-51.123 59.9609-53.0273 59.9609-54.9316C59.9609-59.2773 63.2812-62.5488 67.5781-62.5488C69.873-62.5488 71.6797-61.8652 73.1445-60.3516L87.5488-45.9473L102.051-60.3516C103.613-61.9141 105.371-62.5977 107.666-62.5977C111.914-62.5977 115.234-59.3262 115.234-54.9805C115.234-53.0273 114.453-51.1719 112.939-49.707L98.4863-35.1562L112.939-20.6543C114.404-19.1895 115.234-17.2852 115.234-15.332C115.234-10.9863 111.914-7.66602 107.568-7.66602C105.273-7.66602 103.467-8.44727 101.953-9.91211L87.5488-24.2676L73.2422-9.91211C71.7285-8.39844 69.873-7.66602 67.5781-7.66602Z"/>
  </g>
  <g id="Bold-L" transform="matrix(1 0 0 1 2253.84 1556)">
   <path d="M20.3125-20.1172L70.9961 30.5664C80.8594 40.4297 91.4551 40.4785 101.27 30.6641L152.051-20.166C161.865-29.9805 161.865-40.5762 152.002-50.4395L101.318-101.074C91.4551-110.986 80.9082-111.035 71.0449-101.172L20.2148-50.3906C10.3516-40.5273 10.4492-29.9805 20.3125-20.1172ZM65.332-7.91016C61.7188-7.91016 58.8379-10.791 58.8379-14.502C58.8379-16.1621 59.5215-17.8223 60.791-19.043L76.9043-35.1562L60.791-51.2695C59.5215-52.5391 58.8379-54.1504 58.8379-55.8105C58.8379-59.5215 61.7188-62.3535 65.332-62.3535C67.334-62.3535 68.8477-61.7188 70.1172-60.4004L86.1328-44.4336L102.295-60.4492C103.662-61.8164 105.127-62.4023 107.031-62.4023C110.693-62.4023 113.574-59.5703 113.574-55.9082C113.574-54.1992 112.891-52.6367 111.621-51.3184L95.5078-35.1562L111.572-19.0918C112.842-17.8223 113.525-16.2109 113.525-14.502C113.525-10.791 110.693-7.91016 106.982-7.91016C105.029-7.91016 103.467-8.59375 102.148-9.86328L86.1328-25.8301L70.2148-9.86328C68.8965-8.54492 67.334-7.91016 65.332-7.91016Z"/>
  </g>
  <g id="Semibold-L" transform="matrix(1 0 0 1 1958.09 1556)">
   <path d="M20.0684-20.752L70.6543 29.8828C80.1758 39.4043 90.1855 39.4531 99.6582 29.9805L150.391-20.8008C159.863-30.2734 159.863-40.2832 150.342-49.8047L99.7559-100.391C90.1855-109.912 80.2246-109.961 70.752-100.488L19.9707-49.707C10.4492-40.2344 10.5469-30.2734 20.0684-20.752ZM63.8184-8.10547C60.5957-8.10547 58.0566-10.6445 58.0566-13.916C58.0566-15.4297 58.6914-16.8457 59.8145-17.9688L77.002-35.1562L59.8145-52.3926C58.6914-53.5156 58.0566-54.9316 58.0566-56.4453C58.0566-59.7168 60.5957-62.1582 63.8184-62.1582C65.5273-62.1582 66.8945-61.6699 68.0176-60.498L85.2051-43.3594L102.49-60.5469C103.662-61.7188 104.98-62.2559 106.641-62.2559C109.863-62.2559 112.402-59.7168 112.402-56.4941C112.402-54.9805 111.865-53.6133 110.693-52.4414L93.457-35.1562L110.645-17.9688C111.768-16.8457 112.354-15.4297 112.354-13.916C112.354-10.6445 109.814-8.10547 106.543-8.10547C104.883-8.10547 103.467-8.69141 102.295-9.81445L85.2051-26.9531L68.1152-9.81445C66.9434-8.64258 65.5273-8.10547 63.8184-8.10547Z"/>
  </g>
  <g id="Medium-L" transform="matrix(1 0 0 1 1662.11 1556)">
   <path d="M19.873-21.1914L70.4102 29.2969C79.6875 38.5742 89.2578 38.623 98.4375 29.4434L149.17-21.2891C158.35-30.4688 158.35-40.0391 149.072-49.3164L98.5352-99.8535C89.2578-109.131 79.7363-109.18 70.5078-99.9512L19.7754-49.2188C10.5469-39.9902 10.5957-30.4688 19.873-21.1914ZM62.6953-8.20312C59.7656-8.20312 57.4707-10.5469 57.4707-13.4766C57.4707-14.8438 58.0078-16.1133 59.0332-17.1387L77.0508-35.1562L59.0332-53.2227C58.0078-54.248 57.4707-55.5176 57.4707-56.8848C57.4707-59.8145 59.7656-62.0605 62.6953-62.0605C64.209-62.0605 65.3809-61.5723 66.4062-60.5469L84.4727-42.5293L102.588-60.5957C103.711-61.6699 104.883-62.1582 106.348-62.1582C109.229-62.1582 111.523-59.8633 111.523-56.9824C111.523-55.5664 111.035-54.3457 109.961-53.2715L91.8945-35.1562L109.912-17.1875C110.938-16.1133 111.475-14.8926 111.475-13.4766C111.475-10.5469 109.18-8.20312 106.25-8.20312C104.736-8.20312 103.467-8.78906 102.441-9.76562L84.4727-27.7832L66.5527-9.76562C65.4785-8.74023 64.209-8.20312 62.6953-8.20312Z"/>
  </g>
  <g id="Regular-L" transform="matrix(1 0 0 1 1366.35 1556)">
   <path d="M19.6777-21.8262L70.1172 28.6133C79.0527 37.5488 88.0371 37.5977 96.875 28.7598L147.51-21.9238C156.348-30.7617 156.348-39.7461 147.412-48.6816L96.9727-99.1211C88.0371-108.105 79.1016-108.154 70.2148-99.2188L19.4824-48.584C10.5957-39.6973 10.6934-30.7617 19.6777-21.8262ZM61.1816-8.39844C58.6914-8.39844 56.6895-10.4004 56.6895-12.8906C56.6895-14.0625 57.1777-15.1855 58.0566-16.0645L77.1484-35.2051L58.0566-54.2969C57.1777-55.1758 56.6895-56.2988 56.6895-57.5195C56.6895-60.0098 58.6914-61.9141 61.1816-61.9141C62.4512-61.9141 63.4766-61.4746 64.3066-60.5957L83.4961-41.4551L102.783-60.6445C103.711-61.5723 104.736-62.0117 105.908-62.0117C108.398-62.0117 110.4-60.0586 110.4-57.6172C110.4-56.3477 109.961-55.3711 109.033-54.3945L89.8926-35.2051L108.984-16.1133C109.863-15.1855 110.352-14.1113 110.352-12.8906C110.352-10.4004 108.35-8.39844 105.811-8.39844C104.59-8.39844 103.467-8.88672 102.588-9.76562L83.4961-28.8574L64.4531-9.76562C63.5742-8.83789 62.4512-8.39844 61.1816-8.39844Z"/>
  </g>
  <g id="Light-L" transform="matrix(1 0 0 1 1070.76 1556)">
   <path d="M19.2383-22.5586L69.7266 27.9297C78.125 36.3281 86.7676 36.2793 95.0684 27.9785L145.557-22.6074C153.857-30.9082 154.004-39.5508 145.605-47.998L95.166-98.3887C86.6699-106.885 78.1738-106.836 69.7754-98.4375L19.1406-47.9004C10.7422-39.502 10.791-31.0059 19.2383-22.5586ZM59.8145-9.17969C57.8613-9.17969 56.2988-10.6934 56.2988-12.6465C56.2988-13.5742 56.6406-14.4043 57.373-15.1367L77.4414-35.2051L57.373-55.2246C56.6406-55.957 56.2988-56.7871 56.2988-57.7637C56.2988-59.668 57.8613-61.1328 59.8145-61.1328C60.8398-61.1328 61.6211-60.8398 62.3535-60.0586L82.373-40.0879L102.393-60.0586C103.223-60.8887 104.004-61.2305 104.98-61.2305C106.885-61.2305 108.447-59.7168 108.447-57.8125C108.447-56.8359 108.154-56.0547 107.373-55.2734L87.3047-35.2051L107.324-15.1855C108.057-14.4043 108.398-13.623 108.398-12.6465C108.398-10.6934 106.885-9.17969 104.883-9.17969C103.906-9.17969 103.076-9.57031 102.295-10.3027L82.373-30.2734L62.4512-10.3027C61.6699-9.52148 60.8398-9.17969 59.8145-9.17969Z"/>
  </g>
  <g id="Thin-L" transform="matrix(1 0 0 1 775.563 1556)">
   <path d="M18.6523-23.5352L69.1895 27.002C76.9043 34.7168 85.0586 34.5703 92.6758 27.002L143.018-23.5352C150.635-31.1035 150.928-39.2578 143.164-47.0215L92.7246-97.4609C84.9121-105.273 76.9043-105.127 69.1895-97.4121L18.6523-47.0215C10.9375-39.2578 10.9375-31.25 18.6523-23.5352ZM58.0078-10.2051C56.7383-10.2051 55.8105-11.1328 55.8105-12.2559C55.8105-12.9395 56.0059-13.4277 56.543-13.9648L77.7832-35.2051L56.543-56.4453C56.0059-56.9824 55.8105-57.4707 55.8105-58.1055C55.8105-59.2773 56.7383-60.1562 58.0078-60.1562C58.7402-60.1562 59.1309-59.9609 59.7168-59.3262L80.8594-38.2324L101.953-59.3262C102.588-59.9609 103.027-60.1562 103.711-60.1562C104.932-60.1562 105.908-59.2773 105.908-58.1055C105.908-57.4707 105.713-56.9824 105.127-56.4453L83.8867-35.2051L105.127-13.9648C105.664-13.4277 105.859-12.9395 105.859-12.2559C105.859-11.1328 104.932-10.2051 103.662-10.2051C103.027-10.2051 102.539-10.4492 101.904-11.0352L80.8594-32.1289L59.7656-11.0352C59.1309-10.4004 58.7402-10.2051 58.0078-10.2051Z"/>
  </g>
  <g id="Ultralight-L" transform="matrix(1 0 0 1 479.633 1556)">
   <path d="M18.3594-24.0234L68.8965 26.5137C76.2695 33.8867 84.2285 33.6914 91.4551 26.4648L141.748-23.9746C148.975-31.2012 149.316-39.1602 141.943-46.5332L91.5039-96.9727C84.0332-104.443 76.2695-104.248 68.8965-96.875L18.4082-46.5332C10.9863-39.1602 10.9863-31.3965 18.3594-24.0234ZM57.0801-10.7422C56.2012-10.7422 55.5176-11.3281 55.5176-12.1094C55.5176-12.5977 55.6641-12.8906 56.1035-13.3301L77.9297-35.2051L56.1035-57.0312C55.6641-57.4707 55.5176-57.8125 55.5176-58.252C55.5176-59.0332 56.2012-59.6191 57.0801-59.6191C57.6172-59.6191 57.8613-59.5215 58.3984-58.9844L80.0781-37.3047L101.709-58.9844C102.246-59.4727 102.539-59.6191 103.027-59.6191C103.906-59.6191 104.59-59.0332 104.59-58.252C104.59-57.7637 104.443-57.4707 104.004-57.0312L82.1777-35.2051L104.004-13.3301C104.443-12.8906 104.59-12.5977 104.59-12.1094C104.59-11.3281 103.906-10.7422 103.076-10.7422C102.588-10.7422 102.246-10.8887 101.758-11.4258L80.0781-33.0566L58.3984-11.4258C57.8613-10.8887 57.6172-10.7422 57.0801-10.7422Z"/>
  </g>
  <g id="Black-M" transform="matrix(1 0 0 1 2863.5 1126)">
   <path d="M16.4551-21.4355L56.0547 18.1641C64.7461 26.8555 75.0488 26.8555 83.7402 18.1641L123.291-21.4355C131.982-30.127 132.031-40.3809 123.34-49.0723L83.7402-88.6719C75.0488-97.3633 64.7461-97.3633 56.0547-88.6719L16.5039-49.1211C7.8125-40.4297 7.76367-30.127 16.4551-21.4355ZM55.8105-13.8184C51.6113-13.8184 48.4375-17.041 48.4375-21.2891C48.4375-23.1445 49.2188-25 50.6836-26.416L59.3262-35.1562L50.6836-43.8477C49.2188-45.2637 48.4375-47.1191 48.4375-48.9746C48.4375-53.2227 51.6113-56.4453 55.8105-56.4453C58.1543-56.4453 59.9121-55.7617 61.4258-54.248L69.9219-45.752L78.4668-54.248C79.9316-55.7617 81.7383-56.4453 84.0332-56.4453C88.2812-56.4453 91.4551-53.2227 91.4551-48.9746C91.4551-47.1191 90.625-45.2637 89.209-43.8477L80.6152-35.1562L89.209-26.416C90.625-25 91.4551-23.1445 91.4551-21.2891C91.4551-17.041 88.2812-13.8184 84.0332-13.8184C81.7383-13.8184 79.9805-14.502 78.4668-16.0156L69.9219-24.4629L61.4258-16.0156C59.9121-14.502 58.1543-13.8184 55.8105-13.8184Z"/>
  </g>
  <g id="Heavy-M" transform="matrix(1 0 0 1 2567.87 1126)">
   <path d="M16.2598-22.1191L55.7129 17.334C64.0625 25.6836 73.584 25.6836 81.9336 17.3828L121.436-22.168C129.785-30.4688 129.785-40.0391 121.436-48.3887L81.9336-87.8418C73.6328-96.1914 64.0625-96.1914 55.7129-87.8906L16.2109-48.3398C7.86133-40.0391 7.91016-30.4688 16.2598-22.1191ZM54.0527-13.8672C50.293-13.8672 47.4121-16.748 47.4121-20.5566C47.4121-22.168 48.1445-23.877 49.4141-25.0977L59.4238-35.1562L49.4141-45.2148C48.1445-46.4355 47.4121-48.0957 47.4121-49.7559C47.4121-53.5645 50.293-56.3965 54.0527-56.3965C56.0547-56.3965 57.6172-55.8105 58.9844-54.4434L68.8477-44.5801L78.7598-54.4922C80.127-55.8105 81.6895-56.4453 83.6914-56.4453C87.4512-56.4453 90.332-53.5645 90.332-49.7559C90.332-48.1445 89.5996-46.4844 88.3301-45.2148L78.3691-35.1562L88.3301-25.0977C89.5996-23.877 90.332-22.2168 90.332-20.5566C90.332-16.748 87.4512-13.8672 83.6914-13.8672C81.6406-13.8672 80.0781-14.502 78.7109-15.8203L68.8477-25.6348L58.9844-15.8203C57.666-14.502 56.0547-13.8672 54.0527-13.8672Z"/>
  </g>
  <g id="Bold-M" transform="matrix(1 0 0 1 2272.35 1126)">
   <path d="M15.9668-22.9492L55.3223 16.4062C63.2812 24.3652 72.0215 24.4141 79.9316 16.4551L119.385-22.998C127.295-30.9082 127.246-39.6484 119.287-47.6074L79.9805-86.9141C72.0215-94.873 63.2812-94.9219 55.3711-86.9629L15.918-47.5586C7.95898-39.5996 8.00781-30.9082 15.9668-22.9492ZM52.002-13.916C48.7793-13.916 46.2891-16.4062 46.2891-19.6777C46.2891-21.1426 46.9238-22.5586 47.998-23.6328L59.5215-35.1562L47.998-46.6797C46.9238-47.7539 46.2891-49.2188 46.2891-50.6348C46.2891-53.9062 48.7793-56.3965 52.002-56.3965C53.7598-56.3965 55.0781-55.8594 56.2012-54.6875L67.627-43.3105L79.1504-54.7363C80.3223-55.9082 81.6406-56.4453 83.3496-56.4453C86.5723-56.4453 89.0625-53.9551 89.0625-50.6836C89.0625-49.2188 88.4766-47.8516 87.3535-46.7285L75.8789-35.1562L87.3047-23.6816C88.4277-22.5586 89.0625-21.1426 89.0625-19.6777C89.0625-16.4062 86.5234-13.916 83.3008-13.916C81.5918-13.916 80.1758-14.4531 79.0527-15.5762L67.627-26.9531L56.2988-15.5762C55.127-14.4531 53.7598-13.916 52.002-13.916Z"/>
  </g>
  <g id="Semibold-M" transform="matrix(1 0 0 1 1976.45 1126)">
   <path d="M15.8203-23.4863L55.0293 15.7715C62.7441 23.4375 70.8984 23.4863 78.5156 15.8691L117.92-23.5352C125.586-31.2012 125.537-39.3555 117.871-47.0215L78.6133-86.2793C70.8984-93.9941 62.793-94.043 55.127-86.377L15.7227-46.9727C8.05664-39.3066 8.10547-31.1523 15.8203-23.4863ZM50.6348-13.916C47.7539-13.916 45.5078-16.2109 45.5078-19.0918C45.5078-20.4102 46.0449-21.6797 47.0703-22.6562L59.5703-35.1562L47.0703-47.7051C46.0449-48.6816 45.5078-49.9512 45.5078-51.2695C45.5078-54.1504 47.7539-56.3477 50.6348-56.3477C52.1484-56.3477 53.3203-55.9082 54.2969-54.8828L66.7969-42.4316L79.3945-54.9316C80.4688-55.957 81.6406-56.4453 83.1055-56.4453C85.9375-56.4453 88.1836-54.1992 88.1836-51.3184C88.1836-50 87.6953-48.7793 86.6699-47.7539L74.1211-35.1562L86.6211-22.6562C87.5977-21.6797 88.1348-20.4102 88.1348-19.0918C88.1348-16.2109 85.9375-13.916 83.0078-13.916C81.543-13.916 80.2734-14.4531 79.248-15.4297L66.7969-27.8809L54.3945-15.4297C53.418-14.4043 52.1484-13.916 50.6348-13.916Z"/>
  </g>
  <g id="Medium-M" transform="matrix(1 0 0 1 1680.37 1126)">
   <path d="M15.6738-23.9258L54.834 15.2832C62.3535 22.7539 70.0684 22.8027 77.4902 15.3809L116.846-23.9746C124.268-31.3965 124.219-39.1113 116.748-46.6309L77.5879-85.791C70.0684-93.3105 62.3535-93.3594 54.9316-85.8887L15.5273-46.5332C8.10547-39.1113 8.1543-31.3965 15.6738-23.9258ZM49.5605-13.9648C46.9727-13.9648 44.9219-16.0156 44.9219-18.6523C44.9219-19.8242 45.4102-20.9961 46.2891-21.875L59.6191-35.2051L46.2891-48.4863C45.4102-49.3652 44.9219-50.5371 44.9219-51.709C44.9219-54.3457 46.9727-56.3477 49.5605-56.3477C50.9277-56.3477 52.002-55.9082 52.8809-55.0293L66.1621-41.748L79.5898-55.0781C80.5664-56.0059 81.5918-56.4453 82.9102-56.4453C85.498-56.4453 87.5488-54.3945 87.5488-51.8066C87.5488-50.5859 87.0605-49.5117 86.1328-48.5352L72.8027-35.2051L86.1328-21.9238C87.0117-20.9961 87.5-19.873 87.5-18.6523C87.5-16.0156 85.4492-13.9648 82.8125-13.9648C81.4941-13.9648 80.3223-14.4531 79.4434-15.332L66.1621-28.5645L52.9785-15.332C52.0996-14.4043 50.9277-13.9648 49.5605-13.9648Z"/>
  </g>
  <g id="Regular-M" transform="matrix(1 0 0 1 1384.46 1126)">
   <path d="M15.4785-24.4629L54.5898 14.6484C61.8164 21.875 68.9453 21.9238 76.123 14.7949L115.43-24.5605C122.559-31.6895 122.51-38.8672 115.283-46.0938L76.2207-85.1562C68.9941-92.3828 61.8652-92.4805 54.6875-85.3027L15.332-45.9961C8.1543-38.8184 8.25195-31.6895 15.4785-24.4629ZM48.1934-13.9648C45.9473-13.9648 44.1895-15.8203 44.1895-18.0664C44.1895-19.1406 44.5801-20.1172 45.3613-20.8984L59.668-35.2051L45.3613-49.5117C44.5801-50.293 44.1895-51.2695 44.1895-52.3438C44.1895-54.5898 45.9473-56.3477 48.1934-56.3477C49.3164-56.3477 50.2441-55.957 50.9766-55.1758L65.3809-40.8691L79.834-55.2246C80.6641-56.0547 81.5918-56.4453 82.666-56.4453C84.8633-56.4453 86.6699-54.6387 86.6699-52.4414C86.6699-51.3184 86.2793-50.4395 85.498-49.5605L71.1426-35.2051L85.4492-20.9473C86.1816-20.1172 86.6211-19.1895 86.6211-18.0664C86.6211-15.8203 84.8145-13.9648 82.5684-13.9648C81.4453-13.9648 80.4199-14.4531 79.6387-15.1855L65.3809-29.4922L51.123-15.1855C50.3418-14.4043 49.3164-13.9648 48.1934-13.9648Z"/>
  </g>
  <g id="Light-M" transform="matrix(1 0 0 1 1088.78 1126)">
   <path d="M15.0879-25.0977L54.1992 14.0137C60.9863 20.8008 67.8223 20.8008 74.4629 14.1113L113.672-25.1465C120.361-31.8359 120.41-38.6719 113.672-45.4102L74.5605-84.5215C67.7734-91.3086 60.9863-91.3086 54.2969-84.5703L14.9902-45.3613C8.30078-38.623 8.34961-31.8359 15.0879-25.0977ZM46.9727-14.6973C45.2148-14.6973 43.7988-16.0645 43.7988-17.8223C43.7988-18.7012 44.1406-19.4336 44.7754-20.0684L59.9121-35.2051L44.7754-50.3418C44.1406-50.9766 43.7988-51.709 43.7988-52.5879C43.7988-54.2969 45.2148-55.6641 46.9727-55.6641C47.9004-55.6641 48.584-55.3711 49.2188-54.6875L64.3555-39.5996L79.541-54.7363C80.2246-55.4199 80.9082-55.7129 81.7871-55.7129C83.5449-55.7129 84.9121-54.3457 84.9121-52.6367C84.9121-51.7578 84.6191-51.0742 83.9844-50.3418L68.7988-35.2051L83.9355-20.1172C84.5703-19.4336 84.9121-18.7012 84.9121-17.8223C84.9121-16.0645 83.4961-14.6973 81.7383-14.6973C80.8105-14.6973 80.0781-15.0391 79.3945-15.6738L64.3555-30.7617L49.3164-15.6738C48.6328-14.9902 47.9004-14.6973 46.9727-14.6973Z"/>
  </g>
  <g id="Thin-M" transform="matrix(1 0 0 1 793.434 1126)">
   <path d="M14.5996-25.9277L53.7109 13.1836C59.8633 19.3359 66.3086 19.2383 72.3145 13.2324L111.426-25.9766C117.432-31.9824 117.627-38.4277 111.475-44.5801L72.4121-83.6426C66.2109-89.8438 59.8633-89.7461 53.7598-83.6426L14.5508-44.5312C8.44727-38.4277 8.44727-32.0801 14.5996-25.9277ZM45.3613-15.625C44.2383-15.625 43.3594-16.4551 43.3594-17.5293C43.3594-18.0664 43.5547-18.5547 43.9941-18.9941L60.2051-35.2051L43.9941-51.416C43.5547-51.8555 43.3594-52.2949 43.3594-52.8809C43.3594-53.9551 44.2383-54.7363 45.3613-54.7363C45.9961-54.7363 46.3867-54.5898 46.875-54.0527L62.9883-37.9883L79.1016-54.1016C79.6387-54.5898 80.0781-54.7852 80.6641-54.7852C81.7383-54.7852 82.6172-53.9551 82.6172-52.8809C82.6172-52.2949 82.4219-51.9043 81.9824-51.416L65.7715-35.2051L81.9824-18.9941C82.4219-18.5547 82.6172-18.1152 82.6172-17.5293C82.6172-16.4551 81.7383-15.625 80.6152-15.625C80.0293-15.625 79.5898-15.8203 79.0527-16.3086L62.9883-32.4219L46.875-16.3086C46.3867-15.8203 45.9961-15.625 45.3613-15.625Z"/>
  </g>
  <g id="Ultralight-M" transform="matrix(1 0 0 1 497.406 1126)">
   <path d="M14.3555-26.3672L53.4668 12.7441C59.3262 18.6035 65.5273 18.457 71.2402 12.7441L110.254-26.3672C115.967-32.0801 116.211-38.2812 110.352-44.1406L71.2891-83.2031C65.3809-89.1113 59.3262-88.9648 53.4668-83.1543L14.3555-44.1406C8.49609-38.2812 8.49609-32.2266 14.3555-26.3672ZM44.5312-16.1133C43.75-16.1133 43.1152-16.6504 43.1152-17.3828C43.1152-17.7734 43.2617-18.0664 43.6035-18.457L60.3516-35.2051L43.6035-51.9531C43.2617-52.2949 43.1152-52.5879 43.1152-53.0273C43.1152-53.7598 43.75-54.2969 44.5312-54.2969C45.0195-54.2969 45.2148-54.1504 45.6543-53.7598L62.3047-37.1094L78.9062-53.7598C79.3457-54.1504 79.6387-54.2969 80.0781-54.2969C80.8594-54.2969 81.4453-53.7598 81.4453-53.0273C81.4453-52.5879 81.2988-52.2949 80.957-51.9531L64.209-35.2051L80.957-18.457C81.3477-18.0664 81.4453-17.7734 81.4453-17.3828C81.4453-16.6504 80.8594-16.1133 80.0781-16.1133C79.6387-16.1133 79.3457-16.2109 78.9062-16.6504L62.3047-33.252L45.6543-16.6504C45.2148-16.2109 45.0195-16.1133 44.5312-16.1133Z"/>
  </g>
  <g id="Black-S" transform="matrix(1 0 0 1 2878.69 696)">
   <path d="M12.8906-24.4629L43.8965 6.54297C50.6836 13.3301 58.6914 13.3301 65.4785 6.54297L96.4844-24.4629C103.271-31.25 103.271-39.2578 96.4844-46.0449L65.4785-77.0508C58.6914-83.8379 50.6836-83.8379 43.8965-77.0508L12.8906-46.0449C6.10352-39.2578 6.10352-31.25 12.8906-24.4629ZM43.6035-18.457C40.332-18.457 37.8418-20.9473 37.8418-24.2676C37.8418-25.6836 38.4766-27.1484 39.5996-28.2227L46.4844-35.1562L39.5996-42.0898C38.4766-43.1641 37.8418-44.6289 37.8418-46.0449C37.8418-49.3652 40.332-51.8555 43.6035-51.8555C45.4102-51.8555 46.7773-51.3184 47.9492-50.1465L54.6875-43.4082L61.4746-50.1465C62.6465-51.3184 64.0137-51.8555 65.8203-51.8555C69.0918-51.8555 71.582-49.3652 71.582-46.0449C71.582-44.6289 70.9473-43.1641 69.8242-42.0898L62.9883-35.1562L69.8242-28.2227C70.9473-27.1484 71.582-25.6836 71.582-24.2676C71.582-20.9473 69.0918-18.457 65.8203-18.457C64.0137-18.457 62.6465-18.9941 61.4746-20.166L54.6875-26.8555L47.9492-20.166C46.7773-18.9941 45.4102-18.457 43.6035-18.457Z"/>
  </g>
  <g id="Heavy-S" transform="matrix(1 0 0 1 2582.71 696)">
   <path d="M12.7441-24.9512L43.6523 5.95703C50.2441 12.5488 57.7148 12.5488 64.3066 6.00586L95.2637-24.9512C101.807-31.543 101.807-39.0137 95.2148-45.5566L64.3066-76.4648C57.7148-83.0566 50.2441-83.0566 43.7012-76.5137L12.7441-45.5566C6.15234-38.9648 6.20117-31.4941 12.7441-24.9512ZM42.3828-18.4082C39.4043-18.4082 37.1094-20.7031 37.1094-23.6816C37.1094-25 37.6953-26.3184 38.7207-27.2949L46.5332-35.1562L38.7207-43.0176C37.6953-43.9941 37.1094-45.3125 37.1094-46.6309C37.1094-49.6582 39.4043-51.9043 42.3828-51.9043C43.9941-51.9043 45.2148-51.416 46.2402-50.3906L54.0039-42.6758L61.7676-50.3906C62.8418-51.4648 64.0625-51.9531 65.6738-51.9531C68.6035-51.9531 70.8984-49.6582 70.8984-46.6309C70.8984-45.3125 70.3613-44.043 69.3359-43.0176L61.5234-35.1562L69.2871-27.3438C70.3125-26.3184 70.8984-25 70.8984-23.6816C70.8984-20.7031 68.6035-18.4082 65.625-18.4082C64.0137-18.4082 62.793-18.8965 61.7188-19.9707L54.0039-27.6367L46.2891-19.9707C45.2637-18.8965 43.9941-18.4082 42.3828-18.4082Z"/>
  </g>
  <g id="Bold-S" transform="matrix(1 0 0 1 2286.78 696)">
   <path d="M12.5977-25.4883L43.4082 5.32227C49.7559 11.6699 56.6406 11.7188 62.9395 5.41992L93.8477-25.4883C100.146-31.8359 100.146-38.7207 93.7988-45.0195L62.9883-75.8301C56.6406-82.1777 49.7559-82.2266 43.457-75.9277L12.5-45.0195C6.20117-38.6719 6.25-31.7871 12.5977-25.4883ZM40.9668-18.3594C38.3301-18.3594 36.2793-20.4102 36.2793-23.0957C36.2793-24.2676 36.8164-25.4395 37.6953-26.3184L46.5332-35.2051L37.6953-44.043C36.8164-44.9219 36.2793-46.0938 36.2793-47.2656C36.2793-49.9512 38.3301-51.9531 40.9668-51.9531C42.3828-51.9531 43.457-51.5625 44.3848-50.6348L53.1738-41.8457L62.1094-50.6348C63.0371-51.6113 64.1113-52.002 65.4785-52.002C68.1152-52.002 70.166-50 70.166-47.3145C70.166-46.1426 69.6777-45.0195 68.75-44.0918L59.9121-35.2051L68.75-26.3184C69.6289-25.4395 70.1172-24.2676 70.1172-23.0957C70.1172-20.4102 68.0664-18.3594 65.4297-18.3594C64.0625-18.3594 62.8906-18.7988 62.0117-19.7266L53.1738-28.5156L44.4336-19.7266C43.5059-18.7988 42.3828-18.3594 40.9668-18.3594Z"/>
  </g>
  <g id="Semibold-S" transform="matrix(1 0 0 1 1990.63 696)">
   <path d="M12.5-25.8301L43.2129 4.93164C49.4141 11.084 55.8594 11.1328 62.0117 5.0293L92.9199-25.8789C99.0234-32.0312 98.9746-38.5254 92.8223-44.6777L62.0605-75.4395C55.9082-81.5918 49.4141-81.6406 43.2617-75.4883L12.4023-44.6289C6.25-38.4766 6.29883-31.9824 12.5-25.8301ZM39.9902-18.3105C37.6465-18.3105 35.7422-20.2148 35.7422-22.6562C35.7422-23.7305 36.1816-24.8047 37.0117-25.5859L46.582-35.2051L37.0117-44.7754C36.1816-45.5566 35.7422-46.6309 35.7422-47.7539C35.7422-50.1465 37.6465-52.002 39.9902-52.002C41.2598-52.002 42.2852-51.6113 43.0664-50.7812L52.6367-41.2598L62.3047-50.8301C63.1836-51.709 64.1602-52.0996 65.3809-52.0996C67.7734-52.0996 69.6289-50.1953 69.6289-47.8027C69.6289-46.6797 69.1895-45.6543 68.3594-44.8242L58.7891-35.2051L68.3105-25.6348C69.1406-24.8047 69.5801-23.7793 69.5801-22.6562C69.5801-20.2148 67.7246-18.3105 65.2832-18.3105C64.0625-18.3105 62.9883-18.75 62.1582-19.5312L52.6367-29.1016L43.1641-19.5312C42.334-18.75 41.2598-18.3105 39.9902-18.3105Z"/>
  </g>
  <g id="Medium-S" transform="matrix(1 0 0 1 1694.33 696)">
   <path d="M12.4023-26.123L43.0664 4.58984C49.1211 10.6445 55.2734 10.6934 61.2793 4.6875L92.1875-26.1719C98.1934-32.1777 98.0957-38.3301 92.041-44.3848L61.377-75.0977C55.3223-81.1523 49.1699-81.2012 43.1641-75.1953L12.2559-44.3359C6.25-38.3301 6.34766-32.1777 12.4023-26.123ZM39.3066-18.2617C37.0605-18.2617 35.3027-20.0684 35.3027-22.3145C35.3027-23.3398 35.7422-24.3164 36.4746-25.0977L46.582-35.2051L36.4746-45.3125C35.7422-46.0449 35.3027-47.0703 35.3027-48.0957C35.3027-50.3418 37.0605-52.0508 39.3066-52.0508C40.4297-52.0508 41.3574-51.6602 42.0898-50.9277L52.2461-40.8203L62.5-50.9766C63.2812-51.7578 64.1602-52.1484 65.2832-52.1484C67.4805-52.1484 69.2383-50.3906 69.2383-48.1445C69.2383-47.0703 68.8477-46.1914 68.0664-45.3613L57.9102-35.2051L68.0176-25.0977C68.7988-24.3164 69.1895-23.3887 69.1895-22.3145C69.1895-20.0684 67.4316-18.2617 65.1855-18.2617C64.0625-18.2617 63.0859-18.7012 62.3047-19.4336L52.2461-29.541L42.1875-19.4336C41.4551-18.6523 40.4297-18.2617 39.3066-18.2617Z"/>
  </g>
  <g id="Regular-S" transform="matrix(1 0 0 1 1398.16 696)">
   <path d="M12.2559-26.4648L42.9199 4.15039C48.7793 10.0586 54.541 10.1074 60.4004 4.29688L91.2109-26.5625C97.0703-32.373 96.9727-38.1348 91.0645-44.043L60.4492-74.6582C54.5898-80.5664 48.8281-80.6152 42.9688-74.8047L12.1582-43.9453C6.29883-38.0859 6.39648-32.373 12.2559-26.4648ZM38.3301-18.2129C36.377-18.2129 34.7656-19.873 34.7656-21.875C34.7656-22.8516 35.1562-23.7305 35.791-24.3652L46.6309-35.2051L35.791-46.0449C35.1562-46.6797 34.7656-47.5586 34.7656-48.5352C34.7656-50.5371 36.377-52.0996 38.3301-52.0996C39.3066-52.0996 40.1855-51.7578 40.7715-51.0742L51.709-40.2344L62.6953-51.123C63.4277-51.8555 64.209-52.1973 65.1367-52.1973C67.1387-52.1973 68.7012-50.5859 68.7012-48.6328C68.7012-47.6074 68.4082-46.8262 67.6758-46.0938L56.8359-35.2051L67.627-24.4141C68.3105-23.7305 68.7012-22.9004 68.7012-21.875C68.7012-19.873 67.0898-18.2129 65.0391-18.2129C64.0625-18.2129 63.1836-18.6523 62.5-19.2871L51.709-30.127L40.918-19.2871C40.2832-18.6035 39.3066-18.2129 38.3301-18.2129Z"/>
  </g>
  <g id="Light-S" transform="matrix(1 0 0 1 1102.35 696)">
   <path d="M11.9629-27.0508L42.5781 3.61328C48.0469 9.08203 53.5645 9.08203 58.9355 3.71094L89.6973-27.0996C95.1172-32.5195 95.1172-37.9883 89.6484-43.457L59.0332-74.0723C53.5645-79.5898 48.0957-79.5898 42.627-74.1699L11.8652-43.4082C6.39648-37.9395 6.49414-32.5195 11.9629-27.0508ZM37.2559-18.8477C35.6934-18.8477 34.4727-20.1172 34.4727-21.6797C34.4727-22.4121 34.7168-23.1445 35.3027-23.6816L46.8262-35.2051L35.3027-46.7285C34.7168-47.2656 34.4727-47.998 34.4727-48.7305C34.4727-50.293 35.6934-51.5137 37.2559-51.5137C38.0371-51.5137 38.6719-51.2207 39.209-50.6836L50.7812-39.1602L62.4023-50.6836C62.9883-51.3184 63.623-51.5625 64.4043-51.5625C65.918-51.5625 67.1875-50.3418 67.1875-48.7793C67.1875-47.998 66.9434-47.3633 66.3574-46.7773L54.7852-35.2051L66.3086-23.6816C66.8457-23.1445 67.1387-22.4609 67.1387-21.6797C67.1387-20.1172 65.918-18.8477 64.3066-18.8477C63.5254-18.8477 62.8418-19.1895 62.3047-19.7266L50.7812-31.25L39.3066-19.7266C38.7695-19.1406 38.0371-18.8477 37.2559-18.8477Z"/>
  </g>
  <g id="Thin-S" transform="matrix(1 0 0 1 806.813 696)">
   <path d="M11.5234-27.7832L42.1875 2.88086C47.1191 7.8125 52.2461 7.76367 57.0801 2.88086L87.6953-27.832C92.5781-32.666 92.6758-37.793 87.7441-42.7246L57.1289-73.3398C52.1484-78.3203 47.1191-78.2715 42.1875-73.3398L11.4746-42.6758C6.5918-37.793 6.5918-32.7148 11.5234-27.7832ZM35.8398-19.6777C34.8145-19.6777 34.0332-20.459 34.0332-21.4355C34.0332-21.9238 34.2285-22.3145 34.6191-22.7051L47.0703-35.2051L34.6191-47.7051C34.2285-48.0957 34.0332-48.4863 34.0332-48.9746C34.0332-49.9512 34.8145-50.6836 35.8398-50.6836C36.377-50.6836 36.7188-50.5371 37.1582-50.0977L49.6094-37.6953L62.0605-50.1465C62.5-50.5859 62.8906-50.7324 63.3789-50.7324C64.3555-50.7324 65.1367-50 65.1367-49.0234C65.1367-48.4863 64.9902-48.0957 64.5996-47.7051L52.0996-35.2051L64.5996-22.7539C64.9902-22.3145 65.1367-21.9238 65.1367-21.4355C65.1367-20.459 64.3555-19.6777 63.3789-19.6777C62.8418-19.6777 62.4512-19.873 62.0117-20.2637L49.6094-32.7148L37.207-20.2637C36.7676-19.873 36.377-19.6777 35.8398-19.6777Z"/>
  </g>
  <g id="Ultralight-S" transform="matrix(1 0 0 1 510.712 696)">
   <path d="M11.3281-28.1738L41.9434 2.49023C46.6309 7.12891 51.5625 7.03125 56.1035 2.49023L86.6699-28.1738C91.2598-32.7637 91.4062-37.6953 86.7676-42.334L56.1523-72.9492C51.4648-77.6367 46.6309-77.5391 41.9922-72.9004L11.2793-42.334C6.64062-37.6465 6.64062-32.8125 11.3281-28.1738ZM35.0586-20.1172C34.375-20.1172 33.8379-20.6055 33.8379-21.2891C33.8379-21.6309 33.9355-21.9238 34.2773-22.2168L47.2168-35.2051L34.2773-48.1934C33.9355-48.4863 33.8379-48.7793 33.8379-49.1211C33.8379-49.8047 34.375-50.293 35.0586-50.293C35.498-50.293 35.7422-50.1953 36.084-49.8047L48.9746-36.9629L61.8652-49.8047C62.207-50.1953 62.5-50.293 62.8418-50.293C63.5742-50.293 64.1113-49.8047 64.1113-49.1211C64.1113-48.7793 64.0137-48.4863 63.6719-48.1934L50.6836-35.2051L63.6719-22.2168C64.0137-21.9238 64.1113-21.6309 64.1113-21.2891C64.1113-20.6055 63.5742-20.1172 62.8418-20.1172C62.5-20.1172 62.207-20.2148 61.8652-20.6055L48.9746-33.4473L36.084-20.6055C35.7422-20.2148 35.498-20.1172 35.0586-20.1172Z"/>
  </g>
 </g>
</svg>
