<?xml version="1.0" encoding="UTF-8"?>
<!--Generator: Apple Native CoreSVG 149-->
<!DOCTYPE svg
PUBLIC "-//W3C//DTD SVG 1.1//EN"
       "http://www.w3.org/Graphics/SVG/1.1/DTD/svg11.dtd">
<svg version="1.1" xmlns="http://www.w3.org/2000/svg" xmlns:xlink="http://www.w3.org/1999/xlink" width="3300" height="2200">
 <!--glyph: "uni100598.medium", point size: 100.0, font version: "17.0d8e1", template writer version: "58"-->
 <style>.multicolor-0:tintColor {fill:#007AFF;opacity:1.0}
.multicolor-1:white {fill:#FFFFFF;opacity:1.0}

.hierarchical-0:tertiary {fill:#8E8E8E}
.hierarchical-1:primary {fill:#212121}

.SFSymbolsPreview007AFF {fill:#007AFF;opacity:1.0}
.SFSymbolsPreviewFFFFFF {fill:#FFFFFF;opacity:1.0}
</style>
 <g id="Notes">
  <rect height="2200" id="artboard" style="fill:white;opacity:1" width="3300" x="0" y="0"/>
  <line style="fill:none;stroke:black;opacity:1;stroke-width:0.5;" x1="263" x2="3036" y1="292" y2="292"/>
  <text style="stroke:none;fill:black;font-family:SF Pro,SF Pro Display,SF Pro Text,sans-serif;font-size:13;font-weight:bold;" transform="matrix(1 0 0 1 263 322)">Weight/Scale Variations</text>
  <text style="stroke:none;fill:black;font-family:SF Pro,SF Pro Display,SF Pro Text,sans-serif;font-size:13;text-anchor:middle;" transform="matrix(1 0 0 1 559.711 322)">Ultralight</text>
  <text style="stroke:none;fill:black;font-family:SF Pro,SF Pro Display,SF Pro Text,sans-serif;font-size:13;text-anchor:middle;" transform="matrix(1 0 0 1 856.422 322)">Thin</text>
  <text style="stroke:none;fill:black;font-family:SF Pro,SF Pro Display,SF Pro Text,sans-serif;font-size:13;text-anchor:middle;" transform="matrix(1 0 0 1 1153.13 322)">Light</text>
  <text style="stroke:none;fill:black;font-family:SF Pro,SF Pro Display,SF Pro Text,sans-serif;font-size:13;text-anchor:middle;" transform="matrix(1 0 0 1 1449.84 322)">Regular</text>
  <text style="stroke:none;fill:black;font-family:SF Pro,SF Pro Display,SF Pro Text,sans-serif;font-size:13;text-anchor:middle;" transform="matrix(1 0 0 1 1746.56 322)">Medium</text>
  <text style="stroke:none;fill:black;font-family:SF Pro,SF Pro Display,SF Pro Text,sans-serif;font-size:13;text-anchor:middle;" transform="matrix(1 0 0 1 2043.27 322)">Semibold</text>
  <text style="stroke:none;fill:black;font-family:SF Pro,SF Pro Display,SF Pro Text,sans-serif;font-size:13;text-anchor:middle;" transform="matrix(1 0 0 1 2339.98 322)">Bold</text>
  <text style="stroke:none;fill:black;font-family:SF Pro,SF Pro Display,SF Pro Text,sans-serif;font-size:13;text-anchor:middle;" transform="matrix(1 0 0 1 2636.69 322)">Heavy</text>
  <text style="stroke:none;fill:black;font-family:SF Pro,SF Pro Display,SF Pro Text,sans-serif;font-size:13;text-anchor:middle;" transform="matrix(1 0 0 1 2933.4 322)">Black</text>
  <line style="fill:none;stroke:black;opacity:1;stroke-width:0.5;" x1="263" x2="3036" y1="1903" y2="1903"/>
  <g transform="matrix(1 0 0 1 263 1933)">
   <path d="M9.24805 0.830078Q10.8691 0.830078 12.2949 0.214844Q13.7207-0.400391 14.8096-1.49414Q15.8984-2.58789 16.5186-4.01367Q17.1387-5.43945 17.1387-7.05078Q17.1387-8.66211 16.5186-10.0879Q15.8984-11.5137 14.8047-12.6074Q13.7109-13.7012 12.2852-14.3164Q10.8594-14.9316 9.23828-14.9316Q7.62695-14.9316 6.20117-14.3164Q4.77539-13.7012 3.69141-12.6074Q2.60742-11.5137 1.9873-10.0879Q1.36719-8.66211 1.36719-7.05078Q1.36719-5.43945 1.9873-4.01367Q2.60742-2.58789 3.69629-1.49414Q4.78516-0.400391 6.21094 0.214844Q7.63672 0.830078 9.24805 0.830078ZM9.24805-0.654297Q7.91992-0.654297 6.7627-1.14746Q5.60547-1.64062 4.73145-2.51953Q3.85742-3.39844 3.36426-4.56055Q2.87109-5.72266 2.87109-7.05078Q2.87109-8.37891 3.35938-9.54102Q3.84766-10.7031 4.72168-11.582Q5.5957-12.4609 6.75293-12.9541Q7.91016-13.4473 9.23828-13.4473Q10.5762-13.4473 11.7334-12.9541Q12.8906-12.4609 13.7695-11.582Q14.6484-10.7031 15.1465-9.54102Q15.6445-8.37891 15.6445-7.05078Q15.6445-5.72266 15.1514-4.56055Q14.6582-3.39844 13.7842-2.51953Q12.9102-1.64062 11.748-1.14746Q10.5859-0.654297 9.24805-0.654297ZM5.83984-7.04102Q5.83984-6.71875 6.04492-6.51855Q6.25-6.31836 6.5918-6.31836L8.50586-6.31836L8.50586-4.39453Q8.50586-4.0625 8.70605-3.85742Q8.90625-3.65234 9.22852-3.65234Q9.56055-3.65234 9.76562-3.85742Q9.9707-4.0625 9.9707-4.39453L9.9707-6.31836L11.8945-6.31836Q12.2266-6.31836 12.4316-6.51855Q12.6367-6.71875 12.6367-7.04102Q12.6367-7.37305 12.4316-7.57812Q12.2266-7.7832 11.8945-7.7832L9.9707-7.7832L9.9707-9.69727Q9.9707-10.0391 9.76562-10.2441Q9.56055-10.4492 9.22852-10.4492Q8.90625-10.4492 8.70605-10.2441Q8.50586-10.0391 8.50586-9.69727L8.50586-7.7832L6.5918-7.7832Q6.25-7.7832 6.04492-7.57812Q5.83984-7.37305 5.83984-7.04102Z"/>
  </g>
  <g transform="matrix(1 0 0 1 281.867 1933)">
   <path d="M11.709 2.91016Q13.75 2.91016 15.5518 2.12891Q17.3535 1.34766 18.7305-0.0292969Q20.1074-1.40625 20.8887-3.20801Q21.6699-5.00977 21.6699-7.05078Q21.6699-9.0918 20.8887-10.8936Q20.1074-12.6953 18.7305-14.0723Q17.3535-15.4492 15.5469-16.2305Q13.7402-17.0117 11.6992-17.0117Q9.6582-17.0117 7.85645-16.2305Q6.05469-15.4492 4.68262-14.0723Q3.31055-12.6953 2.5293-10.8936Q1.74805-9.0918 1.74805-7.05078Q1.74805-5.00977 2.5293-3.20801Q3.31055-1.40625 4.6875-0.0292969Q6.06445 1.34766 7.86621 2.12891Q9.66797 2.91016 11.709 2.91016ZM11.709 1.25Q9.98047 1.25 8.47656 0.605469Q6.97266-0.0390625 5.83496-1.17676Q4.69727-2.31445 4.05762-3.81836Q3.41797-5.32227 3.41797-7.05078Q3.41797-8.7793 4.05762-10.2832Q4.69727-11.7871 5.83008-12.9297Q6.96289-14.0723 8.4668-14.7119Q9.9707-15.3516 11.6992-15.3516Q13.4277-15.3516 14.9316-14.7119Q16.4355-14.0723 17.5781-12.9297Q18.7207-11.7871 19.3652-10.2832Q20.0098-8.7793 20.0098-7.05078Q20.0098-5.32227 19.3701-3.81836Q18.7305-2.31445 17.5928-1.17676Q16.4551-0.0390625 14.9463 0.605469Q13.4375 1.25 11.709 1.25ZM7.39258-7.04102Q7.39258-6.68945 7.62695-6.46484Q7.86133-6.24023 8.23242-6.24023L10.8789-6.24023L10.8789-3.57422Q10.8789-3.21289 11.1035-2.9834Q11.3281-2.75391 11.6797-2.75391Q12.0508-2.75391 12.2852-2.9834Q12.5195-3.21289 12.5195-3.57422L12.5195-6.24023L15.1758-6.24023Q15.5371-6.24023 15.7715-6.46484Q16.0059-6.68945 16.0059-7.04102Q16.0059-7.41211 15.7715-7.6416Q15.5371-7.87109 15.1758-7.87109L12.5195-7.87109L12.5195-10.5176Q12.5195-10.8984 12.2852-11.1279Q12.0508-11.3574 11.6797-11.3574Q11.3281-11.3574 11.1035-11.1279Q10.8789-10.8984 10.8789-10.5176L10.8789-7.87109L8.23242-7.87109Q7.85156-7.87109 7.62207-7.6416Q7.39258-7.41211 7.39258-7.04102Z"/>
  </g>
  <g transform="matrix(1 0 0 1 305.646 1933)">
   <path d="M14.9707 5.66406Q17.0605 5.66406 18.96 5.01465Q20.8594 4.36523 22.4512 3.19336Q24.043 2.02148 25.2197 0.429688Q26.3965-1.16211 27.0459-3.06641Q27.6953-4.9707 27.6953-7.05078Q27.6953-9.14062 27.0459-11.04Q26.3965-12.9395 25.2197-14.5312Q24.043-16.123 22.4512-17.2998Q20.8594-18.4766 18.9551-19.126Q17.0508-19.7754 14.9609-19.7754Q12.8711-19.7754 10.9717-19.126Q9.07227-18.4766 7.48535-17.2998Q5.89844-16.123 4.72168-14.5312Q3.54492-12.9395 2.90039-11.04Q2.25586-9.14062 2.25586-7.05078Q2.25586-4.9707 2.90527-3.06641Q3.55469-1.16211 4.72656 0.429688Q5.89844 2.02148 7.49023 3.19336Q9.08203 4.36523 10.9814 5.01465Q12.8809 5.66406 14.9707 5.66406ZM14.9707 3.84766Q13.1641 3.84766 11.5283 3.2959Q9.89258 2.74414 8.53516 1.74805Q7.17773 0.751953 6.17676-0.610352Q5.17578-1.97266 4.62891-3.6084Q4.08203-5.24414 4.08203-7.05078Q4.08203-8.86719 4.62891-10.5029Q5.17578-12.1387 6.17188-13.501Q7.16797-14.8633 8.52539-15.8594Q9.88281-16.8555 11.5186-17.4023Q13.1543-17.9492 14.9609-17.9492Q16.7773-17.9492 18.4131-17.4023Q20.0488-16.8555 21.4111-15.8594Q22.7734-14.8633 23.7695-13.501Q24.7656-12.1387 25.3174-10.5029Q25.8691-8.86719 25.8691-7.05078Q25.8789-5.24414 25.332-3.6084Q24.7852-1.97266 23.7842-0.610352Q22.7832 0.751953 21.4209 1.74805Q20.0586 2.74414 18.4229 3.2959Q16.7871 3.84766 14.9707 3.84766ZM9.45312-7.04102Q9.45312-6.66016 9.71191-6.41113Q9.9707-6.16211 10.3711-6.16211L14.0625-6.16211L14.0625-2.46094Q14.0625-2.06055 14.3115-1.80664Q14.5605-1.55273 14.9414-1.55273Q15.3516-1.55273 15.6055-1.80664Q15.8594-2.06055 15.8594-2.46094L15.8594-6.16211L19.5605-6.16211Q19.9609-6.16211 20.2148-6.41113Q20.4688-6.66016 20.4688-7.04102Q20.4688-7.45117 20.2148-7.70508Q19.9609-7.95898 19.5605-7.95898L15.8594-7.95898L15.8594-11.6504Q15.8594-12.0605 15.6055-12.3145Q15.3516-12.5684 14.9414-12.5684Q14.5605-12.5684 14.3115-12.3096Q14.0625-12.0508 14.0625-11.6504L14.0625-7.95898L10.3711-7.95898Q9.96094-7.95898 9.70703-7.70508Q9.45312-7.45117 9.45312-7.04102Z"/>
  </g>
  <text style="stroke:none;fill:black;font-family:SF Pro,SF Pro Display,SF Pro Text,sans-serif;font-size:13;font-weight:bold;" transform="matrix(1 0 0 1 263 1953)">Design Variations</text>
  <text style="stroke:none;fill:black;font-family:SF Pro,SF Pro Display,SF Pro Text,sans-serif;font-size:13;" transform="matrix(1 0 0 1 263 1971)">Symbols are supported in up to nine weights and three scales.</text>
  <text style="stroke:none;fill:black;font-family:SF Pro,SF Pro Display,SF Pro Text,sans-serif;font-size:13;" transform="matrix(1 0 0 1 263 1989)">For optimal layout with text and other symbols, vertically align</text>
  <text style="stroke:none;fill:black;font-family:SF Pro,SF Pro Display,SF Pro Text,sans-serif;font-size:13;" transform="matrix(1 0 0 1 263 2007)">symbols with the adjacent text.</text>
  <line style="fill:none;stroke:#00AEEF;stroke-width:0.5;opacity:1.0;" x1="776" x2="776" y1="1919" y2="1933"/>
  <g transform="matrix(1 0 0 1 776 1933)">
   <path d="M3.31055 0.15625Q3.70117 0.15625 3.91602-0.00976562Q4.13086-0.175781 4.26758-0.585938L5.52734-4.0332L11.2891-4.0332L12.5488-0.585938Q12.6855-0.175781 12.9004-0.00976562Q13.1152 0.15625 13.4961 0.15625Q13.8867 0.15625 14.1162-0.0585938Q14.3457-0.273438 14.3457-0.644531Q14.3457-0.869141 14.2383-1.17188L9.6582-13.3691Q9.48242-13.8184 9.17969-14.043Q8.87695-14.2676 8.4082-14.2676Q7.5-14.2676 7.17773-13.3789L2.59766-1.16211Q2.49023-0.859375 2.49023-0.634766Q2.49023-0.263672 2.70996-0.0537109Q2.92969 0.15625 3.31055 0.15625ZM6.00586-5.51758L8.37891-12.0898L8.42773-12.0898L10.8008-5.51758Z"/>
  </g>
  <line style="fill:none;stroke:#00AEEF;stroke-width:0.5;opacity:1.0;" x1="793.197" x2="793.197" y1="1919" y2="1933"/>
  <text style="stroke:none;fill:black;font-family:SF Pro,SF Pro Display,SF Pro Text,sans-serif;font-size:13;font-weight:bold;" transform="matrix(1 0 0 1 776 1953)">Margins</text>
  <text style="stroke:none;fill:black;font-family:SF Pro,SF Pro Display,SF Pro Text,sans-serif;font-size:13;" transform="matrix(1 0 0 1 776 1971)">Leading and trailing margins on the left and right side of each symbol</text>
  <text style="stroke:none;fill:black;font-family:SF Pro,SF Pro Display,SF Pro Text,sans-serif;font-size:13;" transform="matrix(1 0 0 1 776 1989)">can be adjusted by modifying the x-location of the margin guidelines.</text>
  <text style="stroke:none;fill:black;font-family:SF Pro,SF Pro Display,SF Pro Text,sans-serif;font-size:13;" transform="matrix(1 0 0 1 776 2007)">Modifications are automatically applied proportionally to all</text>
  <text style="stroke:none;fill:black;font-family:SF Pro,SF Pro Display,SF Pro Text,sans-serif;font-size:13;" transform="matrix(1 0 0 1 776 2025)">scales and weights.</text>
  <g transform="matrix(1 0 0 1 1289 1933)">
   <path d="M2.8418 1.86523L4.54102 3.57422Q5.18555 4.22852 5.90332 4.17969Q6.62109 4.13086 7.31445 3.35938L18.0078-8.42773L17.041-9.4043L6.42578 2.27539Q6.16211 2.57812 5.89355 2.61719Q5.625 2.65625 5.27344 2.30469L4.10156 1.14258Q3.75 0.791016 3.79395 0.522461Q3.83789 0.253906 4.14062-0.0195312L15.6152-10.8203L14.6387-11.7871L3.04688-0.898438Q2.30469-0.214844 2.25098 0.498047Q2.19727 1.21094 2.8418 1.86523ZM9.25781-16.3281Q8.94531-16.0254 8.90625-15.6348Q8.86719-15.2441 9.04297-14.9512Q9.21875-14.6777 9.55566-14.541Q9.89258-14.4043 10.3809-14.5215Q11.4746-14.7754 12.5977-14.7314Q13.7207-14.6875 14.7949-13.9844L14.209-12.5293Q13.9551-11.9043 14.0674-11.4404Q14.1797-10.9766 14.5801-10.5664L16.875-8.25195Q17.2363-7.88086 17.5781-7.82227Q17.9199-7.76367 18.3398-7.8418L19.4043-8.03711L20.0684-7.36328L20.0293-6.80664Q20-6.43555 20.1221-6.12305Q20.2441-5.81055 20.6055-5.44922L21.3672-4.70703Q21.7285-4.3457 22.1533-4.33105Q22.5781-4.31641 22.9297-4.66797L25.8398-7.58789Q26.1914-7.93945 26.1816-8.35449Q26.1719-8.76953 25.8105-9.13086L25.0391-9.89258Q24.6875-10.2539 24.3799-10.3857Q24.0723-10.5176 23.7109-10.4883L23.1348-10.4395L22.4902-11.0742L22.7344-12.1973Q22.832-12.6172 22.6953-12.9834Q22.5586-13.3496 22.1191-13.7891L19.9219-15.9766Q18.6719-17.2168 17.2607-17.8369Q15.8496-18.457 14.4189-18.4814Q12.9883-18.5059 11.665-17.959Q10.3418-17.4121 9.25781-16.3281ZM10.752-15.957Q11.6602-16.6211 12.7002-16.9043Q13.7402-17.1875 14.8047-17.085Q15.8691-16.9824 16.8701-16.5137Q17.8711-16.0449 18.7012-15.2051L21.1328-12.793Q21.3086-12.6172 21.3525-12.4512Q21.3965-12.2852 21.3379-12.0312L21.0156-10.5469L22.5195-9.0625L23.5059-9.12109Q23.6914-9.13086 23.7891-9.09668Q23.8867-9.0625 24.0332-8.91602L24.6094-8.33984L22.168-5.89844L21.5918-6.47461Q21.4453-6.62109 21.4062-6.71875Q21.3672-6.81641 21.377-7.01172L21.4453-7.98828L19.9512-9.47266L18.4277-9.21875Q18.1836-9.16992 18.042-9.2041Q17.9004-9.23828 17.7148-9.41406L15.7129-11.416Q15.5176-11.5918 15.4932-11.7529Q15.4688-11.9141 15.5859-12.1875L16.4648-14.2773Q15.293-15.3711 13.8281-15.791Q12.3633-16.2109 10.8398-15.7617Q10.7227-15.7324 10.6885-15.8057Q10.6543-15.8789 10.752-15.957Z"/>
  </g>
  <text style="stroke:none;fill:black;font-family:SF Pro,SF Pro Display,SF Pro Text,sans-serif;font-size:13;font-weight:bold;" transform="matrix(1 0 0 1 1289 1953)">Exporting</text>
  <text style="stroke:none;fill:black;font-family:SF Pro,SF Pro Display,SF Pro Text,sans-serif;font-size:13;" transform="matrix(1 0 0 1 1289 1971)">Symbols should be outlined when exporting to ensure the</text>
  <text style="stroke:none;fill:black;font-family:SF Pro,SF Pro Display,SF Pro Text,sans-serif;font-size:13;" transform="matrix(1 0 0 1 1289 1989)">design is preserved when submitting to Xcode.</text>
  <text id="template-version" style="stroke:none;fill:black;font-family:SF Pro,SF Pro Display,SF Pro Text,sans-serif;font-size:13;text-anchor:end;" transform="matrix(1 0 0 1 3036 1933)">Template v.3.0</text>
  <text style="stroke:none;fill:black;font-family:SF Pro,SF Pro Display,SF Pro Text,sans-serif;font-size:13;text-anchor:end;" transform="matrix(1 0 0 1 3036 1951)">Requires Xcode 13 or greater</text>
  <text id="descriptive-name" style="stroke:none;fill:black;font-family:SF Pro,SF Pro Display,SF Pro Text,sans-serif;font-size:13;text-anchor:end;" transform="matrix(1 0 0 1 3036 1969)">Generated from dollarsign.circle.fill</text>
  <text style="stroke:none;fill:black;font-family:SF Pro,SF Pro Display,SF Pro Text,sans-serif;font-size:13;text-anchor:end;" transform="matrix(1 0 0 1 3036 1987)">Typeset at 100 points</text>
  <text style="stroke:none;fill:black;font-family:SF Pro,SF Pro Display,SF Pro Text,sans-serif;font-size:13;" transform="matrix(1 0 0 1 263 726)">Small</text>
  <text style="stroke:none;fill:black;font-family:SF Pro,SF Pro Display,SF Pro Text,sans-serif;font-size:13;" transform="matrix(1 0 0 1 263 1156)">Medium</text>
  <text style="stroke:none;fill:black;font-family:SF Pro,SF Pro Display,SF Pro Text,sans-serif;font-size:13;" transform="matrix(1 0 0 1 263 1586)">Large</text>
 </g>
 <g id="Guides">
  <g id="H-reference" style="fill:#27AAE1;stroke:none;" transform="matrix(1 0 0 1 339 696)">
   <path d="M0.976562 0L3.66211 0L29.3457-67.1387L30.0293-67.1387L30.0293-70.459L28.125-70.459ZM11.6699-24.4629L46.9727-24.4629L46.2402-26.709L12.4512-26.709ZM55.127 0L57.7637 0L30.6152-70.459L29.4434-70.459L29.4434-67.1387Z"/>
  </g>
  <line id="Baseline-S" style="fill:none;stroke:#27AAE1;opacity:1;stroke-width:0.5;" x1="263" x2="3036" y1="696" y2="696"/>
  <line id="Capline-S" style="fill:none;stroke:#27AAE1;opacity:1;stroke-width:0.5;" x1="263" x2="3036" y1="625.541" y2="625.541"/>
  <g id="H-reference" style="fill:#27AAE1;stroke:none;" transform="matrix(1 0 0 1 339 1126)">
   <path d="M0.976562 0L3.66211 0L29.3457-67.1387L30.0293-67.1387L30.0293-70.459L28.125-70.459ZM11.6699-24.4629L46.9727-24.4629L46.2402-26.709L12.4512-26.709ZM55.127 0L57.7637 0L30.6152-70.459L29.4434-70.459L29.4434-67.1387Z"/>
  </g>
  <line id="Baseline-M" style="fill:none;stroke:#27AAE1;opacity:1;stroke-width:0.5;" x1="263" x2="3036" y1="1126" y2="1126"/>
  <line id="Capline-M" style="fill:none;stroke:#27AAE1;opacity:1;stroke-width:0.5;" x1="263" x2="3036" y1="1055.54" y2="1055.54"/>
  <g id="H-reference" style="fill:#27AAE1;stroke:none;" transform="matrix(1 0 0 1 339 1556)">
   <path d="M0.976562 0L3.66211 0L29.3457-67.1387L30.0293-67.1387L30.0293-70.459L28.125-70.459ZM11.6699-24.4629L46.9727-24.4629L46.2402-26.709L12.4512-26.709ZM55.127 0L57.7637 0L30.6152-70.459L29.4434-70.459L29.4434-67.1387Z"/>
  </g>
  <line id="Baseline-L" style="fill:none;stroke:#27AAE1;opacity:1;stroke-width:0.5;" x1="263" x2="3036" y1="1556" y2="1556"/>
  <line id="Capline-L" style="fill:none;stroke:#27AAE1;opacity:1;stroke-width:0.5;" x1="263" x2="3036" y1="1485.54" y2="1485.54"/>
  <line id="left-margin-Regular-M" style="fill:none;stroke:#00AEEF;stroke-width:0.5;opacity:1.0;" x1="1391.3" x2="1391.3" y1="1030.79" y2="1150.12"/>
  <line id="right-margin-Regular-M" style="fill:none;stroke:#00AEEF;stroke-width:0.5;opacity:1.0;" x1="1508.39" x2="1508.39" y1="1030.79" y2="1150.12"/>
 </g>
 <g id="Symbols">
  <g id="Black-L" transform="matrix(1 0 0 1 2854.05 1556)">
   <path class="multicolor-0:tintColor hierarchical-0:tertiary SFSymbolsPreview007AFF" d="M79.3457 32.8613Q90.5762 32.8613 100.757 29.3945Q110.938 25.9277 119.458 19.6777Q127.979 13.4277 134.229 4.90723Q140.479-3.61328 143.945-13.7939Q147.412-23.9746 147.412-35.2051Q147.412-46.4355 143.945-56.6162Q140.479-66.7969 134.204-75.3174Q127.93-83.8379 119.434-90.1123Q110.938-96.3867 100.732-99.8291Q90.5273-103.271 79.2969-103.271Q68.1152-103.271 57.9102-99.8291Q47.7051-96.3867 39.209-90.1123Q30.7129-83.8379 24.4385-75.3174Q18.1641-66.7969 14.7217-56.6162Q11.2793-46.4355 11.2793-35.2051Q11.2793-23.9746 14.7217-13.7939Q18.1641-3.61328 24.4385 4.90723Q30.7129 13.4277 39.2334 19.6777Q47.7539 25.9277 57.9346 29.3945Q68.1152 32.8613 79.3457 32.8613Z"/>
   <path class="multicolor-1:white hierarchical-1:primary SFSymbolsPreviewFFFFFF" d="M79.3457 0.683594Q78.0762 0.683594 77.3193-0.12207Q76.5625-0.927734 76.5625-2.19727L76.5625-6.05469Q68.0664-6.49414 63.3057-9.8877Q58.5449-13.2812 57.0312-17.2852Q56.6406-18.1641 56.4941-18.9453Q56.3477-19.7266 56.3477-20.459Q56.3477-23.291 58.1787-25.0977Q60.0098-26.9043 63.3789-26.9043Q65.8203-26.9043 67.4805-25.7324Q69.1406-24.5605 70.3125-22.4121Q71.0449-20.8008 72.5098-19.6777Q73.9746-18.5547 76.5625-18.1641L76.5625-28.9551L73.4863-29.6387Q65.0879-31.4453 60.6201-35.5225Q56.1523-39.5996 56.1523-46.6309Q56.1523-51.7578 58.7646-55.6396Q61.377-59.5215 65.9912-61.792Q70.6055-64.0625 76.5625-64.4531L76.5625-68.5547Q76.5625-69.873 77.3193-70.6543Q78.0762-71.4355 79.3457-71.4355Q80.5176-71.4355 81.3232-70.6543Q82.1289-69.873 82.1289-68.5547L82.1289-64.4531Q89.7949-63.8184 94.5801-60.4736Q99.3652-57.1289 100.781-52.6367Q101.025-51.9043 101.172-51.123Q101.318-50.3418 101.318-49.6094Q101.318-47.0215 99.5117-45.3857Q97.7051-43.75 94.6289-43.75Q90.2344-43.75 87.5-48.0957Q86.6699-49.707 85.3516-50.7568Q84.0332-51.8066 82.1289-52.1973L82.1289-41.8457L85.2539-41.1621Q94.1406-39.4043 98.5352-35.4004Q102.93-31.3965 102.93-24.3652Q102.93-19.0918 100.317-15.1611Q97.7051-11.2305 93.0176-8.91113Q88.3301-6.5918 82.1289-6.10352L82.1289-2.19727Q82.1289-0.927734 81.3232-0.12207Q80.5176 0.683594 79.3457 0.683594ZM76.5625-43.1641L76.5625-52.4414Q73.9746-52.1484 72.5342-50.9033Q71.0938-49.6582 71.0938-47.9004Q71.0938-46.1914 72.3389-45.0195Q73.584-43.8477 76.0742-43.2617ZM82.1289-27.7344L82.1289-18.1641Q85.0098-18.5059 86.5479-19.7266Q88.0859-20.9473 88.0859-22.9004Q88.0859-24.707 86.8896-25.7812Q85.6934-26.8555 82.8125-27.5391Z"/>
  </g>
  <g id="Heavy-L" transform="matrix(1 0 0 1 2558.39 1556)">
   <path class="multicolor-0:tintColor hierarchical-0:tertiary SFSymbolsPreview007AFF" d="M78.2715 31.7871Q89.3555 31.7871 99.3652 28.3691Q109.375 24.9512 117.749 18.7988Q126.123 12.6465 132.3 4.24805Q138.477-4.15039 141.895-14.1602Q145.312-24.1699 145.312-35.2051Q145.312-46.2402 141.895-56.2744Q138.477-66.3086 132.3-74.6826Q126.123-83.0566 117.749-89.2578Q109.375-95.459 99.3408-98.8525Q89.3066-102.246 78.2227-102.246Q67.2363-102.246 57.2021-98.8525Q47.168-95.459 38.7939-89.2578Q30.4199-83.0566 24.2432-74.6826Q18.0664-66.3086 14.6729-56.2744Q11.2793-46.2402 11.2793-35.2051Q11.2793-24.1699 14.6729-14.1602Q18.0664-4.15039 24.2432 4.24805Q30.4199 12.6465 38.8184 18.7988Q47.2168 24.9512 57.2266 28.3691Q67.2363 31.7871 78.2715 31.7871Z"/>
   <path class="multicolor-1:white hierarchical-1:primary SFSymbolsPreviewFFFFFF" d="M78.2715 0.830078Q77.0508 0.830078 76.2695 0.0244141Q75.4883-0.78125 75.4883-2.00195L75.4883-6.10352Q67.4805-6.5918 62.6709-9.98535Q57.8613-13.3789 56.3965-17.7734Q56.1035-18.5547 55.9814-19.2627Q55.8594-19.9707 55.8594-20.6543Q55.8594-23.1934 57.4707-24.7803Q59.082-26.3672 62.0117-26.3672Q64.1602-26.3672 65.625-25.3174Q67.0898-24.2676 68.1152-22.2656Q68.8477-20.166 70.6299-18.75Q72.4121-17.334 75.4883-16.8945L75.4883-29.834L72.998-30.4199Q64.6973-32.2266 60.3271-36.2305Q55.957-40.2344 55.957-46.9727Q55.957-51.9043 58.4717-55.6641Q60.9863-59.4238 65.4053-61.6455Q69.8242-63.8672 75.4883-64.3066L75.4883-68.5059Q75.4883-69.7754 76.2695-70.5566Q77.0508-71.3379 78.2715-71.3379Q79.4434-71.3379 80.249-70.5566Q81.0547-69.7754 81.0547-68.5059L81.0547-64.3066Q88.4277-63.6719 93.1396-60.3027Q97.8516-56.9336 99.2188-52.2949Q99.4629-51.6113 99.585-50.9033Q99.707-50.1953 99.707-49.5605Q99.707-47.2168 98.0957-45.752Q96.4844-44.2871 93.7988-44.2871Q89.8438-44.2871 87.5488-48.291Q86.6699-50.3418 85.0586-51.6357Q83.4473-52.9297 81.0547-53.3691L81.0547-41.0156L83.7402-40.4297Q92.4805-38.7207 96.8262-34.7412Q101.172-30.7617 101.172-23.9258Q101.172-18.75 98.6084-14.9414Q96.0449-11.1328 91.5283-8.8623Q87.0117-6.5918 81.0547-6.10352L81.0547-2.00195Q81.0547-0.78125 80.249 0.0244141Q79.4434 0.830078 78.2715 0.830078ZM75.4883-42.334L75.4883-53.5645Q72.5098-53.1738 70.7764-51.6602Q69.043-50.1465 69.043-48.0469Q69.043-45.9961 70.5322-44.6045Q72.0215-43.2129 75.0488-42.4805ZM81.0547-28.6133L81.0547-16.8945Q84.5215-17.2852 86.3525-18.7988Q88.1836-20.3125 88.1836-22.7051Q88.1836-24.8535 86.7432-26.1963Q85.3027-27.5391 81.9336-28.3691Z"/>
  </g>
  <g id="Bold-L" transform="matrix(1 0 0 1 2262.85 1556)">
   <path class="multicolor-0:tintColor hierarchical-0:tertiary SFSymbolsPreview007AFF" d="M77.0996 30.6152Q87.9395 30.6152 97.7783 27.2461Q107.617 23.877 115.869 17.8223Q124.121 11.7676 130.176 3.51562Q136.23-4.73633 139.6-14.5752Q142.969-24.4141 142.969-35.2539Q142.969-46.0938 139.6-55.9326Q136.23-65.7715 130.151-73.999Q124.072-82.2266 115.845-88.3057Q107.617-94.3848 97.7539-97.7295Q87.8906-101.074 77.0508-101.074Q66.2598-101.074 56.3965-97.7295Q46.5332-94.3848 38.3301-88.3057Q30.127-82.2266 24.0479-73.999Q17.9688-65.7715 14.624-55.9326Q11.2793-46.0938 11.2793-35.2539Q11.2793-24.4141 14.624-14.5752Q17.9688-4.73633 24.0479 3.51562Q30.127 11.7676 38.3545 17.8223Q46.582 23.877 56.4209 27.2461Q66.2598 30.6152 77.0996 30.6152Z"/>
   <path class="multicolor-1:white hierarchical-1:primary SFSymbolsPreviewFFFFFF" d="M77.0996 0.976562Q75.8789 0.976562 75.1221 0.195312Q74.3652-0.585938 74.3652-1.85547L74.3652-6.20117Q66.7969-6.68945 61.9873-10.1074Q57.1777-13.5254 55.7617-18.3594Q55.5176-19.043 55.3955-19.6533Q55.2734-20.2637 55.2734-20.8984Q55.2734-23.0469 56.665-24.4385Q58.0566-25.8301 60.4492-25.8301Q62.3047-25.8301 63.5742-24.8779Q64.8438-23.9258 65.6738-22.1191Q66.4062-19.5312 68.5547-17.7246Q70.7031-15.918 74.3652-15.4785L74.3652-30.8594L72.5098-31.2988Q64.3066-33.1543 60.0586-37.0361Q55.8105-40.918 55.8105-47.4121Q55.8105-52.0996 58.2031-55.7129Q60.5957-59.3262 64.7705-61.499Q68.9453-63.6719 74.3652-64.1113L74.3652-68.4082Q74.3652-69.6777 75.1221-70.459Q75.8789-71.2402 77.0996-71.2402Q78.3203-71.2402 79.126-70.459Q79.9316-69.6777 79.9316-68.4082L79.9316-64.1113Q86.8652-63.4766 91.5283-60.1074Q96.1914-56.7383 97.5098-51.9531Q97.7051-51.3184 97.8027-50.708Q97.9004-50.0977 97.9004-49.4629Q97.9004-47.4609 96.5332-46.167Q95.166-44.873 92.9199-44.873Q89.4043-44.873 87.5977-48.4863Q86.7188-51.0254 84.7656-52.6367Q82.8125-54.248 79.9316-54.6875L79.9316-40.0879L82.0312-39.6484Q90.625-37.9883 94.9219-34.0332Q99.2188-30.0781 99.2188-23.3887Q99.2188-18.4082 96.7285-14.6973Q94.2383-10.9863 89.8926-8.81348Q85.5469-6.64062 79.9316-6.15234L79.9316-1.85547Q79.9316-0.634766 79.126 0.170898Q78.3203 0.976562 77.0996 0.976562ZM74.3652-41.4551L74.3652-54.834Q70.8496-54.3945 68.8232-52.5635Q66.7969-50.7324 66.7969-48.1934Q66.7969-45.8008 68.5547-44.165Q70.3125-42.5293 73.877-41.6016ZM79.9316-29.5898L79.9316-15.4785Q83.9844-15.8691 86.1328-17.7734Q88.2812-19.6777 88.2812-22.4609Q88.2812-25.0488 86.5967-26.6602Q84.9121-28.2715 80.957-29.2969Z"/>
  </g>
  <g id="Semibold-L" transform="matrix(1 0 0 1 1966.97 1556)">
   <path class="multicolor-0:tintColor hierarchical-0:tertiary SFSymbolsPreview007AFF" d="M76.2695 29.7852Q86.9629 29.7852 96.6797 26.4648Q106.396 23.1445 114.551 17.1631Q122.705 11.1816 128.687 3.02734Q134.668-5.12695 137.988-14.8438Q141.309-24.5605 141.309-35.2539Q141.309-45.9473 137.988-55.6641Q134.668-65.3809 128.662-73.5107Q122.656-81.6406 114.526-87.6465Q106.396-93.6523 96.6553-96.9727Q86.9141-100.293 76.2207-100.293Q65.5273-100.293 55.8105-96.9727Q46.0938-93.6523 37.9883-87.6465Q29.8828-81.6406 23.877-73.5107Q17.8711-65.3809 14.5752-55.6641Q11.2793-45.9473 11.2793-35.2539Q11.2793-24.5605 14.5996-14.8438Q17.9199-5.12695 23.9014 3.02734Q29.8828 11.1816 38.0127 17.1631Q46.1426 23.1445 55.8594 26.4648Q65.5762 29.7852 76.2695 29.7852Z"/>
   <path class="multicolor-1:white hierarchical-1:primary SFSymbolsPreviewFFFFFF" d="M76.2695 1.07422Q75.0488 1.07422 74.292 0.317383Q73.5352-0.439453 73.5352-1.70898L73.5352-6.20117Q66.3086-6.73828 61.4746-10.1807Q56.6406-13.623 55.2246-18.7012Q55.0781-19.3359 54.9805-19.8975Q54.8828-20.459 54.8828-21.0449Q54.8828-22.9492 56.0791-24.1699Q57.2754-25.3906 59.375-25.3906Q60.9863-25.3906 62.1338-24.5361Q63.2812-23.6816 63.916-21.9727Q64.6484-19.043 67.0654-16.9922Q69.4824-14.9414 73.5352-14.4531L73.5352-31.543L72.1191-31.8848Q64.0137-33.7402 59.8145-37.5732Q55.6152-41.4062 55.6152-47.6562Q55.6152-52.2461 57.9346-55.7617Q60.2539-59.2773 64.2822-61.4014Q68.3105-63.5254 73.5352-63.9648L73.5352-68.3594Q73.5352-69.6289 74.292-70.3857Q75.0488-71.1426 76.2695-71.1426Q77.4902-71.1426 78.2959-70.3857Q79.1016-69.6289 79.1016-68.3594L79.1016-63.9648Q85.791-63.3301 90.4053-59.9609Q95.0195-56.5918 96.2891-51.6602Q96.4355-51.123 96.5332-50.5371Q96.6309-49.9512 96.6309-49.4141Q96.6309-47.6074 95.4346-46.4355Q94.2383-45.2637 92.2363-45.2637Q89.0625-45.2637 87.5977-48.584Q86.7188-51.4648 84.5215-53.2959Q82.3242-55.127 79.1016-55.6152L79.1016-39.4531L80.8594-39.1113Q89.3066-37.4512 93.5547-33.5205Q97.8027-29.5898 97.8027-23.0469Q97.8027-18.1152 95.3857-14.502Q92.9688-10.8887 88.7207-8.76465Q84.4727-6.64062 79.1016-6.15234L79.1016-1.70898Q79.1016-0.488281 78.2959 0.292969Q77.4902 1.07422 76.2695 1.07422ZM73.5352-40.8203L73.5352-55.6641Q69.6777-55.1758 67.4316-53.125Q65.1855-51.0742 65.1855-48.291Q65.1855-45.6055 67.1387-43.8232Q69.0918-42.041 73.0469-40.9668ZM79.1016-30.2246L79.1016-14.4531Q83.5449-14.8926 85.9131-17.041Q88.2812-19.1895 88.2812-22.3145Q88.2812-25.1465 86.4502-26.9775Q84.6191-28.8086 80.2246-29.8828Z"/>
  </g>
  <g id="Medium-L" transform="matrix(1 0 0 1 1670.87 1556)">
   <path class="multicolor-0:tintColor hierarchical-0:tertiary SFSymbolsPreview007AFF" d="M75.6836 29.1504Q86.2305 29.1504 95.8496 25.8545Q105.469 22.5586 113.55 16.626Q121.631 10.6934 127.563 2.63672Q133.496-5.41992 136.792-15.0635Q140.088-24.707 140.088-35.2539Q140.088-45.8496 136.792-55.4688Q133.496-65.0879 127.539-73.1445Q121.582-81.2012 113.525-87.1582Q105.469-93.1152 95.8252-96.3867Q86.1816-99.6582 75.6348-99.6582Q65.0391-99.6582 55.4199-96.3867Q45.8008-93.1152 37.7441-87.1582Q29.6875-81.2012 23.7549-73.1445Q17.8223-65.0879 14.5508-55.4688Q11.2793-45.8496 11.2793-35.2539Q11.2793-24.707 14.5508-15.0635Q17.8223-5.41992 23.7549 2.63672Q29.6875 10.6934 37.7686 16.626Q45.8496 22.5586 55.4688 25.8545Q65.0879 29.1504 75.6836 29.1504Z"/>
   <path class="multicolor-1:white hierarchical-1:primary SFSymbolsPreviewFFFFFF" d="M75.6836 1.17188Q74.5117 1.17188 73.7305 0.390625Q72.9492-0.390625 72.9492-1.61133L72.9492-6.25Q66.0156-6.83594 61.1572-10.2539Q56.2988-13.6719 54.9316-18.9941Q54.7852-19.5801 54.6875-20.0928Q54.5898-20.6055 54.5898-21.1426Q54.5898-22.9004 55.6885-23.999Q56.7871-25.0977 58.5938-25.0977Q60.0586-25.0977 61.084-24.292Q62.1094-23.4863 62.6953-21.875Q63.4277-18.7012 66.04-16.4551Q68.6523-14.209 72.9492-13.7207L72.9492-32.0801L71.9238-32.3242Q63.8184-34.2285 59.6924-37.9883Q55.5664-41.748 55.5664-47.8516Q55.5664-52.2949 57.8125-55.7373Q60.0586-59.1797 63.9893-61.3037Q67.9199-63.4277 72.9492-63.916L72.9492-68.3105Q72.9492-69.5312 73.7305-70.3125Q74.5117-71.0938 75.6836-71.0938Q76.9043-71.0938 77.71-70.3125Q78.5156-69.5312 78.5156-68.3105L78.5156-63.916Q85.0098-63.2812 89.5996-59.8877Q94.1895-56.4941 95.459-51.4648Q95.5566-50.9277 95.6543-50.415Q95.752-49.9023 95.752-49.3652Q95.752-47.7051 94.6533-46.6309Q93.5547-45.5566 91.7969-45.5566Q88.916-45.5566 87.6465-48.6816Q86.7676-51.8066 84.3994-53.7842Q82.0312-55.7617 78.5156-56.2988L78.5156-38.9648L79.9805-38.6719Q88.3789-37.0605 92.6025-33.1543Q96.8262-29.248 96.8262-22.7539Q96.8262-17.9199 94.4336-14.3799Q92.041-10.8398 87.8906-8.74023Q83.7402-6.64062 78.5156-6.20117L78.5156-1.61133Q78.5156-0.390625 77.71 0.390625Q76.9043 1.17188 75.6836 1.17188ZM72.9492-40.3809L72.9492-56.3477Q68.8477-55.8105 66.4307-53.5889Q64.0137-51.3672 64.0137-48.3887Q64.0137-45.5078 66.1133-43.6035Q68.2129-41.6992 72.5098-40.4785ZM78.5156-30.7617L78.5156-13.7207Q83.3008-14.1602 85.8398-16.5039Q88.3789-18.8477 88.3789-22.168Q88.3789-25.2441 86.4014-27.2217Q84.4238-29.1992 79.7363-30.3711Z"/>
  </g>
  <g id="Regular-L" transform="matrix(1 0 0 1 1374.97 1556)">
   <path class="multicolor-0:tintColor hierarchical-0:tertiary SFSymbolsPreview007AFF" d="M74.8535 28.3203Q85.3027 28.3203 94.7998 25.0732Q104.297 21.8262 112.256 15.9668Q120.215 10.1074 126.099 2.14844Q131.982-5.81055 135.229-15.332Q138.477-24.8535 138.477-35.2539Q138.477-45.7031 135.229-55.2002Q131.982-64.6973 126.099-72.6562Q120.215-80.6152 112.256-86.499Q104.297-92.3828 94.7754-95.6299Q85.2539-98.877 74.8047-98.877Q64.3555-98.877 54.8584-95.6299Q45.3613-92.3828 37.4268-86.499Q29.4922-80.6152 23.6084-72.6562Q17.7246-64.6973 14.502-55.2002Q11.2793-45.7031 11.2793-35.2539Q11.2793-24.8535 14.5264-15.332Q17.7734-5.81055 23.6328 2.14844Q29.4922 10.1074 37.4512 15.9668Q45.4102 21.8262 54.9072 25.0732Q64.4043 28.3203 74.8535 28.3203Z"/>
   <path class="multicolor-1:white hierarchical-1:primary SFSymbolsPreviewFFFFFF" d="M74.8535 1.26953Q73.6816 1.26953 72.9004 0.512695Q72.1191-0.244141 72.1191-1.46484L72.1191-6.29883Q65.5273-6.88477 60.6445-10.3271Q55.7617-13.7695 54.4434-19.3848Q54.3457-19.873 54.2725-20.3369Q54.1992-20.8008 54.1992-21.2891Q54.1992-22.8027 55.127-23.7549Q56.0547-24.707 57.5195-24.707Q58.7891-24.707 59.668-23.9746Q60.5469-23.2422 60.9863-21.7773Q61.7188-18.2129 64.5752-15.7471Q67.4316-13.2812 72.1191-12.7441L72.1191-32.7637L71.5332-32.9102Q63.5254-34.8145 59.4727-38.5254Q55.4199-42.2363 55.4199-48.1445Q55.4199-52.4414 57.5928-55.7861Q59.7656-59.1309 63.5254-61.2061Q67.2852-63.2812 72.1191-63.7695L72.1191-68.2617Q72.1191-69.4824 72.9004-70.2393Q73.6816-70.9961 74.8535-70.9961Q76.0742-70.9961 76.8799-70.2393Q77.6855-69.4824 77.6855-68.2617L77.6855-63.7695Q83.9355-63.1348 88.4766-59.7412Q93.0176-56.3477 94.2383-51.2207Q94.3359-50.7324 94.4092-50.2686Q94.4824-49.8047 94.4824-49.3164Q94.4824-47.8516 93.5547-46.8994Q92.627-45.9473 91.1621-45.9473Q88.5742-45.9473 87.6465-48.8281Q86.7676-52.2949 84.1553-54.4678Q81.543-56.6406 77.6855-57.1777L77.6855-38.3301L78.8086-38.1348Q87.1094-36.5234 91.2842-32.6416Q95.459-28.7598 95.459-22.4121Q95.459-17.6758 93.1152-14.209Q90.7715-10.7422 86.7432-8.69141Q82.7148-6.64062 77.6855-6.20117L77.6855-1.46484Q77.6855-0.292969 76.8799 0.488281Q76.0742 1.26953 74.8535 1.26953ZM72.1191-39.7461L72.1191-57.1777Q67.7246-56.5918 65.0879-54.1748Q62.4512-51.7578 62.4512-48.4863Q62.4512-45.3613 64.7217-43.2861Q66.9922-41.2109 71.6797-39.8926ZM77.6855-31.3965L77.6855-12.7441Q82.9102-13.2324 85.6689-15.7959Q88.4277-18.3594 88.4277-22.0215Q88.4277-25.3418 86.2793-27.5146Q84.1309-29.6875 79.0527-31.0059Z"/>
  </g>
  <g id="Light-L" transform="matrix(1 0 0 1 1079.18 1556)">
   <path class="multicolor-0:tintColor hierarchical-0:tertiary SFSymbolsPreview007AFF" d="M73.9258 27.3926Q84.2285 27.3926 93.6035 24.1943Q102.979 20.9961 110.815 15.2344Q118.652 9.47266 124.438 1.63574Q130.225-6.20117 133.423-15.5762Q136.621-24.9512 136.621-35.2539Q136.621-45.5566 133.423-54.9316Q130.225-64.3066 124.438-72.1436Q118.652-79.9805 110.815-85.7666Q102.979-91.5527 93.6035-94.751Q84.2285-97.9492 73.877-97.9492Q63.5742-97.9492 54.2236-94.751Q44.873-91.5527 37.0361-85.7666Q29.1992-79.9805 23.4131-72.1436Q17.627-64.3066 14.4531-54.9316Q11.2793-45.5566 11.2793-35.2539Q11.2793-24.9512 14.4775-15.5762Q17.6758-6.20117 23.4375 1.63574Q29.1992 9.47266 37.0361 15.2344Q44.873 20.9961 54.248 24.1943Q63.623 27.3926 73.9258 27.3926Z"/>
   <path class="multicolor-1:white hierarchical-1:primary SFSymbolsPreviewFFFFFF" d="M73.9258 0.488281Q72.9492 0.488281 72.29-0.146484Q71.6309-0.78125 71.6309-1.80664L71.6309-6.83594Q64.9414-7.37305 60.1562-10.8643Q55.3711-14.3555 54.1504-19.9219Q54.0527-20.4102 53.9795-20.8252Q53.9062-21.2402 53.9062-21.6797Q53.9062-22.9492 54.6631-23.7061Q55.4199-24.4629 56.5918-24.4629Q57.666-24.4629 58.3496-23.8525Q59.0332-23.2422 59.3262-22.0215Q60.0098-17.9688 63.2568-15.2588Q66.5039-12.5488 71.6309-12.0605L71.6309-33.3008L70.8496-33.4473Q63.0371-35.3027 59.1064-38.8672Q55.1758-42.4316 55.1758-48.0469Q55.1758-52.0996 57.3486-55.3467Q59.5215-58.5938 63.2324-60.5713Q66.9434-62.5488 71.6309-62.9883L71.6309-67.4316Q71.6309-68.5059 72.2656-69.1162Q72.9004-69.7266 73.9258-69.7266Q74.9512-69.7266 75.6104-69.0918Q76.2695-68.457 76.2695-67.4316L76.2695-62.9883Q82.5684-62.4512 87.085-59.082Q91.6016-55.7129 92.7246-50.7324Q92.7734-50.3418 92.8467-49.9023Q92.9199-49.4629 92.9199-49.0234Q92.9199-47.8027 92.1631-47.0459Q91.4062-46.2891 90.2344-46.2891Q88.0859-46.2891 87.4512-48.7305Q86.6699-52.3926 83.6914-54.7852Q80.7129-57.1777 76.2695-57.666L76.2695-37.7441L77.832-37.4023Q85.8887-35.7422 89.917-32.0557Q93.9453-28.3691 93.9453-22.3633Q93.9453-17.9199 91.6504-14.5508Q89.3555-11.1816 85.376-9.15527Q81.3965-7.12891 76.2695-6.73828L76.2695-1.80664Q76.2695-0.830078 75.6104-0.170898Q74.9512 0.488281 73.9258 0.488281ZM71.6309-38.8672L71.6309-57.666Q66.8945-57.1289 63.8428-54.5166Q60.791-51.9043 60.791-48.2422Q60.791-44.7754 63.4033-42.5781Q66.0156-40.3809 71.2402-39.0137ZM76.2695-32.1289L76.2695-12.0605Q81.9336-12.5 85.1318-15.2832Q88.3301-18.0664 88.3301-22.1191Q88.3301-25.7812 85.8398-28.1006Q83.3496-30.4199 77.6367-31.7871Z"/>
  </g>
  <g id="Thin-L" transform="matrix(1 0 0 1 783.693 1556)">
   <path class="multicolor-0:tintColor hierarchical-0:tertiary SFSymbolsPreview007AFF" d="M72.7051 26.1719Q82.8613 26.1719 92.041 23.0469Q101.221 19.9219 108.911 14.2822Q116.602 8.64258 122.266 0.952148Q127.93-6.73828 131.055-15.9424Q134.18-25.1465 134.18-35.2539Q134.18-45.4102 131.055-54.5898Q127.93-63.7695 122.29-71.46Q116.65-79.1504 108.936-84.8145Q101.221-90.4785 92.0166-93.6035Q82.8125-96.7285 72.7051-96.7285Q62.5488-96.7285 53.3691-93.6035Q44.1895-90.4785 36.499-84.8145Q28.8086-79.1504 23.1689-71.46Q17.5293-63.7695 14.4043-54.5898Q11.2793-45.4102 11.2793-35.2539Q11.2793-25.1465 14.4043-15.9424Q17.5293-6.73828 23.1689 0.952148Q28.8086 8.64258 36.5234 14.2822Q44.2383 19.9219 53.418 23.0469Q62.5977 26.1719 72.7051 26.1719Z"/>
   <path class="multicolor-1:white hierarchical-1:primary SFSymbolsPreviewFFFFFF" d="M72.7051-0.537109Q71.9238-0.537109 71.46-1.00098Q70.9961-1.46484 70.9961-2.24609L70.9961-7.56836Q64.1113-7.95898 59.4482-11.5723Q54.7852-15.1855 53.7109-20.7031Q53.6621-21.0449 53.6133-21.4355Q53.5645-21.8262 53.5645-22.2168Q53.5645-23.0957 54.0527-23.6328Q54.541-24.1699 55.3223-24.1699Q56.1523-24.1699 56.5918-23.6816Q57.0312-23.1934 57.1777-22.3633Q57.7148-17.627 61.499-14.5996Q65.2832-11.5723 70.9961-11.1816L70.9961-33.9355L69.9219-34.1797Q62.3535-35.9863 58.5938-39.3555Q54.834-42.7246 54.834-47.8516Q54.834-51.709 56.9824-54.7607Q59.1309-57.8125 62.8174-59.7168Q66.5039-61.6211 70.9961-61.9629L70.9961-66.3574Q70.9961-67.1387 71.46-67.6025Q71.9238-68.0664 72.7051-68.0664Q73.4375-68.0664 73.9258-67.5781Q74.4141-67.0898 74.4141-66.3574L74.4141-61.9629Q80.7617-61.5234 85.2051-58.2031Q89.6484-54.8828 90.6738-50.1465Q90.7227-49.8047 90.7715-49.4141Q90.8203-49.0234 90.8203-48.6328Q90.8203-47.8027 90.332-47.2656Q89.8438-46.7285 89.0137-46.7285Q87.4512-46.7285 87.1582-48.584Q86.5234-52.5391 83.0322-55.2002Q79.541-57.8613 74.4141-58.252L74.4141-36.9141L76.4648-36.4746Q84.3262-34.7168 88.1104-31.2744Q91.8945-27.832 91.8945-22.2656Q91.8945-18.2129 89.6973-14.9902Q87.5-11.7676 83.5693-9.79004Q79.6387-7.8125 74.4141-7.51953L74.4141-2.24609Q74.4141-1.51367 73.9258-1.02539Q73.4375-0.537109 72.7051-0.537109ZM70.9961-37.7441L70.9961-58.252Q65.7227-57.9102 62.1338-55.0293Q58.5449-52.1484 58.5449-47.9004Q58.5449-43.9941 61.6211-41.626Q64.6973-39.2578 70.6543-37.8418ZM74.4141-33.1543L74.4141-11.1816Q80.6641-11.4746 84.4482-14.5752Q88.2324-17.6758 88.2324-22.2168Q88.2324-26.3184 85.2295-28.833Q82.2266-31.3477 75.7812-32.8125Z"/>
  </g>
  <g id="Ultralight-L" transform="matrix(1 0 0 1 487.592 1556)">
   <path class="multicolor-0:tintColor hierarchical-0:tertiary SFSymbolsPreview007AFF" d="M72.0703 25.5371Q82.1289 25.5371 91.2354 22.4609Q100.342 19.3848 107.935 13.7939Q115.527 8.20312 121.143 0.585938Q126.758-7.03125 129.858-16.1133Q132.959-25.1953 132.959-35.2539Q132.959-45.3125 129.858-54.4189Q126.758-63.5254 121.167-71.1182Q115.576-78.7109 107.959-84.3262Q100.342-89.9414 91.2354-93.0176Q82.1289-96.0938 72.0703-96.0938Q62.0605-96.0938 52.9541-93.0176Q43.8477-89.9414 36.2305-84.3262Q28.6133-78.7109 23.0225-71.1182Q17.4316-63.5254 14.3555-54.4189Q11.2793-45.3125 11.2793-35.2539Q11.2793-25.1953 14.3555-16.1133Q17.4316-7.03125 23.0225 0.585938Q28.6133 8.20312 36.2305 13.7939Q43.8477 19.3848 52.9541 22.4609Q62.0605 25.5371 72.0703 25.5371Z"/>
   <path class="multicolor-1:white hierarchical-1:primary SFSymbolsPreviewFFFFFF" d="M72.0703-1.07422Q71.4355-1.07422 71.0449-1.46484Q70.6543-1.85547 70.6543-2.44141L70.6543-7.91016Q63.7207-8.30078 59.1309-11.9385Q54.541-15.5762 53.5156-21.0449Q53.4668-21.4355 53.418-21.7773Q53.3691-22.1191 53.3691-22.4609Q53.3691-23.1934 53.7354-23.6084Q54.1016-24.0234 54.6875-24.0234Q55.4199-24.0234 55.7373-23.6084Q56.0547-23.1934 56.0547-22.5098Q56.543-17.4805 60.6201-14.2822Q64.6973-11.084 70.6543-10.6934L70.6543-34.3262L69.4824-34.5215Q62.0117-36.3281 58.3496-39.5996Q54.6875-42.8711 54.6875-47.8027Q54.6875-51.4648 56.8359-54.4678Q58.9844-57.4707 62.6221-59.3018Q66.2598-61.1328 70.6543-61.4258L70.6543-65.8203Q70.6543-66.5039 71.0205-66.8457Q71.3867-67.1875 72.0703-67.1875Q72.6562-67.1875 73.0713-66.7969Q73.4863-66.4062 73.4863-65.8203L73.4863-61.4258Q79.834-61.0352 84.2773-57.7637Q88.7207-54.4922 89.6484-49.8047Q89.6973-49.5117 89.7461-49.1699Q89.7949-48.8281 89.7949-48.4375Q89.7949-47.7539 89.4043-47.3389Q89.0137-46.9238 88.3789-46.9238Q87.1582-46.9238 87.0117-48.4863Q86.4258-52.6367 82.7148-55.4443Q79.0039-58.252 73.4863-58.5938L73.4863-36.5234L75.8301-35.9863Q83.4961-34.1797 87.1826-30.8594Q90.8691-27.5391 90.8691-22.2168Q90.8691-18.3594 88.6963-15.21Q86.5234-12.0605 82.6416-10.1074Q78.7598-8.1543 73.4863-7.86133L73.4863-2.44141Q73.4863-1.9043 73.0713-1.48926Q72.6562-1.07422 72.0703-1.07422ZM70.6543-37.1582L70.6543-58.5938Q65.1855-58.252 61.3037-55.249Q57.4219-52.2461 57.4219-47.7051Q57.4219-43.6035 60.7178-41.1621Q64.0137-38.7207 70.3613-37.207ZM73.4863-33.6426L73.4863-10.6934Q79.9805-10.9863 84.082-14.209Q88.1836-17.4316 88.1836-22.2656Q88.1836-26.6113 84.9609-29.2236Q81.7383-31.8359 74.8535-33.3496Z"/>
  </g>
  <g id="Black-M" transform="matrix(1 0 0 1 2871.32 1126)">
   <path class="multicolor-0:tintColor hierarchical-0:tertiary SFSymbolsPreview007AFF" d="M62.0605 18.1152Q73.0957 18.1152 82.7637 13.9648Q92.4316 9.81445 99.7559 2.46582Q107.08-4.88281 111.255-14.5264Q115.43-24.1699 115.43-35.2051Q115.43-46.2402 111.255-55.8838Q107.08-65.5273 99.7559-72.876Q92.4316-80.2246 82.7637-84.375Q73.0957-88.5254 62.0605-88.5254Q51.0742-88.5254 41.4062-84.375Q31.7383-80.2246 24.3896-72.876Q17.041-65.5273 12.8906-55.8838Q8.74023-46.2402 8.74023-35.2051Q8.74023-24.1699 12.8906-14.5264Q17.041-4.88281 24.3896 2.46582Q31.7383 9.81445 41.4062 13.9648Q51.0742 18.1152 62.0605 18.1152Z"/>
   <path class="multicolor-1:white hierarchical-1:primary SFSymbolsPreviewFFFFFF" d="M62.0117-7.8125Q61.1328-7.8125 60.5713-8.37402Q60.0098-8.93555 60.0098-9.91211L60.0098-12.7441Q53.0273-13.0859 49.3896-15.6982Q45.752-18.3105 44.5801-21.0938Q44.2383-21.8262 44.1162-22.4854Q43.9941-23.1445 43.9941-23.7305Q43.9941-26.123 45.5322-27.6367Q47.0703-29.1504 49.9512-29.1504Q52.002-29.1504 53.3936-28.1738Q54.7852-27.1973 55.7617-25.4883Q56.2988-24.5117 57.2998-23.8037Q58.3008-23.0957 60.0098-22.8516L60.0098-29.7852L57.0801-30.4199Q50.5371-31.7871 47.0459-34.9609Q43.5547-38.1348 43.5547-43.7012Q43.5547-49.8535 48.1934-53.6133Q52.832-57.373 60.0098-57.7637L60.0098-60.8398Q60.0098-61.8164 60.5713-62.3779Q61.1328-62.9395 62.0117-62.9395Q62.8906-62.9395 63.4521-62.3779Q64.0137-61.8164 64.0137-60.8398L64.0137-57.7637Q70.3125-57.2754 74.0234-54.7119Q77.7344-52.1484 78.8574-48.8281Q79.1016-48.2422 79.2236-47.583Q79.3457-46.9238 79.3457-46.2891Q79.3457-44.1895 77.832-42.8467Q76.3184-41.5039 73.6816-41.5039Q70.0195-41.5039 67.6758-45.0195Q67.041-45.9961 66.1621-46.6309Q65.2832-47.2656 64.0137-47.5586L64.0137-40.8203L67.041-40.1855Q73.9258-38.7695 77.3193-35.6934Q80.7129-32.6172 80.7129-27.1973Q80.7129-20.9961 76.1719-17.1875Q71.6309-13.3789 64.0137-12.793L64.0137-9.91211Q64.0137-8.93555 63.4521-8.37402Q62.8906-7.8125 62.0117-7.8125ZM60.0098-41.748L60.0098-47.7539Q58.3008-47.6562 57.251-46.8506Q56.2012-46.0449 56.2012-44.8242Q56.2012-43.6523 57.1045-42.8955Q58.0078-42.1387 59.668-41.8457ZM64.0137-28.9551L64.0137-22.8516Q65.9668-23.0957 67.041-23.8281Q68.1152-24.5605 68.1152-25.8789Q68.1152-27.0996 67.2607-27.7588Q66.4062-28.418 64.4531-28.8574Z"/>
  </g>
  <g id="Heavy-M" transform="matrix(1 0 0 1 2575.43 1126)">
   <path class="multicolor-0:tintColor hierarchical-0:tertiary SFSymbolsPreview007AFF" d="M61.2305 17.2852Q72.0703 17.2852 81.5918 13.1836Q91.1133 9.08203 98.3154 1.85547Q105.518-5.37109 109.644-14.8682Q113.77-24.3652 113.77-35.2051Q113.77-46.0449 109.644-55.542Q105.518-65.0391 98.3154-72.29Q91.1133-79.541 81.5918-83.6182Q72.0703-87.6953 61.2305-87.6953Q50.4395-87.6953 40.918-83.6182Q31.3965-79.541 24.1699-72.29Q16.9434-65.0391 12.8418-55.542Q8.74023-46.0449 8.74023-35.2051Q8.74023-24.3652 12.8418-14.8682Q16.9434-5.37109 24.1699 1.85547Q31.3965 9.08203 40.918 13.1836Q50.4395 17.2852 61.2305 17.2852Z"/>
   <path class="multicolor-1:white hierarchical-1:primary SFSymbolsPreviewFFFFFF" d="M61.1816-7.51953Q60.2539-7.51953 59.668-8.10547Q59.082-8.69141 59.082-9.66797L59.082-12.6953Q52.5391-13.0859 48.877-15.6982Q45.2148-18.3105 44.043-21.4844Q43.75-22.1191 43.6523-22.7051Q43.5547-23.291 43.5547-23.8281Q43.5547-25.9766 44.9219-27.3438Q46.2891-28.7109 48.7793-28.7109Q50.6348-28.7109 51.8799-27.8076Q53.125-26.9043 53.9551-25.293Q54.541-23.9746 55.7617-23.0225Q56.9824-22.0703 59.082-21.7285L59.082-30.5664L56.7383-31.0547Q50.293-32.4707 46.8506-35.5957Q43.4082-38.7207 43.4082-44.0918Q43.4082-50 47.8271-53.6621Q52.2461-57.3242 59.082-57.7637L59.082-60.9375Q59.082-61.9629 59.668-62.5488Q60.2539-63.1348 61.1816-63.1348Q62.1094-63.1348 62.6953-62.5488Q63.2812-61.9629 63.2812-60.9375L63.2812-57.7637Q69.2383-57.2754 72.9004-54.6875Q76.5625-52.0996 77.6855-48.6328Q77.8809-48.0469 77.9785-47.4609Q78.0762-46.875 78.0762-46.2891Q78.0762-44.3848 76.7334-43.1641Q75.3906-41.9434 73.0469-41.9434Q69.7266-41.9434 67.7734-45.2148Q67.0898-46.582 65.9912-47.4365Q64.8926-48.291 63.2812-48.584L63.2812-40.1367L65.7227-39.6484Q72.5586-38.2812 75.9277-35.1807Q79.2969-32.0801 79.2969-26.7578Q79.2969-20.6543 74.8779-16.9678Q70.459-13.2812 63.2812-12.6953L63.2812-9.66797Q63.2812-8.69141 62.6953-8.10547Q62.1094-7.51953 61.1816-7.51953ZM59.082-41.1621L59.082-48.7793Q57.0312-48.5352 55.7861-47.5098Q54.541-46.4844 54.541-45.0195Q54.541-43.6035 55.6152-42.6758Q56.6895-41.748 58.7402-41.2598ZM63.2812-29.6387L63.2812-21.7285Q65.6738-22.0215 66.9434-23.0225Q68.2129-24.0234 68.2129-25.6836Q68.2129-27.1484 67.2119-28.0273Q66.2109-28.9062 63.8672-29.4922Z"/>
  </g>
  <g id="Bold-M" transform="matrix(1 0 0 1 2279.65 1126)">
   <path class="multicolor-0:tintColor hierarchical-0:tertiary SFSymbolsPreview007AFF" d="M60.3027 16.3574Q70.9473 16.3574 80.2734 12.3291Q89.5996 8.30078 96.7041 1.17188Q103.809-5.95703 107.861-15.2832Q111.914-24.6094 111.914-35.2539Q111.914-45.8496 107.861-55.1758Q103.809-64.502 96.7041-71.6309Q89.5996-78.7598 80.249-82.7881Q70.8984-86.8164 60.3027-86.8164Q49.707-86.8164 40.3564-82.7881Q31.0059-78.7598 23.9014-71.6309Q16.7969-64.502 12.7686-55.1758Q8.74023-45.8496 8.74023-35.2539Q8.74023-24.6094 12.7686-15.2832Q16.7969-5.95703 23.9258 1.17188Q31.0547 8.30078 40.3809 12.3291Q49.707 16.3574 60.3027 16.3574Z"/>
   <path class="multicolor-1:white hierarchical-1:primary SFSymbolsPreviewFFFFFF" d="M60.3027-7.17773Q59.375-7.17773 58.7402-7.78809Q58.1055-8.39844 58.1055-9.42383L58.1055-12.6465Q52.0996-13.0371 48.3643-15.6738Q44.6289-18.3105 43.5059-21.875Q43.3105-22.4609 43.2129-22.9736Q43.1152-23.4863 43.1152-23.9746Q43.1152-25.8301 44.2871-27.002Q45.459-28.1738 47.5586-28.1738Q49.1211-28.1738 50.2197-27.3926Q51.3184-26.6113 52.002-25.0977Q52.5879-23.3398 54.0771-22.1191Q55.5664-20.8984 58.1055-20.5078L58.1055-31.3965L56.4941-31.7871Q50.0488-33.2031 46.7041-36.2793Q43.3594-39.3555 43.3594-44.5312Q43.3594-50.1953 47.5098-53.7354Q51.6602-57.2754 58.1055-57.8125L58.1055-61.084Q58.1055-62.1094 58.7402-62.7197Q59.375-63.3301 60.3027-63.3301Q61.2793-63.3301 61.8896-62.7197Q62.5-62.1094 62.5-61.084L62.5-57.8125Q68.0664-57.2754 71.7041-54.6631Q75.3418-52.0508 76.416-48.3887Q76.5625-47.9004 76.6602-47.3633Q76.7578-46.8262 76.7578-46.3379Q76.7578-44.6289 75.5859-43.5303Q74.4141-42.4316 72.4609-42.4316Q69.4824-42.4316 67.9199-45.459Q67.1875-47.2168 65.8447-48.3154Q64.502-49.4141 62.5-49.8047L62.5-39.4043L64.3555-39.0137Q71.0938-37.7441 74.4385-34.6436Q77.7832-31.543 77.7832-26.2695Q77.7832-20.3125 73.5107-16.748Q69.2383-13.1836 62.5-12.5977L62.5-9.42383Q62.5-8.39844 61.8896-7.78809Q61.2793-7.17773 60.3027-7.17773ZM58.1055-40.5273L58.1055-49.9023Q55.6641-49.5605 54.2236-48.291Q52.7832-47.0215 52.7832-45.2637Q52.7832-43.5547 54.0283-42.4072Q55.2734-41.2598 57.7637-40.625ZM62.5-30.4199L62.5-20.5078Q65.4297-20.8496 66.8945-22.1436Q68.3594-23.4375 68.3594-25.4395Q68.3594-27.2461 67.2119-28.3691Q66.0645-29.4922 63.2812-30.2246Z"/>
  </g>
  <g id="Semibold-M" transform="matrix(1 0 0 1 1983.6 1126)">
   <path class="multicolor-0:tintColor hierarchical-0:tertiary SFSymbolsPreview007AFF" d="M59.668 15.6738Q70.1172 15.6738 79.3457 11.6943Q88.5742 7.71484 95.6055 0.683594Q102.637-6.34766 106.616-15.5518Q110.596-24.7559 110.596-35.2539Q110.596-45.7031 106.616-54.9072Q102.637-64.1113 95.6055-71.1426Q88.5742-78.1738 79.3457-82.1777Q70.1172-86.1816 59.6191-86.1816Q49.1699-86.1816 39.9658-82.1777Q30.7617-78.1738 23.7305-71.1426Q16.6992-64.1113 12.7197-54.9072Q8.74023-45.7031 8.74023-35.2539Q8.74023-24.7559 12.7197-15.5518Q16.6992-6.34766 23.7305 0.683594Q30.7617 7.71484 39.9902 11.6943Q49.2188 15.6738 59.668 15.6738Z"/>
   <path class="multicolor-1:white hierarchical-1:primary SFSymbolsPreviewFFFFFF" d="M59.6191-6.93359Q58.6426-6.93359 58.0078-7.54395Q57.373-8.1543 57.373-9.22852L57.373-12.5977Q51.6602-13.0371 47.9248-15.6494Q44.1895-18.2617 43.0664-22.168Q42.8711-22.6562 42.7979-23.1445Q42.7246-23.6328 42.7246-24.0723Q42.7246-25.7324 43.7744-26.7822Q44.8242-27.832 46.582-27.832Q48.0469-27.832 48.999-27.0996Q49.9512-26.3672 50.5859-24.9023Q51.1719-22.9004 52.8564-21.4844Q54.541-20.0684 57.373-19.6777L57.373-31.9824L56.2012-32.2754Q49.8047-33.7402 46.5088-36.7432Q43.2129-39.7461 43.2129-44.8242Q43.2129-50.293 47.1924-53.7598Q51.1719-57.2266 57.373-57.8125L57.373-61.1328Q57.373-62.207 58.0078-62.8174Q58.6426-63.4277 59.6191-63.4277Q60.5957-63.4277 61.2549-62.8174Q61.9141-62.207 61.9141-61.1328L61.9141-57.8125Q67.1875-57.2754 70.7764-54.6387Q74.3652-52.002 75.4395-48.1934Q75.5859-47.7539 75.6836-47.2656Q75.7812-46.7773 75.7812-46.3379Q75.7812-44.7754 74.7314-43.7744Q73.6816-42.7734 71.9238-42.7734Q69.2383-42.7734 67.9199-45.6055Q67.1875-47.6074 65.6738-48.877Q64.1602-50.1465 61.9141-50.5859L61.9141-38.8672L63.3301-38.5742Q69.9707-37.3535 73.3154-34.2285Q76.6602-31.1035 76.6602-25.8789Q76.6602-20.0195 72.4854-16.5771Q68.3105-13.1348 61.9141-12.5488L61.9141-9.22852Q61.9141-8.1543 61.2549-7.54395Q60.5957-6.93359 59.6191-6.93359ZM57.373-40.0391L57.373-50.6348Q54.6387-50.2441 53.0762-48.8037Q51.5137-47.3633 51.5137-45.4102Q51.5137-43.5059 52.8564-42.2119Q54.1992-40.918 57.0312-40.1367ZM61.9141-30.9082L61.9141-19.6777Q65.1367-20.0195 66.7725-21.5332Q68.4082-23.0469 68.4082-25.2441Q68.4082-27.2461 67.1387-28.5645Q65.8691-29.8828 62.793-30.7129Z"/>
  </g>
  <g id="Medium-M" transform="matrix(1 0 0 1 1687.38 1126)">
   <path class="multicolor-0:tintColor hierarchical-0:tertiary SFSymbolsPreview007AFF" d="M59.1797 15.1855Q69.5312 15.1855 78.6621 11.2305Q87.793 7.27539 94.751 0.317383Q101.709-6.64062 105.664-15.7715Q109.619-24.9023 109.619-35.2539Q109.619-45.6055 105.664-54.7363Q101.709-63.8672 94.751-70.8252Q87.793-77.7832 78.6377-81.7383Q69.4824-85.6934 59.1309-85.6934Q48.7793-85.6934 39.6484-81.7383Q30.5176-77.7832 23.584-70.8252Q16.6504-63.8672 12.6953-54.7363Q8.74023-45.6055 8.74023-35.2539Q8.74023-24.9023 12.6953-15.7715Q16.6504-6.64062 23.6084 0.317383Q30.5664 7.27539 39.6973 11.2305Q48.8281 15.1855 59.1797 15.1855Z"/>
   <path class="multicolor-1:white hierarchical-1:primary SFSymbolsPreviewFFFFFF" d="M59.1797-6.73828Q58.1543-6.73828 57.4951-7.37305Q56.8359-8.00781 56.8359-9.08203L56.8359-12.5488Q51.416-12.9883 47.6318-15.625Q43.8477-18.2617 42.7734-22.3633Q42.627-22.8516 42.5537-23.2666Q42.4805-23.6816 42.4805-24.1211Q42.4805-25.6348 43.4326-26.5869Q44.3848-27.5391 45.9473-27.5391Q47.2168-27.5391 48.1201-26.8555Q49.0234-26.1719 49.5605-24.8047Q50.1465-22.6074 51.9531-21.0205Q53.7598-19.4336 56.8359-18.9941L56.8359-32.4219L56.0547-32.6172Q49.707-34.1309 46.4355-37.1094Q43.1641-40.0879 43.1641-45.0195Q43.1641-50.3906 47.0215-53.8086Q50.8789-57.2266 56.8359-57.8125L56.8359-61.1816Q56.8359-62.2559 57.4951-62.8906Q58.1543-63.5254 59.1797-63.5254Q60.1562-63.5254 60.8154-62.8906Q61.4746-62.2559 61.4746-61.1816L61.4746-57.8125Q66.6016-57.2754 70.166-54.6387Q73.7305-52.002 74.7559-48.0469Q74.9023-47.6562 74.9756-47.2168Q75.0488-46.7773 75.0488-46.3379Q75.0488-44.873 74.0967-43.9453Q73.1445-43.0176 71.582-43.0176Q69.0918-43.0176 67.9688-45.7031Q67.2363-47.9492 65.5762-49.3408Q63.916-50.7324 61.4746-51.2207L61.4746-38.4766L62.5977-38.2812Q69.1895-37.0605 72.5342-33.9355Q75.8789-30.8105 75.8789-25.6348Q75.8789-19.8242 71.7773-16.4307Q67.6758-13.0371 61.4746-12.4512L61.4746-9.08203Q61.4746-8.00781 60.8154-7.37305Q60.1562-6.73828 59.1797-6.73828ZM56.8359-39.6973L56.8359-51.2207Q53.9551-50.7812 52.2461-49.1943Q50.5371-47.6074 50.5371-45.5078Q50.5371-43.457 51.9775-42.0654Q53.418-40.6738 56.4941-39.7949ZM61.4746-31.2988L61.4746-18.9941Q64.9902-19.4336 66.7236-21.0693Q68.457-22.7051 68.457-25.0977Q68.457-27.2949 67.1387-28.7354Q65.8203-30.1758 62.4512-31.0547Z"/>
  </g>
  <g id="Regular-M" transform="matrix(1 0 0 1 1391.3 1126)">
   <path class="multicolor-0:tintColor hierarchical-0:tertiary SFSymbolsPreview007AFF" d="M58.5449 14.5508Q68.75 14.5508 77.7588 10.6445Q86.7676 6.73828 93.6523-0.146484Q100.537-7.03125 104.443-16.04Q108.35-25.0488 108.35-35.2539Q108.35-45.459 104.443-54.4678Q100.537-63.4766 93.6523-70.3613Q86.7676-77.2461 77.7344-81.1523Q68.7012-85.0586 58.4961-85.0586Q48.291-85.0586 39.2822-81.1523Q30.2734-77.2461 23.4131-70.3613Q16.5527-63.4766 12.6465-54.4678Q8.74023-45.459 8.74023-35.2539Q8.74023-25.0488 12.6465-16.04Q16.5527-7.03125 23.4375-0.146484Q30.3223 6.73828 39.3311 10.6445Q48.3398 14.5508 58.5449 14.5508Z"/>
   <path class="multicolor-1:white hierarchical-1:primary SFSymbolsPreviewFFFFFF" d="M58.5449-6.49414Q57.5195-6.49414 56.8359-7.15332Q56.1523-7.8125 56.1523-8.88672L56.1523-12.5Q51.0742-12.9883 47.2656-15.625Q43.457-18.2617 42.3828-22.6562Q42.2852-23.0469 42.2119-23.4375Q42.1387-23.8281 42.1387-24.2188Q42.1387-25.5371 42.9688-26.3672Q43.7988-27.1973 45.0684-27.1973Q46.1914-27.1973 46.9727-26.5869Q47.7539-25.9766 48.1934-24.6582Q48.8281-22.168 50.8057-20.4102Q52.7832-18.6523 56.1523-18.1641L56.1523-33.0078L55.8105-33.1055Q49.5117-34.6191 46.2891-37.5732Q43.0664-40.5273 43.0664-45.3125Q43.0664-50.4883 46.7529-53.833Q50.4395-57.1777 56.1523-57.8125L56.1523-61.2793Q56.1523-62.3535 56.8359-63.0127Q57.5195-63.6719 58.5449-63.6719Q59.5703-63.6719 60.2539-63.0127Q60.9375-62.3535 60.9375-61.2793L60.9375-57.8125Q65.7715-57.2754 69.3115-54.6143Q72.8516-51.9531 73.877-47.9004Q73.9746-47.5098 74.0479-47.1191Q74.1211-46.7285 74.1211-46.3379Q74.1211-45.0195 73.291-44.1895Q72.4609-43.3594 71.1426-43.3594Q68.8965-43.3594 68.0664-45.8496Q67.2852-48.3887 65.4541-49.9512Q63.623-51.5137 60.9375-52.002L60.9375-37.9883L61.6211-37.8418Q68.1641-36.6699 71.4844-33.5449Q74.8047-30.4199 74.8047-25.293Q74.8047-19.5801 70.8008-16.2842Q66.7969-12.9883 60.9375-12.4023L60.9375-8.88672Q60.9375-7.8125 60.2539-7.15332Q59.5703-6.49414 58.5449-6.49414ZM56.1523-39.2578L56.1523-52.002Q52.9785-51.4648 51.1475-49.707Q49.3164-47.9492 49.3164-45.6543Q49.3164-43.4082 50.8789-41.8945Q52.4414-40.3809 55.8105-39.3555ZM60.9375-31.8359L60.9375-18.1641Q64.7949-18.6035 66.6748-20.459Q68.5547-22.3145 68.5547-24.9512Q68.5547-27.3438 67.1143-28.9551Q65.6738-30.5664 62.0117-31.543Z"/>
  </g>
  <g id="Light-M" transform="matrix(1 0 0 1 1095.42 1126)">
   <path class="multicolor-0:tintColor hierarchical-0:tertiary SFSymbolsPreview007AFF" d="M57.7148 13.7207Q67.7734 13.7207 76.6357 9.8877Q85.498 6.05469 92.2607-0.708008Q99.0234-7.4707 102.856-16.333Q106.689-25.1953 106.689-35.2539Q106.689-45.3125 102.856-54.1748Q99.0234-63.0371 92.2607-69.7998Q85.498-76.5625 76.6113-80.3955Q67.7246-84.2285 57.666-84.2285Q47.6074-84.2285 38.7451-80.3955Q29.8828-76.5625 23.1445-69.7998Q16.4062-63.0371 12.5732-54.1748Q8.74023-45.3125 8.74023-35.2539Q8.74023-25.1953 12.5732-16.333Q16.4062-7.4707 23.1689-0.708008Q29.9316 6.05469 38.7939 9.8877Q47.6562 13.7207 57.7148 13.7207Z"/>
   <path class="multicolor-1:white hierarchical-1:primary SFSymbolsPreviewFFFFFF" d="M57.7148-7.22656Q56.8848-7.22656 56.3232-7.76367Q55.7617-8.30078 55.7617-9.17969L55.7617-12.9883Q50.5371-13.4277 46.8262-16.1133Q43.1152-18.7988 42.0898-23.1445Q42.041-23.4863 41.9678-23.8525Q41.8945-24.2188 41.8945-24.5605Q41.8945-25.6348 42.5781-26.3184Q43.2617-27.002 44.2383-27.002Q45.2148-27.002 45.8252-26.4648Q46.4355-25.9277 46.7285-24.8535Q47.2656-21.9727 49.6338-19.9707Q52.002-17.9688 55.7617-17.5781L55.7617-33.4961L55.2246-33.5938Q49.0723-35.0586 45.9717-37.8906Q42.8711-40.7227 42.8711-45.2148Q42.8711-50.0977 46.5332-53.3447Q50.1953-56.5918 55.7617-57.0801L55.7617-60.5469Q55.7617-61.4258 56.2988-61.9873Q56.8359-62.5488 57.7148-62.5488Q58.5938-62.5488 59.1553-61.9873Q59.7168-61.4258 59.7168-60.5469L59.7168-57.0801Q64.5508-56.6406 68.0664-54.0283Q71.582-51.416 72.5098-47.4609Q72.6074-47.1191 72.6562-46.7773Q72.7051-46.4355 72.7051-46.0449Q72.7051-44.9707 72.0459-44.3115Q71.3867-43.6523 70.3613-43.6523Q68.5059-43.6523 67.8711-45.752Q67.1875-48.4863 65.0391-50.2441Q62.8906-52.002 59.7168-52.3926L59.7168-37.4512L60.7422-37.207Q67.1387-35.9863 70.2881-33.0322Q73.4375-30.0781 73.4375-25.2441Q73.4375-19.9219 69.5557-16.6504Q65.6738-13.3789 59.7168-12.8906L59.7168-9.17969Q59.7168-8.30078 59.1553-7.76367Q58.5938-7.22656 57.7148-7.22656ZM55.7617-38.4766L55.7617-52.3926Q52.2461-51.9531 50.0488-50.0244Q47.8516-48.0957 47.8516-45.4102Q47.8516-42.8711 49.707-41.2354Q51.5625-39.5996 55.4199-38.5742ZM59.7168-32.5195L59.7168-17.5781Q63.916-17.9199 66.2109-19.9707Q68.5059-22.0215 68.5059-25.0488Q68.5059-27.7344 66.7236-29.4678Q64.9414-31.2012 60.791-32.2266Z"/>
  </g>
  <g id="Thin-M" transform="matrix(1 0 0 1 799.782 1126)">
   <path class="multicolor-0:tintColor hierarchical-0:tertiary SFSymbolsPreview007AFF" d="M56.5918 12.5977Q66.5039 12.5977 75.1709 8.88672Q83.8379 5.17578 90.4297-1.44043Q97.0215-8.05664 100.781-16.7236Q104.541-25.3906 104.541-35.2539Q104.541-45.1172 100.781-53.7842Q97.0215-62.4512 90.4297-69.0674Q83.8379-75.6836 75.1709-79.3945Q66.5039-83.1055 56.5918-83.1055Q46.7285-83.1055 38.0615-79.3945Q29.3945-75.6836 22.8271-69.0674Q16.2598-62.4512 12.5-53.7842Q8.74023-45.1172 8.74023-35.2539Q8.74023-25.3906 12.4756-16.7236Q16.2109-8.05664 22.8027-1.44043Q29.3945 5.17578 38.0859 8.88672Q46.7773 12.5977 56.5918 12.5977Z"/>
   <path class="multicolor-1:white hierarchical-1:primary SFSymbolsPreviewFFFFFF" d="M56.6406-8.1543Q56.0059-8.1543 55.5908-8.52051Q55.1758-8.88672 55.1758-9.57031L55.1758-13.623Q49.8535-13.9648 46.2158-16.748Q42.5781-19.5312 41.748-23.8281Q41.6504-24.1211 41.626-24.4141Q41.6016-24.707 41.6016-25.0488Q41.6016-25.8301 42.041-26.2939Q42.4805-26.7578 43.1641-26.7578Q43.8477-26.7578 44.2383-26.3428Q44.6289-25.9277 44.8242-25.1465Q45.2148-21.6797 48.0469-19.3848Q50.8789-17.0898 55.1758-16.748L55.1758-34.082L54.4434-34.2773Q48.4863-35.6445 45.5322-38.3057Q42.5781-40.9668 42.5781-45.0684Q42.5781-49.6094 46.2158-52.6855Q49.8535-55.7617 55.1758-56.1523L55.1758-59.5703Q55.1758-60.2539 55.5664-60.6445Q55.957-61.0352 56.6406-61.0352Q57.2266-61.0352 57.666-60.6201Q58.1055-60.2051 58.1055-59.5703L58.1055-56.1523Q62.9883-55.8105 66.4551-53.2227Q69.9219-50.6348 70.752-46.9238Q70.752-46.6309 70.8008-46.3379Q70.8496-46.0449 70.8496-45.7031Q70.8496-44.9707 70.4102-44.5068Q69.9707-44.043 69.2383-44.043Q67.9199-44.043 67.627-45.6055Q67.0898-48.584 64.502-50.6104Q61.9141-52.6367 58.1055-52.9297L58.1055-36.7188L59.5703-36.377Q65.7227-35.0586 68.7012-32.3242Q71.6797-29.5898 71.6797-25.1953Q71.6797-20.3613 67.9199-17.1387Q64.1602-13.916 58.1055-13.5742L58.1055-9.57031Q58.1055-8.93555 57.666-8.54492Q57.2266-8.1543 56.6406-8.1543ZM55.1758-37.4512L55.1758-52.9297Q51.2207-52.6367 48.5352-50.4639Q45.8496-48.291 45.8496-45.1172Q45.8496-42.1875 48.1445-40.3809Q50.4395-38.5742 54.9316-37.5ZM58.1055-33.3984L58.1055-16.748Q62.793-17.041 65.6006-19.3604Q68.4082-21.6797 68.4082-25.1465Q68.4082-28.2227 66.2109-30.127Q64.0137-32.0312 59.1309-33.1543Z"/>
  </g>
  <g id="Ultralight-M" transform="matrix(1 0 0 1 503.632 1126)">
   <path class="multicolor-0:tintColor hierarchical-0:tertiary SFSymbolsPreview007AFF" d="M56.0547 12.0605Q65.8203 12.0605 74.3896 8.37402Q82.959 4.6875 89.4775-1.83105Q95.9961-8.34961 99.707-16.9189Q103.418-25.4883 103.418-35.2539Q103.418-45.0195 99.707-53.5889Q95.9961-62.1582 89.4775-68.6768Q82.959-75.1953 74.3896-78.8818Q65.8203-82.5684 56.0547-82.5684Q46.2891-82.5684 37.7197-78.8818Q29.1504-75.1953 22.6562-68.6768Q16.1621-62.1582 12.4512-53.5889Q8.74023-45.0195 8.74023-35.2539Q8.74023-25.4883 12.4268-16.9189Q16.1133-8.34961 22.6318-1.83105Q29.1504 4.6875 37.7197 8.37402Q46.2891 12.0605 56.0547 12.0605Z"/>
   <path class="multicolor-1:white hierarchical-1:primary SFSymbolsPreviewFFFFFF" d="M56.0547-8.64258Q55.5176-8.64258 55.2002-8.93555Q54.8828-9.22852 54.8828-9.81445L54.8828-13.9648Q49.4629-14.2578 45.8984-17.0654Q42.334-19.873 41.5039-24.1699Q41.4551-24.4141 41.4307-24.6826Q41.4062-24.9512 41.4062-25.2441Q41.4062-25.8789 41.748-26.2451Q42.0898-26.6113 42.5781-26.6113Q43.1641-26.6113 43.4326-26.2451Q43.7012-25.8789 43.7988-25.293Q44.1406-21.5332 47.2412-19.0918Q50.3418-16.6504 54.8828-16.3574L54.8828-34.4238L54.0039-34.6191Q48.1445-35.9375 45.2881-38.5254Q42.4316-41.1133 42.4316-44.9707Q42.4316-49.3652 46.0449-52.3682Q49.6582-55.3711 54.8828-55.6641L54.8828-59.082Q54.8828-59.6191 55.1758-59.9365Q55.4688-60.2539 56.0547-60.2539Q56.543-60.2539 56.9092-59.9121Q57.2754-59.5703 57.2754-59.082L57.2754-55.6641Q62.1094-55.3711 65.5762-52.832Q69.043-50.293 69.7754-46.6309Q69.7754-46.3867 69.8242-46.0938Q69.873-45.8008 69.873-45.5078Q69.873-44.9219 69.5557-44.6045Q69.2383-44.2871 68.7012-44.2871Q67.627-44.2871 67.4805-45.5078Q66.9922-48.6816 64.1846-50.8301Q61.377-52.9785 57.2754-53.2227L57.2754-36.377L58.9355-35.9863Q64.9902-34.5703 67.8467-31.958Q70.7031-29.3457 70.7031-25.1465Q70.7031-20.5566 67.0166-17.3828Q63.3301-14.209 57.2754-13.916L57.2754-9.81445Q57.2754-9.27734 56.9092-8.95996Q56.543-8.64258 56.0547-8.64258ZM54.8828-36.9141L54.8828-53.2227Q50.6836-52.9785 47.7539-50.6836Q44.8242-48.3887 44.8242-44.9707Q44.8242-41.7969 47.3145-39.9414Q49.8047-38.0859 54.6387-36.9629ZM57.2754-33.8867L57.2754-16.3574Q62.1582-16.5527 65.2344-19.0186Q68.3105-21.4844 68.3105-25.1953Q68.3105-28.4668 65.8936-30.4443Q63.4766-32.4219 58.3008-33.6426Z"/>
  </g>
  <g id="Black-S" transform="matrix(1 0 0 1 2884.57 696)">
   <path class="multicolor-0:tintColor hierarchical-0:tertiary SFSymbolsPreview007AFF" d="M48.8281 6.78711Q57.5195 6.78711 65.1123 3.51562Q72.7051 0.244141 78.4912-5.54199Q84.2773-11.3281 87.5488-18.9209Q90.8203-26.5137 90.8203-35.2051Q90.8203-43.8965 87.5488-51.4893Q84.2773-59.082 78.4912-64.8682Q72.7051-70.6543 65.1123-73.9258Q57.5195-77.1973 48.8281-77.1973Q40.1367-77.1973 32.5439-73.9258Q24.9512-70.6543 19.165-64.8682Q13.3789-59.082 10.1074-51.4893Q6.83594-43.8965 6.83594-35.2051Q6.83594-26.5137 10.1074-18.9209Q13.3789-11.3281 19.165-5.54199Q24.9512 0.244141 32.5439 3.51562Q40.1367 6.78711 48.8281 6.78711Z"/>
   <path class="multicolor-1:white hierarchical-1:primary SFSymbolsPreviewFFFFFF" d="M48.8281-13.8672Q47.3145-13.8672 47.3145-15.4785L47.3145-17.6758Q41.6992-17.9199 38.8672-19.9707Q36.0352-22.0215 35.1074-24.0723Q34.8145-24.6582 34.7168-25.1953Q34.6191-25.7324 34.6191-26.2207Q34.6191-28.1738 35.8643-29.3945Q37.1094-30.6152 39.4531-30.6152Q41.1621-30.6152 42.2852-29.834Q43.4082-29.0527 44.1895-27.6855Q44.5801-27.002 45.3369-26.5137Q46.0938-26.0254 47.3145-25.8301L47.3145-30.7617L44.8242-31.2988Q39.6484-32.373 36.9141-34.8633Q34.1797-37.3535 34.1797-41.748Q34.1797-46.6309 37.8662-49.585Q41.5527-52.5391 47.3145-52.832L47.3145-55.2246Q47.3145-56.8359 48.8281-56.8359Q49.5117-56.8359 49.9268-56.3965Q50.3418-55.957 50.3418-55.2246L50.3418-52.832Q55.3711-52.4902 58.3008-50.4883Q61.2305-48.4863 62.1094-45.9473Q62.3047-45.459 62.4023-44.9463Q62.5-44.4336 62.5-43.8965Q62.5-42.1875 61.2793-41.1133Q60.0586-40.0391 57.9102-40.0391Q54.9316-40.0391 53.0273-42.8223Q52.5391-43.5059 51.9043-43.9453Q51.2695-44.3848 50.3418-44.5801L50.3418-39.7949L52.8809-39.2578Q58.3008-38.1348 60.9619-35.7422Q63.623-33.3496 63.623-29.0527Q63.623-24.2188 60.0342-21.1914Q56.4453-18.1641 50.3418-17.7246L50.3418-15.4785Q50.3418-14.7461 49.9268-14.3066Q49.5117-13.8672 48.8281-13.8672ZM47.3145-40.4785L47.3145-44.7754Q46.0449-44.7266 45.2637-44.165Q44.4824-43.6035 44.4824-42.6758Q44.4824-41.8457 45.1416-41.3086Q45.8008-40.7715 47.0215-40.5273ZM50.3418-30.127L50.3418-25.8301Q51.7578-26.0254 52.5635-26.5381Q53.3691-27.0508 53.3691-27.9785Q53.3691-28.8574 52.71-29.3213Q52.0508-29.7852 50.6348-30.0781Z"/>
  </g>
  <g id="Heavy-S" transform="matrix(1 0 0 1 2588.47 696)">
   <path class="multicolor-0:tintColor hierarchical-0:tertiary SFSymbolsPreview007AFF" d="M48.1934 6.15234Q56.7871 6.15234 64.2578 2.92969Q71.7285-0.292969 77.4414-6.00586Q83.1543-11.7188 86.377-19.1895Q89.5996-26.6602 89.5996-35.2051Q89.5996-43.75 86.377-51.2451Q83.1543-58.7402 77.4414-64.4531Q71.7285-70.166 64.2334-73.3887Q56.7383-76.6113 48.1934-76.6113Q39.6484-76.6113 32.1777-73.3887Q24.707-70.166 18.9941-64.4531Q13.2812-58.7402 10.0586-51.2451Q6.83594-43.75 6.83594-35.2051Q6.83594-26.6602 10.0586-19.1895Q13.2812-11.7188 18.9941-6.00586Q24.707-0.292969 32.2021 2.92969Q39.6973 6.15234 48.1934 6.15234Z"/>
   <path class="multicolor-1:white hierarchical-1:primary SFSymbolsPreviewFFFFFF" d="M48.2422-13.5254Q46.582-13.5254 46.582-15.2344L46.582-17.5781Q41.4062-17.8223 38.5254-19.873Q35.6445-21.9238 34.7168-24.3164Q34.4727-24.8535 34.375-25.3418Q34.2773-25.8301 34.2773-26.2695Q34.2773-28.0273 35.4004-29.126Q36.5234-30.2246 38.623-30.2246Q40.1367-30.2246 41.1621-29.5166Q42.1875-28.8086 42.8711-27.4902Q43.3105-26.5625 44.1895-25.8789Q45.0684-25.1953 46.582-24.9512L46.582-31.3477L44.6777-31.7871Q39.5508-32.8613 36.8408-35.3271Q34.1309-37.793 34.1309-42.0898Q34.1309-46.8262 37.6221-49.707Q41.1133-52.5879 46.582-52.9297L46.582-55.4199Q46.582-57.1289 48.2422-57.1289Q48.9746-57.1289 49.4385-56.665Q49.9023-56.2012 49.9023-55.4199L49.9023-52.9297Q54.6387-52.5391 57.5195-50.5371Q60.4004-48.5352 61.2793-45.8008Q61.4746-45.3613 61.5479-44.8975Q61.6211-44.4336 61.6211-43.9453Q61.6211-42.3828 60.5225-41.3818Q59.4238-40.3809 57.5195-40.3809Q54.7852-40.3809 53.125-43.0176Q52.6367-43.9941 51.8311-44.5801Q51.0254-45.166 49.9023-45.4102L49.9023-39.3066L51.9043-38.8672Q57.2754-37.793 59.9365-35.376Q62.5977-32.959 62.5977-28.6621Q62.5977-23.877 59.1064-20.9473Q55.6152-18.0176 49.9023-17.5781L49.9023-15.2344Q49.9023-14.4531 49.4385-13.9893Q48.9746-13.5254 48.2422-13.5254ZM46.582-40.0879L46.582-45.5566Q45.0684-45.4102 44.1895-44.6777Q43.3105-43.9453 43.3105-42.8711Q43.3105-41.8457 44.0674-41.1621Q44.8242-40.4785 46.3379-40.1367ZM49.9023-30.6152L49.9023-24.9512Q51.6602-25.1953 52.5879-25.9033Q53.5156-26.6113 53.5156-27.7832Q53.5156-28.8574 52.7588-29.4922Q52.002-30.127 50.3418-30.5176Z"/>
  </g>
  <g id="Bold-S" transform="matrix(1 0 0 1 2292.42 696)">
   <path class="multicolor-0:tintColor hierarchical-0:tertiary SFSymbolsPreview007AFF" d="M47.5586 5.46875Q55.957 5.46875 63.3057 2.29492Q70.6543-0.878906 76.2695-6.51855Q81.8848-12.1582 85.083-19.5068Q88.2812-26.8555 88.2812-35.2539Q88.2812-43.6035 85.083-50.9766Q81.8848-58.3496 76.2695-63.9648Q70.6543-69.5801 63.2812-72.7539Q55.9082-75.9277 47.5098-75.9277Q39.1602-75.9277 31.7871-72.7539Q24.4141-69.5801 18.8232-63.9648Q13.2324-58.3496 10.0342-50.9766Q6.83594-43.6035 6.83594-35.2539Q6.83594-26.8555 10.0342-19.5068Q13.2324-12.1582 18.8477-6.51855Q24.4629-0.878906 31.8115 2.29492Q39.1602 5.46875 47.5586 5.46875Z"/>
   <path class="multicolor-1:white hierarchical-1:primary SFSymbolsPreviewFFFFFF" d="M47.5586-13.1348Q45.752-13.1348 45.752-14.9902L45.752-17.4316Q41.0156-17.7734 38.0859-19.8242Q35.1562-21.875 34.2285-24.6094Q34.0332-25.0488 33.96-25.4883Q33.8867-25.9277 33.8867-26.3184Q33.8867-27.8809 34.8877-28.8574Q35.8887-29.834 37.5977-29.834Q38.9648-29.834 39.8682-29.1748Q40.7715-28.5156 41.3574-27.2949Q41.7969-26.0742 42.8711-25.1953Q43.9453-24.3164 45.752-24.0234L45.752-32.0312L44.4336-32.3242Q39.3555-33.4473 36.6943-35.8887Q34.0332-38.3301 34.0332-42.4805Q34.0332-47.0215 37.3291-49.8291Q40.625-52.6367 45.752-53.0762L45.752-55.6152Q45.752-57.4707 47.5586-57.4707Q48.3398-57.4707 48.8525-56.958Q49.3652-56.4453 49.3652-55.6152L49.3652-53.0762Q53.7598-52.6367 56.6162-50.6104Q59.4727-48.584 60.3516-45.6543Q60.498-45.2637 60.5713-44.8486Q60.6445-44.4336 60.6445-43.9941Q60.6445-42.5781 59.668-41.6748Q58.6914-40.7715 57.0312-40.7715Q54.5898-40.7715 53.2227-43.2129Q52.6855-44.5312 51.7334-45.3125Q50.7812-46.0938 49.3652-46.3867L49.3652-38.7207L50.8301-38.4277Q56.1523-37.4512 58.8135-34.9854Q61.4746-32.5195 61.4746-28.2715Q61.4746-23.5352 58.0811-20.7031Q54.6875-17.8711 49.3652-17.4316L49.3652-14.9902Q49.3652-14.1602 48.8525-13.6475Q48.3398-13.1348 47.5586-13.1348ZM45.752-39.6484L45.752-46.4844Q43.9941-46.2402 42.9688-45.3125Q41.9434-44.3848 41.9434-43.1152Q41.9434-41.8945 42.8223-41.04Q43.7012-40.1855 45.5078-39.6973ZM49.3652-31.2012L49.3652-24.0234Q51.5137-24.2676 52.5635-25.2197Q53.6133-26.1719 53.6133-27.5879Q53.6133-28.8574 52.7832-29.6875Q51.9531-30.5176 49.9512-31.0547Z"/>
  </g>
  <g id="Semibold-S" transform="matrix(1 0 0 1 1996.2 696)">
   <path class="multicolor-0:tintColor hierarchical-0:tertiary SFSymbolsPreview007AFF" d="M47.0703 4.98047Q55.3711 4.98047 62.6465 1.85547Q69.9219-1.26953 75.4639-6.86035Q81.0059-12.4512 84.1553-19.7266Q87.3047-27.002 87.3047-35.2539Q87.3047-43.5059 84.1553-50.7812Q81.0059-58.0566 75.4395-63.623Q69.873-69.1895 62.5977-72.3389Q55.3223-75.4883 47.0215-75.4883Q38.7695-75.4883 31.4941-72.3389Q24.2188-69.1895 18.6768-63.623Q13.1348-58.0566 9.98535-50.7812Q6.83594-43.5059 6.83594-35.2539Q6.83594-27.002 9.98535-19.7266Q13.1348-12.4512 18.7012-6.86035Q24.2676-1.26953 31.543 1.85547Q38.8184 4.98047 47.0703 4.98047Z"/>
   <path class="multicolor-1:white hierarchical-1:primary SFSymbolsPreviewFFFFFF" d="M47.1191-12.8418Q45.2148-12.8418 45.2148-14.7949L45.2148-17.334Q40.7715-17.6758 37.793-19.7266Q34.8145-21.7773 33.9355-24.8047Q33.7402-25.1953 33.6914-25.5859Q33.6426-25.9766 33.6426-26.3672Q33.6426-27.7344 34.5215-28.6133Q35.4004-29.4922 36.9141-29.4922Q38.1348-29.4922 38.9648-28.9062Q39.7949-28.3203 40.2832-27.0996Q40.8203-25.6836 41.9922-24.6826Q43.1641-23.6816 45.2148-23.3398L45.2148-32.4707L44.2871-32.7148Q39.2578-33.8379 36.6211-36.2549Q33.9844-38.6719 33.9844-42.7246Q33.9844-47.1191 37.1338-49.9023Q40.2832-52.6855 45.2148-53.125L45.2148-55.7617Q45.2148-57.666 47.1191-57.666Q47.9492-57.666 48.4863-57.1533Q49.0234-56.6406 49.0234-55.7617L49.0234-53.125Q53.1738-52.6855 56.0059-50.6348Q58.8379-48.584 59.668-45.5566Q59.8145-45.166 59.8877-44.7754Q59.9609-44.3848 59.9609-43.9941Q59.9609-42.6758 59.0576-41.8457Q58.1543-41.0156 56.7383-41.0156Q54.4434-41.0156 53.3203-43.3594Q52.7344-44.873 51.6602-45.7764Q50.5859-46.6797 49.0234-47.0215L49.0234-38.3301L50.0488-38.1348Q55.3711-37.1582 58.0322-34.668Q60.6934-32.1777 60.6934-27.9785Q60.6934-23.2422 57.3486-20.5078Q54.0039-17.7734 49.0234-17.334L49.0234-14.7949Q49.0234-13.916 48.4863-13.3789Q47.9492-12.8418 47.1191-12.8418ZM45.2148-39.3066L45.2148-47.0703Q43.2129-46.7773 42.1143-45.7031Q41.0156-44.6289 41.0156-43.2617Q41.0156-41.8945 41.9678-40.9424Q42.9199-39.9902 44.9219-39.3555ZM49.0234-31.543L49.0234-23.3398Q51.416-23.6328 52.5391-24.7314Q53.6621-25.8301 53.6621-27.3926Q53.6621-28.8574 52.7832-29.8096Q51.9043-30.7617 49.707-31.3965Z"/>
  </g>
  <g id="Medium-S" transform="matrix(1 0 0 1 1699.83 696)">
   <path class="multicolor-0:tintColor hierarchical-0:tertiary SFSymbolsPreview007AFF" d="M46.7285 4.63867Q54.9316 4.63867 62.1338 1.51367Q69.3359-1.61133 74.8535-7.12891Q80.3711-12.6465 83.4961-19.8486Q86.6211-27.0508 86.6211-35.2539Q86.6211-43.4082 83.4961-50.6348Q80.3711-57.8613 74.8291-63.3789Q69.2871-68.8965 62.085-71.9971Q54.8828-75.0977 46.6797-75.0977Q38.4766-75.0977 31.2744-71.9971Q24.0723-68.8965 18.5791-63.3789Q13.0859-57.8613 9.96094-50.6348Q6.83594-43.4082 6.83594-35.2539Q6.83594-27.0508 9.96094-19.8486Q13.0859-12.6465 18.6035-7.12891Q24.1211-1.61133 31.3232 1.51367Q38.5254 4.63867 46.7285 4.63867Z"/>
   <path class="multicolor-1:white hierarchical-1:primary SFSymbolsPreviewFFFFFF" d="M46.7285-12.6465Q44.7266-12.6465 44.7266-14.6484L44.7266-17.2852Q40.5762-17.627 37.5488-19.6777Q34.5215-21.7285 33.6426-24.9512Q33.5449-25.293 33.4717-25.6592Q33.3984-26.0254 33.3984-26.3672Q33.3984-27.6367 34.2285-28.4668Q35.0586-29.2969 36.377-29.2969Q37.5-29.2969 38.2568-28.7354Q39.0137-28.1738 39.502-27.002Q39.9902-25.4395 41.2598-24.3164Q42.5293-23.1934 44.7266-22.8027L44.7266-32.8125L44.1895-32.959Q39.1602-34.1309 36.5479-36.5479Q33.9355-38.9648 33.9355-42.9688Q33.9355-47.2168 36.9629-49.9512Q39.9902-52.6855 44.7266-53.1738L44.7266-55.8594Q44.7266-57.8613 46.7285-57.8613Q47.5586-57.8613 48.1445-57.2998Q48.7305-56.7383 48.7305-55.8594L48.7305-53.1738Q52.7344-52.7344 55.542-50.6592Q58.3496-48.584 59.1797-45.459Q59.2773-45.1172 59.3506-44.751Q59.4238-44.3848 59.4238-43.9941Q59.4238-42.7734 58.5938-41.9922Q57.7637-41.2109 56.4453-41.2109Q54.3457-41.2109 53.3203-43.457Q52.7344-45.166 51.5869-46.167Q50.4395-47.168 48.7305-47.5098L48.7305-38.0371L49.4629-37.8906Q54.7363-36.9629 57.3975-34.4482Q60.0586-31.9336 60.0586-27.7832Q60.0586-23.0469 56.7871-20.3613Q53.5156-17.6758 48.7305-17.2363L48.7305-14.6484Q48.7305-13.7207 48.1445-13.1836Q47.5586-12.6465 46.7285-12.6465ZM44.7266-39.0625L44.7266-47.5586Q42.627-47.168 41.4795-45.9961Q40.332-44.8242 40.332-43.3594Q40.332-41.8945 41.3086-40.8447Q42.2852-39.7949 44.4824-39.1113ZM48.7305-31.8359L48.7305-22.8027Q51.3184-23.1445 52.5146-24.3652Q53.7109-25.5859 53.7109-27.2949Q53.7109-28.8574 52.7832-29.9316Q51.8555-31.0059 49.4629-31.6406Z"/>
  </g>
  <g id="Regular-S" transform="matrix(1 0 0 1 1403.58 696)">
   <path class="multicolor-0:tintColor hierarchical-0:tertiary SFSymbolsPreview007AFF" d="M46.2402 4.15039Q54.3457 4.15039 61.4746 1.07422Q68.6035-2.00195 74.0479-7.4707Q79.4922-12.9395 82.5928-20.0684Q85.6934-27.1973 85.6934-35.2539Q85.6934-43.3105 82.5928-50.4395Q79.4922-57.5684 74.0234-63.0371Q68.5547-68.5059 61.4258-71.582Q54.2969-74.6582 46.1914-74.6582Q38.1348-74.6582 31.0059-71.582Q23.877-68.5059 18.457-63.0371Q13.0371-57.5684 9.93652-50.4395Q6.83594-43.3105 6.83594-35.2539Q6.83594-27.1973 9.93652-20.0684Q13.0371-12.9395 18.4814-7.4707Q23.9258-2.00195 31.0547 1.07422Q38.1836 4.15039 46.2402 4.15039Z"/>
   <path class="multicolor-1:white hierarchical-1:primary SFSymbolsPreviewFFFFFF" d="M46.2891-12.3535Q44.1895-12.3535 44.1895-14.4531L44.1895-17.1875Q40.332-17.5781 37.2803-19.6289Q34.2285-21.6797 33.3496-25.1465Q33.252-25.4395 33.2031-25.7568Q33.1543-26.0742 33.1543-26.416Q33.1543-27.5391 33.8867-28.2715Q34.6191-29.0039 35.7422-29.0039Q36.7188-29.0039 37.4023-28.4912Q38.0859-27.9785 38.4766-26.8555Q39.0137-25.0977 40.3809-23.8281Q41.748-22.5586 44.1895-22.168L44.1895-33.252L44.043-33.3496Q39.0625-34.5215 36.4746-36.9141Q33.8867-39.3066 33.8867-43.2129Q33.8867-47.3633 36.7676-50.0488Q39.6484-52.7344 44.1895-53.2715L44.1895-56.0059Q44.1895-58.0566 46.2891-58.0566Q47.168-58.0566 47.7783-57.4951Q48.3887-56.9336 48.3887-56.0059L48.3887-53.2715Q52.1484-52.7832 54.9316-50.708Q57.7148-48.6328 58.5449-45.3613Q58.6426-45.0195 58.6914-44.7021Q58.7402-44.3848 58.7402-44.043Q58.7402-42.9199 58.0078-42.1875Q57.2754-41.4551 56.1523-41.4551Q54.1992-41.4551 53.418-43.6035Q52.7832-45.5078 51.5137-46.6309Q50.2441-47.7539 48.3887-48.1445L48.3887-37.6465L48.7305-37.5977Q53.9551-36.7188 56.6162-34.1797Q59.2773-31.6406 59.2773-27.4902Q59.2773-22.8027 56.0791-20.1904Q52.8809-17.5781 48.3887-17.1387L48.3887-14.4531Q48.3887-13.5254 47.7783-12.9395Q47.168-12.3535 46.2891-12.3535ZM44.1895-38.7695L44.1895-48.1445Q41.8945-47.7051 40.6494-46.4111Q39.4043-45.1172 39.4043-43.5059Q39.4043-41.8945 40.4785-40.7471Q41.5527-39.5996 43.9453-38.8184ZM48.3887-32.2266L48.3887-22.168Q51.2207-22.5098 52.5146-23.877Q53.8086-25.2441 53.8086-27.1484Q53.8086-28.8574 52.8076-30.0537Q51.8066-31.25 49.2188-31.9824Z"/>
  </g>
  <g id="Light-S" transform="matrix(1 0 0 1 1107.6 696)">
   <path class="multicolor-0:tintColor hierarchical-0:tertiary SFSymbolsPreview007AFF" d="M45.5078 3.41797Q53.4668 3.41797 60.4736 0.415039Q67.4805-2.58789 72.8271-7.95898Q78.1738-13.3301 81.2012-20.3125Q84.2285-27.2949 84.2285-35.2539Q84.2285-43.2129 81.2012-50.1953Q78.1738-57.1777 72.8027-62.5488Q67.4316-67.9199 60.4492-70.9229Q53.4668-73.9258 45.459-73.9258Q37.5488-73.9258 30.542-70.9229Q23.5352-67.9199 18.2129-62.5488Q12.8906-57.1777 9.86328-50.1953Q6.83594-43.2129 6.83594-35.2539Q6.83594-27.2949 9.86328-20.3125Q12.8906-13.3301 18.2373-7.95898Q23.584-2.58789 30.5908 0.415039Q37.5977 3.41797 45.5078 3.41797Z"/>
   <path class="multicolor-1:white hierarchical-1:primary SFSymbolsPreviewFFFFFF" d="M45.5078-12.9883Q43.7988-12.9883 43.7988-14.6973L43.7988-17.627Q39.8438-17.9688 36.8652-20.0684Q33.8867-22.168 33.1055-25.5859Q33.0078-25.8301 32.959-26.123Q32.9102-26.416 32.9102-26.709Q32.9102-27.6367 33.4961-28.2471Q34.082-28.8574 34.9609-28.8574Q35.791-28.8574 36.3281-28.418Q36.8652-27.9785 37.1582-27.0508Q37.5977-24.9023 39.3066-23.4375Q41.0156-21.9727 43.7988-21.6309L43.7988-33.6914L43.5059-33.7891Q38.623-34.9121 36.1572-37.1826Q33.6914-39.4531 33.6914-43.1152Q33.6914-47.0215 36.5479-49.6094Q39.4043-52.1973 43.7988-52.6367L43.7988-55.3711Q43.7988-57.0801 45.5078-57.0801Q46.2402-57.0801 46.7529-56.5918Q47.2656-56.1035 47.2656-55.3711L47.2656-52.6367Q51.0742-52.2461 53.833-50.1953Q56.5918-48.1445 57.3242-44.9707Q57.373-44.6777 57.4219-44.3848Q57.4707-44.0918 57.4707-43.7988Q57.4707-42.8711 56.8848-42.2852Q56.2988-41.6992 55.4199-41.6992Q53.8086-41.6992 53.2227-43.5059Q52.6855-45.6055 51.123-46.8994Q49.5605-48.1934 47.2656-48.5352L47.2656-37.1582L47.9004-37.0605Q52.9785-36.084 55.5176-33.6914Q58.0566-31.2988 58.0566-27.4414Q58.0566-23.0957 54.9561-20.5322Q51.8555-17.9688 47.2656-17.5781L47.2656-14.6973Q47.2656-13.9648 46.7529-13.4766Q46.2402-12.9883 45.5078-12.9883ZM43.7988-38.0859L43.7988-48.5352Q41.2109-48.1445 39.624-46.7041Q38.0371-45.2637 38.0371-43.3105Q38.0371-41.4062 39.4043-40.1611Q40.7715-38.916 43.5547-38.1348ZM47.2656-32.8125L47.2656-21.6309Q50.4395-21.9238 52.0752-23.4619Q53.7109-25 53.7109-27.1973Q53.7109-29.1992 52.4414-30.4932Q51.1719-31.7871 48.0957-32.6172Z"/>
  </g>
  <g id="Thin-S" transform="matrix(1 0 0 1 811.867 696)">
   <path class="multicolor-0:tintColor hierarchical-0:tertiary SFSymbolsPreview007AFF" d="M44.5312 2.44141Q52.3438 2.44141 59.1553-0.488281Q65.9668-3.41797 71.1914-8.64258Q76.416-13.8672 79.3457-20.6787Q82.2754-27.4902 82.2754-35.2539Q82.2754-43.0176 79.3457-49.8291Q76.416-56.6406 71.1914-61.8652Q65.9668-67.0898 59.1553-70.0195Q52.3438-72.9492 44.5312-72.9492Q36.7676-72.9492 29.9316-70.0195Q23.0957-67.0898 17.9199-61.8652Q12.7441-56.6406 9.79004-49.8291Q6.83594-43.0176 6.83594-35.2539Q6.83594-27.4902 9.79004-20.6787Q12.7441-13.8672 17.9199-8.64258Q23.0957-3.41797 29.9316-0.488281Q36.7676 2.44141 44.5312 2.44141Z"/>
   <path class="multicolor-1:white hierarchical-1:primary SFSymbolsPreviewFFFFFF" d="M44.5312-13.8184Q43.3105-13.8184 43.3105-15.0391L43.3105-18.2129Q39.1602-18.457 36.3037-20.6055Q33.4473-22.7539 32.7637-26.1719Q32.666-26.3672 32.6416-26.6357Q32.6172-26.9043 32.6172-27.0996Q32.6172-27.832 33.0078-28.2227Q33.3984-28.6133 33.9844-28.6133Q34.6191-28.6133 34.9609-28.2715Q35.3027-27.9297 35.4004-27.2949Q35.791-24.6582 37.915-22.9248Q40.0391-21.1914 43.3105-20.8984L43.3105-34.2285L42.7734-34.375Q38.0859-35.4492 35.7422-37.5732Q33.3984-39.6973 33.3984-42.9688Q33.3984-46.582 36.2549-49.0234Q39.1113-51.4648 43.3105-51.8066L43.3105-54.4922Q43.3105-55.7129 44.5312-55.7129Q45.0684-55.7129 45.4346-55.3711Q45.8008-55.0293 45.8008-54.4922L45.8008-51.8066Q49.6582-51.5137 52.3682-49.4873Q55.0781-47.4609 55.7129-44.4824Q55.7617-44.2383 55.8105-43.9941Q55.8594-43.75 55.8594-43.5059Q55.8594-42.8711 55.4443-42.4561Q55.0293-42.041 54.4434-42.041Q53.3203-42.041 52.9785-43.4082Q52.5391-45.7031 50.5859-47.2168Q48.6328-48.7305 45.8008-49.0234L45.8008-36.5234L46.875-36.2793Q51.709-35.2539 54.0771-33.0811Q56.4453-30.9082 56.4453-27.3926Q56.4453-23.4863 53.4668-20.9717Q50.4883-18.457 45.8008-18.1641L45.8008-15.0391Q45.8008-14.502 45.4346-14.1602Q45.0684-13.8184 44.5312-13.8184ZM43.3105-37.1582L43.3105-49.0234Q40.2832-48.7305 38.2812-47.0703Q36.2793-45.4102 36.2793-43.0664Q36.2793-40.8203 37.9883-39.4287Q39.6973-38.0371 43.1152-37.207ZM45.8008-33.6426L45.8008-20.8984Q49.3652-21.1426 51.4648-22.9004Q53.5645-24.6582 53.5645-27.2949Q53.5645-29.6387 51.9287-31.1035Q50.293-32.5684 46.6309-33.4473Z"/>
  </g>
  <g id="Ultralight-S" transform="matrix(1 0 0 1 515.644 696)">
   <path class="multicolor-0:tintColor hierarchical-0:tertiary SFSymbolsPreview007AFF" d="M44.043 1.95312Q51.7578 1.95312 58.4717-0.927734Q65.1855-3.80859 70.3369-8.95996Q75.4883-14.1113 78.3936-20.8252Q81.2988-27.5391 81.2988-35.2539Q81.2988-42.9688 78.3936-49.6826Q75.4883-56.3965 70.3369-61.5479Q65.1855-66.6992 58.4717-69.5801Q51.7578-72.4609 44.043-72.4609Q36.377-72.4609 29.6387-69.5801Q22.9004-66.6992 17.7734-61.5479Q12.6465-56.3965 9.74121-49.6826Q6.83594-42.9688 6.83594-35.2539Q6.83594-27.5391 9.74121-20.8252Q12.6465-14.1113 17.7734-8.95996Q22.9004-3.80859 29.6387-0.927734Q36.377 1.95312 44.043 1.95312Z"/>
   <path class="multicolor-1:white hierarchical-1:primary SFSymbolsPreviewFFFFFF" d="M43.9941-14.2578Q43.0176-14.2578 43.0176-15.2344L43.0176-18.5059Q38.8184-18.7012 36.0107-20.8984Q33.2031-23.0957 32.5684-26.4648Q32.5195-26.6602 32.4951-26.8799Q32.4707-27.0996 32.4707-27.3438Q32.4707-27.8809 32.7393-28.1982Q33.0078-28.5156 33.4473-28.5156Q33.9844-28.5156 34.2285-28.2227Q34.4727-27.9297 34.5215-27.3926Q34.8145-24.5605 37.1826-22.6807Q39.5508-20.8008 43.0176-20.5566L43.0176-34.5215L42.3828-34.668Q37.793-35.6934 35.5225-37.7441Q33.252-39.7949 33.252-42.8711Q33.252-46.3867 36.1084-48.7549Q38.9648-51.123 43.0176-51.3672L43.0176-54.0527Q43.0176-55.0781 43.9941-55.0781Q44.4336-55.0781 44.751-54.7852Q45.0684-54.4922 45.0684-54.0527L45.0684-51.3672Q48.9258-51.1719 51.6113-49.1455Q54.2969-47.1191 54.8828-44.2383Q54.8828-44.043 54.9316-43.7988Q54.9805-43.5547 54.9805-43.3594Q54.9805-42.8223 54.6875-42.5293Q54.3945-42.2363 53.9062-42.2363Q53.0273-42.2363 52.8809-43.3105Q52.4902-45.752 50.3418-47.3877Q48.1934-49.0234 45.0684-49.2676L45.0684-36.1816L46.2891-35.9375Q51.0742-34.8633 53.3447-32.7637Q55.6152-30.6641 55.6152-27.3438Q55.6152-23.7305 52.6855-21.2158Q49.7559-18.7012 45.0684-18.457L45.0684-15.2344Q45.0684-14.7949 44.751-14.5264Q44.4336-14.2578 43.9941-14.2578ZM43.0176-36.6699L43.0176-49.2676Q39.8438-49.0234 37.5977-47.2656Q35.3516-45.5078 35.3516-42.9199Q35.3516-40.4785 37.2559-39.0381Q39.1602-37.5977 42.8223-36.7188ZM45.0684-34.0332L45.0684-20.5566Q48.8281-20.752 51.1719-22.6318Q53.5156-24.5117 53.5156-27.3438Q53.5156-29.834 51.6846-31.3721Q49.8535-32.9102 45.8984-33.8379Z"/>
  </g>
 </g>
</svg>
