<?xml version="1.0" encoding="UTF-8"?>
<!--Generator: Apple Native CoreSVG 149-->
<!DOCTYPE svg
PUBLIC "-//W3C//DTD SVG 1.1//EN"
       "http://www.w3.org/Graphics/SVG/1.1/DTD/svg11.dtd">
<svg version="1.1" xmlns="http://www.w3.org/2000/svg" xmlns:xlink="http://www.w3.org/1999/xlink" width="3300" height="2200">
 <!--glyph: "uni1004A1.medium", point size: 100.0, font version: "17.0d8e1", template writer version: "58"-->
 <style>.multicolor-0:systemBlueColor {fill:#007AFF;opacity:1.0}
.multicolor-1:white {fill:#FFFFFF;opacity:1.0}

.hierarchical-0:tertiary {fill:#8E8E8E}
.hierarchical-1:primary {fill:#212121}

.SFSymbolsPreview007AFF {fill:#007AFF;opacity:1.0}
.SFSymbolsPreviewFFFFFF {fill:#FFFFFF;opacity:1.0}
</style>
 <g id="Notes">
  <rect height="2200" id="artboard" style="fill:white;opacity:1" width="3300" x="0" y="0"/>
  <line style="fill:none;stroke:black;opacity:1;stroke-width:0.5;" x1="263" x2="3036" y1="292" y2="292"/>
  <text style="stroke:none;fill:black;font-family:SF Pro,SF Pro Display,SF Pro Text,sans-serif;font-size:13;font-weight:bold;" transform="matrix(1 0 0 1 263 322)">Weight/Scale Variations</text>
  <text style="stroke:none;fill:black;font-family:SF Pro,SF Pro Display,SF Pro Text,sans-serif;font-size:13;text-anchor:middle;" transform="matrix(1 0 0 1 559.711 322)">Ultralight</text>
  <text style="stroke:none;fill:black;font-family:SF Pro,SF Pro Display,SF Pro Text,sans-serif;font-size:13;text-anchor:middle;" transform="matrix(1 0 0 1 856.422 322)">Thin</text>
  <text style="stroke:none;fill:black;font-family:SF Pro,SF Pro Display,SF Pro Text,sans-serif;font-size:13;text-anchor:middle;" transform="matrix(1 0 0 1 1153.13 322)">Light</text>
  <text style="stroke:none;fill:black;font-family:SF Pro,SF Pro Display,SF Pro Text,sans-serif;font-size:13;text-anchor:middle;" transform="matrix(1 0 0 1 1449.84 322)">Regular</text>
  <text style="stroke:none;fill:black;font-family:SF Pro,SF Pro Display,SF Pro Text,sans-serif;font-size:13;text-anchor:middle;" transform="matrix(1 0 0 1 1746.56 322)">Medium</text>
  <text style="stroke:none;fill:black;font-family:SF Pro,SF Pro Display,SF Pro Text,sans-serif;font-size:13;text-anchor:middle;" transform="matrix(1 0 0 1 2043.27 322)">Semibold</text>
  <text style="stroke:none;fill:black;font-family:SF Pro,SF Pro Display,SF Pro Text,sans-serif;font-size:13;text-anchor:middle;" transform="matrix(1 0 0 1 2339.98 322)">Bold</text>
  <text style="stroke:none;fill:black;font-family:SF Pro,SF Pro Display,SF Pro Text,sans-serif;font-size:13;text-anchor:middle;" transform="matrix(1 0 0 1 2636.69 322)">Heavy</text>
  <text style="stroke:none;fill:black;font-family:SF Pro,SF Pro Display,SF Pro Text,sans-serif;font-size:13;text-anchor:middle;" transform="matrix(1 0 0 1 2933.4 322)">Black</text>
  <line style="fill:none;stroke:black;opacity:1;stroke-width:0.5;" x1="263" x2="3036" y1="1903" y2="1903"/>
  <g transform="matrix(1 0 0 1 263 1933)">
   <path d="M9.24805 0.830078Q10.8691 0.830078 12.2949 0.214844Q13.7207-0.400391 14.8096-1.49414Q15.8984-2.58789 16.5186-4.01367Q17.1387-5.43945 17.1387-7.05078Q17.1387-8.66211 16.5186-10.0879Q15.8984-11.5137 14.8047-12.6074Q13.7109-13.7012 12.2852-14.3164Q10.8594-14.9316 9.23828-14.9316Q7.62695-14.9316 6.20117-14.3164Q4.77539-13.7012 3.69141-12.6074Q2.60742-11.5137 1.9873-10.0879Q1.36719-8.66211 1.36719-7.05078Q1.36719-5.43945 1.9873-4.01367Q2.60742-2.58789 3.69629-1.49414Q4.78516-0.400391 6.21094 0.214844Q7.63672 0.830078 9.24805 0.830078ZM9.24805-0.654297Q7.91992-0.654297 6.7627-1.14746Q5.60547-1.64062 4.73145-2.51953Q3.85742-3.39844 3.36426-4.56055Q2.87109-5.72266 2.87109-7.05078Q2.87109-8.37891 3.35938-9.54102Q3.84766-10.7031 4.72168-11.582Q5.5957-12.4609 6.75293-12.9541Q7.91016-13.4473 9.23828-13.4473Q10.5762-13.4473 11.7334-12.9541Q12.8906-12.4609 13.7695-11.582Q14.6484-10.7031 15.1465-9.54102Q15.6445-8.37891 15.6445-7.05078Q15.6445-5.72266 15.1514-4.56055Q14.6582-3.39844 13.7842-2.51953Q12.9102-1.64062 11.748-1.14746Q10.5859-0.654297 9.24805-0.654297ZM5.83984-7.04102Q5.83984-6.71875 6.04492-6.51855Q6.25-6.31836 6.5918-6.31836L8.50586-6.31836L8.50586-4.39453Q8.50586-4.0625 8.70605-3.85742Q8.90625-3.65234 9.22852-3.65234Q9.56055-3.65234 9.76562-3.85742Q9.9707-4.0625 9.9707-4.39453L9.9707-6.31836L11.8945-6.31836Q12.2266-6.31836 12.4316-6.51855Q12.6367-6.71875 12.6367-7.04102Q12.6367-7.37305 12.4316-7.57812Q12.2266-7.7832 11.8945-7.7832L9.9707-7.7832L9.9707-9.69727Q9.9707-10.0391 9.76562-10.2441Q9.56055-10.4492 9.22852-10.4492Q8.90625-10.4492 8.70605-10.2441Q8.50586-10.0391 8.50586-9.69727L8.50586-7.7832L6.5918-7.7832Q6.25-7.7832 6.04492-7.57812Q5.83984-7.37305 5.83984-7.04102Z"/>
  </g>
  <g transform="matrix(1 0 0 1 281.867 1933)">
   <path d="M11.709 2.91016Q13.75 2.91016 15.5518 2.12891Q17.3535 1.34766 18.7305-0.0292969Q20.1074-1.40625 20.8887-3.20801Q21.6699-5.00977 21.6699-7.05078Q21.6699-9.0918 20.8887-10.8936Q20.1074-12.6953 18.7305-14.0723Q17.3535-15.4492 15.5469-16.2305Q13.7402-17.0117 11.6992-17.0117Q9.6582-17.0117 7.85645-16.2305Q6.05469-15.4492 4.68262-14.0723Q3.31055-12.6953 2.5293-10.8936Q1.74805-9.0918 1.74805-7.05078Q1.74805-5.00977 2.5293-3.20801Q3.31055-1.40625 4.6875-0.0292969Q6.06445 1.34766 7.86621 2.12891Q9.66797 2.91016 11.709 2.91016ZM11.709 1.25Q9.98047 1.25 8.47656 0.605469Q6.97266-0.0390625 5.83496-1.17676Q4.69727-2.31445 4.05762-3.81836Q3.41797-5.32227 3.41797-7.05078Q3.41797-8.7793 4.05762-10.2832Q4.69727-11.7871 5.83008-12.9297Q6.96289-14.0723 8.4668-14.7119Q9.9707-15.3516 11.6992-15.3516Q13.4277-15.3516 14.9316-14.7119Q16.4355-14.0723 17.5781-12.9297Q18.7207-11.7871 19.3652-10.2832Q20.0098-8.7793 20.0098-7.05078Q20.0098-5.32227 19.3701-3.81836Q18.7305-2.31445 17.5928-1.17676Q16.4551-0.0390625 14.9463 0.605469Q13.4375 1.25 11.709 1.25ZM7.39258-7.04102Q7.39258-6.68945 7.62695-6.46484Q7.86133-6.24023 8.23242-6.24023L10.8789-6.24023L10.8789-3.57422Q10.8789-3.21289 11.1035-2.9834Q11.3281-2.75391 11.6797-2.75391Q12.0508-2.75391 12.2852-2.9834Q12.5195-3.21289 12.5195-3.57422L12.5195-6.24023L15.1758-6.24023Q15.5371-6.24023 15.7715-6.46484Q16.0059-6.68945 16.0059-7.04102Q16.0059-7.41211 15.7715-7.6416Q15.5371-7.87109 15.1758-7.87109L12.5195-7.87109L12.5195-10.5176Q12.5195-10.8984 12.2852-11.1279Q12.0508-11.3574 11.6797-11.3574Q11.3281-11.3574 11.1035-11.1279Q10.8789-10.8984 10.8789-10.5176L10.8789-7.87109L8.23242-7.87109Q7.85156-7.87109 7.62207-7.6416Q7.39258-7.41211 7.39258-7.04102Z"/>
  </g>
  <g transform="matrix(1 0 0 1 305.646 1933)">
   <path d="M14.9707 5.66406Q17.0605 5.66406 18.96 5.01465Q20.8594 4.36523 22.4512 3.19336Q24.043 2.02148 25.2197 0.429688Q26.3965-1.16211 27.0459-3.06641Q27.6953-4.9707 27.6953-7.05078Q27.6953-9.14062 27.0459-11.04Q26.3965-12.9395 25.2197-14.5312Q24.043-16.123 22.4512-17.2998Q20.8594-18.4766 18.9551-19.126Q17.0508-19.7754 14.9609-19.7754Q12.8711-19.7754 10.9717-19.126Q9.07227-18.4766 7.48535-17.2998Q5.89844-16.123 4.72168-14.5312Q3.54492-12.9395 2.90039-11.04Q2.25586-9.14062 2.25586-7.05078Q2.25586-4.9707 2.90527-3.06641Q3.55469-1.16211 4.72656 0.429688Q5.89844 2.02148 7.49023 3.19336Q9.08203 4.36523 10.9814 5.01465Q12.8809 5.66406 14.9707 5.66406ZM14.9707 3.84766Q13.1641 3.84766 11.5283 3.2959Q9.89258 2.74414 8.53516 1.74805Q7.17773 0.751953 6.17676-0.610352Q5.17578-1.97266 4.62891-3.6084Q4.08203-5.24414 4.08203-7.05078Q4.08203-8.86719 4.62891-10.5029Q5.17578-12.1387 6.17188-13.501Q7.16797-14.8633 8.52539-15.8594Q9.88281-16.8555 11.5186-17.4023Q13.1543-17.9492 14.9609-17.9492Q16.7773-17.9492 18.4131-17.4023Q20.0488-16.8555 21.4111-15.8594Q22.7734-14.8633 23.7695-13.501Q24.7656-12.1387 25.3174-10.5029Q25.8691-8.86719 25.8691-7.05078Q25.8789-5.24414 25.332-3.6084Q24.7852-1.97266 23.7842-0.610352Q22.7832 0.751953 21.4209 1.74805Q20.0586 2.74414 18.4229 3.2959Q16.7871 3.84766 14.9707 3.84766ZM9.45312-7.04102Q9.45312-6.66016 9.71191-6.41113Q9.9707-6.16211 10.3711-6.16211L14.0625-6.16211L14.0625-2.46094Q14.0625-2.06055 14.3115-1.80664Q14.5605-1.55273 14.9414-1.55273Q15.3516-1.55273 15.6055-1.80664Q15.8594-2.06055 15.8594-2.46094L15.8594-6.16211L19.5605-6.16211Q19.9609-6.16211 20.2148-6.41113Q20.4688-6.66016 20.4688-7.04102Q20.4688-7.45117 20.2148-7.70508Q19.9609-7.95898 19.5605-7.95898L15.8594-7.95898L15.8594-11.6504Q15.8594-12.0605 15.6055-12.3145Q15.3516-12.5684 14.9414-12.5684Q14.5605-12.5684 14.3115-12.3096Q14.0625-12.0508 14.0625-11.6504L14.0625-7.95898L10.3711-7.95898Q9.96094-7.95898 9.70703-7.70508Q9.45312-7.45117 9.45312-7.04102Z"/>
  </g>
  <text style="stroke:none;fill:black;font-family:SF Pro,SF Pro Display,SF Pro Text,sans-serif;font-size:13;font-weight:bold;" transform="matrix(1 0 0 1 263 1953)">Design Variations</text>
  <text style="stroke:none;fill:black;font-family:SF Pro,SF Pro Display,SF Pro Text,sans-serif;font-size:13;" transform="matrix(1 0 0 1 263 1971)">Symbols are supported in up to nine weights and three scales.</text>
  <text style="stroke:none;fill:black;font-family:SF Pro,SF Pro Display,SF Pro Text,sans-serif;font-size:13;" transform="matrix(1 0 0 1 263 1989)">For optimal layout with text and other symbols, vertically align</text>
  <text style="stroke:none;fill:black;font-family:SF Pro,SF Pro Display,SF Pro Text,sans-serif;font-size:13;" transform="matrix(1 0 0 1 263 2007)">symbols with the adjacent text.</text>
  <line style="fill:none;stroke:#00AEEF;stroke-width:0.5;opacity:1.0;" x1="776" x2="776" y1="1919" y2="1933"/>
  <g transform="matrix(1 0 0 1 776 1933)">
   <path d="M3.31055 0.15625Q3.70117 0.15625 3.91602-0.00976562Q4.13086-0.175781 4.26758-0.585938L5.52734-4.0332L11.2891-4.0332L12.5488-0.585938Q12.6855-0.175781 12.9004-0.00976562Q13.1152 0.15625 13.4961 0.15625Q13.8867 0.15625 14.1162-0.0585938Q14.3457-0.273438 14.3457-0.644531Q14.3457-0.869141 14.2383-1.17188L9.6582-13.3691Q9.48242-13.8184 9.17969-14.043Q8.87695-14.2676 8.4082-14.2676Q7.5-14.2676 7.17773-13.3789L2.59766-1.16211Q2.49023-0.859375 2.49023-0.634766Q2.49023-0.263672 2.70996-0.0537109Q2.92969 0.15625 3.31055 0.15625ZM6.00586-5.51758L8.37891-12.0898L8.42773-12.0898L10.8008-5.51758Z"/>
  </g>
  <line style="fill:none;stroke:#00AEEF;stroke-width:0.5;opacity:1.0;" x1="793.197" x2="793.197" y1="1919" y2="1933"/>
  <text style="stroke:none;fill:black;font-family:SF Pro,SF Pro Display,SF Pro Text,sans-serif;font-size:13;font-weight:bold;" transform="matrix(1 0 0 1 776 1953)">Margins</text>
  <text style="stroke:none;fill:black;font-family:SF Pro,SF Pro Display,SF Pro Text,sans-serif;font-size:13;" transform="matrix(1 0 0 1 776 1971)">Leading and trailing margins on the left and right side of each symbol</text>
  <text style="stroke:none;fill:black;font-family:SF Pro,SF Pro Display,SF Pro Text,sans-serif;font-size:13;" transform="matrix(1 0 0 1 776 1989)">can be adjusted by modifying the x-location of the margin guidelines.</text>
  <text style="stroke:none;fill:black;font-family:SF Pro,SF Pro Display,SF Pro Text,sans-serif;font-size:13;" transform="matrix(1 0 0 1 776 2007)">Modifications are automatically applied proportionally to all</text>
  <text style="stroke:none;fill:black;font-family:SF Pro,SF Pro Display,SF Pro Text,sans-serif;font-size:13;" transform="matrix(1 0 0 1 776 2025)">scales and weights.</text>
  <g transform="matrix(1 0 0 1 1289 1933)">
   <path d="M2.8418 1.86523L4.54102 3.57422Q5.18555 4.22852 5.90332 4.17969Q6.62109 4.13086 7.31445 3.35938L18.0078-8.42773L17.041-9.4043L6.42578 2.27539Q6.16211 2.57812 5.89355 2.61719Q5.625 2.65625 5.27344 2.30469L4.10156 1.14258Q3.75 0.791016 3.79395 0.522461Q3.83789 0.253906 4.14062-0.0195312L15.6152-10.8203L14.6387-11.7871L3.04688-0.898438Q2.30469-0.214844 2.25098 0.498047Q2.19727 1.21094 2.8418 1.86523ZM9.25781-16.3281Q8.94531-16.0254 8.90625-15.6348Q8.86719-15.2441 9.04297-14.9512Q9.21875-14.6777 9.55566-14.541Q9.89258-14.4043 10.3809-14.5215Q11.4746-14.7754 12.5977-14.7314Q13.7207-14.6875 14.7949-13.9844L14.209-12.5293Q13.9551-11.9043 14.0674-11.4404Q14.1797-10.9766 14.5801-10.5664L16.875-8.25195Q17.2363-7.88086 17.5781-7.82227Q17.9199-7.76367 18.3398-7.8418L19.4043-8.03711L20.0684-7.36328L20.0293-6.80664Q20-6.43555 20.1221-6.12305Q20.2441-5.81055 20.6055-5.44922L21.3672-4.70703Q21.7285-4.3457 22.1533-4.33105Q22.5781-4.31641 22.9297-4.66797L25.8398-7.58789Q26.1914-7.93945 26.1816-8.35449Q26.1719-8.76953 25.8105-9.13086L25.0391-9.89258Q24.6875-10.2539 24.3799-10.3857Q24.0723-10.5176 23.7109-10.4883L23.1348-10.4395L22.4902-11.0742L22.7344-12.1973Q22.832-12.6172 22.6953-12.9834Q22.5586-13.3496 22.1191-13.7891L19.9219-15.9766Q18.6719-17.2168 17.2607-17.8369Q15.8496-18.457 14.4189-18.4814Q12.9883-18.5059 11.665-17.959Q10.3418-17.4121 9.25781-16.3281ZM10.752-15.957Q11.6602-16.6211 12.7002-16.9043Q13.7402-17.1875 14.8047-17.085Q15.8691-16.9824 16.8701-16.5137Q17.8711-16.0449 18.7012-15.2051L21.1328-12.793Q21.3086-12.6172 21.3525-12.4512Q21.3965-12.2852 21.3379-12.0312L21.0156-10.5469L22.5195-9.0625L23.5059-9.12109Q23.6914-9.13086 23.7891-9.09668Q23.8867-9.0625 24.0332-8.91602L24.6094-8.33984L22.168-5.89844L21.5918-6.47461Q21.4453-6.62109 21.4062-6.71875Q21.3672-6.81641 21.377-7.01172L21.4453-7.98828L19.9512-9.47266L18.4277-9.21875Q18.1836-9.16992 18.042-9.2041Q17.9004-9.23828 17.7148-9.41406L15.7129-11.416Q15.5176-11.5918 15.4932-11.7529Q15.4688-11.9141 15.5859-12.1875L16.4648-14.2773Q15.293-15.3711 13.8281-15.791Q12.3633-16.2109 10.8398-15.7617Q10.7227-15.7324 10.6885-15.8057Q10.6543-15.8789 10.752-15.957Z"/>
  </g>
  <text style="stroke:none;fill:black;font-family:SF Pro,SF Pro Display,SF Pro Text,sans-serif;font-size:13;font-weight:bold;" transform="matrix(1 0 0 1 1289 1953)">Exporting</text>
  <text style="stroke:none;fill:black;font-family:SF Pro,SF Pro Display,SF Pro Text,sans-serif;font-size:13;" transform="matrix(1 0 0 1 1289 1971)">Symbols should be outlined when exporting to ensure the</text>
  <text style="stroke:none;fill:black;font-family:SF Pro,SF Pro Display,SF Pro Text,sans-serif;font-size:13;" transform="matrix(1 0 0 1 1289 1989)">design is preserved when submitting to Xcode.</text>
  <text id="template-version" style="stroke:none;fill:black;font-family:SF Pro,SF Pro Display,SF Pro Text,sans-serif;font-size:13;text-anchor:end;" transform="matrix(1 0 0 1 3036 1933)">Template v.3.0</text>
  <text style="stroke:none;fill:black;font-family:SF Pro,SF Pro Display,SF Pro Text,sans-serif;font-size:13;text-anchor:end;" transform="matrix(1 0 0 1 3036 1951)">Requires Xcode 13 or greater</text>
  <text id="descriptive-name" style="stroke:none;fill:black;font-family:SF Pro,SF Pro Display,SF Pro Text,sans-serif;font-size:13;text-anchor:end;" transform="matrix(1 0 0 1 3036 1969)">Generated from link.circle.fill</text>
  <text style="stroke:none;fill:black;font-family:SF Pro,SF Pro Display,SF Pro Text,sans-serif;font-size:13;text-anchor:end;" transform="matrix(1 0 0 1 3036 1987)">Typeset at 100 points</text>
  <text style="stroke:none;fill:black;font-family:SF Pro,SF Pro Display,SF Pro Text,sans-serif;font-size:13;" transform="matrix(1 0 0 1 263 726)">Small</text>
  <text style="stroke:none;fill:black;font-family:SF Pro,SF Pro Display,SF Pro Text,sans-serif;font-size:13;" transform="matrix(1 0 0 1 263 1156)">Medium</text>
  <text style="stroke:none;fill:black;font-family:SF Pro,SF Pro Display,SF Pro Text,sans-serif;font-size:13;" transform="matrix(1 0 0 1 263 1586)">Large</text>
 </g>
 <g id="Guides">
  <g id="H-reference" style="fill:#27AAE1;stroke:none;" transform="matrix(1 0 0 1 339 696)">
   <path d="M0.976562 0L3.66211 0L29.3457-67.1387L30.0293-67.1387L30.0293-70.459L28.125-70.459ZM11.6699-24.4629L46.9727-24.4629L46.2402-26.709L12.4512-26.709ZM55.127 0L57.7637 0L30.6152-70.459L29.4434-70.459L29.4434-67.1387Z"/>
  </g>
  <line id="Baseline-S" style="fill:none;stroke:#27AAE1;opacity:1;stroke-width:0.5;" x1="263" x2="3036" y1="696" y2="696"/>
  <line id="Capline-S" style="fill:none;stroke:#27AAE1;opacity:1;stroke-width:0.5;" x1="263" x2="3036" y1="625.541" y2="625.541"/>
  <g id="H-reference" style="fill:#27AAE1;stroke:none;" transform="matrix(1 0 0 1 339 1126)">
   <path d="M0.976562 0L3.66211 0L29.3457-67.1387L30.0293-67.1387L30.0293-70.459L28.125-70.459ZM11.6699-24.4629L46.9727-24.4629L46.2402-26.709L12.4512-26.709ZM55.127 0L57.7637 0L30.6152-70.459L29.4434-70.459L29.4434-67.1387Z"/>
  </g>
  <line id="Baseline-M" style="fill:none;stroke:#27AAE1;opacity:1;stroke-width:0.5;" x1="263" x2="3036" y1="1126" y2="1126"/>
  <line id="Capline-M" style="fill:none;stroke:#27AAE1;opacity:1;stroke-width:0.5;" x1="263" x2="3036" y1="1055.54" y2="1055.54"/>
  <g id="H-reference" style="fill:#27AAE1;stroke:none;" transform="matrix(1 0 0 1 339 1556)">
   <path d="M0.976562 0L3.66211 0L29.3457-67.1387L30.0293-67.1387L30.0293-70.459L28.125-70.459ZM11.6699-24.4629L46.9727-24.4629L46.2402-26.709L12.4512-26.709ZM55.127 0L57.7637 0L30.6152-70.459L29.4434-70.459L29.4434-67.1387Z"/>
  </g>
  <line id="Baseline-L" style="fill:none;stroke:#27AAE1;opacity:1;stroke-width:0.5;" x1="263" x2="3036" y1="1556" y2="1556"/>
  <line id="Capline-L" style="fill:none;stroke:#27AAE1;opacity:1;stroke-width:0.5;" x1="263" x2="3036" y1="1485.54" y2="1485.54"/>
  <line id="left-margin-Regular-M" style="fill:none;stroke:#00AEEF;stroke-width:0.5;opacity:1.0;" x1="1391.3" x2="1391.3" y1="1030.79" y2="1150.12"/>
  <line id="right-margin-Regular-M" style="fill:none;stroke:#00AEEF;stroke-width:0.5;opacity:1.0;" x1="1508.39" x2="1508.39" y1="1030.79" y2="1150.12"/>
 </g>
 <g id="Symbols">
  <g id="Black-L" transform="matrix(1 0 0 1 2854.05 1556)">
   <path class="multicolor-0:systemBlueColor hierarchical-0:tertiary SFSymbolsPreview007AFF" d="M79.3457 32.959Q90.5762 32.959 100.757 29.4922Q110.938 26.0254 119.458 19.7754Q127.979 13.5254 134.229 5.00488Q140.479-3.51562 143.945-13.6963Q147.412-23.877 147.412-35.1074Q147.412-46.3379 143.945-56.5186Q140.479-66.6992 134.204-75.2197Q127.93-83.7402 119.434-90.0146Q110.938-96.2891 100.732-99.7314Q90.5273-103.174 79.2969-103.174Q68.1152-103.174 57.9102-99.7314Q47.7051-96.2891 39.209-90.0146Q30.7129-83.7402 24.4385-75.2197Q18.1641-66.6992 14.7217-56.5186Q11.2793-46.3379 11.2793-35.1074Q11.2793-23.877 14.7217-13.6963Q18.1641-3.51562 24.4385 5.00488Q30.7129 13.5254 39.2334 19.7754Q47.7539 26.0254 57.9346 29.4922Q68.1152 32.959 79.3457 32.959Z"/>
   <path class="multicolor-1:white hierarchical-1:primary SFSymbolsPreviewFFFFFF" d="M48.3398-5.07812Q41.8457-11.5723 42.4316-19.4092Q43.0176-27.2461 50.4883-34.7656L59.668-43.8965Q59.1797-42.0898 59.1797-39.7705Q59.1797-37.4512 59.5703-35.4004Q59.9609-33.3496 60.5957-32.2266L56.9824-28.7109Q52.2461-24.0723 51.6602-19.4824Q51.0742-14.8926 54.6875-11.377Q58.252-7.8125 62.7686-8.44727Q67.2852-9.08203 72.0703-13.7695L78.6621-20.3125Q83.4473-25.0488 84.0332-29.5898Q84.6191-34.1309 81.0547-37.7441Q80.127-38.5742 78.5889-39.5996Q77.0508-40.625 75.8789-41.0645Q76.416-42.627 78.125-44.7998Q79.834-46.9727 81.5918-48.3398Q82.7637-47.7051 84.375-46.5088Q85.9863-45.3125 87.2559-43.9453Q93.8965-37.5977 93.3594-29.6631Q92.8223-21.7285 85.1562-14.1602L77.9785-7.27539Q70.4102 0.146484 62.6465 0.78125Q54.8828 1.41602 48.3398-5.07812ZM107.91-65.1855Q114.404-58.6914 113.843-50.8545Q113.281-43.0176 105.762-35.498L96.582-26.3184Q97.0703-28.1738 97.0703-30.4688Q97.0703-32.7637 96.7041-34.8389Q96.3379-36.9141 95.6543-37.9883L99.2676-41.5527Q104.004-46.1914 104.59-50.7812Q105.176-55.3711 101.611-58.8867Q98.0469-62.4512 93.5303-61.8164Q89.0137-61.1816 84.1797-56.4941L77.6367-49.9512Q72.8516-45.2148 72.2412-40.6738Q71.6309-36.1328 75.2441-32.5195Q76.123-31.6406 77.6611-30.6396Q79.1992-29.6387 80.4199-29.1504Q79.8828-27.5879 78.1494-25.4395Q76.416-23.291 74.6582-21.875Q73.4863-22.5586 71.8994-23.7549Q70.3125-24.9512 68.9941-26.3184Q62.3535-32.666 62.8906-40.6006Q63.4277-48.5352 71.0938-56.1035L78.3203-62.9883Q85.8887-70.4102 93.6523-71.0449Q101.416-71.6797 107.91-65.1855Z"/>
  </g>
  <g id="Heavy-L" transform="matrix(1 0 0 1 2558.39 1556)">
   <path class="multicolor-0:systemBlueColor hierarchical-0:tertiary SFSymbolsPreview007AFF" d="M78.2715 31.8848Q89.3555 31.8848 99.3652 28.4668Q109.375 25.0488 117.749 18.8965Q126.123 12.7441 132.3 4.3457Q138.477-4.05273 141.895-14.0625Q145.312-24.0723 145.312-35.1074Q145.312-46.1426 141.895-56.1768Q138.477-66.2109 132.3-74.585Q126.123-82.959 117.749-89.1602Q109.375-95.3613 99.3408-98.7549Q89.3066-102.148 78.2227-102.148Q67.2363-102.148 57.2021-98.7549Q47.168-95.3613 38.7939-89.1602Q30.4199-82.959 24.2432-74.585Q18.0664-66.2109 14.6729-56.1768Q11.2793-46.1426 11.2793-35.1074Q11.2793-24.0723 14.6729-14.0625Q18.0664-4.05273 24.2432 4.3457Q30.4199 12.7441 38.8184 18.8965Q47.2168 25.0488 57.2266 28.4668Q67.2363 31.8848 78.2715 31.8848Z"/>
   <path class="multicolor-1:white hierarchical-1:primary SFSymbolsPreviewFFFFFF" d="M47.2168-5.0293Q40.8203-11.377 41.3818-19.043Q41.9434-26.709 49.2676-34.0332L59.1309-43.8477Q58.6426-42.1387 58.5938-39.9902Q58.5449-37.8418 58.8867-35.9375Q59.2285-34.0332 59.8145-32.9102L55.2246-28.418Q50.4883-23.7793 49.9512-19.1406Q49.4141-14.502 53.0762-10.8887Q56.7383-7.27539 61.3037-7.86133Q65.8691-8.44727 70.6543-13.1348L78.0762-20.5566Q82.9102-25.293 83.4717-29.9072Q84.0332-34.5215 80.4199-38.2324Q79.3457-39.1602 77.7588-40.1367Q76.1719-41.1133 74.707-41.5039Q75.293-43.0664 76.9043-45.0684Q78.5156-47.0703 80.127-48.3398Q81.3965-47.8027 83.0811-46.6309Q84.7656-45.459 86.1328-43.9453Q92.627-37.6953 92.1143-29.9805Q91.6016-22.2656 84.1309-14.8438L76.123-7.12891Q68.75 0.0976562 61.1816 0.708008Q53.6133 1.31836 47.2168-5.0293ZM106.982-65.2832Q113.379-58.9355 112.842-51.2939Q112.305-43.6523 104.98-36.2793L95.0684-26.416Q95.5566-28.1738 95.6055-30.2979Q95.6543-32.4219 95.3369-34.3506Q95.0195-36.2793 94.3848-37.3535L98.9746-41.8945Q103.711-46.5332 104.248-51.1719Q104.785-55.8105 101.172-59.4238Q97.5586-63.0371 92.9688-62.4512Q88.3789-61.8652 83.5449-57.1777L76.1719-49.7559Q71.3379-45.0195 70.752-40.4053Q70.166-35.791 73.8281-32.1289Q74.8535-31.1035 76.4648-30.1514Q78.0762-29.1992 79.541-28.7598Q78.9551-27.1973 77.3193-25.2197Q75.6836-23.2422 74.0723-21.9238Q72.8027-22.5098 71.1426-23.6816Q69.4824-24.8535 68.0664-26.3672Q61.5723-32.6172 62.1094-40.332Q62.6465-48.0469 70.1172-55.4688L78.125-63.1836Q85.498-70.4102 93.0664-71.0205Q100.635-71.6309 106.982-65.2832Z"/>
  </g>
  <g id="Bold-L" transform="matrix(1 0 0 1 2262.85 1556)">
   <path class="multicolor-0:systemBlueColor hierarchical-0:tertiary SFSymbolsPreview007AFF" d="M77.0996 30.7129Q87.9395 30.7129 97.7783 27.3438Q107.617 23.9746 115.869 17.9199Q124.121 11.8652 130.176 3.61328Q136.23-4.63867 139.6-14.4775Q142.969-24.3164 142.969-35.1562Q142.969-45.9961 139.6-55.835Q136.23-65.6738 130.151-73.9014Q124.072-82.1289 115.845-88.208Q107.617-94.2871 97.7539-97.6318Q87.8906-100.977 77.0508-100.977Q66.2598-100.977 56.3965-97.6318Q46.5332-94.2871 38.3301-88.208Q30.127-82.1289 24.0479-73.9014Q17.9688-65.6738 14.624-55.835Q11.2793-45.9961 11.2793-35.1562Q11.2793-24.3164 14.624-14.4775Q17.9688-4.63867 24.0479 3.61328Q30.127 11.8652 38.3545 17.9199Q46.582 23.9746 56.4209 27.3438Q66.2598 30.7129 77.0996 30.7129Z"/>
   <path class="multicolor-1:white hierarchical-1:primary SFSymbolsPreviewFFFFFF" d="M45.9473-5.07812Q39.6973-11.2793 40.2344-18.7012Q40.7715-26.123 47.8516-33.252L58.5449-43.8965Q58.0566-42.2363 57.959-40.2832Q57.8613-38.3301 58.1299-36.5967Q58.3984-34.8633 58.9355-33.7402L53.2715-28.125Q48.5352-23.4863 48.0225-18.7744Q47.5098-14.0625 51.2695-10.4004Q54.9805-6.73828 59.6436-7.27539Q64.3066-7.8125 69.043-12.5L77.4414-20.9473Q82.2754-25.6836 82.8125-30.3711Q83.3496-35.0586 79.6875-38.8184Q78.5156-39.8926 76.8311-40.8203Q75.1465-41.748 73.3887-42.041Q73.9746-43.6035 75.4883-45.4346Q77.002-47.2656 78.5156-48.3887Q79.8828-47.9492 81.6162-46.8018Q83.3496-45.6543 84.9121-44.043Q91.2109-37.8906 90.6982-30.3955Q90.1855-22.9004 82.9102-15.7227L74.0723-7.08008Q66.9434 0 59.5459 0.561523Q52.1484 1.12305 45.9473-5.07812ZM105.957-65.4297Q112.207-59.2285 111.694-51.8066Q111.182-44.3848 104.053-37.2559L93.3594-26.6113Q93.8477-28.2715 93.9453-30.2002Q94.043-32.1289 93.7988-33.8867Q93.5547-35.6445 92.9688-36.7676L98.6328-42.334Q103.418-47.0215 103.906-51.709Q104.395-56.3965 100.635-60.0586Q96.9727-63.7695 92.3096-63.2324Q87.6465-62.6953 82.8613-58.0078L74.4629-49.5605Q69.6289-44.8242 69.0918-40.1367Q68.5547-35.4492 72.2656-31.6895Q73.4375-30.5664 75.0977-29.6631Q76.7578-28.7598 78.5156-28.418Q77.9297-26.8555 76.416-25.0244Q74.9023-23.1934 73.3887-22.0703Q72.0215-22.5586 70.2881-23.7061Q68.5547-24.8535 66.9922-26.4648Q60.6934-32.5684 61.2061-40.0879Q61.7188-47.6074 68.9941-54.7852L77.832-63.4277Q85.0098-70.5078 92.4072-71.0449Q99.8047-71.582 105.957-65.4297Z"/>
  </g>
  <g id="Semibold-L" transform="matrix(1 0 0 1 1966.97 1556)">
   <path class="multicolor-0:systemBlueColor hierarchical-0:tertiary SFSymbolsPreview007AFF" d="M76.2695 29.8828Q86.9629 29.8828 96.6797 26.5625Q106.396 23.2422 114.551 17.2607Q122.705 11.2793 128.687 3.125Q134.668-5.0293 137.988-14.7461Q141.309-24.4629 141.309-35.1562Q141.309-45.8496 137.988-55.5664Q134.668-65.2832 128.662-73.4131Q122.656-81.543 114.526-87.5488Q106.396-93.5547 96.6553-96.875Q86.9141-100.195 76.2207-100.195Q65.5273-100.195 55.8105-96.875Q46.0938-93.5547 37.9883-87.5488Q29.8828-81.543 23.877-73.4131Q17.8711-65.2832 14.5752-55.5664Q11.2793-45.8496 11.2793-35.1562Q11.2793-24.4629 14.5996-14.7461Q17.9199-5.0293 23.9014 3.125Q29.8828 11.2793 38.0127 17.2607Q46.1426 23.2422 55.8594 26.5625Q65.5762 29.8828 76.2695 29.8828Z"/>
   <path class="multicolor-1:white hierarchical-1:primary SFSymbolsPreviewFFFFFF" d="M45.0195-5.0293Q38.8672-11.1328 39.3799-18.4082Q39.8926-25.6836 46.875-32.666L58.1055-43.8477Q57.5684-42.2363 57.4707-40.4297Q57.373-38.623 57.5928-36.9873Q57.8125-35.3516 58.252-34.2285L51.9043-27.8809Q47.1191-23.2422 46.6553-18.4814Q46.1914-13.7207 50-10.0098Q53.7598-6.29883 58.4473-6.78711Q63.1348-7.27539 67.8711-11.9629L76.9531-21.1426Q81.8359-25.8789 82.3486-30.6396Q82.8613-35.4004 79.1504-39.1602Q77.8809-40.332 76.1475-41.2109Q74.4141-42.0898 72.4609-42.3828Q73.0469-43.9453 74.4873-45.6543Q75.9277-47.3633 77.3438-48.3887Q78.7598-47.998 80.5664-46.875Q82.373-45.752 83.9844-44.043Q90.1855-37.9883 89.6729-30.6396Q89.1602-23.291 82.0801-16.2598L72.6074-6.93359Q65.625 0 58.374 0.512695Q51.123 1.02539 45.0195-5.0293ZM105.225-65.4785Q111.328-59.4238 110.84-52.124Q110.352-44.8242 103.418-37.8418L92.1387-26.6602Q92.627-28.2715 92.749-30.0781Q92.8711-31.8848 92.6758-33.5205Q92.4805-35.1562 91.9434-36.2793L98.3398-42.5781Q103.125-47.2656 103.589-52.002Q104.053-56.7383 100.244-60.4492Q96.5332-64.209 91.8213-63.6963Q87.1094-63.1836 82.373-58.5449L73.291-49.4141Q68.4082-44.6777 67.8955-39.917Q67.3828-35.1562 71.1426-31.3477Q72.4121-30.1758 74.1211-29.2969Q75.8301-28.418 77.7832-28.0762Q77.1973-26.5137 75.7324-24.8291Q74.2676-23.1445 72.9004-22.1191Q71.4355-22.5098 69.6533-23.6328Q67.8711-24.7559 66.2109-26.5137Q60.0586-32.5195 60.5713-39.8682Q61.084-47.2168 68.1641-54.248L77.6367-63.5742Q84.6191-70.5078 91.8945-71.0205Q99.1699-71.5332 105.225-65.4785Z"/>
  </g>
  <g id="Medium-L" transform="matrix(1 0 0 1 1670.87 1556)">
   <path class="multicolor-0:systemBlueColor hierarchical-0:tertiary SFSymbolsPreview007AFF" d="M75.6836 29.248Q86.2305 29.248 95.8496 25.9521Q105.469 22.6562 113.55 16.7236Q121.631 10.791 127.563 2.73438Q133.496-5.32227 136.792-14.9658Q140.088-24.6094 140.088-35.1562Q140.088-45.752 136.792-55.3711Q133.496-64.9902 127.539-73.0469Q121.582-81.1035 113.525-87.0605Q105.469-93.0176 95.8252-96.2891Q86.1816-99.5605 75.6348-99.5605Q65.0391-99.5605 55.4199-96.2891Q45.8008-93.0176 37.7441-87.0605Q29.6875-81.1035 23.7549-73.0469Q17.8223-64.9902 14.5508-55.3711Q11.2793-45.752 11.2793-35.1562Q11.2793-24.6094 14.5508-14.9658Q17.8223-5.32227 23.7549 2.73438Q29.6875 10.791 37.7686 16.7236Q45.8496 22.6562 55.4688 25.9521Q65.0879 29.248 75.6836 29.248Z"/>
   <path class="multicolor-1:white hierarchical-1:primary SFSymbolsPreviewFFFFFF" d="M44.3359-5.07812Q38.2812-11.084 38.7695-18.2617Q39.2578-25.4395 46.0938-32.3242L57.7637-43.8965Q57.2266-42.2852 57.1045-40.6006Q56.9824-38.916 57.1533-37.3535Q57.3242-35.791 57.7637-34.668L50.8301-27.7832Q46.0449-23.0957 45.6055-18.3105Q45.166-13.5254 49.0234-9.81445Q52.832-6.00586 57.5684-6.49414Q62.3047-6.98242 66.9922-11.6699L76.6113-21.3379Q81.4453-26.0742 81.958-30.8838Q82.4707-35.6934 78.7109-39.502Q77.3926-40.7715 75.6104-41.6016Q73.8281-42.4316 71.7285-42.6758Q72.3633-44.2383 73.7549-45.8496Q75.1465-47.4609 76.4648-48.4375Q77.9297-48.1445 79.7607-46.9971Q81.5918-45.8496 83.3008-44.0918Q89.4043-38.0859 88.8916-30.8838Q88.3789-23.6816 81.3965-16.6992L71.5332-6.93359Q64.6484-0.0488281 57.4951 0.439453Q50.3418 0.927734 44.3359-5.07812ZM104.639-65.625Q110.693-59.5703 110.205-52.3926Q109.717-45.2148 102.881-38.3789L91.2598-26.7578Q91.748-28.3691 91.8701-30.0537Q91.9922-31.7383 91.8213-33.3008Q91.6504-34.8633 91.2109-35.9863L98.1445-42.8711Q102.93-47.5098 103.369-52.2949Q103.809-57.0801 99.9512-60.8398Q96.1914-64.6484 91.4551-64.1357Q86.7188-63.623 81.9824-58.9844L72.3633-49.3164Q67.5293-44.5801 67.0166-39.7949Q66.5039-35.0098 70.3125-31.1523Q71.6309-29.8828 73.3887-29.0527Q75.1465-28.2227 77.2461-27.9297Q76.6113-26.3672 75.2197-24.7559Q73.8281-23.1445 72.5098-22.2168Q71.0449-22.5586 69.2139-23.6572Q67.3828-24.7559 65.6738-26.5625Q59.5703-32.5195 60.0586-39.7461Q60.5469-46.9727 67.5293-53.9062L77.4414-63.7207Q84.3262-70.6055 91.5039-71.0693Q98.6816-71.5332 104.639-65.625Z"/>
  </g>
  <g id="Regular-L" transform="matrix(1 0 0 1 1374.97 1556)">
   <path class="multicolor-0:systemBlueColor hierarchical-0:tertiary SFSymbolsPreview007AFF" d="M74.8535 28.418Q85.3027 28.418 94.7998 25.1709Q104.297 21.9238 112.256 16.0645Q120.215 10.2051 126.099 2.24609Q131.982-5.71289 135.229-15.2344Q138.477-24.7559 138.477-35.1562Q138.477-45.6055 135.229-55.1025Q131.982-64.5996 126.099-72.5586Q120.215-80.5176 112.256-86.4014Q104.297-92.2852 94.7754-95.5322Q85.2539-98.7793 74.8047-98.7793Q64.3555-98.7793 54.8584-95.5322Q45.3613-92.2852 37.4268-86.4014Q29.4922-80.5176 23.6084-72.5586Q17.7246-64.5996 14.502-55.1025Q11.2793-45.6055 11.2793-35.1562Q11.2793-24.7559 14.5264-15.2344Q17.7734-5.71289 23.6328 2.24609Q29.4922 10.2051 37.4512 16.0645Q45.4102 21.9238 54.9072 25.1709Q64.4043 28.418 74.8535 28.418Z"/>
   <path class="multicolor-1:white hierarchical-1:primary SFSymbolsPreviewFFFFFF" d="M43.457-5.0293Q37.5-10.9375 37.9639-17.9688Q38.4277-25 45.166-31.7383L57.373-43.8477Q56.8359-42.334 56.665-40.7715Q56.4941-39.209 56.6406-37.7686Q56.7871-36.3281 57.1777-35.2051L49.5117-27.5391Q44.7266-22.8516 44.3115-18.042Q43.8965-13.2324 47.8027-9.42383Q51.6602-5.61523 56.4453-6.05469Q61.2305-6.49414 65.918-11.1816L76.1719-21.5332Q81.0547-26.2695 81.543-31.1279Q82.0312-35.9863 78.2227-39.8438Q76.8066-41.2109 74.9756-42.0166Q73.1445-42.8223 70.8496-43.0176Q71.4844-44.5801 72.8027-46.0693Q74.1211-47.5586 75.3418-48.4375Q76.9043-48.1934 78.7842-47.0703Q80.6641-45.9473 82.4707-44.0918Q88.4277-38.1836 87.9395-31.1279Q87.4512-24.0723 80.6152-17.2363L70.1172-6.83594Q63.3789-0.0976562 56.3721 0.366211Q49.3652 0.830078 43.457-5.0293ZM103.955-65.6738Q109.912-59.7656 109.448-52.7344Q108.984-45.7031 102.295-38.9648L90.0879-26.8555Q90.5762-28.3691 90.7471-29.9316Q90.918-31.4941 90.7959-32.9346Q90.6738-34.375 90.2344-35.498L97.9004-43.1152Q102.734-47.8027 103.125-52.6123Q103.516-57.4219 99.6094-61.2305Q95.8008-65.0879 91.0156-64.624Q86.2305-64.1602 81.4941-59.5215L71.2402-49.1699Q66.3574-44.4336 65.8691-39.5752Q65.3809-34.7168 69.2383-30.8594Q70.6543-29.4922 72.4609-28.6865Q74.2676-27.8809 76.5625-27.6367Q75.9277-26.0742 74.6094-24.585Q73.291-23.0957 72.0703-22.2656Q70.5078-22.5098 68.6279-23.6084Q66.748-24.707 64.9414-26.6113Q58.9844-32.4707 59.4727-39.5508Q59.9609-46.6309 66.7969-53.418L77.2949-63.8672Q84.0332-70.6055 91.0645-71.0449Q98.0957-71.4844 103.955-65.6738Z"/>
  </g>
  <g id="Light-L" transform="matrix(1 0 0 1 1079.18 1556)">
   <path class="multicolor-0:systemBlueColor hierarchical-0:tertiary SFSymbolsPreview007AFF" d="M73.9258 27.4902Q84.2285 27.4902 93.6035 24.292Q102.979 21.0938 110.815 15.332Q118.652 9.57031 124.438 1.7334Q130.225-6.10352 133.423-15.4785Q136.621-24.8535 136.621-35.1562Q136.621-45.459 133.423-54.834Q130.225-64.209 124.438-72.0459Q118.652-79.8828 110.815-85.6689Q102.979-91.4551 93.6035-94.6533Q84.2285-97.8516 73.877-97.8516Q63.5742-97.8516 54.2236-94.6533Q44.873-91.4551 37.0361-85.6689Q29.1992-79.8828 23.4131-72.0459Q17.627-64.209 14.4531-54.834Q11.2793-45.459 11.2793-35.1562Q11.2793-24.8535 14.4775-15.4785Q17.6758-6.10352 23.4375 1.7334Q29.1992 9.57031 37.0361 15.332Q44.873 21.0938 54.248 24.292Q63.623 27.4902 73.9258 27.4902Z"/>
   <path class="multicolor-1:white hierarchical-1:primary SFSymbolsPreviewFFFFFF" d="M42.9688-5.66406Q37.3535-11.2305 37.7197-17.9199Q38.0859-24.6094 44.3359-30.8105L57.4219-43.7988Q56.8848-42.4316 56.6895-41.0889Q56.4941-39.7461 56.5674-38.5254Q56.6406-37.3047 56.8848-36.377L47.8516-27.2461Q43.2129-22.7539 42.9199-17.9443Q42.627-13.1348 46.582-9.27734Q50.4883-5.41992 55.2734-5.71289Q60.0586-6.00586 64.5996-10.5957L76.1719-22.2168Q80.8594-26.7578 81.2012-31.6162Q81.543-36.4746 77.6367-40.332Q75.9277-42.0898 73.9258-42.9443Q71.9238-43.7988 69.5312-43.8477Q70.0684-45.2637 71.167-46.4844Q72.2656-47.7051 73.2422-48.4863Q75.0977-48.2422 77.124-47.0703Q79.1504-45.8984 81.2012-43.8965Q86.8164-38.3301 86.4258-31.5918Q86.0352-24.8535 79.7363-18.6035L68.1152-7.08008Q61.9141-0.878906 55.2734-0.488281Q48.6328-0.0976562 42.9688-5.66406ZM102.441-65.1855Q108.105-59.6191 107.715-52.9297Q107.324-46.2402 101.123-39.9902L88.0371-27.002Q88.5254-28.3691 88.7451-29.7119Q88.9648-31.0547 88.8916-32.2754Q88.8184-33.4961 88.5254-34.4727L97.5586-43.5547Q102.246-48.0469 102.515-52.8564Q102.783-57.666 98.8281-61.5234Q94.9707-65.4297 90.1855-65.0879Q85.4004-64.7461 80.8105-60.2539L69.2383-48.6328Q64.5508-44.0918 64.209-39.209Q63.8672-34.3262 67.8223-30.4688Q69.5312-28.7598 71.5088-27.9053Q73.4863-27.0508 75.8789-26.9531Q75.3418-25.5371 74.2676-24.292Q73.1934-23.0469 72.168-22.3633Q70.3125-22.6074 68.2861-23.7305Q66.2598-24.8535 64.2578-26.9531Q58.5938-32.4707 58.9844-39.209Q59.375-45.9473 65.6738-52.1973L77.2949-63.7695Q83.5449-69.9707 90.1855-70.3369Q96.8262-70.7031 102.441-65.1855Z"/>
  </g>
  <g id="Thin-L" transform="matrix(1 0 0 1 783.693 1556)">
   <path class="multicolor-0:systemBlueColor hierarchical-0:tertiary SFSymbolsPreview007AFF" d="M72.7051 26.2695Q82.8613 26.2695 92.041 23.1445Q101.221 20.0195 108.911 14.3799Q116.602 8.74023 122.266 1.0498Q127.93-6.64062 131.055-15.8447Q134.18-25.0488 134.18-35.1562Q134.18-45.3125 131.055-54.4922Q127.93-63.6719 122.29-71.3623Q116.65-79.0527 108.936-84.7168Q101.221-90.3809 92.0166-93.5059Q82.8125-96.6309 72.7051-96.6309Q62.5488-96.6309 53.3691-93.5059Q44.1895-90.3809 36.499-84.7168Q28.8086-79.0527 23.1689-71.3623Q17.5293-63.6719 14.4043-54.4922Q11.2793-45.3125 11.2793-35.1562Q11.2793-25.0488 14.4043-15.8447Q17.5293-6.64062 23.1689 1.0498Q28.8086 8.74023 36.5234 14.3799Q44.2383 20.0195 53.418 23.1445Q62.5977 26.2695 72.7051 26.2695Z"/>
   <path class="multicolor-1:white hierarchical-1:primary SFSymbolsPreviewFFFFFF" d="M42.2852-6.39648Q37.1094-11.5723 37.3779-17.7734Q37.6465-23.9746 43.2617-29.541L57.4219-43.7012Q56.8848-42.5293 56.665-41.4795Q56.4453-40.4297 56.4209-39.502Q56.3965-38.5742 56.4941-37.8418L45.6055-26.8066Q41.2109-22.6074 41.0889-17.7734Q40.9668-12.9395 45.0195-9.0332Q48.877-5.07812 53.7109-5.22461Q58.5449-5.37109 62.793-9.7168L76.1719-23.0469Q80.5664-27.3438 80.7373-32.2266Q80.9082-37.1094 76.8555-40.9668Q74.7559-43.1641 72.5586-44.0918Q70.3613-45.0195 67.7734-44.9219Q68.1152-46.0938 68.9209-46.9971Q69.7266-47.9004 70.459-48.4375Q72.7539-48.1934 74.9268-46.9971Q77.0996-45.8008 79.4434-43.5547Q84.668-38.4277 84.4238-32.1533Q84.1797-25.8789 78.5645-20.3125L65.4297-7.32422Q59.9121-1.80664 53.7598-1.51367Q47.6074-1.2207 42.2852-6.39648ZM100.439-64.4531Q105.664-59.3262 105.371-53.1006Q105.078-46.875 99.5117-41.3574L85.3027-27.1484Q85.8398-28.3691 86.084-29.4189Q86.3281-30.4688 86.3525-31.3965Q86.377-32.3242 86.2793-33.0566L97.1191-44.043Q101.562-48.291 101.66-53.1006Q101.758-57.9102 97.7539-61.8652Q93.8477-65.8203 89.0381-65.6738Q84.2285-65.5273 79.9316-61.1328L66.5527-47.8516Q62.1582-43.5547 62.0117-38.6719Q61.8652-33.7891 65.918-29.9316Q68.0176-27.7344 70.2148-26.8066Q72.4121-25.8789 74.9512-25.9277Q74.6094-24.8047 73.8037-23.877Q72.998-22.9492 72.3145-22.4121Q70.0195-22.6562 67.8223-23.8525Q65.625-25.0488 63.2812-27.3438Q58.1055-32.4707 58.3252-38.7207Q58.5449-44.9707 64.1602-50.5371L77.2949-63.5254Q82.8613-69.0918 89.0137-69.3604Q95.166-69.6289 100.439-64.4531Z"/>
  </g>
  <g id="Ultralight-L" transform="matrix(1 0 0 1 487.592 1556)">
   <path class="multicolor-0:systemBlueColor hierarchical-0:tertiary SFSymbolsPreview007AFF" d="M72.0703 25.6348Q82.1289 25.6348 91.2354 22.5586Q100.342 19.4824 107.935 13.8916Q115.527 8.30078 121.143 0.683594Q126.758-6.93359 129.858-16.0156Q132.959-25.0977 132.959-35.1562Q132.959-45.2148 129.858-54.3213Q126.758-63.4277 121.167-71.0205Q115.576-78.6133 107.959-84.2285Q100.342-89.8438 91.2354-92.9199Q82.1289-95.9961 72.0703-95.9961Q62.0605-95.9961 52.9541-92.9199Q43.8477-89.8438 36.2305-84.2285Q28.6133-78.6133 23.0225-71.0205Q17.4316-63.4277 14.3555-54.3213Q11.2793-45.2148 11.2793-35.1562Q11.2793-25.0977 14.3555-16.0156Q17.4316-6.93359 23.0225 0.683594Q28.6133 8.30078 36.2305 13.8916Q43.8477 19.4824 52.9541 22.5586Q62.0605 25.6348 72.0703 25.6348Z"/>
   <path class="multicolor-1:white hierarchical-1:primary SFSymbolsPreviewFFFFFF" d="M41.9434-6.83594Q36.9629-11.7676 37.1582-17.749Q37.3535-23.7305 42.6758-28.9062L57.4219-43.7012Q56.8848-42.627 56.6406-41.7236Q56.3965-40.8203 56.3232-40.0391Q56.25-39.2578 56.25-38.623L44.4824-26.6602Q40.1855-22.5586 40.1367-17.7246Q40.0879-12.8906 44.1406-8.93555Q48.0469-4.93164 52.8809-4.98047Q57.7148-5.0293 61.8652-9.32617L76.1719-23.4863Q80.4199-27.6855 80.4932-32.5684Q80.5664-37.4512 76.4648-41.3086Q74.1211-43.75 71.8018-44.7266Q69.4824-45.7031 66.8457-45.5078Q67.1387-46.5332 67.7979-47.2656Q68.457-47.998 69.043-48.4863Q71.4844-48.2422 73.7549-47.0215Q76.0254-45.8008 78.5645-43.4082Q83.5449-38.5254 83.374-32.4707Q83.2031-26.416 77.9785-21.2402L64.0625-7.51953Q58.8867-2.34375 52.9785-2.09961Q47.0703-1.85547 41.9434-6.83594ZM99.3652-64.1602Q104.395-59.2285 104.175-53.2471Q103.955-47.2656 98.6816-42.041L83.8867-27.2949Q84.4238-28.3691 84.6924-29.2725Q84.9609-30.1758 85.0342-30.957Q85.1074-31.7383 85.1074-32.373L96.8262-44.3359Q101.221-48.4375 101.221-53.2715Q101.221-58.1055 97.2168-62.0605Q93.2617-66.0645 88.4521-65.9912Q83.6426-65.918 79.4434-61.6699L65.1855-47.5098Q60.8887-43.3105 60.8398-38.4277Q60.791-33.5449 64.8926-29.6875Q67.2363-27.2461 69.5557-26.2695Q71.875-25.293 74.4629-25.4883Q74.1699-24.4629 73.5352-23.7061Q72.9004-22.9492 72.3145-22.5098Q69.873-22.7539 67.5781-23.9502Q65.2832-25.1465 62.793-27.5879Q57.8125-32.4707 57.9834-38.501Q58.1543-44.5312 63.3789-49.7559L77.2949-63.4766Q82.4707-68.6523 88.3789-68.8965Q94.2871-69.1406 99.3652-64.1602Z"/>
  </g>
  <g id="Black-M" transform="matrix(1 0 0 1 2871.32 1126)">
   <path class="multicolor-0:systemBlueColor hierarchical-0:tertiary SFSymbolsPreview007AFF" d="M62.0605 18.1641Q73.0957 18.1641 82.7637 14.0137Q92.4316 9.86328 99.7559 2.51465Q107.08-4.83398 111.255-14.4775Q115.43-24.1211 115.43-35.1562Q115.43-46.1914 111.255-55.835Q107.08-65.4785 99.7559-72.8271Q92.4316-80.1758 82.7637-84.3262Q73.0957-88.4766 62.0605-88.4766Q51.0742-88.4766 41.4062-84.3262Q31.7383-80.1758 24.3896-72.8271Q17.041-65.4785 12.8906-55.835Q8.74023-46.1914 8.74023-35.1562Q8.74023-24.1211 12.8906-14.4775Q17.041-4.83398 24.3896 2.51465Q31.7383 9.86328 41.4062 14.0137Q51.0742 18.1641 62.0605 18.1641Z"/>
   <path class="multicolor-1:white hierarchical-1:primary SFSymbolsPreviewFFFFFF" d="M38.3301-12.1094Q33.3008-17.1387 33.7402-23.2666Q34.1797-29.3945 39.9414-35.2051L46.7773-41.9922Q46.1914-39.8438 46.5088-36.8652Q46.8262-33.8867 47.6074-32.7637L45.1172-30.3711Q41.5527-26.8066 41.0889-23.291Q40.625-19.7754 43.3594-17.0898Q46.0938-14.4043 49.5605-14.8682Q53.0273-15.332 56.6895-18.9453L61.4746-23.6816Q65.0879-27.2949 65.5273-30.7617Q65.9668-34.2285 63.2324-36.9629Q62.5-37.6465 61.3037-38.4766Q60.1074-39.3066 59.375-39.6973Q59.7656-40.8203 61.1084-42.5537Q62.4512-44.2871 63.8184-45.4102Q64.7461-44.8242 65.9668-43.8721Q67.1875-42.9199 68.2129-41.9434Q73.3887-37.0117 72.998-30.7861Q72.6074-24.5605 66.6504-18.75L61.377-13.7695Q55.5176-8.05664 49.4629-7.54395Q43.4082-7.03125 38.3301-12.1094ZM83.9355-58.2031Q88.9648-53.1738 88.5498-47.0459Q88.1348-40.918 82.3242-35.1074L75.4883-28.3203Q76.0742-30.4688 75.7812-33.4473Q75.4883-36.4258 74.6582-37.5488L77.1484-39.9414Q80.7129-43.5059 81.1768-47.0215Q81.6406-50.5371 78.9062-53.2227Q76.1719-55.9082 72.7295-55.4443Q69.2871-54.9805 65.625-51.3672L60.791-46.6309Q57.1777-43.0664 56.7383-39.5752Q56.2988-36.084 59.082-33.3496Q59.7656-32.666 60.9619-31.8359Q62.1582-31.0059 62.8906-30.6152Q62.5488-29.4922 61.2061-27.7588Q59.8633-26.0254 58.4473-24.9023Q57.5195-25.4883 56.2988-26.4404Q55.0781-27.3926 54.1016-28.3691Q48.9258-33.3008 49.292-39.5264Q49.6582-45.752 55.6152-51.5625L60.9375-56.543Q66.748-62.2559 72.8027-62.7686Q78.8574-63.2812 83.9355-58.2031Z"/>
  </g>
  <g id="Heavy-M" transform="matrix(1 0 0 1 2575.43 1126)">
   <path class="multicolor-0:systemBlueColor hierarchical-0:tertiary SFSymbolsPreview007AFF" d="M61.2305 17.334Q72.0703 17.334 81.5918 13.2324Q91.1133 9.13086 98.3154 1.9043Q105.518-5.32227 109.644-14.8193Q113.77-24.3164 113.77-35.1562Q113.77-45.9961 109.644-55.4932Q105.518-64.9902 98.3154-72.2412Q91.1133-79.4922 81.5918-83.5693Q72.0703-87.6465 61.2305-87.6465Q50.4395-87.6465 40.918-83.5693Q31.3965-79.4922 24.1699-72.2412Q16.9434-64.9902 12.8418-55.4932Q8.74023-45.9961 8.74023-35.1562Q8.74023-24.3164 12.8418-14.8193Q16.9434-5.32227 24.1699 1.9043Q31.3965 9.13086 40.918 13.2324Q50.4395 17.334 61.2305 17.334Z"/>
   <path class="multicolor-1:white hierarchical-1:primary SFSymbolsPreviewFFFFFF" d="M37.3047-11.9629Q32.3242-16.9434 32.7637-22.9492Q33.2031-28.9551 38.8672-34.668L46.2402-41.9922Q45.6055-39.8926 45.874-37.1338Q46.1426-34.375 46.875-33.1543L43.75-30.1758Q40.1367-26.5625 39.6973-22.9736Q39.2578-19.3848 42.041-16.6504Q44.8242-13.916 48.3398-14.3799Q51.8555-14.8438 55.5664-18.457L60.8887-23.8281Q64.5996-27.4414 65.0391-30.9814Q65.4785-34.5215 62.6953-37.3047Q61.9141-38.0371 60.6934-38.8184Q59.4727-39.5996 58.4961-39.9414Q58.9355-41.1133 60.2295-42.749Q61.5234-44.3848 62.8418-45.4102Q63.7695-44.9219 65.0391-43.9941Q66.3086-43.0664 67.3828-41.9922Q72.4609-37.1094 72.0459-31.0303Q71.6309-24.9512 65.7715-19.1406L60.0098-13.5742Q54.1992-7.91016 48.2422-7.44629Q42.2852-6.98242 37.3047-11.9629ZM83.3496-58.3984Q88.3301-53.418 87.915-47.4121Q87.5-41.4062 81.7383-35.6934L74.4141-28.3691Q75-30.4688 74.7803-33.2275Q74.5605-35.9863 73.7793-37.1582L76.9043-40.2344Q80.5176-43.7988 80.957-47.3633Q81.3965-50.9277 78.6133-53.7109Q75.8301-56.4453 72.3145-55.9814Q68.7988-55.5176 65.1367-51.9043L59.7656-46.5332Q56.0547-42.9199 55.6152-39.3799Q55.1758-35.8398 58.0078-33.0566Q58.7402-32.3242 59.9609-31.543Q61.1816-30.7617 62.1582-30.4199Q61.7676-29.248 60.4736-27.6123Q59.1797-25.9766 57.8125-24.9512Q56.8848-25.4395 55.6152-26.3672Q54.3457-27.2949 53.3203-28.3691Q48.2422-33.252 48.6084-39.3555Q48.9746-45.459 54.8828-51.1719L60.6934-56.7383Q66.4551-62.4512 72.4121-62.915Q78.3691-63.3789 83.3496-58.3984Z"/>
  </g>
  <g id="Bold-M" transform="matrix(1 0 0 1 2279.65 1126)">
   <path class="multicolor-0:systemBlueColor hierarchical-0:tertiary SFSymbolsPreview007AFF" d="M60.3027 16.4062Q70.9473 16.4062 80.2734 12.3779Q89.5996 8.34961 96.7041 1.2207Q103.809-5.9082 107.861-15.2344Q111.914-24.5605 111.914-35.2051Q111.914-45.8008 107.861-55.127Q103.809-64.4531 96.7041-71.582Q89.5996-78.7109 80.249-82.7393Q70.8984-86.7676 60.3027-86.7676Q49.707-86.7676 40.3564-82.7393Q31.0059-78.7109 23.9014-71.582Q16.7969-64.4531 12.7686-55.127Q8.74023-45.8008 8.74023-35.2051Q8.74023-24.5605 12.7686-15.2344Q16.7969-5.9082 23.9258 1.2207Q31.0547 8.34961 40.3809 12.3779Q49.707 16.4062 60.3027 16.4062Z"/>
   <path class="multicolor-1:white hierarchical-1:primary SFSymbolsPreviewFFFFFF" d="M36.1816-11.7676Q31.25-16.6992 31.6895-22.583Q32.1289-28.4668 37.7441-34.1309L45.6543-41.9434Q45.0195-39.9414 45.2148-37.4512Q45.4102-34.9609 46.0938-33.6426L42.2363-29.9316Q38.5742-26.2695 38.1348-22.6318Q37.6953-18.9941 40.5762-16.2109Q43.4082-13.3789 46.9971-13.8428Q50.5859-14.3066 54.2969-17.9199L60.3027-23.9746Q64.0625-27.6367 64.502-31.25Q64.9414-34.8633 62.1094-37.7441Q61.2793-38.5254 60.0342-39.2334Q58.7891-39.9414 57.5684-40.2344Q58.0078-41.4551 59.2529-42.9688Q60.498-44.4824 61.7188-45.4102Q62.7441-45.0195 64.0381-44.1406Q65.332-43.2617 66.4551-42.0898Q71.4844-37.2559 71.0449-31.2988Q70.6055-25.3418 64.8438-19.6289L58.4473-13.4277Q52.7832-7.8125 46.9238-7.34863Q41.0645-6.88477 36.1816-11.7676ZM82.7148-58.6426Q87.6465-53.7598 87.2314-47.876Q86.8164-41.9922 81.1523-36.3281L73.2422-28.4668Q73.877-30.5176 73.7061-33.0078Q73.5352-35.498 72.8027-36.7676L76.6602-40.5273Q80.3223-44.1895 80.7617-47.8027Q81.2012-51.416 78.3203-54.248Q75.4883-57.0312 71.8994-56.5918Q68.3105-56.1523 64.5996-52.4902L58.5938-46.4844Q54.834-42.8223 54.3945-39.1846Q53.9551-35.5469 56.7871-32.7148Q57.6172-31.9336 58.8623-31.2256Q60.1074-30.5176 61.3281-30.1758Q60.8887-28.9551 59.6436-27.4414Q58.3984-25.9277 57.1777-25Q56.1523-25.3906 54.8584-26.2939Q53.5645-27.1973 52.4414-28.3691Q47.4609-33.2031 47.876-39.1602Q48.291-45.1172 54.0527-50.7812L60.4492-57.0312Q66.1133-62.6465 71.9727-63.0859Q77.832-63.5254 82.7148-58.6426Z"/>
  </g>
  <g id="Semibold-M" transform="matrix(1 0 0 1 1983.6 1126)">
   <path class="multicolor-0:systemBlueColor hierarchical-0:tertiary SFSymbolsPreview007AFF" d="M59.668 15.7227Q70.1172 15.7227 79.3457 11.7432Q88.5742 7.76367 95.6055 0.732422Q102.637-6.29883 106.616-15.5029Q110.596-24.707 110.596-35.2051Q110.596-45.6543 106.616-54.8584Q102.637-64.0625 95.6055-71.0938Q88.5742-78.125 79.3457-82.1289Q70.1172-86.1328 59.6191-86.1328Q49.1699-86.1328 39.9658-82.1289Q30.7617-78.125 23.7305-71.0938Q16.6992-64.0625 12.7197-54.8584Q8.74023-45.6543 8.74023-35.2051Q8.74023-24.707 12.7197-15.5029Q16.6992-6.29883 23.7305 0.732422Q30.7617 7.76367 39.9902 11.7432Q49.2188 15.7227 59.668 15.7227Z"/>
   <path class="multicolor-1:white hierarchical-1:primary SFSymbolsPreviewFFFFFF" d="M35.3516-11.6211Q30.4688-16.5039 30.8838-22.29Q31.2988-28.0762 36.8652-33.6914L45.166-41.9434Q44.5801-39.9414 44.7021-37.6221Q44.8242-35.3027 45.459-33.9844L41.1621-29.7363Q37.4023-26.0254 36.9873-22.3633Q36.5723-18.7012 39.5508-15.8691Q42.3828-12.9883 46.0205-13.4521Q49.6582-13.916 53.3691-17.5293L59.8145-24.0723Q63.623-27.7832 64.0869-31.4453Q64.5508-35.1074 61.6699-37.9883Q60.791-38.8184 59.5215-39.4775Q58.252-40.1367 56.8359-40.4297Q57.3242-41.6992 58.5449-43.1152Q59.7656-44.5312 60.9375-45.4102Q61.9629-45.0684 63.2812-44.2139Q64.5996-43.3594 65.7715-42.0898Q70.7031-37.3047 70.2637-31.4697Q69.8242-25.6348 64.1113-19.9707L57.3242-13.2812Q51.709-7.66602 45.9473-7.25098Q40.1855-6.83594 35.3516-11.6211ZM82.2266-58.7891Q87.1094-53.9551 86.6943-48.1445Q86.2793-42.334 80.7129-36.7188L72.4121-28.5156Q72.998-30.5176 72.876-32.8125Q72.7539-35.1074 72.0703-36.4746L76.416-40.7227Q80.127-44.3848 80.542-48.0713Q80.957-51.7578 78.0273-54.5898Q75.1953-57.4219 71.5576-56.9824Q67.9199-56.543 64.209-52.8809L57.7637-46.3867Q53.9551-42.6758 53.4912-39.0137Q53.0273-35.3516 55.9082-32.4707Q56.7871-31.6406 58.0566-30.9814Q59.3262-30.3223 60.7422-30.0293Q60.2539-28.7598 59.0332-27.3193Q57.8125-25.8789 56.6406-25.0488Q55.6152-25.3418 54.2969-26.2207Q52.9785-27.0996 51.8066-28.3203Q46.875-33.1543 47.29-39.0137Q47.7051-44.873 53.4668-50.4883L60.2539-57.1777Q65.8691-62.7441 71.6309-63.1836Q77.3926-63.623 82.2266-58.7891Z"/>
  </g>
  <g id="Medium-M" transform="matrix(1 0 0 1 1687.38 1126)">
   <path class="multicolor-0:systemBlueColor hierarchical-0:tertiary SFSymbolsPreview007AFF" d="M59.1797 15.2344Q69.5312 15.2344 78.6621 11.2793Q87.793 7.32422 94.751 0.366211Q101.709-6.5918 105.664-15.7227Q109.619-24.8535 109.619-35.2051Q109.619-45.5566 105.664-54.6875Q101.709-63.8184 94.751-70.7764Q87.793-77.7344 78.6377-81.6895Q69.4824-85.6445 59.1309-85.6445Q48.7793-85.6445 39.6484-81.6895Q30.5176-77.7344 23.584-70.7764Q16.6504-63.8184 12.6953-54.6875Q8.74023-45.5566 8.74023-35.2051Q8.74023-24.8535 12.6953-15.7227Q16.6504-6.5918 23.6084 0.366211Q30.5664 7.32422 39.6973 11.2793Q48.8281 15.2344 59.1797 15.2344Z"/>
   <path class="multicolor-1:white hierarchical-1:primary SFSymbolsPreviewFFFFFF" d="M34.7168-11.5723Q29.8828-16.3574 30.2979-22.0947Q30.7129-27.832 36.2305-33.3984L44.8242-41.8945Q44.2383-39.9414 44.3359-37.7686Q44.4336-35.5957 45.0195-34.2285L40.332-29.5898Q36.5723-25.8789 36.1572-22.1924Q35.7422-18.5059 38.7207-15.625Q41.6504-12.7441 45.3125-13.1836Q48.9746-13.623 52.7344-17.2852L59.4727-24.1211Q63.3301-27.832 63.7695-31.543Q64.209-35.2539 61.3281-38.1836Q60.4492-39.0625 59.1553-39.6973Q57.8613-40.332 56.2988-40.5762Q56.8359-41.8457 58.0078-43.2373Q59.1797-44.6289 60.3027-45.4102Q61.377-45.166 62.7197-44.3115Q64.0625-43.457 65.2832-42.1387Q70.166-37.3535 69.7266-31.5918Q69.2871-25.8301 63.5742-20.2148L56.4941-13.1836Q50.9277-7.61719 45.2148-7.20215Q39.502-6.78711 34.7168-11.5723ZM81.8848-58.9355Q86.7188-54.1016 86.3037-48.3643Q85.8887-42.627 80.3711-37.0605L71.7285-28.5645Q72.3633-30.5176 72.2656-32.6904Q72.168-34.8633 71.582-36.2793L76.2695-40.918Q80.0293-44.5801 80.4199-48.291Q80.8105-52.002 77.832-54.8828Q74.9512-57.7637 71.2891-57.3242Q67.627-56.8848 63.8672-53.2227L57.1289-46.3379Q53.2715-42.627 52.8076-38.916Q52.3438-35.2051 55.2734-32.2754Q56.1523-31.4453 57.4463-30.8105Q58.7402-30.1758 60.2539-29.8828Q59.7656-28.6133 58.5938-27.2461Q57.4219-25.8789 56.25-25.0488Q55.2246-25.3418 53.8818-26.1963Q52.5391-27.0508 51.3184-28.3203Q46.4844-33.1543 46.8994-38.916Q47.3145-44.6777 52.9785-50.293L60.0586-57.3242Q65.6738-62.8418 71.3867-63.2568Q77.0996-63.6719 81.8848-58.9355Z"/>
  </g>
  <g id="Regular-M" transform="matrix(1 0 0 1 1391.3 1126)">
   <path class="multicolor-0:systemBlueColor hierarchical-0:tertiary SFSymbolsPreview007AFF" d="M58.5449 14.5996Q68.75 14.5996 77.7588 10.6934Q86.7676 6.78711 93.6523-0.0976562Q100.537-6.98242 104.443-15.9912Q108.35-25 108.35-35.2051Q108.35-45.4102 104.443-54.4189Q100.537-63.4277 93.6523-70.3125Q86.7676-77.1973 77.7344-81.1035Q68.7012-85.0098 58.4961-85.0098Q48.291-85.0098 39.2822-81.1035Q30.2734-77.1973 23.4131-70.3125Q16.5527-63.4277 12.6465-54.4189Q8.74023-45.4102 8.74023-35.2051Q8.74023-25 12.6465-15.9912Q16.5527-6.98242 23.4375-0.0976562Q30.3223 6.78711 39.3311 10.6934Q48.3398 14.5996 58.5449 14.5996Z"/>
   <path class="multicolor-1:white hierarchical-1:primary SFSymbolsPreviewFFFFFF" d="M33.9355-11.4258Q29.1504-16.2109 29.5654-21.8506Q29.9805-27.4902 35.4492-33.0078L44.4336-41.8945Q43.7988-39.9902 43.8477-37.9883Q43.8965-35.9863 44.4824-34.5215L39.3066-29.4434Q35.498-25.6836 35.1074-21.9482Q34.7168-18.2129 37.7441-15.2832Q40.6738-12.3535 44.3848-12.793Q48.0957-13.2324 51.8555-16.8945L59.0332-24.2188Q62.9395-27.9785 63.4033-31.7383Q63.8672-35.498 60.9375-38.4766Q60.0098-39.3555 58.6914-39.9414Q57.373-40.5273 55.6641-40.7715Q56.2012-42.0898 57.3486-43.3838Q58.4961-44.6777 59.5703-45.4102Q60.6445-45.2148 62.0117-44.3848Q63.3789-43.5547 64.6484-42.1875Q69.4824-37.4512 69.0186-31.7871Q68.5547-26.123 62.9395-20.5078L55.4688-13.0371Q49.9512-7.51953 44.3115-7.12891Q38.6719-6.73828 33.9355-11.4258ZM81.4453-59.082Q86.2305-54.2969 85.8154-48.6572Q85.4004-43.0176 79.9316-37.5L70.9473-28.6133Q71.582-30.5176 71.5332-32.5195Q71.4844-34.5215 70.8984-35.9863L76.0742-41.1133Q79.8828-44.8242 80.2734-48.5596Q80.6641-52.2949 77.6367-55.2246Q74.707-58.1543 70.9961-57.7148Q67.2852-57.2754 63.5254-53.6133L56.3477-46.2891Q52.4414-42.5293 51.9775-38.7695Q51.5137-35.0098 54.4434-32.0312Q55.3711-31.1523 56.6895-30.5664Q58.0078-29.9805 59.7168-29.7363Q59.1797-28.418 58.0322-27.124Q56.8848-25.8301 55.8105-25.0977Q54.7363-25.293 53.3691-26.123Q52.002-26.9531 50.7324-28.3203Q45.9473-33.1055 46.3867-38.7695Q46.8262-44.4336 52.4414-50L59.9121-57.4707Q65.4297-62.9883 71.0693-63.3789Q76.709-63.7695 81.4453-59.082Z"/>
  </g>
  <g id="Light-M" transform="matrix(1 0 0 1 1095.42 1126)">
   <path class="multicolor-0:systemBlueColor hierarchical-0:tertiary SFSymbolsPreview007AFF" d="M57.7148 13.7695Q67.7734 13.7695 76.6357 9.93652Q85.498 6.10352 92.2607-0.65918Q99.0234-7.42188 102.856-16.2842Q106.689-25.1465 106.689-35.2051Q106.689-45.2637 102.856-54.126Q99.0234-62.9883 92.2607-69.751Q85.498-76.5137 76.6113-80.3467Q67.7246-84.1797 57.666-84.1797Q47.6074-84.1797 38.7451-80.3467Q29.8828-76.5137 23.1445-69.751Q16.4062-62.9883 12.5732-54.126Q8.74023-45.2637 8.74023-35.2051Q8.74023-25.1465 12.5732-16.2842Q16.4062-7.42188 23.1689-0.65918Q29.9316 6.10352 38.7939 9.93652Q47.6562 13.7695 57.7148 13.7695Z"/>
   <path class="multicolor-1:white hierarchical-1:primary SFSymbolsPreviewFFFFFF" d="M33.4961-12.0117Q29.0039-16.4551 29.3213-21.8018Q29.6387-27.1484 34.668-32.1777L44.4336-41.8945Q43.7988-40.1855 43.7744-38.501Q43.75-36.8164 44.1895-35.5469L37.793-29.1992Q34.1309-25.6348 33.8379-21.875Q33.5449-18.1152 36.6211-15.1367Q39.5996-12.1582 43.3105-12.4756Q47.0215-12.793 50.6348-16.3574L59.0332-24.8047Q62.7441-28.418 63.0859-32.1777Q63.4277-35.9375 60.4004-38.916Q59.1797-40.1367 57.7148-40.7715Q56.25-41.4062 54.4434-41.5527Q54.8828-42.6758 55.835-43.75Q56.7871-44.8242 57.666-45.459Q58.9844-45.2637 60.4736-44.3848Q61.9629-43.5059 63.4766-41.9922Q68.0176-37.5488 67.6514-32.2021Q67.2852-26.8555 62.1582-21.7285L53.6621-13.2812Q48.584-8.20312 43.2861-7.88574Q37.9883-7.56836 33.4961-12.0117ZM80.0293-58.6426Q84.5703-54.1504 84.2285-48.8281Q83.8867-43.5059 78.8574-38.4277L69.0918-28.7598Q69.7266-30.4688 69.751-32.1533Q69.7754-33.8379 69.3359-35.0586L75.7324-41.5039Q79.4434-45.0195 79.7119-48.7549Q79.9805-52.4902 76.9043-55.4688Q73.9258-58.4473 70.2148-58.1543Q66.5039-57.8613 62.8906-54.248L54.541-45.8008Q50.7812-42.2363 50.4639-38.4521Q50.1465-34.668 53.125-31.6895Q54.3457-30.5176 55.8105-29.8828Q57.2754-29.248 59.082-29.1016Q58.6426-27.9297 57.6904-26.8555Q56.7383-25.7812 55.8594-25.1953Q54.541-25.3906 53.0518-26.2451Q51.5625-27.0996 50.0977-28.6621Q45.5566-33.1055 45.8984-38.4766Q46.2402-43.8477 51.416-48.9258L59.9121-57.373Q64.9414-62.4512 70.2393-62.7686Q75.5371-63.0859 80.0293-58.6426Z"/>
  </g>
  <g id="Thin-M" transform="matrix(1 0 0 1 799.782 1126)">
   <path class="multicolor-0:systemBlueColor hierarchical-0:tertiary SFSymbolsPreview007AFF" d="M56.5918 12.6465Q66.5039 12.6465 75.1709 8.93555Q83.8379 5.22461 90.4297-1.3916Q97.0215-8.00781 100.781-16.6748Q104.541-25.3418 104.541-35.2051Q104.541-45.0684 100.781-53.7354Q97.0215-62.4023 90.4297-69.0186Q83.8379-75.6348 75.1709-79.3457Q66.5039-83.0566 56.5918-83.0566Q46.7285-83.0566 38.0615-79.3457Q29.3945-75.6348 22.8271-69.0186Q16.2598-62.4023 12.5-53.7354Q8.74023-45.0684 8.74023-35.2051Q8.74023-25.3418 12.4756-16.6748Q16.2109-8.00781 22.8027-1.3916Q29.3945 5.22461 38.0859 8.93555Q46.7773 12.6465 56.5918 12.6465Z"/>
   <path class="multicolor-1:white hierarchical-1:primary SFSymbolsPreviewFFFFFF" d="M32.9102-12.6465Q28.8086-16.748 29.0283-21.6797Q29.248-26.6113 33.7402-31.0547L44.4824-41.7969Q43.8477-40.332 43.75-39.0869Q43.6523-37.8418 43.8477-36.9141L35.8398-28.8086Q32.373-25.4395 32.2266-21.7041Q32.0801-17.9688 35.2051-14.8926Q38.1836-11.8652 41.9189-12.0361Q45.6543-12.207 49.0234-15.625L59.0332-25.5859Q62.5-28.9551 62.6709-32.7148Q62.8418-36.4746 59.7168-39.4531Q58.1543-41.1133 56.4941-41.8213Q54.834-42.5293 52.9297-42.4805Q53.2227-43.457 53.8818-44.2139Q54.541-44.9707 55.2246-45.4102Q56.8848-45.2148 58.5205-44.3115Q60.1562-43.4082 61.9141-41.6992Q66.0645-37.6465 65.8447-32.6904Q65.625-27.7344 61.084-23.2422L51.2695-13.5254Q46.8262-9.08203 41.9434-8.83789Q37.0605-8.59375 32.9102-12.6465ZM78.2227-58.0078Q82.373-53.9062 82.1533-48.999Q81.9336-44.0918 77.4414-39.5996L66.6992-28.9062Q67.334-30.3223 67.4072-31.5918Q67.4805-32.8613 67.334-33.7891L75.3418-41.8945Q78.8574-45.2637 78.9551-48.999Q79.0527-52.7344 75.9766-55.7617Q72.998-58.7891 69.2627-58.6426Q65.5273-58.4961 62.1094-55.0781L52.1484-45.1172Q48.6816-41.748 48.5107-37.9639Q48.3398-34.1797 51.4648-31.2012Q53.0273-29.5898 54.6631-28.9062Q56.2988-28.2227 58.252-28.2227Q57.959-27.2949 57.2754-26.4893Q56.5918-25.6836 55.957-25.2441Q54.2969-25.4395 52.6611-26.3428Q51.0254-27.2461 49.2676-29.0039Q45.1172-33.0566 45.3369-38.0127Q45.5566-42.9688 50.0488-47.4609L59.9121-57.1777Q64.3066-61.6211 69.1895-61.8652Q74.0723-62.1094 78.2227-58.0078Z"/>
  </g>
  <g id="Ultralight-M" transform="matrix(1 0 0 1 503.632 1126)">
   <path class="multicolor-0:systemBlueColor hierarchical-0:tertiary SFSymbolsPreview007AFF" d="M56.0547 12.1094Q65.8203 12.1094 74.3896 8.42285Q82.959 4.73633 89.4775-1.78223Q95.9961-8.30078 99.707-16.8701Q103.418-25.4395 103.418-35.2051Q103.418-44.9707 99.707-53.54Q95.9961-62.1094 89.4775-68.6279Q82.959-75.1465 74.3896-78.833Q65.8203-82.5195 56.0547-82.5195Q46.2891-82.5195 37.7197-78.833Q29.1504-75.1465 22.6562-68.6279Q16.1621-62.1094 12.4512-53.54Q8.74023-44.9707 8.74023-35.2051Q8.74023-25.4395 12.4268-16.8701Q16.1133-8.30078 22.6318-1.78223Q29.1504 4.73633 37.7197 8.42285Q46.2891 12.1094 56.0547 12.1094Z"/>
   <path class="multicolor-1:white hierarchical-1:primary SFSymbolsPreviewFFFFFF" d="M32.6172-13.0859Q28.7109-16.9434 28.8818-21.6797Q29.0527-26.416 33.2031-30.5176L44.5312-41.7969Q43.8965-40.4785 43.7256-39.4287Q43.5547-38.3789 43.6523-37.5977L34.8145-28.6133Q31.4453-25.4395 31.3721-21.6797Q31.2988-17.9199 34.4727-14.8438Q37.5-11.7676 41.2354-11.8408Q44.9707-11.9141 48.2422-15.2832L59.0332-25.9766Q62.4023-29.248 62.4756-33.0322Q62.5488-36.8164 59.3262-39.7949Q57.6172-41.6992 55.8594-42.4072Q54.1016-43.1152 52.0996-43.0176Q52.3438-43.8477 52.8809-44.4824Q53.418-45.1172 53.9551-45.459Q55.7617-45.2637 57.4951-44.3359Q59.2285-43.4082 61.1328-41.6016Q65.0879-37.7441 64.9414-32.9834Q64.7949-28.2227 60.5957-24.1211L50.0488-13.6719Q45.9473-9.57031 41.2842-9.375Q36.6211-9.17969 32.6172-13.0859ZM77.2949-57.7148Q81.2988-53.8574 81.1035-49.1455Q80.9082-44.4336 76.709-40.2832L65.4297-29.0527Q66.0645-30.2734 66.2109-31.3477Q66.3574-32.4219 66.3086-33.1543L75.1465-42.1875Q78.5645-45.4102 78.5889-49.1455Q78.6133-52.8809 75.4883-55.957Q72.4609-59.0332 68.7256-58.9844Q64.9902-58.9355 61.7188-55.5176L50.9277-44.7754Q47.5586-41.5527 47.4854-37.7686Q47.4121-33.9844 50.5859-31.0059Q52.3438-29.1504 54.0771-28.4424Q55.8105-27.7344 57.8613-27.7832Q57.6172-26.9531 57.0801-26.3184Q56.543-25.6836 56.0547-25.3418Q54.1992-25.5371 52.4658-26.4648Q50.7324-27.3926 48.8281-29.248Q44.873-33.0566 45.0195-37.8174Q45.166-42.5781 49.3652-46.7285L59.9121-57.1289Q64.0137-61.2793 68.6523-61.4502Q73.291-61.6211 77.2949-57.7148Z"/>
  </g>
  <g id="Black-S" transform="matrix(1 0 0 1 2884.57 696)">
   <path class="multicolor-0:systemBlueColor hierarchical-0:tertiary SFSymbolsPreview007AFF" d="M48.8281 6.83594Q57.5195 6.83594 65.1123 3.56445Q72.7051 0.292969 78.4912-5.49316Q84.2773-11.2793 87.5488-18.8721Q90.8203-26.4648 90.8203-35.1562Q90.8203-43.8477 87.5488-51.4404Q84.2773-59.0332 78.4912-64.8193Q72.7051-70.6055 65.1123-73.877Q57.5195-77.1484 48.8281-77.1484Q40.1367-77.1484 32.5439-73.877Q24.9512-70.6055 19.165-64.8193Q13.3789-59.0332 10.1074-51.4404Q6.83594-43.8477 6.83594-35.1562Q6.83594-26.4648 10.1074-18.8721Q13.3789-11.2793 19.165-5.49316Q24.9512 0.292969 32.5439 3.56445Q40.1367 6.83594 48.8281 6.83594Z"/>
   <path class="multicolor-1:white hierarchical-1:primary SFSymbolsPreviewFFFFFF" d="M30.3223-17.1875Q26.3672-21.1426 26.709-25.9521Q27.0508-30.7617 31.5918-35.3027L36.8164-40.5273Q36.377-38.8672 36.6211-36.4746Q36.8652-34.082 37.5-33.2031L35.6934-31.4453Q32.9102-28.7109 32.5439-25.9766Q32.1777-23.2422 34.3262-21.1426Q36.4258-19.043 39.1113-19.4092Q41.7969-19.7754 44.6777-22.5586L48.3398-26.1719Q51.123-28.9551 51.4648-31.665Q51.8066-34.375 49.6582-36.4746Q49.0723-37.0117 48.1445-37.6953Q47.2168-38.3789 46.7285-38.6719Q46.9727-39.5508 48.0225-40.918Q49.0723-42.2852 50.1953-43.2129Q50.9277-42.7246 51.8799-41.9678Q52.832-41.2109 53.6133-40.4297Q57.666-36.5723 57.373-31.6895Q57.0801-26.8066 52.4414-22.2656L48.3887-18.457Q43.7988-14.0137 39.0381-13.5986Q34.2773-13.1836 30.3223-17.1875ZM65.8691-53.125Q69.8242-49.1699 69.4824-44.3604Q69.1406-39.5508 64.5996-35.0098L59.375-29.7852Q59.8145-31.4941 59.5459-33.8623Q59.2773-36.2305 58.6914-37.1094L60.498-38.8672Q63.2812-41.6016 63.623-44.3359Q63.9648-47.0703 61.8652-49.1699Q59.7168-51.3184 57.0312-50.9277Q54.3457-50.5371 51.5137-47.7539L47.8516-44.1406Q45.0195-41.3574 44.6777-38.6719Q44.3359-35.9863 46.5332-33.8379Q47.0703-33.3008 47.998-32.6172Q48.9258-31.9336 49.4629-31.6406Q49.1699-30.7617 48.1201-29.3945Q47.0703-28.0273 45.9961-27.0996Q45.2637-27.6367 44.2871-28.3691Q43.3105-29.1016 42.5781-29.8828Q38.4766-33.7402 38.7695-38.623Q39.0625-43.5059 43.75-48.0469L47.8027-51.8555Q52.3438-56.3477 57.1045-56.7383Q61.8652-57.1289 65.8691-53.125Z"/>
  </g>
  <g id="Heavy-S" transform="matrix(1 0 0 1 2588.47 696)">
   <path class="multicolor-0:systemBlueColor hierarchical-0:tertiary SFSymbolsPreview007AFF" d="M48.1934 6.20117Q56.7871 6.20117 64.2578 2.97852Q71.7285-0.244141 77.4414-5.95703Q83.1543-11.6699 86.377-19.1406Q89.5996-26.6113 89.5996-35.1562Q89.5996-43.7012 86.377-51.1963Q83.1543-58.6914 77.4414-64.4043Q71.7285-70.1172 64.2334-73.3398Q56.7383-76.5625 48.1934-76.5625Q39.6484-76.5625 32.1777-73.3398Q24.707-70.1172 18.9941-64.4043Q13.2812-58.6914 10.0586-51.1963Q6.83594-43.7012 6.83594-35.1562Q6.83594-26.6113 10.0586-19.1406Q13.2812-11.6699 18.9941-5.95703Q24.707-0.244141 32.2021 2.97852Q39.6973 6.20117 48.1934 6.20117Z"/>
   <path class="multicolor-1:white hierarchical-1:primary SFSymbolsPreviewFFFFFF" d="M29.4922-16.9922Q25.5371-20.9473 25.8789-25.6836Q26.2207-30.4199 30.7617-34.9609L36.3281-40.5273Q35.8887-38.8672 36.084-36.6455Q36.2793-34.4238 36.8652-33.4473L34.668-31.2988Q31.8359-28.5156 31.4697-25.7324Q31.1035-22.9492 33.3008-20.8008Q35.4492-18.6523 38.1836-19.0186Q40.918-19.3848 43.8477-22.2168L47.8027-26.2207Q50.6836-29.0527 51.0498-31.8115Q51.416-34.5703 49.2188-36.7188Q48.6328-37.2559 47.7051-37.8906Q46.7773-38.5254 46.0938-38.8184Q46.3867-39.7461 47.4365-41.04Q48.4863-42.334 49.5605-43.2129Q50.293-42.8223 51.2451-42.0898Q52.1973-41.3574 53.0273-40.5273Q57.0312-36.6699 56.7139-31.8359Q56.3965-27.002 51.7578-22.4609L47.4121-18.3105Q42.8223-13.8184 38.1104-13.4277Q33.3984-13.0371 29.4922-16.9922ZM65.5273-53.3691Q69.4336-49.4141 69.0918-44.6777Q68.75-39.9414 64.209-35.4004L58.6426-29.834Q59.1309-31.4941 58.9111-33.7158Q58.6914-35.9375 58.1055-36.9141L60.3027-39.0625Q63.1348-41.8457 63.4766-44.6289Q63.8184-47.4121 61.6699-49.5605Q59.5215-51.709 56.7627-51.3184Q54.0039-50.9277 51.123-48.1445L47.168-44.1406Q44.2383-41.3086 43.8721-38.5498Q43.5059-35.791 45.752-33.6426Q46.2891-33.1055 47.2168-32.4707Q48.1445-31.8359 48.877-31.543Q48.5352-30.6152 47.4854-29.2969Q46.4355-27.9785 45.4102-27.1484Q44.6777-27.5879 43.7012-28.2959Q42.7246-29.0039 41.9434-29.834Q37.8906-33.6914 38.208-38.501Q38.5254-43.3105 43.2129-47.8516L47.5586-52.0508Q52.0996-56.543 56.8359-56.9336Q61.5723-57.3242 65.5273-53.3691Z"/>
  </g>
  <g id="Bold-S" transform="matrix(1 0 0 1 2292.42 696)">
   <path class="multicolor-0:systemBlueColor hierarchical-0:tertiary SFSymbolsPreview007AFF" d="M47.5586 5.51758Q55.957 5.51758 63.3057 2.34375Q70.6543-0.830078 76.2695-6.46973Q81.8848-12.1094 85.083-19.458Q88.2812-26.8066 88.2812-35.2051Q88.2812-43.5547 85.083-50.9277Q81.8848-58.3008 76.2695-63.916Q70.6543-69.5312 63.2812-72.7051Q55.9082-75.8789 47.5098-75.8789Q39.1602-75.8789 31.7871-72.7051Q24.4141-69.5312 18.8232-63.916Q13.2324-58.3008 10.0342-50.9277Q6.83594-43.5547 6.83594-35.2051Q6.83594-26.8066 10.0342-19.458Q13.2324-12.1094 18.8477-6.46973Q24.4629-0.830078 31.8115 2.34375Q39.1602 5.51758 47.5586 5.51758Z"/>
   <path class="multicolor-1:white hierarchical-1:primary SFSymbolsPreviewFFFFFF" d="M28.5645-16.7969Q24.6582-20.7031 25-25.3906Q25.3418-30.0781 29.8828-34.6191L35.791-40.5273Q35.3516-38.8672 35.498-36.8164Q35.6445-34.7656 36.2305-33.6914L33.6426-31.1523Q30.7129-28.2715 30.3467-25.4395Q29.9805-22.6074 32.2266-20.4102Q34.4238-18.2617 37.207-18.6279Q39.9902-18.9941 42.9199-21.875L47.3145-26.2695Q50.2441-29.1504 50.6348-31.9824Q51.0254-34.8145 48.8281-37.0117Q48.2422-37.5488 47.29-38.1104Q46.3379-38.6719 45.459-38.9648Q45.8496-39.9414 46.8506-41.1865Q47.8516-42.4316 48.877-43.2129Q49.6094-42.9199 50.6104-42.2119Q51.6113-41.5039 52.4414-40.625Q56.3965-36.7676 56.0547-32.0312Q55.7129-27.2949 51.0742-22.7051L46.3867-18.1152Q41.7969-13.623 37.1338-13.2568Q32.4707-12.8906 28.5645-16.7969ZM65.1855-53.6133Q69.0918-49.707 68.75-45.0195Q68.4082-40.332 63.8672-35.791L57.9102-29.8828Q58.3984-31.543 58.2275-33.5938Q58.0566-35.6445 57.4707-36.7188L60.1074-39.2578Q63.0371-42.1387 63.3789-44.9707Q63.7207-47.8027 61.5234-50Q59.3262-52.1973 56.5186-51.8066Q53.7109-51.416 50.7812-48.5352L46.4355-44.1406Q43.457-41.2598 43.0664-38.4521Q42.6758-35.6445 44.9219-33.3984Q45.459-32.8613 46.4111-32.2998Q47.3633-31.7383 48.291-31.4453Q47.9004-30.4688 46.875-29.2236Q45.8496-27.9785 44.873-27.1973Q44.1406-27.5391 43.1396-28.2227Q42.1387-28.9062 41.3086-29.7852Q37.3047-33.6426 37.6709-38.3789Q38.0371-43.1152 42.6758-47.7051L47.3633-52.2949Q51.9043-56.8359 56.5918-57.1777Q61.2793-57.5195 65.1855-53.6133Z"/>
  </g>
  <g id="Semibold-S" transform="matrix(1 0 0 1 1996.2 696)">
   <path class="multicolor-0:systemBlueColor hierarchical-0:tertiary SFSymbolsPreview007AFF" d="M47.0703 5.0293Q55.3711 5.0293 62.6465 1.9043Q69.9219-1.2207 75.4639-6.81152Q81.0059-12.4023 84.1553-19.6777Q87.3047-26.9531 87.3047-35.2051Q87.3047-43.457 84.1553-50.7324Q81.0059-58.0078 75.4395-63.5742Q69.873-69.1406 62.5977-72.29Q55.3223-75.4395 47.0215-75.4395Q38.7695-75.4395 31.4941-72.29Q24.2188-69.1406 18.6768-63.5742Q13.1348-58.0078 9.98535-50.7324Q6.83594-43.457 6.83594-35.2051Q6.83594-26.9531 9.98535-19.6777Q13.1348-12.4023 18.7012-6.81152Q24.2676-1.2207 31.543 1.9043Q38.8184 5.0293 47.0703 5.0293Z"/>
   <path class="multicolor-1:white hierarchical-1:primary SFSymbolsPreviewFFFFFF" d="M27.9297-16.6016Q24.0234-20.5078 24.3652-25.1465Q24.707-29.7852 29.1992-34.3262L35.4004-40.4785Q34.9609-38.8672 35.083-36.9385Q35.2051-35.0098 35.7422-33.8867L32.8613-31.0059Q29.8828-28.0762 29.5166-25.2197Q29.1504-22.3633 31.3965-20.166Q33.6426-17.9199 36.4746-18.3105Q39.3066-18.7012 42.2852-21.582L46.875-26.2695Q49.9023-29.1992 50.3174-32.0801Q50.7324-34.9609 48.5352-37.207Q47.9492-37.7441 46.9727-38.2568Q45.9961-38.7695 44.9707-39.0625Q45.4102-40.0879 46.4111-41.2842Q47.4121-42.4805 48.3887-43.2129Q49.1211-42.9688 50.1221-42.2852Q51.123-41.6016 51.9531-40.6738Q55.9082-36.8164 55.542-32.1289Q55.1758-27.4414 50.5859-22.8516L45.6055-17.9688Q41.0645-13.4766 36.4258-13.1104Q31.7871-12.7441 27.9297-16.6016ZM64.8926-53.8086Q68.7988-49.9023 68.457-45.2637Q68.1152-40.625 63.5742-36.084L57.373-29.9316Q57.8613-31.543 57.7393-33.4717Q57.6172-35.4004 57.0312-36.5234L59.9609-39.4043Q62.9395-42.334 63.2812-45.1904Q63.623-48.0469 61.377-50.293Q59.1309-52.4902 56.2988-52.0996Q53.4668-51.709 50.4883-48.8281L45.8984-44.1406Q42.8711-41.2109 42.4561-38.3545Q42.041-35.498 44.2871-33.2031Q44.873-32.666 45.8252-32.1533Q46.7773-31.6406 47.8027-31.3965Q47.4121-30.3223 46.3867-29.126Q45.3613-27.9297 44.4336-27.1973Q43.7012-27.4902 42.6758-28.1738Q41.6504-28.8574 40.8203-29.7363Q36.8652-33.5938 37.2314-38.2812Q37.5977-42.9688 42.2363-47.5586L47.168-52.4414Q51.709-56.9824 56.3721-57.3242Q61.0352-57.666 64.8926-53.8086Z"/>
  </g>
  <g id="Medium-S" transform="matrix(1 0 0 1 1699.83 696)">
   <path class="multicolor-0:systemBlueColor hierarchical-0:tertiary SFSymbolsPreview007AFF" d="M46.7285 4.6875Q54.9316 4.6875 62.1338 1.5625Q69.3359-1.5625 74.8535-7.08008Q80.3711-12.5977 83.4961-19.7998Q86.6211-27.002 86.6211-35.2051Q86.6211-43.3594 83.4961-50.5859Q80.3711-57.8125 74.8291-63.3301Q69.2871-68.8477 62.085-71.9482Q54.8828-75.0488 46.6797-75.0488Q38.4766-75.0488 31.2744-71.9482Q24.0723-68.8477 18.5791-63.3301Q13.0859-57.8125 9.96094-50.5859Q6.83594-43.3594 6.83594-35.2051Q6.83594-27.002 9.96094-19.7998Q13.0859-12.5977 18.6035-7.08008Q24.1211-1.5625 31.3232 1.5625Q38.5254 4.6875 46.7285 4.6875Z"/>
   <path class="multicolor-1:white hierarchical-1:primary SFSymbolsPreviewFFFFFF" d="M27.4414-16.5039Q23.584-20.3613 23.9258-24.9756Q24.2676-29.5898 28.7598-34.1309L35.1562-40.4785Q34.7168-38.8672 34.79-37.0361Q34.8633-35.2051 35.4492-33.9844L32.3242-30.9082Q29.2969-27.9297 28.9307-25.0732Q28.5645-22.2168 30.8594-19.9219Q33.1055-17.7246 35.9863-18.1152Q38.8672-18.5059 41.7969-21.3867L46.6309-26.2695Q49.707-29.2969 50.1221-32.1777Q50.5371-35.0586 48.3398-37.3535Q47.7539-37.8906 46.7773-38.3789Q45.8008-38.8672 44.6777-39.1113Q45.1172-40.1855 46.0938-41.3574Q47.0703-42.5293 48.0469-43.2129Q48.7793-43.0176 49.8047-42.334Q50.8301-41.6504 51.6602-40.7227Q55.6152-36.8652 55.2246-32.2266Q54.834-27.5879 50.1953-22.998L45.0684-17.9199Q40.5273-13.3789 35.9131-13.0127Q31.2988-12.6465 27.4414-16.5039ZM64.7461-53.9062Q68.6035-50.0488 68.2617-45.4346Q67.9199-40.8203 63.4277-36.2793L56.9824-29.9316Q57.4707-31.5918 57.373-33.3984Q57.2754-35.2051 56.6895-36.4258L59.8633-39.502Q62.8906-42.4805 63.2324-45.3613Q63.5742-48.2422 61.3281-50.4883Q59.0332-52.7344 56.1768-52.3438Q53.3203-51.9531 50.3418-49.0234L45.5566-44.1406Q42.4805-41.1621 42.0654-38.2812Q41.6504-35.4004 43.8477-33.0566Q44.4336-32.5195 45.4102-32.0557Q46.3867-31.5918 47.5098-31.2988Q47.0703-30.2246 46.0693-29.0771Q45.0684-27.9297 44.1406-27.1973Q43.4082-27.4414 42.3828-28.1006Q41.3574-28.7598 40.5273-29.7363Q36.5723-33.5938 36.9629-38.2324Q37.3535-42.8711 41.9922-47.4609L47.1191-52.5879Q51.6602-57.1289 56.2744-57.4463Q60.8887-57.7637 64.7461-53.9062Z"/>
  </g>
  <g id="Regular-S" transform="matrix(1 0 0 1 1403.58 696)">
   <path class="multicolor-0:systemBlueColor hierarchical-0:tertiary SFSymbolsPreview007AFF" d="M46.2402 4.19922Q54.3457 4.19922 61.4746 1.12305Q68.6035-1.95312 74.0479-7.42188Q79.4922-12.8906 82.5928-20.0195Q85.6934-27.1484 85.6934-35.2051Q85.6934-43.2617 82.5928-50.3906Q79.4922-57.5195 74.0234-62.9883Q68.5547-68.457 61.4258-71.5332Q54.2969-74.6094 46.1914-74.6094Q38.1348-74.6094 31.0059-71.5332Q23.877-68.457 18.457-62.9883Q13.0371-57.5195 9.93652-50.3906Q6.83594-43.2617 6.83594-35.2051Q6.83594-27.1484 9.93652-20.0195Q13.0371-12.8906 18.4814-7.42188Q23.9258-1.95312 31.0547 1.12305Q38.1836 4.19922 46.2402 4.19922Z"/>
   <path class="multicolor-1:white hierarchical-1:primary SFSymbolsPreviewFFFFFF" d="M26.8066-16.3574Q22.9492-20.2148 23.291-24.7803Q23.6328-29.3457 28.125-33.8867L34.7656-40.4785Q34.3262-38.8672 34.375-37.1582Q34.4238-35.4492 34.9609-34.1797L31.543-30.8105Q28.4668-27.7832 28.1006-24.8779Q27.7344-21.9727 30.0781-19.6777Q32.373-17.4316 35.2783-17.8223Q38.1836-18.2129 41.1621-21.1426L46.2402-26.3184Q49.3652-29.3457 49.8047-32.2754Q50.2441-35.2051 47.998-37.5488Q47.4121-38.0859 46.4355-38.5254Q45.459-38.9648 44.1895-39.209Q44.6777-40.332 45.6543-41.4551Q46.6309-42.5781 47.5586-43.2129Q48.291-43.0664 49.3164-42.4072Q50.3418-41.748 51.2207-40.7715Q55.127-36.9141 54.7119-32.3242Q54.2969-27.7344 49.707-23.1445L44.3359-17.7734Q39.7949-13.2324 35.2051-12.8906Q30.6152-12.5488 26.8066-16.3574ZM64.4531-54.1016Q68.3105-50.2441 67.9688-45.6787Q67.627-41.1133 63.1348-36.5723L56.4453-29.9805Q56.9336-31.5918 56.8848-33.3008Q56.8359-35.0098 56.25-36.2793L59.7168-39.6484Q62.793-42.6758 63.1348-45.5811Q63.4766-48.4863 61.1816-50.7812Q58.8867-53.0273 55.9814-52.6367Q53.0762-52.2461 50.0488-49.3164L45.0195-44.1406Q41.8945-41.1133 41.4551-38.1836Q41.0156-35.2539 43.2617-32.9102Q43.8477-32.373 44.8242-31.9336Q45.8008-31.4941 47.0703-31.25Q46.582-30.127 45.5811-29.0039Q44.5801-27.8809 43.7012-27.2461Q42.9688-27.3926 41.9434-28.0518Q40.918-28.7109 40.0391-29.6875Q36.1328-33.5449 36.5479-38.1348Q36.9629-42.7246 41.5527-47.3145L46.9238-52.7344Q51.4648-57.2754 56.0547-57.5928Q60.6445-57.9102 64.4531-54.1016Z"/>
  </g>
  <g id="Light-S" transform="matrix(1 0 0 1 1107.6 696)">
   <path class="multicolor-0:systemBlueColor hierarchical-0:tertiary SFSymbolsPreview007AFF" d="M45.5078 3.4668Q53.4668 3.4668 60.4736 0.463867Q67.4805-2.53906 72.8271-7.91016Q78.1738-13.2812 81.2012-20.2637Q84.2285-27.2461 84.2285-35.2051Q84.2285-43.1641 81.2012-50.1465Q78.1738-57.1289 72.8027-62.5Q67.4316-67.8711 60.4492-70.874Q53.4668-73.877 45.459-73.877Q37.5488-73.877 30.542-70.874Q23.5352-67.8711 18.2129-62.5Q12.8906-57.1289 9.86328-50.1465Q6.83594-43.1641 6.83594-35.2051Q6.83594-27.2461 9.86328-20.2637Q12.8906-13.2812 18.2373-7.91016Q23.584-2.53906 30.5908 0.463867Q37.5977 3.4668 45.5078 3.4668Z"/>
   <path class="multicolor-1:white hierarchical-1:primary SFSymbolsPreviewFFFFFF" d="M26.416-16.8457Q22.8027-20.459 23.0713-24.7559Q23.3398-29.0527 27.4902-33.2031L34.8145-40.4785Q34.3262-39.0137 34.3262-37.5977Q34.3262-36.1816 34.7168-35.1074L30.2246-30.6152Q27.2949-27.7344 27.0264-24.8291Q26.7578-21.9238 29.1504-19.5801Q31.4453-17.2852 34.3506-17.5537Q37.2559-17.8223 40.1367-20.6543L46.2402-26.8555Q49.2188-29.7363 49.5361-32.6904Q49.8535-35.6445 47.5098-37.9883Q46.6797-38.7695 45.6055-39.2578Q44.5312-39.7461 43.1641-39.8926Q43.5059-40.8691 44.3359-41.7969Q45.166-42.7246 45.8984-43.2617Q46.875-43.1152 47.998-42.4316Q49.1211-41.748 50.1953-40.625Q53.8574-37.0117 53.5156-32.6904Q53.1738-28.3691 49.0234-24.2188L42.7246-17.9688Q38.623-13.8184 34.3262-13.5498Q30.0293-13.2812 26.416-16.8457ZM63.2324-53.7109Q66.8945-50.1465 66.6016-45.8496Q66.3086-41.5527 62.207-37.4023L54.834-30.127Q55.3223-31.543 55.3223-32.9834Q55.3223-34.4238 54.8828-35.498L59.4727-39.9902Q62.4023-42.8711 62.6465-45.7764Q62.8906-48.6816 60.5469-51.0254Q58.2031-53.3203 55.2979-53.0273Q52.3926-52.7344 49.5117-49.9023L43.4082-43.7012Q40.4785-40.8203 40.1367-37.8906Q39.7949-34.9609 42.1387-32.6172Q42.9688-31.7871 44.0674-31.2988Q45.166-30.8105 46.5332-30.7129Q46.1426-29.7363 45.3125-28.8086Q44.4824-27.8809 43.75-27.3438Q42.8223-27.4902 41.6748-28.1738Q40.5273-28.8574 39.502-29.9805Q35.8398-33.5449 36.1572-37.8662Q36.4746-42.1875 40.6738-46.3867L46.9238-52.6367Q51.0742-56.7871 55.3711-57.0557Q59.668-57.3242 63.2324-53.7109Z"/>
  </g>
  <g id="Thin-S" transform="matrix(1 0 0 1 811.867 696)">
   <path class="multicolor-0:systemBlueColor hierarchical-0:tertiary SFSymbolsPreview007AFF" d="M44.5312 2.49023Q52.3438 2.49023 59.1553-0.439453Q65.9668-3.36914 71.1914-8.59375Q76.416-13.8184 79.3457-20.6299Q82.2754-27.4414 82.2754-35.2051Q82.2754-42.9688 79.3457-49.7803Q76.416-56.5918 71.1914-61.8164Q65.9668-67.041 59.1553-69.9707Q52.3438-72.9004 44.5312-72.9004Q36.7676-72.9004 29.9316-69.9707Q23.0957-67.041 17.9199-61.8164Q12.7441-56.5918 9.79004-49.7803Q6.83594-42.9688 6.83594-35.2051Q6.83594-27.4414 9.79004-20.6299Q12.7441-13.8184 17.9199-8.59375Q23.0957-3.36914 29.9316-0.439453Q36.7676 2.49023 44.5312 2.49023Z"/>
   <path class="multicolor-1:white hierarchical-1:primary SFSymbolsPreviewFFFFFF" d="M25.9277-17.4805Q22.6074-20.7031 22.8027-24.6338Q22.998-28.5645 26.6113-32.1777L34.8633-40.3809Q34.375-39.209 34.3018-38.1348Q34.2285-37.0605 34.4727-36.2793L28.4668-30.2734Q25.6836-27.5879 25.5615-24.6582Q25.4395-21.7285 27.8809-19.3848Q30.2246-16.9922 33.1299-17.1387Q36.0352-17.2852 38.7695-20.0195L46.2402-27.5391Q49.0234-30.2246 49.1943-33.1787Q49.3652-36.1328 46.9238-38.4766Q45.8008-39.6484 44.5312-40.1855Q43.2617-40.7227 41.7969-40.7227Q42.041-41.5039 42.627-42.1631Q43.2129-42.8223 43.75-43.2129Q44.9707-43.0664 46.2402-42.3584Q47.5098-41.6504 48.8281-40.3809Q52.1484-37.1094 51.9531-33.1543Q51.7578-29.1992 48.0957-25.5371L40.6738-18.1641Q37.0605-14.5996 33.1543-14.3799Q29.248-14.1602 25.9277-17.4805ZM61.6699-53.1738Q64.9902-49.9512 64.7949-45.9961Q64.5996-42.041 60.9863-38.4277L52.7344-30.2246Q53.1738-31.4453 53.2471-32.4951Q53.3203-33.5449 53.125-34.375L59.1309-40.3809Q61.9141-43.0176 62.0117-45.9473Q62.1094-48.877 59.7168-51.2695Q57.373-53.6621 54.4678-53.5156Q51.5625-53.3691 48.8281-50.6348L41.3574-43.1152Q38.5742-40.4297 38.4033-37.4756Q38.2324-34.5215 40.625-32.1777Q41.8457-30.957 43.0908-30.4199Q44.3359-29.8828 45.8008-29.8828Q45.5566-29.1016 44.9707-28.4424Q44.3848-27.7832 43.8477-27.3926Q42.627-27.5391 41.333-28.2471Q40.0391-28.9551 38.7695-30.2734Q35.4492-33.5449 35.6445-37.5Q35.8398-41.4551 39.502-45.0684L46.9238-52.4902Q50.5371-56.0547 54.4434-56.25Q58.3496-56.4453 61.6699-53.1738Z"/>
  </g>
  <g id="Ultralight-S" transform="matrix(1 0 0 1 515.644 696)">
   <path class="multicolor-0:systemBlueColor hierarchical-0:tertiary SFSymbolsPreview007AFF" d="M44.043 2.00195Q51.7578 2.00195 58.4717-0.878906Q65.1855-3.75977 70.3369-8.91113Q75.4883-14.0625 78.3936-20.7764Q81.2988-27.4902 81.2988-35.2051Q81.2988-42.9199 78.3936-49.6338Q75.4883-56.3477 70.3369-61.499Q65.1855-66.6504 58.4717-69.5312Q51.7578-72.4121 44.043-72.4121Q36.377-72.4121 29.6387-69.5312Q22.9004-66.6504 17.7734-61.499Q12.6465-56.3477 9.74121-49.6338Q6.83594-42.9199 6.83594-35.2051Q6.83594-27.4902 9.74121-20.7764Q12.6465-14.0625 17.7734-8.91113Q22.9004-3.75977 29.6387-0.878906Q36.377 2.00195 44.043 2.00195Z"/>
   <path class="multicolor-1:white hierarchical-1:primary SFSymbolsPreviewFFFFFF" d="M25.6348-17.8223Q22.5098-20.8984 22.6562-24.6582Q22.8027-28.418 26.1719-31.7383L34.8633-40.3809Q34.375-39.3066 34.2773-38.4521Q34.1797-37.5977 34.2773-36.9141L27.5391-30.127Q24.9023-27.5391 24.8291-24.6338Q24.7559-21.7285 27.2461-19.3359Q29.541-16.8945 32.4707-16.9678Q35.4004-17.041 38.0371-19.6777L46.2402-27.9297Q48.9258-30.4688 48.999-33.4473Q49.0723-36.4258 46.582-38.7695Q45.2637-40.1367 43.9453-40.7227Q42.627-41.3086 41.0645-41.2109Q41.2109-41.8945 41.6992-42.4316Q42.1875-42.9688 42.627-43.2617Q43.9941-43.1152 45.3369-42.3828Q46.6797-41.6504 48.1445-40.2832Q51.2695-37.207 51.123-33.4229Q50.9766-29.6387 47.6074-26.2695L39.5508-18.3105Q36.2793-14.9902 32.5684-14.8438Q28.8574-14.6973 25.6348-17.8223ZM60.8398-52.9297Q64.0137-49.9023 63.8428-46.1182Q63.6719-42.334 60.3027-39.0137L51.6602-30.3711Q52.0996-31.3965 52.1973-32.2754Q52.2949-33.1543 52.1973-33.8379L58.9355-40.625Q61.6211-43.1641 61.6699-46.0938Q61.7188-49.0234 59.2773-51.416Q56.8848-53.8574 53.9795-53.7842Q51.0742-53.7109 48.4863-51.0254L40.2344-42.8223Q37.5977-40.2344 37.5-37.3047Q37.4023-34.375 39.8438-32.0312Q41.2109-30.6152 42.5537-30.0293Q43.8965-29.4434 45.459-29.541Q45.2637-28.8574 44.7998-28.3203Q44.3359-27.7832 43.8965-27.4902Q42.5293-27.6367 41.1621-28.3691Q39.7949-29.1016 38.3789-30.4688Q35.2051-33.5449 35.3516-37.3291Q35.498-41.1133 38.8672-44.4824L46.9238-52.4414Q50.2441-55.7617 53.9551-55.9082Q57.666-56.0547 60.8398-52.9297Z"/>
  </g>
 </g>
</svg>
