<?xml version="1.0" encoding="UTF-8"?>
<!--Generator: Apple Native CoreSVG 149-->
<!DOCTYPE svg
PUBLIC "-//W3C//DTD SVG 1.1//EN"
       "http://www.w3.org/Graphics/SVG/1.1/DTD/svg11.dtd">
<svg version="1.1" xmlns="http://www.w3.org/2000/svg" xmlns:xlink="http://www.w3.org/1999/xlink" width="3300" height="2200">
 <!--glyph: "uni1004A0.medium", point size: 100.000000, font version: "Version 16.0d18e1", template writer version: "8"-->
 <g id="Notes">
  <rect height="2200" id="artboard" style="fill:white;opacity:1" width="3300" x="0" y="0"/>
  <line id="" style="fill:none;stroke:black;opacity:1;stroke-width:0.5;" x1="263" x2="3036" y1="292" y2="292"/>
  <text style="stroke:none;fill:black;font-family:-apple-system,&quot;SF Pro Display&quot;,&quot;SF Pro Text&quot;,Helvetica,sans-serif;font-weight:bold;" transform="matrix(1 0 0 1 263 322)">Weight/Scale Variations</text>
  <text style="stroke:none;fill:black;font-family:-apple-system,&quot;SF Pro Display&quot;,&quot;SF Pro Text&quot;,Helvetica,sans-serif;text-anchor:middle;" transform="matrix(1 0 0 1 559.711 322)">Ultralight</text>
  <text style="stroke:none;fill:black;font-family:-apple-system,&quot;SF Pro Display&quot;,&quot;SF Pro Text&quot;,Helvetica,sans-serif;text-anchor:middle;" transform="matrix(1 0 0 1 856.422 322)">Thin</text>
  <text style="stroke:none;fill:black;font-family:-apple-system,&quot;SF Pro Display&quot;,&quot;SF Pro Text&quot;,Helvetica,sans-serif;text-anchor:middle;" transform="matrix(1 0 0 1 1153.13 322)">Light</text>
  <text style="stroke:none;fill:black;font-family:-apple-system,&quot;SF Pro Display&quot;,&quot;SF Pro Text&quot;,Helvetica,sans-serif;text-anchor:middle;" transform="matrix(1 0 0 1 1449.84 322)">Regular</text>
  <text style="stroke:none;fill:black;font-family:-apple-system,&quot;SF Pro Display&quot;,&quot;SF Pro Text&quot;,Helvetica,sans-serif;text-anchor:middle;" transform="matrix(1 0 0 1 1746.56 322)">Medium</text>
  <text style="stroke:none;fill:black;font-family:-apple-system,&quot;SF Pro Display&quot;,&quot;SF Pro Text&quot;,Helvetica,sans-serif;text-anchor:middle;" transform="matrix(1 0 0 1 2043.27 322)">Semibold</text>
  <text style="stroke:none;fill:black;font-family:-apple-system,&quot;SF Pro Display&quot;,&quot;SF Pro Text&quot;,Helvetica,sans-serif;text-anchor:middle;" transform="matrix(1 0 0 1 2339.98 322)">Bold</text>
  <text style="stroke:none;fill:black;font-family:-apple-system,&quot;SF Pro Display&quot;,&quot;SF Pro Text&quot;,Helvetica,sans-serif;text-anchor:middle;" transform="matrix(1 0 0 1 2636.69 322)">Heavy</text>
  <text style="stroke:none;fill:black;font-family:-apple-system,&quot;SF Pro Display&quot;,&quot;SF Pro Text&quot;,Helvetica,sans-serif;text-anchor:middle;" transform="matrix(1 0 0 1 2933.4 322)">Black</text>
  <line id="" style="fill:none;stroke:black;opacity:1;stroke-width:0.5;" x1="263" x2="3036" y1="1903" y2="1903"/>
  <g id="" transform="matrix(1 0 0 1 263 1933)">
   <path d="M9.24805 0.830078C13.5547 0.830078 17.1387-2.74414 17.1387-7.05078C17.1387-11.3574 13.5449-14.9316 9.23828-14.9316C4.94141-14.9316 1.36719-11.3574 1.36719-7.05078C1.36719-2.74414 4.95117 0.830078 9.24805 0.830078ZM9.24805-0.654297C5.70312-0.654297 2.87109-3.49609 2.87109-7.05078C2.87109-10.6055 5.69336-13.4473 9.23828-13.4473C12.793-13.4473 15.6348-10.6055 15.6445-7.05078C15.6543-3.49609 12.8027-0.654297 9.24805-0.654297ZM6.39648-6.31836L8.50586-6.31836L8.50586-4.19922C8.50586-3.75977 8.79883-3.45703 9.22852-3.45703C9.67773-3.45703 9.9707-3.75977 9.9707-4.19922L9.9707-6.31836L12.0996-6.31836C12.5391-6.31836 12.8418-6.61133 12.8418-7.04102C12.8418-7.48047 12.5391-7.7832 12.0996-7.7832L9.9707-7.7832L9.9707-9.89258C9.9707-10.3418 9.67773-10.6445 9.22852-10.6445C8.79883-10.6445 8.50586-10.3418 8.50586-9.89258L8.50586-7.7832L6.39648-7.7832C5.94727-7.7832 5.64453-7.48047 5.64453-7.04102C5.64453-6.61133 5.94727-6.31836 6.39648-6.31836Z"/>
  </g>
  <g id="" transform="matrix(1 0 0 1 281.506 1933)">
   <path d="M11.709 2.91016C17.1582 2.91016 21.6699-1.61133 21.6699-7.05078C21.6699-12.5 17.1484-17.0117 11.6992-17.0117C6.25977-17.0117 1.74805-12.5 1.74805-7.05078C1.74805-1.61133 6.26953 2.91016 11.709 2.91016ZM11.709 1.25C7.09961 1.25 3.41797-2.44141 3.41797-7.05078C3.41797-11.6602 7.08984-15.3516 11.6992-15.3516C16.3086-15.3516 20-11.6602 20.0098-7.05078C20.0195-2.44141 16.3184 1.25 11.709 1.25ZM7.98828-6.23047L10.8789-6.23047L10.8789-3.32031C10.8789-2.83203 11.2109-2.5 11.6895-2.5C12.1777-2.5 12.5195-2.83203 12.5195-3.32031L12.5195-6.23047L15.4297-6.23047C15.918-6.23047 16.25-6.5625 16.25-7.04102C16.25-7.5293 15.918-7.87109 15.4297-7.87109L12.5195-7.87109L12.5195-10.7617C12.5195-11.2695 12.1777-11.6016 11.6895-11.6016C11.2109-11.6016 10.8789-11.2598 10.8789-10.7617L10.8789-7.87109L7.98828-7.87109C7.48047-7.87109 7.14844-7.5293 7.14844-7.04102C7.14844-6.5625 7.49023-6.23047 7.98828-6.23047Z"/>
  </g>
  <g id="" transform="matrix(1 0 0 1 304.924 1933)">
   <path d="M14.9707 5.66406C21.9336 5.66406 27.6953-0.0976562 27.6953-7.05078C27.6953-14.0137 21.9238-19.7754 14.9609-19.7754C8.00781-19.7754 2.25586-14.0137 2.25586-7.05078C2.25586-0.0976562 8.01758 5.66406 14.9707 5.66406ZM14.9707 3.84766C8.93555 3.84766 4.08203-1.01562 4.08203-7.05078C4.08203-13.0957 8.92578-17.9492 14.9609-17.9492C21.0059-17.9492 25.8594-13.0957 25.8691-7.05078C25.8789-1.01562 21.0156 3.84766 14.9707 3.84766ZM10.0586-6.14258L14.0625-6.14258L14.0625-2.12891C14.0625-1.5918 14.4336-1.2207 14.9512-1.2207C15.4883-1.2207 15.8594-1.5918 15.8594-2.12891L15.8594-6.14258L19.8828-6.14258C20.4102-6.14258 20.791-6.51367 20.791-7.03125C20.791-7.56836 20.4199-7.94922 19.8828-7.94922L15.8594-7.94922L15.8594-11.9531C15.8594-12.5098 15.4883-12.8809 14.9512-12.8809C14.4336-12.8809 14.0625-12.5 14.0625-11.9531L14.0625-7.94922L10.0586-7.94922C9.50195-7.94922 9.13086-7.56836 9.13086-7.03125C9.13086-6.51367 9.51172-6.14258 10.0586-6.14258Z"/>
  </g>
  <text style="stroke:none;fill:black;font-family:-apple-system,&quot;SF Pro Display&quot;,&quot;SF Pro Text&quot;,Helvetica,sans-serif;font-weight:bold;" transform="matrix(1 0 0 1 263 1953)">Design Variations</text>
  <text style="stroke:none;fill:black;font-family:-apple-system,&quot;SF Pro Display&quot;,&quot;SF Pro Text&quot;,Helvetica,sans-serif;" transform="matrix(1 0 0 1 263 1971)">Symbols are supported in up to nine weights and three scales.</text>
  <text style="stroke:none;fill:black;font-family:-apple-system,&quot;SF Pro Display&quot;,&quot;SF Pro Text&quot;,Helvetica,sans-serif;" transform="matrix(1 0 0 1 263 1989)">For optimal layout with text and other symbols, vertically align</text>
  <text style="stroke:none;fill:black;font-family:-apple-system,&quot;SF Pro Display&quot;,&quot;SF Pro Text&quot;,Helvetica,sans-serif;" transform="matrix(1 0 0 1 263 2007)">symbols with the adjacent text.</text>
  <line id="" style="fill:none;stroke:#00AEEF;stroke-width:0.5;opacity:1.0;" x1="776" x2="776" y1="1919" y2="1933"/>
  <g id="" transform="matrix(1 0 0 1 776 1933)">
   <path d="M3.31055 0.126953C3.82812 0.126953 4.08203-0.0683594 4.26758-0.605469L5.52734-4.0625L11.2891-4.0625L12.5488-0.605469C12.7344-0.0683594 12.9883 0.126953 13.4961 0.126953C14.0137 0.126953 14.3457-0.185547 14.3457-0.673828C14.3457-0.839844 14.3164-0.986328 14.2383-1.20117L9.6582-13.3887C9.43359-13.9941 9.0332-14.2871 8.4082-14.2871C7.80273-14.2871 7.39258-13.9941 7.17773-13.3984L2.59766-1.19141C2.51953-0.976562 2.49023-0.830078 2.49023-0.664062C2.49023-0.175781 2.80273 0.126953 3.31055 0.126953ZM6.00586-5.53711L8.37891-12.1094L8.42773-12.1094L10.8008-5.53711Z"/>
  </g>
  <line id="" style="fill:none;stroke:#00AEEF;stroke-width:0.5;opacity:1.0;" x1="792.836" x2="792.836" y1="1919" y2="1933"/>
  <text style="stroke:none;fill:black;font-family:-apple-system,&quot;SF Pro Display&quot;,&quot;SF Pro Text&quot;,Helvetica,sans-serif;font-weight:bold;" transform="matrix(1 0 0 1 776 1953)">Margins</text>
  <text style="stroke:none;fill:black;font-family:-apple-system,&quot;SF Pro Display&quot;,&quot;SF Pro Text&quot;,Helvetica,sans-serif;" transform="matrix(1 0 0 1 776 1971)">Leading and trailing margins on the left and right side of each symbol</text>
  <text style="stroke:none;fill:black;font-family:-apple-system,&quot;SF Pro Display&quot;,&quot;SF Pro Text&quot;,Helvetica,sans-serif;" transform="matrix(1 0 0 1 776 1989)">can be adjusted by modifying the x-location of the margin guidelines.</text>
  <text style="stroke:none;fill:black;font-family:-apple-system,&quot;SF Pro Display&quot;,&quot;SF Pro Text&quot;,Helvetica,sans-serif;" transform="matrix(1 0 0 1 776 2007)">Modifications are automatically applied proportionally to all</text>
  <text style="stroke:none;fill:black;font-family:-apple-system,&quot;SF Pro Display&quot;,&quot;SF Pro Text&quot;,Helvetica,sans-serif;" transform="matrix(1 0 0 1 776 2025)">scales and weights.</text>
  <g id="" transform="matrix(1 0 0 1 1289 1933)">
   <path d="M2.8418 1.86523L4.54102 3.57422C5.40039 4.44336 6.38672 4.38477 7.31445 3.35938L17.4902-7.85156C17.7539-7.76367 18.0273-7.7832 18.3398-7.8418L19.4043-8.03711L20.0684-7.36328L20.0293-6.80664C19.9902-6.30859 20.1172-5.92773 20.6055-5.44922L21.3672-4.70703C21.8457-4.22852 22.4609-4.19922 22.9297-4.66797L25.8398-7.58789C26.3086-8.05664 26.2891-8.65234 25.8105-9.13086L25.0391-9.89258C24.5605-10.3711 24.1895-10.5273 23.7109-10.4883L23.1348-10.4395L22.4902-11.0742L22.7344-12.1973C22.8613-12.7637 22.7051-13.2031 22.1191-13.7891L19.9219-15.9766C16.582-19.2969 12.1484-19.2188 9.25781-16.3281C8.83789-15.918 8.80859-15.3418 9.04297-14.9512C9.27734-14.5898 9.73633-14.3555 10.3809-14.5215C11.8457-14.8633 13.3691-14.9219 14.7949-13.9844L14.209-12.5293C14.0137-12.0508 13.9844-11.6504 14.1113-11.2891L3.04688-0.898438C2.06055 0.0195312 1.98242 0.996094 2.8418 1.86523ZM10.752-15.957C13.1836-17.7344 16.4746-17.4316 18.7012-15.2051L21.1328-12.793C21.3672-12.5586 21.4062-12.373 21.3379-12.0312L21.0156-10.5469L22.5195-9.0625L23.5059-9.12109C23.7598-9.13086 23.8379-9.11133 24.0332-8.91602L24.6094-8.33984L22.168-5.89844L21.5918-6.47461C21.3965-6.66992 21.3672-6.74805 21.377-7.01172L21.4453-7.98828L19.9512-9.47266L18.4277-9.21875C18.1055-9.15039 17.959-9.17969 17.7148-9.41406L15.7129-11.416C15.459-11.6504 15.4297-11.8164 15.5859-12.1875L16.4648-14.2773C14.9023-15.7324 12.8711-16.3574 10.8398-15.7617C10.6836-15.7227 10.625-15.8496 10.752-15.957ZM5.27344 2.30469L4.10156 1.14258C3.63281 0.683594 3.74023 0.341797 4.14062-0.0195312L14.9512-10.1953L16.416-8.71094L6.42578 2.27539C6.07422 2.67578 5.74219 2.77344 5.27344 2.30469Z"/>
  </g>
  <text style="stroke:none;fill:black;font-family:-apple-system,&quot;SF Pro Display&quot;,&quot;SF Pro Text&quot;,Helvetica,sans-serif;font-weight:bold;" transform="matrix(1 0 0 1 1289 1953)">Exporting</text>
  <text style="stroke:none;fill:black;font-family:-apple-system,&quot;SF Pro Display&quot;,&quot;SF Pro Text&quot;,Helvetica,sans-serif;" transform="matrix(1 0 0 1 1289 1971)">Symbols should be outlined when exporting to ensure the</text>
  <text style="stroke:none;fill:black;font-family:-apple-system,&quot;SF Pro Display&quot;,&quot;SF Pro Text&quot;,Helvetica,sans-serif;" transform="matrix(1 0 0 1 1289 1989)">design is preserved when submitting to Xcode.</text>
  <text id="template-version" style="stroke:none;fill:black;font-family:-apple-system,&quot;SF Pro Display&quot;,&quot;SF Pro Text&quot;,Helvetica,sans-serif;text-anchor:end;" transform="matrix(1 0 0 1 3036 1933)">Template v.2.0</text>
  <text style="stroke:none;fill:black;font-family:-apple-system,&quot;SF Pro Display&quot;,&quot;SF Pro Text&quot;,Helvetica,sans-serif;text-anchor:end;" transform="matrix(1 0 0 1 3036 1951)">Requires Xcode 12 or greater</text>
  <text style="stroke:none;fill:black;font-family:-apple-system,&quot;SF Pro Display&quot;,&quot;SF Pro Text&quot;,Helvetica,sans-serif;text-anchor:end;" transform="matrix(1 0 0 1 3036 1969)">Generated from link.circle</text>
  <text style="stroke:none;fill:black;font-family:-apple-system,&quot;SF Pro Display&quot;,&quot;SF Pro Text&quot;,Helvetica,sans-serif;text-anchor:end;" transform="matrix(1 0 0 1 3036 1987)">Typeset at 100 points</text>
  <text style="stroke:none;fill:black;font-family:-apple-system,&quot;SF Pro Display&quot;,&quot;SF Pro Text&quot;,Helvetica,sans-serif;" transform="matrix(1 0 0 1 263 726)">Small</text>
  <text style="stroke:none;fill:black;font-family:-apple-system,&quot;SF Pro Display&quot;,&quot;SF Pro Text&quot;,Helvetica,sans-serif;" transform="matrix(1 0 0 1 263 1156)">Medium</text>
  <text style="stroke:none;fill:black;font-family:-apple-system,&quot;SF Pro Display&quot;,&quot;SF Pro Text&quot;,Helvetica,sans-serif;" transform="matrix(1 0 0 1 263 1586)">Large</text>
 </g>
 <g id="Guides">
  <g id="H-reference" style="fill:#27AAE1;stroke:none;" transform="matrix(1 0 0 1 339 696)">
   <path d="M0.976562 0L3.66211 0L12.9883-24.4629L45.752-24.4629L55.127 0L57.7637 0L30.6152-70.459L28.125-70.459ZM29.3457-67.1387L29.4434-67.1387L44.873-26.709L13.8672-26.709Z"/>
  </g>
  <line id="Baseline-S" style="fill:none;stroke:#27AAE1;opacity:1;stroke-width:0.5;" x1="263" x2="3036" y1="696" y2="696"/>
  <line id="Capline-S" style="fill:none;stroke:#27AAE1;opacity:1;stroke-width:0.5;" x1="263" x2="3036" y1="625.541" y2="625.541"/>
  <g id="H-reference" style="fill:#27AAE1;stroke:none;" transform="matrix(1 0 0 1 339 1126)">
   <path d="M0.976562 0L3.66211 0L12.9883-24.4629L45.752-24.4629L55.127 0L57.7637 0L30.6152-70.459L28.125-70.459ZM29.3457-67.1387L29.4434-67.1387L44.873-26.709L13.8672-26.709Z"/>
  </g>
  <line id="Baseline-M" style="fill:none;stroke:#27AAE1;opacity:1;stroke-width:0.5;" x1="263" x2="3036" y1="1126" y2="1126"/>
  <line id="Capline-M" style="fill:none;stroke:#27AAE1;opacity:1;stroke-width:0.5;" x1="263" x2="3036" y1="1055.54" y2="1055.54"/>
  <g id="H-reference" style="fill:#27AAE1;stroke:none;" transform="matrix(1 0 0 1 339 1556)">
   <path d="M0.976562 0L3.66211 0L12.9883-24.4629L45.752-24.4629L55.127 0L57.7637 0L30.6152-70.459L28.125-70.459ZM29.3457-67.1387L29.4434-67.1387L44.873-26.709L13.8672-26.709Z"/>
  </g>
  <line id="Baseline-L" style="fill:none;stroke:#27AAE1;opacity:1;stroke-width:0.5;" x1="263" x2="3036" y1="1556" y2="1556"/>
  <line id="Capline-L" style="fill:none;stroke:#27AAE1;opacity:1;stroke-width:0.5;" x1="263" x2="3036" y1="1485.54" y2="1485.54"/>
  <line id="left-margin" style="fill:none;stroke:#00AEEF;stroke-width:0.5;opacity:1.0;" x1="1391.3" x2="1391.3" y1="1030.79" y2="1150.12"/>
  <line id="right-margin" style="fill:none;stroke:#00AEEF;stroke-width:0.5;opacity:1.0;" x1="1508.39" x2="1508.39" y1="1030.79" y2="1150.12"/>
 </g>
 <g id="Symbols">
  <g id="Black-L" transform="matrix(1 0 0 1 2854.05 1556)">
   <path d="M79.3457 32.8613C116.748 32.8613 147.412 2.19727 147.412-35.2051C147.412-72.6074 116.748-103.271 79.2969-103.271C41.8945-103.271 11.2793-72.6074 11.2793-35.2051C11.2793 2.19727 41.9434 32.8613 79.3457 32.8613ZM79.3457 12.4023C52.9785 12.4023 31.7383-8.83789 31.7383-35.2051C31.7383-61.5723 52.9297-82.8125 79.2969-82.8125C105.664-82.8125 126.953-61.5723 126.953-35.2051C127.002-8.83789 105.713 12.4023 79.3457 12.4023ZM106.055-63.2812C97.9004-71.4355 87.7441-70.5078 78.3203-61.2793L71.6309-54.7363C62.0117-45.3613 61.377-34.8145 69.5801-26.9043C71.2891-25.2441 73.4863-23.584 74.9512-22.7539C77.0996-24.5117 79.5898-27.6367 80.3223-29.5898C78.8086-30.1758 76.5625-31.6406 75.4395-32.7148C70.9961-37.207 71.7285-43.1152 77.6367-49.0234L83.8867-55.1758C89.8438-60.9863 95.6543-61.8164 100.146-57.4219C104.639-53.0273 103.906-46.9727 97.9492-41.1621L94.5801-37.8418C95.8496-35.791 96.3379-30.3711 95.4102-26.9043L104.053-35.498C113.428-44.873 114.16-55.1758 106.055-63.2812ZM50.293-7.03125C58.3984 1.07422 68.5547 0.195312 78.0273-9.08203L84.7168-15.5762C94.3359-24.9512 94.9707-35.498 86.7676-43.457C85.0586-45.1172 82.8613-46.7285 81.3965-47.5586C79.248-45.8496 76.7578-42.7246 76.0254-40.7715C77.5391-40.1367 79.7852-38.7207 80.9082-37.5977C85.3516-33.1055 84.6191-27.1973 78.6621-21.3379L72.4609-15.1367C66.5039-9.32617 60.6934-8.49609 56.2012-12.8906C51.709-17.334 52.4414-23.3398 58.3496-29.1504L61.7676-32.4707C60.498-34.5215 60.0098-39.9414 60.9375-43.4082L52.2949-34.8145C42.9199-25.4395 42.1875-15.1367 50.293-7.03125Z"/>
  </g>
  <g id="Heavy-L" transform="matrix(1 0 0 1 2558.39 1556)">
   <path d="M78.2715 31.7871C115.088 31.7871 145.312 1.5625 145.312-35.2051C145.312-72.0215 115.039-102.246 78.2715-102.246C41.4551-102.246 11.2793-72.0215 11.2793-35.2051C11.2793 1.5625 41.5039 31.7871 78.2715 31.7871ZM78.2715 14.0137C51.0254 14.0137 29.0527-7.95898 29.0527-35.2051C29.0527-62.5 50.9766-84.4727 78.2715-84.4727C105.518-84.4727 127.49-62.5 127.539-35.2051C127.539-7.95898 105.566 14.0137 78.2715 14.0137ZM105.371-63.6719C97.3633-71.6797 87.3535-70.8496 78.0762-61.7188L70.5078-54.2969C61.084-45.0684 60.4492-34.7168 68.5547-26.8555C70.3613-25 72.6562-23.4375 74.2676-22.7051C76.3184-24.3164 78.6621-27.1973 79.3945-29.1504C77.5391-29.6875 75.293-31.0059 73.9746-32.3242C69.3848-36.9141 70.1172-43.0176 76.123-48.9746L83.3008-56.0547C89.2578-61.9629 95.2637-62.6953 99.8535-58.2031C104.492-53.6133 103.809-47.4609 97.8027-41.6016L93.457-37.2559C94.5801-35.2051 95.0195-30.2734 94.043-26.9531L103.467-36.3281C112.646-45.5566 113.379-55.6641 105.371-63.6719ZM48.8281-6.73828C56.8848 1.26953 66.8945 0.439453 76.1719-8.69141L83.6914-16.1133C93.1152-25.3418 93.7988-35.6934 85.6934-43.5547C83.8379-45.4102 81.543-46.9727 79.9316-47.7051C77.8809-46.0938 75.5859-43.2129 74.8047-41.2598C76.6602-40.7227 78.9551-39.4043 80.2246-38.0859C84.8145-33.4961 84.1309-27.3926 78.0762-21.4355L70.9473-14.3555C64.9414-8.44727 58.9844-7.71484 54.3457-12.207C49.707-16.7969 50.3906-22.9492 56.3965-28.8086L60.791-33.1543C59.6191-35.2051 59.2285-40.1367 60.1562-43.457L50.7812-34.082C41.5527-24.8535 40.8203-14.7461 48.8281-6.73828Z"/>
  </g>
  <g id="Bold-L" transform="matrix(1 0 0 1 2262.88 1556)">
   <path d="M77.0996 30.5664C113.232 30.5664 142.92 0.878906 142.92-35.2539C142.92-71.3379 113.184-101.074 77.0508-101.074C40.9668-101.074 11.2793-71.3379 11.2793-35.2539C11.2793 0.878906 41.0156 30.5664 77.0996 30.5664ZM77.0996 15.8203C48.8281 15.8203 26.0742-6.98242 26.0742-35.2539C26.0742-63.5254 48.7793-86.2793 77.0508-86.2793C105.371-86.2793 128.125-63.5254 128.174-35.2539C128.174-6.98242 105.371 15.8203 77.0996 15.8203ZM104.59-64.1113C96.7285-71.9727 86.8652-71.2402 77.7832-62.207L69.2871-53.8086C60.0586-44.7266 59.375-34.6191 67.334-26.8555C69.3848-24.8047 71.7773-23.2422 73.5352-22.6562C75.4395-24.0723 77.5879-26.709 78.3691-28.6621C76.123-29.1504 73.8281-30.3711 72.3633-31.8359C67.627-36.5723 68.3105-42.8711 74.4141-48.9258L82.6172-57.0801C88.623-63.0371 94.8242-63.7207 99.5605-59.0332C104.346-54.3457 103.76-47.998 97.6562-42.0898L92.1875-36.6211C93.2129-34.5215 93.5059-30.1758 92.4805-27.002L102.783-37.207C111.816-46.2891 112.549-56.2012 104.59-64.1113ZM47.2168-6.39648C55.127 1.46484 64.9902 0.732422 74.0723-8.30078L82.5684-16.6504C91.7969-25.7812 92.4805-35.8398 84.4727-43.6523C82.4707-45.7031 80.0781-47.2656 78.3203-47.8516C76.416-46.3867 74.2188-43.7988 73.4375-41.8457C75.6836-41.3574 78.0273-40.1367 79.4922-38.6719C84.2285-33.9355 83.5449-27.6367 77.3926-21.582L69.2383-13.4277C63.2324-7.4707 57.0312-6.78711 52.2461-11.4746C47.5098-16.1621 48.0957-22.5098 54.1992-28.418L59.668-33.8867C58.6426-35.9863 58.3496-40.332 59.3262-43.5059L49.0234-33.3008C39.9902-24.2188 39.3066-14.3066 47.2168-6.39648Z"/>
  </g>
  <g id="Semibold-L" transform="matrix(1 0 0 1 1966.97 1556)">
   <path d="M76.2695 29.7363C111.914 29.7363 141.309 0.390625 141.309-35.2539C141.309-70.8984 111.865-100.244 76.2695-100.244C40.625-100.244 11.2793-70.8984 11.2793-35.2539C11.2793 0.390625 40.6738 29.7363 76.2695 29.7363ZM76.2695 17.041C47.3145 17.041 24.0234-6.25 24.0234-35.2539C24.0234-64.209 47.2656-87.5488 76.2695-87.5488C105.225-87.5488 128.564-64.209 128.613-35.2539C128.662-6.25 105.273 17.041 76.2695 17.041ZM104.102-64.4043C96.2891-72.168 86.5234-71.4844 77.5879-62.5488L68.4082-53.5156C59.3262-44.4824 58.6426-34.5703 66.5527-26.8066C68.7012-24.6094 71.1426-23.0957 73.0469-22.6074C74.8047-23.9258 76.9043-26.3672 77.6855-28.3691C75.1465-28.7598 72.8516-29.8828 71.2402-31.4941C66.4062-36.377 67.0898-42.7734 73.2422-48.877L82.1289-57.7637C88.1836-63.7695 94.4824-64.4043 99.3652-59.6191C104.199-54.834 103.711-48.3887 97.5098-42.3828L91.3086-36.1816C92.2363-34.0332 92.4316-30.127 91.4551-27.002L102.344-37.8418C111.279-46.7773 111.914-56.5918 104.102-64.4043ZM46.0938-6.15234C53.9062 1.61133 63.6719 0.878906 72.6074-8.00781L81.7871-17.041C90.8691-26.0742 91.5527-35.9863 83.6426-43.75C81.4941-45.9473 79.0527-47.4609 77.1973-47.9492C75.3906-46.6309 73.291-44.2383 72.5098-42.2363C75.0488-41.7969 77.3438-40.6738 78.9551-39.0625C83.7891-34.2285 83.1543-27.7832 76.9531-21.6797L68.0664-12.793C62.0117-6.83594 55.7129-6.15234 50.8301-10.9375C45.9961-15.7227 46.5332-22.2168 52.6855-28.1738L58.8867-34.375C57.959-36.5234 57.7637-40.4785 58.7402-43.5547L47.8516-32.7637C38.9648-23.7793 38.2812-13.9648 46.0938-6.15234Z"/>
  </g>
  <g id="Medium-L" transform="matrix(1 0 0 1 1670.87 1556)">
   <path d="M75.6836 29.1504C110.938 29.1504 140.088 0 140.088-35.2539C140.088-70.5078 110.889-99.6582 75.6348-99.6582C40.3809-99.6582 11.2793-70.5078 11.2793-35.2539C11.2793 0 40.3809 29.1504 75.6836 29.1504ZM75.6836 18.0176C46.1426 18.0176 22.4609-5.76172 22.4609-35.2539C22.4609-64.7461 46.1426-88.5254 75.6348-88.5254C105.127-88.5254 128.906-64.7461 128.906-35.2539C128.955-5.76172 105.176 18.0176 75.6836 18.0176ZM103.711-64.5996C95.9473-72.3145 86.2793-71.6797 77.4414-62.8418L67.7734-53.2715C58.7891-44.3359 58.1055-34.5215 65.918-26.8066C68.1641-24.5117 70.6543-22.998 72.6562-22.6074C74.3164-23.8281 76.3672-26.0742 77.1484-28.125C74.4141-28.4668 72.0703-29.541 70.3613-31.25C65.4785-36.1816 66.1133-42.7246 72.3633-48.8281L81.7871-58.3008C87.8418-64.3066 94.2871-64.9414 99.2188-60.0586C104.15-55.1758 103.662-48.6328 97.4609-42.6758L90.625-35.8887C91.5527-33.6914 91.6504-30.0781 90.625-27.0508L102.002-38.2812C110.84-47.168 111.475-56.8848 103.711-64.5996ZM45.2637-6.00586C52.9785 1.70898 62.6465 1.02539 71.5332-7.8125L81.2012-17.3828C90.1855-26.3184 90.8691-36.084 83.0566-43.7988C80.8105-46.0938 78.3203-47.6074 76.3184-48.0469C74.6094-46.7773 72.6074-44.5312 71.7773-42.5293C74.5117-42.1387 76.8555-41.0645 78.5645-39.3555C83.4961-34.4238 82.8125-27.8809 76.6113-21.7773L67.1875-12.3535C61.1328-6.29883 54.6875-5.66406 49.7559-10.5469C44.8242-15.4297 45.3613-21.9727 51.5137-27.9785L58.3008-34.7656C57.4219-36.9141 57.3242-40.5762 58.3008-43.6035L46.9727-32.3242C38.1348-23.4863 37.4512-13.7207 45.2637-6.00586Z"/>
  </g>
  <g id="Regular-L" transform="matrix(1 0 0 1 1374.97 1556)">
   <path d="M74.8535 28.3203C109.668 28.3203 138.477-0.488281 138.477-35.2539C138.477-70.0684 109.619-98.877 74.8047-98.877C40.0391-98.877 11.2793-70.0684 11.2793-35.2539C11.2793-0.488281 40.0879 28.3203 74.8535 28.3203ZM74.8535 19.2383C44.6777 19.2383 20.4102-5.07812 20.4102-35.2539C20.4102-65.4785 44.6289-89.7461 74.8047-89.7461C105.029-89.7461 129.297-65.4785 129.346-35.2539C129.395-5.07812 105.078 19.2383 74.8535 19.2383ZM103.174-64.8926C95.5078-72.5098 85.9863-71.9238 77.2461-63.1836L66.9434-52.9297C58.0566-44.0918 57.373-34.4727 65.1367-26.8066C67.4805-24.3652 70.0195-22.8516 72.1191-22.5586C73.7305-23.6816 75.6348-25.7324 76.4648-27.7832C73.4863-28.0762 71.0938-29.1016 69.2871-30.957C64.2578-35.9375 64.8926-42.627 71.1914-48.8281L81.2988-58.9355C87.4023-65.0391 93.9453-65.625 98.9746-60.6445C104.053-55.6641 103.564-49.0234 97.3145-42.9688L89.7949-35.4492C90.5762-33.2031 90.625-29.9805 89.5996-27.0508L101.514-38.916C110.254-47.6562 110.889-57.2266 103.174-64.8926ZM44.1406-5.76172C51.8066 1.80664 61.377 1.2207 70.1172-7.51953L80.4199-17.7734C89.2578-26.5625 89.9414-36.2305 82.2266-43.8965C79.834-46.3379 77.2949-47.8027 75.1953-48.1445C73.6328-46.9727 71.7285-44.9219 70.8496-42.8711C73.877-42.627 76.2207-41.6016 78.0762-39.7461C83.1055-34.7168 82.4219-28.0273 76.123-21.875L66.0156-11.7188C59.9609-5.66406 53.3691-5.07812 48.3398-10.0098C43.3105-14.9902 43.7988-21.6797 50-27.6855L57.5684-35.2539C56.7383-37.4512 56.6895-40.6738 57.7637-43.6523L45.8008-31.7871C37.0605-23.0469 36.4258-13.4277 44.1406-5.76172Z"/>
  </g>
  <g id="Light-L" transform="matrix(1 0 0 1 1079.18 1556)">
   <path d="M73.9258 27.3926C108.301 27.3926 136.621-0.927734 136.621-35.2539C136.621-69.6289 108.252-97.9492 73.9258-97.9492C39.5508-97.9492 11.2793-69.6289 11.2793-35.2539C11.2793-0.927734 39.5996 27.3926 73.9258 27.3926ZM73.9258 20.5078C43.1152 20.5078 18.2129-4.44336 18.2129-35.2539C18.2129-66.1133 43.0664-91.0156 73.9258-91.0156C104.736-91.0156 129.688-66.1133 129.736-35.2539C129.736-4.44336 104.785 20.5078 73.9258 20.5078ZM101.953-64.6484C94.5801-71.9238 85.4004-71.3867 77.2461-63.2812L65.7227-51.8555C57.4707-43.6523 56.9336-34.3262 64.3555-27.002C67.041-24.3164 69.7266-22.8027 72.2168-22.5098C73.5352-23.4375 75.1465-25.1465 75.8301-27.002C72.6562-27.0996 70.0684-28.1738 67.8223-30.5176C62.6465-35.5469 63.0859-42.3828 69.1895-48.3398L80.7129-59.8633C86.6211-65.8203 93.3105-66.2109 98.4375-61.1328C103.613-56.0547 103.32-49.2676 97.2168-43.4082L88.2324-34.375C88.8184-32.4707 88.7695-29.7852 87.6953-27.0996L100.635-39.9414C108.789-48.0469 109.326-57.373 101.953-64.6484ZM43.4082-6.05469C50.7812 1.2207 59.9609 0.683594 68.1152-7.4707L79.5898-18.8477C87.8418-27.0508 88.3789-36.4258 81.0059-43.7012C78.3203-46.3867 75.6348-47.9004 73.1445-48.2422C71.8262-47.2656 70.2148-45.5566 69.5312-43.75C72.7051-43.6035 75.2441-42.5781 77.5391-40.2344C82.7148-35.1562 82.2266-28.3203 76.1719-22.3633L64.6484-10.8887C58.7402-4.88281 52.0508-4.49219 46.9238-9.61914C41.748-14.6973 42.0898-21.4355 48.1445-27.2949L57.1289-36.3281C56.543-38.2324 56.5918-40.9668 57.6172-43.6523L44.7266-30.8105C36.5723-22.6562 35.9863-13.3789 43.4082-6.05469Z"/>
  </g>
  <g id="Thin-L" transform="matrix(1 0 0 1 783.693 1556)">
   <path d="M72.7051 26.1719C106.494 26.1719 134.18-1.51367 134.18-35.2539C134.18-69.043 106.494-96.7285 72.7051-96.7285C38.9648-96.7285 11.2793-69.043 11.2793-35.2539C11.2793-1.51367 38.9648 26.1719 72.7051 26.1719ZM72.7051 22.168C41.0156 22.168 15.2832-3.56445 15.2832-35.2539C15.2832-66.9922 41.0156-92.7246 72.7051-92.7246C104.395-92.7246 130.176-66.9922 130.176-35.2539C130.176-3.56445 104.443 22.168 72.7051 22.168ZM100.293-64.3066C93.3105-71.1914 84.6191-70.752 77.2949-63.3789L64.1602-50.4395C56.7383-43.0664 56.3477-34.1309 63.3301-27.2949C66.4062-24.2676 69.2871-22.7539 72.2656-22.4121C73.2422-23.1445 74.4629-24.3652 74.9512-25.9277C71.5332-25.7812 68.7012-26.9043 65.8691-29.8828C60.498-35.0098 60.6934-42.041 66.5527-47.7539L79.8828-61.0352C85.5957-66.8457 92.4805-66.9922 97.6562-61.7188C103.027-56.543 102.93-49.5605 97.0215-43.9453L86.1816-33.0078C86.4258-31.4941 86.2793-29.4922 85.2539-27.1484L99.4141-41.2598C106.836-48.6328 107.275-57.5195 100.293-64.3066ZM42.3828-6.44531C49.4141 0.390625 58.0566 0 65.4297-7.37305L78.5156-20.3125C85.9863-27.6855 86.3281-36.6699 79.3945-43.457C76.2695-46.4844 73.4375-48.0469 70.459-48.3398C69.4824-47.6562 68.2129-46.3867 67.7734-44.873C71.1914-44.9707 73.9746-43.8477 76.8066-40.8691C82.2266-35.7422 82.0312-28.7109 76.1719-23.0469L62.793-9.76562C57.1289-3.90625 50.2441-3.75977 45.0684-9.0332C39.6973-14.2578 39.8438-21.1914 45.7031-26.8066L56.543-37.793C56.2988-39.2578 56.3965-41.3086 57.4707-43.6523L43.3105-29.4922C35.8887-22.1191 35.4492-13.2812 42.3828-6.44531Z"/>
  </g>
  <g id="Ultralight-L" transform="matrix(1 0 0 1 487.616 1556)">
   <path d="M72.1191 25.5371C105.566 25.5371 132.91-1.80664 132.91-35.2539C132.91-68.75 105.566-96.0938 72.1191-96.0938C38.623-96.0938 11.2793-68.75 11.2793-35.2539C11.2793-1.80664 38.623 25.5371 72.1191 25.5371ZM72.1191 23.0469C39.9414 23.0469 13.7695-3.125 13.7695-35.2539C13.7695-67.4316 39.9414-93.6035 72.1191-93.6035C104.248-93.6035 130.42-67.4316 130.42-35.2539C130.42-3.125 104.248 23.0469 72.1191 23.0469ZM99.4629-64.1602C92.627-70.8008 84.2285-70.4102 77.2949-63.4277L63.3789-49.707C56.3477-42.7734 56.0547-34.0332 62.793-27.4414C66.1133-24.2188 69.043-22.7051 72.3145-22.3633C73.0957-22.9492 74.1211-23.9746 74.5117-25.3418C70.9961-25.1465 68.0176-26.2695 64.8926-29.5898C59.375-34.7168 59.4727-41.8457 65.1855-47.4121L79.4922-61.6211C85.0586-67.3828 92.041-67.3828 97.2656-62.0605C102.686-56.7871 102.783-49.7559 96.9238-44.2383L85.1562-32.2754C85.2051-31.0059 85.0098-29.3457 83.9844-27.1484L98.7793-41.9434C105.811-48.9258 106.201-57.5684 99.4629-64.1602ZM41.8945-6.64062C48.7305 0 57.1289-0.390625 64.0625-7.32422L77.9785-21.0938C85.0098-28.0273 85.3027-36.7676 78.5645-43.3105C75.2441-46.5332 72.3145-48.0957 69.043-48.3887C68.2617-47.8027 67.2363-46.8262 66.8945-45.459C70.3613-45.6543 73.3398-44.5312 76.4648-41.2109C81.9824-36.0352 81.8848-28.9551 76.1719-23.3887L61.8652-9.17969C56.2988-3.41797 49.3164-3.41797 44.0918-8.74023C38.6719-14.0137 38.6719-21.0449 44.4336-26.5137L56.2012-38.5254C56.1523-39.7949 56.3477-41.4551 57.373-43.6523L42.5781-28.8574C35.5469-21.875 35.1562-13.2324 41.8945-6.64062Z"/>
  </g>
  <g id="Black-M" transform="matrix(1 0 0 1 2870.97 1126)">
   <path d="M62.4023 18.457C91.9922 18.457 116.113-5.61523 116.113-35.2051C116.113-64.7949 91.9922-88.8672 62.4023-88.8672C32.8125-88.8672 8.74023-64.7949 8.74023-35.2051C8.74023-5.61523 32.8125 18.457 62.4023 18.457ZM62.4023 0.195312C42.8711 0.195312 27.002-15.625 27.002-35.2051C27.002-54.7363 42.8711-70.6055 62.4023-70.6055C81.9824-70.6055 97.8027-54.7363 97.8027-35.2051C97.8027-15.625 81.9824 0.195312 62.4023 0.195312ZM82.4219-56.3477C76.123-62.6465 68.3105-61.8652 61.084-54.834L56.3965-50.3418C49.0234-43.2617 48.584-34.9609 54.9316-28.9062C56.2012-27.7344 57.8613-26.416 58.9844-25.5859C60.7422-27.0508 62.6953-29.5898 63.0859-30.957C62.3047-31.4941 60.498-32.7148 59.6191-33.5938C56.2988-36.9629 56.7871-41.3574 61.1816-45.7031L65.5273-49.9512C69.9707-54.3457 74.3164-54.9316 77.6855-51.6602C81.0547-48.3398 80.4688-43.7988 76.0742-39.4531L73.9746-37.4512C75-36.084 75.4883-31.4453 74.8047-28.7598L80.957-34.9121C88.0859-42.041 88.6719-50.0977 82.4219-56.3477ZM40.5273-13.916C46.8262-7.61719 54.6875-8.39844 61.9141-15.4297L66.6016-19.9219C73.9258-27.002 74.3652-35.3027 68.0176-41.3574C66.7969-42.5293 65.0879-43.8477 63.9648-44.6777C62.207-43.2129 60.3027-40.6738 59.8633-39.3066C60.6445-38.7695 62.4512-37.5488 63.3301-36.6699C66.6992-33.3008 66.2109-28.9062 61.7676-24.5605L57.4707-20.3125C52.9785-15.918 48.6328-15.332 45.3125-18.6035C41.9434-21.9238 42.4805-26.4648 46.9238-30.8105L48.9746-32.8125C47.998-34.1797 47.4609-38.8184 48.1445-41.5039L42.041-35.3516C34.8633-28.2227 34.3262-20.166 40.5273-13.916Z"/>
  </g>
  <g id="Heavy-M" transform="matrix(1 0 0 1 2575.19 1126)">
   <path d="M61.5234 17.5293C90.5273 17.5293 114.258-6.20117 114.258-35.2051C114.258-64.2578 90.5273-87.9883 61.4746-87.9883C32.4707-87.9883 8.74023-64.2578 8.74023-35.2051C8.74023-6.20117 32.4707 17.5293 61.5234 17.5293ZM61.5234 1.61133C41.1133 1.61133 24.6582-14.8438 24.6582-35.2051C24.6582-55.6152 41.1133-72.0703 61.4746-72.0703C81.8848-72.0703 98.3398-55.6152 98.3398-35.2051C98.3398-14.8438 81.8848 1.61133 61.5234 1.61133ZM82.0312-56.8359C75.7812-63.0371 67.9688-62.3535 60.791-55.3223L55.4688-50.1465C48.1445-43.0176 47.7051-34.9121 54.0039-28.8574C55.3223-27.5391 57.0801-26.2695 58.252-25.5859C59.9121-26.9043 61.7676-29.2969 62.3047-30.7129C61.1816-31.2012 59.375-32.3242 58.4473-33.252C54.9805-36.7188 55.4688-41.3086 60.0098-45.8008L64.9902-50.7324C69.5312-55.1758 74.0723-55.7617 77.5391-52.3438C81.0059-48.9258 80.4688-44.2871 75.9277-39.8438L73.1445-37.1094C74.1211-35.6445 74.5117-31.3965 73.7793-28.8086L80.5176-35.498C87.6953-42.6758 88.2324-50.5859 82.0312-56.8359ZM39.1602-13.5254C45.4102-7.27539 53.1738-7.95898 60.4004-15.0391L65.7227-20.166C72.998-27.2949 73.4863-35.4492 67.1875-41.5039C65.8203-42.8223 64.1113-44.0918 62.8906-44.7754C61.2305-43.457 59.375-41.0645 58.8867-39.5996C60.0098-39.1602 61.7676-38.0371 62.7441-37.0605C66.2109-33.5938 65.6738-29.0527 61.1328-24.5605L56.1523-19.6289C51.6113-15.1855 47.1191-14.5996 43.6523-17.9688C40.1855-21.3867 40.7227-26.0742 45.2148-30.5176L47.998-33.252C47.0703-34.7168 46.6797-38.916 47.3633-41.5527L40.625-34.8145C33.4961-27.6855 32.9102-19.7266 39.1602-13.5254Z"/>
  </g>
  <g id="Bold-M" transform="matrix(1 0 0 1 2279.5 1126)">
   <path d="M60.498 16.5039C88.8672 16.5039 112.207-6.83594 112.207-35.2051C112.207-63.623 88.8672-86.9629 60.4492-86.9629C32.0312-86.9629 8.74023-63.623 8.74023-35.2051C8.74023-6.83594 32.0801 16.5039 60.498 16.5039ZM60.498 3.22266C39.1602 3.22266 22.0703-13.916 22.0703-35.2051C22.0703-56.543 39.1602-73.6816 60.4492-73.6816C81.7383-73.6816 98.9258-56.543 98.9258-35.2051C98.9746-13.916 81.7871 3.22266 60.498 3.22266ZM81.543-57.373C75.3418-63.5254 67.627-62.8906 60.4492-55.8594L54.4434-49.9512C47.168-42.8223 46.6797-34.8145 52.9297-28.7598C54.3945-27.2949 56.1523-26.0742 57.4219-25.5371C58.9844-26.709 60.791-28.9062 61.377-30.4688C59.8633-30.8594 58.1055-31.8848 57.0801-32.9102C53.5156-36.4746 54.0527-41.2598 58.7402-45.8496L64.4531-51.5625C69.0918-56.1035 73.7793-56.6895 77.3438-53.1738C80.957-49.6094 80.4688-44.8242 75.7812-40.2344L72.2168-36.7188C73.0957-35.1074 73.3887-31.3965 72.6562-28.8086L80.0781-36.1816C87.207-43.3594 87.7441-51.1719 81.543-57.373ZM37.5977-13.0859C43.7988-6.88477 51.5137-7.51953 58.6914-14.5996L64.6973-20.5078C71.9727-27.6367 72.5098-35.5957 66.2109-41.6992C64.7461-43.1641 62.9883-44.3848 61.7188-44.9219C60.1562-43.7012 58.3496-41.5039 57.7637-39.9902C59.2773-39.5996 61.0352-38.5742 62.0605-37.5488C65.6738-33.9355 65.0879-29.1992 60.4004-24.5605L54.7363-18.8965C50.0977-14.3066 45.4102-13.7207 41.7969-17.2852C38.1836-20.8496 38.7207-25.6348 43.3594-30.2246L46.9238-33.6914C46.0449-35.3516 45.752-39.0625 46.4844-41.6016L39.0625-34.2285C31.9336-27.0996 31.3965-19.2871 37.5977-13.0859Z"/>
  </g>
  <g id="Semibold-M" transform="matrix(1 0 0 1 1983.5 1126)">
   <path d="M59.7656 15.8203C87.7441 15.8203 110.791-7.27539 110.791-35.2539C110.791-63.2324 87.6953-86.2793 59.7656-86.2793C31.7871-86.2793 8.74023-63.2324 8.74023-35.2539C8.74023-7.27539 31.7871 15.8203 59.7656 15.8203ZM59.7656 4.3457C37.8418 4.3457 20.2637-13.3301 20.2637-35.2539C20.2637-57.1777 37.793-74.8047 59.7656-74.8047C81.6895-74.8047 99.3164-57.1777 99.3652-35.2539C99.3652-13.3301 81.6895 4.3457 59.7656 4.3457ZM81.25-57.7148C75.0977-63.8672 67.3828-63.2812 60.2539-56.2012L53.7598-49.8047C46.4844-42.627 45.9473-34.8145 52.1973-28.6621C53.7109-27.0996 55.5664-25.9277 56.8848-25.4883C58.3496-26.6113 60.1074-28.6621 60.7422-30.2734C58.9844-30.6152 57.2266-31.543 56.1523-32.6172C52.4902-36.3281 53.0762-41.2109 57.8613-45.8984L64.0625-52.0996C68.75-56.7383 73.5352-57.3242 77.2461-53.7109C80.957-50.0488 80.4688-45.166 75.6836-40.5273L71.582-36.4746C72.4121-34.7168 72.6562-31.3477 71.875-28.8574L79.7852-36.6699C86.8652-43.7988 87.4512-51.5625 81.25-57.7148ZM36.5234-12.793C42.6758-6.64062 50.3906-7.22656 57.5195-14.3066L64.0137-20.7031C71.2402-27.8809 71.7773-35.6934 65.5762-41.8457C64.0137-43.4082 62.207-44.5801 60.8887-45.0195C59.4238-43.8965 57.666-41.8457 57.0312-40.2344C58.7891-39.8438 60.5469-38.916 61.6211-37.8906C65.2832-34.1797 64.6973-29.2969 59.9121-24.5605L53.7109-18.4082C49.0234-13.7207 44.1895-13.1836 40.5273-16.7969C36.8164-20.4102 37.3047-25.3418 42.0898-29.9805L46.1914-34.0332C45.3125-35.7422 45.1172-39.1602 45.8984-41.6504L37.9883-33.8379C30.9082-26.709 30.3223-18.9453 36.5234-12.793Z"/>
  </g>
  <g id="Medium-M" transform="matrix(1 0 0 1 1687.3 1126)">
   <path d="M59.2285 15.2344C86.9141 15.2344 109.766-7.61719 109.766-35.2539C109.766-62.8906 86.8652-85.7422 59.1797-85.7422C31.543-85.7422 8.74023-62.8906 8.74023-35.2539C8.74023-7.61719 31.5918 15.2344 59.2285 15.2344ZM59.2285 5.17578C36.8164 5.17578 18.8965-12.8418 18.8965-35.2539C18.8965-57.666 36.8164-75.6348 59.1797-75.6348C81.5918-75.6348 99.6094-57.666 99.6582-35.2539C99.707-12.8418 81.6406 5.17578 59.2285 5.17578ZM81.0059-58.0078C74.8535-64.1113 67.1875-63.5742 60.0586-56.4941L53.2227-49.707C45.9961-42.5293 45.4102-34.7656 51.6602-28.6133C53.2227-27.002 55.0781-25.8301 56.4453-25.4883C57.8613-26.5137 59.5703-28.4668 60.2539-30.127C58.3008-30.4688 56.5918-31.3477 55.4199-32.4219C51.709-36.1816 52.2949-41.1621 57.1777-45.9473L63.7695-52.5391C68.5059-57.2266 73.3887-57.8125 77.1484-54.1504C80.9082-50.3906 80.4688-45.4102 75.5859-40.7227L71.0938-36.2305C71.9238-34.4727 72.0703-31.3477 71.2891-28.8574L79.541-37.0117C86.6211-44.1406 87.1582-51.8555 81.0059-58.0078ZM35.6934-12.5488C41.8457-6.44531 49.5117-6.98242 56.6406-14.0625L63.4766-20.8496C70.7031-28.0273 71.2891-35.791 65.0879-41.8945C63.4766-43.5547 61.6211-44.7266 60.2539-45.0684C58.8379-43.9941 57.1289-42.0898 56.4453-40.4297C58.3984-40.0879 60.1562-39.209 61.2793-38.1348C64.9902-34.375 64.4043-29.3945 59.5215-24.6094L52.9297-18.0176C48.1934-13.2812 43.3105-12.7441 39.5508-16.4062C35.791-20.1172 36.2793-25.0977 41.1133-29.834L45.6055-34.2773C44.7754-36.084 44.6289-39.209 45.459-41.6992L37.1582-33.4961C30.0781-26.416 29.541-18.7012 35.6934-12.5488Z"/>
  </g>
  <g id="Regular-M" transform="matrix(1 0 0 1 1391.3 1126)">
   <path d="M58.5449 14.5508C85.791 14.5508 108.35-8.05664 108.35-35.2539C108.35-62.5 85.7422-85.0586 58.4961-85.0586C31.2988-85.0586 8.74023-62.5 8.74023-35.2539C8.74023-8.05664 31.3477 14.5508 58.5449 14.5508ZM58.5449 6.25C35.498 6.25 17.0898-12.207 17.0898-35.2539C17.0898-58.3008 35.4492-76.7578 58.4961-76.7578C81.543-76.7578 100-58.3008 100.049-35.2539C100.098-12.207 81.5918 6.25 58.5449 6.25ZM80.6641-58.3984C74.5605-64.4531 66.9434-63.916 59.8633-56.8359L52.5391-49.5605C45.3125-42.334 44.7266-34.7168 50.9277-28.5645C52.5879-26.8066 54.4922-25.6836 55.8594-25.4395C57.2266-26.416 58.8867-28.2227 59.668-29.9316C57.4219-30.2246 55.7129-31.0059 54.541-32.1777C50.7324-36.0352 51.3184-41.1133 56.2988-45.9961L63.3789-53.125C68.1641-57.9102 73.1934-58.4473 77.0508-54.6875C80.8594-50.8789 80.4199-45.8008 75.4883-41.0156L70.459-35.9863C71.2402-34.082 71.2891-31.2988 70.5078-28.8574L79.1992-37.5C86.2793-44.6289 86.8652-52.2461 80.6641-58.3984ZM34.668-12.207C40.7715-6.15234 48.3887-6.68945 55.4688-13.7695L62.793-21.0449C70.0195-28.2715 70.6055-35.8887 64.4043-42.041C62.7441-43.7988 60.8398-44.9219 59.4727-45.166C58.1055-44.1895 56.4453-42.3828 55.6641-40.6738C57.9102-40.3809 59.6191-39.5996 60.791-38.4277C64.5996-34.5703 64.0137-29.4922 59.0332-24.6094L51.9531-17.4805C47.168-12.6953 42.1387-12.1582 38.2812-15.918C34.4727-19.7266 34.9121-24.8047 39.8438-29.6387L44.873-34.6191C44.0918-36.5234 44.043-39.3066 44.8242-41.748L36.1328-33.1055C29.0527-26.0254 28.4668-18.3594 34.668-12.207Z"/>
  </g>
  <g id="Light-M" transform="matrix(1 0 0 1 1095.42 1126)">
   <path d="M57.7148 13.7207C84.5215 13.7207 106.689-8.44727 106.689-35.2539C106.689-62.1094 84.5215-84.2285 57.666-84.2285C30.8594-84.2285 8.74023-62.1094 8.74023-35.2539C8.74023-8.44727 30.9082 13.7207 57.7148 13.7207ZM57.7148 7.37305C34.082 7.37305 15.0879-11.6699 15.0879-35.2539C15.0879-58.8867 34.082-77.9297 57.666-77.9297C81.2988-77.9297 100.342-58.8867 100.391-35.2539C100.391-11.6699 81.3477 7.37305 57.7148 7.37305ZM79.5898-58.1543C73.7305-63.916 66.4551-63.4766 59.8633-56.9336L51.4648-48.584C44.8242-41.9434 44.3359-34.5703 50.1953-28.7598C52.1484-26.8066 54.1992-25.6348 55.9082-25.3906C57.0801-26.2207 58.4473-27.6855 59.082-29.1992C56.6895-29.3457 54.7852-30.1758 53.2227-31.7871C49.2676-35.6445 49.707-40.8691 54.541-45.6055L62.8418-53.9062C67.4805-58.5938 72.6074-58.9844 76.5137-55.0781C80.4688-51.1719 80.1758-45.9961 75.3906-41.3574L69.0918-35.0586C69.6289-33.4473 69.6289-31.1035 68.7988-28.9062L78.418-38.4277C84.9609-44.9707 85.4492-52.3438 79.5898-58.1543ZM33.9844-12.5C39.8438-6.68945 47.1191-7.12891 53.6621-13.7207L62.0605-22.0703C68.75-28.7109 69.1895-36.084 63.3301-41.8945C61.377-43.8477 59.375-45.0195 57.6172-45.2637C56.4941-44.4336 55.0781-42.9688 54.4922-41.4551C56.8848-41.2598 58.7402-40.4785 60.3516-38.8672C64.2578-35.0098 63.8184-29.7363 59.0332-25.0488L50.7324-16.748C46.0449-12.0605 40.918-11.6699 37.0117-15.5762C33.0566-19.4336 33.3984-24.6582 38.1348-29.248L44.4824-35.5957C43.8965-37.207 43.8965-39.5508 44.7266-41.748L35.1562-32.2266C28.5645-25.6348 28.125-18.3105 33.9844-12.5Z"/>
  </g>
  <g id="Thin-M" transform="matrix(1 0 0 1 799.806 1126)">
   <path d="M56.6406 12.5977C82.9102 12.5977 104.492-8.98438 104.492-35.2539C104.492-61.5723 82.9102-83.1543 56.5918-83.1543C30.3223-83.1543 8.74023-61.5723 8.74023-35.2539C8.74023-8.98438 30.3223 12.5977 56.6406 12.5977ZM56.6406 8.88672C32.2266 8.88672 12.4512-10.8887 12.4512-35.2539C12.4512-59.6191 32.2266-79.4434 56.5918-79.4434C81.0059-79.4434 100.781-59.6191 100.781-35.2539C100.781-10.8887 81.0059 8.88672 56.6406 8.88672ZM78.0762-57.8613C72.6074-63.2324 65.7715-62.8906 59.8633-57.0312L50.0977-47.3145C44.1406-41.4062 43.7988-34.4238 49.3164-29.0527C51.6113-26.7578 53.8086-25.5859 56.0059-25.3418C56.8359-25.9277 57.8613-27.002 58.252-28.2227C55.6641-28.2227 53.5645-29.0527 51.4648-31.2012C47.3633-35.1562 47.5586-40.5762 52.1484-45.0684L62.1094-54.9805C66.5527-59.5215 71.8262-59.668 75.8789-55.6152C79.9805-51.6113 79.8828-46.2891 75.2441-41.8945L67.2363-33.7891C67.4805-32.5684 67.4316-30.8105 66.6016-28.9551L77.2949-39.5996C83.2031-45.5078 83.5938-52.4414 78.0762-57.8613ZM33.1055-12.8418C38.5742-7.42188 45.4102-7.8125 51.3184-13.6719L61.084-23.3398C67.041-29.248 67.3828-36.2793 61.8652-41.6504C59.5703-43.9453 57.373-45.1172 55.1758-45.3613C54.3457-44.7754 53.3203-43.7012 52.9297-42.4316C55.5176-42.4805 57.6172-41.6504 59.7168-39.4531C63.8184-35.498 63.623-30.127 59.0332-25.6348L49.0723-15.7227C44.6289-11.1816 39.3555-11.0352 35.3027-15.0391C31.2012-19.043 31.3477-24.4141 35.9375-28.8086L43.9453-36.9141C43.7012-38.1348 43.75-39.8438 44.5801-41.748L33.8867-31.0547C27.9785-25.1953 27.5879-18.2129 33.1055-12.8418Z"/>
  </g>
  <g id="Ultralight-M" transform="matrix(1 0 0 1 503.656 1126)">
   <path d="M56.0547 12.0605C82.0801 12.0605 103.369-9.22852 103.369-35.2539C103.369-61.2793 82.0801-82.5684 56.0547-82.5684C30.0293-82.5684 8.74023-61.2793 8.74023-35.2539C8.74023-9.22852 30.0293 12.0605 56.0547 12.0605ZM56.0547 9.66797C31.2988 9.66797 11.1328-10.498 11.1328-35.2539C11.1328-60.0586 31.2988-80.1758 56.0547-80.1758C80.8594-80.1758 100.977-60.0586 100.977-35.2539C100.977-10.498 80.8594 9.66797 56.0547 9.66797ZM77.3438-57.666C72.0215-62.8906 65.4297-62.5977 59.9121-57.0801L49.3652-46.6797C43.7988-41.1621 43.5547-34.3262 48.8281-29.1504C51.3184-26.709 53.5645-25.5371 56.0547-25.293C56.6895-25.7812 57.5684-26.6113 57.8613-27.7344C55.1758-27.5879 52.9297-28.4668 50.5859-30.957C46.3379-34.9121 46.4844-40.4297 50.9277-44.7754L61.7188-55.5176C66.1133-59.9609 71.4355-60.0098 75.4883-55.9082C79.6875-51.8555 79.6875-46.4355 75.1465-42.1387L66.3086-33.1543C66.4062-32.1289 66.3086-30.7129 65.4785-28.9551L76.7578-40.2344C82.3242-45.752 82.6172-52.5391 77.3438-57.666ZM32.6172-13.0371C37.9883-7.8125 44.5801-8.10547 50.0977-13.623L60.5957-24.0234C66.1621-29.541 66.4062-36.377 61.1328-41.5527C58.6426-43.9941 56.3965-45.166 53.9551-45.4102C53.2715-44.9219 52.3926-44.0918 52.0996-42.9688C54.7852-43.1152 57.0312-42.2363 59.375-39.7949C63.623-35.791 63.5254-30.2734 59.0332-25.9277L48.2422-15.2344C43.8965-10.7422 38.5254-10.6934 34.4727-14.7949C30.2734-18.8477 30.3223-24.2676 34.8145-28.5645L43.6523-37.5488C43.5547-38.623 43.7012-39.9902 44.4824-41.748L33.252-30.4688C27.6367-24.9512 27.3438-18.1641 32.6172-13.0371Z"/>
  </g>
  <g id="Black-S" transform="matrix(1 0 0 1 2884.57 696)">
   <path d="M48.8281 6.78711C71.9727 6.78711 90.8203-12.0605 90.8203-35.2051C90.8203-58.3496 71.9727-77.1973 48.8281-77.1973C25.6836-77.1973 6.83594-58.3496 6.83594-35.2051C6.83594-12.0605 25.6836 6.78711 48.8281 6.78711ZM48.8281-7.37305C33.4473-7.37305 20.9961-19.8242 20.9961-35.2051C20.9961-50.5859 33.4473-63.0371 48.8281-63.0371C64.209-63.0371 76.6602-50.5859 76.6602-35.2051C76.6602-19.8242 64.209-7.37305 48.8281-7.37305ZM64.5508-51.8066C59.6191-56.7383 53.4668-56.1523 47.8027-50.6348L44.0918-47.0703C38.3301-41.5039 37.9883-35.0098 42.9688-30.2734C43.9453-29.3457 45.2637-28.3203 46.1426-27.6855C47.5098-28.8086 49.0234-30.8105 49.3652-31.8848C48.7305-32.2754 47.3145-33.252 46.6309-33.9355C43.9941-36.5723 44.3848-40.0391 47.8516-43.457L51.2695-46.8262C54.7852-50.2441 58.2031-50.7324 60.8398-48.1445C63.4766-45.5566 63.0371-41.9922 59.5703-38.5742L57.9102-36.9629C58.6914-35.8887 59.082-32.2754 58.5449-30.1758L63.3789-35.0098C68.9941-40.625 69.4336-46.9238 64.5508-51.8066ZM31.6406-18.5059C36.5723-13.5742 42.7246-14.1602 48.3887-19.6777L52.0996-23.2422C57.8613-28.8086 58.2031-35.3027 53.2227-40.0391C52.2461-40.9668 50.9277-41.9922 50.0488-42.627C48.6816-41.5039 47.168-39.502 46.8262-38.4277C47.4609-38.0371 48.877-37.0605 49.5605-36.377C52.1973-33.7402 51.8066-30.2734 48.3398-26.8555L44.9219-23.4863C41.4062-20.0684 37.9883-19.5801 35.3516-22.168C32.7148-24.7559 33.1543-28.3203 36.6211-31.7383L38.2812-33.3496C37.5-34.4238 37.1094-38.0371 37.6465-40.1367L32.8125-35.3027C27.1973-29.6875 26.7578-23.3887 31.6406-18.5059Z"/>
  </g>
  <g id="Heavy-S" transform="matrix(1 0 0 1 2588.47 696)">
   <path d="M48.2422 6.15234C70.9961 6.15234 89.5996-12.4512 89.5996-35.2051C89.5996-57.959 70.9961-76.6113 48.1934-76.6113C25.4395-76.6113 6.83594-57.959 6.83594-35.2051C6.83594-12.4512 25.4395 6.15234 48.2422 6.15234ZM48.2422-6.39648C32.2754-6.39648 19.4336-19.2871 19.4336-35.2051C19.4336-51.1719 32.2754-64.0137 48.1934-64.0137C64.1602-64.0137 77.002-51.1719 77.0508-35.2051C77.0508-19.2871 64.1602-6.39648 48.2422-6.39648ZM64.3555-52.1973C59.4238-57.1289 53.2715-56.5918 47.6074-50.9766L43.5059-47.0215C37.7441-41.4062 37.3535-34.9609 42.334-30.1758C43.3594-29.1992 44.6777-28.1738 45.5566-27.6367C46.9238-28.7109 48.3887-30.6152 48.8281-31.7871C47.9492-32.1289 46.5332-33.0566 45.8496-33.7402C43.1641-36.4258 43.6035-40.0391 47.168-43.5547L50.9277-47.3145C54.541-50.8301 58.0566-51.3184 60.791-48.6328C63.4766-45.9961 63.0859-42.334 59.4727-38.8184L57.4219-36.8164C58.2031-35.5957 58.4961-32.2754 57.959-30.1758L63.1836-35.4004C68.7988-41.0645 69.2871-47.3145 64.3555-52.1973ZM30.6641-18.1641C35.5957-13.2324 41.748-13.8184 47.4121-19.3848L51.5137-23.3398C57.2754-29.0039 57.666-35.4004 52.6855-40.1855C51.6602-41.2109 50.3418-42.1875 49.4629-42.7246C48.0957-41.6504 46.6309-39.7461 46.1914-38.5742C47.0703-38.2324 48.4863-37.3535 49.1699-36.6699C51.8555-33.9355 51.416-30.3711 47.8516-26.8066L44.0918-23.0469C40.4785-19.5801 36.9629-19.043 34.2285-21.7285C31.543-24.4141 31.9336-28.0273 35.5469-31.543L37.5977-33.5938C36.8164-34.7656 36.5234-38.0859 37.0605-40.1855L31.8359-35.0098C26.2207-29.3457 25.7324-23.0957 30.6641-18.1641Z"/>
  </g>
  <g id="Bold-S" transform="matrix(1 0 0 1 2292.44 696)">
   <path d="M47.5586 5.46875C69.873 5.46875 88.2324-12.8906 88.2324-35.2539C88.2324-57.5684 69.873-75.9277 47.5098-75.9277C25.1953-75.9277 6.83594-57.5684 6.83594-35.2539C6.83594-12.8906 25.1953 5.46875 47.5586 5.46875ZM47.5586-5.32227C30.957-5.32227 17.6758-18.6523 17.6758-35.2539C17.6758-51.8066 30.957-65.1367 47.5098-65.1367C64.1113-65.1367 77.4414-51.8066 77.4414-35.2539C77.4414-18.6523 64.1113-5.32227 47.5586-5.32227ZM64.1602-52.6367C59.2285-57.5684 53.0762-57.0312 47.3145-51.3672L42.8711-46.9727C37.0605-41.2598 36.6211-34.9609 41.6016-30.0781C42.6758-29.0039 44.043-28.0273 44.9219-27.6367C46.2402-28.6133 47.7051-30.4199 48.1934-31.6406C47.0215-32.0312 45.7031-32.8125 44.9707-33.4961C42.2363-36.2793 42.6758-39.9902 46.4355-43.6523L50.5859-47.8516C54.248-51.4648 57.9102-51.9531 60.7422-49.2188C63.5254-46.4355 63.0859-42.6758 59.375-39.0625L56.8848-36.6211C57.6172-35.2539 57.8613-32.2754 57.2754-30.2246L62.9395-35.791C68.6035-41.5039 69.0918-47.7051 64.1602-52.6367ZM29.541-17.7734C34.4727-12.8906 40.625-13.3789 46.3867-19.043L50.8301-23.4375C56.6406-29.1992 57.0801-35.498 52.0996-40.332C51.0254-41.4551 49.6582-42.3828 48.7305-42.8223C47.4609-41.7969 45.9961-40.0391 45.5078-38.7695C46.6797-38.4277 47.998-37.6465 48.7305-36.9629C51.4648-34.1309 51.0254-30.4199 47.2656-26.7578L43.1152-22.6074C39.4531-18.9941 35.791-18.5059 32.959-21.2402C30.1758-24.0234 30.6152-27.7344 34.3262-31.3477L36.8164-33.8379C36.084-35.1562 35.8398-38.1836 36.4258-40.2344L30.7617-34.668C25.0977-28.9062 24.6094-22.7051 29.541-17.7734Z"/>
  </g>
  <g id="Semibold-S" transform="matrix(1 0 0 1 1996.2 696)">
   <path d="M47.0703 4.98047C69.0918 4.98047 87.3047-13.1836 87.3047-35.2539C87.3047-57.2754 69.0918-75.4883 47.0215-75.4883C25-75.4883 6.83594-57.2754 6.83594-35.2539C6.83594-13.1836 25.0488 4.98047 47.0703 4.98047ZM47.0703-4.58984C30.0781-4.58984 16.4551-18.2129 16.4551-35.2539C16.4551-52.2461 30.0293-65.8691 47.0215-65.8691C64.0625-65.8691 77.6855-52.2461 77.7344-35.2539C77.7344-18.2129 64.0625-4.58984 47.0703-4.58984ZM64.0137-52.9297C59.082-57.8613 52.9297-57.373 47.168-51.6602L42.4316-46.9727C36.5723-41.1621 36.084-34.9121 41.0645-30.0293C42.1875-28.8574 43.6035-27.9297 44.5312-27.6367C45.752-28.5645 47.2168-30.2734 47.7539-31.5918C46.4355-31.9336 45.1172-32.6172 44.3848-33.3496C41.5527-36.1816 42.0898-39.9902 45.8984-43.75L50.3418-48.1934C54.0527-51.9043 57.8125-52.3926 60.6934-49.6094C63.5254-46.7773 63.0859-42.9688 59.3262-39.2578L56.543-36.4746C57.2266-35.0586 57.4219-32.2754 56.8359-30.2246L62.7441-36.084C68.457-41.8457 68.9453-47.998 64.0137-52.9297ZM28.8086-17.5293C33.6914-12.6465 39.8438-13.1348 45.6055-18.8477L50.3418-23.5352C56.2012-29.2969 56.6895-35.5469 51.709-40.4785C50.5859-41.6016 49.2188-42.5293 48.291-42.8711C47.0215-41.9434 45.6055-40.2344 45.0195-38.916C46.3867-38.5742 47.6562-37.8418 48.3887-37.1582C51.2207-34.2773 50.7324-30.5176 46.875-26.7578L42.4316-22.2656C38.7207-18.6035 35.0098-18.1152 32.1289-20.8984C29.248-23.7305 29.6875-27.5391 33.4961-31.25L36.2793-33.9844C35.5469-35.4492 35.3516-38.2324 35.9375-40.2832L30.0293-34.4238C24.3164-28.6621 23.8281-22.4609 28.8086-17.5293Z"/>
  </g>
  <g id="Medium-S" transform="matrix(1 0 0 1 1699.83 696)">
   <path d="M46.7285 4.63867C68.5547 4.63867 86.6211-13.4277 86.6211-35.2539C86.6211-57.0801 68.5059-75.1465 46.6797-75.1465C24.8535-75.1465 6.83594-57.0801 6.83594-35.2539C6.83594-13.4277 24.9023 4.63867 46.7285 4.63867ZM46.7285-4.00391C29.3945-4.00391 15.5273-17.9199 15.5273-35.2539C15.5273-52.5879 29.3457-66.4551 46.6797-66.4551C64.0137-66.4551 77.8809-52.5879 77.9297-35.2539C77.9785-17.9199 64.0625-4.00391 46.7285-4.00391ZM63.8672-53.1738C58.9844-58.0566 52.832-57.6172 47.0215-51.8555L42.0898-46.9238C36.2305-41.1133 35.7422-34.9121 40.7227-29.9805C41.8457-28.7598 43.2617-27.8809 44.1895-27.5879C45.4102-28.5156 46.8262-30.127 47.4121-31.4941C45.9473-31.8359 44.6777-32.5195 43.9453-33.2031C41.0645-36.1328 41.6016-39.9902 45.5078-43.7988L50.1465-48.4863C53.9062-52.1973 57.7148-52.7344 60.6445-49.9023C63.5254-47.0215 63.1348-43.1641 59.2773-39.4043L56.25-36.4258C56.9336-34.8633 57.0801-32.2266 56.4941-30.2246L62.5977-36.2793C68.3594-42.0898 68.8477-48.1934 63.8672-53.1738ZM28.2227-17.334C33.1055-12.4512 39.2578-12.8906 45.0684-18.6523L50-23.584C55.9082-29.4434 56.3965-35.5957 51.3672-40.5273C50.2441-41.748 48.8281-42.627 47.9004-42.9199C46.7285-41.9922 45.2637-40.3809 44.6777-39.0137C46.1426-38.6719 47.4121-38.0371 48.1445-37.3047C51.0254-34.375 50.4883-30.5664 46.6309-26.709L41.9434-22.0215C38.1836-18.3105 34.375-17.7734 31.4453-20.6543C28.5645-23.5352 29.0039-27.3926 32.8125-31.1523L35.8398-34.1309C35.1562-35.6445 35.0098-38.2812 35.5957-40.2832L29.4922-34.2285C23.7305-28.418 23.2422-22.3145 28.2227-17.334Z"/>
  </g>
  <g id="Regular-S" transform="matrix(1 0 0 1 1403.58 696)">
   <path d="M46.2402 4.15039C67.7734 4.15039 85.6934-13.7207 85.6934-35.2539C85.6934-56.7871 67.7246-74.6582 46.1914-74.6582C24.707-74.6582 6.83594-56.7871 6.83594-35.2539C6.83594-13.7207 24.7559 4.15039 46.2402 4.15039ZM46.2402-3.27148C28.5156-3.27148 14.3555-17.4805 14.3555-35.2539C14.3555-53.0273 28.4668-67.2363 46.1914-67.2363C63.9648-67.2363 78.1738-53.0273 78.2227-35.2539C78.2715-17.4805 64.0137-3.27148 46.2402-3.27148ZM63.7207-53.4668C58.8379-58.3496 52.6855-57.959 46.875-52.0996L41.6504-46.9238C35.7422-41.0156 35.2051-34.9121 40.1855-29.9316C41.3574-28.6621 42.8223-27.7832 43.75-27.5879C44.9219-28.418 46.3379-29.9805 47.0215-31.4453C45.3125-31.7383 44.0918-32.3242 43.3594-33.0566C40.4297-36.0352 41.0156-39.9414 44.9707-43.8965L49.9023-48.877C53.7109-52.6367 57.6172-53.1738 60.5957-50.2441C63.5254-47.3145 63.1348-43.4082 59.1797-39.5508L55.8594-36.2793C56.5918-34.668 56.6406-32.2266 56.0059-30.2246L62.4512-36.5723C68.2129-42.3828 68.7012-48.4863 63.7207-53.4668ZM27.4902-17.0898C32.373-12.207 38.5254-12.6465 44.3359-18.457L49.5117-23.6328C55.4688-29.541 55.957-35.6934 50.9766-40.625C49.8047-41.8945 48.3887-42.7734 47.4609-42.9688C46.2891-42.1387 44.8242-40.5762 44.1895-39.1113C45.8496-38.8184 47.1191-38.2324 47.8516-37.5C50.7812-34.5215 50.1953-30.6152 46.2402-26.6602L41.3086-21.7285C37.4512-17.9199 33.5938-17.3828 30.6152-20.3125C27.6367-23.2422 28.0762-27.1484 31.9824-31.0059L35.3027-34.2773C34.6191-35.8887 34.5215-38.3301 35.1562-40.332L28.7598-33.9844C22.9492-28.1738 22.4609-22.0703 27.4902-17.0898Z"/>
  </g>
  <g id="Light-S" transform="matrix(1 0 0 1 1107.6 696)">
   <path d="M45.5078 3.41797C66.6992 3.41797 84.2285-14.0625 84.2285-35.2539C84.2285-56.4453 66.6504-73.9258 45.5078-73.9258C24.3164-73.9258 6.83594-56.4453 6.83594-35.2539C6.83594-14.0625 24.3652 3.41797 45.5078 3.41797ZM45.5078-2.29492C27.2461-2.29492 12.5977-16.9922 12.5977-35.2539C12.5977-53.5156 27.1973-68.2129 45.5078-68.2129C63.7695-68.2129 78.4668-53.5156 78.5156-35.2539C78.5156-16.9922 63.8184-2.29492 45.5078-2.29492ZM62.7441-53.2715C58.0566-57.9102 52.2461-57.5195 46.875-52.1973L40.7227-46.0938C35.3027-40.6738 34.8633-34.7656 39.5996-30.0781C41.0156-28.6133 42.5293-27.7344 43.7988-27.5391C44.7754-28.2227 45.9473-29.541 46.4844-30.7617C44.6777-30.957 43.2617-31.5918 42.1875-32.666C39.1602-35.6934 39.5508-39.7461 43.4082-43.5059L49.4141-49.5605C53.125-53.2715 57.0801-53.6133 60.1562-50.6348C63.1836-47.6074 62.8906-43.6035 59.082-39.8926L54.6387-35.4492C55.127-34.082 55.1758-32.0801 54.541-30.2734L61.7188-37.3535C67.041-42.7246 67.4805-48.584 62.7441-53.2715ZM26.8555-17.334C31.543-12.6953 37.4023-13.0371 42.7246-18.4082L48.877-24.5117C54.3457-29.9316 54.7363-35.8398 50-40.4785C48.584-41.9434 47.0703-42.8711 45.8496-43.0664C44.8242-42.334 43.6523-41.0645 43.1152-39.7949C44.9219-39.5996 46.3379-39.0137 47.4121-37.9395C50.4883-34.8633 50.0488-30.8594 46.2402-27.0996L40.1855-21.0449C36.4746-17.334 32.5195-16.9434 29.4922-19.9707C26.416-22.998 26.709-27.002 30.5176-30.7129L34.9609-35.1562C34.4727-36.5234 34.4238-38.5254 35.0586-40.332L27.8809-33.2031C22.5586-27.8809 22.168-22.0215 26.8555-17.334Z"/>
  </g>
  <g id="Thin-S" transform="matrix(1 0 0 1 811.867 696)">
   <path d="M44.5801 2.49023C65.2832 2.49023 82.2754-14.5508 82.2754-35.2539C82.2754-55.957 65.2344-72.998 44.5312-72.998C23.8281-72.998 6.83594-55.957 6.83594-35.2539C6.83594-14.5508 23.877 2.49023 44.5801 2.49023ZM44.5801-0.927734C25.5859-0.927734 10.2539-16.3086 10.2539-35.2539C10.2539-54.1992 25.5859-69.5801 44.5312-69.5801C63.5254-69.5801 78.8574-54.1992 78.8574-35.2539C78.8574-16.3086 63.5254-0.927734 44.5801-0.927734ZM61.4258-53.0273C57.0801-57.3242 51.6113-57.0312 46.875-52.2949L39.502-44.9707C34.668-40.1855 34.4238-34.6191 38.7695-30.3223C40.5273-28.6133 42.1875-27.6855 43.8477-27.4902C44.5312-27.9785 45.4102-28.9062 45.8008-29.9316C43.7988-29.9316 42.1875-30.6152 40.625-32.1777C37.4512-35.3027 37.6465-39.502 41.3086-43.0176L48.7793-50.4883C52.2949-54.0527 56.3965-54.248 59.5215-51.123C62.7441-47.998 62.5977-43.8477 58.9355-40.332L53.0273-34.3262C53.2715-33.3008 53.2227-31.8359 52.5879-30.2734L60.7422-38.4277C65.5273-43.1641 65.8203-48.6816 61.4258-53.0273ZM26.0742-17.627C30.4688-13.3301 35.8887-13.623 40.625-18.3594L48.0469-25.6836C52.832-30.4199 53.125-35.9863 48.7305-40.332C46.9727-42.041 45.3125-42.9688 43.6523-43.1641C42.9688-42.627 42.0898-41.6992 41.748-40.6738C43.7012-40.6738 45.3613-40.0391 46.875-38.4277C50.0977-35.3516 49.8535-31.1523 46.2402-27.5879L38.7207-20.166C35.2051-16.5527 31.1035-16.4062 27.9785-19.5312C24.8047-22.6562 24.9512-26.8066 28.5645-30.2734L34.5215-36.2793C34.2285-37.3047 34.2773-38.7695 34.9121-40.332L26.7578-32.1777C22.0215-27.4414 21.6797-21.9238 26.0742-17.627Z"/>
  </g>
  <g id="Ultralight-S" transform="matrix(1 0 0 1 515.644 696)">
   <path d="M44.043 1.95312C64.502 1.95312 81.2988-14.7949 81.2988-35.2539C81.2988-55.7129 64.502-72.4609 44.043-72.4609C23.584-72.4609 6.83594-55.7129 6.83594-35.2539C6.83594-14.7949 23.584 1.95312 44.043 1.95312ZM44.043-0.244141C24.7559-0.244141 9.08203-15.9668 9.08203-35.2539C9.08203-54.541 24.7559-70.2637 44.043-70.2637C63.3789-70.2637 79.0527-54.541 79.0527-35.2539C79.0527-15.9668 63.3789-0.244141 44.043-0.244141ZM60.791-52.8809C56.543-56.9824 51.3184-56.7383 46.9238-52.3438L38.8672-44.3848C34.375-39.9414 34.1797-34.5215 38.3789-30.4199C40.2832-28.5645 42.041-27.6367 43.8965-27.4414C44.4336-27.8809 45.166-28.5645 45.4102-29.4922C43.3594-29.3945 41.6016-30.0781 39.8438-31.9336C36.5723-35.0586 36.6699-39.3555 40.2344-42.7734L48.4375-50.9766C51.9043-54.4922 56.0547-54.5898 59.2285-51.3672C62.5-48.1934 62.4512-43.9453 58.8867-40.5762L52.1973-33.7891C52.2949-32.9102 52.1973-31.7383 51.5625-30.3223L60.2539-38.9648C64.6973-43.4082 64.9902-48.7793 60.791-52.8809ZM25.6836-17.7734C29.8828-13.623 35.1074-13.916 39.5508-18.3105L47.6074-26.2695C52.0508-30.7129 52.2949-36.1328 48.0957-40.1855C46.1914-42.0898 44.4336-43.0176 42.5781-43.2129C41.9922-42.7734 41.3086-42.041 41.0156-41.1621C43.1152-41.2109 44.8242-40.5762 46.582-38.7207C49.9023-35.5957 49.7559-31.2988 46.2402-27.8809L37.9883-19.6777C34.5703-16.1621 30.3711-16.0645 27.1973-19.2871C23.9746-22.4609 24.0234-26.709 27.5391-30.0781L34.2773-36.8652C34.1309-37.7441 34.2285-38.916 34.8633-40.332L26.1719-31.6406C21.7285-27.2461 21.4844-21.875 25.6836-17.7734Z"/>
  </g>
 </g>
</svg>
