<?xml version="1.0" encoding="UTF-8"?>
<!--Generator: Apple Native CoreSVG 149-->
<!DOCTYPE svg
PUBLIC "-//W3C//DTD SVG 1.1//EN"
       "http://www.w3.org/Graphics/SVG/1.1/DTD/svg11.dtd">
<svg version="1.1" xmlns="http://www.w3.org/2000/svg" xmlns:xlink="http://www.w3.org/1999/xlink" width="3300" height="2200">
 <!--glyph: "uni1007FF.medium", point size: 100.000000, font version: "Version 16.0d18e1", template writer version: "8"-->
 <g id="Notes">
  <rect height="2200" id="artboard" style="fill:white;opacity:1" width="3300" x="0" y="0"/>
  <line id="" style="fill:none;stroke:black;opacity:1;stroke-width:0.5;" x1="263" x2="3036" y1="292" y2="292"/>
  <text style="stroke:none;fill:black;font-family:-apple-system,&quot;SF Pro Display&quot;,&quot;SF Pro Text&quot;,Helvetica,sans-serif;font-weight:bold;" transform="matrix(1 0 0 1 263 322)">Weight/Scale Variations</text>
  <text style="stroke:none;fill:black;font-family:-apple-system,&quot;SF Pro Display&quot;,&quot;SF Pro Text&quot;,Helvetica,sans-serif;text-anchor:middle;" transform="matrix(1 0 0 1 559.711 322)">Ultralight</text>
  <text style="stroke:none;fill:black;font-family:-apple-system,&quot;SF Pro Display&quot;,&quot;SF Pro Text&quot;,Helvetica,sans-serif;text-anchor:middle;" transform="matrix(1 0 0 1 856.422 322)">Thin</text>
  <text style="stroke:none;fill:black;font-family:-apple-system,&quot;SF Pro Display&quot;,&quot;SF Pro Text&quot;,Helvetica,sans-serif;text-anchor:middle;" transform="matrix(1 0 0 1 1153.13 322)">Light</text>
  <text style="stroke:none;fill:black;font-family:-apple-system,&quot;SF Pro Display&quot;,&quot;SF Pro Text&quot;,Helvetica,sans-serif;text-anchor:middle;" transform="matrix(1 0 0 1 1449.84 322)">Regular</text>
  <text style="stroke:none;fill:black;font-family:-apple-system,&quot;SF Pro Display&quot;,&quot;SF Pro Text&quot;,Helvetica,sans-serif;text-anchor:middle;" transform="matrix(1 0 0 1 1746.56 322)">Medium</text>
  <text style="stroke:none;fill:black;font-family:-apple-system,&quot;SF Pro Display&quot;,&quot;SF Pro Text&quot;,Helvetica,sans-serif;text-anchor:middle;" transform="matrix(1 0 0 1 2043.27 322)">Semibold</text>
  <text style="stroke:none;fill:black;font-family:-apple-system,&quot;SF Pro Display&quot;,&quot;SF Pro Text&quot;,Helvetica,sans-serif;text-anchor:middle;" transform="matrix(1 0 0 1 2339.98 322)">Bold</text>
  <text style="stroke:none;fill:black;font-family:-apple-system,&quot;SF Pro Display&quot;,&quot;SF Pro Text&quot;,Helvetica,sans-serif;text-anchor:middle;" transform="matrix(1 0 0 1 2636.69 322)">Heavy</text>
  <text style="stroke:none;fill:black;font-family:-apple-system,&quot;SF Pro Display&quot;,&quot;SF Pro Text&quot;,Helvetica,sans-serif;text-anchor:middle;" transform="matrix(1 0 0 1 2933.4 322)">Black</text>
  <line id="" style="fill:none;stroke:black;opacity:1;stroke-width:0.5;" x1="263" x2="3036" y1="1903" y2="1903"/>
  <g id="" transform="matrix(1 0 0 1 263 1933)">
   <path d="M9.24805 0.830078C13.5547 0.830078 17.1387-2.74414 17.1387-7.05078C17.1387-11.3574 13.5449-14.9316 9.23828-14.9316C4.94141-14.9316 1.36719-11.3574 1.36719-7.05078C1.36719-2.74414 4.95117 0.830078 9.24805 0.830078ZM9.24805-0.654297C5.70312-0.654297 2.87109-3.49609 2.87109-7.05078C2.87109-10.6055 5.69336-13.4473 9.23828-13.4473C12.793-13.4473 15.6348-10.6055 15.6445-7.05078C15.6543-3.49609 12.8027-0.654297 9.24805-0.654297ZM6.39648-6.31836L8.50586-6.31836L8.50586-4.19922C8.50586-3.75977 8.79883-3.45703 9.22852-3.45703C9.67773-3.45703 9.9707-3.75977 9.9707-4.19922L9.9707-6.31836L12.0996-6.31836C12.5391-6.31836 12.8418-6.61133 12.8418-7.04102C12.8418-7.48047 12.5391-7.7832 12.0996-7.7832L9.9707-7.7832L9.9707-9.89258C9.9707-10.3418 9.67773-10.6445 9.22852-10.6445C8.79883-10.6445 8.50586-10.3418 8.50586-9.89258L8.50586-7.7832L6.39648-7.7832C5.94727-7.7832 5.64453-7.48047 5.64453-7.04102C5.64453-6.61133 5.94727-6.31836 6.39648-6.31836Z"/>
  </g>
  <g id="" transform="matrix(1 0 0 1 281.506 1933)">
   <path d="M11.709 2.91016C17.1582 2.91016 21.6699-1.61133 21.6699-7.05078C21.6699-12.5 17.1484-17.0117 11.6992-17.0117C6.25977-17.0117 1.74805-12.5 1.74805-7.05078C1.74805-1.61133 6.26953 2.91016 11.709 2.91016ZM11.709 1.25C7.09961 1.25 3.41797-2.44141 3.41797-7.05078C3.41797-11.6602 7.08984-15.3516 11.6992-15.3516C16.3086-15.3516 20-11.6602 20.0098-7.05078C20.0195-2.44141 16.3184 1.25 11.709 1.25ZM7.98828-6.23047L10.8789-6.23047L10.8789-3.32031C10.8789-2.83203 11.2109-2.5 11.6895-2.5C12.1777-2.5 12.5195-2.83203 12.5195-3.32031L12.5195-6.23047L15.4297-6.23047C15.918-6.23047 16.25-6.5625 16.25-7.04102C16.25-7.5293 15.918-7.87109 15.4297-7.87109L12.5195-7.87109L12.5195-10.7617C12.5195-11.2695 12.1777-11.6016 11.6895-11.6016C11.2109-11.6016 10.8789-11.2598 10.8789-10.7617L10.8789-7.87109L7.98828-7.87109C7.48047-7.87109 7.14844-7.5293 7.14844-7.04102C7.14844-6.5625 7.49023-6.23047 7.98828-6.23047Z"/>
  </g>
  <g id="" transform="matrix(1 0 0 1 304.924 1933)">
   <path d="M14.9707 5.66406C21.9336 5.66406 27.6953-0.0976562 27.6953-7.05078C27.6953-14.0137 21.9238-19.7754 14.9609-19.7754C8.00781-19.7754 2.25586-14.0137 2.25586-7.05078C2.25586-0.0976562 8.01758 5.66406 14.9707 5.66406ZM14.9707 3.84766C8.93555 3.84766 4.08203-1.01562 4.08203-7.05078C4.08203-13.0957 8.92578-17.9492 14.9609-17.9492C21.0059-17.9492 25.8594-13.0957 25.8691-7.05078C25.8789-1.01562 21.0156 3.84766 14.9707 3.84766ZM10.0586-6.14258L14.0625-6.14258L14.0625-2.12891C14.0625-1.5918 14.4336-1.2207 14.9512-1.2207C15.4883-1.2207 15.8594-1.5918 15.8594-2.12891L15.8594-6.14258L19.8828-6.14258C20.4102-6.14258 20.791-6.51367 20.791-7.03125C20.791-7.56836 20.4199-7.94922 19.8828-7.94922L15.8594-7.94922L15.8594-11.9531C15.8594-12.5098 15.4883-12.8809 14.9512-12.8809C14.4336-12.8809 14.0625-12.5 14.0625-11.9531L14.0625-7.94922L10.0586-7.94922C9.50195-7.94922 9.13086-7.56836 9.13086-7.03125C9.13086-6.51367 9.51172-6.14258 10.0586-6.14258Z"/>
  </g>
  <text style="stroke:none;fill:black;font-family:-apple-system,&quot;SF Pro Display&quot;,&quot;SF Pro Text&quot;,Helvetica,sans-serif;font-weight:bold;" transform="matrix(1 0 0 1 263 1953)">Design Variations</text>
  <text style="stroke:none;fill:black;font-family:-apple-system,&quot;SF Pro Display&quot;,&quot;SF Pro Text&quot;,Helvetica,sans-serif;" transform="matrix(1 0 0 1 263 1971)">Symbols are supported in up to nine weights and three scales.</text>
  <text style="stroke:none;fill:black;font-family:-apple-system,&quot;SF Pro Display&quot;,&quot;SF Pro Text&quot;,Helvetica,sans-serif;" transform="matrix(1 0 0 1 263 1989)">For optimal layout with text and other symbols, vertically align</text>
  <text style="stroke:none;fill:black;font-family:-apple-system,&quot;SF Pro Display&quot;,&quot;SF Pro Text&quot;,Helvetica,sans-serif;" transform="matrix(1 0 0 1 263 2007)">symbols with the adjacent text.</text>
  <line id="" style="fill:none;stroke:#00AEEF;stroke-width:0.5;opacity:1.0;" x1="776" x2="776" y1="1919" y2="1933"/>
  <g id="" transform="matrix(1 0 0 1 776 1933)">
   <path d="M3.31055 0.126953C3.82812 0.126953 4.08203-0.0683594 4.26758-0.605469L5.52734-4.0625L11.2891-4.0625L12.5488-0.605469C12.7344-0.0683594 12.9883 0.126953 13.4961 0.126953C14.0137 0.126953 14.3457-0.185547 14.3457-0.673828C14.3457-0.839844 14.3164-0.986328 14.2383-1.20117L9.6582-13.3887C9.43359-13.9941 9.0332-14.2871 8.4082-14.2871C7.80273-14.2871 7.39258-13.9941 7.17773-13.3984L2.59766-1.19141C2.51953-0.976562 2.49023-0.830078 2.49023-0.664062C2.49023-0.175781 2.80273 0.126953 3.31055 0.126953ZM6.00586-5.53711L8.37891-12.1094L8.42773-12.1094L10.8008-5.53711Z"/>
  </g>
  <line id="" style="fill:none;stroke:#00AEEF;stroke-width:0.5;opacity:1.0;" x1="792.836" x2="792.836" y1="1919" y2="1933"/>
  <text style="stroke:none;fill:black;font-family:-apple-system,&quot;SF Pro Display&quot;,&quot;SF Pro Text&quot;,Helvetica,sans-serif;font-weight:bold;" transform="matrix(1 0 0 1 776 1953)">Margins</text>
  <text style="stroke:none;fill:black;font-family:-apple-system,&quot;SF Pro Display&quot;,&quot;SF Pro Text&quot;,Helvetica,sans-serif;" transform="matrix(1 0 0 1 776 1971)">Leading and trailing margins on the left and right side of each symbol</text>
  <text style="stroke:none;fill:black;font-family:-apple-system,&quot;SF Pro Display&quot;,&quot;SF Pro Text&quot;,Helvetica,sans-serif;" transform="matrix(1 0 0 1 776 1989)">can be adjusted by modifying the x-location of the margin guidelines.</text>
  <text style="stroke:none;fill:black;font-family:-apple-system,&quot;SF Pro Display&quot;,&quot;SF Pro Text&quot;,Helvetica,sans-serif;" transform="matrix(1 0 0 1 776 2007)">Modifications are automatically applied proportionally to all</text>
  <text style="stroke:none;fill:black;font-family:-apple-system,&quot;SF Pro Display&quot;,&quot;SF Pro Text&quot;,Helvetica,sans-serif;" transform="matrix(1 0 0 1 776 2025)">scales and weights.</text>
  <g id="" transform="matrix(1 0 0 1 1289 1933)">
   <path d="M2.8418 1.86523L4.54102 3.57422C5.40039 4.44336 6.38672 4.38477 7.31445 3.35938L17.4902-7.85156C17.7539-7.76367 18.0273-7.7832 18.3398-7.8418L19.4043-8.03711L20.0684-7.36328L20.0293-6.80664C19.9902-6.30859 20.1172-5.92773 20.6055-5.44922L21.3672-4.70703C21.8457-4.22852 22.4609-4.19922 22.9297-4.66797L25.8398-7.58789C26.3086-8.05664 26.2891-8.65234 25.8105-9.13086L25.0391-9.89258C24.5605-10.3711 24.1895-10.5273 23.7109-10.4883L23.1348-10.4395L22.4902-11.0742L22.7344-12.1973C22.8613-12.7637 22.7051-13.2031 22.1191-13.7891L19.9219-15.9766C16.582-19.2969 12.1484-19.2188 9.25781-16.3281C8.83789-15.918 8.80859-15.3418 9.04297-14.9512C9.27734-14.5898 9.73633-14.3555 10.3809-14.5215C11.8457-14.8633 13.3691-14.9219 14.7949-13.9844L14.209-12.5293C14.0137-12.0508 13.9844-11.6504 14.1113-11.2891L3.04688-0.898438C2.06055 0.0195312 1.98242 0.996094 2.8418 1.86523ZM10.752-15.957C13.1836-17.7344 16.4746-17.4316 18.7012-15.2051L21.1328-12.793C21.3672-12.5586 21.4062-12.373 21.3379-12.0312L21.0156-10.5469L22.5195-9.0625L23.5059-9.12109C23.7598-9.13086 23.8379-9.11133 24.0332-8.91602L24.6094-8.33984L22.168-5.89844L21.5918-6.47461C21.3965-6.66992 21.3672-6.74805 21.377-7.01172L21.4453-7.98828L19.9512-9.47266L18.4277-9.21875C18.1055-9.15039 17.959-9.17969 17.7148-9.41406L15.7129-11.416C15.459-11.6504 15.4297-11.8164 15.5859-12.1875L16.4648-14.2773C14.9023-15.7324 12.8711-16.3574 10.8398-15.7617C10.6836-15.7227 10.625-15.8496 10.752-15.957ZM5.27344 2.30469L4.10156 1.14258C3.63281 0.683594 3.74023 0.341797 4.14062-0.0195312L14.9512-10.1953L16.416-8.71094L6.42578 2.27539C6.07422 2.67578 5.74219 2.77344 5.27344 2.30469Z"/>
  </g>
  <text style="stroke:none;fill:black;font-family:-apple-system,&quot;SF Pro Display&quot;,&quot;SF Pro Text&quot;,Helvetica,sans-serif;font-weight:bold;" transform="matrix(1 0 0 1 1289 1953)">Exporting</text>
  <text style="stroke:none;fill:black;font-family:-apple-system,&quot;SF Pro Display&quot;,&quot;SF Pro Text&quot;,Helvetica,sans-serif;" transform="matrix(1 0 0 1 1289 1971)">Symbols should be outlined when exporting to ensure the</text>
  <text style="stroke:none;fill:black;font-family:-apple-system,&quot;SF Pro Display&quot;,&quot;SF Pro Text&quot;,Helvetica,sans-serif;" transform="matrix(1 0 0 1 1289 1989)">design is preserved when submitting to Xcode.</text>
  <text id="template-version" style="stroke:none;fill:black;font-family:-apple-system,&quot;SF Pro Display&quot;,&quot;SF Pro Text&quot;,Helvetica,sans-serif;text-anchor:end;" transform="matrix(1 0 0 1 3036 1933)">Template v.2.0</text>
  <text style="stroke:none;fill:black;font-family:-apple-system,&quot;SF Pro Display&quot;,&quot;SF Pro Text&quot;,Helvetica,sans-serif;text-anchor:end;" transform="matrix(1 0 0 1 3036 1951)">Requires Xcode 12 or greater</text>
  <text style="stroke:none;fill:black;font-family:-apple-system,&quot;SF Pro Display&quot;,&quot;SF Pro Text&quot;,Helvetica,sans-serif;text-anchor:end;" transform="matrix(1 0 0 1 3036 1969)">Generated from wallet.pass.fill</text>
  <text style="stroke:none;fill:black;font-family:-apple-system,&quot;SF Pro Display&quot;,&quot;SF Pro Text&quot;,Helvetica,sans-serif;text-anchor:end;" transform="matrix(1 0 0 1 3036 1987)">Typeset at 100 points</text>
  <text style="stroke:none;fill:black;font-family:-apple-system,&quot;SF Pro Display&quot;,&quot;SF Pro Text&quot;,Helvetica,sans-serif;" transform="matrix(1 0 0 1 263 726)">Small</text>
  <text style="stroke:none;fill:black;font-family:-apple-system,&quot;SF Pro Display&quot;,&quot;SF Pro Text&quot;,Helvetica,sans-serif;" transform="matrix(1 0 0 1 263 1156)">Medium</text>
  <text style="stroke:none;fill:black;font-family:-apple-system,&quot;SF Pro Display&quot;,&quot;SF Pro Text&quot;,Helvetica,sans-serif;" transform="matrix(1 0 0 1 263 1586)">Large</text>
 </g>
 <g id="Guides">
  <g id="H-reference" style="fill:#27AAE1;stroke:none;" transform="matrix(1 0 0 1 339 696)">
   <path d="M0.976562 0L3.66211 0L12.9883-24.4629L45.752-24.4629L55.127 0L57.7637 0L30.6152-70.459L28.125-70.459ZM29.3457-67.1387L29.4434-67.1387L44.873-26.709L13.8672-26.709Z"/>
  </g>
  <line id="Baseline-S" style="fill:none;stroke:#27AAE1;opacity:1;stroke-width:0.5;" x1="263" x2="3036" y1="696" y2="696"/>
  <line id="Capline-S" style="fill:none;stroke:#27AAE1;opacity:1;stroke-width:0.5;" x1="263" x2="3036" y1="625.541" y2="625.541"/>
  <g id="H-reference" style="fill:#27AAE1;stroke:none;" transform="matrix(1 0 0 1 339 1126)">
   <path d="M0.976562 0L3.66211 0L12.9883-24.4629L45.752-24.4629L55.127 0L57.7637 0L30.6152-70.459L28.125-70.459ZM29.3457-67.1387L29.4434-67.1387L44.873-26.709L13.8672-26.709Z"/>
  </g>
  <line id="Baseline-M" style="fill:none;stroke:#27AAE1;opacity:1;stroke-width:0.5;" x1="263" x2="3036" y1="1126" y2="1126"/>
  <line id="Capline-M" style="fill:none;stroke:#27AAE1;opacity:1;stroke-width:0.5;" x1="263" x2="3036" y1="1055.54" y2="1055.54"/>
  <g id="H-reference" style="fill:#27AAE1;stroke:none;" transform="matrix(1 0 0 1 339 1556)">
   <path d="M0.976562 0L3.66211 0L12.9883-24.4629L45.752-24.4629L55.127 0L57.7637 0L30.6152-70.459L28.125-70.459ZM29.3457-67.1387L29.4434-67.1387L44.873-26.709L13.8672-26.709Z"/>
  </g>
  <line id="Baseline-L" style="fill:none;stroke:#27AAE1;opacity:1;stroke-width:0.5;" x1="263" x2="3036" y1="1556" y2="1556"/>
  <line id="Capline-L" style="fill:none;stroke:#27AAE1;opacity:1;stroke-width:0.5;" x1="263" x2="3036" y1="1485.54" y2="1485.54"/>
  <line id="left-margin" style="fill:none;stroke:#00AEEF;stroke-width:0.5;opacity:1.0;" x1="1396.33" x2="1396.33" y1="1030.79" y2="1150.12"/>
  <line id="right-margin" style="fill:none;stroke:#00AEEF;stroke-width:0.5;opacity:1.0;" x1="1503.36" x2="1503.36" y1="1030.79" y2="1150.12"/>
 </g>
 <g id="Symbols">
  <g id="Black-L" transform="matrix(1 0 0 1 2859.65 1556)">
   <path d="M39.8926 35.2539L107.617 35.2539C122.803 35.2539 131.445 26.5625 131.445 11.3281L131.445-81.7383C131.445-97.0215 122.803-105.664 107.617-105.664L94.3848-105.664C90.7715-105.664 88.916-102.881 88.916-99.8535L88.916-98.291C88.916-89.7949 83.2031-84.8145 73.7793-84.8145C64.3066-84.8145 58.5938-89.7949 58.5938-98.291L58.5938-99.8535C58.5938-102.881 56.7383-105.664 53.125-105.664L39.8926-105.664C24.707-105.664 16.0645-97.0215 16.0645-81.7383L16.0645 11.3281C16.0645 26.5625 24.707 35.2539 39.8926 35.2539ZM52.9297-52.4902C50.1953-52.4902 48.1934-54.541 48.1934-57.2266C48.1934-59.8145 50.1953-61.8164 52.9297-61.8164L94.5312-61.8164C97.168-61.8164 99.2188-59.8145 99.2188-57.2266C99.2188-54.541 97.168-52.4902 94.5312-52.4902ZM52.9297-30.6152C50.1953-30.6152 48.1934-32.5684 48.1934-35.2051C48.1934-37.8906 50.1953-39.9414 52.9297-39.9414L74.6582-39.9414C77.3926-39.9414 79.3457-37.8906 79.3457-35.2051C79.3457-32.5684 77.3926-30.6152 74.6582-30.6152Z"/>
  </g>
  <g id="Heavy-L" transform="matrix(1 0 0 1 2564.18 1556)">
   <path d="M38.7207 34.4727L106.348 34.4727C120.85 34.4727 128.955 26.3672 128.955 11.7188L128.955-82.1777C128.955-96.7773 120.898-104.932 106.348-104.932L92.2852-104.932C89.1113-104.932 87.4023-102.49 87.4023-99.707L87.4023-98.3398C87.4023-89.9414 81.6895-84.9609 72.5098-84.9609C63.3301-84.9609 57.6172-89.9414 57.6172-98.3398L57.6172-99.707C57.6172-102.49 55.9082-104.932 52.7344-104.932L38.7207-104.932C24.1211-104.932 16.0645-96.7773 16.0645-82.1777L16.0645 11.7188C16.0645 26.3672 24.1699 34.4727 38.7207 34.4727ZM50.8301-53.5156C48.291-53.5156 46.3867-55.4199 46.3867-57.959C46.3867-60.4004 48.291-62.2559 50.8301-62.2559L94.1895-62.2559C96.6309-62.2559 98.5352-60.4004 98.5352-57.959C98.5352-55.4199 96.6309-53.5156 94.1895-53.5156ZM50.8301-31.4453C48.291-31.4453 46.3867-33.3008 46.3867-35.7422C46.3867-38.2324 48.291-40.1855 50.8301-40.1855L72.998-40.1855C75.4883-40.1855 77.3438-38.2324 77.3438-35.7422C77.3438-33.3008 75.4883-31.4453 72.998-31.4453Z"/>
  </g>
  <g id="Bold-L" transform="matrix(1 0 0 1 2268.86 1556)">
   <path d="M37.4023 33.6426L104.883 33.6426C118.652 33.6426 126.172 26.123 126.172 12.207L126.172-82.6172C126.172-96.582 118.701-104.053 104.883-104.053L89.9414-104.053C87.207-104.053 85.6934-102.051 85.6934-99.5605L85.6934-98.4375C85.6934-90.1367 79.9805-85.0586 71.1426-85.0586C62.2559-85.0586 56.543-90.1367 56.543-98.4375L56.543-99.5605C56.543-102.051 55.0293-104.053 52.2949-104.053L37.4023-104.053C23.5352-104.053 16.0645-96.582 16.0645-82.6172L16.0645 12.207C16.0645 26.123 23.584 33.6426 37.4023 33.6426ZM48.4863-54.6875C46.1426-54.6875 44.3848-56.4453 44.3848-58.7891C44.3848-61.0352 46.1426-62.7441 48.4863-62.7441L93.75-62.7441C96.0449-62.7441 97.8027-61.0352 97.8027-58.7891C97.8027-56.4453 96.0449-54.6875 93.75-54.6875ZM48.4863-32.373C46.1426-32.373 44.3848-34.082 44.3848-36.3281C44.3848-38.6719 46.1426-40.4297 48.4863-40.4297L71.0938-40.4297C73.3887-40.4297 75.1465-38.6719 75.1465-36.3281C75.1465-34.082 73.3887-32.373 71.0938-32.373Z"/>
  </g>
  <g id="Semibold-L" transform="matrix(1 0 0 1 1973.1 1556)">
   <path d="M36.4746 33.0566L103.857 33.0566C117.139 33.0566 124.268 25.9277 124.268 12.5L124.268-82.9102C124.268-96.3867 117.188-103.516 103.857-103.516L88.3301-103.516C85.9375-103.516 84.5215-101.758 84.5215-99.4629L84.5215-98.4863C84.5215-90.2832 78.8574-85.1562 70.166-85.1562C61.4746-85.1562 55.8105-90.2832 55.8105-98.4863L55.8105-99.4629C55.8105-101.758 54.3945-103.516 52.002-103.516L36.4746-103.516C23.0957-103.516 16.0645-96.3867 16.0645-82.9102L16.0645 12.5C16.0645 25.9277 23.1445 33.0566 36.4746 33.0566ZM46.875-55.4688C44.6777-55.4688 43.0176-57.1777 43.0176-59.3262C43.0176-61.4746 44.6777-63.0859 46.875-63.0859L93.457-63.0859C95.6055-63.0859 97.2656-61.4746 97.2656-59.3262C97.2656-57.1777 95.6055-55.4688 93.457-55.4688ZM46.875-33.0078C44.6777-33.0078 43.0176-34.668 43.0176-36.7676C43.0176-38.916 44.6777-40.625 46.875-40.625L69.7754-40.625C71.9727-40.625 73.584-38.916 73.584-36.7676C73.584-34.668 71.9727-33.0078 69.7754-33.0078Z"/>
  </g>
  <g id="Medium-L" transform="matrix(1 0 0 1 1677.12 1556)">
   <path d="M35.791 32.666L103.076 32.666C116.016 32.666 122.803 25.8301 122.803 12.7441L122.803-83.1543C122.803-96.2891 116.064-103.076 103.076-103.076L87.1094-103.076C84.9609-103.076 83.6426-101.514 83.6426-99.4141L83.6426-98.4863C83.6426-90.3809 77.9297-85.2539 69.4336-85.2539C60.8887-85.2539 55.2246-90.3809 55.2246-98.4863L55.2246-99.4141C55.2246-101.514 53.9062-103.076 51.7578-103.076L35.791-103.076C22.8027-103.076 16.0645-96.2891 16.0645-83.1543L16.0645 12.7441C16.0645 25.8301 22.8516 32.666 35.791 32.666ZM45.6543-56.1035C43.5547-56.1035 41.9922-57.666 41.9922-59.7656C41.9922-61.8164 43.5547-63.3789 45.6543-63.3789L93.2617-63.3789C95.3125-63.3789 96.875-61.8164 96.875-59.7656C96.875-57.666 95.3125-56.1035 93.2617-56.1035ZM45.6543-33.4961C43.5547-33.4961 41.9922-35.0586 41.9922-37.0605C41.9922-39.1602 43.5547-40.7715 45.6543-40.7715L68.7988-40.7715C70.8496-40.7715 72.4121-39.1602 72.4121-37.0605C72.4121-35.0586 70.8496-33.4961 68.7988-33.4961Z"/>
  </g>
  <g id="Regular-L" transform="matrix(1 0 0 1 1381.36 1556)">
   <path d="M34.8633 32.0801L102.1 32.0801C114.502 32.0801 120.898 25.6348 120.898 13.0859L120.898-83.4961C120.898-96.1426 114.6-102.49 102.1-102.49L85.498-102.49C83.6914-102.49 82.4707-101.221 82.4707-99.2676L82.4707-98.5352C82.4707-90.4785 76.8066-85.3516 68.5059-85.3516C60.1562-85.3516 54.4922-90.4785 54.4922-98.5352L54.4922-99.2676C54.4922-101.221 53.2715-102.49 51.4648-102.49L34.8633-102.49C22.3633-102.49 16.0645-96.1426 16.0645-83.4961L16.0645 13.0859C16.0645 25.6348 22.4609 32.0801 34.8633 32.0801ZM44.0918-56.8848C42.0898-56.8848 40.625-58.3984 40.625-60.3516C40.625-62.2559 42.0898-63.7207 44.0918-63.7207L92.9688-63.7207C94.873-63.7207 96.3379-62.2559 96.3379-60.3516C96.3379-58.3984 94.873-56.8848 92.9688-56.8848ZM44.0918-34.1309C42.0898-34.1309 40.625-35.5957 40.625-37.5C40.625-39.4043 42.0898-40.918 44.0918-40.918L67.4805-40.918C69.4336-40.918 70.8984-39.4043 70.8984-37.5C70.8984-35.5957 69.4336-34.1309 67.4805-34.1309Z"/>
  </g>
  <g id="Light-L" transform="matrix(1 0 0 1 1085.43 1556)">
   <path d="M33.9355 31.7871L101.514 31.7871C113.184 31.7871 119.336 25.6348 119.336 13.7695L119.336-84.1309C119.336-95.9961 113.281-102.1 101.514-102.1L84.1309-102.1C82.7637-102.1 81.8359-101.123 81.8359-99.6582L81.8359-99.1211C81.8359-91.2109 76.0254-85.7422 67.7246-85.7422C59.375-85.7422 53.5645-91.2109 53.5645-99.1211L53.5645-99.6582C53.5645-101.123 52.6855-102.1 51.2695-102.1L33.9355-102.1C22.1191-102.1 16.0645-95.9961 16.0645-84.1309L16.0645 13.7695C16.0645 25.6348 22.2168 31.7871 33.9355 31.7871ZM42.5781-58.3008C40.9668-58.3008 39.7461-59.4727 39.7461-61.0352C39.7461-62.6465 40.9668-63.7695 42.5781-63.7695L92.9199-63.7695C94.4824-63.7695 95.6543-62.6465 95.6543-61.0352C95.6543-59.4727 94.4824-58.3008 92.9199-58.3008ZM42.5781-35.0098C40.9668-35.0098 39.7461-36.2305 39.7461-37.6953C39.7461-39.2578 40.9668-40.4785 42.5781-40.4785L67.041-40.4785C68.6035-40.4785 69.7754-39.2578 69.7754-37.6953C69.7754-36.2305 68.6035-35.0098 67.041-35.0098Z"/>
  </g>
  <g id="Thin-L" transform="matrix(1 0 0 1 789.747 1556)">
   <path d="M32.666 31.3477L100.732 31.3477C111.426 31.3477 117.285 25.6348 117.285 14.7461L117.285-84.9609C117.285-95.8496 111.572-101.611 100.732-101.611L82.3242-101.611C81.543-101.611 81.0059-101.025 81.0059-100.195L81.0059-99.9023C81.0059-92.1387 75.0488-86.2793 66.6992-86.2793C58.3008-86.2793 52.3438-92.1387 52.3438-99.9023L52.3438-100.195C52.3438-101.025 51.8066-101.611 51.0254-101.611L32.666-101.611C21.7773-101.611 16.0645-95.8496 16.0645-84.9609L16.0645 14.7461C16.0645 25.6348 21.9238 31.3477 32.666 31.3477ZM40.5762-60.1074C39.4531-60.1074 38.623-60.8887 38.623-61.9629C38.623-63.1348 39.4531-63.8672 40.5762-63.8672L92.8711-63.8672C93.8965-63.8672 94.7266-63.1348 94.7266-61.9629C94.7266-60.8887 93.8965-60.1074 92.8711-60.1074ZM40.5762-36.1816C39.4531-36.1816 38.623-37.0117 38.623-37.9883C38.623-39.0137 39.4531-39.8438 40.5762-39.8438L66.4062-39.8438C67.4805-39.8438 68.3105-39.0137 68.3105-37.9883C68.3105-37.0117 67.4805-36.1816 66.4062-36.1816Z"/>
  </g>
  <g id="Ultralight-L" transform="matrix(1 0 0 1 493.549 1556)">
   <path d="M31.9824 31.1523L100.293 31.1523C110.547 31.1523 116.26 25.5859 116.26 15.2344L116.26-85.4004C116.26-95.8008 110.693-101.318 100.293-101.318L81.3965-101.318C80.9082-101.318 80.6152-100.928 80.6152-100.439L80.6152-100.293C80.6152-92.5781 74.5117-86.5723 66.1621-86.5723C57.7637-86.5723 51.709-92.5781 51.709-100.293L51.709-100.439C51.709-100.928 51.416-101.318 50.9277-101.318L31.9824-101.318C21.6309-101.318 16.0645-95.8008 16.0645-85.4004L16.0645 15.2344C16.0645 25.5859 21.7773 31.1523 31.9824 31.1523ZM39.5508-61.0352C38.6719-61.0352 38.0859-61.5723 38.0859-62.4512C38.0859-63.3789 38.6719-63.916 39.5508-63.916L92.8711-63.916C93.6035-63.916 94.2383-63.3789 94.2383-62.4512C94.2383-61.5723 93.6035-61.0352 92.8711-61.0352ZM39.5508-36.7676C38.6719-36.7676 38.0859-37.4023 38.0859-38.1348C38.0859-38.916 38.6719-39.5508 39.5508-39.5508L66.1133-39.5508C66.9434-39.5508 67.5781-38.916 67.5781-38.1348C67.5781-37.4023 66.9434-36.7676 66.1133-36.7676Z"/>
  </g>
  <g id="Black-M" transform="matrix(1 0 0 1 2874.98 1126)">
   <path d="M31.9824 20.2148L84.8633 20.2148C97.1191 20.2148 104.395 12.9395 104.395 0.683594L104.395-71.0938C104.395-83.3496 97.1191-90.625 84.8633-90.625L75.2441-90.625C72.1191-90.625 70.6055-88.1348 70.6055-85.6934L70.6055-84.3262C70.6055-77.6367 66.1133-73.7305 58.4473-73.7305C50.7324-73.7305 46.2402-77.6367 46.2402-84.3262L46.2402-85.6934C46.2402-88.1348 44.7266-90.625 41.6016-90.625L31.9824-90.625C19.7266-90.625 12.4512-83.3496 12.4512-71.0938L12.4512 0.683594C12.4512 12.9395 19.7266 20.2148 31.9824 20.2148ZM43.0176-47.9004C40.918-47.9004 39.3066-49.5605 39.3066-51.6602C39.3066-53.7109 40.918-55.2734 43.0176-55.2734L73.7793-55.2734C75.8301-55.2734 77.4414-53.7109 77.4414-51.6602C77.4414-49.5605 75.8301-47.9004 73.7793-47.9004ZM43.0176-30.957C40.918-30.957 39.3066-32.5195 39.3066-34.5703C39.3066-36.7188 40.918-38.3301 43.0176-38.3301L59.9121-38.3301C62.0605-38.3301 63.623-36.7188 63.623-34.5703C63.623-32.5195 62.0605-30.957 59.9121-30.957Z"/>
  </g>
  <g id="Heavy-M" transform="matrix(1 0 0 1 2579.41 1126)">
   <path d="M30.957 19.4824L83.5938 19.4824C95.3125 19.4824 102.1 12.6953 102.1 0.927734L102.1-71.3379C102.1-83.1543 95.3125-89.8926 83.5938-89.8926L73.3398-89.8926C70.5078-89.8926 69.1406-87.7441 69.1406-85.4492L69.1406-84.2285C69.1406-77.6367 64.6484-73.7305 57.2754-73.7305C49.8535-73.7305 45.4102-77.6367 45.4102-84.2285L45.4102-85.4492C45.4102-87.7441 43.9941-89.8926 41.2109-89.8926L30.957-89.8926C19.1895-89.8926 12.4512-83.1543 12.4512-71.3379L12.4512 0.927734C12.4512 12.6953 19.1895 19.4824 30.957 19.4824ZM41.1621-48.6816C39.1113-48.6816 37.5488-50.2441 37.5488-52.2949C37.5488-54.248 39.1113-55.7617 41.1621-55.7617L73.3398-55.7617C75.3418-55.7617 76.8555-54.248 76.8555-52.2949C76.8555-50.2441 75.3418-48.6816 73.3398-48.6816ZM41.1621-31.6406C39.1113-31.6406 37.5488-33.1543 37.5488-35.1074C37.5488-37.1582 39.1113-38.7207 41.1621-38.7207L58.2031-38.7207C60.2051-38.7207 61.7188-37.1582 61.7188-35.1074C61.7188-33.1543 60.2051-31.6406 58.2031-31.6406Z"/>
  </g>
  <g id="Bold-M" transform="matrix(1 0 0 1 2284 1126)">
   <path d="M29.7852 18.6523L82.1777 18.6523C93.3105 18.6523 99.5117 12.4512 99.5117 1.2207L99.5117-71.6797C99.5117-82.9102 93.3105-89.1113 82.1777-89.1113L71.1426-89.1113C68.75-89.1113 67.4316-87.3047 67.4316-85.2051L67.4316-84.1309C67.4316-77.6367 63.0371-73.7793 55.957-73.7793C48.9258-73.7793 44.4824-77.6367 44.4824-84.1309L44.4824-85.2051C44.4824-87.3047 43.2129-89.1113 40.7715-89.1113L29.7852-89.1113C18.6035-89.1113 12.4512-82.9102 12.4512-71.6797L12.4512 1.2207C12.4512 12.4512 18.6035 18.6523 29.7852 18.6523ZM39.0137-49.5605C37.0605-49.5605 35.6445-51.0742 35.6445-52.9785C35.6445-54.834 37.0605-56.25 39.0137-56.25L72.9004-56.25C74.8047-56.25 76.2695-54.834 76.2695-52.9785C76.2695-51.0742 74.8047-49.5605 72.9004-49.5605ZM39.0137-32.4219C37.0605-32.4219 35.6445-33.8379 35.6445-35.7422C35.6445-37.6465 37.0605-39.1113 39.0137-39.1113L56.25-39.1113C58.1543-39.1113 59.5703-37.6465 59.5703-35.7422C59.5703-33.8379 58.1543-32.4219 56.25-32.4219Z"/>
  </g>
  <g id="Semibold-M" transform="matrix(1 0 0 1 1988.19 1126)">
   <path d="M29.0039 18.1152L81.1523 18.1152C91.9434 18.1152 97.7051 12.2559 97.7051 1.41602L97.7051-71.875C97.7051-82.7637 91.9434-88.5254 81.1523-88.5254L69.6777-88.5254C67.5293-88.5254 66.3086-86.9629 66.3086-85.0098L66.3086-84.082C66.3086-77.6367 61.9141-73.7793 55.0781-73.7793C48.2422-73.7793 43.8477-77.6367 43.8477-84.082L43.8477-85.0098C43.8477-86.9629 42.627-88.5254 40.4785-88.5254L29.0039-88.5254C18.2129-88.5254 12.4512-82.7637 12.4512-71.875L12.4512 1.41602C12.4512 12.2559 18.2129 18.1152 29.0039 18.1152ZM37.5488-50.1953C35.6934-50.1953 34.2773-51.6113 34.2773-53.4668C34.2773-55.2734 35.6934-56.6406 37.5488-56.6406L72.6074-56.6406C74.4141-56.6406 75.8301-55.2734 75.8301-53.4668C75.8301-51.6113 74.4141-50.1953 72.6074-50.1953ZM37.5488-32.959C35.6934-32.959 34.2773-34.3262 34.2773-36.1328C34.2773-37.9883 35.6934-39.4043 37.5488-39.4043L54.8828-39.4043C56.7383-39.4043 58.1543-37.9883 58.1543-36.1328C58.1543-34.3262 56.7383-32.959 54.8828-32.959Z"/>
  </g>
  <g id="Medium-M" transform="matrix(1 0 0 1 1692.16 1126)">
   <path d="M28.3691 17.6758L80.4199 17.6758C90.8691 17.6758 96.3379 12.1582 96.3379 1.61133L96.3379-72.0215C96.3379-82.6172 90.918-88.1348 80.4199-88.1348L68.5059-88.1348C66.6016-88.1348 65.4297-86.7188 65.4297-84.8633L65.4297-84.0332C65.4297-77.6367 61.084-73.8281 54.3945-73.8281C47.7539-73.8281 43.3594-77.6367 43.3594-84.0332L43.3594-84.8633C43.3594-86.7188 42.1875-88.1348 40.2832-88.1348L28.3691-88.1348C17.9199-88.1348 12.4512-82.6172 12.4512-72.0215L12.4512 1.61133C12.4512 12.1582 17.9199 17.6758 28.3691 17.6758ZM36.4746-50.6348C34.6191-50.6348 33.3008-52.002 33.3008-53.8086C33.3008-55.5664 34.6191-56.8848 36.4746-56.8848L72.3633-56.8848C74.1211-56.8848 75.4883-55.5664 75.4883-53.8086C75.4883-52.002 74.1211-50.6348 72.3633-50.6348ZM36.4746-33.3496C34.6191-33.3496 33.3008-34.7168 33.3008-36.4258C33.3008-38.2324 34.6191-39.6484 36.4746-39.6484L53.9062-39.6484C55.6641-39.6484 57.0312-38.2324 57.0312-36.4258C57.0312-34.7168 55.6641-33.3496 53.9062-33.3496Z"/>
  </g>
  <g id="Regular-M" transform="matrix(1 0 0 1 1396.33 1126)">
   <path d="M27.5879 17.0898L79.4434 17.0898C89.502 17.0898 94.5801 11.9629 94.5801 1.80664L94.5801-72.2656C94.5801-82.4707 89.5508-87.5977 79.4434-87.5977L67.041-87.5977C65.3809-87.5977 64.2578-86.4258 64.2578-84.668L64.2578-83.9844C64.2578-77.6367 59.9609-73.8281 53.5156-73.8281C47.0703-73.8281 42.7734-77.6367 42.7734-83.9844L42.7734-84.668C42.7734-86.4258 41.6504-87.5977 39.9902-87.5977L27.5879-87.5977C17.4805-87.5977 12.4512-82.4707 12.4512-72.2656L12.4512 1.80664C12.4512 11.9629 17.5293 17.0898 27.5879 17.0898ZM35.0098-51.2207C33.252-51.2207 31.9824-52.5391 31.9824-54.2969C31.9824-55.957 33.252-57.2754 35.0098-57.2754L72.0703-57.2754C73.7793-57.2754 75.0488-55.957 75.0488-54.2969C75.0488-52.5391 73.7793-51.2207 72.0703-51.2207ZM35.0098-33.8867C33.252-33.8867 31.9824-35.2051 31.9824-36.8652C31.9824-38.5742 33.252-39.8926 35.0098-39.8926L52.5391-39.8926C54.2969-39.8926 55.5664-38.5742 55.5664-36.8652C55.5664-35.2051 54.2969-33.8867 52.5391-33.8867Z"/>
  </g>
  <g id="Light-M" transform="matrix(1 0 0 1 1100.33 1126)">
   <path d="M26.709 16.8457L78.9062 16.8457C88.3301 16.8457 93.1641 11.9629 93.1641 2.44141L93.1641-72.8516C93.1641-82.373 88.3789-87.207 78.9062-87.207L65.8203-87.207C64.5508-87.207 63.7207-86.3281 63.7207-85.0098L63.7207-84.4727C63.7207-78.2715 59.2773-74.1699 52.832-74.1699C46.3867-74.1699 41.9434-78.2715 41.9434-84.4727L41.9434-85.0098C41.9434-86.3281 41.1133-87.207 39.8438-87.207L26.709-87.207C17.2852-87.207 12.4512-82.373 12.4512-72.8516L12.4512 2.44141C12.4512 11.9629 17.334 16.8457 26.709 16.8457ZM33.6426-52.4902C32.2266-52.4902 31.2012-53.5156 31.2012-54.9316C31.2012-56.2988 32.2266-57.3242 33.6426-57.3242L72.0215-57.3242C73.3887-57.3242 74.4629-56.2988 74.4629-54.9316C74.4629-53.5156 73.3887-52.4902 72.0215-52.4902ZM33.6426-34.668C32.2266-34.668 31.2012-35.7422 31.2012-37.0605C31.2012-38.4277 32.2266-39.502 33.6426-39.502L52.1484-39.502C53.5156-39.502 54.5898-38.4277 54.5898-37.0605C54.5898-35.7422 53.5156-34.668 52.1484-34.668Z"/>
  </g>
  <g id="Thin-M" transform="matrix(1 0 0 1 804.518 1126)">
   <path d="M25.5859 16.4551L78.2227 16.4551C86.7188 16.4551 91.3574 11.9141 91.3574 3.27148L91.3574-73.584C91.3574-82.2754 86.8164-86.7676 78.2227-86.7676L64.209-86.7676C63.4277-86.7676 62.9883-86.2305 62.9883-85.4492L62.9883-85.1562C62.9883-79.1016 58.3496-74.6582 51.9043-74.6582C45.4102-74.6582 40.8203-79.1016 40.8203-85.1562L40.8203-85.4492C40.8203-86.2305 40.332-86.7676 39.5996-86.7676L25.5859-86.7676C16.9434-86.7676 12.4512-82.2754 12.4512-73.584L12.4512 3.27148C12.4512 11.9141 17.041 16.4551 25.5859 16.4551ZM31.8848-54.1016C30.9082-54.1016 30.1758-54.7852 30.1758-55.7617C30.1758-56.7383 30.9082-57.4219 31.8848-57.4219L71.9727-57.4219C72.9004-57.4219 73.6328-56.7383 73.6328-55.7617C73.6328-54.7852 72.9004-54.1016 71.9727-54.1016ZM31.8848-35.6934C30.9082-35.6934 30.1758-36.4258 30.1758-37.3047C30.1758-38.2324 30.9082-38.9648 31.8848-38.9648L51.6113-38.9648C52.5391-38.9648 53.2715-38.2324 53.2715-37.3047C53.2715-36.4258 52.5391-35.6934 51.6113-35.6934Z"/>
  </g>
  <g id="Ultralight-M" transform="matrix(1 0 0 1 508.295 1126)">
   <path d="M25 16.2598L77.8809 16.2598C85.9375 16.2598 90.3809 11.9141 90.3809 3.71094L90.3809-73.9746C90.3809-82.1777 86.0352-86.5234 77.8809-86.5234L63.3789-86.5234C62.8906-86.5234 62.5977-86.1816 62.5977-85.6934L62.5977-85.498C62.5977-79.541 57.9102-74.9023 51.416-74.9023C44.9219-74.9023 40.2832-79.541 40.2832-85.498L40.2832-85.6934C40.2832-86.1816 39.9902-86.5234 39.502-86.5234L25-86.5234C16.7969-86.5234 12.4512-82.1777 12.4512-73.9746L12.4512 3.71094C12.4512 11.9141 16.9434 16.2598 25 16.2598ZM30.957-54.9805C30.2246-54.9805 29.6875-55.4199 29.6875-56.1523C29.6875-56.9824 30.2246-57.4707 30.957-57.4707L71.9727-57.4707C72.6562-57.4707 73.1934-56.9824 73.1934-56.1523C73.1934-55.4199 72.6562-54.9805 71.9727-54.9805ZM30.957-36.2305C30.2246-36.2305 29.6875-36.7676 29.6875-37.4512C29.6875-38.1348 30.2246-38.6719 30.957-38.6719L51.3184-38.6719C52.0508-38.6719 52.5879-38.1348 52.5879-37.4512C52.5879-36.7676 52.0508-36.2305 51.3184-36.2305Z"/>
  </g>
  <g id="Black-S" transform="matrix(1 0 0 1 2887.7 696)">
   <path d="M25 8.1543L66.4062 8.1543C75.9766 8.1543 81.6406 2.49023 81.6406-7.08008L81.6406-63.3301C81.6406-72.9004 75.9766-78.5645 66.4062-78.5645L58.8379-78.5645C56.3965-78.5645 55.2246-76.6602 55.2246-74.7559L55.2246-73.6816C55.2246-68.457 51.709-65.3809 45.7031-65.3809C39.6973-65.3809 36.1816-68.457 36.1816-73.6816L36.1816-74.7559C36.1816-76.6602 35.0098-78.5645 32.5684-78.5645L25-78.5645C15.4297-78.5645 9.76562-72.9004 9.76562-63.3301L9.76562-7.08008C9.76562 2.49023 15.4297 8.1543 25 8.1543ZM33.5938-45.2148C31.9336-45.2148 30.6641-46.4844 30.6641-48.1445C30.6641-49.7559 31.9336-50.9766 33.5938-50.9766L57.7637-50.9766C59.375-50.9766 60.6445-49.7559 60.6445-48.1445C60.6445-46.4844 59.375-45.2148 57.7637-45.2148ZM33.5938-31.9336C31.9336-31.9336 30.6641-33.1543 30.6641-34.7656C30.6641-36.4258 31.9336-37.6953 33.5938-37.6953L46.8262-37.6953C48.4863-37.6953 49.707-36.4258 49.707-34.7656C49.707-33.1543 48.4863-31.9336 46.8262-31.9336Z"/>
  </g>
  <g id="Heavy-S" transform="matrix(1 0 0 1 2591.79 696)">
   <path d="M24.3164 7.61719L65.4785 7.61719C74.7559 7.61719 80.0293 2.29492 80.0293-6.93359L80.0293-63.4766C80.0293-72.7539 74.7559-78.0762 65.4785-78.0762L57.4707-78.0762C55.2734-78.0762 54.1504-76.3672 54.1504-74.5117L54.1504-73.584C54.1504-68.4082 50.6836-65.3809 44.873-65.3809C39.1113-65.3809 35.6445-68.4082 35.6445-73.584L35.6445-74.5117C35.6445-76.3672 34.5215-78.0762 32.2754-78.0762L24.3164-78.0762C15.0391-78.0762 9.76562-72.7539 9.76562-63.4766L9.76562-6.93359C9.76562 2.29492 15.0391 7.61719 24.3164 7.61719ZM32.2754-45.6543C30.6641-45.6543 29.4434-46.9238 29.4434-48.5352C29.4434-50.1465 30.6641-51.3184 32.2754-51.3184L57.4707-51.3184C59.0332-51.3184 60.3027-50.1465 60.3027-48.5352C60.3027-46.9238 59.0332-45.6543 57.4707-45.6543ZM32.2754-32.373C30.6641-32.373 29.4434-33.5938 29.4434-35.1562C29.4434-36.7676 30.6641-38.0371 32.2754-38.0371L45.5566-38.0371C47.168-38.0371 48.3887-36.7676 48.3887-35.1562C48.3887-33.5938 47.168-32.373 45.5566-32.373Z"/>
  </g>
  <g id="Bold-S" transform="matrix(1 0 0 1 2295.98 696)">
   <path d="M23.5352 7.03125L64.4531 7.03125C73.3398 7.03125 78.2227 2.09961 78.2227-6.78711L78.2227-63.623C78.2227-72.6074 73.3398-77.4902 64.4531-77.4902L56.0059-77.4902C54.0039-77.4902 52.9297-76.0254 52.9297-74.2676L52.9297-73.4375C52.9297-68.3105 49.5117-65.332 43.9941-65.332C38.4766-65.332 35.0586-68.3105 35.0586-73.4375L35.0586-74.2676C35.0586-76.0254 33.9844-77.4902 31.9824-77.4902L23.5352-77.4902C14.6484-77.4902 9.76562-72.6074 9.76562-63.623L9.76562-6.78711C9.76562 2.09961 14.6484 7.03125 23.5352 7.03125ZM30.8594-46.1914C29.248-46.1914 28.0273-47.4121 28.0273-49.0234C28.0273-50.5371 29.248-51.709 30.8594-51.709L57.1289-51.709C58.6914-51.709 59.9121-50.5371 59.9121-49.0234C59.9121-47.4121 58.6914-46.1914 57.1289-46.1914ZM30.8594-32.8613C29.248-32.8613 28.0273-34.0332 28.0273-35.5957C28.0273-37.1582 29.248-38.3789 30.8594-38.3789L44.0918-38.3789C45.7031-38.3789 46.875-37.1582 46.875-35.5957C46.875-34.0332 45.7031-32.8613 44.0918-32.8613Z"/>
  </g>
  <g id="Semibold-S" transform="matrix(1 0 0 1 1999.91 696)">
   <path d="M22.998 6.64062L63.7695 6.64062C72.3633 6.64062 76.9531 2.00195 76.9531-6.68945L76.9531-63.7695C76.9531-72.5098 72.4121-77.0996 63.7695-77.0996L54.9316-77.0996C53.125-77.0996 52.0996-75.7812 52.0996-74.0723L52.0996-73.3398C52.0996-68.2617 48.7305-65.332 43.3594-65.332C38.0371-65.332 34.6191-68.2617 34.6191-73.3398L34.6191-74.0723C34.6191-75.7812 33.5938-77.0996 31.7871-77.0996L22.998-77.0996C14.3555-77.0996 9.76562-72.5098 9.76562-63.7695L9.76562-6.68945C9.76562 2.00195 14.3555 6.64062 22.998 6.64062ZM29.834-46.5332C28.2715-46.5332 27.0996-47.7539 27.0996-49.3164C27.0996-50.8301 28.2715-52.002 29.834-52.002L56.8848-52.002C58.4473-52.002 59.6191-50.8301 59.6191-49.3164C59.6191-47.7539 58.4473-46.5332 56.8848-46.5332ZM29.834-33.2031C28.2715-33.2031 27.0996-34.375 27.0996-35.8887C27.0996-37.4512 28.2715-38.6719 29.834-38.6719L43.1152-38.6719C44.6777-38.6719 45.8496-37.4512 45.8496-35.8887C45.8496-34.375 44.6777-33.2031 43.1152-33.2031Z"/>
  </g>
  <g id="Medium-S" transform="matrix(1 0 0 1 1703.66 696)">
   <path d="M22.5586 6.29883L63.2324 6.29883C71.6797 6.29883 76.0254 1.9043 76.0254-6.64062L76.0254-63.8672C76.0254-72.4121 71.6797-76.8066 63.2324-76.8066L54.1504-76.8066C52.4902-76.8066 51.4648-75.5859 51.4648-73.9746L51.4648-73.2422C51.4648-68.2129 48.0957-65.2832 42.8711-65.2832C37.6953-65.2832 34.3262-68.2129 34.3262-73.2422L34.3262-73.9746C34.3262-75.5859 33.3008-76.8066 31.6406-76.8066L22.5586-76.8066C14.1113-76.8066 9.76562-72.4121 9.76562-63.8672L9.76562-6.64062C9.76562 1.9043 14.1113 6.29883 22.5586 6.29883ZM29.1016-46.8262C27.5391-46.8262 26.3672-47.998 26.3672-49.5605C26.3672-51.0254 27.5391-52.1973 29.1016-52.1973L56.7383-52.1973C58.252-52.1973 59.4238-51.0254 59.4238-49.5605C59.4238-47.998 58.252-46.8262 56.7383-46.8262ZM29.1016-33.4961C27.5391-33.4961 26.3672-34.6191 26.3672-36.1328C26.3672-37.6465 27.5391-38.8672 29.1016-38.8672L42.3828-38.8672C43.8965-38.8672 45.0684-37.6465 45.0684-36.1328C45.0684-34.6191 43.8965-33.4961 42.3828-33.4961Z"/>
  </g>
  <g id="Regular-S" transform="matrix(1 0 0 1 1407.56 696)">
   <path d="M22.0215 5.9082L62.5 5.9082C70.7031 5.9082 74.8047 1.75781 74.8047-6.54297L74.8047-63.9648C74.8047-72.3145 70.7031-76.416 62.5-76.416L53.125-76.416C51.6113-76.416 50.6348-75.3906 50.6348-73.7793L50.6348-73.1934C50.6348-68.1641 47.3145-65.2832 42.2852-65.2832C37.2559-65.2832 33.8867-68.1641 33.8867-73.1934L33.8867-73.7793C33.8867-75.3906 32.9102-76.416 31.3965-76.416L22.0215-76.416C13.8184-76.416 9.76562-72.3145 9.76562-63.9648L9.76562-6.54297C9.76562 1.75781 13.8184 5.9082 22.0215 5.9082ZM28.125-47.168C26.5625-47.168 25.4395-48.3398 25.4395-49.8535C25.4395-51.3184 26.5625-52.4414 28.125-52.4414L56.4941-52.4414C58.0078-52.4414 59.1309-51.3184 59.1309-49.8535C59.1309-48.3398 58.0078-47.168 56.4941-47.168ZM28.125-33.7891C26.5625-33.7891 25.4395-34.9609 25.4395-36.4258C25.4395-37.9395 26.5625-39.1113 28.125-39.1113L41.4062-39.1113C42.9199-39.1113 44.043-37.9395 44.043-36.4258C44.043-34.9609 42.9199-33.7891 41.4062-33.7891Z"/>
  </g>
  <g id="Light-S" transform="matrix(1 0 0 1 1111.48 696)">
   <path d="M21.2891 5.66406L62.0605 5.66406C69.6777 5.66406 73.5352 1.75781 73.5352-5.95703L73.5352-64.4531C73.5352-72.2168 69.6777-76.123 62.0605-76.123L52.0508-76.123C50.8789-76.123 50.1465-75.293 50.1465-74.0723L50.1465-73.6328C50.1465-68.7012 46.7285-65.625 41.6504-65.625C36.6211-65.625 33.1543-68.7012 33.1543-73.6328L33.1543-74.0723C33.1543-75.293 32.4219-76.123 31.25-76.123L21.2891-76.123C13.623-76.123 9.76562-72.2168 9.76562-64.4531L9.76562-5.95703C9.76562 1.75781 13.6719 5.66406 21.2891 5.66406ZM26.9043-48.2422C25.6348-48.2422 24.7559-49.1699 24.7559-50.3906C24.7559-51.6113 25.6348-52.4902 26.9043-52.4902L56.4453-52.4902C57.666-52.4902 58.5938-51.6113 58.5938-50.3906C58.5938-49.1699 57.666-48.2422 56.4453-48.2422ZM26.9043-34.5215C25.6348-34.5215 24.7559-35.4004 24.7559-36.5723C24.7559-37.793 25.6348-38.7207 26.9043-38.7207L41.0156-38.7207C42.2363-38.7207 43.1641-37.793 43.1641-36.5723C43.1641-35.4004 42.2363-34.5215 41.0156-34.5215Z"/>
  </g>
  <g id="Thin-S" transform="matrix(1 0 0 1 815.578 696)">
   <path d="M20.2637 5.32227L61.4258 5.32227C68.2617 5.32227 71.9238 1.70898 71.9238-5.22461L71.9238-65.1367C71.9238-72.1191 68.3594-75.6836 61.4258-75.6836L50.6348-75.6836C49.9512-75.6836 49.5117-75.1953 49.5117-74.5117L49.5117-74.2188C49.5117-69.4336 45.8984-66.0156 40.8691-66.0156C35.791-66.0156 32.2266-69.4336 32.2266-74.2188L32.2266-74.5117C32.2266-75.1953 31.7871-75.6836 31.1035-75.6836L20.2637-75.6836C13.3789-75.6836 9.76562-72.1191 9.76562-65.1367L9.76562-5.22461C9.76562 1.70898 13.4277 5.32227 20.2637 5.32227ZM25.3418-49.707C24.4629-49.707 23.877-50.293 23.877-51.123C23.877-52.002 24.4629-52.5879 25.3418-52.5879L56.4453-52.5879C57.2266-52.5879 57.8613-52.002 57.8613-51.123C57.8613-50.293 57.2266-49.707 56.4453-49.707ZM25.3418-35.4004C24.4629-35.4004 23.877-36.0352 23.877-36.8164C23.877-37.5977 24.4629-38.2324 25.3418-38.2324L40.5273-38.2324C41.3574-38.2324 41.9922-37.5977 41.9922-36.8164C41.9922-36.0352 41.3574-35.4004 40.5273-35.4004Z"/>
  </g>
  <g id="Ultralight-S" transform="matrix(1 0 0 1 519.281 696)">
   <path d="M19.7266 5.17578L61.084 5.17578C67.5293 5.17578 71.0938 1.70898 71.0938-4.83398L71.0938-65.4785C71.0938-72.0215 67.627-75.4883 61.084-75.4883L49.8535-75.4883C49.4141-75.4883 49.1699-75.1465 49.1699-74.707L49.1699-74.5605C49.1699-69.8242 45.5078-66.2598 40.4297-66.2598C35.3516-66.2598 31.6895-69.8242 31.6895-74.5605L31.6895-74.707C31.6895-75.1465 31.4453-75.4883 30.957-75.4883L19.7266-75.4883C13.2324-75.4883 9.76562-72.0215 9.76562-65.4785L9.76562-4.83398C9.76562 1.70898 13.3301 5.17578 19.7266 5.17578ZM24.5117-50.4395C23.877-50.4395 23.3887-50.8789 23.3887-51.5137C23.3887-52.1973 23.877-52.6367 24.5117-52.6367L56.3965-52.6367C56.9824-52.6367 57.4707-52.1973 57.4707-51.5137C57.4707-50.8789 56.9824-50.4395 56.3965-50.4395ZM24.5117-35.8887C23.877-35.8887 23.3887-36.377 23.3887-36.9141C23.3887-37.5 23.877-37.9883 24.5117-37.9883L40.2832-37.9883C40.918-37.9883 41.4062-37.5 41.4062-36.9141C41.4062-36.377 40.918-35.8887 40.2832-35.8887Z"/>
  </g>
 </g>
</svg>
