<?xml version="1.0" encoding="UTF-8"?>
<!--Generator: Apple Native CoreSVG 149-->
<!DOCTYPE svg
PUBLIC "-//W3C//DTD SVG 1.1//EN"
       "http://www.w3.org/Graphics/SVG/1.1/DTD/svg11.dtd">
<svg version="1.1" xmlns="http://www.w3.org/2000/svg" xmlns:xlink="http://www.w3.org/1999/xlink" width="3300" height="2200">
 <!--glyph: "uni100302.medium", point size: 100.000000, font version: "Version 16.0d18e1", template writer version: "8"-->
 <g id="Notes">
  <rect height="2200" id="artboard" style="fill:white;opacity:1" width="3300" x="0" y="0"/>
  <line id="" style="fill:none;stroke:black;opacity:1;stroke-width:0.5;" x1="263" x2="3036" y1="292" y2="292"/>
  <text style="stroke:none;fill:black;font-family:-apple-system,&quot;SF Pro Display&quot;,&quot;SF Pro Text&quot;,Helvetica,sans-serif;font-weight:bold;" transform="matrix(1 0 0 1 263 322)">Weight/Scale Variations</text>
  <text style="stroke:none;fill:black;font-family:-apple-system,&quot;SF Pro Display&quot;,&quot;SF Pro Text&quot;,Helvetica,sans-serif;text-anchor:middle;" transform="matrix(1 0 0 1 559.711 322)">Ultralight</text>
  <text style="stroke:none;fill:black;font-family:-apple-system,&quot;SF Pro Display&quot;,&quot;SF Pro Text&quot;,Helvetica,sans-serif;text-anchor:middle;" transform="matrix(1 0 0 1 856.422 322)">Thin</text>
  <text style="stroke:none;fill:black;font-family:-apple-system,&quot;SF Pro Display&quot;,&quot;SF Pro Text&quot;,Helvetica,sans-serif;text-anchor:middle;" transform="matrix(1 0 0 1 1153.13 322)">Light</text>
  <text style="stroke:none;fill:black;font-family:-apple-system,&quot;SF Pro Display&quot;,&quot;SF Pro Text&quot;,Helvetica,sans-serif;text-anchor:middle;" transform="matrix(1 0 0 1 1449.84 322)">Regular</text>
  <text style="stroke:none;fill:black;font-family:-apple-system,&quot;SF Pro Display&quot;,&quot;SF Pro Text&quot;,Helvetica,sans-serif;text-anchor:middle;" transform="matrix(1 0 0 1 1746.56 322)">Medium</text>
  <text style="stroke:none;fill:black;font-family:-apple-system,&quot;SF Pro Display&quot;,&quot;SF Pro Text&quot;,Helvetica,sans-serif;text-anchor:middle;" transform="matrix(1 0 0 1 2043.27 322)">Semibold</text>
  <text style="stroke:none;fill:black;font-family:-apple-system,&quot;SF Pro Display&quot;,&quot;SF Pro Text&quot;,Helvetica,sans-serif;text-anchor:middle;" transform="matrix(1 0 0 1 2339.98 322)">Bold</text>
  <text style="stroke:none;fill:black;font-family:-apple-system,&quot;SF Pro Display&quot;,&quot;SF Pro Text&quot;,Helvetica,sans-serif;text-anchor:middle;" transform="matrix(1 0 0 1 2636.69 322)">Heavy</text>
  <text style="stroke:none;fill:black;font-family:-apple-system,&quot;SF Pro Display&quot;,&quot;SF Pro Text&quot;,Helvetica,sans-serif;text-anchor:middle;" transform="matrix(1 0 0 1 2933.4 322)">Black</text>
  <line id="" style="fill:none;stroke:black;opacity:1;stroke-width:0.5;" x1="263" x2="3036" y1="1903" y2="1903"/>
  <g id="" transform="matrix(1 0 0 1 263 1933)">
   <path d="M9.24805 0.830078C13.5547 0.830078 17.1387-2.74414 17.1387-7.05078C17.1387-11.3574 13.5449-14.9316 9.23828-14.9316C4.94141-14.9316 1.36719-11.3574 1.36719-7.05078C1.36719-2.74414 4.95117 0.830078 9.24805 0.830078ZM9.24805-0.654297C5.70312-0.654297 2.87109-3.49609 2.87109-7.05078C2.87109-10.6055 5.69336-13.4473 9.23828-13.4473C12.793-13.4473 15.6348-10.6055 15.6445-7.05078C15.6543-3.49609 12.8027-0.654297 9.24805-0.654297ZM6.39648-6.31836L8.50586-6.31836L8.50586-4.19922C8.50586-3.75977 8.79883-3.45703 9.22852-3.45703C9.67773-3.45703 9.9707-3.75977 9.9707-4.19922L9.9707-6.31836L12.0996-6.31836C12.5391-6.31836 12.8418-6.61133 12.8418-7.04102C12.8418-7.48047 12.5391-7.7832 12.0996-7.7832L9.9707-7.7832L9.9707-9.89258C9.9707-10.3418 9.67773-10.6445 9.22852-10.6445C8.79883-10.6445 8.50586-10.3418 8.50586-9.89258L8.50586-7.7832L6.39648-7.7832C5.94727-7.7832 5.64453-7.48047 5.64453-7.04102C5.64453-6.61133 5.94727-6.31836 6.39648-6.31836Z"/>
  </g>
  <g id="" transform="matrix(1 0 0 1 281.506 1933)">
   <path d="M11.709 2.91016C17.1582 2.91016 21.6699-1.61133 21.6699-7.05078C21.6699-12.5 17.1484-17.0117 11.6992-17.0117C6.25977-17.0117 1.74805-12.5 1.74805-7.05078C1.74805-1.61133 6.26953 2.91016 11.709 2.91016ZM11.709 1.25C7.09961 1.25 3.41797-2.44141 3.41797-7.05078C3.41797-11.6602 7.08984-15.3516 11.6992-15.3516C16.3086-15.3516 20-11.6602 20.0098-7.05078C20.0195-2.44141 16.3184 1.25 11.709 1.25ZM7.98828-6.23047L10.8789-6.23047L10.8789-3.32031C10.8789-2.83203 11.2109-2.5 11.6895-2.5C12.1777-2.5 12.5195-2.83203 12.5195-3.32031L12.5195-6.23047L15.4297-6.23047C15.918-6.23047 16.25-6.5625 16.25-7.04102C16.25-7.5293 15.918-7.87109 15.4297-7.87109L12.5195-7.87109L12.5195-10.7617C12.5195-11.2695 12.1777-11.6016 11.6895-11.6016C11.2109-11.6016 10.8789-11.2598 10.8789-10.7617L10.8789-7.87109L7.98828-7.87109C7.48047-7.87109 7.14844-7.5293 7.14844-7.04102C7.14844-6.5625 7.49023-6.23047 7.98828-6.23047Z"/>
  </g>
  <g id="" transform="matrix(1 0 0 1 304.924 1933)">
   <path d="M14.9707 5.66406C21.9336 5.66406 27.6953-0.0976562 27.6953-7.05078C27.6953-14.0137 21.9238-19.7754 14.9609-19.7754C8.00781-19.7754 2.25586-14.0137 2.25586-7.05078C2.25586-0.0976562 8.01758 5.66406 14.9707 5.66406ZM14.9707 3.84766C8.93555 3.84766 4.08203-1.01562 4.08203-7.05078C4.08203-13.0957 8.92578-17.9492 14.9609-17.9492C21.0059-17.9492 25.8594-13.0957 25.8691-7.05078C25.8789-1.01562 21.0156 3.84766 14.9707 3.84766ZM10.0586-6.14258L14.0625-6.14258L14.0625-2.12891C14.0625-1.5918 14.4336-1.2207 14.9512-1.2207C15.4883-1.2207 15.8594-1.5918 15.8594-2.12891L15.8594-6.14258L19.8828-6.14258C20.4102-6.14258 20.791-6.51367 20.791-7.03125C20.791-7.56836 20.4199-7.94922 19.8828-7.94922L15.8594-7.94922L15.8594-11.9531C15.8594-12.5098 15.4883-12.8809 14.9512-12.8809C14.4336-12.8809 14.0625-12.5 14.0625-11.9531L14.0625-7.94922L10.0586-7.94922C9.50195-7.94922 9.13086-7.56836 9.13086-7.03125C9.13086-6.51367 9.51172-6.14258 10.0586-6.14258Z"/>
  </g>
  <text style="stroke:none;fill:black;font-family:-apple-system,&quot;SF Pro Display&quot;,&quot;SF Pro Text&quot;,Helvetica,sans-serif;font-weight:bold;" transform="matrix(1 0 0 1 263 1953)">Design Variations</text>
  <text style="stroke:none;fill:black;font-family:-apple-system,&quot;SF Pro Display&quot;,&quot;SF Pro Text&quot;,Helvetica,sans-serif;" transform="matrix(1 0 0 1 263 1971)">Symbols are supported in up to nine weights and three scales.</text>
  <text style="stroke:none;fill:black;font-family:-apple-system,&quot;SF Pro Display&quot;,&quot;SF Pro Text&quot;,Helvetica,sans-serif;" transform="matrix(1 0 0 1 263 1989)">For optimal layout with text and other symbols, vertically align</text>
  <text style="stroke:none;fill:black;font-family:-apple-system,&quot;SF Pro Display&quot;,&quot;SF Pro Text&quot;,Helvetica,sans-serif;" transform="matrix(1 0 0 1 263 2007)">symbols with the adjacent text.</text>
  <line id="" style="fill:none;stroke:#00AEEF;stroke-width:0.5;opacity:1.0;" x1="776" x2="776" y1="1919" y2="1933"/>
  <g id="" transform="matrix(1 0 0 1 776 1933)">
   <path d="M3.31055 0.126953C3.82812 0.126953 4.08203-0.0683594 4.26758-0.605469L5.52734-4.0625L11.2891-4.0625L12.5488-0.605469C12.7344-0.0683594 12.9883 0.126953 13.4961 0.126953C14.0137 0.126953 14.3457-0.185547 14.3457-0.673828C14.3457-0.839844 14.3164-0.986328 14.2383-1.20117L9.6582-13.3887C9.43359-13.9941 9.0332-14.2871 8.4082-14.2871C7.80273-14.2871 7.39258-13.9941 7.17773-13.3984L2.59766-1.19141C2.51953-0.976562 2.49023-0.830078 2.49023-0.664062C2.49023-0.175781 2.80273 0.126953 3.31055 0.126953ZM6.00586-5.53711L8.37891-12.1094L8.42773-12.1094L10.8008-5.53711Z"/>
  </g>
  <line id="" style="fill:none;stroke:#00AEEF;stroke-width:0.5;opacity:1.0;" x1="792.836" x2="792.836" y1="1919" y2="1933"/>
  <text style="stroke:none;fill:black;font-family:-apple-system,&quot;SF Pro Display&quot;,&quot;SF Pro Text&quot;,Helvetica,sans-serif;font-weight:bold;" transform="matrix(1 0 0 1 776 1953)">Margins</text>
  <text style="stroke:none;fill:black;font-family:-apple-system,&quot;SF Pro Display&quot;,&quot;SF Pro Text&quot;,Helvetica,sans-serif;" transform="matrix(1 0 0 1 776 1971)">Leading and trailing margins on the left and right side of each symbol</text>
  <text style="stroke:none;fill:black;font-family:-apple-system,&quot;SF Pro Display&quot;,&quot;SF Pro Text&quot;,Helvetica,sans-serif;" transform="matrix(1 0 0 1 776 1989)">can be adjusted by modifying the x-location of the margin guidelines.</text>
  <text style="stroke:none;fill:black;font-family:-apple-system,&quot;SF Pro Display&quot;,&quot;SF Pro Text&quot;,Helvetica,sans-serif;" transform="matrix(1 0 0 1 776 2007)">Modifications are automatically applied proportionally to all</text>
  <text style="stroke:none;fill:black;font-family:-apple-system,&quot;SF Pro Display&quot;,&quot;SF Pro Text&quot;,Helvetica,sans-serif;" transform="matrix(1 0 0 1 776 2025)">scales and weights.</text>
  <g id="" transform="matrix(1 0 0 1 1289 1933)">
   <path d="M2.8418 1.86523L4.54102 3.57422C5.40039 4.44336 6.38672 4.38477 7.31445 3.35938L17.4902-7.85156C17.7539-7.76367 18.0273-7.7832 18.3398-7.8418L19.4043-8.03711L20.0684-7.36328L20.0293-6.80664C19.9902-6.30859 20.1172-5.92773 20.6055-5.44922L21.3672-4.70703C21.8457-4.22852 22.4609-4.19922 22.9297-4.66797L25.8398-7.58789C26.3086-8.05664 26.2891-8.65234 25.8105-9.13086L25.0391-9.89258C24.5605-10.3711 24.1895-10.5273 23.7109-10.4883L23.1348-10.4395L22.4902-11.0742L22.7344-12.1973C22.8613-12.7637 22.7051-13.2031 22.1191-13.7891L19.9219-15.9766C16.582-19.2969 12.1484-19.2188 9.25781-16.3281C8.83789-15.918 8.80859-15.3418 9.04297-14.9512C9.27734-14.5898 9.73633-14.3555 10.3809-14.5215C11.8457-14.8633 13.3691-14.9219 14.7949-13.9844L14.209-12.5293C14.0137-12.0508 13.9844-11.6504 14.1113-11.2891L3.04688-0.898438C2.06055 0.0195312 1.98242 0.996094 2.8418 1.86523ZM10.752-15.957C13.1836-17.7344 16.4746-17.4316 18.7012-15.2051L21.1328-12.793C21.3672-12.5586 21.4062-12.373 21.3379-12.0312L21.0156-10.5469L22.5195-9.0625L23.5059-9.12109C23.7598-9.13086 23.8379-9.11133 24.0332-8.91602L24.6094-8.33984L22.168-5.89844L21.5918-6.47461C21.3965-6.66992 21.3672-6.74805 21.377-7.01172L21.4453-7.98828L19.9512-9.47266L18.4277-9.21875C18.1055-9.15039 17.959-9.17969 17.7148-9.41406L15.7129-11.416C15.459-11.6504 15.4297-11.8164 15.5859-12.1875L16.4648-14.2773C14.9023-15.7324 12.8711-16.3574 10.8398-15.7617C10.6836-15.7227 10.625-15.8496 10.752-15.957ZM5.27344 2.30469L4.10156 1.14258C3.63281 0.683594 3.74023 0.341797 4.14062-0.0195312L14.9512-10.1953L16.416-8.71094L6.42578 2.27539C6.07422 2.67578 5.74219 2.77344 5.27344 2.30469Z"/>
  </g>
  <text style="stroke:none;fill:black;font-family:-apple-system,&quot;SF Pro Display&quot;,&quot;SF Pro Text&quot;,Helvetica,sans-serif;font-weight:bold;" transform="matrix(1 0 0 1 1289 1953)">Exporting</text>
  <text style="stroke:none;fill:black;font-family:-apple-system,&quot;SF Pro Display&quot;,&quot;SF Pro Text&quot;,Helvetica,sans-serif;" transform="matrix(1 0 0 1 1289 1971)">Symbols should be outlined when exporting to ensure the</text>
  <text style="stroke:none;fill:black;font-family:-apple-system,&quot;SF Pro Display&quot;,&quot;SF Pro Text&quot;,Helvetica,sans-serif;" transform="matrix(1 0 0 1 1289 1989)">design is preserved when submitting to Xcode.</text>
  <text id="template-version" style="stroke:none;fill:black;font-family:-apple-system,&quot;SF Pro Display&quot;,&quot;SF Pro Text&quot;,Helvetica,sans-serif;text-anchor:end;" transform="matrix(1 0 0 1 3036 1933)">Template v.2.0</text>
  <text style="stroke:none;fill:black;font-family:-apple-system,&quot;SF Pro Display&quot;,&quot;SF Pro Text&quot;,Helvetica,sans-serif;text-anchor:end;" transform="matrix(1 0 0 1 3036 1951)">Requires Xcode 12 or greater</text>
  <text style="stroke:none;fill:black;font-family:-apple-system,&quot;SF Pro Display&quot;,&quot;SF Pro Text&quot;,Helvetica,sans-serif;text-anchor:end;" transform="matrix(1 0 0 1 3036 1969)">Generated from text.alignright</text>
  <text style="stroke:none;fill:black;font-family:-apple-system,&quot;SF Pro Display&quot;,&quot;SF Pro Text&quot;,Helvetica,sans-serif;text-anchor:end;" transform="matrix(1 0 0 1 3036 1987)">Typeset at 100 points</text>
  <text style="stroke:none;fill:black;font-family:-apple-system,&quot;SF Pro Display&quot;,&quot;SF Pro Text&quot;,Helvetica,sans-serif;" transform="matrix(1 0 0 1 263 726)">Small</text>
  <text style="stroke:none;fill:black;font-family:-apple-system,&quot;SF Pro Display&quot;,&quot;SF Pro Text&quot;,Helvetica,sans-serif;" transform="matrix(1 0 0 1 263 1156)">Medium</text>
  <text style="stroke:none;fill:black;font-family:-apple-system,&quot;SF Pro Display&quot;,&quot;SF Pro Text&quot;,Helvetica,sans-serif;" transform="matrix(1 0 0 1 263 1586)">Large</text>
 </g>
 <g id="Guides">
  <g id="H-reference" style="fill:#27AAE1;stroke:none;" transform="matrix(1 0 0 1 339 696)">
   <path d="M0.976562 0L3.66211 0L12.9883-24.4629L45.752-24.4629L55.127 0L57.7637 0L30.6152-70.459L28.125-70.459ZM29.3457-67.1387L29.4434-67.1387L44.873-26.709L13.8672-26.709Z"/>
  </g>
  <line id="Baseline-S" style="fill:none;stroke:#27AAE1;opacity:1;stroke-width:0.5;" x1="263" x2="3036" y1="696" y2="696"/>
  <line id="Capline-S" style="fill:none;stroke:#27AAE1;opacity:1;stroke-width:0.5;" x1="263" x2="3036" y1="625.541" y2="625.541"/>
  <g id="H-reference" style="fill:#27AAE1;stroke:none;" transform="matrix(1 0 0 1 339 1126)">
   <path d="M0.976562 0L3.66211 0L12.9883-24.4629L45.752-24.4629L55.127 0L57.7637 0L30.6152-70.459L28.125-70.459ZM29.3457-67.1387L29.4434-67.1387L44.873-26.709L13.8672-26.709Z"/>
  </g>
  <line id="Baseline-M" style="fill:none;stroke:#27AAE1;opacity:1;stroke-width:0.5;" x1="263" x2="3036" y1="1126" y2="1126"/>
  <line id="Capline-M" style="fill:none;stroke:#27AAE1;opacity:1;stroke-width:0.5;" x1="263" x2="3036" y1="1055.54" y2="1055.54"/>
  <g id="H-reference" style="fill:#27AAE1;stroke:none;" transform="matrix(1 0 0 1 339 1556)">
   <path d="M0.976562 0L3.66211 0L12.9883-24.4629L45.752-24.4629L55.127 0L57.7637 0L30.6152-70.459L28.125-70.459ZM29.3457-67.1387L29.4434-67.1387L44.873-26.709L13.8672-26.709Z"/>
  </g>
  <line id="Baseline-L" style="fill:none;stroke:#27AAE1;opacity:1;stroke-width:0.5;" x1="263" x2="3036" y1="1556" y2="1556"/>
  <line id="Capline-L" style="fill:none;stroke:#27AAE1;opacity:1;stroke-width:0.5;" x1="263" x2="3036" y1="1485.54" y2="1485.54"/>
  <line id="left-margin" style="fill:none;stroke:#00AEEF;stroke-width:0.5;opacity:1.0;" x1="1388.2" x2="1388.2" y1="1030.79" y2="1150.12"/>
  <line id="right-margin" style="fill:none;stroke:#00AEEF;stroke-width:0.5;opacity:1.0;" x1="1511.49" x2="1511.49" y1="1030.79" y2="1150.12"/>
 </g>
 <g id="Symbols">
  <g id="Black-L" transform="matrix(1 0 0 1 2847.17 1556)">
   <path d="M24.4629-76.6113L147.998-76.6113C152.686-76.6113 156.396-80.3223 156.396-84.9609C156.396-89.6484 152.686-93.3594 147.998-93.3594L24.4629-93.3594C19.7754-93.3594 16.0645-89.6484 16.0645-84.9609C16.0645-80.3223 19.7754-76.6113 24.4629-76.6113ZM78.5156-43.6035L147.998-43.6035C152.686-43.6035 156.396-47.3633 156.396-52.002C156.396-56.6406 152.686-60.3516 147.998-60.3516L78.5156-60.3516C73.877-60.3516 70.166-56.6406 70.166-52.002C70.166-47.3633 73.877-43.6035 78.5156-43.6035ZM24.4629-10.6445L147.998-10.6445C152.686-10.6445 156.396-14.3555 156.396-19.043C156.396-23.6816 152.686-27.3926 147.998-27.3926L24.4629-27.3926C19.7754-27.3926 16.0645-23.6816 16.0645-19.043C16.0645-14.3555 19.7754-10.6445 24.4629-10.6445ZM78.5156 22.3145L147.998 22.3145C152.686 22.3145 156.396 18.6035 156.396 13.9648C156.396 9.27734 152.686 5.56641 147.998 5.56641L78.5156 5.56641C73.877 5.56641 70.166 9.27734 70.166 13.9648C70.166 18.6035 73.877 22.3145 78.5156 22.3145Z"/>
  </g>
  <g id="Heavy-L" transform="matrix(1 0 0 1 2552.19 1556)">
   <path d="M23.4375-77.5879L145.557-77.5879C149.658-77.5879 152.93-80.8594 152.93-84.9609C152.93-89.0625 149.658-92.334 145.557-92.334L23.4375-92.334C19.3359-92.334 16.0645-89.0625 16.0645-84.9609C16.0645-80.8594 19.3359-77.5879 23.4375-77.5879ZM75.3906-44.6289L145.557-44.6289C149.658-44.6289 152.93-47.9004 152.93-51.9531C152.93-56.0547 149.658-59.3262 145.557-59.3262L75.3906-59.3262C71.2891-59.3262 68.0664-56.0547 68.0664-51.9531C68.0664-47.9004 71.2891-44.6289 75.3906-44.6289ZM23.4375-11.6211L145.557-11.6211C149.658-11.6211 152.93-14.8926 152.93-18.9941C152.93-23.0957 149.658-26.3672 145.557-26.3672L23.4375-26.3672C19.3359-26.3672 16.0645-23.0957 16.0645-18.9941C16.0645-14.8926 19.3359-11.6211 23.4375-11.6211ZM75.3906 21.3379L145.557 21.3379C149.658 21.3379 152.93 18.1152 152.93 14.0137C152.93 9.91211 149.658 6.64062 145.557 6.64062L75.3906 6.64062C71.2891 6.64062 68.0664 9.91211 68.0664 14.0137C68.0664 18.1152 71.2891 21.3379 75.3906 21.3379Z"/>
  </g>
  <g id="Bold-L" transform="matrix(1 0 0 1 2257.43 1556)">
   <path d="M22.3145-78.7109L142.773-78.7109C146.24-78.7109 149.023-81.4941 149.023-84.9609C149.023-88.4277 146.24-91.1621 142.773-91.1621L22.3145-91.1621C18.7988-91.1621 16.0645-88.4277 16.0645-84.9609C16.0645-81.4941 18.7988-78.7109 22.3145-78.7109ZM71.9238-45.7031L142.773-45.7031C146.24-45.7031 149.023-48.4863 149.023-51.9531C149.023-55.4199 146.24-58.1543 142.773-58.1543L71.9238-58.1543C68.457-58.1543 65.6738-55.4199 65.6738-51.9531C65.6738-48.4863 68.457-45.7031 71.9238-45.7031ZM22.3145-12.7441L142.773-12.7441C146.24-12.7441 149.023-15.4785 149.023-18.9453C149.023-22.4121 146.24-25.1953 142.773-25.1953L22.3145-25.1953C18.7988-25.1953 16.0645-22.4121 16.0645-18.9453C16.0645-15.4785 18.7988-12.7441 22.3145-12.7441ZM71.9238 20.2637L142.773 20.2637C146.24 20.2637 149.023 17.5293 149.023 14.0625C149.023 10.5957 146.24 7.8125 142.773 7.8125L71.9238 7.8125C68.457 7.8125 65.6738 10.5957 65.6738 14.0625C65.6738 17.5293 68.457 20.2637 71.9238 20.2637Z"/>
  </g>
  <g id="Semibold-L" transform="matrix(1 0 0 1 1962.07 1556)">
   <path d="M21.5332-79.4922L140.869-79.4922C143.896-79.4922 146.338-81.8848 146.338-84.9609C146.338-87.9883 143.896-90.3809 140.869-90.3809L21.5332-90.3809C18.457-90.3809 16.0645-87.9883 16.0645-84.9609C16.0645-81.8848 18.457-79.4922 21.5332-79.4922ZM69.4824-46.4844L140.869-46.4844C143.896-46.4844 146.338-48.877 146.338-51.9531C146.338-54.9805 143.896-57.373 140.869-57.373L69.4824-57.373C66.4551-57.373 64.0625-54.9805 64.0625-51.9531C64.0625-48.877 66.4551-46.4844 69.4824-46.4844ZM21.5332-13.4766L140.869-13.4766C143.896-13.4766 146.338-15.8691 146.338-18.8965C146.338-21.9727 143.896-24.3652 140.869-24.3652L21.5332-24.3652C18.457-24.3652 16.0645-21.9727 16.0645-18.8965C16.0645-15.8691 18.457-13.4766 21.5332-13.4766ZM69.4824 19.5312L140.869 19.5312C143.896 19.5312 146.338 17.1387 146.338 14.1113C146.338 11.0352 143.896 8.64258 140.869 8.64258L69.4824 8.64258C66.4551 8.64258 64.0625 11.0352 64.0625 14.1113C64.0625 17.1387 66.4551 19.5312 69.4824 19.5312Z"/>
  </g>
  <g id="Medium-L" transform="matrix(1 0 0 1 1666.38 1556)">
   <path d="M20.8984-80.0781L139.404-80.0781C142.139-80.0781 144.287-82.2266 144.287-84.9609C144.287-87.6465 142.139-89.7949 139.404-89.7949L20.8984-89.7949C18.2129-89.7949 16.0645-87.6465 16.0645-84.9609C16.0645-82.2266 18.2129-80.0781 20.8984-80.0781ZM67.6758-47.0703L139.404-47.0703C142.139-47.0703 144.287-49.2188 144.287-51.9043C144.287-54.6387 142.139-56.7871 139.404-56.7871L67.6758-56.7871C64.9414-56.7871 62.8418-54.6387 62.8418-51.9043C62.8418-49.2188 64.9414-47.0703 67.6758-47.0703ZM20.8984-14.0625L139.404-14.0625C142.139-14.0625 144.287-16.1621 144.287-18.8965C144.287-21.6309 142.139-23.7305 139.404-23.7305L20.8984-23.7305C18.2129-23.7305 16.0645-21.6309 16.0645-18.8965C16.0645-16.1621 18.2129-14.0625 20.8984-14.0625ZM67.6758 18.9941L139.404 18.9941C142.139 18.9941 144.287 16.8457 144.287 14.1113C144.287 11.4258 142.139 9.27734 139.404 9.27734L67.6758 9.27734C64.9414 9.27734 62.8418 11.4258 62.8418 14.1113C62.8418 16.8457 64.9414 18.9941 67.6758 18.9941Z"/>
  </g>
  <g id="Regular-L" transform="matrix(1 0 0 1 1370.99 1556)">
   <path d="M20.166-80.8594L137.5-80.8594C139.795-80.8594 141.65-82.6172 141.65-84.9609C141.65-87.2559 139.795-89.0137 137.5-89.0137L20.166-89.0137C17.8223-89.0137 16.0645-87.2559 16.0645-84.9609C16.0645-82.6172 17.8223-80.8594 20.166-80.8594ZM65.2832-47.8027L137.5-47.8027C139.795-47.8027 141.65-49.6094 141.65-51.9043C141.65-54.1992 139.795-56.0059 137.5-56.0059L65.2832-56.0059C62.9883-56.0059 61.2305-54.1992 61.2305-51.9043C61.2305-49.6094 62.9883-47.8027 65.2832-47.8027ZM20.166-14.7949L137.5-14.7949C139.795-14.7949 141.65-16.5527 141.65-18.8477C141.65-21.1914 139.795-22.9492 137.5-22.9492L20.166-22.9492C17.8223-22.9492 16.0645-21.1914 16.0645-18.8477C16.0645-16.5527 17.8223-14.7949 20.166-14.7949ZM65.2832 18.2617L137.5 18.2617C139.795 18.2617 141.65 16.4551 141.65 14.1602C141.65 11.8652 139.795 10.1074 137.5 10.1074L65.2832 10.1074C62.9883 10.1074 61.2305 11.8652 61.2305 14.1602C61.2305 16.4551 62.9883 18.2617 65.2832 18.2617Z"/>
  </g>
  <g id="Light-L" transform="matrix(1 0 0 1 1075.2 1556)">
   <path d="M19.2383-81.7871L136.621-81.7871C138.379-81.7871 139.795-83.1055 139.795-84.9121C139.795-86.7188 138.379-88.0859 136.621-88.0859L19.2383-88.0859C17.4316-88.0859 16.0645-86.7188 16.0645-84.9121C16.0645-83.1055 17.4316-81.7871 19.2383-81.7871ZM62.5-48.6816L136.621-48.6816C138.379-48.6816 139.795-50.0488 139.795-51.8555C139.795-53.6621 138.379-54.9805 136.621-54.9805L62.5-54.9805C60.7422-54.9805 59.375-53.6621 59.375-51.8555C59.375-50.0488 60.7422-48.6816 62.5-48.6816ZM19.2383-15.625L136.621-15.625C138.379-15.625 139.795-16.9922 139.795-18.7988C139.795-20.5566 138.379-21.9238 136.621-21.9238L19.2383-21.9238C17.4316-21.9238 16.0645-20.5566 16.0645-18.7988C16.0645-16.9922 17.4316-15.625 19.2383-15.625ZM62.5 17.4316L136.621 17.4316C138.379 17.4316 139.795 16.1133 139.795 14.3066C139.795 12.5 138.379 11.1328 136.621 11.1328L62.5 11.1328C60.7422 11.1328 59.375 12.5 59.375 14.3066C59.375 16.1133 60.7422 17.4316 62.5 17.4316Z"/>
  </g>
  <g id="Thin-L" transform="matrix(1 0 0 1 779.713 1556)">
   <path d="M18.0176-82.959L135.4-82.959C136.523-82.959 137.354-83.7402 137.354-84.9121C137.354-86.0352 136.523-86.8164 135.4-86.8164L18.0176-86.8164C16.8457-86.8164 16.0645-86.0352 16.0645-84.9121C16.0645-83.7402 16.8457-82.959 18.0176-82.959ZM58.8379-49.8535L135.4-49.8535C136.523-49.8535 137.354-50.6348 137.354-51.7578C137.354-52.9297 136.523-53.7109 135.4-53.7109L58.8379-53.7109C57.7148-53.7109 56.9336-52.9297 56.9336-51.7578C56.9336-50.6348 57.7148-49.8535 58.8379-49.8535ZM18.0176-16.6992L135.4-16.6992C136.523-16.6992 137.354-17.5293 137.354-18.6523C137.354-19.7754 136.523-20.6055 135.4-20.6055L18.0176-20.6055C16.8457-20.6055 16.0645-19.7754 16.0645-18.6523C16.0645-17.5293 16.8457-16.6992 18.0176-16.6992ZM58.8379 16.4062L135.4 16.4062C136.523 16.4062 137.354 15.625 137.354 14.4531C137.354 13.3301 136.523 12.5488 135.4 12.5488L58.8379 12.5488C57.7148 12.5488 56.9336 13.3301 56.9336 14.4531C56.9336 15.625 57.7148 16.4062 58.8379 16.4062Z"/>
  </g>
  <g id="Ultralight-L" transform="matrix(1 0 0 1 483.637 1556)">
   <path d="M17.3828-83.5938L134.766-83.5938C135.596-83.5938 136.084-84.082 136.084-84.8633C136.084-85.6934 135.596-86.1816 134.766-86.1816L17.3828-86.1816C16.5527-86.1816 16.0645-85.6934 16.0645-84.8633C16.0645-84.082 16.5527-83.5938 17.3828-83.5938ZM56.9824-50.4395L134.766-50.4395C135.596-50.4395 136.084-50.9277 136.084-51.7578C136.084-52.5391 135.596-53.0273 134.766-53.0273L56.9824-53.0273C56.1523-53.0273 55.6641-52.5391 55.6641-51.7578C55.6641-50.9277 56.1523-50.4395 56.9824-50.4395ZM17.3828-17.2852L134.766-17.2852C135.596-17.2852 136.084-17.7734 136.084-18.6035C136.084-19.3848 135.596-19.9219 134.766-19.9219L17.3828-19.9219C16.5527-19.9219 16.0645-19.3848 16.0645-18.6035C16.0645-17.7734 16.5527-17.2852 17.3828-17.2852ZM56.9824 15.8691L134.766 15.8691C135.596 15.8691 136.084 15.332 136.084 14.5508C136.084 13.7695 135.596 13.2324 134.766 13.2324L56.9824 13.2324C56.1523 13.2324 55.6641 13.7695 55.6641 14.5508C55.6641 15.332 56.1523 15.8691 56.9824 15.8691Z"/>
  </g>
  <g id="Black-M" transform="matrix(1 0 0 1 2864.7 1126)">
   <path d="M19.8242-66.4062L117.578-66.4062C121.68-66.4062 124.951-69.6777 124.951-73.7793C124.951-77.8809 121.68-81.1523 117.578-81.1523L19.8242-81.1523C15.7227-81.1523 12.4512-77.8809 12.4512-73.7793C12.4512-69.6777 15.7227-66.4062 19.8242-66.4062ZM63.5742-40.8691L117.578-40.8691C121.68-40.8691 124.951-44.1406 124.951-48.2422C124.951-52.2949 121.68-55.5664 117.578-55.5664L63.5742-55.5664C59.5215-55.5664 56.25-52.2949 56.25-48.2422C56.25-44.1406 59.5215-40.8691 63.5742-40.8691ZM19.8242-15.2832L117.578-15.2832C121.68-15.2832 124.951-18.6035 124.951-22.6562C124.951-26.7578 121.68-30.0293 117.578-30.0293L19.8242-30.0293C15.7227-30.0293 12.4512-26.7578 12.4512-22.6562C12.4512-18.6035 15.7227-15.2832 19.8242-15.2832ZM63.5742 10.2539L117.578 10.2539C121.68 10.2539 124.951 6.98242 124.951 2.88086C124.951-1.2207 121.68-4.49219 117.578-4.49219L63.5742-4.49219C59.5215-4.49219 56.25-1.2207 56.25 2.88086C56.25 6.98242 59.5215 10.2539 63.5742 10.2539Z"/>
  </g>
  <g id="Heavy-M" transform="matrix(1 0 0 1 2569.65 1126)">
   <path d="M18.9453-67.2852L115.088-67.2852C118.701-67.2852 121.631-70.166 121.631-73.7793C121.631-77.3926 118.701-80.2734 115.088-80.2734L18.9453-80.2734C15.332-80.2734 12.4512-77.3926 12.4512-73.7793C12.4512-70.166 15.332-67.2852 18.9453-67.2852ZM60.8887-41.6992L115.088-41.6992C118.701-41.6992 121.631-44.5801 121.631-48.1934C121.631-51.8066 118.701-54.6875 115.088-54.6875L60.8887-54.6875C57.2754-54.6875 54.3945-51.8066 54.3945-48.1934C54.3945-44.5801 57.2754-41.6992 60.8887-41.6992ZM18.9453-16.1621L115.088-16.1621C118.701-16.1621 121.631-19.043 121.631-22.6562C121.631-26.2695 118.701-29.1504 115.088-29.1504L18.9453-29.1504C15.332-29.1504 12.4512-26.2695 12.4512-22.6562C12.4512-19.043 15.332-16.1621 18.9453-16.1621ZM60.8887 9.42383L115.088 9.42383C118.701 9.42383 121.631 6.49414 121.631 2.88086C121.631-0.732422 118.701-3.61328 115.088-3.61328L60.8887-3.61328C57.2754-3.61328 54.3945-0.732422 54.3945 2.88086C54.3945 6.49414 57.2754 9.42383 60.8887 9.42383Z"/>
  </g>
  <g id="Bold-M" transform="matrix(1 0 0 1 2274.82 1126)">
   <path d="M17.9688-68.2617L112.354-68.2617C115.43-68.2617 117.871-70.7031 117.871-73.7793C117.871-76.8555 115.43-79.2969 112.354-79.2969L17.9688-79.2969C14.8926-79.2969 12.4512-76.8555 12.4512-73.7793C12.4512-70.7031 14.8926-68.2617 17.9688-68.2617ZM57.9102-42.6758L112.354-42.6758C115.43-42.6758 117.871-45.1172 117.871-48.1934C117.871-51.2695 115.43-53.7109 112.354-53.7109L57.9102-53.7109C54.7852-53.7109 52.3438-51.2695 52.3438-48.1934C52.3438-45.1172 54.7852-42.6758 57.9102-42.6758ZM17.9688-17.0898L112.354-17.0898C115.43-17.0898 117.871-19.5801 117.871-22.6562C117.871-25.7324 115.43-28.1738 112.354-28.1738L17.9688-28.1738C14.8926-28.1738 12.4512-25.7324 12.4512-22.6562C12.4512-19.5801 14.8926-17.0898 17.9688-17.0898ZM57.9102 8.44727L112.354 8.44727C115.43 8.44727 117.871 6.00586 117.871 2.92969C117.871-0.146484 115.43-2.58789 112.354-2.58789L57.9102-2.58789C54.7852-2.58789 52.3438-0.146484 52.3438 2.92969C52.3438 6.00586 54.7852 8.44727 57.9102 8.44727Z"/>
  </g>
  <g id="Semibold-M" transform="matrix(1 0 0 1 1979.38 1126)">
   <path d="M17.2852-68.8965L110.4-68.8965C113.135-68.8965 115.332-71.0449 115.332-73.7793C115.332-76.4648 113.135-78.6133 110.4-78.6133L17.2852-78.6133C14.5996-78.6133 12.4512-76.4648 12.4512-73.7793C12.4512-71.0449 14.5996-68.8965 17.2852-68.8965ZM55.8105-43.3594L110.4-43.3594C113.135-43.3594 115.332-45.5078 115.332-48.1934C115.332-50.9277 113.135-53.0762 110.4-53.0762L55.8105-53.0762C53.0762-53.0762 50.9766-50.9277 50.9766-48.1934C50.9766-45.5078 53.0762-43.3594 55.8105-43.3594ZM17.2852-17.7734L110.4-17.7734C113.135-17.7734 115.332-19.9219 115.332-22.6074C115.332-25.3418 113.135-27.4902 110.4-27.4902L17.2852-27.4902C14.5996-27.4902 12.4512-25.3418 12.4512-22.6074C12.4512-19.9219 14.5996-17.7734 17.2852-17.7734ZM55.8105 7.8125L110.4 7.8125C113.135 7.8125 115.332 5.66406 115.332 2.92969C115.332 0.244141 113.135-1.9043 110.4-1.9043L55.8105-1.9043C53.0762-1.9043 50.9766 0.244141 50.9766 2.92969C50.9766 5.66406 53.0762 7.8125 55.8105 7.8125Z"/>
  </g>
  <g id="Medium-M" transform="matrix(1 0 0 1 1683.64 1126)">
   <path d="M16.7969-69.4336L108.984-69.4336C111.426-69.4336 113.379-71.3379 113.379-73.7793C113.379-76.1719 111.426-78.125 108.984-78.125L16.7969-78.125C14.3555-78.125 12.4512-76.1719 12.4512-73.7793C12.4512-71.3379 14.3555-69.4336 16.7969-69.4336ZM54.248-43.8477L108.984-43.8477C111.426-43.8477 113.379-45.752 113.379-48.1934C113.379-50.6348 111.426-52.5391 108.984-52.5391L54.248-52.5391C51.8066-52.5391 49.9023-50.6348 49.9023-48.1934C49.9023-45.752 51.8066-43.8477 54.248-43.8477ZM16.7969-18.2617L108.984-18.2617C111.426-18.2617 113.379-20.166 113.379-22.6074C113.379-25.0488 111.426-26.9531 108.984-26.9531L16.7969-26.9531C14.3555-26.9531 12.4512-25.0488 12.4512-22.6074C12.4512-20.166 14.3555-18.2617 16.7969-18.2617ZM54.248 7.32422L108.984 7.32422C111.426 7.32422 113.379 5.37109 113.379 2.97852C113.379 0.537109 111.426-1.36719 108.984-1.36719L54.248-1.36719C51.8066-1.36719 49.9023 0.537109 49.9023 2.97852C49.9023 5.37109 51.8066 7.32422 54.248 7.32422Z"/>
  </g>
  <g id="Regular-M" transform="matrix(1 0 0 1 1388.2 1126)">
   <path d="M16.1133-70.0684L107.08-70.0684C109.131-70.0684 110.84-71.6797 110.84-73.7793C110.84-75.8301 109.131-77.4414 107.08-77.4414L16.1133-77.4414C14.0625-77.4414 12.4512-75.8301 12.4512-73.7793C12.4512-71.6797 14.0625-70.0684 16.1133-70.0684ZM52.1973-44.4824L107.08-44.4824C109.131-44.4824 110.84-46.0938 110.84-48.1934C110.84-50.2441 109.131-51.8555 107.08-51.8555L52.1973-51.8555C50.0977-51.8555 48.4863-50.2441 48.4863-48.1934C48.4863-46.0938 50.0977-44.4824 52.1973-44.4824ZM16.1133-18.8965L107.08-18.8965C109.131-18.8965 110.84-20.5566 110.84-22.6074C110.84-24.6582 109.131-26.2695 107.08-26.2695L16.1133-26.2695C14.0625-26.2695 12.4512-24.6582 12.4512-22.6074C12.4512-20.5566 14.0625-18.8965 16.1133-18.8965ZM52.1973 6.64062L107.08 6.64062C109.131 6.64062 110.84 5.0293 110.84 2.97852C110.84 0.927734 109.131-0.732422 107.08-0.732422L52.1973-0.732422C50.0977-0.732422 48.4863 0.927734 48.4863 2.97852C48.4863 5.0293 50.0977 6.64062 52.1973 6.64062Z"/>
  </g>
  <g id="Light-M" transform="matrix(1 0 0 1 1092.32 1126)">
   <path d="M15.332-70.8984L106.25-70.8984C107.91-70.8984 109.18-72.1191 109.18-73.7305C109.18-75.3418 107.91-76.6113 106.25-76.6113L15.332-76.6113C13.6719-76.6113 12.4512-75.3418 12.4512-73.7305C12.4512-72.1191 13.6719-70.8984 15.332-70.8984ZM49.707-45.2637L106.25-45.2637C107.91-45.2637 109.18-46.5332 109.18-48.1445C109.18-49.7559 107.91-50.9766 106.25-50.9766L49.707-50.9766C48.0957-50.9766 46.8262-49.7559 46.8262-48.1445C46.8262-46.5332 48.0957-45.2637 49.707-45.2637ZM15.332-19.6777L106.25-19.6777C107.91-19.6777 109.18-20.8984 109.18-22.5098C109.18-24.1211 107.91-25.3906 106.25-25.3906L15.332-25.3906C13.6719-25.3906 12.4512-24.1211 12.4512-22.5098C12.4512-20.8984 13.6719-19.6777 15.332-19.6777ZM49.707 5.95703L106.25 5.95703C107.91 5.95703 109.18 4.6875 109.18 3.07617C109.18 1.46484 107.91 0.244141 106.25 0.244141L49.707 0.244141C48.0957 0.244141 46.8262 1.46484 46.8262 3.07617C46.8262 4.6875 48.0957 5.95703 49.707 5.95703Z"/>
  </g>
  <g id="Thin-M" transform="matrix(1 0 0 1 796.705 1126)">
   <path d="M14.209-71.9727L105.176-71.9727C106.201-71.9727 106.982-72.7051 106.982-73.7305C106.982-74.7559 106.201-75.4883 105.176-75.4883L14.209-75.4883C13.1836-75.4883 12.4512-74.7559 12.4512-73.7305C12.4512-72.7051 13.1836-71.9727 14.209-71.9727ZM46.3867-46.2891L105.176-46.2891C106.201-46.2891 106.982-47.0215 106.982-48.0469C106.982-49.0723 106.201-49.8535 105.176-49.8535L46.3867-49.8535C45.3613-49.8535 44.6289-49.0723 44.6289-48.0469C44.6289-47.0215 45.3613-46.2891 46.3867-46.2891ZM14.209-20.6543L105.176-20.6543C106.201-20.6543 106.982-21.3867 106.982-22.4121C106.982-23.4375 106.201-24.1699 105.176-24.1699L14.209-24.1699C13.1836-24.1699 12.4512-23.4375 12.4512-22.4121C12.4512-21.3867 13.1836-20.6543 14.209-20.6543ZM46.3867 5.0293L105.176 5.0293C106.201 5.0293 106.982 4.24805 106.982 3.22266C106.982 2.19727 106.201 1.46484 105.176 1.46484L46.3867 1.46484C45.3613 1.46484 44.6289 2.19727 44.6289 3.22266C44.6289 4.24805 45.3613 5.0293 46.3867 5.0293Z"/>
  </g>
  <g id="Ultralight-M" transform="matrix(1 0 0 1 500.556 1126)">
   <path d="M13.6719-72.5098L104.639-72.5098C105.371-72.5098 105.859-72.998 105.859-73.7305C105.859-74.4141 105.371-74.9023 104.639-74.9023L13.6719-74.9023C12.9395-74.9023 12.4512-74.4141 12.4512-73.7305C12.4512-72.998 12.9395-72.5098 13.6719-72.5098ZM44.7266-46.8262L104.639-46.8262C105.371-46.8262 105.859-47.3145 105.859-48.0469C105.859-48.7793 105.371-49.2188 104.639-49.2188L44.7266-49.2188C43.9941-49.2188 43.5059-48.7793 43.5059-48.0469C43.5059-47.3145 43.9941-46.8262 44.7266-46.8262ZM13.6719-21.1426L104.639-21.1426C105.371-21.1426 105.859-21.6309 105.859-22.3633C105.859-23.0957 105.371-23.5352 104.639-23.5352L13.6719-23.5352C12.9395-23.5352 12.4512-23.0957 12.4512-22.3633C12.4512-21.6309 12.9395-21.1426 13.6719-21.1426ZM44.7266 4.54102L104.639 4.54102C105.371 4.54102 105.859 4.05273 105.859 3.32031C105.859 2.58789 105.371 2.09961 104.639 2.09961L44.7266 2.09961C43.9941 2.09961 43.5059 2.58789 43.5059 3.32031C43.5059 4.05273 43.9941 4.54102 44.7266 4.54102Z"/>
  </g>
  <g id="Black-S" transform="matrix(1 0 0 1 2879.69 696)">
   <path d="M15.4785-59.7168L91.9434-59.7168C95.1172-59.7168 97.6562-62.2559 97.6562-65.4297C97.6562-68.6035 95.1172-71.1426 91.9434-71.1426L15.4785-71.1426C12.3047-71.1426 9.76562-68.6035 9.76562-65.4297C9.76562-62.2559 12.3047-59.7168 15.4785-59.7168ZM49.6582-39.6973L91.9434-39.6973C95.1172-39.6973 97.6562-42.2363 97.6562-45.4102C97.6562-48.584 95.1172-51.123 91.9434-51.123L49.6582-51.123C46.4844-51.123 43.9453-48.584 43.9453-45.4102C43.9453-42.2363 46.4844-39.6973 49.6582-39.6973ZM15.4785-19.6777L91.9434-19.6777C95.1172-19.6777 97.6562-22.2168 97.6562-25.3906C97.6562-28.5645 95.1172-31.1035 91.9434-31.1035L15.4785-31.1035C12.3047-31.1035 9.76562-28.5645 9.76562-25.3906C9.76562-22.2168 12.3047-19.6777 15.4785-19.6777ZM49.6582 0.341797L91.9434 0.341797C95.1172 0.341797 97.6562-2.19727 97.6562-5.37109C97.6562-8.54492 95.1172-11.084 91.9434-11.084L49.6582-11.084C46.4844-11.084 43.9453-8.54492 43.9453-5.37109C43.9453-2.19727 46.4844 0.341797 49.6582 0.341797Z"/>
  </g>
  <g id="Heavy-S" transform="matrix(1 0 0 1 2584.15 696)">
   <path d="M14.8926-60.3027L90.1367-60.3027C93.0176-60.3027 95.3125-62.5488 95.3125-65.4297C95.3125-68.3105 93.0176-70.5566 90.1367-70.5566L14.8926-70.5566C12.0605-70.5566 9.76562-68.3105 9.76562-65.4297C9.76562-62.5488 12.0605-60.3027 14.8926-60.3027ZM47.8516-40.2832L90.1367-40.2832C93.0176-40.2832 95.3125-42.5293 95.3125-45.4102C95.3125-48.2422 93.0176-50.5371 90.1367-50.5371L47.8516-50.5371C45.0195-50.5371 42.7246-48.2422 42.7246-45.4102C42.7246-42.5293 45.0195-40.2832 47.8516-40.2832ZM14.8926-20.2637L90.1367-20.2637C93.0176-20.2637 95.3125-22.5098 95.3125-25.3906C95.3125-28.2227 93.0176-30.5176 90.1367-30.5176L14.8926-30.5176C12.0605-30.5176 9.76562-28.2227 9.76562-25.3906C9.76562-22.5098 12.0605-20.2637 14.8926-20.2637ZM47.8516-0.244141L90.1367-0.244141C93.0176-0.244141 95.3125-2.49023 95.3125-5.37109C95.3125-8.20312 93.0176-10.498 90.1367-10.498L47.8516-10.498C45.0195-10.498 42.7246-8.20312 42.7246-5.37109C42.7246-2.49023 45.0195-0.244141 47.8516-0.244141Z"/>
  </g>
  <g id="Bold-S" transform="matrix(1 0 0 1 2288.78 696)">
   <path d="M14.2578-60.9375L88.1348-60.9375C90.625-60.9375 92.627-62.9395 92.627-65.4297C92.627-67.9199 90.625-69.9219 88.1348-69.9219L14.2578-69.9219C11.7676-69.9219 9.76562-67.9199 9.76562-65.4297C9.76562-62.9395 11.7676-60.9375 14.2578-60.9375ZM45.8984-40.918L88.1348-40.918C90.625-40.918 92.627-42.9199 92.627-45.4102C92.627-47.9004 90.625-49.9023 88.1348-49.9023L45.8984-49.9023C43.3594-49.9023 41.3574-47.9004 41.3574-45.4102C41.3574-42.9199 43.3594-40.918 45.8984-40.918ZM14.2578-20.8984L88.1348-20.8984C90.625-20.8984 92.627-22.9004 92.627-25.3906C92.627-27.8809 90.625-29.8828 88.1348-29.8828L14.2578-29.8828C11.7676-29.8828 9.76562-27.8809 9.76562-25.3906C9.76562-22.9004 11.7676-20.8984 14.2578-20.8984ZM45.8984-0.878906L88.1348-0.878906C90.625-0.878906 92.627-2.88086 92.627-5.37109C92.627-7.86133 90.625-9.86328 88.1348-9.86328L45.8984-9.86328C43.3594-9.86328 41.3574-7.86133 41.3574-5.37109C41.3574-2.88086 43.3594-0.878906 45.8984-0.878906Z"/>
  </g>
  <g id="Semibold-S" transform="matrix(1 0 0 1 1992.97 696)">
   <path d="M13.8184-61.377L86.7188-61.377C89.0137-61.377 90.8203-63.1836 90.8203-65.4297C90.8203-67.6758 89.0137-69.4824 86.7188-69.4824L13.8184-69.4824C11.5723-69.4824 9.76562-67.6758 9.76562-65.4297C9.76562-63.1836 11.5723-61.377 13.8184-61.377ZM44.4824-41.3574L86.7188-41.3574C89.0137-41.3574 90.8203-43.1641 90.8203-45.4102C90.8203-47.6562 89.0137-49.4629 86.7188-49.4629L44.4824-49.4629C42.2363-49.4629 40.4297-47.6562 40.4297-45.4102C40.4297-43.1641 42.2363-41.3574 44.4824-41.3574ZM13.8184-21.3379L86.7188-21.3379C89.0137-21.3379 90.8203-23.1445 90.8203-25.3906C90.8203-27.6367 89.0137-29.4434 86.7188-29.4434L13.8184-29.4434C11.5723-29.4434 9.76562-27.6367 9.76562-25.3906C9.76562-23.1445 11.5723-21.3379 13.8184-21.3379ZM44.4824-1.31836L86.7188-1.31836C89.0137-1.31836 90.8203-3.07617 90.8203-5.37109C90.8203-7.61719 89.0137-9.42383 86.7188-9.42383L44.4824-9.42383C42.2363-9.42383 40.4297-7.61719 40.4297-5.37109C40.4297-3.07617 42.2363-1.31836 44.4824-1.31836Z"/>
  </g>
  <g id="Medium-S" transform="matrix(1 0 0 1 1696.95 696)">
   <path d="M13.4766-61.7188L85.6934-61.7188C87.7441-61.7188 89.4531-63.3301 89.4531-65.4297C89.4531-67.4805 87.7441-69.1406 85.6934-69.1406L13.4766-69.1406C11.4258-69.1406 9.76562-67.4805 9.76562-65.4297C9.76562-63.3301 11.4258-61.7188 13.4766-61.7188ZM43.457-41.6992L85.6934-41.6992C87.7441-41.6992 89.4531-43.3105 89.4531-45.4102C89.4531-47.4609 87.7441-49.1211 85.6934-49.1211L43.457-49.1211C41.3574-49.1211 39.7461-47.4609 39.7461-45.4102C39.7461-43.3105 41.3574-41.6992 43.457-41.6992ZM13.4766-21.6309L85.6934-21.6309C87.7441-21.6309 89.4531-23.291 89.4531-25.3906C89.4531-27.4414 87.7441-29.1016 85.6934-29.1016L13.4766-29.1016C11.4258-29.1016 9.76562-27.4414 9.76562-25.3906C9.76562-23.291 11.4258-21.6309 13.4766-21.6309ZM43.457-1.61133L85.6934-1.61133C87.7441-1.61133 89.4531-3.27148 89.4531-5.37109C89.4531-7.42188 87.7441-9.08203 85.6934-9.08203L43.457-9.08203C41.3574-9.08203 39.7461-7.42188 39.7461-5.37109C39.7461-3.27148 41.3574-1.61133 43.457-1.61133Z"/>
  </g>
  <g id="Regular-S" transform="matrix(1 0 0 1 1401.14 696)">
   <path d="M13.0371-62.1582L84.2773-62.1582C86.1328-62.1582 87.6465-63.5742 87.6465-65.4297C87.6465-67.2852 86.1328-68.7012 84.2773-68.7012L13.0371-68.7012C11.2305-68.7012 9.76562-67.2852 9.76562-65.4297C9.76562-63.5742 11.2305-62.1582 13.0371-62.1582ZM42.0898-42.0898L84.2773-42.0898C86.1328-42.0898 87.6465-43.5547 87.6465-45.4102C87.6465-47.2168 86.1328-48.6816 84.2773-48.6816L42.0898-48.6816C40.2832-48.6816 38.8184-47.2168 38.8184-45.4102C38.8184-43.5547 40.2832-42.0898 42.0898-42.0898ZM13.0371-22.0703L84.2773-22.0703C86.1328-22.0703 87.6465-23.5352 87.6465-25.3906C87.6465-27.1973 86.1328-28.6621 84.2773-28.6621L13.0371-28.6621C11.2305-28.6621 9.76562-27.1973 9.76562-25.3906C9.76562-23.5352 11.2305-22.0703 13.0371-22.0703ZM42.0898-2.05078L84.2773-2.05078C86.1328-2.05078 87.6465-3.51562 87.6465-5.37109C87.6465-7.17773 86.1328-8.64258 84.2773-8.64258L42.0898-8.64258C40.2832-8.64258 38.8184-7.17773 38.8184-5.37109C38.8184-3.51562 40.2832-2.05078 42.0898-2.05078Z"/>
  </g>
  <g id="Light-S" transform="matrix(1 0 0 1 1105.16 696)">
   <path d="M12.3047-62.8418L83.5938-62.8418C85.0098-62.8418 86.1816-63.9648 86.1816-65.4297C86.1816-66.8457 85.0098-67.9688 83.5938-67.9688L12.3047-67.9688C10.8887-67.9688 9.76562-66.8457 9.76562-65.4297C9.76562-63.9648 10.8887-62.8418 12.3047-62.8418ZM39.8926-42.8223L83.5938-42.8223C85.0098-42.8223 86.1816-43.8965 86.1816-45.3613C86.1816-46.7773 85.0098-47.9004 83.5938-47.9004L39.8926-47.9004C38.4766-47.9004 37.3535-46.7773 37.3535-45.3613C37.3535-43.8965 38.4766-42.8223 39.8926-42.8223ZM12.3047-22.7539L83.5938-22.7539C85.0098-22.7539 86.1816-23.877 86.1816-25.293C86.1816-26.7578 85.0098-27.8809 83.5938-27.8809L12.3047-27.8809C10.8887-27.8809 9.76562-26.7578 9.76562-25.293C9.76562-23.877 10.8887-22.7539 12.3047-22.7539ZM39.8926-2.68555L83.5938-2.68555C85.0098-2.68555 86.1816-3.80859 86.1816-5.27344C86.1816-6.68945 85.0098-7.8125 83.5938-7.8125L39.8926-7.8125C38.4766-7.8125 37.3535-6.68945 37.3535-5.27344C37.3535-3.80859 38.4766-2.68555 39.8926-2.68555Z"/>
  </g>
  <g id="Thin-S" transform="matrix(1 0 0 1 809.425 696)">
   <path d="M11.377-63.8184L82.6172-63.8184C83.5449-63.8184 84.2285-64.4531 84.2285-65.3809C84.2285-66.3086 83.5449-66.9922 82.6172-66.9922L11.377-66.9922C10.4492-66.9922 9.76562-66.3086 9.76562-65.3809C9.76562-64.4531 10.4492-63.8184 11.377-63.8184ZM37.0117-43.7012L82.6172-43.7012C83.5449-43.7012 84.2285-44.3848 84.2285-45.3125C84.2285-46.2402 83.5449-46.875 82.6172-46.875L37.0117-46.875C36.084-46.875 35.4004-46.2402 35.4004-45.3125C35.4004-44.3848 36.084-43.7012 37.0117-43.7012ZM11.377-23.6328L82.6172-23.6328C83.5449-23.6328 84.2285-24.2676 84.2285-25.1953C84.2285-26.123 83.5449-26.8066 82.6172-26.8066L11.377-26.8066C10.4492-26.8066 9.76562-26.123 9.76562-25.1953C9.76562-24.2676 10.4492-23.6328 11.377-23.6328ZM37.0117-3.51562L82.6172-3.51562C83.5449-3.51562 84.2285-4.19922 84.2285-5.12695C84.2285-6.05469 83.5449-6.68945 82.6172-6.68945L37.0117-6.68945C36.084-6.68945 35.4004-6.05469 35.4004-5.12695C35.4004-4.19922 36.084-3.51562 37.0117-3.51562Z"/>
  </g>
  <g id="Ultralight-S" transform="matrix(1 0 0 1 513.202 696)">
   <path d="M10.8398-64.3066L82.1289-64.3066C82.8125-64.3066 83.252-64.7461 83.252-65.3809C83.252-66.0156 82.8125-66.4551 82.1289-66.4551L10.8398-66.4551C10.2051-66.4551 9.76562-66.0156 9.76562-65.3809C9.76562-64.7461 10.2051-64.3066 10.8398-64.3066ZM35.498-44.1895L82.1289-44.1895C82.8125-44.1895 83.252-44.6289 83.252-45.2637C83.252-45.8984 82.8125-46.3379 82.1289-46.3379L35.498-46.3379C34.8633-46.3379 34.4238-45.8984 34.4238-45.2637C34.4238-44.6289 34.8633-44.1895 35.498-44.1895ZM10.8398-24.0723L82.1289-24.0723C82.8125-24.0723 83.252-24.5117 83.252-25.1465C83.252-25.7812 82.8125-26.2695 82.1289-26.2695L10.8398-26.2695C10.2051-26.2695 9.76562-25.7812 9.76562-25.1465C9.76562-24.5117 10.2051-24.0723 10.8398-24.0723ZM35.498-3.95508L82.1289-3.95508C82.8125-3.95508 83.252-4.39453 83.252-5.0293C83.252-5.71289 82.8125-6.15234 82.1289-6.15234L35.498-6.15234C34.8633-6.15234 34.4238-5.71289 34.4238-5.0293C34.4238-4.39453 34.8633-3.95508 35.498-3.95508Z"/>
  </g>
 </g>
</svg>
