<?xml version="1.0" encoding="UTF-8"?>
<!--Generator: Apple Native CoreSVG 149-->
<!DOCTYPE svg
PUBLIC "-//W3C//DTD SVG 1.1//EN"
       "http://www.w3.org/Graphics/SVG/1.1/DTD/svg11.dtd">
<svg version="1.1" xmlns="http://www.w3.org/2000/svg" xmlns:xlink="http://www.w3.org/1999/xlink" width="3300" height="2200">
 <!--glyph: "uni100243.medium", point size: 100.0, font version: "17.0d8e1", template writer version: "58"-->
 <style>.hierarchical-0:secondary {fill:#4D4D4D}
.hierarchical-1:primary {fill:#212121}

.clearBehindLayer {}
.SFSymbolsPreview212121 {fill:#212121;opacity:1.0}
.SFSymbolsPreview4D4D4D {fill:#4D4D4D;opacity:1.0}
</style>
 <g id="Notes">
  <rect height="2200" id="artboard" style="fill:white;opacity:1" width="3300" x="0" y="0"/>
  <line style="fill:none;stroke:black;opacity:1;stroke-width:0.5;" x1="263" x2="3036" y1="292" y2="292"/>
  <text style="stroke:none;fill:black;font-family:SF Pro,SF Pro Display,SF Pro Text,sans-serif;font-size:13;font-weight:bold;" transform="matrix(1 0 0 1 263 322)">Weight/Scale Variations</text>
  <text style="stroke:none;fill:black;font-family:SF Pro,SF Pro Display,SF Pro Text,sans-serif;font-size:13;text-anchor:middle;" transform="matrix(1 0 0 1 559.711 322)">Ultralight</text>
  <text style="stroke:none;fill:black;font-family:SF Pro,SF Pro Display,SF Pro Text,sans-serif;font-size:13;text-anchor:middle;" transform="matrix(1 0 0 1 856.422 322)">Thin</text>
  <text style="stroke:none;fill:black;font-family:SF Pro,SF Pro Display,SF Pro Text,sans-serif;font-size:13;text-anchor:middle;" transform="matrix(1 0 0 1 1153.13 322)">Light</text>
  <text style="stroke:none;fill:black;font-family:SF Pro,SF Pro Display,SF Pro Text,sans-serif;font-size:13;text-anchor:middle;" transform="matrix(1 0 0 1 1449.84 322)">Regular</text>
  <text style="stroke:none;fill:black;font-family:SF Pro,SF Pro Display,SF Pro Text,sans-serif;font-size:13;text-anchor:middle;" transform="matrix(1 0 0 1 1746.56 322)">Medium</text>
  <text style="stroke:none;fill:black;font-family:SF Pro,SF Pro Display,SF Pro Text,sans-serif;font-size:13;text-anchor:middle;" transform="matrix(1 0 0 1 2043.27 322)">Semibold</text>
  <text style="stroke:none;fill:black;font-family:SF Pro,SF Pro Display,SF Pro Text,sans-serif;font-size:13;text-anchor:middle;" transform="matrix(1 0 0 1 2339.98 322)">Bold</text>
  <text style="stroke:none;fill:black;font-family:SF Pro,SF Pro Display,SF Pro Text,sans-serif;font-size:13;text-anchor:middle;" transform="matrix(1 0 0 1 2636.69 322)">Heavy</text>
  <text style="stroke:none;fill:black;font-family:SF Pro,SF Pro Display,SF Pro Text,sans-serif;font-size:13;text-anchor:middle;" transform="matrix(1 0 0 1 2933.4 322)">Black</text>
  <line style="fill:none;stroke:black;opacity:1;stroke-width:0.5;" x1="263" x2="3036" y1="1903" y2="1903"/>
  <g transform="matrix(1 0 0 1 263 1933)">
   <path d="M9.24805 0.830078Q10.8691 0.830078 12.2949 0.214844Q13.7207-0.400391 14.8096-1.49414Q15.8984-2.58789 16.5186-4.01367Q17.1387-5.43945 17.1387-7.05078Q17.1387-8.66211 16.5186-10.0879Q15.8984-11.5137 14.8047-12.6074Q13.7109-13.7012 12.2852-14.3164Q10.8594-14.9316 9.23828-14.9316Q7.62695-14.9316 6.20117-14.3164Q4.77539-13.7012 3.69141-12.6074Q2.60742-11.5137 1.9873-10.0879Q1.36719-8.66211 1.36719-7.05078Q1.36719-5.43945 1.9873-4.01367Q2.60742-2.58789 3.69629-1.49414Q4.78516-0.400391 6.21094 0.214844Q7.63672 0.830078 9.24805 0.830078ZM9.24805-0.654297Q7.91992-0.654297 6.7627-1.14746Q5.60547-1.64062 4.73145-2.51953Q3.85742-3.39844 3.36426-4.56055Q2.87109-5.72266 2.87109-7.05078Q2.87109-8.37891 3.35938-9.54102Q3.84766-10.7031 4.72168-11.582Q5.5957-12.4609 6.75293-12.9541Q7.91016-13.4473 9.23828-13.4473Q10.5762-13.4473 11.7334-12.9541Q12.8906-12.4609 13.7695-11.582Q14.6484-10.7031 15.1465-9.54102Q15.6445-8.37891 15.6445-7.05078Q15.6445-5.72266 15.1514-4.56055Q14.6582-3.39844 13.7842-2.51953Q12.9102-1.64062 11.748-1.14746Q10.5859-0.654297 9.24805-0.654297ZM5.83984-7.04102Q5.83984-6.71875 6.04492-6.51855Q6.25-6.31836 6.5918-6.31836L8.50586-6.31836L8.50586-4.39453Q8.50586-4.0625 8.70605-3.85742Q8.90625-3.65234 9.22852-3.65234Q9.56055-3.65234 9.76562-3.85742Q9.9707-4.0625 9.9707-4.39453L9.9707-6.31836L11.8945-6.31836Q12.2266-6.31836 12.4316-6.51855Q12.6367-6.71875 12.6367-7.04102Q12.6367-7.37305 12.4316-7.57812Q12.2266-7.7832 11.8945-7.7832L9.9707-7.7832L9.9707-9.69727Q9.9707-10.0391 9.76562-10.2441Q9.56055-10.4492 9.22852-10.4492Q8.90625-10.4492 8.70605-10.2441Q8.50586-10.0391 8.50586-9.69727L8.50586-7.7832L6.5918-7.7832Q6.25-7.7832 6.04492-7.57812Q5.83984-7.37305 5.83984-7.04102Z"/>
  </g>
  <g transform="matrix(1 0 0 1 281.867 1933)">
   <path d="M11.709 2.91016Q13.75 2.91016 15.5518 2.12891Q17.3535 1.34766 18.7305-0.0292969Q20.1074-1.40625 20.8887-3.20801Q21.6699-5.00977 21.6699-7.05078Q21.6699-9.0918 20.8887-10.8936Q20.1074-12.6953 18.7305-14.0723Q17.3535-15.4492 15.5469-16.2305Q13.7402-17.0117 11.6992-17.0117Q9.6582-17.0117 7.85645-16.2305Q6.05469-15.4492 4.68262-14.0723Q3.31055-12.6953 2.5293-10.8936Q1.74805-9.0918 1.74805-7.05078Q1.74805-5.00977 2.5293-3.20801Q3.31055-1.40625 4.6875-0.0292969Q6.06445 1.34766 7.86621 2.12891Q9.66797 2.91016 11.709 2.91016ZM11.709 1.25Q9.98047 1.25 8.47656 0.605469Q6.97266-0.0390625 5.83496-1.17676Q4.69727-2.31445 4.05762-3.81836Q3.41797-5.32227 3.41797-7.05078Q3.41797-8.7793 4.05762-10.2832Q4.69727-11.7871 5.83008-12.9297Q6.96289-14.0723 8.4668-14.7119Q9.9707-15.3516 11.6992-15.3516Q13.4277-15.3516 14.9316-14.7119Q16.4355-14.0723 17.5781-12.9297Q18.7207-11.7871 19.3652-10.2832Q20.0098-8.7793 20.0098-7.05078Q20.0098-5.32227 19.3701-3.81836Q18.7305-2.31445 17.5928-1.17676Q16.4551-0.0390625 14.9463 0.605469Q13.4375 1.25 11.709 1.25ZM7.39258-7.04102Q7.39258-6.68945 7.62695-6.46484Q7.86133-6.24023 8.23242-6.24023L10.8789-6.24023L10.8789-3.57422Q10.8789-3.21289 11.1035-2.9834Q11.3281-2.75391 11.6797-2.75391Q12.0508-2.75391 12.2852-2.9834Q12.5195-3.21289 12.5195-3.57422L12.5195-6.24023L15.1758-6.24023Q15.5371-6.24023 15.7715-6.46484Q16.0059-6.68945 16.0059-7.04102Q16.0059-7.41211 15.7715-7.6416Q15.5371-7.87109 15.1758-7.87109L12.5195-7.87109L12.5195-10.5176Q12.5195-10.8984 12.2852-11.1279Q12.0508-11.3574 11.6797-11.3574Q11.3281-11.3574 11.1035-11.1279Q10.8789-10.8984 10.8789-10.5176L10.8789-7.87109L8.23242-7.87109Q7.85156-7.87109 7.62207-7.6416Q7.39258-7.41211 7.39258-7.04102Z"/>
  </g>
  <g transform="matrix(1 0 0 1 305.646 1933)">
   <path d="M14.9707 5.66406Q17.0605 5.66406 18.96 5.01465Q20.8594 4.36523 22.4512 3.19336Q24.043 2.02148 25.2197 0.429688Q26.3965-1.16211 27.0459-3.06641Q27.6953-4.9707 27.6953-7.05078Q27.6953-9.14062 27.0459-11.04Q26.3965-12.9395 25.2197-14.5312Q24.043-16.123 22.4512-17.2998Q20.8594-18.4766 18.9551-19.126Q17.0508-19.7754 14.9609-19.7754Q12.8711-19.7754 10.9717-19.126Q9.07227-18.4766 7.48535-17.2998Q5.89844-16.123 4.72168-14.5312Q3.54492-12.9395 2.90039-11.04Q2.25586-9.14062 2.25586-7.05078Q2.25586-4.9707 2.90527-3.06641Q3.55469-1.16211 4.72656 0.429688Q5.89844 2.02148 7.49023 3.19336Q9.08203 4.36523 10.9814 5.01465Q12.8809 5.66406 14.9707 5.66406ZM14.9707 3.84766Q13.1641 3.84766 11.5283 3.2959Q9.89258 2.74414 8.53516 1.74805Q7.17773 0.751953 6.17676-0.610352Q5.17578-1.97266 4.62891-3.6084Q4.08203-5.24414 4.08203-7.05078Q4.08203-8.86719 4.62891-10.5029Q5.17578-12.1387 6.17188-13.501Q7.16797-14.8633 8.52539-15.8594Q9.88281-16.8555 11.5186-17.4023Q13.1543-17.9492 14.9609-17.9492Q16.7773-17.9492 18.4131-17.4023Q20.0488-16.8555 21.4111-15.8594Q22.7734-14.8633 23.7695-13.501Q24.7656-12.1387 25.3174-10.5029Q25.8691-8.86719 25.8691-7.05078Q25.8789-5.24414 25.332-3.6084Q24.7852-1.97266 23.7842-0.610352Q22.7832 0.751953 21.4209 1.74805Q20.0586 2.74414 18.4229 3.2959Q16.7871 3.84766 14.9707 3.84766ZM9.45312-7.04102Q9.45312-6.66016 9.71191-6.41113Q9.9707-6.16211 10.3711-6.16211L14.0625-6.16211L14.0625-2.46094Q14.0625-2.06055 14.3115-1.80664Q14.5605-1.55273 14.9414-1.55273Q15.3516-1.55273 15.6055-1.80664Q15.8594-2.06055 15.8594-2.46094L15.8594-6.16211L19.5605-6.16211Q19.9609-6.16211 20.2148-6.41113Q20.4688-6.66016 20.4688-7.04102Q20.4688-7.45117 20.2148-7.70508Q19.9609-7.95898 19.5605-7.95898L15.8594-7.95898L15.8594-11.6504Q15.8594-12.0605 15.6055-12.3145Q15.3516-12.5684 14.9414-12.5684Q14.5605-12.5684 14.3115-12.3096Q14.0625-12.0508 14.0625-11.6504L14.0625-7.95898L10.3711-7.95898Q9.96094-7.95898 9.70703-7.70508Q9.45312-7.45117 9.45312-7.04102Z"/>
  </g>
  <text style="stroke:none;fill:black;font-family:SF Pro,SF Pro Display,SF Pro Text,sans-serif;font-size:13;font-weight:bold;" transform="matrix(1 0 0 1 263 1953)">Design Variations</text>
  <text style="stroke:none;fill:black;font-family:SF Pro,SF Pro Display,SF Pro Text,sans-serif;font-size:13;" transform="matrix(1 0 0 1 263 1971)">Symbols are supported in up to nine weights and three scales.</text>
  <text style="stroke:none;fill:black;font-family:SF Pro,SF Pro Display,SF Pro Text,sans-serif;font-size:13;" transform="matrix(1 0 0 1 263 1989)">For optimal layout with text and other symbols, vertically align</text>
  <text style="stroke:none;fill:black;font-family:SF Pro,SF Pro Display,SF Pro Text,sans-serif;font-size:13;" transform="matrix(1 0 0 1 263 2007)">symbols with the adjacent text.</text>
  <line style="fill:none;stroke:#00AEEF;stroke-width:0.5;opacity:1.0;" x1="776" x2="776" y1="1919" y2="1933"/>
  <g transform="matrix(1 0 0 1 776 1933)">
   <path d="M3.31055 0.15625Q3.70117 0.15625 3.91602-0.00976562Q4.13086-0.175781 4.26758-0.585938L5.52734-4.0332L11.2891-4.0332L12.5488-0.585938Q12.6855-0.175781 12.9004-0.00976562Q13.1152 0.15625 13.4961 0.15625Q13.8867 0.15625 14.1162-0.0585938Q14.3457-0.273438 14.3457-0.644531Q14.3457-0.869141 14.2383-1.17188L9.6582-13.3691Q9.48242-13.8184 9.17969-14.043Q8.87695-14.2676 8.4082-14.2676Q7.5-14.2676 7.17773-13.3789L2.59766-1.16211Q2.49023-0.859375 2.49023-0.634766Q2.49023-0.263672 2.70996-0.0537109Q2.92969 0.15625 3.31055 0.15625ZM6.00586-5.51758L8.37891-12.0898L8.42773-12.0898L10.8008-5.51758Z"/>
  </g>
  <line style="fill:none;stroke:#00AEEF;stroke-width:0.5;opacity:1.0;" x1="793.197" x2="793.197" y1="1919" y2="1933"/>
  <text style="stroke:none;fill:black;font-family:SF Pro,SF Pro Display,SF Pro Text,sans-serif;font-size:13;font-weight:bold;" transform="matrix(1 0 0 1 776 1953)">Margins</text>
  <text style="stroke:none;fill:black;font-family:SF Pro,SF Pro Display,SF Pro Text,sans-serif;font-size:13;" transform="matrix(1 0 0 1 776 1971)">Leading and trailing margins on the left and right side of each symbol</text>
  <text style="stroke:none;fill:black;font-family:SF Pro,SF Pro Display,SF Pro Text,sans-serif;font-size:13;" transform="matrix(1 0 0 1 776 1989)">can be adjusted by modifying the x-location of the margin guidelines.</text>
  <text style="stroke:none;fill:black;font-family:SF Pro,SF Pro Display,SF Pro Text,sans-serif;font-size:13;" transform="matrix(1 0 0 1 776 2007)">Modifications are automatically applied proportionally to all</text>
  <text style="stroke:none;fill:black;font-family:SF Pro,SF Pro Display,SF Pro Text,sans-serif;font-size:13;" transform="matrix(1 0 0 1 776 2025)">scales and weights.</text>
  <g transform="matrix(1 0 0 1 1289 1933)">
   <path d="M2.8418 1.86523L4.54102 3.57422Q5.18555 4.22852 5.90332 4.17969Q6.62109 4.13086 7.31445 3.35938L18.0078-8.42773L17.041-9.4043L6.42578 2.27539Q6.16211 2.57812 5.89355 2.61719Q5.625 2.65625 5.27344 2.30469L4.10156 1.14258Q3.75 0.791016 3.79395 0.522461Q3.83789 0.253906 4.14062-0.0195312L15.6152-10.8203L14.6387-11.7871L3.04688-0.898438Q2.30469-0.214844 2.25098 0.498047Q2.19727 1.21094 2.8418 1.86523ZM9.25781-16.3281Q8.94531-16.0254 8.90625-15.6348Q8.86719-15.2441 9.04297-14.9512Q9.21875-14.6777 9.55566-14.541Q9.89258-14.4043 10.3809-14.5215Q11.4746-14.7754 12.5977-14.7314Q13.7207-14.6875 14.7949-13.9844L14.209-12.5293Q13.9551-11.9043 14.0674-11.4404Q14.1797-10.9766 14.5801-10.5664L16.875-8.25195Q17.2363-7.88086 17.5781-7.82227Q17.9199-7.76367 18.3398-7.8418L19.4043-8.03711L20.0684-7.36328L20.0293-6.80664Q20-6.43555 20.1221-6.12305Q20.2441-5.81055 20.6055-5.44922L21.3672-4.70703Q21.7285-4.3457 22.1533-4.33105Q22.5781-4.31641 22.9297-4.66797L25.8398-7.58789Q26.1914-7.93945 26.1816-8.35449Q26.1719-8.76953 25.8105-9.13086L25.0391-9.89258Q24.6875-10.2539 24.3799-10.3857Q24.0723-10.5176 23.7109-10.4883L23.1348-10.4395L22.4902-11.0742L22.7344-12.1973Q22.832-12.6172 22.6953-12.9834Q22.5586-13.3496 22.1191-13.7891L19.9219-15.9766Q18.6719-17.2168 17.2607-17.8369Q15.8496-18.457 14.4189-18.4814Q12.9883-18.5059 11.665-17.959Q10.3418-17.4121 9.25781-16.3281ZM10.752-15.957Q11.6602-16.6211 12.7002-16.9043Q13.7402-17.1875 14.8047-17.085Q15.8691-16.9824 16.8701-16.5137Q17.8711-16.0449 18.7012-15.2051L21.1328-12.793Q21.3086-12.6172 21.3525-12.4512Q21.3965-12.2852 21.3379-12.0312L21.0156-10.5469L22.5195-9.0625L23.5059-9.12109Q23.6914-9.13086 23.7891-9.09668Q23.8867-9.0625 24.0332-8.91602L24.6094-8.33984L22.168-5.89844L21.5918-6.47461Q21.4453-6.62109 21.4062-6.71875Q21.3672-6.81641 21.377-7.01172L21.4453-7.98828L19.9512-9.47266L18.4277-9.21875Q18.1836-9.16992 18.042-9.2041Q17.9004-9.23828 17.7148-9.41406L15.7129-11.416Q15.5176-11.5918 15.4932-11.7529Q15.4688-11.9141 15.5859-12.1875L16.4648-14.2773Q15.293-15.3711 13.8281-15.791Q12.3633-16.2109 10.8398-15.7617Q10.7227-15.7324 10.6885-15.8057Q10.6543-15.8789 10.752-15.957Z"/>
  </g>
  <text style="stroke:none;fill:black;font-family:SF Pro,SF Pro Display,SF Pro Text,sans-serif;font-size:13;font-weight:bold;" transform="matrix(1 0 0 1 1289 1953)">Exporting</text>
  <text style="stroke:none;fill:black;font-family:SF Pro,SF Pro Display,SF Pro Text,sans-serif;font-size:13;" transform="matrix(1 0 0 1 1289 1971)">Symbols should be outlined when exporting to ensure the</text>
  <text style="stroke:none;fill:black;font-family:SF Pro,SF Pro Display,SF Pro Text,sans-serif;font-size:13;" transform="matrix(1 0 0 1 1289 1989)">design is preserved when submitting to Xcode.</text>
  <text id="template-version" style="stroke:none;fill:black;font-family:SF Pro,SF Pro Display,SF Pro Text,sans-serif;font-size:13;text-anchor:end;" transform="matrix(1 0 0 1 3036 1933)">Template v.3.0</text>
  <text style="stroke:none;fill:black;font-family:SF Pro,SF Pro Display,SF Pro Text,sans-serif;font-size:13;text-anchor:end;" transform="matrix(1 0 0 1 3036 1951)">Requires Xcode 13 or greater</text>
  <text id="descriptive-name" style="stroke:none;fill:black;font-family:SF Pro,SF Pro Display,SF Pro Text,sans-serif;font-size:13;text-anchor:end;" transform="matrix(1 0 0 1 3036 1969)">Generated from doc.on.clipboard</text>
  <text style="stroke:none;fill:black;font-family:SF Pro,SF Pro Display,SF Pro Text,sans-serif;font-size:13;text-anchor:end;" transform="matrix(1 0 0 1 3036 1987)">Typeset at 100 points</text>
  <text style="stroke:none;fill:black;font-family:SF Pro,SF Pro Display,SF Pro Text,sans-serif;font-size:13;" transform="matrix(1 0 0 1 263 726)">Small</text>
  <text style="stroke:none;fill:black;font-family:SF Pro,SF Pro Display,SF Pro Text,sans-serif;font-size:13;" transform="matrix(1 0 0 1 263 1156)">Medium</text>
  <text style="stroke:none;fill:black;font-family:SF Pro,SF Pro Display,SF Pro Text,sans-serif;font-size:13;" transform="matrix(1 0 0 1 263 1586)">Large</text>
 </g>
 <g id="Guides">
  <g id="H-reference" style="fill:#27AAE1;stroke:none;" transform="matrix(1 0 0 1 339 696)">
   <path d="M0.976562 0L3.66211 0L29.3457-67.1387L30.0293-67.1387L30.0293-70.459L28.125-70.459ZM11.6699-24.4629L46.9727-24.4629L46.2402-26.709L12.4512-26.709ZM55.127 0L57.7637 0L30.6152-70.459L29.4434-70.459L29.4434-67.1387Z"/>
  </g>
  <line id="Baseline-S" style="fill:none;stroke:#27AAE1;opacity:1;stroke-width:0.5;" x1="263" x2="3036" y1="696" y2="696"/>
  <line id="Capline-S" style="fill:none;stroke:#27AAE1;opacity:1;stroke-width:0.5;" x1="263" x2="3036" y1="625.541" y2="625.541"/>
  <g id="H-reference" style="fill:#27AAE1;stroke:none;" transform="matrix(1 0 0 1 339 1126)">
   <path d="M0.976562 0L3.66211 0L29.3457-67.1387L30.0293-67.1387L30.0293-70.459L28.125-70.459ZM11.6699-24.4629L46.9727-24.4629L46.2402-26.709L12.4512-26.709ZM55.127 0L57.7637 0L30.6152-70.459L29.4434-70.459L29.4434-67.1387Z"/>
  </g>
  <line id="Baseline-M" style="fill:none;stroke:#27AAE1;opacity:1;stroke-width:0.5;" x1="263" x2="3036" y1="1126" y2="1126"/>
  <line id="Capline-M" style="fill:none;stroke:#27AAE1;opacity:1;stroke-width:0.5;" x1="263" x2="3036" y1="1055.54" y2="1055.54"/>
  <g id="H-reference" style="fill:#27AAE1;stroke:none;" transform="matrix(1 0 0 1 339 1556)">
   <path d="M0.976562 0L3.66211 0L29.3457-67.1387L30.0293-67.1387L30.0293-70.459L28.125-70.459ZM11.6699-24.4629L46.9727-24.4629L46.2402-26.709L12.4512-26.709ZM55.127 0L57.7637 0L30.6152-70.459L29.4434-70.459L29.4434-67.1387Z"/>
  </g>
  <line id="Baseline-L" style="fill:none;stroke:#27AAE1;opacity:1;stroke-width:0.5;" x1="263" x2="3036" y1="1556" y2="1556"/>
  <line id="Capline-L" style="fill:none;stroke:#27AAE1;opacity:1;stroke-width:0.5;" x1="263" x2="3036" y1="1485.54" y2="1485.54"/>
  <line id="left-margin-Regular-M" style="fill:none;stroke:#00AEEF;stroke-width:0.5;opacity:1.0;" x1="1387.47" x2="1387.47" y1="1030.79" y2="1150.12"/>
  <line id="right-margin-Regular-M" style="fill:none;stroke:#00AEEF;stroke-width:0.5;opacity:1.0;" x1="1512.22" x2="1512.22" y1="1030.79" y2="1150.12"/>
 </g>
 <g id="Symbols">
  <g id="Black-L" transform="matrix(1 0 0 1 2847.93 1556)">
   <path class="hierarchical-0:secondary SFSymbolsPreview4D4D4D" d="M49.3164-68.6523L71.9727-68.6523L112.5-28.3203L112.5 12.5977L131.104 12.5977Q142.48 12.5977 148.682 6.34766Q154.883 0.0976562 154.883-11.3281L154.883-94.5801Q154.883-106.006 148.682-112.256Q142.48-118.506 131.104-118.506L73.1445-118.506Q61.7188-118.506 55.5176-112.28Q49.3164-106.055 49.3164-94.5801ZM88.623-92.4805Q86.4258-92.4805 84.9854-94.0186Q83.5449-95.5566 83.5449-97.5098L83.5449-99.1699Q83.5449-100.635 84.79-102.417Q86.0352-104.199 88.623-104.199L115.625-104.199Q118.213-104.199 119.482-102.417Q120.752-100.635 120.752-99.1699L120.752-97.5098Q120.752-95.5566 119.287-94.0186Q117.822-92.4805 115.625-92.4805Z"/>
   <path class="hierarchical-1:primary clearBehindLayer SFSymbolsPreview212121" d="M16.0645 24.1211Q16.0645 35.5957 22.2656 41.8213Q28.4668 48.0469 39.8926 48.0469L97.8516 48.0469Q109.229 48.0469 115.43 41.7969Q121.631 35.5469 121.631 24.1211L121.631-21.6309Q121.631-26.5625 121.021-30.2734Q120.41-33.9844 118.726-37.0605Q117.041-40.1367 113.916-43.2617L82.0801-75.3418Q79.0039-78.418 75.9277-80.1025Q72.8516-81.7871 69.1895-82.4219Q65.5273-83.0566 60.7422-83.0566L39.8926-83.0566Q28.4668-83.0566 22.2656-76.8311Q16.0645-70.6055 16.0645-59.1797ZM36.3281 21.3867L36.3281-56.4453Q36.3281-59.6191 37.8174-61.2305Q39.3066-62.8418 42.7246-62.8418L57.2754-62.8418L57.2754-35.5469Q57.2754-25.8789 61.8652-21.2891Q66.4551-16.6992 76.123-16.6992L101.416-16.6992L101.416 21.3867Q101.416 24.5605 99.9023 26.1719Q98.3887 27.7832 94.9707 27.7832L42.7246 27.7832Q39.3066 27.7832 37.8174 26.1719Q36.3281 24.5605 36.3281 21.3867ZM77.4414-32.6172Q75.3418-32.6172 74.2676-33.6914Q73.1934-34.7656 73.1934-36.8652L73.1934-60.1074L100.439-32.6172Z"/>
  </g>
  <g id="Heavy-L" transform="matrix(1 0 0 1 2552.51 1556)">
   <path class="hierarchical-0:secondary SFSymbolsPreview4D4D4D" d="M48.6816-70.8984L70.3125-70.8984L112.109-29.1504L112.109 12.5977L129.688 12.5977Q140.625 12.5977 146.46 6.68945Q152.295 0.78125 152.295-10.2051L152.295-94.6777Q152.295-105.615 146.46-111.523Q140.625-117.432 129.688-117.432L71.3379-117.432Q60.4004-117.432 54.541-111.548Q48.6816-105.664 48.6816-94.6777ZM86.6699-92.6758Q84.5215-92.6758 83.2031-94.0918Q81.8848-95.5078 81.8848-97.3145L81.8848-98.877Q81.8848-100.342 83.0566-101.953Q84.2285-103.564 86.6699-103.564L114.355-103.564Q116.797-103.564 117.969-101.953Q119.141-100.342 119.141-98.877L119.141-97.3145Q119.141-95.5078 117.822-94.0918Q116.504-92.6758 114.355-92.6758Z"/>
   <path class="hierarchical-1:primary clearBehindLayer SFSymbolsPreview212121" d="M16.0645 24.1699Q16.0645 35.2051 21.9238 41.0645Q27.7832 46.9238 38.7207 46.9238L97.1191 46.9238Q108.008 46.9238 113.867 41.04Q119.727 35.1562 119.727 24.1699L119.727-22.6562Q119.727-27.2949 119.141-30.7129Q118.555-34.1309 116.992-36.9629Q115.43-39.7949 112.549-42.7246L79.6875-75.9277Q76.8066-78.7598 73.9746-80.3223Q71.1426-81.8848 67.7734-82.4707Q64.4043-83.0566 60.0098-83.0566L38.7207-83.0566Q27.7832-83.0566 21.9238-77.1729Q16.0645-71.2891 16.0645-60.3516ZM33.5938 22.0703L33.5938-58.2031Q33.5938-61.8164 35.3516-63.6963Q37.1094-65.5762 40.9668-65.5762L57.3242-65.5762L57.3242-35.8887Q57.3242-27.1973 61.4746-23.0469Q65.625-18.8965 74.3164-18.8965L102.246-18.8965L102.246 22.0703Q102.246 25.6836 100.439 27.5635Q98.6328 29.4434 94.7754 29.4434L40.9668 29.4434Q37.1094 29.4434 35.3516 27.5635Q33.5938 25.6836 33.5938 22.0703ZM75.5859-33.0078Q73.4863-33.0078 72.4365-34.0332Q71.3867-35.0586 71.3867-37.1582L71.3867-62.9395L101.074-33.0078Z"/>
  </g>
  <g id="Bold-L" transform="matrix(1 0 0 1 2257.21 1556)">
   <path class="hierarchical-0:secondary SFSymbolsPreview4D4D4D" d="M47.9492-73.3887L68.4082-73.3887L111.67-30.127L111.67 12.5488L128.174 12.5488Q138.525 12.5488 143.994 7.03125Q149.463 1.51367 149.463-8.93555L149.463-94.8242Q149.463-105.225 143.994-110.742Q138.525-116.26 128.174-116.26L69.2871-116.26Q58.9355-116.26 53.4424-110.767Q47.9492-105.273 47.9492-94.8242ZM84.5215-92.9199Q82.4219-92.9199 81.25-94.2139Q80.0781-95.5078 80.0781-97.168L80.0781-98.584Q80.0781-100 81.1523-101.416Q82.2266-102.832 84.5215-102.832L112.939-102.832Q115.186-102.832 116.284-101.416Q117.383-100 117.383-98.584L117.383-97.168Q117.383-95.5078 116.187-94.2139Q114.99-92.9199 112.939-92.9199Z"/>
   <path class="hierarchical-1:primary clearBehindLayer SFSymbolsPreview212121" d="M16.0645 24.2676Q16.0645 34.7168 21.5332 40.21Q27.002 45.7031 37.4023 45.7031L96.2891 45.7031Q106.641 45.7031 112.109 40.1855Q117.578 34.668 117.578 24.2676L117.578-23.8281Q117.578-28.125 117.065-31.2256Q116.553-34.3262 115.112-36.8896Q113.672-39.4531 110.986-42.1875L77.002-76.5625Q74.3652-79.1992 71.8018-80.6152Q69.2383-82.0312 66.2109-82.5684Q63.1836-83.1055 59.1797-83.1055L37.4023-83.1055Q27.002-83.1055 21.5332-77.6123Q16.0645-72.1191 16.0645-61.6699ZM30.5176 22.8027L30.5176-60.2051Q30.5176-64.3066 32.6172-66.5039Q34.7168-68.7012 39.0625-68.7012L57.373-68.7012L57.373-36.3281Q57.373-28.7109 61.0596-25.0488Q64.7461-21.3867 72.3145-21.3867L103.125-21.3867L103.125 22.8027Q103.125 26.9531 101.025 29.1016Q98.9258 31.25 94.5801 31.25L39.0137 31.25Q34.7168 31.25 32.6172 29.1016Q30.5176 26.9531 30.5176 22.8027ZM73.4863-33.3984Q71.3867-33.3984 70.4102-34.375Q69.4336-35.3516 69.4336-37.4512L69.4336-66.1621L101.807-33.3984Z"/>
  </g>
  <g id="Semibold-L" transform="matrix(1 0 0 1 1961.5 1556)">
   <path class="hierarchical-0:secondary SFSymbolsPreview4D4D4D" d="M47.4609-75.0977L67.0898-75.0977L111.328-30.7617L111.328 12.5488L127.051 12.5488Q137.109 12.5488 142.285 7.2998Q147.461 2.05078 147.461-8.00781L147.461-94.873Q147.461-104.932 142.285-110.181Q137.109-115.43 127.051-115.43L67.8711-115.43Q57.9102-115.43 52.6855-110.205Q47.4609-104.98 47.4609-94.873ZM83.0078-93.0664Q80.957-93.0664 79.8584-94.2627Q78.7598-95.459 78.7598-97.0215L78.7598-98.3887Q78.7598-99.7559 79.8096-101.05Q80.8594-102.344 83.0078-102.344L111.963-102.344Q114.062-102.344 115.112-101.05Q116.162-99.7559 116.162-98.3887L116.162-97.0215Q116.162-95.459 115.063-94.2627Q113.965-93.0664 111.963-93.0664Z"/>
   <path class="hierarchical-1:primary clearBehindLayer SFSymbolsPreview212121" d="M16.0645 24.2676Q16.0645 34.375 21.2402 39.624Q26.416 44.873 36.4746 44.873L95.7031 44.873Q105.713 44.873 110.889 39.5996Q116.064 34.3262 116.064 24.2676L116.064-24.6094Q116.064-28.6621 115.601-31.5674Q115.137-34.4727 113.794-36.8408Q112.451-39.209 109.912-41.748L75.0977-76.9531Q72.6562-79.4434 70.2881-80.7861Q67.9199-82.1289 65.1123-82.6172Q62.3047-83.1055 58.5938-83.1055L36.4746-83.1055Q26.4648-83.1055 21.2646-77.8809Q16.0645-72.6562 16.0645-62.5977ZM28.418 23.3398L28.418-61.5723Q28.418-66.0156 30.7129-68.4082Q33.0078-70.8008 37.6953-70.8008L57.4219-70.8008L57.4219-36.5723Q57.4219-29.6875 60.7666-26.3672Q64.1113-23.0469 70.9473-23.0469L103.76-23.0469L103.76 23.3398Q103.76 27.7832 101.44 30.1514Q99.1211 32.5195 94.4336 32.5195L37.6465 32.5195Q33.0078 32.5195 30.7129 30.1514Q28.418 27.7832 28.418 23.3398ZM72.0215-33.6914Q69.9219-33.6914 68.9697-34.6191Q68.0176-35.5469 68.0176-37.6465L68.0176-68.3105L102.295-33.6914Z"/>
  </g>
  <g id="Medium-L" transform="matrix(1 0 0 1 1665.55 1556)">
   <path class="hierarchical-0:secondary SFSymbolsPreview4D4D4D" d="M47.0703-76.416L66.1133-76.416L111.084-31.2988L111.084 12.5L126.27 12.5Q135.986 12.5 140.967 7.4707Q145.947 2.44141 145.947-7.37305L145.947-94.9219Q145.947-104.736 140.967-109.79Q135.986-114.844 126.27-114.844L66.7969-114.844Q57.1289-114.844 52.0996-109.814Q47.0703-104.785 47.0703-94.9219ZM81.8359-93.1641Q79.8828-93.1641 78.8574-94.3115Q77.832-95.459 77.832-96.9238L77.832-98.1934Q77.832-99.6094 78.8086-100.781Q79.7852-101.953 81.8359-101.953L111.23-101.953Q113.232-101.953 114.233-100.781Q115.234-99.6094 115.234-98.1934L115.234-96.9238Q115.234-95.459 114.209-94.3115Q113.184-93.1641 111.23-93.1641Z"/>
   <path class="hierarchical-1:primary clearBehindLayer SFSymbolsPreview212121" d="M16.0645 24.3164Q16.0645 34.1309 21.0449 39.1602Q26.0254 44.1895 35.791 44.1895L95.2637 44.1895Q104.98 44.1895 109.961 39.1357Q114.941 34.082 114.941 24.3164L114.941-25.2441Q114.941-29.1016 114.502-31.8115Q114.062-34.5215 112.793-36.7676Q111.523-39.0137 109.131-41.4551L73.7305-77.2949Q71.3867-79.6387 69.165-80.9082Q66.9434-82.1777 64.2822-82.666Q61.6211-83.1543 58.1543-83.1543L35.791-83.1543Q26.0742-83.1543 21.0693-78.1006Q16.0645-73.0469 16.0645-63.2812ZM26.8066 23.7305L26.8066-62.5977Q26.8066-67.2852 29.2725-69.8486Q31.7383-72.4121 36.6699-72.4121L57.4219-72.4121L57.4219-36.7676Q57.4219-30.4688 60.5469-27.417Q63.6719-24.3652 69.873-24.3652L104.199-24.3652L104.199 23.7305Q104.199 28.4668 101.733 30.957Q99.2676 33.4473 94.3359 33.4473L36.6211 33.4473Q31.7383 33.4473 29.2725 30.957Q26.8066 28.4668 26.8066 23.7305ZM70.8984-33.8867Q68.7988-33.8867 67.8955-34.8145Q66.9922-35.7422 66.9922-37.8418L66.9922-70.0195L102.637-33.8867Z"/>
  </g>
  <g id="Regular-L" transform="matrix(1 0 0 1 1369.82 1556)">
   <path class="hierarchical-0:secondary SFSymbolsPreview4D4D4D" d="M46.582-78.125L64.8438-78.125L110.791-31.9336L110.791 12.5L125.195 12.5Q134.57 12.5 139.282 7.71484Q143.994 2.92969 143.994-6.49414L143.994-95.0195Q143.994-104.443 139.282-109.229Q134.57-114.014 125.195-114.014L65.4297-114.014Q56.1035-114.014 51.3428-109.253Q46.582-104.492 46.582-95.0195ZM80.3711-93.3105Q78.418-93.3105 77.4902-94.3604Q76.5625-95.4102 76.5625-96.7773L76.5625-97.998Q76.5625-99.3652 77.4902-100.415Q78.418-101.465 80.3711-101.465L110.254-101.465Q112.158-101.465 113.086-100.415Q114.014-99.3652 114.014-97.998L114.014-96.7773Q114.014-95.4102 113.086-94.3604Q112.158-93.3105 110.254-93.3105Z"/>
   <path class="hierarchical-1:primary clearBehindLayer SFSymbolsPreview212121" d="M16.0645 24.3652Q16.0645 33.8379 20.7764 38.5986Q25.4883 43.3594 34.8633 43.3594L94.6777 43.3594Q104.053 43.3594 108.765 38.5742Q113.477 33.7891 113.477 24.3652L113.477-26.0254Q113.477-29.6387 113.062-32.1533Q112.646-34.668 111.475-36.7188Q110.303-38.7695 108.057-41.0645L71.875-77.7344Q69.7266-79.9316 67.6758-81.1035Q65.625-82.2754 63.208-82.7148Q60.791-83.1543 57.5684-83.1543L34.8633-83.1543Q25.5371-83.1543 20.8008-78.3691Q16.0645-73.584 16.0645-64.1602ZM24.707 24.2188L24.707-63.9648Q24.707-68.9941 27.3926-71.7529Q30.0781-74.5117 35.3516-74.5117L57.4707-74.5117L57.4707-37.0605Q57.4707-31.4941 60.2539-28.7598Q63.0371-26.0254 68.5059-26.0254L104.834-26.0254L104.834 24.2188Q104.834 29.2969 102.148 32.0068Q99.4629 34.7168 94.1895 34.7168L35.3027 34.7168Q30.0781 34.7168 27.3926 32.0068Q24.707 29.2969 24.707 24.2188ZM69.4824-34.1797Q67.3828-34.1797 66.5039-35.0586Q65.625-35.9375 65.625-38.0371L65.625-72.168L103.125-34.1797Z"/>
  </g>
  <g id="Light-L" transform="matrix(1 0 0 1 1073.69 1556)">
   <path class="hierarchical-0:secondary SFSymbolsPreview4D4D4D" d="M46.582-79.3457L63.2324-79.3457L109.961-32.4219L109.961 12.5488L124.951 12.5488Q133.789 12.5488 138.306 8.00781Q142.822 3.4668 142.822-5.41992L142.822-95.3125Q142.822-104.15 138.306-108.716Q133.789-113.281 124.951-113.281L64.4531-113.281Q55.6641-113.281 51.123-108.74Q46.582-104.199 46.582-95.3125ZM80.3711-93.7012Q78.5645-93.7012 77.7344-94.6533Q76.9043-95.6055 76.9043-96.8262L76.9043-97.9492Q76.9043-99.1699 77.7344-100.146Q78.5645-101.123 80.3711-101.123L109.033-101.123Q110.791-101.123 111.646-100.146Q112.5-99.1699 112.5-97.9492L112.5-96.8262Q112.5-95.6055 111.646-94.6533Q110.791-93.7012 109.033-93.7012Z"/>
   <path class="hierarchical-1:primary clearBehindLayer SFSymbolsPreview212121" d="M16.0645 24.707Q16.0645 33.5938 20.5566 38.1104Q25.0488 42.627 33.8867 42.627L94.4336 42.627Q103.32 42.627 107.812 38.0859Q112.305 33.5449 112.305 24.707L112.305-27.3438Q112.305-30.4199 111.914-32.5439Q111.523-34.668 110.522-36.4014Q109.521-38.1348 107.617-40.0879L69.4824-78.5156Q67.6758-80.3711 65.9424-81.3721Q64.209-82.373 62.1338-82.7637Q60.0586-83.1543 57.2266-83.1543L33.8867-83.1543Q25.1465-83.1543 20.6055-78.6133Q16.0645-74.0723 16.0645-65.1855ZM22.6562 24.5117L22.6562-65.0391Q22.6562-70.5078 25.5859-73.5352Q28.5156-76.5625 34.2773-76.5625L58.3984-76.5625L58.3984-37.9395Q58.3984-32.8613 60.9375-30.4199Q63.4766-27.9785 68.4082-27.9785L105.664-27.9785L105.664 24.5117Q105.664 30.127 102.734 33.0811Q99.8047 36.0352 94.0918 36.0352L34.2285 36.0352Q28.5156 36.0352 25.5859 33.0811Q22.6562 30.127 22.6562 24.5117ZM69.043-34.2773Q66.6992-34.2773 65.6982-35.2783Q64.6973-36.2793 64.6973-38.623L64.6973-74.1699L104.297-34.2773Z"/>
  </g>
  <g id="Thin-L" transform="matrix(1 0 0 1 777.785 1556)">
   <path class="hierarchical-0:secondary SFSymbolsPreview4D4D4D" d="M46.5332-80.957L61.0352-80.957L108.887-33.1055L108.887 12.6465L124.609 12.6465Q132.764 12.6465 136.987 8.42285Q141.211 4.19922 141.211-3.95508L141.211-95.6543Q141.211-103.809 136.987-108.032Q132.764-112.256 124.609-112.256L63.1348-112.256Q55.127-112.256 50.8301-108.032Q46.5332-103.809 46.5332-95.6543ZM80.3223-94.2383Q78.8086-94.2383 78.0518-95.0684Q77.2949-95.8984 77.2949-96.9238L77.2949-97.9492Q77.2949-98.9258 78.0518-99.7803Q78.8086-100.635 80.3223-100.635L107.422-100.635Q108.936-100.635 109.692-99.7803Q110.449-98.9258 110.449-97.9492L110.449-96.9238Q110.449-95.8984 109.692-95.0684Q108.936-94.2383 107.422-94.2383Z"/>
   <path class="hierarchical-1:primary clearBehindLayer SFSymbolsPreview212121" d="M16.0645 25.0977Q16.0645 33.252 20.2881 37.4756Q24.5117 41.6992 32.666 41.6992L94.1406 41.6992Q102.295 41.6992 106.519 37.4756Q110.742 33.252 110.742 25.0977L110.742-29.1016Q110.742-31.4453 110.4-33.0811Q110.059-34.7168 109.277-36.0107Q108.496-37.3047 107.08-38.7207L66.3574-79.541Q64.9414-80.957 63.623-81.7627Q62.3047-82.5684 60.6934-82.8857Q59.082-83.2031 56.7871-83.2031L32.666-83.2031Q24.6094-83.2031 20.3369-78.9795Q16.0645-74.7559 16.0645-66.6016ZM20.0195 24.9023L20.0195-66.4062Q20.0195-72.5586 23.2666-75.9033Q26.5137-79.248 32.8613-79.248L59.668-79.248L59.668-39.1113Q59.668-34.6191 61.8652-32.5928Q64.0625-30.5664 68.2129-30.5664L106.787-30.5664L106.787 24.9023Q106.787 31.25 103.54 34.5215Q100.293 37.793 93.9453 37.793L32.8613 37.793Q26.5137 37.793 23.2666 34.5215Q20.0195 31.25 20.0195 24.9023ZM68.5059-34.4238Q65.8203-34.4238 64.6729-35.5713Q63.5254-36.7188 63.5254-39.4043L63.5254-76.8066L105.811-34.4238Z"/>
  </g>
  <g id="Ultralight-L" transform="matrix(1 0 0 1 481.464 1556)">
   <path class="hierarchical-0:secondary SFSymbolsPreview4D4D4D" d="M46.5332-81.7383L59.9609-81.7383L108.35-33.4473L108.35 12.6953L124.463 12.6953Q132.275 12.6953 136.353 8.61816Q140.43 4.54102 140.43-3.22266L140.43-95.8496Q140.43-103.613 136.353-107.69Q132.275-111.768 124.463-111.768L62.5-111.768Q54.834-111.768 50.6836-107.69Q46.5332-103.613 46.5332-95.8496ZM80.3223-94.4824Q78.9062-94.4824 78.2227-95.2637Q77.5391-96.0449 77.5391-96.9727L77.5391-97.9004Q77.5391-98.8281 78.2227-99.6094Q78.9062-100.391 80.3223-100.391L106.641-100.391Q108.008-100.391 108.716-99.6094Q109.424-98.8281 109.424-97.9004L109.424-96.9727Q109.424-96.0449 108.716-95.2637Q108.008-94.4824 106.641-94.4824Z"/>
   <path class="hierarchical-1:primary clearBehindLayer SFSymbolsPreview212121" d="M16.0645 25.3418Q16.0645 33.0566 20.1416 37.1338Q24.2188 41.2109 31.9824 41.2109L93.9941 41.2109Q101.807 41.2109 105.859 37.1582Q109.912 33.1055 109.912 25.3418L109.912-29.9805Q109.912-31.9336 109.619-33.3252Q109.326-34.7168 108.667-35.8154Q108.008-36.9141 106.787-38.0859L64.7461-80.0781Q63.5742-81.25 62.4512-81.9336Q61.3281-82.6172 59.9365-82.9102Q58.5449-83.2031 56.5918-83.2031L31.9824-83.2031Q24.3652-83.2031 20.2148-79.1504Q16.0645-75.0977 16.0645-67.2852ZM18.6035 25.1465L18.6035-67.1387Q18.6035-73.584 22.0215-77.124Q25.4395-80.6641 32.1289-80.6641L60.3027-80.6641L60.3027-39.7461Q60.3027-35.5469 62.3291-33.7158Q64.3555-31.8848 68.1641-31.8848L107.373-31.8848L107.373 25.1465Q107.373 31.8359 103.955 35.2539Q100.537 38.6719 93.8477 38.6719L32.1289 38.6719Q25.4395 38.6719 22.0215 35.2539Q18.6035 31.8359 18.6035 25.1465ZM68.2129-34.5215Q65.332-34.5215 64.1113-35.7178Q62.8906-36.9141 62.8906-39.7949L62.8906-78.1738L106.592-34.5215Z"/>
  </g>
  <g id="Black-M" transform="matrix(1 0 0 1 2866.26 1126)">
   <path class="hierarchical-0:secondary SFSymbolsPreview4D4D4D" d="M38.7695-59.6191L56.6895-59.6191L87.2559-29.3457L87.2559 1.85547L102.686 1.85547Q111.768 1.85547 116.797-3.17383Q121.826-8.20312 121.826-17.2852L121.826-81.25Q121.826-90.332 116.797-95.3613Q111.768-100.391 102.686-100.391L57.9102-100.391Q48.8281-100.391 43.7988-95.3613Q38.7695-90.332 38.7695-81.25ZM70.3613-79.5898Q68.6035-79.5898 67.4316-80.835Q66.2598-82.0801 66.2598-83.6914L66.2598-85.0098Q66.2598-86.084 67.2607-87.5977Q68.2617-89.1113 70.3613-89.1113L90.2832-89.1113Q92.3828-89.1113 93.3838-87.5977Q94.3848-86.084 94.3848-85.0098L94.3848-83.6914Q94.3848-82.0801 93.1885-80.835Q91.9922-79.5898 90.2832-79.5898Z"/>
   <path class="hierarchical-1:primary clearBehindLayer SFSymbolsPreview212121" d="M12.4512 10.8398Q12.4512 19.9219 17.4805 24.9512Q22.5098 29.9805 31.5918 29.9805L76.416 29.9805Q85.4492 29.9805 90.5029 24.9512Q95.5566 19.9219 95.5566 10.8398L95.5566-24.2188Q95.5566-28.1738 95.0195-31.1523Q94.4824-34.1309 93.1396-36.6211Q91.7969-39.1113 89.3555-41.5527L64.8926-66.0645Q61.1816-69.7754 57.2998-71.0205Q53.418-72.2656 47.6074-72.2656L31.5918-72.2656Q22.5098-72.2656 17.4805-67.2363Q12.4512-62.207 12.4512-53.125ZM29.7852 8.20312L29.7852-50.4883Q29.7852-52.7344 30.8105-53.833Q31.8359-54.9316 34.2773-54.9316L44.6777-54.9316L44.6777-35.4492Q44.6777-27.3438 48.5107-23.5107Q52.3438-19.6777 60.4492-19.6777L78.1738-19.6777L78.1738 8.20312Q78.1738 10.4492 77.1729 11.5479Q76.1719 12.6465 73.7305 12.6465L34.2773 12.6465Q31.8359 12.6465 30.8105 11.5479Q29.7852 10.4492 29.7852 8.20312ZM61.4746-32.959Q59.7168-32.959 58.8379-33.8379Q57.959-34.7168 57.959-36.4746L57.959-52.7344L77.6855-32.959Z"/>
  </g>
  <g id="Heavy-M" transform="matrix(1 0 0 1 2570.67 1126)">
   <path class="hierarchical-0:secondary SFSymbolsPreview4D4D4D" d="M38.1348-61.5723L55.4199-61.5723L87.0605-30.0781L87.0605 1.85547L101.367 1.85547Q110.107 1.85547 114.844-2.90527Q119.58-7.66602 119.58-16.4062L119.58-81.2988Q119.58-90.0391 114.844-94.7754Q110.107-99.5117 101.367-99.5117L56.3477-99.5117Q47.6074-99.5117 42.8711-94.7754Q38.1348-90.0391 38.1348-81.2988ZM68.457-79.6875Q66.748-79.6875 65.6738-80.835Q64.5996-81.9824 64.5996-83.4961L64.5996-84.7656Q64.5996-85.8398 65.5273-87.207Q66.4551-88.5742 68.457-88.5742L89.3066-88.5742Q91.2598-88.5742 92.2119-87.207Q93.1641-85.8398 93.1641-84.7656L93.1641-83.4961Q93.1641-81.9824 92.0654-80.835Q90.9668-79.6875 89.3066-79.6875Z"/>
   <path class="hierarchical-1:primary clearBehindLayer SFSymbolsPreview212121" d="M12.4512 10.8398Q12.4512 19.5801 17.1875 24.3164Q21.9238 29.0527 30.6641 29.0527L75.7324 29.0527Q84.4238 29.0527 89.1602 24.3164Q93.8965 19.5801 93.8965 10.8398L93.8965-24.9512Q93.8965-28.7109 93.4082-31.4941Q92.9199-34.2773 91.6748-36.5967Q90.4297-38.916 88.0859-41.2598L63.0371-66.4551Q59.5703-69.9707 55.957-71.1182Q52.3438-72.2656 46.9727-72.2656L30.6641-72.2656Q21.9238-72.2656 17.1875-67.5293Q12.4512-62.793 12.4512-54.0527ZM27.5391 8.78906L27.5391-52.002Q27.5391-54.5898 28.7842-55.8838Q30.0293-57.1777 32.8125-57.1777L44.5312-57.1777L44.5312-35.6445Q44.5312-28.3203 47.998-24.8535Q51.4648-21.3867 58.7402-21.3867L78.8086-21.3867L78.8086 8.78906Q78.8086 11.377 77.5635 12.6709Q76.3184 13.9648 73.584 13.9648L32.7637 13.9648Q30.0293 13.9648 28.7842 12.6709Q27.5391 11.377 27.5391 8.78906ZM59.7168-33.3008Q58.0566-33.3008 57.2266-34.1064Q56.3965-34.9121 56.3965-36.6211L56.3965-55.0781L78.0762-33.3008Z"/>
  </g>
  <g id="Bold-M" transform="matrix(1 0 0 1 2275.21 1126)">
   <path class="hierarchical-0:secondary SFSymbolsPreview4D4D4D" d="M37.4512-63.7207L53.9551-63.7207L86.8164-30.8594L86.8164 1.80664L99.9512 1.80664Q108.252 1.80664 112.671-2.63672Q117.09-7.08008 117.09-15.4297L117.09-81.3477Q117.09-89.6973 112.671-94.1406Q108.252-98.584 99.9512-98.584L54.5898-98.584Q46.2891-98.584 41.8701-94.1406Q37.4512-89.6973 37.4512-81.3477ZM66.3574-79.7852Q64.6484-79.7852 63.6963-80.8594Q62.7441-81.9336 62.7441-83.3008L62.7441-84.4727Q62.7441-85.5469 63.623-86.7432Q64.502-87.9395 66.3574-87.9395L88.2324-87.9395Q90.0391-87.9395 90.9424-86.7432Q91.8457-85.5469 91.8457-84.4727L91.8457-83.3008Q91.8457-81.9336 90.8447-80.8594Q89.8438-79.7852 88.2324-79.7852Z"/>
   <path class="hierarchical-1:primary clearBehindLayer SFSymbolsPreview212121" d="M12.4512 10.8398Q12.4512 19.1895 16.8701 23.6328Q21.2891 28.0762 29.5898 28.0762L74.9512 28.0762Q83.252 28.0762 87.6709 23.6328Q92.0898 19.1895 92.0898 10.8398L92.0898-25.7812Q92.0898-29.3457 91.6504-31.9092Q91.2109-34.4727 90.0391-36.5967Q88.8672-38.7207 86.6699-40.9668L60.9863-66.8945Q57.7637-70.2148 54.4678-71.2646Q51.1719-72.3145 46.2402-72.3145L29.5898-72.3145Q21.2891-72.3145 16.8701-67.8711Q12.4512-63.4277 12.4512-55.0781ZM25.0488 9.42383L25.0488-53.7109Q25.0488-56.6406 26.5381-58.1787Q28.0273-59.7168 31.1523-59.7168L44.3359-59.7168L44.3359-35.8398Q44.3359-29.4434 47.4121-26.3916Q50.4883-23.3398 56.8359-23.3398L79.4922-23.3398L79.4922 9.42383Q79.4922 12.4023 78.0029 13.9404Q76.5137 15.4785 73.4375 15.4785L31.1035 15.4785Q28.0273 15.4785 26.5381 13.9404Q25.0488 12.4023 25.0488 9.42383ZM57.8125-33.6426Q56.2012-33.6426 55.4443-34.3994Q54.6875-35.1562 54.6875-36.7676L54.6875-57.7148L78.4668-33.6426Z"/>
  </g>
  <g id="Semibold-M" transform="matrix(1 0 0 1 1979.38 1126)">
   <path class="hierarchical-0:secondary SFSymbolsPreview4D4D4D" d="M36.9629-65.2344L52.9785-65.2344L86.6211-31.3965L86.6211 1.80664L98.9258 1.80664Q106.982 1.80664 111.157-2.44141Q115.332-6.68945 115.332-14.7461L115.332-81.3477Q115.332-89.4531 111.157-93.6768Q106.982-97.9004 98.9258-97.9004L53.3691-97.9004Q45.3125-97.9004 41.1377-93.6768Q36.9629-89.4531 36.9629-81.3477ZM64.8438-79.834Q63.2324-79.834 62.3291-80.835Q61.4258-81.8359 61.4258-83.1055L61.4258-84.2285Q61.4258-85.3516 62.2559-86.4258Q63.0859-87.5 64.8438-87.5L87.4512-87.5Q89.209-87.5 90.0391-86.4258Q90.8691-85.3516 90.8691-84.2285L90.8691-83.1055Q90.8691-81.8359 89.9658-80.835Q89.0625-79.834 87.4512-79.834Z"/>
   <path class="hierarchical-1:primary clearBehindLayer SFSymbolsPreview212121" d="M12.4512 10.791Q12.4512 18.9453 16.626 23.1445Q20.8008 27.3438 28.8574 27.3438L74.4141 27.3438Q82.4707 27.3438 86.6455 23.1201Q90.8203 18.8965 90.8203 10.791L90.8203-26.3672Q90.8203-29.7363 90.4297-32.1533Q90.0391-34.5703 88.916-36.5723Q87.793-38.5742 85.6934-40.7227L59.5703-67.1875Q56.4941-70.3613 53.418-71.3379Q50.3418-72.3145 45.7031-72.3145L28.8574-72.3145Q20.8008-72.3145 16.626-68.0908Q12.4512-63.8672 12.4512-55.8105ZM23.3398 9.86328L23.3398-54.8828Q23.3398-58.0566 24.9756-59.7656Q26.6113-61.4746 29.9805-61.4746L44.1895-61.4746L44.1895-35.9375Q44.1895-30.2246 46.9971-27.4414Q49.8047-24.6582 55.4688-24.6582L79.9316-24.6582L79.9316 9.86328Q79.9316 13.0859 78.2959 14.7705Q76.6602 16.4551 73.291 16.4551L29.9316 16.4551Q26.6113 16.4551 24.9756 14.7705Q23.3398 13.0859 23.3398 9.86328ZM56.4453-33.8867Q54.8828-33.8867 54.1748-34.5947Q53.4668-35.3027 53.4668-36.8652L53.4668-59.5215L78.7598-33.8867Z"/>
  </g>
  <g id="Medium-M" transform="matrix(1 0 0 1 1683.32 1126)">
   <path class="hierarchical-0:secondary SFSymbolsPreview4D4D4D" d="M36.6211-66.3574L52.1973-66.3574L86.4746-31.8359L86.4746 1.75781L98.1445 1.75781Q106.006 1.75781 110.01-2.29492Q114.014-6.34766 114.014-14.2578L114.014-81.3477Q114.014-89.2578 110.01-93.3105Q106.006-97.3633 98.1445-97.3633L52.4414-97.3633Q44.6289-97.3633 40.625-93.335Q36.6211-89.3066 36.6211-81.3477ZM63.7695-79.9316Q62.1094-79.9316 61.2793-80.8594Q60.4492-81.7871 60.4492-83.0078L60.4492-84.082Q60.4492-85.2051 61.2549-86.2061Q62.0605-87.207 63.7695-87.207L86.8652-87.207Q88.5254-87.207 89.3555-86.2061Q90.1855-85.2051 90.1855-84.082L90.1855-83.0078Q90.1855-81.7871 89.3311-80.8594Q88.4766-79.9316 86.8652-79.9316Z"/>
   <path class="hierarchical-1:primary clearBehindLayer SFSymbolsPreview212121" d="M12.4512 10.791Q12.4512 18.7012 16.4551 22.7539Q20.459 26.8066 28.3203 26.8066L74.0234 26.8066Q81.8359 26.8066 85.8643 22.7539Q89.8926 18.7012 89.8926 10.791L89.8926-26.7578Q89.8926-30.0781 89.502-32.373Q89.1113-34.668 88.0615-36.5723Q87.0117-38.4766 84.9609-40.5273L58.4961-67.4316Q55.5176-70.459 52.6367-71.4111Q49.7559-72.3633 45.3125-72.3633L28.3203-72.3633Q20.459-72.3633 16.4551-68.2861Q12.4512-64.209 12.4512-56.3477ZM22.0215 10.2051L22.0215-55.7617Q22.0215-59.1309 23.7793-60.9619Q25.5371-62.793 29.1016-62.793L44.1406-62.793L44.1406-36.0352Q44.1406-30.8105 46.7285-28.2227Q49.3164-25.6348 54.4922-25.6348L80.2734-25.6348L80.2734 10.2051Q80.2734 13.623 78.4912 15.4297Q76.709 17.2363 73.1934 17.2363L29.0527 17.2363Q25.5371 17.2363 23.7793 15.4297Q22.0215 13.623 22.0215 10.2051ZM55.4199-34.082Q53.9062-34.082 53.2227-34.7656Q52.5391-35.4492 52.5391-36.9629L52.5391-60.8887L78.9551-34.082Z"/>
  </g>
  <g id="Regular-M" transform="matrix(1 0 0 1 1387.47 1126)">
   <path class="hierarchical-0:secondary SFSymbolsPreview4D4D4D" d="M36.1328-67.8223L51.2207-67.8223L86.3281-32.373L86.3281 1.75781L97.168 1.75781Q104.736 1.75781 108.521-2.09961Q112.305-5.95703 112.305-13.5742L112.305-81.3965Q112.305-89.0137 108.521-92.8711Q104.736-96.7285 97.168-96.7285L51.2695-96.7285Q43.7012-96.7285 39.917-92.8955Q36.1328-89.0625 36.1328-81.3965ZM62.3047-79.9805Q60.6934-79.9805 59.9365-80.8594Q59.1797-81.7383 59.1797-82.8613L59.1797-83.8867Q59.1797-85.0098 59.9365-85.8887Q60.6934-86.7676 62.3047-86.7676L86.1328-86.7676Q87.6953-86.7676 88.4766-85.8887Q89.2578-85.0098 89.2578-83.8867L89.2578-82.8613Q89.2578-81.7383 88.4766-80.8594Q87.6953-79.9805 86.1328-79.9805Z"/>
   <path class="hierarchical-1:primary clearBehindLayer SFSymbolsPreview212121" d="M12.4512 10.791Q12.4512 18.457 16.2354 22.29Q20.0195 26.123 27.5879 26.123L73.4863 26.123Q81.0547 26.123 84.8389 22.2656Q88.623 18.4082 88.623 10.791L88.623-27.3438Q88.623-30.4688 88.2812-32.6172Q87.9395-34.7656 86.9385-36.5479Q85.9375-38.3301 83.9844-40.332L57.0801-67.7246Q54.2969-70.6055 51.6113-71.4844Q48.9258-72.3633 44.8242-72.3633L27.5879-72.3633Q20.0195-72.3633 16.2354-68.5059Q12.4512-64.6484 12.4512-57.0312ZM20.3125 10.6445L20.3125-56.9336Q20.3125-60.5469 22.2412-62.5244Q24.1699-64.502 27.9785-64.502L43.9941-64.502L43.9941-36.1816Q43.9941-31.543 46.3135-29.248Q48.6328-26.9531 53.1738-26.9531L80.7617-26.9531L80.7617 10.6445Q80.7617 14.3066 78.8086 16.2842Q76.8555 18.2617 73.0957 18.2617L27.9297 18.2617Q24.1699 18.2617 22.2412 16.2842Q20.3125 14.3066 20.3125 10.6445ZM54.1016-34.3262Q52.6367-34.3262 52.002-34.9609Q51.3672-35.5957 51.3672-37.0605L51.3672-62.6953L79.248-34.3262Z"/>
  </g>
  <g id="Light-M" transform="matrix(1 0 0 1 1091.29 1126)">
   <path class="hierarchical-0:secondary SFSymbolsPreview4D4D4D" d="M36.1328-68.8965L49.7559-68.8965L85.5957-32.8125L85.5957 1.80664L96.9727 1.80664Q104.053 1.80664 107.642-1.83105Q111.23-5.46875 111.23-12.5977L111.23-81.6406Q111.23-88.7695 107.642-92.4072Q104.053-96.0449 96.9727-96.0449L50.3906-96.0449Q43.3105-96.0449 39.7217-92.4316Q36.1328-88.8184 36.1328-81.6406ZM62.3047-80.3223Q60.8398-80.3223 60.1562-81.1279Q59.4727-81.9336 59.4727-82.959L59.4727-83.8379Q59.4727-84.8633 60.1562-85.6445Q60.8398-86.4258 62.3047-86.4258L85.0586-86.4258Q86.4746-86.4258 87.1826-85.6445Q87.8906-84.8633 87.8906-83.8379L87.8906-82.959Q87.8906-81.9336 87.1826-81.1279Q86.4746-80.3223 85.0586-80.3223Z"/>
   <path class="hierarchical-1:primary clearBehindLayer SFSymbolsPreview212121" d="M12.4512 11.084Q12.4512 18.2129 16.04 21.8506Q19.6289 25.4883 26.709 25.4883L73.291 25.4883Q80.3711 25.4883 83.96 21.8506Q87.5488 18.2129 87.5488 11.084L87.5488-28.5156Q87.5488-31.1523 87.2559-32.959Q86.9629-34.7656 86.1084-36.2793Q85.2539-37.793 83.5938-39.4531L54.9316-68.4082Q52.5879-70.8496 50.3174-71.6064Q48.0469-72.3633 44.5312-72.3633L26.709-72.3633Q19.6777-72.3633 16.0645-68.7256Q12.4512-65.0879 12.4512-57.959ZM18.5059 10.9375L18.5059-57.8613Q18.5059-61.9141 20.6543-64.1357Q22.8027-66.3574 27.002-66.3574L44.8242-66.3574L44.8242-36.9629Q44.8242-32.7637 46.9238-30.7373Q49.0234-28.7109 53.0762-28.7109L81.4941-28.7109L81.4941 10.9375Q81.4941 15.0391 79.3457 17.2363Q77.1973 19.4336 72.998 19.4336L27.002 19.4336Q22.8027 19.4336 20.6543 17.2363Q18.5059 15.0391 18.5059 10.9375ZM53.7109-34.4238Q52.002-34.4238 51.2695-35.1562Q50.5371-35.8887 50.5371-37.5977L50.5371-64.502L80.2734-34.4238Z"/>
  </g>
  <g id="Thin-M" transform="matrix(1 0 0 1 795.289 1126)">
   <path class="hierarchical-0:secondary SFSymbolsPreview4D4D4D" d="M36.084-70.3125L47.7539-70.3125L84.6191-33.4473L84.6191 1.85547L96.6797 1.85547Q103.125 1.85547 106.47-1.48926Q109.814-4.83398 109.814-11.3281L109.814-81.9824Q109.814-88.4277 106.47-91.7969Q103.125-95.166 96.6797-95.166L49.2188-95.166Q42.8223-95.166 39.4531-91.8213Q36.084-88.4766 36.084-81.9824ZM62.2559-80.8105Q61.0352-80.8105 60.4492-81.4941Q59.8633-82.1777 59.8633-83.0566L59.8633-83.8379Q59.8633-84.668 60.4492-85.3271Q61.0352-85.9863 62.2559-85.9863L83.5938-85.9863Q84.8145-85.9863 85.4248-85.3271Q86.0352-84.668 86.0352-83.8379L86.0352-83.0566Q86.0352-82.1777 85.4248-81.4941Q84.8145-80.8105 83.5938-80.8105Z"/>
   <path class="hierarchical-1:primary clearBehindLayer SFSymbolsPreview212121" d="M12.4512 11.4258Q12.4512 17.9199 15.7715 21.2646Q19.0918 24.6094 25.5859 24.6094L73.0469 24.6094Q79.4922 24.6094 82.8369 21.2646Q86.1816 17.9199 86.1816 11.4258L86.1816-30.0781Q86.1816-32.0312 85.8887-33.4229Q85.5957-34.8145 84.9609-35.9131Q84.3262-37.0117 83.1055-38.2812L52.0996-69.3359Q50.3418-71.1426 48.6328-71.7773Q46.9238-72.4121 44.1406-72.4121L25.5859-72.4121Q19.1895-72.4121 15.8203-69.0674Q12.4512-65.7227 12.4512-59.2285ZM16.1133 11.3281L16.1133-59.1309Q16.1133-63.7207 18.5303-66.2354Q20.9473-68.75 25.7812-68.75L45.9473-68.75L45.9473-37.9883Q45.9473-34.375 47.7295-32.7148Q49.5117-31.0547 52.8809-31.0547L82.5195-31.0547L82.5195 11.3281Q82.5195 16.0645 80.0781 18.5059Q77.6367 20.9473 72.8516 20.9473L25.7324 20.9473Q20.9473 20.9473 18.5303 18.5059Q16.1133 16.0645 16.1133 11.3281ZM53.1738-34.5703Q51.1719-34.5703 50.3174-35.4248Q49.4629-36.2793 49.4629-38.2812L49.4629-66.8945L81.6895-34.5703Z"/>
  </g>
  <g id="Ultralight-M" transform="matrix(1 0 0 1 498.945 1126)">
   <path class="hierarchical-0:secondary SFSymbolsPreview4D4D4D" d="M36.084-71.0449L46.7773-71.0449L84.1309-33.7402L84.1309 1.9043L96.5332 1.9043Q102.637 1.9043 105.859-1.29395Q109.082-4.49219 109.082-10.6445L109.082-82.1289Q109.082-88.2812 105.859-91.4795Q102.637-94.6777 96.5332-94.6777L48.6328-94.6777Q42.5781-94.6777 39.3311-91.4795Q36.084-88.2812 36.084-82.1289ZM62.2559-81.0547Q61.1328-81.0547 60.5957-81.6895Q60.0586-82.3242 60.0586-83.1055L60.0586-83.7891Q60.0586-84.5703 60.5957-85.1807Q61.1328-85.791 62.2559-85.791L82.8613-85.791Q83.9844-85.791 84.5459-85.1807Q85.1074-84.5703 85.1074-83.7891L85.1074-83.1055Q85.1074-82.3242 84.5459-81.6895Q83.9844-81.0547 82.8613-81.0547Z"/>
   <path class="hierarchical-1:primary clearBehindLayer SFSymbolsPreview212121" d="M12.4512 11.6211Q12.4512 17.7734 15.6494 20.9717Q18.8477 24.1699 25 24.1699L72.9004 24.1699Q79.0527 24.1699 82.251 20.9717Q85.4492 17.7734 85.4492 11.6211L85.4492-30.9082Q85.4492-32.5195 85.2051-33.667Q84.9609-34.8145 84.3994-35.7422Q83.8379-36.6699 82.8613-37.6465L50.6836-69.8242Q49.2188-71.2891 47.7783-71.8506Q46.3379-72.4121 43.8965-72.4121L25-72.4121Q18.9453-72.4121 15.6982-69.2139Q12.4512-66.0156 12.4512-59.8633ZM14.8438 11.5234L14.8438-59.7656Q14.8438-64.6484 17.4316-67.334Q20.0195-70.0195 25.0977-70.0195L46.5332-70.0195L46.5332-38.5254Q46.5332-35.2051 48.1445-33.7158Q49.7559-32.2266 52.832-32.2266L83.0078-32.2266L83.0078 11.5234Q83.0078 16.5527 80.4199 19.165Q77.832 21.7773 72.7539 21.7773L25.0977 21.7773Q20.0195 21.7773 17.4316 19.165Q14.8438 16.5527 14.8438 11.5234ZM52.9297-34.668Q50.7812-34.668 49.8535-35.5957Q48.9258-36.5234 48.9258-38.6719L48.9258-68.1152L82.373-34.668Z"/>
  </g>
  <g id="Black-S" transform="matrix(1 0 0 1 2880.47 696)">
   <path class="hierarchical-0:secondary SFSymbolsPreview4D4D4D" d="M30.5664-53.8086L44.7266-53.8086L68.4082-30.4199L68.4082-6.15234L80.8594-6.15234Q88.0371-6.15234 92.0654-10.1807Q96.0938-14.209 96.0938-21.3867L96.0938-71.2891Q96.0938-78.4668 92.0654-82.4951Q88.0371-86.5234 80.8594-86.5234L45.8008-86.5234Q38.623-86.5234 34.5947-82.4951Q30.5664-78.4668 30.5664-71.2891ZM55.7129-69.9707Q54.3457-69.9707 53.3936-70.9717Q52.4414-71.9727 52.4414-73.2422L52.4414-74.3164Q52.4414-75.1465 53.2471-76.3672Q54.0527-77.5879 55.7129-77.5879L70.9961-77.5879Q72.6562-77.5879 73.4619-76.3672Q74.2676-75.1465 74.2676-74.3164L74.2676-73.2422Q74.2676-71.9727 73.291-70.9717Q72.3145-69.9707 70.9961-69.9707Z"/>
   <path class="hierarchical-1:primary clearBehindLayer SFSymbolsPreview212121" d="M9.76562 0.878906Q9.76562 8.05664 13.7939 12.085Q17.8223 16.1133 25 16.1133L60.0586 16.1133Q67.2363 16.1133 71.2646 12.085Q75.293 8.05664 75.293 0.878906L75.293-26.4648Q75.293-31.1035 74.292-34.2041Q73.291-37.3047 70.3613-40.2344L51.2695-59.3262Q48.3398-62.2559 45.2393-63.2568Q42.1387-64.2578 37.5-64.2578L25-64.2578Q17.8223-64.2578 13.7939-60.2295Q9.76562-56.2012 9.76562-49.0234ZM23.9258-1.36719L23.9258-46.7773Q23.9258-48.4863 24.6826-49.292Q25.4395-50.0977 27.2461-50.0977L35.1074-50.0977L35.1074-35.4004Q35.1074-28.8086 38.208-25.708Q41.3086-22.6074 47.9004-22.6074L61.1328-22.6074L61.1328-1.36719Q61.1328 0.292969 60.4004 1.12305Q59.668 1.95312 57.8125 1.95312L27.2461 1.95312Q25.4395 1.95312 24.6826 1.12305Q23.9258 0.292969 23.9258-1.36719ZM48.6816-33.3496Q45.8496-33.3496 45.8496-36.1816L45.8496-48.3398L60.8398-33.3496Z"/>
  </g>
  <g id="Heavy-S" transform="matrix(1 0 0 1 2584.66 696)">
   <path class="hierarchical-0:secondary SFSymbolsPreview4D4D4D" d="M30.0293-55.3223L43.7988-55.3223L68.3105-30.957L68.3105-6.20117L79.7852-6.20117Q86.7188-6.20117 90.5029-10.0098Q94.2871-13.8184 94.2871-20.752L94.2871-71.2891Q94.2871-78.2227 90.5029-82.0557Q86.7188-85.8887 79.7852-85.8887L44.5801-85.8887Q37.6465-85.8887 33.8379-82.0801Q30.0293-78.2715 30.0293-71.2891ZM54.1016-70.0195Q52.7344-70.0195 51.8555-70.9473Q50.9766-71.875 50.9766-73.0469L50.9766-74.1211Q50.9766-74.9512 51.7334-76.0498Q52.4902-77.1484 54.1016-77.1484L70.3125-77.1484Q71.875-77.1484 72.6318-76.0498Q73.3887-74.9512 73.3887-74.1211L73.3887-73.0469Q73.3887-71.875 72.5098-70.9473Q71.6309-70.0195 70.3125-70.0195Z"/>
   <path class="hierarchical-1:primary clearBehindLayer SFSymbolsPreview212121" d="M9.76562 0.830078Q9.76562 7.8125 13.5742 11.6211Q17.3828 15.4297 24.3164 15.4297L59.4727 15.4297Q66.4062 15.4297 70.2148 11.5967Q74.0234 7.76367 74.0234 0.830078L74.0234-26.9531Q74.0234-31.4453 73.0957-34.3506Q72.168-37.2559 69.3359-40.0879L49.9512-59.5703Q47.168-62.4023 44.2627-63.3301Q41.3574-64.2578 36.9629-64.2578L24.3164-64.2578Q17.3828-64.2578 13.5742-60.4492Q9.76562-56.6406 9.76562-49.707ZM22.2656-0.927734L22.2656-47.9492Q22.2656-49.9023 23.1689-50.8545Q24.0723-51.8066 26.123-51.8066L34.8633-51.8066L34.8633-35.4492Q34.8633-29.4922 37.6953-26.6846Q40.5273-23.877 46.4355-23.877L61.5234-23.877L61.5234-0.927734Q61.5234 0.976562 60.6445 1.95312Q59.7656 2.92969 57.7148 2.92969L26.0742 2.92969Q24.0723 2.92969 23.1689 1.95312Q22.2656 0.976562 22.2656-0.927734ZM47.2168-33.5938Q44.6289-33.5938 44.6289-36.2305L44.6289-50.1465L61.0352-33.5938Z"/>
  </g>
  <g id="Bold-S" transform="matrix(1 0 0 1 2288.93 696)">
   <path class="hierarchical-0:secondary SFSymbolsPreview4D4D4D" d="M29.4434-57.0312L42.7734-57.0312L68.2129-31.5918L68.2129-6.25L78.5645-6.25Q85.2051-6.25 88.7695-9.81445Q92.334-13.3789 92.334-20.0684L92.334-71.2891Q92.334-77.9785 88.7695-81.5674Q85.2051-85.1562 78.5645-85.1562L43.2129-85.1562Q36.5234-85.1562 32.9834-81.5918Q29.4434-78.0273 29.4434-71.2891ZM52.2949-70.0684Q50.9277-70.0684 50.1465-70.9229Q49.3652-71.7773 49.3652-72.9004L49.3652-73.877Q49.3652-74.7559 50.0732-75.7324Q50.7812-76.709 52.2949-76.709L69.5312-76.709Q70.9961-76.709 71.7285-75.7324Q72.4609-74.7559 72.4609-73.877L72.4609-72.9004Q72.4609-71.7773 71.6553-70.9229Q70.8496-70.0684 69.5312-70.0684Z"/>
   <path class="hierarchical-1:primary clearBehindLayer SFSymbolsPreview212121" d="M9.76562 0.78125Q9.76562 7.51953 13.3057 11.084Q16.8457 14.6484 23.5352 14.6484L58.8867 14.6484Q65.5273 14.6484 69.0918 11.0596Q72.6562 7.4707 72.6562 0.78125L72.6562-27.4902Q72.6562-31.8359 71.8018-34.5215Q70.9473-37.207 68.2129-39.9414L48.5352-59.8633Q45.8496-62.5488 43.1641-63.4277Q40.4785-64.3066 36.377-64.3066L23.5352-64.3066Q16.8457-64.3066 13.3057-60.7178Q9.76562-57.1289 9.76562-50.4395ZM20.3613-0.390625L20.3613-49.2676Q20.3613-51.4648 21.46-52.5879Q22.5586-53.7109 24.8535-53.7109L34.6191-53.7109L34.6191-35.498Q34.6191-30.2734 37.1338-27.7832Q39.6484-25.293 44.8242-25.293L62.0117-25.293L62.0117-0.390625Q62.0117 1.75781 60.9619 2.90527Q59.9121 4.05273 57.5684 4.05273L24.8047 4.05273Q22.5586 4.05273 21.46 2.90527Q20.3613 1.75781 20.3613-0.390625ZM45.6543-33.9355Q43.2617-33.9355 43.2617-36.3281L43.2617-52.1484L61.2305-33.9355Z"/>
  </g>
  <g id="Semibold-S" transform="matrix(1 0 0 1 1992.92 696)">
   <path class="hierarchical-0:secondary SFSymbolsPreview4D4D4D" d="M29.0527-58.1543L42.041-58.1543L68.1641-32.0312L68.1641-6.25L77.6855-6.25Q84.1797-6.25 87.5488-9.64355Q90.918-13.0371 90.918-19.5801L90.918-71.2891Q90.918-77.7832 87.5488-81.2012Q84.1797-84.6191 77.6855-84.6191L42.2363-84.6191Q35.7422-84.6191 32.3975-81.2256Q29.0527-77.832 29.0527-71.2891ZM51.0254-70.0684Q49.707-70.0684 48.9502-70.8984Q48.1934-71.7285 48.1934-72.7539L48.1934-73.6816Q48.1934-74.5605 48.9014-75.4639Q49.6094-76.3672 51.0254-76.3672L68.9453-76.3672Q70.4102-76.3672 71.0938-75.4639Q71.7773-74.5605 71.7773-73.6816L71.7773-72.7539Q71.7773-71.7285 71.0205-70.8984Q70.2637-70.0684 68.9453-70.0684Z"/>
   <path class="hierarchical-1:primary clearBehindLayer SFSymbolsPreview212121" d="M9.76562 0.732422Q9.76562 7.27539 13.1348 10.6689Q16.5039 14.0625 22.9492 14.0625L58.4473 14.0625Q64.8926 14.0625 68.2861 10.6689Q71.6797 7.27539 71.6797 0.732422L71.6797-27.832Q71.6797-32.0801 70.874-34.6191Q70.0684-37.1582 67.3828-39.8438L47.5098-60.0098Q44.9219-62.6465 42.3828-63.4766Q39.8438-64.3066 35.9863-64.3066L22.9492-64.3066Q16.5039-64.3066 13.1348-60.8887Q9.76562-57.4707 9.76562-50.9766ZM19.043-0.0488281L19.043-50.1953Q19.043-52.5391 20.2637-53.7598Q21.4844-54.9805 23.9258-54.9805L34.4238-54.9805L34.4238-35.5469Q34.4238-30.8105 36.7188-28.5156Q39.0137-26.2207 43.7012-26.2207L62.3535-26.2207L62.3535-0.0488281Q62.3535 2.29492 61.1572 3.54004Q59.9609 4.78516 57.4707 4.78516L23.9258 4.78516Q21.4844 4.78516 20.2637 3.54004Q19.043 2.29492 19.043-0.0488281ZM44.5312-34.1309Q42.2852-34.1309 42.2852-36.3281L42.2852-53.5156L61.3281-34.1309Z"/>
  </g>
  <g id="Medium-S" transform="matrix(1 0 0 1 1696.73 696)">
   <path class="hierarchical-0:secondary SFSymbolsPreview4D4D4D" d="M28.7109-59.0332L41.5039-59.0332L68.0664-32.3242L68.0664-6.25L77.0508-6.25Q83.3984-6.25 86.6455-9.52148Q89.8926-12.793 89.8926-19.2383L89.8926-71.2891Q89.8926-77.6855 86.6455-80.957Q83.3984-84.2285 77.0508-84.2285L41.5039-84.2285Q35.1562-84.2285 31.9336-80.957Q28.7109-77.6855 28.7109-71.2891ZM50.0488-70.0684Q48.7305-70.0684 48.0469-70.8496Q47.3633-71.6309 47.3633-72.6562L47.3633-73.5352Q47.3633-74.4629 48.0225-75.293Q48.6816-76.123 50.0488-76.123L68.5547-76.123Q69.9219-76.123 70.5811-75.293Q71.2402-74.4629 71.2402-73.5352L71.2402-72.6562Q71.2402-71.6309 70.5566-70.8496Q69.873-70.0684 68.5547-70.0684Z"/>
   <path class="hierarchical-1:primary clearBehindLayer SFSymbolsPreview212121" d="M9.76562 0.732422Q9.76562 7.12891 12.9883 10.4004Q16.2109 13.6719 22.5586 13.6719L58.1055 13.6719Q64.4531 13.6719 67.7002 10.376Q70.9473 7.08008 70.9473 0.732422L70.9473-28.125Q70.9473-32.2754 70.166-34.6924Q69.3848-37.1094 66.7969-39.7461L46.7285-60.1562Q44.2383-62.7441 41.7969-63.5254Q39.3555-64.3066 35.6445-64.3066L22.5586-64.3066Q16.2109-64.3066 12.9883-61.0107Q9.76562-57.7148 9.76562-51.3672ZM18.0664 0.244141L18.0664-50.8789Q18.0664-53.3203 19.3604-54.6631Q20.6543-56.0059 23.291-56.0059L34.2773-56.0059L34.2773-35.5469Q34.2773-31.2012 36.4014-29.0771Q38.5254-26.9531 42.8711-26.9531L62.5977-26.9531L62.5977 0.244141Q62.5977 2.68555 61.3037 4.02832Q60.0098 5.37109 57.4219 5.37109L23.2422 5.37109Q20.6543 5.37109 19.3604 4.02832Q18.0664 2.68555 18.0664 0.244141ZM43.6523-34.2773Q41.5527-34.2773 41.5527-36.377L41.5527-54.541L61.4258-34.2773Z"/>
  </g>
  <g id="Regular-S" transform="matrix(1 0 0 1 1400.7 696)">
   <path class="hierarchical-0:secondary SFSymbolsPreview4D4D4D" d="M28.3203-60.2051L40.8203-60.2051L68.0176-32.7637L68.0176-6.29883L76.2207-6.29883Q82.373-6.29883 85.4492-9.39941Q88.5254-12.5 88.5254-18.75L88.5254-71.2891Q88.5254-77.4902 85.4492-80.6152Q82.373-83.7402 76.2207-83.7402L40.5762-83.7402Q34.4238-83.7402 31.3721-80.6396Q28.3203-77.5391 28.3203-71.2891ZM48.8281-70.1172Q47.5098-70.1172 46.875-70.8496Q46.2402-71.582 46.2402-72.5098L46.2402-73.3887Q46.2402-74.3164 46.875-75.0488Q47.5098-75.7812 48.8281-75.7812L68.0176-75.7812Q69.3359-75.7812 69.9707-75.0488Q70.6055-74.3164 70.6055-73.3887L70.6055-72.5098Q70.6055-71.582 69.9707-70.8496Q69.3359-70.1172 68.0176-70.1172Z"/>
   <path class="hierarchical-1:primary clearBehindLayer SFSymbolsPreview212121" d="M9.76562 0.683594Q9.76562 6.93359 12.8174 10.0342Q15.8691 13.1348 22.0215 13.1348L57.666 13.1348Q63.8184 13.1348 66.8945 10.0098Q69.9707 6.88477 69.9707 0.683594L69.9707-28.4668Q69.9707-32.5195 69.2627-34.79Q68.5547-37.0605 66.0156-39.6484L45.752-60.3516Q43.3594-62.8418 41.0645-63.5742Q38.7695-64.3066 35.2539-64.3066L22.0215-64.3066Q15.8691-64.3066 12.8174-61.1816Q9.76562-58.0566 9.76562-51.8555ZM16.7969 0.585938L16.7969-51.7578Q16.7969-54.3945 18.2129-55.835Q19.6289-57.2754 22.4121-57.2754L34.082-57.2754L34.082-35.5957Q34.082-31.7383 36.0107-29.834Q37.9395-27.9297 41.748-27.9297L62.8906-27.9297L62.8906 0.585938Q62.8906 3.22266 61.499 4.66309Q60.1074 6.10352 57.3242 6.10352L22.3633 6.10352Q19.6289 6.10352 18.2129 4.66309Q16.7969 3.22266 16.7969 0.585938ZM42.5781-34.4727Q40.625-34.4727 40.625-36.4258L40.625-55.9082L61.5723-34.4727Z"/>
  </g>
  <g id="Light-S" transform="matrix(1 0 0 1 1104.48 696)">
   <path class="hierarchical-0:secondary SFSymbolsPreview4D4D4D" d="M28.3203-61.1816L39.502-61.1816L67.3828-33.1543L67.3828-6.25L76.0254-6.25Q81.7871-6.25 84.668-9.15527Q87.5488-12.0605 87.5488-17.8711L87.5488-71.4844Q87.5488-77.2949 84.668-80.2246Q81.7871-83.1543 76.0254-83.1543L39.7949-83.1543Q34.082-83.1543 31.2012-80.2246Q28.3203-77.2949 28.3203-71.4844ZM48.8281-70.459Q47.6074-70.459 47.0459-71.0938Q46.4844-71.7285 46.4844-72.5586L46.4844-73.3398Q46.4844-74.1699 47.0459-74.8291Q47.6074-75.4883 48.8281-75.4883L67.041-75.4883Q68.2129-75.4883 68.7988-74.8291Q69.3848-74.1699 69.3848-73.3398L69.3848-72.5586Q69.3848-71.7285 68.7988-71.0938Q68.2129-70.459 67.041-70.459Z"/>
   <path class="hierarchical-1:primary clearBehindLayer SFSymbolsPreview212121" d="M9.76562 0.927734Q9.76562 6.73828 12.6465 9.64355Q15.5273 12.5488 21.2891 12.5488L57.5195 12.5488Q63.2324 12.5488 66.1377 9.61914Q69.043 6.68945 69.043 0.927734L69.043-29.541Q69.043-32.9102 68.4082-34.8145Q67.7734-36.7188 65.6738-38.8672L43.8477-60.9863Q41.8457-63.0371 39.9414-63.6719Q38.0371-64.3066 35.0098-64.3066L21.2891-64.3066Q15.5273-64.3066 12.6465-61.377Q9.76562-58.4473 9.76562-52.6855ZM15.1855 0.830078L15.1855-52.5879Q15.1855-55.6152 16.7969-57.251Q18.4082-58.8867 21.582-58.8867L34.8145-58.8867L34.8145-36.2793Q34.8145-32.8125 36.5479-31.1523Q38.2812-29.4922 41.6504-29.4922L63.5742-29.4922L63.5742 0.830078Q63.5742 3.90625 61.9873 5.51758Q60.4004 7.12891 57.2266 7.12891L21.5332 7.12891Q18.4082 7.12891 16.7969 5.51758Q15.1855 3.90625 15.1855 0.830078ZM42.2363-34.5703Q39.8926-34.5703 39.8926-36.9141L39.8926-57.4707L62.5-34.5703Z"/>
  </g>
  <g id="Thin-S" transform="matrix(1 0 0 1 808.375 696)">
   <path class="hierarchical-0:secondary SFSymbolsPreview4D4D4D" d="M28.2715-62.4023L37.793-62.4023L66.5039-33.6914L66.5039-6.20117L75.7812-6.20117Q80.957-6.20117 83.6426-8.8623Q86.3281-11.5234 86.3281-16.748L86.3281-71.7773Q86.3281-77.002 83.6426-79.6631Q80.957-82.3242 75.7812-82.3242L38.7695-82.3242Q33.6426-82.3242 30.957-79.6631Q28.2715-77.002 28.2715-71.7773ZM48.7793-70.8496Q47.8027-70.8496 47.3145-71.4111Q46.8262-71.9727 46.8262-72.6562L46.8262-73.3398Q46.8262-74.0234 47.3145-74.5605Q47.8027-75.0977 48.7793-75.0977L65.8203-75.0977Q66.748-75.0977 67.2607-74.5605Q67.7734-74.0234 67.7734-73.3398L67.7734-72.6562Q67.7734-71.9727 67.2607-71.4111Q66.748-70.8496 65.8203-70.8496Z"/>
   <path class="hierarchical-1:primary clearBehindLayer SFSymbolsPreview212121" d="M9.76562 1.26953Q9.76562 6.49414 12.4268 9.15527Q15.0879 11.8164 20.2637 11.8164L57.2754 11.8164Q62.4512 11.8164 65.1123 9.13086Q67.7734 6.44531 67.7734 1.26953L67.7734-30.9082Q67.7734-33.3984 67.2607-34.8389Q66.748-36.2793 65.2344-37.8418L41.3574-61.8164Q39.8926-63.2812 38.4521-63.8184Q37.0117-64.3555 34.668-64.3555L20.2637-64.3555Q15.1367-64.3555 12.4512-61.6699Q9.76562-58.9844 9.76562-53.8086ZM13.0859 1.17188L13.0859-53.7109Q13.0859-57.2266 14.9414-59.1309Q16.7969-61.0352 20.459-61.0352L35.791-61.0352L35.791-37.207Q35.791-34.2773 37.2559-32.8857Q38.7207-31.4941 41.5039-31.4941L64.4531-31.4941L64.4531 1.17188Q64.4531 4.78516 62.5977 6.64062Q60.7422 8.49609 57.1289 8.49609L20.4102 8.49609Q16.7969 8.49609 14.9414 6.64062Q13.0859 4.78516 13.0859 1.17188ZM41.7969-34.668Q38.9648-34.668 38.9648-37.5L38.9648-59.5703L63.7207-34.668Z"/>
  </g>
  <g id="Ultralight-S" transform="matrix(1 0 0 1 512.006 696)">
   <path class="hierarchical-0:secondary SFSymbolsPreview4D4D4D" d="M28.2715-63.0859L36.9141-63.0859L66.0645-33.9844L66.0645-6.15234L75.6836-6.15234Q80.5664-6.15234 83.1055-8.69141Q85.6445-11.2305 85.6445-16.1621L85.6445-71.9238Q85.6445-76.8555 83.1055-79.3945Q80.5664-81.9336 75.6836-81.9336L38.2812-81.9336Q33.4473-81.9336 30.8594-79.3945Q28.2715-76.8555 28.2715-71.9238ZM48.7793-71.0938Q47.8516-71.0938 47.4121-71.582Q46.9727-72.0703 46.9727-72.7051L46.9727-73.291Q46.9727-73.9258 47.4121-74.4141Q47.8516-74.9023 48.7793-74.9023L65.1367-74.9023Q66.0156-74.9023 66.4795-74.4141Q66.9434-73.9258 66.9434-73.291L66.9434-72.7051Q66.9434-72.0703 66.4795-71.582Q66.0156-71.0938 65.1367-71.0938Z"/>
   <path class="hierarchical-1:primary clearBehindLayer SFSymbolsPreview212121" d="M9.76562 1.41602Q9.76562 6.34766 12.3291 8.88672Q14.8926 11.4258 19.7754 11.4258L57.1777 11.4258Q62.0605 11.4258 64.5996 8.88672Q67.1387 6.34766 67.1387 1.41602L67.1387-31.6406Q67.1387-33.6426 66.6992-34.8633Q66.2598-36.084 65.0391-37.3047L40.0879-62.207Q38.8672-63.4277 37.6953-63.8916Q36.5234-64.3555 34.4727-64.3555L19.7754-64.3555Q14.8926-64.3555 12.3291-61.8164Q9.76562-59.2773 9.76562-54.3457ZM11.9629 1.31836L11.9629-54.248Q11.9629-58.0078 13.9648-60.083Q15.9668-62.1582 19.873-62.1582L36.3281-62.1582L36.3281-37.6953Q36.3281-35.0098 37.6221-33.7891Q38.916-32.5684 41.4062-32.5684L64.9414-32.5684L64.9414 1.31836Q64.9414 5.22461 62.9395 7.20215Q60.9375 9.17969 57.0312 9.17969L19.873 9.17969Q15.9668 9.17969 13.9648 7.20215Q11.9629 5.22461 11.9629 1.31836ZM41.6016-34.7656Q38.4766-34.7656 38.4766-37.8418L38.4766-60.6445L64.3555-34.7656Z"/>
  </g>
 </g>
</svg>
