<?xml version="1.0" encoding="UTF-8"?>
<!--Generator: Apple Native CoreSVG 149-->
<!DOCTYPE svg
PUBLIC "-//W3C//DTD SVG 1.1//EN"
       "http://www.w3.org/Graphics/SVG/1.1/DTD/svg11.dtd">
<svg version="1.1" xmlns="http://www.w3.org/2000/svg" xmlns:xlink="http://www.w3.org/1999/xlink" width="3300" height="2200">
 <!--glyph: "uni10012C.medium", point size: 100.0, font version: "17.0d8e1", template writer version: "58"-->
 <g id="Notes">
  <rect height="2200" id="artboard" style="fill:white;opacity:1" width="3300" x="0" y="0"/>
  <line style="fill:none;stroke:black;opacity:1;stroke-width:0.5;" x1="263" x2="3036" y1="292" y2="292"/>
  <text style="stroke:none;fill:black;font-family:SF Pro,SF Pro Display,SF Pro Text,sans-serif;font-size:13;font-weight:bold;" transform="matrix(1 0 0 1 263 322)">Weight/Scale Variations</text>
  <text style="stroke:none;fill:black;font-family:SF Pro,SF Pro Display,SF Pro Text,sans-serif;font-size:13;text-anchor:middle;" transform="matrix(1 0 0 1 559.711 322)">Ultralight</text>
  <text style="stroke:none;fill:black;font-family:SF Pro,SF Pro Display,SF Pro Text,sans-serif;font-size:13;text-anchor:middle;" transform="matrix(1 0 0 1 856.422 322)">Thin</text>
  <text style="stroke:none;fill:black;font-family:SF Pro,SF Pro Display,SF Pro Text,sans-serif;font-size:13;text-anchor:middle;" transform="matrix(1 0 0 1 1153.13 322)">Light</text>
  <text style="stroke:none;fill:black;font-family:SF Pro,SF Pro Display,SF Pro Text,sans-serif;font-size:13;text-anchor:middle;" transform="matrix(1 0 0 1 1449.84 322)">Regular</text>
  <text style="stroke:none;fill:black;font-family:SF Pro,SF Pro Display,SF Pro Text,sans-serif;font-size:13;text-anchor:middle;" transform="matrix(1 0 0 1 1746.56 322)">Medium</text>
  <text style="stroke:none;fill:black;font-family:SF Pro,SF Pro Display,SF Pro Text,sans-serif;font-size:13;text-anchor:middle;" transform="matrix(1 0 0 1 2043.27 322)">Semibold</text>
  <text style="stroke:none;fill:black;font-family:SF Pro,SF Pro Display,SF Pro Text,sans-serif;font-size:13;text-anchor:middle;" transform="matrix(1 0 0 1 2339.98 322)">Bold</text>
  <text style="stroke:none;fill:black;font-family:SF Pro,SF Pro Display,SF Pro Text,sans-serif;font-size:13;text-anchor:middle;" transform="matrix(1 0 0 1 2636.69 322)">Heavy</text>
  <text style="stroke:none;fill:black;font-family:SF Pro,SF Pro Display,SF Pro Text,sans-serif;font-size:13;text-anchor:middle;" transform="matrix(1 0 0 1 2933.4 322)">Black</text>
  <line style="fill:none;stroke:black;opacity:1;stroke-width:0.5;" x1="263" x2="3036" y1="1903" y2="1903"/>
  <g transform="matrix(1 0 0 1 263 1933)">
   <path d="M9.24805 0.830078Q10.8691 0.830078 12.2949 0.214844Q13.7207-0.400391 14.8096-1.49414Q15.8984-2.58789 16.5186-4.01367Q17.1387-5.43945 17.1387-7.05078Q17.1387-8.66211 16.5186-10.0879Q15.8984-11.5137 14.8047-12.6074Q13.7109-13.7012 12.2852-14.3164Q10.8594-14.9316 9.23828-14.9316Q7.62695-14.9316 6.20117-14.3164Q4.77539-13.7012 3.69141-12.6074Q2.60742-11.5137 1.9873-10.0879Q1.36719-8.66211 1.36719-7.05078Q1.36719-5.43945 1.9873-4.01367Q2.60742-2.58789 3.69629-1.49414Q4.78516-0.400391 6.21094 0.214844Q7.63672 0.830078 9.24805 0.830078ZM9.24805-0.654297Q7.91992-0.654297 6.7627-1.14746Q5.60547-1.64062 4.73145-2.51953Q3.85742-3.39844 3.36426-4.56055Q2.87109-5.72266 2.87109-7.05078Q2.87109-8.37891 3.35938-9.54102Q3.84766-10.7031 4.72168-11.582Q5.5957-12.4609 6.75293-12.9541Q7.91016-13.4473 9.23828-13.4473Q10.5762-13.4473 11.7334-12.9541Q12.8906-12.4609 13.7695-11.582Q14.6484-10.7031 15.1465-9.54102Q15.6445-8.37891 15.6445-7.05078Q15.6445-5.72266 15.1514-4.56055Q14.6582-3.39844 13.7842-2.51953Q12.9102-1.64062 11.748-1.14746Q10.5859-0.654297 9.24805-0.654297ZM5.83984-7.04102Q5.83984-6.71875 6.04492-6.51855Q6.25-6.31836 6.5918-6.31836L8.50586-6.31836L8.50586-4.39453Q8.50586-4.0625 8.70605-3.85742Q8.90625-3.65234 9.22852-3.65234Q9.56055-3.65234 9.76562-3.85742Q9.9707-4.0625 9.9707-4.39453L9.9707-6.31836L11.8945-6.31836Q12.2266-6.31836 12.4316-6.51855Q12.6367-6.71875 12.6367-7.04102Q12.6367-7.37305 12.4316-7.57812Q12.2266-7.7832 11.8945-7.7832L9.9707-7.7832L9.9707-9.69727Q9.9707-10.0391 9.76562-10.2441Q9.56055-10.4492 9.22852-10.4492Q8.90625-10.4492 8.70605-10.2441Q8.50586-10.0391 8.50586-9.69727L8.50586-7.7832L6.5918-7.7832Q6.25-7.7832 6.04492-7.57812Q5.83984-7.37305 5.83984-7.04102Z"/>
  </g>
  <g transform="matrix(1 0 0 1 281.867 1933)">
   <path d="M11.709 2.91016Q13.75 2.91016 15.5518 2.12891Q17.3535 1.34766 18.7305-0.0292969Q20.1074-1.40625 20.8887-3.20801Q21.6699-5.00977 21.6699-7.05078Q21.6699-9.0918 20.8887-10.8936Q20.1074-12.6953 18.7305-14.0723Q17.3535-15.4492 15.5469-16.2305Q13.7402-17.0117 11.6992-17.0117Q9.6582-17.0117 7.85645-16.2305Q6.05469-15.4492 4.68262-14.0723Q3.31055-12.6953 2.5293-10.8936Q1.74805-9.0918 1.74805-7.05078Q1.74805-5.00977 2.5293-3.20801Q3.31055-1.40625 4.6875-0.0292969Q6.06445 1.34766 7.86621 2.12891Q9.66797 2.91016 11.709 2.91016ZM11.709 1.25Q9.98047 1.25 8.47656 0.605469Q6.97266-0.0390625 5.83496-1.17676Q4.69727-2.31445 4.05762-3.81836Q3.41797-5.32227 3.41797-7.05078Q3.41797-8.7793 4.05762-10.2832Q4.69727-11.7871 5.83008-12.9297Q6.96289-14.0723 8.4668-14.7119Q9.9707-15.3516 11.6992-15.3516Q13.4277-15.3516 14.9316-14.7119Q16.4355-14.0723 17.5781-12.9297Q18.7207-11.7871 19.3652-10.2832Q20.0098-8.7793 20.0098-7.05078Q20.0098-5.32227 19.3701-3.81836Q18.7305-2.31445 17.5928-1.17676Q16.4551-0.0390625 14.9463 0.605469Q13.4375 1.25 11.709 1.25ZM7.39258-7.04102Q7.39258-6.68945 7.62695-6.46484Q7.86133-6.24023 8.23242-6.24023L10.8789-6.24023L10.8789-3.57422Q10.8789-3.21289 11.1035-2.9834Q11.3281-2.75391 11.6797-2.75391Q12.0508-2.75391 12.2852-2.9834Q12.5195-3.21289 12.5195-3.57422L12.5195-6.24023L15.1758-6.24023Q15.5371-6.24023 15.7715-6.46484Q16.0059-6.68945 16.0059-7.04102Q16.0059-7.41211 15.7715-7.6416Q15.5371-7.87109 15.1758-7.87109L12.5195-7.87109L12.5195-10.5176Q12.5195-10.8984 12.2852-11.1279Q12.0508-11.3574 11.6797-11.3574Q11.3281-11.3574 11.1035-11.1279Q10.8789-10.8984 10.8789-10.5176L10.8789-7.87109L8.23242-7.87109Q7.85156-7.87109 7.62207-7.6416Q7.39258-7.41211 7.39258-7.04102Z"/>
  </g>
  <g transform="matrix(1 0 0 1 305.646 1933)">
   <path d="M14.9707 5.66406Q17.0605 5.66406 18.96 5.01465Q20.8594 4.36523 22.4512 3.19336Q24.043 2.02148 25.2197 0.429688Q26.3965-1.16211 27.0459-3.06641Q27.6953-4.9707 27.6953-7.05078Q27.6953-9.14062 27.0459-11.04Q26.3965-12.9395 25.2197-14.5312Q24.043-16.123 22.4512-17.2998Q20.8594-18.4766 18.9551-19.126Q17.0508-19.7754 14.9609-19.7754Q12.8711-19.7754 10.9717-19.126Q9.07227-18.4766 7.48535-17.2998Q5.89844-16.123 4.72168-14.5312Q3.54492-12.9395 2.90039-11.04Q2.25586-9.14062 2.25586-7.05078Q2.25586-4.9707 2.90527-3.06641Q3.55469-1.16211 4.72656 0.429688Q5.89844 2.02148 7.49023 3.19336Q9.08203 4.36523 10.9814 5.01465Q12.8809 5.66406 14.9707 5.66406ZM14.9707 3.84766Q13.1641 3.84766 11.5283 3.2959Q9.89258 2.74414 8.53516 1.74805Q7.17773 0.751953 6.17676-0.610352Q5.17578-1.97266 4.62891-3.6084Q4.08203-5.24414 4.08203-7.05078Q4.08203-8.86719 4.62891-10.5029Q5.17578-12.1387 6.17188-13.501Q7.16797-14.8633 8.52539-15.8594Q9.88281-16.8555 11.5186-17.4023Q13.1543-17.9492 14.9609-17.9492Q16.7773-17.9492 18.4131-17.4023Q20.0488-16.8555 21.4111-15.8594Q22.7734-14.8633 23.7695-13.501Q24.7656-12.1387 25.3174-10.5029Q25.8691-8.86719 25.8691-7.05078Q25.8789-5.24414 25.332-3.6084Q24.7852-1.97266 23.7842-0.610352Q22.7832 0.751953 21.4209 1.74805Q20.0586 2.74414 18.4229 3.2959Q16.7871 3.84766 14.9707 3.84766ZM9.45312-7.04102Q9.45312-6.66016 9.71191-6.41113Q9.9707-6.16211 10.3711-6.16211L14.0625-6.16211L14.0625-2.46094Q14.0625-2.06055 14.3115-1.80664Q14.5605-1.55273 14.9414-1.55273Q15.3516-1.55273 15.6055-1.80664Q15.8594-2.06055 15.8594-2.46094L15.8594-6.16211L19.5605-6.16211Q19.9609-6.16211 20.2148-6.41113Q20.4688-6.66016 20.4688-7.04102Q20.4688-7.45117 20.2148-7.70508Q19.9609-7.95898 19.5605-7.95898L15.8594-7.95898L15.8594-11.6504Q15.8594-12.0605 15.6055-12.3145Q15.3516-12.5684 14.9414-12.5684Q14.5605-12.5684 14.3115-12.3096Q14.0625-12.0508 14.0625-11.6504L14.0625-7.95898L10.3711-7.95898Q9.96094-7.95898 9.70703-7.70508Q9.45312-7.45117 9.45312-7.04102Z"/>
  </g>
  <text style="stroke:none;fill:black;font-family:SF Pro,SF Pro Display,SF Pro Text,sans-serif;font-size:13;font-weight:bold;" transform="matrix(1 0 0 1 263 1953)">Design Variations</text>
  <text style="stroke:none;fill:black;font-family:SF Pro,SF Pro Display,SF Pro Text,sans-serif;font-size:13;" transform="matrix(1 0 0 1 263 1971)">Symbols are supported in up to nine weights and three scales.</text>
  <text style="stroke:none;fill:black;font-family:SF Pro,SF Pro Display,SF Pro Text,sans-serif;font-size:13;" transform="matrix(1 0 0 1 263 1989)">For optimal layout with text and other symbols, vertically align</text>
  <text style="stroke:none;fill:black;font-family:SF Pro,SF Pro Display,SF Pro Text,sans-serif;font-size:13;" transform="matrix(1 0 0 1 263 2007)">symbols with the adjacent text.</text>
  <line style="fill:none;stroke:#00AEEF;stroke-width:0.5;opacity:1.0;" x1="776" x2="776" y1="1919" y2="1933"/>
  <g transform="matrix(1 0 0 1 776 1933)">
   <path d="M3.31055 0.15625Q3.70117 0.15625 3.91602-0.00976562Q4.13086-0.175781 4.26758-0.585938L5.52734-4.0332L11.2891-4.0332L12.5488-0.585938Q12.6855-0.175781 12.9004-0.00976562Q13.1152 0.15625 13.4961 0.15625Q13.8867 0.15625 14.1162-0.0585938Q14.3457-0.273438 14.3457-0.644531Q14.3457-0.869141 14.2383-1.17188L9.6582-13.3691Q9.48242-13.8184 9.17969-14.043Q8.87695-14.2676 8.4082-14.2676Q7.5-14.2676 7.17773-13.3789L2.59766-1.16211Q2.49023-0.859375 2.49023-0.634766Q2.49023-0.263672 2.70996-0.0537109Q2.92969 0.15625 3.31055 0.15625ZM6.00586-5.51758L8.37891-12.0898L8.42773-12.0898L10.8008-5.51758Z"/>
  </g>
  <line style="fill:none;stroke:#00AEEF;stroke-width:0.5;opacity:1.0;" x1="793.197" x2="793.197" y1="1919" y2="1933"/>
  <text style="stroke:none;fill:black;font-family:SF Pro,SF Pro Display,SF Pro Text,sans-serif;font-size:13;font-weight:bold;" transform="matrix(1 0 0 1 776 1953)">Margins</text>
  <text style="stroke:none;fill:black;font-family:SF Pro,SF Pro Display,SF Pro Text,sans-serif;font-size:13;" transform="matrix(1 0 0 1 776 1971)">Leading and trailing margins on the left and right side of each symbol</text>
  <text style="stroke:none;fill:black;font-family:SF Pro,SF Pro Display,SF Pro Text,sans-serif;font-size:13;" transform="matrix(1 0 0 1 776 1989)">can be adjusted by modifying the x-location of the margin guidelines.</text>
  <text style="stroke:none;fill:black;font-family:SF Pro,SF Pro Display,SF Pro Text,sans-serif;font-size:13;" transform="matrix(1 0 0 1 776 2007)">Modifications are automatically applied proportionally to all</text>
  <text style="stroke:none;fill:black;font-family:SF Pro,SF Pro Display,SF Pro Text,sans-serif;font-size:13;" transform="matrix(1 0 0 1 776 2025)">scales and weights.</text>
  <g transform="matrix(1 0 0 1 1289 1933)">
   <path d="M2.8418 1.86523L4.54102 3.57422Q5.18555 4.22852 5.90332 4.17969Q6.62109 4.13086 7.31445 3.35938L18.0078-8.42773L17.041-9.4043L6.42578 2.27539Q6.16211 2.57812 5.89355 2.61719Q5.625 2.65625 5.27344 2.30469L4.10156 1.14258Q3.75 0.791016 3.79395 0.522461Q3.83789 0.253906 4.14062-0.0195312L15.6152-10.8203L14.6387-11.7871L3.04688-0.898438Q2.30469-0.214844 2.25098 0.498047Q2.19727 1.21094 2.8418 1.86523ZM9.25781-16.3281Q8.94531-16.0254 8.90625-15.6348Q8.86719-15.2441 9.04297-14.9512Q9.21875-14.6777 9.55566-14.541Q9.89258-14.4043 10.3809-14.5215Q11.4746-14.7754 12.5977-14.7314Q13.7207-14.6875 14.7949-13.9844L14.209-12.5293Q13.9551-11.9043 14.0674-11.4404Q14.1797-10.9766 14.5801-10.5664L16.875-8.25195Q17.2363-7.88086 17.5781-7.82227Q17.9199-7.76367 18.3398-7.8418L19.4043-8.03711L20.0684-7.36328L20.0293-6.80664Q20-6.43555 20.1221-6.12305Q20.2441-5.81055 20.6055-5.44922L21.3672-4.70703Q21.7285-4.3457 22.1533-4.33105Q22.5781-4.31641 22.9297-4.66797L25.8398-7.58789Q26.1914-7.93945 26.1816-8.35449Q26.1719-8.76953 25.8105-9.13086L25.0391-9.89258Q24.6875-10.2539 24.3799-10.3857Q24.0723-10.5176 23.7109-10.4883L23.1348-10.4395L22.4902-11.0742L22.7344-12.1973Q22.832-12.6172 22.6953-12.9834Q22.5586-13.3496 22.1191-13.7891L19.9219-15.9766Q18.6719-17.2168 17.2607-17.8369Q15.8496-18.457 14.4189-18.4814Q12.9883-18.5059 11.665-17.959Q10.3418-17.4121 9.25781-16.3281ZM10.752-15.957Q11.6602-16.6211 12.7002-16.9043Q13.7402-17.1875 14.8047-17.085Q15.8691-16.9824 16.8701-16.5137Q17.8711-16.0449 18.7012-15.2051L21.1328-12.793Q21.3086-12.6172 21.3525-12.4512Q21.3965-12.2852 21.3379-12.0312L21.0156-10.5469L22.5195-9.0625L23.5059-9.12109Q23.6914-9.13086 23.7891-9.09668Q23.8867-9.0625 24.0332-8.91602L24.6094-8.33984L22.168-5.89844L21.5918-6.47461Q21.4453-6.62109 21.4062-6.71875Q21.3672-6.81641 21.377-7.01172L21.4453-7.98828L19.9512-9.47266L18.4277-9.21875Q18.1836-9.16992 18.042-9.2041Q17.9004-9.23828 17.7148-9.41406L15.7129-11.416Q15.5176-11.5918 15.4932-11.7529Q15.4688-11.9141 15.5859-12.1875L16.4648-14.2773Q15.293-15.3711 13.8281-15.791Q12.3633-16.2109 10.8398-15.7617Q10.7227-15.7324 10.6885-15.8057Q10.6543-15.8789 10.752-15.957Z"/>
  </g>
  <text style="stroke:none;fill:black;font-family:SF Pro,SF Pro Display,SF Pro Text,sans-serif;font-size:13;font-weight:bold;" transform="matrix(1 0 0 1 1289 1953)">Exporting</text>
  <text style="stroke:none;fill:black;font-family:SF Pro,SF Pro Display,SF Pro Text,sans-serif;font-size:13;" transform="matrix(1 0 0 1 1289 1971)">Symbols should be outlined when exporting to ensure the</text>
  <text style="stroke:none;fill:black;font-family:SF Pro,SF Pro Display,SF Pro Text,sans-serif;font-size:13;" transform="matrix(1 0 0 1 1289 1989)">design is preserved when submitting to Xcode.</text>
  <text id="template-version" style="stroke:none;fill:black;font-family:SF Pro,SF Pro Display,SF Pro Text,sans-serif;font-size:13;text-anchor:end;" transform="matrix(1 0 0 1 3036 1933)">Template v.3.0</text>
  <text style="stroke:none;fill:black;font-family:SF Pro,SF Pro Display,SF Pro Text,sans-serif;font-size:13;text-anchor:end;" transform="matrix(1 0 0 1 3036 1951)">Requires Xcode 13 or greater</text>
  <text id="descriptive-name" style="stroke:none;fill:black;font-family:SF Pro,SF Pro Display,SF Pro Text,sans-serif;font-size:13;text-anchor:end;" transform="matrix(1 0 0 1 3036 1969)">Generated from arrow.up.arrow.down</text>
  <text style="stroke:none;fill:black;font-family:SF Pro,SF Pro Display,SF Pro Text,sans-serif;font-size:13;text-anchor:end;" transform="matrix(1 0 0 1 3036 1987)">Typeset at 100 points</text>
  <text style="stroke:none;fill:black;font-family:SF Pro,SF Pro Display,SF Pro Text,sans-serif;font-size:13;" transform="matrix(1 0 0 1 263 726)">Small</text>
  <text style="stroke:none;fill:black;font-family:SF Pro,SF Pro Display,SF Pro Text,sans-serif;font-size:13;" transform="matrix(1 0 0 1 263 1156)">Medium</text>
  <text style="stroke:none;fill:black;font-family:SF Pro,SF Pro Display,SF Pro Text,sans-serif;font-size:13;" transform="matrix(1 0 0 1 263 1586)">Large</text>
 </g>
 <g id="Guides">
  <g id="H-reference" style="fill:#27AAE1;stroke:none;" transform="matrix(1 0 0 1 339 696)">
   <path d="M0.976562 0L3.66211 0L29.3457-67.1387L30.0293-67.1387L30.0293-70.459L28.125-70.459ZM11.6699-24.4629L46.9727-24.4629L46.2402-26.709L12.4512-26.709ZM55.127 0L57.7637 0L30.6152-70.459L29.4434-70.459L29.4434-67.1387Z"/>
  </g>
  <line id="Baseline-S" style="fill:none;stroke:#27AAE1;opacity:1;stroke-width:0.5;" x1="263" x2="3036" y1="696" y2="696"/>
  <line id="Capline-S" style="fill:none;stroke:#27AAE1;opacity:1;stroke-width:0.5;" x1="263" x2="3036" y1="625.541" y2="625.541"/>
  <g id="H-reference" style="fill:#27AAE1;stroke:none;" transform="matrix(1 0 0 1 339 1126)">
   <path d="M0.976562 0L3.66211 0L29.3457-67.1387L30.0293-67.1387L30.0293-70.459L28.125-70.459ZM11.6699-24.4629L46.9727-24.4629L46.2402-26.709L12.4512-26.709ZM55.127 0L57.7637 0L30.6152-70.459L29.4434-70.459L29.4434-67.1387Z"/>
  </g>
  <line id="Baseline-M" style="fill:none;stroke:#27AAE1;opacity:1;stroke-width:0.5;" x1="263" x2="3036" y1="1126" y2="1126"/>
  <line id="Capline-M" style="fill:none;stroke:#27AAE1;opacity:1;stroke-width:0.5;" x1="263" x2="3036" y1="1055.54" y2="1055.54"/>
  <g id="H-reference" style="fill:#27AAE1;stroke:none;" transform="matrix(1 0 0 1 339 1556)">
   <path d="M0.976562 0L3.66211 0L29.3457-67.1387L30.0293-67.1387L30.0293-70.459L28.125-70.459ZM11.6699-24.4629L46.9727-24.4629L46.2402-26.709L12.4512-26.709ZM55.127 0L57.7637 0L30.6152-70.459L29.4434-70.459L29.4434-67.1387Z"/>
  </g>
  <line id="Baseline-L" style="fill:none;stroke:#27AAE1;opacity:1;stroke-width:0.5;" x1="263" x2="3036" y1="1556" y2="1556"/>
  <line id="Capline-L" style="fill:none;stroke:#27AAE1;opacity:1;stroke-width:0.5;" x1="263" x2="3036" y1="1485.54" y2="1485.54"/>
  <line id="left-margin-Regular-M" style="fill:none;stroke:#00AEEF;stroke-width:0.5;opacity:1.0;" x1="1380.26" x2="1380.26" y1="1030.79" y2="1150.12"/>
  <line id="right-margin-Regular-M" style="fill:none;stroke:#00AEEF;stroke-width:0.5;opacity:1.0;" x1="1519.42" x2="1519.42" y1="1030.79" y2="1150.12"/>
 </g>
 <g id="Symbols">
  <g id="Black-L" transform="matrix(1 0 0 1 2836.62 1556)">
   <path d="M50.7324-94.6289L19.1406-62.0605Q17.7246-60.6445 16.8945-58.6426Q16.0645-56.6406 16.0645-54.6875Q16.0645-50.2441 18.9209-47.3877Q21.7773-44.5312 26.2207-44.5312Q30.6152-44.5312 33.3496-47.4121L45.7031-60.4004L48.291-63.5254L48.0957-53.5645L48.0957 17.1875Q48.0957 21.6797 51.001 24.6094Q53.9062 27.5391 58.3496 27.5391Q62.7441 27.5391 65.6738 24.6094Q68.6035 21.6797 68.6035 17.1875L68.6035-53.5645L68.4082-63.5254L70.9473-60.4004L83.3008-47.4121Q86.0352-44.5312 90.4297-44.5312Q94.873-44.5312 97.7295-47.3877Q100.586-50.2441 100.586-54.6875Q100.586-56.6406 99.7559-58.6426Q98.9258-60.6445 97.5098-62.0605L65.918-94.6289Q62.7441-97.9004 58.3496-97.9004Q53.9551-97.9004 50.7324-94.6289ZM142.822 24.2188L174.414-8.39844Q175.83-9.81445 176.66-11.8164Q177.49-13.8184 177.49-15.7715Q177.49-20.2148 174.634-23.0713Q171.777-25.9277 167.334-25.9277Q162.939-25.9277 160.254-23.0469L147.852-10.0586L145.312-6.93359L145.508-16.8945L145.508-87.6465Q145.508-92.041 142.578-94.9707Q139.648-97.9004 135.254-97.9004Q130.859-97.9004 127.93-94.9707Q125-92.041 125-87.6465L125-16.8945L125.195-6.93359L122.607-10.0586L110.254-23.0469Q107.52-25.9277 103.174-25.9277Q98.6816-25.9277 95.8252-23.0713Q92.9688-20.2148 92.9688-15.7715Q92.9688-13.8184 93.7988-11.8164Q94.6289-9.81445 96.0449-8.39844L127.637 24.2188Q130.811 27.5391 135.229 27.5391Q139.648 27.5391 142.822 24.2188Z"/>
  </g>
  <g id="Heavy-L" transform="matrix(1 0 0 1 2541.94 1556)">
   <path d="M50.4395-93.9941L18.7988-61.4746Q17.5293-60.2051 16.7969-58.4473Q16.0645-56.6895 16.0645-54.9805Q16.0645-51.0742 18.5547-48.584Q21.0449-46.0938 24.9512-46.0938Q28.7598-46.0938 31.2012-48.6328L43.8965-61.9141L48.4375-67.1387L48.1445-56.2012L48.1445 17.4316Q48.1445 21.3379 50.6836 23.9014Q53.2227 26.4648 57.1289 26.4648Q60.9375 26.4648 63.501 23.9014Q66.0645 21.3379 66.0645 17.4316L66.0645-56.2012L65.8203-67.1387L70.2637-61.9141L83.0078-48.6328Q85.4004-46.0938 89.2578-46.0938Q93.1152-46.0938 95.6055-48.584Q98.0957-51.0742 98.0957-54.9805Q98.0957-56.6895 97.3877-58.4473Q96.6797-60.2051 95.4102-61.4746L63.7207-93.9941Q60.9375-96.875 57.1045-96.875Q53.2715-96.875 50.4395-93.9941ZM139.062 23.584L170.752-9.0332Q171.973-10.2539 172.705-12.0117Q173.438-13.7695 173.438-15.4785Q173.438-19.3848 170.947-21.875Q168.457-24.3652 164.6-24.3652Q160.742-24.3652 158.35-21.8262L145.605-8.54492L141.162-3.32031L141.406-14.3066L141.406-87.8906Q141.406-91.748 138.843-94.3115Q136.279-96.875 132.422-96.875Q128.613-96.875 126.05-94.3115Q123.486-91.748 123.486-87.8906L123.486-14.3066L123.73-3.32031L119.238-8.54492L106.543-21.8262Q104.102-24.3652 100.293-24.3652Q96.3867-24.3652 93.8965-21.875Q91.4062-19.3848 91.4062-15.4785Q91.4062-13.7695 92.1387-12.0117Q92.8711-10.2539 94.1406-9.0332L125.781 23.584Q128.564 26.4648 132.422 26.4893Q136.279 26.5137 139.062 23.584Z"/>
  </g>
  <g id="Bold-L" transform="matrix(1 0 0 1 2247.47 1556)">
   <path d="M50.1465-93.3105L18.4082-60.8398Q17.334-59.7656 16.6992-58.2764Q16.0645-56.7871 16.0645-55.3223Q16.0645-52.0508 18.1641-49.9756Q20.2637-47.9004 23.5352-47.9004Q26.709-47.9004 28.7598-50.0488L41.8945-63.6719L48.584-71.2402L48.2422-59.1309L48.2422 17.7246Q48.2422 20.9961 50.3418 23.1445Q52.4414 25.293 55.7129 25.293Q58.9844 25.293 61.1084 23.1445Q63.2324 20.9961 63.2324 17.7246L63.2324-59.1309L62.8906-71.2402L69.5312-63.6719L82.666-50.0488Q84.7168-47.9004 87.9395-47.9004Q91.1621-47.9004 93.2617-49.9756Q95.3613-52.0508 95.3613-55.3223Q95.3613-56.7871 94.751-58.2764Q94.1406-59.7656 93.0664-60.8398L61.3281-93.3105Q58.9844-95.7031 55.7617-95.7275Q52.5391-95.752 50.1465-93.3105ZM134.912 22.8516L166.65-9.7168Q167.725-10.791 168.335-12.2559Q168.945-13.7207 168.945-15.1855Q168.945-18.457 166.846-20.5322Q164.746-22.6074 161.523-22.6074Q158.301-22.6074 156.25-20.459L143.115-6.88477L136.475 0.732422L136.816-11.377L136.816-88.1836Q136.816-91.4062 134.692-93.5547Q132.568-95.7031 129.297-95.7031Q126.074-95.7031 123.95-93.5547Q121.826-91.4062 121.826-88.1836L121.826-11.377L122.168 0.732422L115.479-6.88477L102.344-20.459Q100.293-22.6074 97.1191-22.6074Q93.8477-22.6074 91.748-20.5322Q89.6484-18.457 89.6484-15.1855Q89.6484-13.7207 90.2832-12.2559Q90.918-10.791 91.9922-9.7168L123.73 22.8516Q126.025 25.293 129.272 25.3174Q132.52 25.3418 134.912 22.8516Z"/>
  </g>
  <g id="Semibold-L" transform="matrix(1 0 0 1 1952.32 1556)">
   <path d="M49.9023-92.7734L18.1152-60.3516Q17.1387-59.4238 16.6016-58.1055Q16.0645-56.7871 16.0645-55.5664Q16.0645-52.6855 17.8711-50.8789Q19.6777-49.0723 22.5098-49.0723Q25.2441-49.0723 27.0996-50.9766L40.5273-64.8438L48.6816-74.0234L48.2422-61.1328L48.2422 17.8711Q48.2422 20.752 50.0732 22.6074Q51.9043 24.4629 54.7363 24.4629Q57.5684 24.4629 59.4238 22.6074Q61.2793 20.752 61.2793 17.8711L61.2793-61.1328L60.8887-74.0234L68.9941-64.8438L82.4219-50.9766Q84.2285-49.0723 87.0117-49.0723Q89.7949-49.0723 91.626-50.8789Q93.457-52.6855 93.457-55.5664Q93.457-56.7871 92.9199-58.1055Q92.3828-59.4238 91.4062-60.3516L59.6191-92.7734Q57.5684-94.9219 54.7852-94.9219Q52.002-94.9219 49.9023-92.7734ZM131.982 22.3633L163.77-10.1562Q164.746-11.1328 165.283-12.4023Q165.82-13.6719 165.82-14.9414Q165.82-17.8223 164.014-19.6045Q162.207-21.3867 159.375-21.3867Q156.592-21.3867 154.785-19.5312L141.406-5.71289L133.252 3.51562L133.643-9.375L133.643-88.3789Q133.643-91.1621 131.812-93.042Q129.98-94.9219 127.148-94.9219Q124.316-94.9219 122.485-93.042Q120.654-91.1621 120.654-88.3789L120.654-9.375L121.045 3.51562L112.891-5.71289L99.4629-19.5312Q97.6074-21.3867 94.9219-21.3867Q92.041-21.3867 90.2344-19.6045Q88.4277-17.8223 88.4277-14.9414Q88.4277-13.6719 88.9893-12.4023Q89.5508-11.1328 90.4785-10.1562L122.266 22.3633Q124.268 24.4629 127.1 24.4873Q129.932 24.5117 131.982 22.3633Z"/>
  </g>
  <g id="Medium-L" transform="matrix(1 0 0 1 1656.79 1556)">
   <path d="M49.707-92.4316L17.9199-60.0098Q17.041-59.1797 16.5527-58.0078Q16.0645-56.8359 16.0645-55.7129Q16.0645-53.2227 17.6514-51.6113Q19.2383-50 21.7773-50Q24.1699-50 25.8301-51.709L39.4531-65.7227L48.7305-76.123L48.291-62.6953L48.291 18.0176Q48.291 20.5566 49.9023 22.2168Q51.5137 23.877 54.0039 23.877Q56.543 23.877 58.1787 22.2168Q59.8145 20.5566 59.8145 18.0176L59.8145-62.6953L59.375-76.123L68.6035-65.7227L82.2266-51.709Q83.8867-50 86.3281-50Q88.7695-50 90.4053-51.6113Q92.041-53.2227 92.041-55.7129Q92.041-56.8359 91.5283-58.0078Q91.0156-59.1797 90.1855-60.0098L58.3496-92.4316Q56.543-94.2871 54.0771-94.3115Q51.6113-94.3359 49.707-92.4316ZM129.785 21.9727L161.621-10.498Q162.5-11.377 162.988-12.5244Q163.477-13.6719 163.477-14.7461Q163.477-17.334 161.865-18.8965Q160.254-20.459 157.764-20.459Q155.322-20.459 153.711-18.7988L140.088-4.83398L130.811 5.61523L131.25-7.86133L131.25-88.5254Q131.25-91.0156 129.614-92.6514Q127.979-94.2871 125.488-94.2871Q122.949-94.2871 121.362-92.6514Q119.775-91.0156 119.775-88.5254L119.775-7.86133L120.166 5.61523L110.938-4.83398L97.2656-18.7988Q95.6055-20.459 93.2617-20.459Q90.7227-20.459 89.1113-18.8965Q87.5-17.334 87.5-14.7461Q87.5-13.6719 88.0127-12.5244Q88.5254-11.377 89.3555-10.498L121.191 21.9727Q122.949 23.877 125.464 23.877Q127.979 23.877 129.785 21.9727Z"/>
  </g>
  <g id="Regular-L" transform="matrix(1 0 0 1 1361.61 1556)">
   <path d="M49.5117-91.9434L17.627-59.5703Q16.8945-58.8379 16.4795-57.8613Q16.0645-56.8848 16.0645-55.957Q16.0645-53.8574 17.3828-52.5391Q18.7012-51.2207 20.8008-51.2207Q22.7539-51.2207 24.1699-52.6367L38.0859-66.8945L48.8281-78.9062L48.3398-64.6973L48.3398 18.2129Q48.3398 20.3125 49.6582 21.6797Q50.9766 23.0469 53.0762 23.0469Q55.1758 23.0469 56.5186 21.6797Q57.8613 20.3125 57.8613 18.2129L57.8613-64.6973L57.373-78.9062L68.1152-66.8945L81.9824-52.6367Q83.3984-51.2207 85.4004-51.2207Q87.4512-51.2207 88.7939-52.5391Q90.1367-53.8574 90.1367-55.957Q90.1367-56.8848 89.7217-57.8613Q89.3066-58.8379 88.5742-59.5703L56.6895-91.9434Q55.1758-93.5059 53.125-93.5303Q51.0742-93.5547 49.5117-91.9434ZM126.953 21.4844L158.838-10.9863Q159.57-11.7188 159.985-12.6709Q160.4-13.623 160.4-14.5508Q160.4-16.6992 159.058-17.9932Q157.715-19.2871 155.664-19.2871Q153.662-19.2871 152.246-17.8711L138.379-3.66211L127.637 8.39844L128.125-5.85938L128.125-88.7207Q128.125-90.7715 126.782-92.1387Q125.439-93.5059 123.34-93.5059Q121.24-93.5059 119.922-92.1387Q118.604-90.7715 118.604-88.7207L118.604-5.85938L119.092 8.39844L108.35-3.66211L94.4336-17.8711Q93.0176-19.2871 91.0645-19.2871Q88.9648-19.2871 87.6465-17.9932Q86.3281-16.6992 86.3281-14.5508Q86.3281-13.623 86.7432-12.6709Q87.1582-11.7188 87.8906-10.9863L119.775 21.4844Q121.24 23.0469 123.315 23.0713Q125.391 23.0957 126.953 21.4844Z"/>
  </g>
  <g id="Light-L" transform="matrix(1 0 0 1 1067.05 1556)">
   <path d="M49.3652-91.1133L17.2852-58.8379Q16.6992-58.252 16.3818-57.5195Q16.0645-56.7871 16.0645-56.0059Q16.0645-54.4434 17.0654-53.4424Q18.0664-52.4414 19.6289-52.4414Q21.1426-52.4414 22.3145-53.6133L37.2559-68.75L48.8281-81.2012L48.4863-67.3828L48.4863 18.1152Q48.4863 19.6777 49.4629 20.7031Q50.4395 21.7285 52.0508 21.7285Q53.6133 21.7285 54.6143 20.7031Q55.6152 19.6777 55.6152 18.1152L55.6152-67.3828L55.2734-81.2012L66.8945-68.75L81.7871-53.6133Q82.959-52.4414 84.4727-52.4414Q86.0352-52.4414 87.0605-53.4424Q88.0859-54.4434 88.0859-56.0059Q88.0859-56.7871 87.7441-57.5195Q87.4023-58.252 86.8164-58.8379L54.7852-91.1133Q53.6133-92.2852 52.0752-92.3096Q50.5371-92.334 49.3652-91.1133ZM122.803 20.6055L154.834-11.7188Q155.469-12.3535 155.786-13.0615Q156.104-13.7695 156.104-14.5508Q156.104-16.1621 155.078-17.1387Q154.053-18.1152 152.539-18.1152Q150.977-18.1152 149.805-16.9434L134.912-1.80664L123.34 10.6445L123.682-3.17383L123.682-88.6719Q123.682-90.1855 122.681-91.2354Q121.68-92.2852 120.068-92.2852Q118.506-92.2852 117.529-91.2354Q116.553-90.1855 116.553-88.6719L116.553-3.17383L116.895 10.6445L105.273-1.80664L90.3809-16.9434Q89.209-18.1152 87.6953-18.1152Q86.1328-18.1152 85.1074-17.1387Q84.082-16.1621 84.082-14.5508Q84.082-13.7695 84.4238-13.0615Q84.7656-12.3535 85.3516-11.7188L117.432 20.6055Q118.506 21.7285 120.068 21.7773Q121.631 21.8262 122.803 20.6055Z"/>
  </g>
  <g id="Thin-L" transform="matrix(1 0 0 1 773.17 1556)">
   <path d="M49.1699-89.9902L16.8945-57.8613Q16.4551-57.4707 16.2598-57.0801Q16.0645-56.6895 16.0645-56.1035Q16.0645-55.2246 16.6504-54.6387Q17.2363-54.0527 18.1152-54.0527Q19.043-54.0527 19.8242-54.8828L36.1328-71.2402L48.877-84.2285L48.6328-70.9961L48.6328 18.0176Q48.6328 18.7988 49.2188 19.4092Q49.8047 20.0195 50.6836 20.0195Q51.6113 20.0195 52.1484 19.4092Q52.6855 18.7988 52.6855 18.0176L52.6855-70.9961L52.5391-84.2285L65.2344-71.2402L81.543-54.8828Q82.3242-54.0527 83.3008-54.0527Q84.1309-54.0527 84.7168-54.6387Q85.3027-55.2246 85.3027-56.1035Q85.3027-56.6895 85.083-57.0801Q84.8633-57.4707 84.4727-57.8613L52.2461-89.9902Q51.6113-90.625 50.7324-90.6494Q49.8535-90.6738 49.1699-89.9902ZM117.334 19.4336L149.609-12.7441Q150-13.1836 150.22-13.5498Q150.439-13.916 150.439-14.502Q150.439-15.3809 149.829-15.9668Q149.219-16.5527 148.438-16.5527Q147.461-16.5527 146.631-15.7227L130.371 0.585938L117.627 13.623L117.822 0.341797L117.822-88.623Q117.822-89.4043 117.261-90.0146Q116.699-90.625 115.771-90.625Q114.893-90.625 114.331-90.0146Q113.77-89.4043 113.77-88.623L113.77 0.341797L114.014 13.623L101.27 0.585938L84.9609-15.7227Q84.1797-16.5527 83.2031-16.5527Q82.373-16.5527 81.7627-15.9668Q81.1523-15.3809 81.1523-14.502Q81.1523-13.916 81.3721-13.5498Q81.5918-13.1836 82.0312-12.7441L114.307 19.4336Q114.893 20.0195 115.771 20.0684Q116.65 20.1172 117.334 19.4336Z"/>
  </g>
  <g id="Ultralight-L" transform="matrix(1 0 0 1 477.924 1556)">
   <path d="M49.0723-89.4531L16.6504-57.373Q16.3574-57.0801 16.2109-56.8359Q16.0645-56.5918 16.0645-56.1523Q16.0645-55.6152 16.4307-55.249Q16.7969-54.8828 17.2852-54.8828Q17.9199-54.8828 18.6035-55.5664L35.5957-72.4609L48.877-85.791L48.7305-72.8027L48.7305 17.9199Q48.7305 18.3594 49.0723 18.75Q49.4141 19.1406 50 19.1406Q50.5371 19.1406 50.8545 18.75Q51.1719 18.3594 51.1719 17.9199L51.1719-72.8027L51.123-85.791L64.4043-72.4609L81.3965-55.5664Q82.0312-54.8828 82.666-54.8828Q83.2031-54.8828 83.5693-55.249Q83.9355-55.6152 83.9355-56.1523Q83.9355-56.5918 83.7646-56.8359Q83.5938-57.0801 83.3008-57.373L50.9277-89.4531Q50.5371-89.7949 50-89.8193Q49.4629-89.8438 49.0723-89.4531ZM114.502 18.7988L146.875-13.2324Q147.217-13.5742 147.363-13.7939Q147.51-14.0137 147.51-14.502Q147.51-15.0391 147.144-15.3809Q146.777-15.7227 146.289-15.7227Q145.605-15.7227 144.971-15.0879L128.027 1.85547L114.697 15.1855L114.844 2.19727L114.844-88.5742Q114.844-89.0137 114.478-89.4043Q114.111-89.7949 113.574-89.7949Q113.037-89.7949 112.72-89.4043Q112.402-89.0137 112.402-88.5742L112.402 2.19727L112.5 15.1855L99.1699 1.85547L82.2266-15.0879Q81.5918-15.7227 80.9082-15.7227Q80.4199-15.7227 80.0293-15.3809Q79.6387-15.0391 79.6387-14.502Q79.6387-14.0137 79.8096-13.7939Q79.9805-13.5742 80.3223-13.2324L112.695 18.7988Q113.037 19.1406 113.55 19.1895Q114.062 19.2383 114.502 18.7988Z"/>
  </g>
  <g id="Black-M" transform="matrix(1 0 0 1 2857.4 1126)">
   <path d="M39.5508-81.4941L15.0391-56.25Q12.4512-53.6621 12.4512-50.0977Q12.4512-46.3379 14.8682-43.8965Q17.2852-41.4551 21.0449-41.4551Q24.7559-41.4551 27.0508-43.9453L36.6699-54.0527L37.3047-54.834L37.2559-48.1445L37.2559 5.17578Q37.2559 8.93555 39.7461 11.4014Q42.2363 13.8672 45.8984 13.8672Q49.6094 13.8672 52.0996 11.4014Q54.5898 8.93555 54.5898 5.17578L54.5898-48.1445L54.541-54.834L55.127-54.0527L64.7949-43.9453Q67.0898-41.4551 70.8008-41.4551Q74.5117-41.4551 76.9531-43.8965Q79.3945-46.3379 79.3945-50.0977Q79.3945-53.6621 76.8066-56.25L52.2949-81.4941Q49.6094-84.2773 45.8984-84.2773Q42.1875-84.2773 39.5508-81.4941ZM112.5 11.1328L136.963-14.209Q139.551-16.7969 139.551-20.3613Q139.551-24.1211 137.134-26.5625Q134.717-29.0039 130.957-29.0039Q127.246-29.0039 124.951-26.5137L115.332-16.4062L114.697-15.625L114.746-22.3145L114.746-75.6348Q114.746-79.3457 112.28-81.8115Q109.814-84.2773 106.104-84.2773Q102.393-84.2773 99.9268-81.8115Q97.4609-79.3457 97.4609-75.6348L97.4609-22.3145L97.5098-15.625L96.875-16.4062L87.2559-26.5137Q84.9609-29.0039 81.25-29.0039Q77.4902-29.0039 75.0732-26.5625Q72.6562-24.1211 72.6562-20.3613Q72.6562-16.7969 75.2441-14.209L99.707 11.1328Q102.393 13.8672 106.104 13.8672Q109.814 13.8672 112.5 11.1328Z"/>
  </g>
  <g id="Heavy-M" transform="matrix(1 0 0 1 2562.2 1126)">
   <path d="M39.3066-81.0547L14.7461-55.8594Q12.4512-53.5156 12.4512-50.3906Q12.4512-47.0215 14.5752-44.873Q16.6992-42.7246 20.0195-42.7246Q23.291-42.7246 25.3418-44.9707L35.1074-55.127L37.4512-57.9102L37.2559-50.0977L37.2559 5.41992Q37.2559 8.74023 39.4531 10.9131Q41.6504 13.0859 44.9219 13.0859Q48.1934 13.0859 50.3906 10.9131Q52.5879 8.74023 52.5879 5.41992L52.5879-50.0977L52.4414-57.9102L54.7363-55.127L64.5508-44.9707Q66.5527-42.7246 69.8242-42.7246Q73.0957-42.7246 75.2441-44.873Q77.3926-47.0215 77.3926-50.3906Q77.3926-53.5156 75.0977-55.8594L50.5859-81.0547Q48.1934-83.5449 44.9219-83.5449Q41.6504-83.5449 39.3066-81.0547ZM109.717 10.6934L134.229-14.6484Q136.523-16.9434 136.523-20.1172Q136.523-23.4375 134.399-25.5859Q132.275-27.7344 128.955-27.7344Q125.684-27.7344 123.633-25.5371L113.867-15.332L111.572-12.5488L111.67-20.3613L111.67-75.8789Q111.67-79.1504 109.497-81.3477Q107.324-83.5449 104.053-83.5449Q100.781-83.5449 98.6084-81.3477Q96.4355-79.1504 96.4355-75.8789L96.4355-20.3613L96.582-12.5488L94.2383-15.332L84.4727-25.5371Q82.4219-27.7344 79.1992-27.7344Q75.8789-27.7344 73.7305-25.5859Q71.582-23.4375 71.582-20.1172Q71.582-16.9434 73.9258-14.6484L98.3887 10.6934Q100.781 13.0859 104.053 13.1104Q107.324 13.1348 109.717 10.6934Z"/>
  </g>
  <g id="Bold-M" transform="matrix(1 0 0 1 2267.18 1126)">
   <path d="M39.0137-80.5664L14.4531-55.3711Q12.4512-53.3691 12.4512-50.6836Q12.4512-47.8516 14.2578-46.0205Q16.0645-44.1895 18.8965-44.1895Q21.6797-44.1895 23.4375-46.0938L33.3496-56.3965L37.5977-61.3281L37.3047-52.3438L37.3047 5.71289Q37.3047 8.54492 39.1602 10.4004Q41.0156 12.2559 43.8477 12.2559Q46.6309 12.2559 48.4863 10.4004Q50.3418 8.54492 50.3418 5.71289L50.3418-52.3438L50.0977-61.3281L54.2969-56.3965L64.2578-46.0938Q66.0156-44.1895 68.75-44.1895Q71.582-44.1895 73.3887-46.0205Q75.1953-47.8516 75.1953-50.6836Q75.1953-53.3691 73.2422-55.3711L48.6816-80.5664Q46.6309-82.7148 43.8232-82.7148Q41.0156-82.7148 39.0137-80.5664ZM106.641 10.2051L131.152-15.1367Q133.154-17.0898 133.154-19.8242Q133.154-22.6562 131.348-24.4629Q129.541-26.2695 126.709-26.2695Q123.926-26.2695 122.168-24.4141L112.305-14.1113L108.057-9.17969L108.301-18.1641L108.301-76.1719Q108.301-79.0039 106.445-80.8594Q104.59-82.7148 101.807-82.7148Q98.9746-82.7148 97.1191-80.8594Q95.2637-79.0039 95.2637-76.1719L95.2637-18.1641L95.5566-9.17969L91.3086-14.1113L81.3965-24.4141Q79.6387-26.2695 76.9043-26.2695Q74.0723-26.2695 72.2412-24.4629Q70.4102-22.6562 70.4102-19.8242Q70.4102-17.0898 72.4121-15.1367L96.9727 10.2051Q98.9746 12.2559 101.782 12.2803Q104.59 12.3047 106.641 10.2051Z"/>
  </g>
  <g id="Semibold-M" transform="matrix(1 0 0 1 1971.64 1126)">
   <path d="M38.8184-80.2246L14.209-55.0293Q12.4512-53.2715 12.4512-50.8789Q12.4512-48.3887 14.0381-46.7773Q15.625-45.166 18.1152-45.166Q20.5078-45.166 22.1191-46.8262L32.1289-57.2266L37.6953-63.6719L37.3047-53.8574L37.3047 5.9082Q37.3047 8.39844 38.9404 10.0342Q40.5762 11.6699 43.0664 11.6699Q45.5566 11.6699 47.168 10.0342Q48.7793 8.39844 48.7793 5.9082L48.7793-53.8574L48.4863-63.6719L54.0039-57.2266L64.0137-46.8262Q65.5762-45.166 68.0176-45.166Q70.459-45.166 72.0703-46.7773Q73.6816-48.3887 73.6816-50.8789Q73.6816-53.2715 71.9238-55.0293L47.3145-80.2246Q45.5566-82.1289 43.0664-82.1289Q40.5762-82.1289 38.8184-80.2246ZM104.492 9.81445L129.053-15.4297Q130.811-17.1875 130.811-19.5801Q130.811-22.1191 129.224-23.7061Q127.637-25.293 125.146-25.293Q122.705-25.293 121.143-23.6328L111.182-13.2812L105.615-6.78711L105.908-16.6016L105.908-76.3672Q105.908-78.8574 104.297-80.4932Q102.686-82.1289 100.195-82.1289Q97.7539-82.1289 96.1182-80.4932Q94.4824-78.8574 94.4824-76.3672L94.4824-16.6016L94.8242-6.78711L89.2578-13.2812L79.248-23.6328Q77.6855-25.293 75.293-25.293Q72.8027-25.293 71.1914-23.7061Q69.5801-22.1191 69.5801-19.5801Q69.5801-17.1875 71.3867-15.4297L95.9473 9.81445Q97.7539 11.6699 100.195 11.6943Q102.637 11.7188 104.492 9.81445Z"/>
  </g>
  <g id="Medium-M" transform="matrix(1 0 0 1 1675.83 1126)">
   <path d="M38.6719-79.9805L14.0137-54.7852Q12.4512-53.1738 12.4512-51.0742Q12.4512-48.7793 13.8672-47.3633Q15.2832-45.9473 17.5293-45.9473Q19.6777-45.9473 21.1426-47.4121L31.2012-57.8613L37.7441-65.4297L37.3535-54.9805L37.3535 6.05469Q37.3535 8.30078 38.7939 9.76562Q40.2344 11.2305 42.4805 11.2305Q44.7266 11.2305 46.167 9.76562Q47.6074 8.30078 47.6074 6.05469L47.6074-54.9805L47.2656-65.4297L53.7598-57.8613L63.8672-47.4121Q65.2832-45.9473 67.4316-45.9473Q69.6777-45.9473 71.0938-47.3633Q72.5098-48.7793 72.5098-51.0742Q72.5098-53.1738 70.8984-54.7852L46.3379-79.9805Q44.7266-81.6895 42.5049-81.7139Q40.2832-81.7383 38.6719-79.9805ZM102.832 9.57031L127.441-15.6738Q129.004-17.2852 129.004-19.4336Q129.004-21.7285 127.588-23.1201Q126.172-24.5117 123.926-24.5117Q121.777-24.5117 120.41-23.0469L110.303-12.6465L103.76-5.0293L104.15-15.4785L104.15-76.5137Q104.15-78.7598 102.71-80.2246Q101.27-81.6895 99.0234-81.6895Q96.7773-81.6895 95.3125-80.2246Q93.8477-78.7598 93.8477-76.5137L93.8477-15.4785L94.2871-5.0293L87.6953-12.6465L77.6367-23.0469Q76.1719-24.5117 74.0723-24.5117Q71.8262-24.5117 70.4102-23.1201Q68.9941-21.7285 68.9941-19.4336Q68.9941-17.2852 70.6055-15.6738L95.166 9.57031Q96.7773 11.2305 98.999 11.2549Q101.221 11.2793 102.832 9.57031Z"/>
  </g>
  <g id="Regular-M" transform="matrix(1 0 0 1 1380.26 1126)">
   <path d="M38.4766-79.6387L13.8184-54.4922Q12.4512-53.0762 12.4512-51.2695Q12.4512-49.3164 13.6475-48.1201Q14.8438-46.9238 16.748-46.9238Q18.5547-46.9238 19.8242-48.1934L29.9805-58.6914L37.8418-67.7734L37.3535-56.4941L37.3535 6.25Q37.3535 8.1543 38.5742 9.39941Q39.7949 10.6445 41.748 10.6445Q43.6523 10.6445 44.873 9.39941Q46.0938 8.1543 46.0938 6.25L46.0938-56.4941L45.6543-67.7734L53.4668-58.6914L63.6719-48.1934Q64.8926-46.9238 66.6992-46.9238Q68.6035-46.9238 69.7998-48.1201Q70.9961-49.3164 70.9961-51.2695Q70.9961-53.0762 69.6289-54.4922L45.0195-79.6387Q43.6523-81.1035 41.748-81.1279Q39.8438-81.1523 38.4766-79.6387ZM100.732 9.22852L125.342-16.0156Q126.709-17.3828 126.709-19.2383Q126.709-21.1914 125.513-22.3633Q124.316-23.5352 122.412-23.5352Q120.605-23.5352 119.385-22.3145L109.229-11.8164L101.367-2.68555L101.807-13.9648L101.807-76.709Q101.807-78.6133 100.586-79.8584Q99.3652-81.1035 97.4609-81.1035Q95.5566-81.1035 94.3115-79.8584Q93.0664-78.6133 93.0664-76.709L93.0664-13.9648L93.5547-2.68555L85.6934-11.8164L75.5371-22.3145Q74.2676-23.5352 72.5098-23.5352Q70.6055-23.5352 69.3848-22.3633Q68.1641-21.1914 68.1641-19.2383Q68.1641-17.3828 69.5801-16.0156L94.1895 9.22852Q95.5566 10.6445 97.4365 10.6689Q99.3164 10.6934 100.732 9.22852Z"/>
  </g>
  <g id="Light-M" transform="matrix(1 0 0 1 1085.48 1126)">
   <path d="M38.3301-78.9062L13.5254-53.8574Q12.4512-52.7344 12.4512-51.3184Q12.4512-49.8535 13.3789-48.9258Q14.3066-47.998 15.7227-47.998Q17.1387-47.998 18.1641-49.0723L29.248-60.3516L37.8418-69.8242L37.5-58.9355L37.5 6.15234Q37.5 7.56836 38.4277 8.52051Q39.3555 9.47266 40.8203 9.47266Q42.2363 9.47266 43.1641 8.52051Q44.0918 7.56836 44.0918 6.15234L44.0918-58.9355L43.7988-69.8242L52.3438-60.3516L63.4766-49.0723Q64.502-47.998 65.8691-47.998Q67.334-47.998 68.2373-48.9258Q69.1406-49.8535 69.1406-51.3184Q69.1406-52.7344 68.0664-53.8574L43.3105-78.9062Q42.2363-79.9805 40.8203-80.0049Q39.4043-80.0293 38.3301-78.9062ZM97.0215 8.44727L121.777-16.6992Q122.852-17.7734 122.852-19.2383Q122.852-20.6543 121.948-21.5576Q121.045-22.4609 119.629-22.4609Q118.213-22.4609 117.188-21.4844L106.104-10.1562L97.5098-0.683594L97.8516-11.5723L97.8516-76.6602Q97.8516-78.0762 96.9238-79.0283Q95.9961-79.9805 94.5312-79.9805Q93.0664-79.9805 92.1387-79.0283Q91.2109-78.0762 91.2109-76.6602L91.2109-11.5723L91.6016-0.683594L82.959-10.1562L71.875-21.4844Q70.8496-22.4609 69.4824-22.4609Q68.0176-22.4609 67.0898-21.5576Q66.1621-20.6543 66.1621-19.2383Q66.1621-17.7734 67.334-16.6992L92.0898 8.44727Q93.0664 9.47266 94.5068 9.49707Q95.9473 9.52148 97.0215 8.44727Z"/>
  </g>
  <g id="Thin-M" transform="matrix(1 0 0 1 791.31 1126)">
   <path d="M38.1836-77.9297L13.1836-52.9785Q12.4512-52.2461 12.4512-51.3672Q12.4512-50.5371 12.9883-50Q13.5254-49.4629 14.3555-49.4629Q15.2344-49.4629 15.918-50.1953L28.2715-62.5977L37.8906-72.5586L37.6465-62.1582L37.6465 6.05469Q37.6465 6.83594 38.1836 7.39746Q38.7207 7.95898 39.5508 7.95898Q40.4297 7.95898 40.9668 7.39746Q41.5039 6.83594 41.5039 6.05469L41.5039-62.1582L41.3086-72.5586L50.8789-62.5977L63.2324-50.1953Q63.9648-49.4629 64.7949-49.4629Q65.625-49.4629 66.1621-50Q66.6992-50.5371 66.6992-51.3672Q66.6992-52.2461 65.9668-52.9785L41.0156-77.9297Q40.4297-78.5156 39.5996-78.54Q38.7695-78.5645 38.1836-77.9297ZM92.1387 7.37305L117.09-17.5781Q117.773-18.3105 117.773-19.1895Q117.773-20.0195 117.236-20.5566Q116.699-21.0938 115.918-21.0938Q115.039-21.0938 114.307-20.3613L102.002-8.00781L92.3828 2.00195L92.5781-8.39844L92.5781-76.6113Q92.5781-77.3926 92.041-77.9541Q91.5039-78.5156 90.6738-78.5156Q89.8438-78.5156 89.3066-77.9541Q88.7695-77.3926 88.7695-76.6113L88.7695-8.39844L88.9648 2.00195L79.3457-8.00781L67.041-20.3613Q66.3086-21.0938 65.4297-21.0938Q64.6484-21.0938 64.1113-20.5566Q63.5742-20.0195 63.5742-19.1895Q63.5742-18.3105 64.3066-17.5781L89.2578 7.37305Q89.8438 7.95898 90.6494 7.9834Q91.4551 8.00781 92.1387 7.37305Z"/>
  </g>
  <g id="Ultralight-M" transform="matrix(1 0 0 1 495.893 1126)">
   <path d="M38.0859-77.3926L12.9883-52.5391Q12.4512-52.002 12.4512-51.416Q12.4512-50.9277 12.8174-50.5615Q13.1836-50.1953 13.6719-50.1953Q14.2578-50.1953 14.7949-50.7812L27.7344-63.7207L37.8906-73.9258L37.7441-63.8184L37.7441 5.95703Q37.7441 6.44531 38.0859 6.81152Q38.4277 7.17773 38.916 7.17773Q39.4531 7.17773 39.7949 6.81152Q40.1367 6.44531 40.1367 5.95703L40.1367-63.8184L40.0391-73.9258L50.1465-63.7207L63.1348-50.7812Q63.6719-50.1953 64.2578-50.1953Q64.7461-50.1953 65.1123-50.5615Q65.4785-50.9277 65.4785-51.416Q65.4785-52.002 64.8926-52.5391L39.8438-77.3926Q39.4531-77.7832 38.9648-77.8076Q38.4766-77.832 38.0859-77.3926ZM89.5996 6.83594L114.648-18.0176Q115.186-18.5547 115.186-19.1895Q115.186-19.6289 114.844-19.9951Q114.502-20.3613 114.014-20.3613Q113.379-20.3613 112.842-19.8242L99.9023-6.88477L89.7949 3.36914L89.8926-6.78711L89.8926-76.5625Q89.8926-77.002 89.5752-77.3926Q89.2578-77.7832 88.7207-77.7832Q88.1348-77.7832 87.8418-77.3926Q87.5488-77.002 87.5488-76.5625L87.5488-6.78711L87.6465 3.36914L77.4902-6.88477L64.5508-19.8242Q64.0137-20.3613 63.3789-20.3613Q62.8906-20.3613 62.5488-19.9951Q62.207-19.6289 62.207-19.1895Q62.207-18.5547 62.793-18.0176L87.8418 6.83594Q88.1348 7.17773 88.6719 7.20215Q89.209 7.22656 89.5996 6.83594Z"/>
  </g>
  <g id="Black-S" transform="matrix(1 0 0 1 2873.49 696)">
   <path d="M31.0547-71.582L11.8652-51.8066Q9.76562-49.707 9.76562-46.7773Q9.76562-43.75 11.7432-41.7725Q13.7207-39.7949 16.748-39.7949Q19.7754-39.7949 21.6309-41.7969L29.1992-49.7559L29.1992-49.7559L29.1992-44.873L29.1992-3.66211Q29.1992-0.634766 31.2256 1.3916Q33.252 3.41797 36.2305 3.41797Q39.2578 3.41797 41.2598 1.3916Q43.2617-0.634766 43.2617-3.66211L43.2617-44.873L43.2617-49.7559L43.2617-49.7559L50.8301-41.7969Q52.6855-39.7949 55.7129-39.7949Q58.7402-39.7949 60.7178-41.7725Q62.6953-43.75 62.6953-46.7773Q62.6953-49.707 60.5957-51.8066L41.4062-71.582Q39.2578-73.8281 36.2305-73.8281Q33.2031-73.8281 31.0547-71.582ZM88.7695 1.17188L107.959-18.6523Q110.059-20.752 110.059-23.6816Q110.059-26.709 108.081-28.6865Q106.104-30.6641 103.076-30.6641Q100.049-30.6641 98.1934-28.6621L90.625-20.7031L90.625-20.7031L90.625-25.5859L90.625-66.7969Q90.625-69.8242 88.623-71.8262Q86.6211-73.8281 83.5938-73.8281Q80.6152-73.8281 78.5889-71.8262Q76.5625-69.8242 76.5625-66.7969L76.5625-25.5859L76.5625-20.7031L76.5625-20.7031L68.9941-28.6621Q67.1387-30.6641 64.1113-30.6641Q61.084-30.6641 59.1064-28.6865Q57.1289-26.709 57.1289-23.6816Q57.1289-20.752 59.2285-18.6523L78.418 1.17188Q80.5664 3.41797 83.5938 3.41797Q86.6211 3.41797 88.7695 1.17188Z"/>
  </g>
  <g id="Heavy-S" transform="matrix(1 0 0 1 2577.83 696)">
   <path d="M30.8594-71.2891L11.6699-51.5137Q9.76562-49.6582 9.76562-47.0215Q9.76562-44.2871 11.5234-42.5293Q13.2812-40.7715 16.0156-40.7715Q18.7012-40.7715 20.4102-42.5293L27.9297-50.4883L29.2969-52.0996L29.1992-46.2402L29.1992-3.41797Q29.1992-0.683594 31.0059 1.12305Q32.8125 2.92969 35.498 2.92969Q38.2324 2.92969 40.0146 1.12305Q41.7969-0.683594 41.7969-3.41797L41.7969-46.2402L41.6992-52.0996L43.0664-50.4883L50.6348-42.5293Q52.2949-40.7715 54.9805-40.7715Q57.7148-40.7715 59.4727-42.5293Q61.2305-44.2871 61.2305-47.0215Q61.2305-49.6582 59.375-51.5137L40.1855-71.2891Q38.2324-73.3398 35.5225-73.3398Q32.8125-73.3398 30.8594-71.2891ZM86.8652 0.878906L106.055-18.9453Q107.959-20.8008 107.959-23.4375Q107.959-26.1719 106.201-27.9297Q104.443-29.6875 101.709-29.6875Q99.0234-29.6875 97.3633-27.9297L89.7949-19.9707L88.4277-18.3594L88.5254-24.2188L88.5254-67.041Q88.5254-69.7266 86.7432-71.5332Q84.9609-73.3398 82.2266-73.3398Q79.541-73.3398 77.7344-71.5332Q75.9277-69.7266 75.9277-67.041L75.9277-24.2188L76.0254-18.3594L74.6582-19.9707L67.0898-27.9297Q65.4297-29.6875 62.7441-29.6875Q60.0098-29.6875 58.252-27.9297Q56.4941-26.1719 56.4941-23.4375Q56.4941-20.8008 58.3984-18.9453L77.5879 0.878906Q79.4922 2.92969 82.2021 2.92969Q84.9121 2.92969 86.8652 0.878906Z"/>
  </g>
  <g id="Bold-S" transform="matrix(1 0 0 1 2282.29 696)">
   <path d="M30.6641-70.9961L11.4258-51.2207Q9.76562-49.5605 9.76562-47.2656Q9.76562-44.873 11.3037-43.3594Q12.8418-41.8457 15.2344-41.8457Q17.5293-41.8457 18.9941-43.4082L26.5625-51.2695L29.4434-54.7852L29.1992-47.8027L29.1992-3.17383Q29.1992-0.78125 30.7861 0.78125Q32.373 2.34375 34.7168 2.34375Q37.0605 2.34375 38.623 0.78125Q40.1855-0.78125 40.1855-3.17383L40.1855-47.8027L39.9902-54.7852L42.8711-51.2695L50.3906-43.4082Q51.9043-41.8457 54.1992-41.8457Q56.5918-41.8457 58.1055-43.3594Q59.6191-44.873 59.6191-47.2656Q59.6191-49.5605 57.959-51.2207L38.7695-70.9961Q37.0605-72.7539 34.7168-72.7783Q32.373-72.8027 30.6641-70.9961ZM84.7656 0.585938L103.955-19.2383Q105.615-20.8984 105.615-23.1934Q105.615-25.5859 104.077-27.124Q102.539-28.6621 100.195-28.6621Q97.8516-28.6621 96.3867-27.0996L88.8672-19.1895L85.9863-15.7227L86.1816-22.6562L86.1816-67.2852Q86.1816-69.6777 84.6191-71.2158Q83.0566-72.7539 80.7129-72.7539Q78.3203-72.7539 76.7578-71.2158Q75.1953-69.6777 75.1953-67.2852L75.1953-22.6562L75.4395-15.7227L72.5098-19.1895L64.9902-27.0996Q63.5254-28.6621 61.1816-28.6621Q58.8379-28.6621 57.2998-27.124Q55.7617-25.5859 55.7617-23.1934Q55.7617-20.8984 57.4219-19.2383L76.6113 0.585938Q78.3203 2.34375 80.6885 2.36816Q83.0566 2.39258 84.7656 0.585938Z"/>
  </g>
  <g id="Semibold-S" transform="matrix(1 0 0 1 1986.38 696)">
   <path d="M30.4688-70.8008L11.2793-51.0254Q9.76562-49.5117 9.76562-47.4609Q9.76562-45.2637 11.1328-43.9209Q12.5-42.5781 14.6484-42.5781Q16.6992-42.5781 18.0176-43.9453L25.5859-51.8066L29.4922-56.5918L29.1992-48.877L29.1992-2.97852Q29.1992-0.830078 30.6152 0.561523Q32.0312 1.95312 34.1309 1.95312Q36.2793 1.95312 37.6709 0.561523Q39.0625-0.830078 39.0625-2.97852L39.0625-48.877L38.7695-56.5918L42.6758-51.8066L50.2441-43.9453Q51.5625-42.5781 53.6133-42.5781Q55.7617-42.5781 57.1289-43.9209Q58.4961-45.2637 58.4961-47.4609Q58.4961-49.5117 56.9824-51.0254L37.793-70.8008Q36.2793-72.3633 34.1553-72.3877Q32.0312-72.4121 30.4688-70.8008ZM83.252 0.341797L102.49-19.4336Q104.004-20.9473 104.004-22.998Q104.004-25.1953 102.612-26.5381Q101.221-27.8809 99.1211-27.8809Q97.0703-27.8809 95.752-26.5137L88.1836-18.6523L84.2773-13.916L84.5215-21.582L84.5215-67.4805Q84.5215-69.5801 83.1299-70.9717Q81.7383-72.3633 79.6387-72.3633Q77.4902-72.3633 76.0986-70.9717Q74.707-69.5801 74.707-67.4805L74.707-21.582L75-13.916L71.0449-18.6523L63.4766-26.5137Q62.1582-27.8809 60.1074-27.8809Q58.0078-27.8809 56.6406-26.5381Q55.2734-25.1953 55.2734-22.998Q55.2734-20.9473 56.7871-19.4336L75.9766 0.341797Q77.4902 1.95312 79.6143 1.97754Q81.7383 2.00195 83.252 0.341797Z"/>
  </g>
  <g id="Medium-S" transform="matrix(1 0 0 1 1690.28 696)">
   <path d="M30.3711-70.6055L11.1328-50.8301Q9.76562-49.4629 9.76562-47.5586Q9.76562-45.6055 11.0107-44.3604Q12.2559-43.1152 14.209-43.1152Q16.0645-43.1152 17.2852-44.3848L24.8535-52.2461L29.541-57.959L29.1992-49.6582L29.1992-2.88086Q29.1992-0.878906 30.4932 0.390625Q31.7871 1.66016 33.6914 1.66016Q35.6445 1.66016 36.9385 0.390625Q38.2324-0.878906 38.2324-2.88086L38.2324-49.6582L37.8418-57.959L42.5781-52.2461L50.0977-44.3848Q51.3672-43.1152 53.1738-43.1152Q55.1758-43.1152 56.4209-44.3604Q57.666-45.6055 57.666-47.5586Q57.666-49.4629 56.25-50.8301L37.0605-70.6055Q35.6445-72.0703 33.7158-72.0947Q31.7871-72.1191 30.3711-70.6055ZM82.1777 0.146484L101.416-19.6289Q102.783-20.9961 102.783-22.9004Q102.783-24.8535 101.514-26.0986Q100.244-27.3438 98.291-27.3438Q96.4355-27.3438 95.2148-26.0742L87.6953-18.2129L82.959-12.5488L83.3008-20.8008L83.3008-67.5781Q83.3008-69.5312 82.0312-70.8008Q80.7617-72.0703 78.8086-72.0703Q76.8555-72.0703 75.5859-70.8008Q74.3164-69.5312 74.3164-67.5781L74.3164-20.8008L74.6582-12.5488L69.9219-18.2129L62.4023-26.0742Q61.1816-27.3438 59.3262-27.3438Q57.373-27.3438 56.1279-26.0986Q54.8828-24.8535 54.8828-22.9004Q54.8828-20.9961 56.25-19.6289L75.4395 0.146484Q76.8555 1.66016 78.7842 1.68457Q80.7129 1.70898 82.1777 0.146484Z"/>
  </g>
  <g id="Regular-S" transform="matrix(1 0 0 1 1394.38 696)">
   <path d="M30.2246-70.4102L10.9863-50.6348Q9.76562-49.4141 9.76562-47.7539Q9.76562-45.9961 10.8398-44.9219Q11.9141-43.8477 13.6719-43.8477Q15.2344-43.8477 16.3574-44.9707L23.877-52.7832L29.6387-59.7656L29.1992-50.7324L29.1992-2.68555Q29.1992-0.927734 30.3223 0.170898Q31.4453 1.26953 33.1543 1.26953Q34.8633 1.26953 35.9863 0.170898Q37.1094-0.927734 37.1094-2.68555L37.1094-50.7324L36.6699-59.7656L42.4316-52.7832L49.9512-44.9707Q51.0742-43.8477 52.6367-43.8477Q54.3945-43.8477 55.4688-44.9219Q56.543-45.9961 56.543-47.7539Q56.543-49.4141 55.3223-50.6348L36.1328-70.4102Q34.8633-71.6797 33.1787-71.7041Q31.4941-71.7285 30.2246-70.4102ZM80.7129-0.0488281L99.9512-19.8242Q101.172-21.0449 101.172-22.7051Q101.172-24.4629 100.073-25.5371Q98.9746-26.6113 97.2656-26.6113Q95.6543-26.6113 94.5801-25.4883L87.0605-17.6758L81.2988-10.7422L81.6895-19.7266L81.6895-67.7734Q81.6895-69.4824 80.5908-70.5811Q79.4922-71.6797 77.7832-71.6797Q76.0254-71.6797 74.9268-70.5811Q73.8281-69.4824 73.8281-67.7734L73.8281-19.7266L74.2676-10.7422L68.457-17.6758L60.9375-25.4883Q59.8633-26.6113 58.252-26.6113Q56.543-26.6113 55.4688-25.5371Q54.3945-24.4629 54.3945-22.7051Q54.3945-21.0449 55.6152-19.8242L74.8047-0.0488281Q76.0254 1.26953 77.7344 1.29395Q79.4434 1.31836 80.7129-0.0488281Z"/>
  </g>
  <g id="Light-S" transform="matrix(1 0 0 1 1099.37 696)">
   <path d="M30.127-69.7266L10.7422-50.0488Q9.76562-49.0723 9.76562-47.8027Q9.76562-46.4844 10.5957-45.6543Q11.4258-44.8242 12.7441-44.8242Q13.9648-44.8242 14.8926-45.7031L23.1934-54.248L29.6387-61.5723L29.2969-52.8809L29.2969-2.7832Q29.2969-1.46484 30.1514-0.610352Q31.0059 0.244141 32.3242 0.244141Q33.6426 0.244141 34.4971-0.610352Q35.3516-1.46484 35.3516-2.7832L35.3516-52.8809L35.0098-61.5723L41.4551-54.248L49.8047-45.7031Q50.6836-44.8242 51.9043-44.8242Q53.2715-44.8242 54.1016-45.6543Q54.9316-46.4844 54.9316-47.8027Q54.9316-49.0723 53.9062-50.0488L34.6191-69.7266Q33.6426-70.7031 32.3486-70.7275Q31.0547-70.752 30.127-69.7266ZM77.4414-0.732422L96.7773-20.4102Q97.7539-21.3867 97.7539-22.7051Q97.7539-24.0234 96.9238-24.8535Q96.0938-25.6836 94.7754-25.6836Q93.5547-25.6836 92.6758-24.7559L84.3262-16.2109L77.8809-8.93555L78.1738-17.627L78.1738-67.7246Q78.1738-68.9941 77.3438-69.8486Q76.5137-70.7031 75.1953-70.7031Q73.877-70.7031 73.0469-69.8486Q72.2168-68.9941 72.2168-67.7246L72.2168-17.627L72.5098-8.93555L66.0645-16.2109L57.7148-24.7559Q56.8359-25.6836 55.5664-25.6836Q54.2969-25.6836 53.4668-24.8535Q52.6367-24.0234 52.6367-22.7051Q52.6367-21.3867 53.6133-20.4102L72.9492-0.732422Q73.877 0.244141 75.1709 0.268555Q76.4648 0.292969 77.4414-0.732422Z"/>
  </g>
  <g id="Thin-S" transform="matrix(1 0 0 1 804.909 696)">
   <path d="M29.9316-68.8477L10.4004-49.3164Q9.76562-48.6816 9.76562-47.8516Q9.76562-47.0703 10.2539-46.582Q10.7422-46.0938 11.5234-46.0938Q12.3047-46.0938 12.8906-46.7285L22.3145-56.25L29.6875-63.9648L29.4922-55.7129L29.4922-2.88086Q29.4922-2.09961 29.9805-1.58691Q30.4688-1.07422 31.25-1.07422Q32.0312-1.07422 32.5195-1.58691Q33.0078-2.09961 33.0078-2.88086L33.0078-55.7129L32.8613-63.9648L40.1855-56.25L49.6094-46.7285Q50.1953-46.0938 50.9766-46.0938Q51.7578-46.0938 52.2461-46.582Q52.7344-47.0703 52.7344-47.8516Q52.7344-48.6816 52.0996-49.3164L32.5684-68.8477Q32.0312-69.4336 31.2744-69.4336Q30.5176-69.4336 29.9316-68.8477ZM73.0957-1.66016L92.627-21.2402Q93.2617-21.875 93.2617-22.6562Q93.2617-23.4375 92.749-23.9258Q92.2363-24.4141 91.5039-24.4141Q90.7227-24.4141 90.1367-23.7793L80.7129-14.3066L73.3398-6.54297L73.5352-14.7949L73.5352-67.6758Q73.5352-68.4082 73.0469-68.9209Q72.5586-69.4336 71.7773-69.4336Q70.9961-69.4336 70.5078-68.9209Q70.0195-68.4082 70.0195-67.6758L70.0195-14.7949L70.166-6.54297L62.8906-14.3066L53.418-23.7793Q52.832-24.4141 52.0508-24.4141Q51.2695-24.4141 50.7812-23.9258Q50.293-23.4375 50.293-22.6562Q50.293-21.875 50.9277-21.2402L70.459-1.66016Q70.9961-1.07422 71.7529-1.07422Q72.5098-1.07422 73.0957-1.66016Z"/>
  </g>
  <g id="Ultralight-S" transform="matrix(1 0 0 1 509.345 696)">
   <path d="M29.8828-68.4082L10.2539-48.9258Q9.76562-48.4375 9.76562-47.9004Q9.76562-47.4121 10.083-47.0947Q10.4004-46.7773 10.8887-46.7773Q11.4258-46.7773 11.9141-47.2168L21.875-57.2266L29.6875-65.2344L29.541-57.1777L29.541-2.92969Q29.541-2.49023 29.8584-2.12402Q30.1758-1.75781 30.7129-1.75781Q31.2012-1.75781 31.4941-2.12402Q31.7871-2.49023 31.7871-2.92969L31.7871-57.1777L31.7383-65.2344L39.502-57.2266L49.5117-47.2168Q49.9512-46.7773 50.4883-46.7773Q50.9766-46.7773 51.3184-47.0947Q51.6602-47.4121 51.6602-47.9004Q51.6602-48.4375 51.123-48.9258L31.543-68.4082Q31.2012-68.75 30.7129-68.7744Q30.2246-68.7988 29.8828-68.4082ZM70.8496-2.14844L90.4785-21.6309Q90.9668-22.1191 90.9668-22.6562Q90.9668-23.1445 90.625-23.4619Q90.2832-23.7793 89.7949-23.7793Q89.3066-23.7793 88.8184-23.291L78.8574-13.3301L71.0449-5.32227L71.1426-13.3789L71.1426-67.627Q71.1426-68.0664 70.8496-68.4082Q70.5566-68.75 70.0195-68.75Q69.5312-68.75 69.2383-68.4082Q68.9453-68.0664 68.9453-67.627L68.9453-13.3789L68.9941-5.32227L61.2305-13.3301L51.2207-23.291Q50.7812-23.7793 50.1953-23.7793Q49.7559-23.7793 49.4141-23.4619Q49.0723-23.1445 49.0723-22.6562Q49.0723-22.1191 49.5605-21.6309L69.1895-2.14844Q69.5312-1.75781 70.0195-1.75781Q70.5078-1.75781 70.8496-2.14844Z"/>
  </g>
 </g>
</svg>
