<?xml version="1.0" encoding="UTF-8"?>
<!--Generator: Apple Native CoreSVG 149-->
<!DOCTYPE svg
PUBLIC "-//W3C//DTD SVG 1.1//EN"
       "http://www.w3.org/Graphics/SVG/1.1/DTD/svg11.dtd">
<svg version="1.1" xmlns="http://www.w3.org/2000/svg" xmlns:xlink="http://www.w3.org/1999/xlink" width="3300" height="2200">
 <!--glyph: "uni10012C.medium", point size: 100.000000, font version: "Version 16.0d18e1", template writer version: "8"-->
 <g id="Notes">
  <rect height="2200" id="artboard" style="fill:white;opacity:1" width="3300" x="0" y="0"/>
  <line id="" style="fill:none;stroke:black;opacity:1;stroke-width:0.5;" x1="263" x2="3036" y1="292" y2="292"/>
  <text style="stroke:none;fill:black;font-family:-apple-system,&quot;SF Pro Display&quot;,&quot;SF Pro Text&quot;,Helvetica,sans-serif;font-weight:bold;" transform="matrix(1 0 0 1 263 322)">Weight/Scale Variations</text>
  <text style="stroke:none;fill:black;font-family:-apple-system,&quot;SF Pro Display&quot;,&quot;SF Pro Text&quot;,Helvetica,sans-serif;text-anchor:middle;" transform="matrix(1 0 0 1 559.711 322)">Ultralight</text>
  <text style="stroke:none;fill:black;font-family:-apple-system,&quot;SF Pro Display&quot;,&quot;SF Pro Text&quot;,Helvetica,sans-serif;text-anchor:middle;" transform="matrix(1 0 0 1 856.422 322)">Thin</text>
  <text style="stroke:none;fill:black;font-family:-apple-system,&quot;SF Pro Display&quot;,&quot;SF Pro Text&quot;,Helvetica,sans-serif;text-anchor:middle;" transform="matrix(1 0 0 1 1153.13 322)">Light</text>
  <text style="stroke:none;fill:black;font-family:-apple-system,&quot;SF Pro Display&quot;,&quot;SF Pro Text&quot;,Helvetica,sans-serif;text-anchor:middle;" transform="matrix(1 0 0 1 1449.84 322)">Regular</text>
  <text style="stroke:none;fill:black;font-family:-apple-system,&quot;SF Pro Display&quot;,&quot;SF Pro Text&quot;,Helvetica,sans-serif;text-anchor:middle;" transform="matrix(1 0 0 1 1746.56 322)">Medium</text>
  <text style="stroke:none;fill:black;font-family:-apple-system,&quot;SF Pro Display&quot;,&quot;SF Pro Text&quot;,Helvetica,sans-serif;text-anchor:middle;" transform="matrix(1 0 0 1 2043.27 322)">Semibold</text>
  <text style="stroke:none;fill:black;font-family:-apple-system,&quot;SF Pro Display&quot;,&quot;SF Pro Text&quot;,Helvetica,sans-serif;text-anchor:middle;" transform="matrix(1 0 0 1 2339.98 322)">Bold</text>
  <text style="stroke:none;fill:black;font-family:-apple-system,&quot;SF Pro Display&quot;,&quot;SF Pro Text&quot;,Helvetica,sans-serif;text-anchor:middle;" transform="matrix(1 0 0 1 2636.69 322)">Heavy</text>
  <text style="stroke:none;fill:black;font-family:-apple-system,&quot;SF Pro Display&quot;,&quot;SF Pro Text&quot;,Helvetica,sans-serif;text-anchor:middle;" transform="matrix(1 0 0 1 2933.4 322)">Black</text>
  <line id="" style="fill:none;stroke:black;opacity:1;stroke-width:0.5;" x1="263" x2="3036" y1="1903" y2="1903"/>
  <g id="" transform="matrix(1 0 0 1 263 1933)">
   <path d="M9.24805 0.830078C13.5547 0.830078 17.1387-2.74414 17.1387-7.05078C17.1387-11.3574 13.5449-14.9316 9.23828-14.9316C4.94141-14.9316 1.36719-11.3574 1.36719-7.05078C1.36719-2.74414 4.95117 0.830078 9.24805 0.830078ZM9.24805-0.654297C5.70312-0.654297 2.87109-3.49609 2.87109-7.05078C2.87109-10.6055 5.69336-13.4473 9.23828-13.4473C12.793-13.4473 15.6348-10.6055 15.6445-7.05078C15.6543-3.49609 12.8027-0.654297 9.24805-0.654297ZM6.39648-6.31836L8.50586-6.31836L8.50586-4.19922C8.50586-3.75977 8.79883-3.45703 9.22852-3.45703C9.67773-3.45703 9.9707-3.75977 9.9707-4.19922L9.9707-6.31836L12.0996-6.31836C12.5391-6.31836 12.8418-6.61133 12.8418-7.04102C12.8418-7.48047 12.5391-7.7832 12.0996-7.7832L9.9707-7.7832L9.9707-9.89258C9.9707-10.3418 9.67773-10.6445 9.22852-10.6445C8.79883-10.6445 8.50586-10.3418 8.50586-9.89258L8.50586-7.7832L6.39648-7.7832C5.94727-7.7832 5.64453-7.48047 5.64453-7.04102C5.64453-6.61133 5.94727-6.31836 6.39648-6.31836Z"/>
  </g>
  <g id="" transform="matrix(1 0 0 1 281.506 1933)">
   <path d="M11.709 2.91016C17.1582 2.91016 21.6699-1.61133 21.6699-7.05078C21.6699-12.5 17.1484-17.0117 11.6992-17.0117C6.25977-17.0117 1.74805-12.5 1.74805-7.05078C1.74805-1.61133 6.26953 2.91016 11.709 2.91016ZM11.709 1.25C7.09961 1.25 3.41797-2.44141 3.41797-7.05078C3.41797-11.6602 7.08984-15.3516 11.6992-15.3516C16.3086-15.3516 20-11.6602 20.0098-7.05078C20.0195-2.44141 16.3184 1.25 11.709 1.25ZM7.98828-6.23047L10.8789-6.23047L10.8789-3.32031C10.8789-2.83203 11.2109-2.5 11.6895-2.5C12.1777-2.5 12.5195-2.83203 12.5195-3.32031L12.5195-6.23047L15.4297-6.23047C15.918-6.23047 16.25-6.5625 16.25-7.04102C16.25-7.5293 15.918-7.87109 15.4297-7.87109L12.5195-7.87109L12.5195-10.7617C12.5195-11.2695 12.1777-11.6016 11.6895-11.6016C11.2109-11.6016 10.8789-11.2598 10.8789-10.7617L10.8789-7.87109L7.98828-7.87109C7.48047-7.87109 7.14844-7.5293 7.14844-7.04102C7.14844-6.5625 7.49023-6.23047 7.98828-6.23047Z"/>
  </g>
  <g id="" transform="matrix(1 0 0 1 304.924 1933)">
   <path d="M14.9707 5.66406C21.9336 5.66406 27.6953-0.0976562 27.6953-7.05078C27.6953-14.0137 21.9238-19.7754 14.9609-19.7754C8.00781-19.7754 2.25586-14.0137 2.25586-7.05078C2.25586-0.0976562 8.01758 5.66406 14.9707 5.66406ZM14.9707 3.84766C8.93555 3.84766 4.08203-1.01562 4.08203-7.05078C4.08203-13.0957 8.92578-17.9492 14.9609-17.9492C21.0059-17.9492 25.8594-13.0957 25.8691-7.05078C25.8789-1.01562 21.0156 3.84766 14.9707 3.84766ZM10.0586-6.14258L14.0625-6.14258L14.0625-2.12891C14.0625-1.5918 14.4336-1.2207 14.9512-1.2207C15.4883-1.2207 15.8594-1.5918 15.8594-2.12891L15.8594-6.14258L19.8828-6.14258C20.4102-6.14258 20.791-6.51367 20.791-7.03125C20.791-7.56836 20.4199-7.94922 19.8828-7.94922L15.8594-7.94922L15.8594-11.9531C15.8594-12.5098 15.4883-12.8809 14.9512-12.8809C14.4336-12.8809 14.0625-12.5 14.0625-11.9531L14.0625-7.94922L10.0586-7.94922C9.50195-7.94922 9.13086-7.56836 9.13086-7.03125C9.13086-6.51367 9.51172-6.14258 10.0586-6.14258Z"/>
  </g>
  <text style="stroke:none;fill:black;font-family:-apple-system,&quot;SF Pro Display&quot;,&quot;SF Pro Text&quot;,Helvetica,sans-serif;font-weight:bold;" transform="matrix(1 0 0 1 263 1953)">Design Variations</text>
  <text style="stroke:none;fill:black;font-family:-apple-system,&quot;SF Pro Display&quot;,&quot;SF Pro Text&quot;,Helvetica,sans-serif;" transform="matrix(1 0 0 1 263 1971)">Symbols are supported in up to nine weights and three scales.</text>
  <text style="stroke:none;fill:black;font-family:-apple-system,&quot;SF Pro Display&quot;,&quot;SF Pro Text&quot;,Helvetica,sans-serif;" transform="matrix(1 0 0 1 263 1989)">For optimal layout with text and other symbols, vertically align</text>
  <text style="stroke:none;fill:black;font-family:-apple-system,&quot;SF Pro Display&quot;,&quot;SF Pro Text&quot;,Helvetica,sans-serif;" transform="matrix(1 0 0 1 263 2007)">symbols with the adjacent text.</text>
  <line id="" style="fill:none;stroke:#00AEEF;stroke-width:0.5;opacity:1.0;" x1="776" x2="776" y1="1919" y2="1933"/>
  <g id="" transform="matrix(1 0 0 1 776 1933)">
   <path d="M3.31055 0.126953C3.82812 0.126953 4.08203-0.0683594 4.26758-0.605469L5.52734-4.0625L11.2891-4.0625L12.5488-0.605469C12.7344-0.0683594 12.9883 0.126953 13.4961 0.126953C14.0137 0.126953 14.3457-0.185547 14.3457-0.673828C14.3457-0.839844 14.3164-0.986328 14.2383-1.20117L9.6582-13.3887C9.43359-13.9941 9.0332-14.2871 8.4082-14.2871C7.80273-14.2871 7.39258-13.9941 7.17773-13.3984L2.59766-1.19141C2.51953-0.976562 2.49023-0.830078 2.49023-0.664062C2.49023-0.175781 2.80273 0.126953 3.31055 0.126953ZM6.00586-5.53711L8.37891-12.1094L8.42773-12.1094L10.8008-5.53711Z"/>
  </g>
  <line id="" style="fill:none;stroke:#00AEEF;stroke-width:0.5;opacity:1.0;" x1="792.836" x2="792.836" y1="1919" y2="1933"/>
  <text style="stroke:none;fill:black;font-family:-apple-system,&quot;SF Pro Display&quot;,&quot;SF Pro Text&quot;,Helvetica,sans-serif;font-weight:bold;" transform="matrix(1 0 0 1 776 1953)">Margins</text>
  <text style="stroke:none;fill:black;font-family:-apple-system,&quot;SF Pro Display&quot;,&quot;SF Pro Text&quot;,Helvetica,sans-serif;" transform="matrix(1 0 0 1 776 1971)">Leading and trailing margins on the left and right side of each symbol</text>
  <text style="stroke:none;fill:black;font-family:-apple-system,&quot;SF Pro Display&quot;,&quot;SF Pro Text&quot;,Helvetica,sans-serif;" transform="matrix(1 0 0 1 776 1989)">can be adjusted by modifying the x-location of the margin guidelines.</text>
  <text style="stroke:none;fill:black;font-family:-apple-system,&quot;SF Pro Display&quot;,&quot;SF Pro Text&quot;,Helvetica,sans-serif;" transform="matrix(1 0 0 1 776 2007)">Modifications are automatically applied proportionally to all</text>
  <text style="stroke:none;fill:black;font-family:-apple-system,&quot;SF Pro Display&quot;,&quot;SF Pro Text&quot;,Helvetica,sans-serif;" transform="matrix(1 0 0 1 776 2025)">scales and weights.</text>
  <g id="" transform="matrix(1 0 0 1 1289 1933)">
   <path d="M2.8418 1.86523L4.54102 3.57422C5.40039 4.44336 6.38672 4.38477 7.31445 3.35938L17.4902-7.85156C17.7539-7.76367 18.0273-7.7832 18.3398-7.8418L19.4043-8.03711L20.0684-7.36328L20.0293-6.80664C19.9902-6.30859 20.1172-5.92773 20.6055-5.44922L21.3672-4.70703C21.8457-4.22852 22.4609-4.19922 22.9297-4.66797L25.8398-7.58789C26.3086-8.05664 26.2891-8.65234 25.8105-9.13086L25.0391-9.89258C24.5605-10.3711 24.1895-10.5273 23.7109-10.4883L23.1348-10.4395L22.4902-11.0742L22.7344-12.1973C22.8613-12.7637 22.7051-13.2031 22.1191-13.7891L19.9219-15.9766C16.582-19.2969 12.1484-19.2188 9.25781-16.3281C8.83789-15.918 8.80859-15.3418 9.04297-14.9512C9.27734-14.5898 9.73633-14.3555 10.3809-14.5215C11.8457-14.8633 13.3691-14.9219 14.7949-13.9844L14.209-12.5293C14.0137-12.0508 13.9844-11.6504 14.1113-11.2891L3.04688-0.898438C2.06055 0.0195312 1.98242 0.996094 2.8418 1.86523ZM10.752-15.957C13.1836-17.7344 16.4746-17.4316 18.7012-15.2051L21.1328-12.793C21.3672-12.5586 21.4062-12.373 21.3379-12.0312L21.0156-10.5469L22.5195-9.0625L23.5059-9.12109C23.7598-9.13086 23.8379-9.11133 24.0332-8.91602L24.6094-8.33984L22.168-5.89844L21.5918-6.47461C21.3965-6.66992 21.3672-6.74805 21.377-7.01172L21.4453-7.98828L19.9512-9.47266L18.4277-9.21875C18.1055-9.15039 17.959-9.17969 17.7148-9.41406L15.7129-11.416C15.459-11.6504 15.4297-11.8164 15.5859-12.1875L16.4648-14.2773C14.9023-15.7324 12.8711-16.3574 10.8398-15.7617C10.6836-15.7227 10.625-15.8496 10.752-15.957ZM5.27344 2.30469L4.10156 1.14258C3.63281 0.683594 3.74023 0.341797 4.14062-0.0195312L14.9512-10.1953L16.416-8.71094L6.42578 2.27539C6.07422 2.67578 5.74219 2.77344 5.27344 2.30469Z"/>
  </g>
  <text style="stroke:none;fill:black;font-family:-apple-system,&quot;SF Pro Display&quot;,&quot;SF Pro Text&quot;,Helvetica,sans-serif;font-weight:bold;" transform="matrix(1 0 0 1 1289 1953)">Exporting</text>
  <text style="stroke:none;fill:black;font-family:-apple-system,&quot;SF Pro Display&quot;,&quot;SF Pro Text&quot;,Helvetica,sans-serif;" transform="matrix(1 0 0 1 1289 1971)">Symbols should be outlined when exporting to ensure the</text>
  <text style="stroke:none;fill:black;font-family:-apple-system,&quot;SF Pro Display&quot;,&quot;SF Pro Text&quot;,Helvetica,sans-serif;" transform="matrix(1 0 0 1 1289 1989)">design is preserved when submitting to Xcode.</text>
  <text id="template-version" style="stroke:none;fill:black;font-family:-apple-system,&quot;SF Pro Display&quot;,&quot;SF Pro Text&quot;,Helvetica,sans-serif;text-anchor:end;" transform="matrix(1 0 0 1 3036 1933)">Template v.2.0</text>
  <text style="stroke:none;fill:black;font-family:-apple-system,&quot;SF Pro Display&quot;,&quot;SF Pro Text&quot;,Helvetica,sans-serif;text-anchor:end;" transform="matrix(1 0 0 1 3036 1951)">Requires Xcode 12 or greater</text>
  <text style="stroke:none;fill:black;font-family:-apple-system,&quot;SF Pro Display&quot;,&quot;SF Pro Text&quot;,Helvetica,sans-serif;text-anchor:end;" transform="matrix(1 0 0 1 3036 1969)">Generated from arrow.up.arrow.down</text>
  <text style="stroke:none;fill:black;font-family:-apple-system,&quot;SF Pro Display&quot;,&quot;SF Pro Text&quot;,Helvetica,sans-serif;text-anchor:end;" transform="matrix(1 0 0 1 3036 1987)">Typeset at 100 points</text>
  <text style="stroke:none;fill:black;font-family:-apple-system,&quot;SF Pro Display&quot;,&quot;SF Pro Text&quot;,Helvetica,sans-serif;" transform="matrix(1 0 0 1 263 726)">Small</text>
  <text style="stroke:none;fill:black;font-family:-apple-system,&quot;SF Pro Display&quot;,&quot;SF Pro Text&quot;,Helvetica,sans-serif;" transform="matrix(1 0 0 1 263 1156)">Medium</text>
  <text style="stroke:none;fill:black;font-family:-apple-system,&quot;SF Pro Display&quot;,&quot;SF Pro Text&quot;,Helvetica,sans-serif;" transform="matrix(1 0 0 1 263 1586)">Large</text>
 </g>
 <g id="Guides">
  <g id="H-reference" style="fill:#27AAE1;stroke:none;" transform="matrix(1 0 0 1 339 696)">
   <path d="M0.976562 0L3.66211 0L12.9883-24.4629L45.752-24.4629L55.127 0L57.7637 0L30.6152-70.459L28.125-70.459ZM29.3457-67.1387L29.4434-67.1387L44.873-26.709L13.8672-26.709Z"/>
  </g>
  <line id="Baseline-S" style="fill:none;stroke:#27AAE1;opacity:1;stroke-width:0.5;" x1="263" x2="3036" y1="696" y2="696"/>
  <line id="Capline-S" style="fill:none;stroke:#27AAE1;opacity:1;stroke-width:0.5;" x1="263" x2="3036" y1="625.541" y2="625.541"/>
  <g id="H-reference" style="fill:#27AAE1;stroke:none;" transform="matrix(1 0 0 1 339 1126)">
   <path d="M0.976562 0L3.66211 0L12.9883-24.4629L45.752-24.4629L55.127 0L57.7637 0L30.6152-70.459L28.125-70.459ZM29.3457-67.1387L29.4434-67.1387L44.873-26.709L13.8672-26.709Z"/>
  </g>
  <line id="Baseline-M" style="fill:none;stroke:#27AAE1;opacity:1;stroke-width:0.5;" x1="263" x2="3036" y1="1126" y2="1126"/>
  <line id="Capline-M" style="fill:none;stroke:#27AAE1;opacity:1;stroke-width:0.5;" x1="263" x2="3036" y1="1055.54" y2="1055.54"/>
  <g id="H-reference" style="fill:#27AAE1;stroke:none;" transform="matrix(1 0 0 1 339 1556)">
   <path d="M0.976562 0L3.66211 0L12.9883-24.4629L45.752-24.4629L55.127 0L57.7637 0L30.6152-70.459L28.125-70.459ZM29.3457-67.1387L29.4434-67.1387L44.873-26.709L13.8672-26.709Z"/>
  </g>
  <line id="Baseline-L" style="fill:none;stroke:#27AAE1;opacity:1;stroke-width:0.5;" x1="263" x2="3036" y1="1556" y2="1556"/>
  <line id="Capline-L" style="fill:none;stroke:#27AAE1;opacity:1;stroke-width:0.5;" x1="263" x2="3036" y1="1485.54" y2="1485.54"/>
  <line id="left-margin" style="fill:none;stroke:#00AEEF;stroke-width:0.5;opacity:1.0;" x1="1380.26" x2="1380.26" y1="1030.79" y2="1150.12"/>
  <line id="right-margin" style="fill:none;stroke:#00AEEF;stroke-width:0.5;opacity:1.0;" x1="1519.42" x2="1519.42" y1="1030.79" y2="1150.12"/>
 </g>
 <g id="Symbols">
  <g id="Black-L" transform="matrix(1 0 0 1 2836.62 1556)">
   <path d="M142.822 24.2188L174.414-8.39844C176.27-10.3027 177.49-13.1836 177.49-15.7715C177.49-21.7285 173.242-25.9277 167.334-25.9277C164.6-25.9277 162.061-25 160.254-23.0469L147.852-10.0586L145.312-6.93359L145.508-16.8945L145.508-87.6465C145.508-93.5059 141.113-97.9004 135.254-97.9004C129.346-97.9004 125-93.5059 125-87.6465L125-16.8945L125.195-6.93359L122.607-10.0586L110.254-23.0469C108.398-25 105.908-25.9277 103.174-25.9277C97.2168-25.9277 92.9688-21.7285 92.9688-15.7715C92.9688-13.1836 94.1895-10.3027 96.0449-8.39844L127.637 24.2188C131.885 28.6133 138.574 28.6621 142.822 24.2188ZM50.7324-94.6289L19.1406-62.0605C17.2852-60.1562 16.0645-57.2754 16.0645-54.6875C16.0645-48.7305 20.3125-44.5312 26.2207-44.5312C29.0039-44.5312 31.4941-45.459 33.3496-47.4121L45.7031-60.4004L48.291-63.5254L48.0957-53.5645L48.0957 17.1875C48.0957 23.1445 52.4414 27.5391 58.3496 27.5391C64.209 27.5391 68.6035 23.1445 68.6035 17.1875L68.6035-53.5645L68.4082-63.5254L70.9473-60.4004L83.3008-47.4121C85.1562-45.459 87.6953-44.5312 90.4297-44.5312C96.3379-44.5312 100.586-48.7305 100.586-54.6875C100.586-57.2754 99.3652-60.1562 97.5098-62.0605L65.918-94.6289C61.6699-98.9746 54.9805-99.0234 50.7324-94.6289Z"/>
  </g>
  <g id="Heavy-L" transform="matrix(1 0 0 1 2541.91 1556)">
   <path d="M139.062 23.584L170.752-9.0332C172.412-10.6934 173.486-13.1836 173.486-15.4785C173.486-20.7031 169.775-24.3652 164.551-24.3652C162.158-24.3652 160.01-23.5352 158.35-21.8262L145.605-8.54492L141.113-3.32031L141.406-14.2578L141.406-87.8906C141.406-93.0664 137.598-96.875 132.422-96.875C127.295-96.875 123.486-93.0664 123.486-87.8906L123.486-14.2578L123.73-3.32031L119.238-8.54492L106.543-21.8262C104.883-23.5352 102.734-24.3652 100.293-24.3652C95.1172-24.3652 91.4062-20.7031 91.4062-15.4785C91.4062-13.1836 92.4805-10.6934 94.1406-9.0332L125.781 23.584C129.492 27.4414 135.352 27.4414 139.062 23.584ZM50.4395-93.9941L18.7988-61.4746C17.1387-59.8145 16.0645-57.2754 16.0645-54.9805C16.0645-49.7559 19.7754-46.0938 24.9512-46.0938C27.3926-46.0938 29.541-46.9238 31.2012-48.6328L43.8965-61.9141L48.3887-67.1387L48.1445-56.2012L48.1445 17.4316C48.1445 22.6562 51.9531 26.4648 57.0801 26.4648C62.2559 26.4648 66.0645 22.6562 66.0645 17.4316L66.0645-56.2012L65.7715-67.1387L70.2637-61.9141L83.0078-48.6328C84.668-46.9238 86.8164-46.0938 89.209-46.0938C94.4336-46.0938 98.1445-49.7559 98.1445-54.9805C98.1445-57.2754 97.0703-59.8145 95.4102-61.4746L63.7207-93.9941C60.0586-97.8027 54.1992-97.8516 50.4395-93.9941Z"/>
  </g>
  <g id="Bold-L" transform="matrix(1 0 0 1 2247.47 1556)">
   <path d="M50.1465-93.2617L18.4082-60.791C16.9434-59.375 16.0645-57.2754 16.0645-55.3223C16.0645-50.9277 19.1895-47.8516 23.5352-47.8516C25.5859-47.8516 27.3438-48.584 28.7598-50.0488L41.8945-63.623L48.5352-71.2402L48.1934-59.1309L48.1934 17.7246C48.1934 22.0703 51.3672 25.293 55.7129 25.293C60.0586 25.293 63.2324 22.0703 63.2324 17.7246L63.2324-59.1309L62.8906-71.2402L69.5312-63.623L82.666-50.0488C84.082-48.584 85.8398-47.8516 87.8906-47.8516C92.2363-47.8516 95.3613-50.9277 95.3613-55.3223C95.3613-57.2754 94.4336-59.375 93.0176-60.791L61.2793-93.2617C58.2031-96.4844 53.2715-96.5332 50.1465-93.2617ZM134.863 22.8516L166.602-9.66797C168.066-11.1328 168.945-13.2324 168.945-15.1855C168.945-19.5312 165.82-22.6074 161.475-22.6074C159.424-22.6074 157.666-21.9238 156.25-20.459L143.115-6.83594L136.475 0.732422L136.816-11.377L136.816-88.1836C136.816-92.4805 133.643-95.7031 129.297-95.7031C124.951-95.7031 121.777-92.4805 121.777-88.1836L121.777-11.377L122.119 0.732422L115.479-6.83594L102.344-20.459C100.928-21.9238 99.1699-22.6074 97.1191-22.6074C92.7734-22.6074 89.6484-19.5312 89.6484-15.1855C89.6484-13.2324 90.5273-11.1328 91.9922-9.66797L123.73 22.8516C126.807 26.0742 131.738 26.123 134.863 22.8516Z"/>
  </g>
  <g id="Semibold-L" transform="matrix(1 0 0 1 1952.32 1556)">
   <path d="M49.9023-92.7734L18.1152-60.3516C16.8457-59.082 16.0645-57.2266 16.0645-55.5664C16.0645-51.7578 18.75-49.0723 22.5098-49.0723C24.3164-49.0723 25.8789-49.707 27.0996-50.9766L40.4785-64.7949L48.6328-74.0234L48.2422-61.1328L48.2422 17.8711C48.2422 21.6797 50.9766 24.4629 54.7363 24.4629C58.5449 24.4629 61.2793 21.6797 61.2793 17.8711L61.2793-61.1328L60.8398-74.0234L68.9941-64.7949L82.4219-50.9766C83.6426-49.707 85.2051-49.0723 87.0117-49.0723C90.7715-49.0723 93.457-51.7578 93.457-55.5664C93.457-57.2266 92.6758-59.082 91.4062-60.3516L59.6191-92.7734C56.9336-95.6055 52.6367-95.6543 49.9023-92.7734ZM131.982 22.3633L163.77-10.1562C165.039-11.4258 165.82-13.2812 165.82-14.9414C165.82-18.75 163.135-21.3867 159.375-21.3867C157.568-21.3867 156.055-20.8008 154.785-19.5312L141.406-5.66406L133.252 3.51562L133.643-9.375L133.643-88.3789C133.643-92.1387 130.908-94.9219 127.148-94.9219C123.34-94.9219 120.605-92.1387 120.605-88.3789L120.605-9.375L121.045 3.51562L112.891-5.66406L99.4629-19.5312C98.2422-20.8008 96.7285-21.3867 94.9219-21.3867C91.1133-21.3867 88.4277-18.75 88.4277-14.9414C88.4277-13.2812 89.209-11.4258 90.4785-10.1562L122.266 22.3633C124.951 25.1465 129.248 25.1953 131.982 22.3633Z"/>
  </g>
  <g id="Medium-L" transform="matrix(1 0 0 1 1656.79 1556)">
   <path d="M49.7559-92.4316L17.9199-60.0098C16.748-58.8867 16.0645-57.2266 16.0645-55.7129C16.0645-52.3438 18.457-50 21.7773-50C23.3887-50 24.707-50.5859 25.8301-51.709L39.4531-65.7227L48.7305-76.1719L48.291-62.6953L48.291 18.0176C48.291 21.3867 50.6836 23.8281 54.0527 23.8281C57.373 23.8281 59.8145 21.3867 59.8145 18.0176L59.8145-62.6953L59.3262-76.1719L68.6035-65.7227L82.2266-51.709C83.3496-50.5859 84.668-50 86.2793-50C89.6484-50 91.9922-52.3438 91.9922-55.7129C91.9922-57.2266 91.3086-58.8867 90.1855-60.0098L58.3496-92.4316C55.957-94.9219 52.1973-94.9707 49.7559-92.4316ZM129.785 21.9727L161.621-10.498C162.744-11.6211 163.477-13.2812 163.477-14.7949C163.477-18.1641 161.084-20.5078 157.764-20.5078C156.152-20.5078 154.785-19.9707 153.711-18.7988L140.088-4.78516L130.811 5.66406L131.25-7.8125L131.25-88.5254C131.25-91.8457 128.857-94.2871 125.488-94.2871C122.168-94.2871 119.727-91.8457 119.727-88.5254L119.727-7.8125L120.166 5.66406L110.889-4.78516L97.3145-18.7988C96.1914-19.9707 94.8242-20.5078 93.2129-20.5078C89.8926-20.5078 87.5488-18.1641 87.5488-14.7949C87.5488-13.2812 88.2324-11.6211 89.3555-10.498L121.191 21.9727C123.584 24.4629 127.344 24.5117 129.785 21.9727Z"/>
  </g>
  <g id="Regular-L" transform="matrix(1 0 0 1 1361.61 1556)">
   <path d="M49.5117-91.9434L17.627-59.5703C16.6504-58.5938 16.0645-57.2266 16.0645-55.957C16.0645-53.125 18.0176-51.2207 20.8008-51.2207C22.168-51.2207 23.2422-51.709 24.1699-52.6367L38.0859-66.8945L48.8281-78.9062L48.3398-64.6973L48.3398 18.2129C48.3398 20.9961 50.293 23.0469 53.0762 23.0469C55.8594 23.0469 57.8613 20.9961 57.8613 18.2129L57.8613-64.6973L57.373-78.9062L68.1152-66.8945L81.9824-52.6367C82.959-51.709 84.0332-51.2207 85.4004-51.2207C88.1348-51.2207 90.1367-53.125 90.1367-55.957C90.1367-57.2266 89.5508-58.5938 88.5742-59.5703L56.6895-91.9434C54.6875-93.9941 51.5625-94.0918 49.5117-91.9434ZM126.953 21.4844L158.838-10.9863C159.814-11.9629 160.4-13.2812 160.4-14.5508C160.4-17.3828 158.398-19.2871 155.664-19.2871C154.297-19.2871 153.223-18.8477 152.246-17.8711L138.379-3.66211L127.637 8.39844L128.125-5.85938L128.125-88.7207C128.125-91.4551 126.123-93.5059 123.34-93.5059C120.557-93.5059 118.604-91.4551 118.604-88.7207L118.604-5.85938L119.092 8.39844L108.35-3.66211L94.4336-17.8711C93.5059-18.8477 92.4316-19.2871 91.0645-19.2871C88.2812-19.2871 86.3281-17.3828 86.3281-14.5508C86.3281-13.2812 86.9141-11.9629 87.8906-10.9863L119.775 21.4844C121.777 23.5352 124.854 23.6328 126.953 21.4844Z"/>
  </g>
  <g id="Light-L" transform="matrix(1 0 0 1 1067.05 1556)">
   <path d="M49.3652-91.1133L17.334-58.8379C16.5039-58.0566 16.0645-57.0801 16.0645-56.0059C16.0645-53.9062 17.5781-52.4414 19.6289-52.4414C20.6543-52.4414 21.5332-52.7832 22.3145-53.6133L37.2559-68.75L48.8281-81.2012L48.4863-67.3828L48.4863 18.1152C48.4863 20.166 49.9512 21.7285 52.0508 21.7285C54.1504 21.7285 55.6641 20.166 55.6641 18.1152L55.6641-67.3828L55.2734-81.2012L66.8945-68.75L81.7871-53.6133C82.6172-52.7832 83.4473-52.4414 84.4727-52.4414C86.5723-52.4414 88.0371-53.9062 88.0371-56.0059C88.0371-57.0801 87.5977-58.0566 86.8164-58.8379L54.7363-91.1133C53.2715-92.627 50.9277-92.7246 49.3652-91.1133ZM122.803 20.5566L154.834-11.7188C155.615-12.5 156.104-13.4766 156.104-14.5508C156.104-16.6504 154.59-18.1152 152.539-18.1152C151.514-18.1152 150.635-17.7734 149.854-16.9434L134.912-1.80664L123.291 10.6445L123.682-3.17383L123.682-88.6719C123.682-90.6738 122.217-92.2852 120.117-92.2852C117.969-92.2852 116.504-90.6738 116.504-88.6719L116.504-3.17383L116.895 10.6445L105.273-1.80664L90.3809-16.9434C89.5508-17.7734 88.7207-18.1152 87.6465-18.1152C85.5957-18.1152 84.1309-16.6504 84.1309-14.5508C84.1309-13.4766 84.5703-12.5 85.3516-11.7188L117.432 20.5566C118.896 22.1191 121.24 22.2168 122.803 20.5566Z"/>
  </g>
  <g id="Thin-L" transform="matrix(1 0 0 1 773.17 1556)">
   <path d="M49.1699-89.9902L16.8945-57.8613C16.3574-57.3242 16.0645-56.8848 16.0645-56.0547C16.0645-54.9316 16.9434-54.0527 18.0664-54.0527C18.7012-54.0527 19.2383-54.248 19.873-54.8828L36.1328-71.1914L48.877-84.2285L48.6816-70.9961L48.6816 18.0176C48.6816 19.043 49.4629 20.0195 50.6836 20.0195C51.9043 20.0195 52.6855 19.043 52.6855 18.0176L52.6855-70.9961L52.4902-84.2285L65.2344-71.1914L81.4941-54.8828C82.1289-54.248 82.7148-54.0527 83.3008-54.0527C84.4238-54.0527 85.3027-54.9316 85.3027-56.0547C85.3027-56.8848 85.0098-57.3242 84.4727-57.8613L52.1973-89.9902C51.3672-90.8203 50.0488-90.918 49.1699-89.9902ZM117.334 19.3848L149.609-12.7441C150.146-13.2812 150.439-13.7207 150.439-14.5508C150.439-15.6738 149.512-16.5527 148.389-16.5527C147.803-16.5527 147.266-16.3574 146.631-15.7227L130.322 0.585938L117.627 13.623L117.822 0.390625L117.822-88.623C117.822-89.6484 116.992-90.625 115.82-90.625C114.6-90.625 113.77-89.6484 113.77-88.623L113.77 0.390625L113.965 13.623L101.27 0.585938L84.9609-15.7227C84.375-16.3574 83.7891-16.5527 83.2031-16.5527C82.0801-16.5527 81.2012-15.6738 81.2012-14.5508C81.2012-13.7207 81.4453-13.2812 82.0312-12.7441L114.258 19.3848C115.088 20.2148 116.406 20.3125 117.334 19.3848Z"/>
  </g>
  <g id="Ultralight-L" transform="matrix(1 0 0 1 477.924 1556)">
   <path d="M49.0723-89.4531L16.6992-57.373C16.2598-56.9824 16.0645-56.7871 16.0645-56.1035C16.0645-55.4688 16.6504-54.8828 17.2852-54.8828C17.6758-54.8828 18.0664-55.0293 18.6035-55.5176L35.5957-72.4609L48.877-85.791L48.7793-72.8516L48.7793 17.9199C48.7793 18.5059 49.2676 19.1406 50 19.1406C50.7324 19.1406 51.2207 18.5059 51.2207 17.9199L51.2207-72.8516L51.0742-85.791L64.4043-72.4609L81.3965-55.5176C81.8848-55.0293 82.3242-54.8828 82.666-54.8828C83.3496-54.8828 83.8867-55.4688 83.8867-56.1035C83.8867-56.7871 83.6914-56.9824 83.3008-57.373L50.8789-89.4531C50.4395-89.8926 49.6094-89.9902 49.0723-89.4531ZM114.502 18.7988L146.875-13.2324C147.314-13.6719 147.51-13.8672 147.51-14.502C147.51-15.1855 146.924-15.7227 146.289-15.7227C145.898-15.7227 145.508-15.625 144.971-15.0879L128.027 1.85547L114.697 15.1855L114.795 2.19727L114.795-88.5742C114.795-89.1602 114.355-89.7949 113.574-89.7949C112.842-89.7949 112.354-89.1602 112.354-88.5742L112.354 2.19727L112.5 15.1855L99.1699 1.85547L82.1777-15.0879C81.6895-15.625 81.2988-15.7227 80.9082-15.7227C80.2246-15.7227 79.6875-15.1855 79.6875-14.502C79.6875-13.8672 79.8828-13.6719 80.2734-13.2324L112.695 18.7988C113.184 19.2871 113.965 19.3359 114.502 18.7988Z"/>
  </g>
  <g id="Black-M" transform="matrix(1 0 0 1 2856.81 1126)">
   <path d="M113.525 11.2793L138.037-14.0137C139.648-15.6738 140.723-18.1641 140.723-20.5078C140.723-25.7324 136.963-29.541 131.738-29.541C129.346-29.541 127.051-28.7109 125.439-26.9531L115.771-16.7969L115.918-16.9922L115.918-75.4883C115.918-80.6641 112.012-84.5703 106.836-84.5703C101.709-84.5703 97.8027-80.6641 97.8027-75.4883L97.8027-23.0957L97.7539-16.9922L97.9492-16.7969L88.2812-26.9531C86.6699-28.7109 84.375-29.541 81.9824-29.541C76.7578-29.541 72.998-25.7324 72.998-20.5078C72.998-18.1641 74.0723-15.6738 75.6836-14.0137L100.195 11.2793C103.906 15.0879 109.814 15.0879 113.525 11.2793ZM39.6484-81.6406L15.1367-56.4453C13.5254-54.7852 12.4512-52.2949 12.4512-49.9512C12.4512-44.7266 16.2109-40.918 21.4355-40.918C23.8281-40.918 26.123-41.748 27.7344-43.5059L37.4023-53.6621L37.2559-53.4668L37.2559 5.0293C37.2559 10.2539 41.1621 14.1602 46.3379 14.1602C51.4648 14.1602 55.3711 10.2539 55.3711 5.0293L55.3711-47.3633L55.4199-53.4668L55.2246-53.6621L64.8926-43.5059C66.5527-41.748 68.7988-40.918 71.1914-40.918C76.416-40.918 80.1758-44.7266 80.1758-49.9512C80.1758-52.2949 79.1016-54.7852 77.4902-56.4453L52.9785-81.6406C49.2676-85.498 43.3594-85.498 39.6484-81.6406Z"/>
  </g>
  <g id="Heavy-M" transform="matrix(1 0 0 1 2561.76 1126)">
   <path d="M110.498 10.791L135.01-14.502C136.475-15.9668 137.402-18.1641 137.402-20.2148C137.402-24.8047 134.131-28.125 129.541-28.125C127.393-28.125 125.439-27.3926 123.975-25.8301L114.209-15.5762L112.5-13.623L112.598-20.9473L112.598-75.7812C112.598-80.3223 109.18-83.7402 104.639-83.7402C100.098-83.7402 96.6797-80.3223 96.6797-75.7812L96.6797-20.9473L96.7773-13.623L95.0684-15.5762L85.2539-25.8301C83.8379-27.3926 81.8848-28.125 79.7363-28.125C75.1465-28.125 71.8262-24.8047 71.8262-20.2148C71.8262-18.1641 72.8027-15.9668 74.2188-14.502L98.7793 10.791C102.051 14.1602 107.227 14.1602 110.498 10.791ZM39.3555-81.2012L14.8438-55.957C13.3789-54.4922 12.4512-52.2949 12.4512-50.2441C12.4512-45.6543 15.7715-42.334 20.3613-42.334C22.4609-42.334 24.4141-43.0664 25.8789-44.6289L35.6445-54.8828L37.4023-56.8359L37.3047-49.5117L37.3047 5.32227C37.3047 9.91211 40.6738 13.3301 45.2637 13.3301C49.8047 13.3301 53.1738 9.91211 53.1738 5.32227L53.1738-49.5117L53.0762-56.8359L54.834-54.8828L64.5996-44.6289C66.0645-43.0664 68.0176-42.334 70.1172-42.334C74.707-42.334 78.0273-45.6543 78.0273-50.2441C78.0273-52.2949 77.0996-54.4922 75.6348-55.957L51.123-81.2012C47.8516-84.5703 42.627-84.5703 39.3555-81.2012Z"/>
  </g>
  <g id="Bold-M" transform="matrix(1 0 0 1 2266.88 1126)">
   <path d="M107.129 10.2539L131.689-15.0391C132.91-16.2598 133.74-18.1641 133.74-19.873C133.74-23.7793 130.957-26.5137 127.051-26.5137C125.244-26.5137 123.633-25.9277 122.412-24.6094L112.5-14.3066L108.643-9.86328L108.887-18.5547L108.887-76.123C108.887-79.9316 106.006-82.8125 102.148-82.8125C98.291-82.8125 95.4102-79.9316 95.4102-76.123L95.4102-18.5547L95.6543-9.86328L91.8457-14.3066L81.8848-24.6094C80.6641-25.9277 79.0527-26.5137 77.2461-26.5137C73.3398-26.5137 70.5566-23.7793 70.5566-19.873C70.5566-18.1641 71.3867-16.2598 72.6074-15.0391L97.168 10.2539C99.9512 13.1348 104.346 13.1348 107.129 10.2539ZM39.0625-80.6641L14.502-55.4688C13.2324-54.1992 12.4512-52.2949 12.4512-50.5859C12.4512-46.6797 15.2344-43.9453 19.0918-43.9453C20.9473-43.9453 22.5586-44.5312 23.7793-45.8496L33.6914-56.2012L37.5488-60.6445L37.3047-51.9531L37.3047 5.61523C37.3047 9.52148 40.1855 12.4023 44.043 12.4023C47.9004 12.4023 50.7324 9.52148 50.7324 5.61523L50.7324-51.9531L50.5371-60.6445L54.3457-56.2012L64.2578-45.8496C65.5273-44.5312 67.1387-43.9453 68.9453-43.9453C72.8027-43.9453 75.5859-46.6797 75.5859-50.5859C75.5859-52.2949 74.8047-54.1992 73.5352-55.4688L49.0234-80.6641C46.2402-83.5449 41.8457-83.5449 39.0625-80.6641Z"/>
  </g>
  <g id="Semibold-M" transform="matrix(1 0 0 1 1971.44 1126)">
   <path d="M38.8184-80.2734L14.2578-55.127C13.1348-54.0039 12.4512-52.3438 12.4512-50.8301C12.4512-47.4121 14.8438-45.0195 18.2617-45.0195C19.873-45.0195 21.2402-45.5566 22.3145-46.6797L32.3242-57.0801L37.6465-63.2324L37.3535-53.6133L37.3535 5.85938C37.3535 9.27734 39.7949 11.7676 43.2129 11.7676C46.582 11.7676 49.0723 9.27734 49.0723 5.85938L49.0723-53.6133L48.7305-63.2324L54.0527-57.0801L64.0625-46.6797C65.1367-45.5566 66.5039-45.0195 68.1152-45.0195C71.5332-45.0195 73.9258-47.4121 73.9258-50.8301C73.9258-52.3438 73.2422-54.0039 72.1191-55.127L47.5586-80.2734C45.1172-82.8125 41.3086-82.8613 38.8184-80.2734ZM104.785 9.86328L129.395-15.3809C130.469-16.5039 131.201-18.1641 131.201-19.6289C131.201-23.0469 128.76-25.4395 125.391-25.4395C123.779-25.4395 122.363-24.9023 121.289-23.7793L111.279-13.3789L106.006-7.22656L106.299-16.8945L106.299-76.3184C106.299-79.6875 103.809-82.1777 100.439-82.1777C97.0703-82.1777 94.5801-79.6875 94.5801-76.3184L94.5801-16.8945L94.873-7.22656L89.5996-13.3789L79.5898-23.7793C78.5156-24.9023 77.0996-25.4395 75.4883-25.4395C72.1191-25.4395 69.6777-23.0469 69.6777-19.6289C69.6777-18.1641 70.4102-16.5039 71.4844-15.3809L96.0938 9.86328C98.4863 12.4023 102.344 12.4512 104.785 9.86328Z"/>
  </g>
  <g id="Medium-M" transform="matrix(1 0 0 1 1675.71 1126)">
   <path d="M38.6719-80.0293L14.0625-54.834C13.0859-53.8574 12.4512-52.3438 12.4512-51.0254C12.4512-47.9492 14.5996-45.8496 17.627-45.8496C19.0918-45.8496 20.2637-46.3379 21.2402-47.3633L31.2988-57.8125L37.7441-65.2344L37.3535-54.8828L37.3535 6.00586C37.3535 9.08203 39.5508 11.2793 42.5781 11.2793C45.6055 11.2793 47.7539 9.08203 47.7539 6.00586L47.7539-54.8828L47.4121-65.2344L53.8086-57.8125L63.8672-47.3633C64.8438-46.3379 66.0645-45.8496 67.5293-45.8496C70.5078-45.8496 72.6562-47.9492 72.6562-51.0254C72.6562-52.3438 72.0215-53.8574 71.0449-54.834L46.4355-80.0293C44.2871-82.2754 40.8691-82.3242 38.6719-80.0293ZM103.027 9.57031L127.637-15.625C128.613-16.6504 129.248-18.1641 129.248-19.4824C129.248-22.5098 127.1-24.6094 124.072-24.6094C122.607-24.6094 121.436-24.1211 120.459-23.1445L110.4-12.6953L103.955-5.27344L104.346-15.625L104.346-76.5137C104.346-79.4922 102.148-81.7383 99.1211-81.7383C96.1426-81.7383 93.9453-79.4922 93.9453-76.5137L93.9453-15.625L94.2871-5.27344L87.8906-12.6953L77.832-23.1445C76.8555-24.1211 75.6348-24.6094 74.2188-24.6094C71.1914-24.6094 69.043-22.5098 69.043-19.4824C69.043-18.1641 69.6777-16.6504 70.6543-15.625L95.2637 9.57031C97.4121 11.8652 100.83 11.9141 103.027 9.57031Z"/>
  </g>
  <g id="Regular-M" transform="matrix(1 0 0 1 1380.26 1126)">
   <path d="M38.4766-79.6387L13.8184-54.4922C12.9883-53.6133 12.4512-52.3438 12.4512-51.2695C12.4512-48.6816 14.209-46.9238 16.748-46.9238C18.0176-46.9238 18.9941-47.3633 19.8242-48.1934L29.9805-58.6914L37.8418-67.7734L37.3535-56.4941L37.3535 6.25C37.3535 8.83789 39.1602 10.6445 41.748 10.6445C44.2871 10.6445 46.0938 8.83789 46.0938 6.25L46.0938-56.4941L45.6543-67.7734L53.4668-58.6914L63.6719-48.1934C64.502-47.3633 65.4297-46.9238 66.6992-46.9238C69.2383-46.9238 70.9961-48.6816 70.9961-51.2695C70.9961-52.3438 70.5078-53.6133 69.6289-54.4922L45.0195-79.6387C43.2129-81.543 40.332-81.6406 38.4766-79.6387ZM100.732 9.22852L125.342-16.0156C126.221-16.8457 126.709-18.1152 126.709-19.2383C126.709-21.8262 124.951-23.5352 122.412-23.5352C121.143-23.5352 120.215-23.1445 119.385-22.3145L109.229-11.8164L101.367-2.68555L101.807-13.9648L101.807-76.709C101.807-79.248 100-81.1035 97.4609-81.1035C94.873-81.1035 93.0664-79.248 93.0664-76.709L93.0664-13.9648L93.5547-2.68555L85.6934-11.8164L75.5371-22.3145C74.707-23.1445 73.7305-23.5352 72.5098-23.5352C69.9707-23.5352 68.1641-21.8262 68.1641-19.2383C68.1641-18.1152 68.7012-16.8457 69.5801-16.0156L94.1895 9.22852C95.9961 11.1328 98.8281 11.1816 100.732 9.22852Z"/>
  </g>
  <g id="Light-M" transform="matrix(1 0 0 1 1085.46 1126)">
   <path d="M38.3301-78.9062L13.5742-53.8574C12.8418-53.125 12.4512-52.1973 12.4512-51.3184C12.4512-49.3652 13.8184-48.0469 15.7227-48.0469C16.6992-48.0469 17.4316-48.3398 18.1152-49.0234L29.248-60.3516L37.8418-69.8242L37.5-58.9355L37.5 6.15234C37.5 8.05664 38.8672 9.52148 40.8203 9.52148C42.7246 9.52148 44.0918 8.05664 44.0918 6.15234L44.0918-58.9355L43.75-69.8242L52.3926-60.3516L63.4766-49.0234C64.1602-48.3398 64.9414-48.0469 65.8691-48.0469C67.7734-48.0469 69.1406-49.3652 69.1406-51.3184C69.1406-52.1973 68.75-53.125 68.0664-53.8574L43.3105-78.9062C41.9434-80.3223 39.7461-80.4199 38.3301-78.9062ZM97.0215 8.39844L121.777-16.6992C122.461-17.3828 122.9-18.3105 122.9-19.1895C122.9-21.1426 121.533-22.5098 119.629-22.5098C118.652-22.5098 117.92-22.168 117.188-21.4844L106.104-10.1562L97.5098-0.683594L97.8516-11.5723L97.8516-76.6602C97.8516-78.5645 96.4844-79.9805 94.5312-79.9805C92.5781-79.9805 91.2109-78.5645 91.2109-76.6602L91.2109-11.5723L91.5527-0.683594L82.959-10.1562L71.875-21.4844C71.1914-22.168 70.4102-22.5098 69.4336-22.5098C67.5293-22.5098 66.1621-21.1426 66.1621-19.1895C66.1621-18.3105 66.6016-17.3828 67.2852-16.6992L92.041 8.39844C93.4082 9.86328 95.6055 9.91211 97.0215 8.39844Z"/>
  </g>
  <g id="Thin-M" transform="matrix(1 0 0 1 791.286 1126)">
   <path d="M38.1348-77.9297L13.1836-52.9785C12.6953-52.4902 12.4512-52.0508 12.4512-51.3672C12.4512-50.293 13.2812-49.4629 14.3555-49.4629C14.8926-49.4629 15.3809-49.6582 15.918-50.1953L28.2227-62.5977L37.8906-72.5586L37.6953-62.1582L37.6953 6.05469C37.6953 7.08008 38.4277 7.95898 39.5996 7.95898C40.7227 7.95898 41.5039 7.08008 41.5039 6.05469L41.5039-62.1582L41.3086-72.5586L50.9277-62.5977L63.2324-50.1953C63.7695-49.6582 64.2578-49.4629 64.7949-49.4629C65.8691-49.4629 66.6992-50.293 66.6992-51.3672C66.6992-52.0508 66.4551-52.4902 65.9668-52.9785L41.0156-77.9297C40.2344-78.7109 38.9648-78.7598 38.1348-77.9297ZM92.0898 7.37305L117.09-17.5781C117.529-18.0664 117.822-18.5059 117.822-19.1895C117.822-20.2637 116.992-21.0938 115.918-21.0938C115.332-21.0938 114.844-20.8984 114.355-20.3613L102.002-8.00781L92.3828 2.00195L92.5781-8.39844L92.5781-76.6113C92.5781-77.6367 91.7969-78.5156 90.6738-78.5156C89.5508-78.5156 88.7695-77.6367 88.7695-76.6113L88.7695-8.39844L88.9648 2.00195L79.3457-8.00781L67.041-20.3613C66.5039-20.8984 66.0156-21.0938 65.4297-21.0938C64.3555-21.0938 63.5254-20.2637 63.5254-19.1895C63.5254-18.5059 63.8184-18.0664 64.3066-17.5781L89.2578 7.37305C90.0391 8.1543 91.2598 8.20312 92.0898 7.37305Z"/>
  </g>
  <g id="Ultralight-M" transform="matrix(1 0 0 1 495.893 1126)">
   <path d="M38.0371-77.3926L12.9883-52.5391C12.6465-52.1973 12.4512-51.9531 12.4512-51.416C12.4512-50.7324 12.9883-50.1953 13.623-50.1953C14.0137-50.1953 14.3555-50.3418 14.7949-50.7812L27.7344-63.7207L37.8906-73.9746L37.7441-63.8184L37.7441 6.00586C37.7441 6.5918 38.2324 7.17773 38.9648 7.17773C39.6484 7.17773 40.1367 6.5918 40.1367 6.00586L40.1367-63.8184L40.0391-73.9746L50.1465-63.7207L63.1348-50.7812C63.5254-50.3418 63.916-50.1953 64.2578-50.1953C64.8926-50.1953 65.4297-50.7324 65.4297-51.416C65.4297-51.9531 65.2832-52.1973 64.8926-52.5391L39.8438-77.3926C39.3555-77.8809 38.5742-77.9297 38.0371-77.3926ZM89.5996 6.83594L114.648-18.0176C115.039-18.4082 115.186-18.6523 115.186-19.1895C115.186-19.8242 114.648-20.3613 114.014-20.3613C113.672-20.3613 113.281-20.2637 112.842-19.8242L99.9023-6.88477L89.7461 3.36914L89.8926-6.78711L89.8926-76.5625C89.8926-77.1484 89.4043-77.7832 88.7207-77.7832C87.9883-77.7832 87.5-77.1484 87.5-76.5625L87.5-6.78711L87.6465 3.36914L77.4902-6.88477L64.5508-19.8242C64.1113-20.2637 63.7695-20.3613 63.3789-20.3613C62.7441-20.3613 62.207-19.8242 62.207-19.1895C62.207-18.6523 62.4023-18.4082 62.7441-18.0176L87.793 6.83594C88.2812 7.27539 89.0625 7.37305 89.5996 6.83594Z"/>
  </g>
  <g id="Black-S" transform="matrix(1 0 0 1 2873.49 696)">
   <path d="M88.7695 1.17188L107.959-18.6523C109.229-19.9219 110.059-21.875 110.059-23.6816C110.059-27.7344 107.129-30.6641 103.076-30.6641C101.221-30.6641 99.4629-30.0293 98.1934-28.6621L90.625-20.7031L90.625-66.7969C90.625-70.8008 87.5977-73.8281 83.5938-73.8281C79.5898-73.8281 76.5625-70.8008 76.5625-66.7969L76.5625-20.7031L68.9941-28.6621C67.7246-30.0293 65.9668-30.6641 64.1113-30.6641C60.0586-30.6641 57.1289-27.7344 57.1289-23.6816C57.1289-21.875 57.959-19.9219 59.2285-18.6523L78.418 1.17188C81.2988 4.15039 85.8887 4.15039 88.7695 1.17188ZM31.0547-71.582L11.8652-51.8066C10.5957-50.5371 9.76562-48.584 9.76562-46.7773C9.76562-42.7246 12.6953-39.7949 16.748-39.7949C18.6035-39.7949 20.3613-40.4297 21.6309-41.7969L29.1992-49.7559L29.1992-3.66211C29.1992 0.390625 32.2266 3.41797 36.2305 3.41797C40.2344 3.41797 43.2617 0.390625 43.2617-3.66211L43.2617-49.7559L50.8301-41.7969C52.0996-40.4297 53.8574-39.7949 55.7129-39.7949C59.7656-39.7949 62.6953-42.7246 62.6953-46.7773C62.6953-48.584 61.8652-50.5371 60.5957-51.8066L41.4062-71.582C38.5254-74.5605 33.9355-74.5605 31.0547-71.582Z"/>
  </g>
  <g id="Heavy-S" transform="matrix(1 0 0 1 2577.83 696)">
   <path d="M86.8652 0.878906L106.055-18.9453C107.227-20.0684 107.959-21.8262 107.959-23.4375C107.959-27.0996 105.322-29.6875 101.709-29.6875C100-29.6875 98.4863-29.1504 97.3633-27.9297L89.7949-19.9707L88.4277-18.3594L88.5254-24.2188L88.5254-67.041C88.5254-70.6055 85.8398-73.3398 82.2266-73.3398C78.6133-73.3398 75.9277-70.6055 75.9277-67.041L75.9277-24.2188L76.0254-18.3594L74.6582-19.9707L67.0898-27.9297C65.9668-29.1504 64.4043-29.6875 62.7441-29.6875C59.082-29.6875 56.4941-27.0996 56.4941-23.4375C56.4941-21.8262 57.2266-20.0684 58.3496-18.9453L77.5879 0.878906C80.1758 3.56445 84.2773 3.56445 86.8652 0.878906ZM30.8594-71.2891L11.6699-51.5137C10.498-50.3906 9.76562-48.6328 9.76562-47.0215C9.76562-43.3594 12.4023-40.7715 16.0156-40.7715C17.7246-40.7715 19.2383-41.3086 20.3613-42.5293L27.9297-50.4883L29.2969-52.0996L29.1992-46.2402L29.1992-3.41797C29.1992 0.195312 31.8848 2.92969 35.498 2.92969C39.1113 2.92969 41.7969 0.195312 41.7969-3.41797L41.7969-46.2402L41.6992-52.0996L43.0664-50.4883L50.6348-42.5293C51.7578-41.3086 53.3203-40.7715 54.9805-40.7715C58.6426-40.7715 61.2305-43.3594 61.2305-47.0215C61.2305-48.6328 60.498-50.3906 59.375-51.5137L40.1367-71.2891C37.5488-73.9746 33.4473-73.9746 30.8594-71.2891Z"/>
  </g>
  <g id="Bold-S" transform="matrix(1 0 0 1 2282.29 696)">
   <path d="M84.7656 0.585938L103.955-19.2383C104.98-20.2637 105.615-21.8262 105.615-23.1934C105.615-26.3672 103.369-28.6133 100.195-28.6133C98.6816-28.6133 97.3633-28.125 96.3867-27.0996L88.8672-19.1895L85.9375-15.7227L86.1816-22.6562L86.1816-67.2852C86.1816-70.4102 83.8379-72.7539 80.6641-72.7539C77.5391-72.7539 75.1953-70.4102 75.1953-67.2852L75.1953-22.6562L75.3906-15.7227L72.5098-19.1895L64.9902-27.0996C63.9648-28.125 62.6953-28.6133 61.1816-28.6133C58.0078-28.6133 55.7617-26.3672 55.7617-23.1934C55.7617-21.8262 56.3965-20.2637 57.4219-19.2383L76.6113 0.585938C78.8574 2.92969 82.4707 2.92969 84.7656 0.585938ZM30.6152-70.9961L11.4258-51.2207C10.4004-50.1953 9.76562-48.6328 9.76562-47.2656C9.76562-44.0918 12.0117-41.8457 15.1855-41.8457C16.6992-41.8457 18.0176-42.334 18.9941-43.3594L26.5137-51.2695L29.4434-54.7363L29.1992-47.8027L29.1992-3.17383C29.1992 0 31.543 2.34375 34.7168 2.34375C37.8418 2.34375 40.1855 0 40.1855-3.17383L40.1855-47.8027L39.9902-54.7363L42.8711-51.2695L50.3906-43.3594C51.416-42.334 52.6855-41.8457 54.1992-41.8457C57.373-41.8457 59.6191-44.0918 59.6191-47.2656C59.6191-48.6328 58.9844-50.1953 57.959-51.2207L38.7695-70.9961C36.4746-73.3398 32.9102-73.3887 30.6152-70.9961Z"/>
  </g>
  <g id="Semibold-S" transform="matrix(1 0 0 1 1986.38 696)">
   <path d="M30.4688-70.752L11.2793-51.0254C10.3516-50.0977 9.76562-48.6816 9.76562-47.4609C9.76562-44.5801 11.7676-42.5781 14.6484-42.5781C16.0156-42.5781 17.1387-43.0176 18.0176-43.9453L25.5371-51.8066L29.4922-56.543L29.1992-48.877L29.1992-3.02734C29.1992-0.0976562 31.2988 1.95312 34.1309 1.95312C36.9629 1.95312 39.0625-0.0976562 39.0625-3.02734L39.0625-48.877L38.7695-56.543L42.7246-51.8066L50.2441-43.9453C51.123-43.0176 52.2949-42.5781 53.6133-42.5781C56.4941-42.5781 58.4961-44.5801 58.4961-47.4609C58.4961-48.6816 57.9102-50.0977 56.9824-51.0254L37.793-70.752C35.7422-72.9004 32.5195-72.9492 30.4688-70.752ZM83.3008 0.341797L102.49-19.4336C103.418-20.3613 104.004-21.7773 104.004-22.998C104.004-25.8789 101.953-27.8809 99.1211-27.8809C97.7539-27.8809 96.6309-27.4414 95.752-26.5137L88.1836-18.6523L84.2773-13.916L84.5215-21.582L84.5215-67.4805C84.5215-70.3125 82.4707-72.3633 79.6387-72.3633C76.7578-72.3633 74.707-70.3125 74.707-67.4805L74.707-21.582L75-13.916L71.0449-18.6523L63.5254-26.5137C62.6465-27.4414 61.4746-27.8809 60.1074-27.8809C57.2754-27.8809 55.2734-25.8789 55.2734-22.998C55.2734-21.7773 55.8594-20.3613 56.7383-19.4336L75.9766 0.341797C77.9785 2.49023 81.2012 2.53906 83.3008 0.341797Z"/>
  </g>
  <g id="Medium-S" transform="matrix(1 0 0 1 1690.28 696)">
   <path d="M30.3711-70.6055L11.1328-50.8301C10.3027-50 9.76562-48.6816 9.76562-47.6074C9.76562-44.9219 11.6211-43.1152 14.209-43.1152C15.4785-43.1152 16.5039-43.5547 17.2852-44.3848L24.8047-52.2461L29.541-57.959L29.1992-49.6582L29.1992-2.88086C29.1992-0.244141 31.1035 1.66016 33.6914 1.66016C36.3281 1.66016 38.1836-0.244141 38.1836-2.88086L38.1836-49.6582L37.8418-57.959L42.5781-52.2461L50.1465-44.3848C50.9277-43.5547 51.9531-43.1152 53.2227-43.1152C55.8105-43.1152 57.666-44.9219 57.666-47.6074C57.666-48.6816 57.1289-50 56.25-50.8301L37.0605-70.6055C35.2051-72.5586 32.2754-72.6074 30.3711-70.6055ZM82.1777 0.195312L101.367-19.6289C102.246-20.459 102.783-21.7773 102.783-22.9004C102.783-25.5371 100.928-27.3438 98.3398-27.3438C97.0703-27.3438 96.0449-26.9043 95.2148-26.0742L87.6953-18.2129L82.959-12.5L83.3008-20.8008L83.3008-67.5781C83.3008-70.2148 81.4453-72.0703 78.8086-72.0703C76.2207-72.0703 74.3164-70.2148 74.3164-67.5781L74.3164-20.8008L74.6582-12.5L69.9219-18.2129L62.4023-26.0742C61.5723-26.9043 60.5957-27.3438 59.3262-27.3438C56.6895-27.3438 54.8828-25.5371 54.8828-22.9004C54.8828-21.7773 55.4199-20.459 56.25-19.6289L75.4883 0.195312C77.3438 2.14844 80.2734 2.19727 82.1777 0.195312Z"/>
  </g>
  <g id="Regular-S" transform="matrix(1 0 0 1 1394.38 696)">
   <path d="M30.2246-70.4102L10.9863-50.6348C10.2539-49.8535 9.76562-48.7305 9.76562-47.7539C9.76562-45.4102 11.377-43.8477 13.6719-43.8477C14.7949-43.8477 15.625-44.2383 16.3574-44.9707L23.877-52.7832L29.6387-59.7656L29.1992-50.7324L29.1992-2.68555C29.1992-0.341797 30.8594 1.26953 33.1543 1.26953C35.4492 1.26953 37.1094-0.341797 37.1094-2.68555L37.1094-50.7324L36.6699-59.7656L42.4316-52.7832L49.9512-44.9707C50.6836-44.2383 51.5137-43.8477 52.6367-43.8477C54.9316-43.8477 56.543-45.4102 56.543-47.7539C56.543-48.7305 56.0547-49.8535 55.3223-50.6348L36.1328-70.4102C34.4727-72.1191 31.8848-72.168 30.2246-70.4102ZM80.7129-0.0488281L99.9512-19.8242C100.684-20.6055 101.172-21.7773 101.172-22.7051C101.172-25.0488 99.5605-26.6113 97.2656-26.6113C96.1426-26.6113 95.3125-26.2207 94.5801-25.4883L87.0605-17.6758L81.2988-10.7422L81.6895-19.7266L81.6895-67.7734C81.6895-70.0684 80.0781-71.6797 77.7832-71.6797C75.4883-71.6797 73.8281-70.0684 73.8281-67.7734L73.8281-19.7266L74.2676-10.7422L68.457-17.6758L60.9375-25.4883C60.2539-26.2207 59.375-26.6113 58.252-26.6113C55.957-26.6113 54.3945-25.0488 54.3945-22.7051C54.3945-21.7773 54.834-20.6055 55.6152-19.8242L74.8047-0.0488281C76.4648 1.70898 79.0527 1.75781 80.7129-0.0488281Z"/>
  </g>
  <g id="Light-S" transform="matrix(1 0 0 1 1099.37 696)">
   <path d="M30.0781-69.7266L10.7422-50.0488C10.1562-49.4629 9.76562-48.584 9.76562-47.8027C9.76562-46.0449 10.9863-44.8242 12.7441-44.8242C13.5742-44.8242 14.2578-45.1172 14.8438-45.7031L23.1934-54.2969L29.6387-61.5723L29.3457-52.8809L29.3457-2.7832C29.3457-1.02539 30.5664 0.244141 32.3242 0.244141C34.082 0.244141 35.3516-1.02539 35.3516-2.7832L35.3516-52.8809L35.0098-61.5723L41.4551-54.2969L49.8047-45.7031C50.3906-45.1172 51.0742-44.8242 51.9531-44.8242C53.6621-44.8242 54.8828-46.0449 54.8828-47.8027C54.8828-48.584 54.541-49.4629 53.9062-50.0488L34.5703-69.7266C33.3496-71.0449 31.3965-71.0938 30.0781-69.7266ZM77.4414-0.732422L96.7773-20.4102C97.4121-21.0449 97.7539-21.9238 97.7539-22.7051C97.7539-24.4629 96.5332-25.6348 94.7754-25.6348C93.9453-25.6348 93.2617-25.3906 92.6758-24.7559L84.3262-16.2109L77.8809-8.93555L78.1738-17.627L78.1738-67.7246C78.1738-69.4336 76.9531-70.7031 75.1953-70.7031C73.4375-70.7031 72.168-69.4336 72.168-67.7246L72.168-17.627L72.5098-8.93555L66.0645-16.2109L57.7148-24.7559C57.1289-25.3906 56.4453-25.6348 55.5664-25.6348C53.8574-25.6348 52.6367-24.4629 52.6367-22.7051C52.6367-21.9238 52.9785-21.0449 53.6133-20.4102L72.9492-0.732422C74.1699 0.585938 76.123 0.634766 77.4414-0.732422Z"/>
  </g>
  <g id="Thin-S" transform="matrix(1 0 0 1 804.909 696)">
   <path d="M29.9316-68.8477L10.4004-49.3164C10.0098-48.877 9.76562-48.4375 9.76562-47.8516C9.76562-46.8262 10.498-46.0938 11.5234-46.0938C12.0117-46.0938 12.4512-46.2891 12.8906-46.7285L22.3145-56.25L29.6875-63.9648L29.4922-55.7129L29.4922-2.88086C29.4922-1.9043 30.2246-1.07422 31.25-1.07422C32.2754-1.07422 33.0078-1.9043 33.0078-2.88086L33.0078-55.7129L32.8125-63.9648L40.1855-56.25L49.6094-46.7285C50.0488-46.2891 50.4883-46.0938 50.9766-46.0938C52.002-46.0938 52.7344-46.8262 52.7344-47.8516C52.7344-48.4375 52.4902-48.877 52.0996-49.3164L32.5684-68.8477C31.8359-69.6289 30.7129-69.6777 29.9316-68.8477ZM73.0957-1.66016L92.627-21.2402C93.0176-21.6309 93.2617-22.0703 93.2617-22.6562C93.2617-23.6816 92.5293-24.4141 91.5039-24.4141C91.0156-24.4141 90.5762-24.2676 90.1367-23.8281L80.7129-14.3066L73.3398-6.5918L73.5352-14.7949L73.5352-67.6758C73.5352-68.6523 72.8027-69.4336 71.7773-69.4336C70.752-69.4336 70.0195-68.6523 70.0195-67.6758L70.0195-14.7949L70.2148-6.5918L62.8418-14.3066L53.418-23.8281C52.9785-24.2676 52.5391-24.4141 52.0508-24.4141C51.0254-24.4141 50.293-23.6816 50.293-22.6562C50.293-22.0703 50.5371-21.6309 50.9277-21.2402L70.459-1.66016C71.1914-0.927734 72.3145-0.878906 73.0957-1.66016Z"/>
  </g>
  <g id="Ultralight-S" transform="matrix(1 0 0 1 509.345 696)">
   <path d="M29.834-68.4082L10.2539-48.9258C9.91211-48.584 9.76562-48.3398 9.76562-47.9004C9.76562-47.2656 10.2539-46.7773 10.8887-46.7773C11.2305-46.7773 11.5234-46.875 11.9141-47.2656L21.875-57.2266L29.6875-65.1855L29.5898-57.1777L29.5898-2.92969C29.5898-2.34375 30.0293-1.80664 30.7129-1.80664C31.3477-1.80664 31.8359-2.34375 31.8359-2.92969L31.8359-57.1777L31.6895-65.1855L39.502-57.2266L49.5117-47.2656C49.8535-46.875 50.1465-46.7773 50.4883-46.7773C51.123-46.7773 51.6113-47.2656 51.6113-47.9004C51.6113-48.3398 51.4648-48.584 51.123-48.9258L31.543-68.4082C31.1035-68.8477 30.3711-68.8965 29.834-68.4082ZM70.8496-2.14844L90.4785-21.6309C90.8203-21.9727 90.9668-22.2168 90.9668-22.6562C90.9668-23.291 90.4785-23.7793 89.8438-23.7793C89.502-23.7793 89.1602-23.6816 88.8184-23.291L78.8574-13.3301L71.0449-5.37109L71.1426-13.3789L71.1426-67.627C71.1426-68.2129 70.7031-68.75 70.0195-68.75C69.3359-68.75 68.8965-68.2129 68.8965-67.627L68.8965-13.3789L69.043-5.37109L61.2305-13.3301L51.2207-23.291C50.8789-23.6816 50.5371-23.7793 50.2441-23.7793C49.6094-23.7793 49.1211-23.291 49.1211-22.6562C49.1211-22.2168 49.2676-21.9727 49.5605-21.6309L69.1895-2.14844C69.6289-1.66016 70.3613-1.61133 70.8496-2.14844Z"/>
  </g>
 </g>
</svg>
