<?xml version="1.0" encoding="UTF-8"?>
<!--Generator: Apple Native CoreSVG 149-->
<!DOCTYPE svg
PUBLIC "-//W3C//DTD SVG 1.1//EN"
       "http://www.w3.org/Graphics/SVG/1.1/DTD/svg11.dtd">
<svg version="1.1" xmlns="http://www.w3.org/2000/svg" xmlns:xlink="http://www.w3.org/1999/xlink" width="3300" height="2200">
 <!--glyph: "uni100597.medium", point size: 100.000000, font version: "Version 16.0d18e1", template writer version: "8"-->
 <g id="Notes">
  <rect height="2200" id="artboard" style="fill:white;opacity:1" width="3300" x="0" y="0"/>
  <line id="" style="fill:none;stroke:black;opacity:1;stroke-width:0.5;" x1="263" x2="3036" y1="292" y2="292"/>
  <text style="stroke:none;fill:black;font-family:-apple-system,&quot;SF Pro Display&quot;,&quot;SF Pro Text&quot;,Helvetica,sans-serif;font-weight:bold;" transform="matrix(1 0 0 1 263 322)">Weight/Scale Variations</text>
  <text style="stroke:none;fill:black;font-family:-apple-system,&quot;SF Pro Display&quot;,&quot;SF Pro Text&quot;,Helvetica,sans-serif;text-anchor:middle;" transform="matrix(1 0 0 1 559.711 322)">Ultralight</text>
  <text style="stroke:none;fill:black;font-family:-apple-system,&quot;SF Pro Display&quot;,&quot;SF Pro Text&quot;,Helvetica,sans-serif;text-anchor:middle;" transform="matrix(1 0 0 1 856.422 322)">Thin</text>
  <text style="stroke:none;fill:black;font-family:-apple-system,&quot;SF Pro Display&quot;,&quot;SF Pro Text&quot;,Helvetica,sans-serif;text-anchor:middle;" transform="matrix(1 0 0 1 1153.13 322)">Light</text>
  <text style="stroke:none;fill:black;font-family:-apple-system,&quot;SF Pro Display&quot;,&quot;SF Pro Text&quot;,Helvetica,sans-serif;text-anchor:middle;" transform="matrix(1 0 0 1 1449.84 322)">Regular</text>
  <text style="stroke:none;fill:black;font-family:-apple-system,&quot;SF Pro Display&quot;,&quot;SF Pro Text&quot;,Helvetica,sans-serif;text-anchor:middle;" transform="matrix(1 0 0 1 1746.56 322)">Medium</text>
  <text style="stroke:none;fill:black;font-family:-apple-system,&quot;SF Pro Display&quot;,&quot;SF Pro Text&quot;,Helvetica,sans-serif;text-anchor:middle;" transform="matrix(1 0 0 1 2043.27 322)">Semibold</text>
  <text style="stroke:none;fill:black;font-family:-apple-system,&quot;SF Pro Display&quot;,&quot;SF Pro Text&quot;,Helvetica,sans-serif;text-anchor:middle;" transform="matrix(1 0 0 1 2339.98 322)">Bold</text>
  <text style="stroke:none;fill:black;font-family:-apple-system,&quot;SF Pro Display&quot;,&quot;SF Pro Text&quot;,Helvetica,sans-serif;text-anchor:middle;" transform="matrix(1 0 0 1 2636.69 322)">Heavy</text>
  <text style="stroke:none;fill:black;font-family:-apple-system,&quot;SF Pro Display&quot;,&quot;SF Pro Text&quot;,Helvetica,sans-serif;text-anchor:middle;" transform="matrix(1 0 0 1 2933.4 322)">Black</text>
  <line id="" style="fill:none;stroke:black;opacity:1;stroke-width:0.5;" x1="263" x2="3036" y1="1903" y2="1903"/>
  <g id="" transform="matrix(1 0 0 1 263 1933)">
   <path d="M9.24805 0.830078C13.5547 0.830078 17.1387-2.74414 17.1387-7.05078C17.1387-11.3574 13.5449-14.9316 9.23828-14.9316C4.94141-14.9316 1.36719-11.3574 1.36719-7.05078C1.36719-2.74414 4.95117 0.830078 9.24805 0.830078ZM9.24805-0.654297C5.70312-0.654297 2.87109-3.49609 2.87109-7.05078C2.87109-10.6055 5.69336-13.4473 9.23828-13.4473C12.793-13.4473 15.6348-10.6055 15.6445-7.05078C15.6543-3.49609 12.8027-0.654297 9.24805-0.654297ZM6.39648-6.31836L8.50586-6.31836L8.50586-4.19922C8.50586-3.75977 8.79883-3.45703 9.22852-3.45703C9.67773-3.45703 9.9707-3.75977 9.9707-4.19922L9.9707-6.31836L12.0996-6.31836C12.5391-6.31836 12.8418-6.61133 12.8418-7.04102C12.8418-7.48047 12.5391-7.7832 12.0996-7.7832L9.9707-7.7832L9.9707-9.89258C9.9707-10.3418 9.67773-10.6445 9.22852-10.6445C8.79883-10.6445 8.50586-10.3418 8.50586-9.89258L8.50586-7.7832L6.39648-7.7832C5.94727-7.7832 5.64453-7.48047 5.64453-7.04102C5.64453-6.61133 5.94727-6.31836 6.39648-6.31836Z"/>
  </g>
  <g id="" transform="matrix(1 0 0 1 281.506 1933)">
   <path d="M11.709 2.91016C17.1582 2.91016 21.6699-1.61133 21.6699-7.05078C21.6699-12.5 17.1484-17.0117 11.6992-17.0117C6.25977-17.0117 1.74805-12.5 1.74805-7.05078C1.74805-1.61133 6.26953 2.91016 11.709 2.91016ZM11.709 1.25C7.09961 1.25 3.41797-2.44141 3.41797-7.05078C3.41797-11.6602 7.08984-15.3516 11.6992-15.3516C16.3086-15.3516 20-11.6602 20.0098-7.05078C20.0195-2.44141 16.3184 1.25 11.709 1.25ZM7.98828-6.23047L10.8789-6.23047L10.8789-3.32031C10.8789-2.83203 11.2109-2.5 11.6895-2.5C12.1777-2.5 12.5195-2.83203 12.5195-3.32031L12.5195-6.23047L15.4297-6.23047C15.918-6.23047 16.25-6.5625 16.25-7.04102C16.25-7.5293 15.918-7.87109 15.4297-7.87109L12.5195-7.87109L12.5195-10.7617C12.5195-11.2695 12.1777-11.6016 11.6895-11.6016C11.2109-11.6016 10.8789-11.2598 10.8789-10.7617L10.8789-7.87109L7.98828-7.87109C7.48047-7.87109 7.14844-7.5293 7.14844-7.04102C7.14844-6.5625 7.49023-6.23047 7.98828-6.23047Z"/>
  </g>
  <g id="" transform="matrix(1 0 0 1 304.924 1933)">
   <path d="M14.9707 5.66406C21.9336 5.66406 27.6953-0.0976562 27.6953-7.05078C27.6953-14.0137 21.9238-19.7754 14.9609-19.7754C8.00781-19.7754 2.25586-14.0137 2.25586-7.05078C2.25586-0.0976562 8.01758 5.66406 14.9707 5.66406ZM14.9707 3.84766C8.93555 3.84766 4.08203-1.01562 4.08203-7.05078C4.08203-13.0957 8.92578-17.9492 14.9609-17.9492C21.0059-17.9492 25.8594-13.0957 25.8691-7.05078C25.8789-1.01562 21.0156 3.84766 14.9707 3.84766ZM10.0586-6.14258L14.0625-6.14258L14.0625-2.12891C14.0625-1.5918 14.4336-1.2207 14.9512-1.2207C15.4883-1.2207 15.8594-1.5918 15.8594-2.12891L15.8594-6.14258L19.8828-6.14258C20.4102-6.14258 20.791-6.51367 20.791-7.03125C20.791-7.56836 20.4199-7.94922 19.8828-7.94922L15.8594-7.94922L15.8594-11.9531C15.8594-12.5098 15.4883-12.8809 14.9512-12.8809C14.4336-12.8809 14.0625-12.5 14.0625-11.9531L14.0625-7.94922L10.0586-7.94922C9.50195-7.94922 9.13086-7.56836 9.13086-7.03125C9.13086-6.51367 9.51172-6.14258 10.0586-6.14258Z"/>
  </g>
  <text style="stroke:none;fill:black;font-family:-apple-system,&quot;SF Pro Display&quot;,&quot;SF Pro Text&quot;,Helvetica,sans-serif;font-weight:bold;" transform="matrix(1 0 0 1 263 1953)">Design Variations</text>
  <text style="stroke:none;fill:black;font-family:-apple-system,&quot;SF Pro Display&quot;,&quot;SF Pro Text&quot;,Helvetica,sans-serif;" transform="matrix(1 0 0 1 263 1971)">Symbols are supported in up to nine weights and three scales.</text>
  <text style="stroke:none;fill:black;font-family:-apple-system,&quot;SF Pro Display&quot;,&quot;SF Pro Text&quot;,Helvetica,sans-serif;" transform="matrix(1 0 0 1 263 1989)">For optimal layout with text and other symbols, vertically align</text>
  <text style="stroke:none;fill:black;font-family:-apple-system,&quot;SF Pro Display&quot;,&quot;SF Pro Text&quot;,Helvetica,sans-serif;" transform="matrix(1 0 0 1 263 2007)">symbols with the adjacent text.</text>
  <line id="" style="fill:none;stroke:#00AEEF;stroke-width:0.5;opacity:1.0;" x1="776" x2="776" y1="1919" y2="1933"/>
  <g id="" transform="matrix(1 0 0 1 776 1933)">
   <path d="M3.31055 0.126953C3.82812 0.126953 4.08203-0.0683594 4.26758-0.605469L5.52734-4.0625L11.2891-4.0625L12.5488-0.605469C12.7344-0.0683594 12.9883 0.126953 13.4961 0.126953C14.0137 0.126953 14.3457-0.185547 14.3457-0.673828C14.3457-0.839844 14.3164-0.986328 14.2383-1.20117L9.6582-13.3887C9.43359-13.9941 9.0332-14.2871 8.4082-14.2871C7.80273-14.2871 7.39258-13.9941 7.17773-13.3984L2.59766-1.19141C2.51953-0.976562 2.49023-0.830078 2.49023-0.664062C2.49023-0.175781 2.80273 0.126953 3.31055 0.126953ZM6.00586-5.53711L8.37891-12.1094L8.42773-12.1094L10.8008-5.53711Z"/>
  </g>
  <line id="" style="fill:none;stroke:#00AEEF;stroke-width:0.5;opacity:1.0;" x1="792.836" x2="792.836" y1="1919" y2="1933"/>
  <text style="stroke:none;fill:black;font-family:-apple-system,&quot;SF Pro Display&quot;,&quot;SF Pro Text&quot;,Helvetica,sans-serif;font-weight:bold;" transform="matrix(1 0 0 1 776 1953)">Margins</text>
  <text style="stroke:none;fill:black;font-family:-apple-system,&quot;SF Pro Display&quot;,&quot;SF Pro Text&quot;,Helvetica,sans-serif;" transform="matrix(1 0 0 1 776 1971)">Leading and trailing margins on the left and right side of each symbol</text>
  <text style="stroke:none;fill:black;font-family:-apple-system,&quot;SF Pro Display&quot;,&quot;SF Pro Text&quot;,Helvetica,sans-serif;" transform="matrix(1 0 0 1 776 1989)">can be adjusted by modifying the x-location of the margin guidelines.</text>
  <text style="stroke:none;fill:black;font-family:-apple-system,&quot;SF Pro Display&quot;,&quot;SF Pro Text&quot;,Helvetica,sans-serif;" transform="matrix(1 0 0 1 776 2007)">Modifications are automatically applied proportionally to all</text>
  <text style="stroke:none;fill:black;font-family:-apple-system,&quot;SF Pro Display&quot;,&quot;SF Pro Text&quot;,Helvetica,sans-serif;" transform="matrix(1 0 0 1 776 2025)">scales and weights.</text>
  <g id="" transform="matrix(1 0 0 1 1289 1933)">
   <path d="M2.8418 1.86523L4.54102 3.57422C5.40039 4.44336 6.38672 4.38477 7.31445 3.35938L17.4902-7.85156C17.7539-7.76367 18.0273-7.7832 18.3398-7.8418L19.4043-8.03711L20.0684-7.36328L20.0293-6.80664C19.9902-6.30859 20.1172-5.92773 20.6055-5.44922L21.3672-4.70703C21.8457-4.22852 22.4609-4.19922 22.9297-4.66797L25.8398-7.58789C26.3086-8.05664 26.2891-8.65234 25.8105-9.13086L25.0391-9.89258C24.5605-10.3711 24.1895-10.5273 23.7109-10.4883L23.1348-10.4395L22.4902-11.0742L22.7344-12.1973C22.8613-12.7637 22.7051-13.2031 22.1191-13.7891L19.9219-15.9766C16.582-19.2969 12.1484-19.2188 9.25781-16.3281C8.83789-15.918 8.80859-15.3418 9.04297-14.9512C9.27734-14.5898 9.73633-14.3555 10.3809-14.5215C11.8457-14.8633 13.3691-14.9219 14.7949-13.9844L14.209-12.5293C14.0137-12.0508 13.9844-11.6504 14.1113-11.2891L3.04688-0.898438C2.06055 0.0195312 1.98242 0.996094 2.8418 1.86523ZM10.752-15.957C13.1836-17.7344 16.4746-17.4316 18.7012-15.2051L21.1328-12.793C21.3672-12.5586 21.4062-12.373 21.3379-12.0312L21.0156-10.5469L22.5195-9.0625L23.5059-9.12109C23.7598-9.13086 23.8379-9.11133 24.0332-8.91602L24.6094-8.33984L22.168-5.89844L21.5918-6.47461C21.3965-6.66992 21.3672-6.74805 21.377-7.01172L21.4453-7.98828L19.9512-9.47266L18.4277-9.21875C18.1055-9.15039 17.959-9.17969 17.7148-9.41406L15.7129-11.416C15.459-11.6504 15.4297-11.8164 15.5859-12.1875L16.4648-14.2773C14.9023-15.7324 12.8711-16.3574 10.8398-15.7617C10.6836-15.7227 10.625-15.8496 10.752-15.957ZM5.27344 2.30469L4.10156 1.14258C3.63281 0.683594 3.74023 0.341797 4.14062-0.0195312L14.9512-10.1953L16.416-8.71094L6.42578 2.27539C6.07422 2.67578 5.74219 2.77344 5.27344 2.30469Z"/>
  </g>
  <text style="stroke:none;fill:black;font-family:-apple-system,&quot;SF Pro Display&quot;,&quot;SF Pro Text&quot;,Helvetica,sans-serif;font-weight:bold;" transform="matrix(1 0 0 1 1289 1953)">Exporting</text>
  <text style="stroke:none;fill:black;font-family:-apple-system,&quot;SF Pro Display&quot;,&quot;SF Pro Text&quot;,Helvetica,sans-serif;" transform="matrix(1 0 0 1 1289 1971)">Symbols should be outlined when exporting to ensure the</text>
  <text style="stroke:none;fill:black;font-family:-apple-system,&quot;SF Pro Display&quot;,&quot;SF Pro Text&quot;,Helvetica,sans-serif;" transform="matrix(1 0 0 1 1289 1989)">design is preserved when submitting to Xcode.</text>
  <text id="template-version" style="stroke:none;fill:black;font-family:-apple-system,&quot;SF Pro Display&quot;,&quot;SF Pro Text&quot;,Helvetica,sans-serif;text-anchor:end;" transform="matrix(1 0 0 1 3036 1933)">Template v.2.0</text>
  <text style="stroke:none;fill:black;font-family:-apple-system,&quot;SF Pro Display&quot;,&quot;SF Pro Text&quot;,Helvetica,sans-serif;text-anchor:end;" transform="matrix(1 0 0 1 3036 1951)">Requires Xcode 12 or greater</text>
  <text style="stroke:none;fill:black;font-family:-apple-system,&quot;SF Pro Display&quot;,&quot;SF Pro Text&quot;,Helvetica,sans-serif;text-anchor:end;" transform="matrix(1 0 0 1 3036 1969)">Generated from dollarsign.circle</text>
  <text style="stroke:none;fill:black;font-family:-apple-system,&quot;SF Pro Display&quot;,&quot;SF Pro Text&quot;,Helvetica,sans-serif;text-anchor:end;" transform="matrix(1 0 0 1 3036 1987)">Typeset at 100 points</text>
  <text style="stroke:none;fill:black;font-family:-apple-system,&quot;SF Pro Display&quot;,&quot;SF Pro Text&quot;,Helvetica,sans-serif;" transform="matrix(1 0 0 1 263 726)">Small</text>
  <text style="stroke:none;fill:black;font-family:-apple-system,&quot;SF Pro Display&quot;,&quot;SF Pro Text&quot;,Helvetica,sans-serif;" transform="matrix(1 0 0 1 263 1156)">Medium</text>
  <text style="stroke:none;fill:black;font-family:-apple-system,&quot;SF Pro Display&quot;,&quot;SF Pro Text&quot;,Helvetica,sans-serif;" transform="matrix(1 0 0 1 263 1586)">Large</text>
 </g>
 <g id="Guides">
  <g id="H-reference" style="fill:#27AAE1;stroke:none;" transform="matrix(1 0 0 1 339 696)">
   <path d="M0.976562 0L3.66211 0L12.9883-24.4629L45.752-24.4629L55.127 0L57.7637 0L30.6152-70.459L28.125-70.459ZM29.3457-67.1387L29.4434-67.1387L44.873-26.709L13.8672-26.709Z"/>
  </g>
  <line id="Baseline-S" style="fill:none;stroke:#27AAE1;opacity:1;stroke-width:0.5;" x1="263" x2="3036" y1="696" y2="696"/>
  <line id="Capline-S" style="fill:none;stroke:#27AAE1;opacity:1;stroke-width:0.5;" x1="263" x2="3036" y1="625.541" y2="625.541"/>
  <g id="H-reference" style="fill:#27AAE1;stroke:none;" transform="matrix(1 0 0 1 339 1126)">
   <path d="M0.976562 0L3.66211 0L12.9883-24.4629L45.752-24.4629L55.127 0L57.7637 0L30.6152-70.459L28.125-70.459ZM29.3457-67.1387L29.4434-67.1387L44.873-26.709L13.8672-26.709Z"/>
  </g>
  <line id="Baseline-M" style="fill:none;stroke:#27AAE1;opacity:1;stroke-width:0.5;" x1="263" x2="3036" y1="1126" y2="1126"/>
  <line id="Capline-M" style="fill:none;stroke:#27AAE1;opacity:1;stroke-width:0.5;" x1="263" x2="3036" y1="1055.54" y2="1055.54"/>
  <g id="H-reference" style="fill:#27AAE1;stroke:none;" transform="matrix(1 0 0 1 339 1556)">
   <path d="M0.976562 0L3.66211 0L12.9883-24.4629L45.752-24.4629L55.127 0L57.7637 0L30.6152-70.459L28.125-70.459ZM29.3457-67.1387L29.4434-67.1387L44.873-26.709L13.8672-26.709Z"/>
  </g>
  <line id="Baseline-L" style="fill:none;stroke:#27AAE1;opacity:1;stroke-width:0.5;" x1="263" x2="3036" y1="1556" y2="1556"/>
  <line id="Capline-L" style="fill:none;stroke:#27AAE1;opacity:1;stroke-width:0.5;" x1="263" x2="3036" y1="1485.54" y2="1485.54"/>
  <line id="left-margin" style="fill:none;stroke:#00AEEF;stroke-width:0.5;opacity:1.0;" x1="1391.3" x2="1391.3" y1="1030.79" y2="1150.12"/>
  <line id="right-margin" style="fill:none;stroke:#00AEEF;stroke-width:0.5;opacity:1.0;" x1="1508.39" x2="1508.39" y1="1030.79" y2="1150.12"/>
 </g>
 <g id="Symbols">
  <g id="Black-L" transform="matrix(1 0 0 1 2854.05 1556)">
   <path d="M79.3457 32.8613C116.748 32.8613 147.412 2.19727 147.412-35.2051C147.412-72.6074 116.748-103.271 79.2969-103.271C41.8945-103.271 11.2793-72.6074 11.2793-35.2051C11.2793 2.19727 41.9434 32.8613 79.3457 32.8613ZM79.3457 12.4023C52.9785 12.4023 31.7383-8.83789 31.7383-35.2051C31.7383-61.5723 52.9297-82.8125 79.2969-82.8125C105.664-82.8125 126.953-61.5723 126.953-35.2051C127.002-8.83789 105.713 12.4023 79.3457 12.4023ZM79.2969-1.5625C80.8105-1.5625 81.9336-2.63672 81.9336-4.29688L81.9336-7.91016C93.5059-8.83789 101.318-15.1367 101.318-25C101.318-33.7402 95.8984-38.5254 84.8633-40.7227L81.9336-41.3086L81.9336-51.123C84.2773-50.5859 85.9375-49.2676 87.0117-47.168C88.6719-44.4824 90.6738-43.2129 93.6035-43.2129C97.4609-43.2129 99.8535-45.3613 99.8535-48.6328C99.8535-49.5605 99.6582-50.5859 99.3652-51.4648C97.5586-57.0801 91.4551-61.7188 81.9336-62.5L81.9336-66.3574C81.9336-68.0176 80.8105-69.0918 79.2969-69.0918C77.7832-69.0918 76.6602-68.0176 76.6602-66.3574L76.6602-62.5C65.5273-61.7676 57.7148-55.4688 57.7148-45.8496C57.7148-37.0605 63.3789-32.2266 73.877-29.9805L76.6602-29.3457L76.6602-19.1895C73.4863-19.6777 71.6797-21.1426 70.8008-23.1934C69.3848-25.8301 67.3828-27.3926 64.4043-27.3926C60.2051-27.3926 57.8613-24.9023 57.8613-21.3867C57.8613-20.459 58.0078-19.4824 58.4473-18.4082C60.3027-13.4277 66.1621-8.49609 76.6602-7.86133L76.6602-4.29688C76.6602-2.63672 77.7832-1.5625 79.2969-1.5625ZM76.6602-42.5781L76.2695-42.6758C73.0957-43.457 71.582-44.8242 71.582-47.0215C71.582-49.2676 73.4863-50.9277 76.6602-51.2695ZM81.9336-28.1738L82.5684-28.0273C86.1328-27.1973 87.5-25.9277 87.5-23.6328C87.5-21.1426 85.5469-19.6289 81.9336-19.1895Z"/>
  </g>
  <g id="Heavy-L" transform="matrix(1 0 0 1 2558.39 1556)">
   <path d="M78.2715 31.7871C115.088 31.7871 145.312 1.5625 145.312-35.2051C145.312-72.0215 115.039-102.246 78.2715-102.246C41.4551-102.246 11.2793-72.0215 11.2793-35.2051C11.2793 1.5625 41.5039 31.7871 78.2715 31.7871ZM78.2715 14.0137C51.0254 14.0137 29.0527-7.95898 29.0527-35.2051C29.0527-62.5 50.9766-84.4727 78.2715-84.4727C105.518-84.4727 127.49-62.5 127.539-35.2051C127.539-7.95898 105.566 14.0137 78.2715 14.0137ZM78.2227-1.12305C79.7852-1.12305 80.8594-2.19727 80.8594-3.80859L80.8594-7.66602C92.0898-8.59375 99.8047-14.7461 99.8047-24.4629C99.8047-33.1055 94.3848-37.8906 83.3984-40.0391L80.8594-40.5762L80.8594-52.4414C83.8867-51.8555 85.9863-50.0977 87.0605-47.4609C88.4766-45.0195 90.2832-43.75 92.9199-43.75C96.2891-43.75 98.4863-45.752 98.4863-48.6816C98.4863-49.5605 98.2422-50.4883 97.998-51.3184C96.2402-57.1777 90.0879-61.8164 80.8594-62.6465L80.8594-66.6016C80.8594-68.2129 79.7852-69.2871 78.2227-69.2871C76.709-69.2871 75.6348-68.2129 75.6348-66.6016L75.6348-62.6465C64.8926-61.8652 57.2754-55.6152 57.2754-46.2891C57.2754-37.793 62.8418-32.959 73.3398-30.6641L75.6348-30.1758L75.6348-17.7734C71.7285-18.3105 69.4336-20.2637 68.5547-22.9492C67.334-25.3906 65.5273-26.8066 62.8418-26.8066C59.1797-26.8066 57.0801-24.6094 57.0801-21.4355C57.0801-20.6055 57.2266-19.6777 57.6172-18.7012C59.4238-13.2324 65.5273-8.30078 75.6348-7.66602L75.6348-3.80859C75.6348-2.19727 76.709-1.12305 78.2227-1.12305ZM75.6348-41.8457L75.1953-41.9434C71.3379-42.9688 69.4336-44.6289 69.4336-47.2656C69.4336-50 71.8262-52.0996 75.6348-52.5391ZM80.8594-28.9551L81.6895-28.7598C85.9863-27.6855 87.6465-26.123 87.6465-23.291C87.6465-20.2637 85.3027-18.2617 80.8594-17.7734Z"/>
  </g>
  <g id="Bold-L" transform="matrix(1 0 0 1 2262.88 1556)">
   <path d="M77.0996 30.5664C113.232 30.5664 142.92 0.878906 142.92-35.2539C142.92-71.3379 113.184-101.074 77.0508-101.074C40.9668-101.074 11.2793-71.3379 11.2793-35.2539C11.2793 0.878906 41.0156 30.5664 77.0996 30.5664ZM77.0996 15.8203C48.8281 15.8203 26.0742-6.98242 26.0742-35.2539C26.0742-63.5254 48.7793-86.2793 77.0508-86.2793C105.371-86.2793 128.125-63.5254 128.174-35.2539C128.174-6.98242 105.371 15.8203 77.0996 15.8203ZM77.0508-0.585938C78.5645-0.585938 79.7363-1.66016 79.7363-3.27148L79.7363-7.37305C90.4785-8.25195 98.0957-14.3066 98.0957-23.8281C98.0957-32.3242 92.6758-37.207 81.7383-39.3066L79.7363-39.7461L79.7363-53.8574C83.4473-53.2715 86.0352-51.0742 87.1582-47.8027C88.2812-45.6055 89.7949-44.4336 92.1387-44.4336C95.0195-44.4336 96.875-46.1914 96.875-48.7793C96.875-49.5605 96.7285-50.3418 96.5332-51.123C94.8242-57.2754 88.5742-61.9629 79.7363-62.793L79.7363-66.8457C79.7363-68.5059 78.5645-69.5801 77.0508-69.5801C75.5371-69.5801 74.4141-68.5059 74.4141-66.8457L74.4141-62.793C64.1602-61.9141 56.7871-55.8105 56.7871-46.8262C56.7871-38.5742 62.2559-33.7891 72.7051-31.4453L74.4141-31.1035L74.4141-16.1621C69.7754-16.7969 66.9434-19.2383 66.0156-22.6074C65.0391-24.9023 63.4766-26.123 61.1328-26.123C58.0566-26.123 56.25-24.2188 56.25-21.4844C56.25-20.7031 56.3965-19.9219 56.6895-19.043C58.4473-12.9395 64.8438-8.10547 74.4141-7.37305L74.4141-3.27148C74.4141-1.61133 75.5371-0.585938 77.0508-0.585938ZM74.4141-41.0645L73.9746-41.1621C69.3359-42.4316 67.0898-44.4336 67.0898-47.5586C67.0898-50.8301 69.9707-53.3691 74.4141-53.9551ZM79.7363-29.7852L80.7129-29.5898C85.8398-28.2715 87.793-26.2695 87.793-22.9492C87.793-19.2871 84.9609-16.6992 79.7363-16.1621Z"/>
  </g>
  <g id="Semibold-L" transform="matrix(1 0 0 1 1966.97 1556)">
   <path d="M76.2695 29.7363C111.914 29.7363 141.309 0.390625 141.309-35.2539C141.309-70.8984 111.865-100.244 76.2695-100.244C40.625-100.244 11.2793-70.8984 11.2793-35.2539C11.2793 0.390625 40.6738 29.7363 76.2695 29.7363ZM76.2695 17.041C47.3145 17.041 24.0234-6.25 24.0234-35.2539C24.0234-64.209 47.2656-87.5488 76.2695-87.5488C105.225-87.5488 128.564-64.209 128.613-35.2539C128.662-6.25 105.273 17.041 76.2695 17.041ZM76.2207-0.195312C77.7832-0.195312 78.9062-1.26953 78.9062-2.88086L78.9062-7.17773C89.3555-8.05664 96.9238-14.0137 96.9238-23.3887C96.9238-31.7871 91.5039-36.7188 80.6152-38.8184L78.9062-39.1602L78.9062-54.8828C83.1055-54.1992 86.084-51.7578 87.207-48.0469C88.1348-45.9961 89.4531-44.873 91.6016-44.873C94.1406-44.873 95.8008-46.4844 95.8008-48.8281C95.8008-49.5605 95.6543-50.293 95.5078-50.9766C93.8477-57.373 87.5-62.0605 78.9062-62.8418L78.9062-67.041C78.9062-68.6523 77.7832-69.7266 76.2207-69.7266C74.707-69.7266 73.584-68.7012 73.584-67.041L73.584-62.8418C63.623-61.9629 56.4453-55.9082 56.4453-47.168C56.4453-39.1113 61.8652-34.375 72.3145-31.9824L73.584-31.6895L73.584-15.0879C68.4082-15.7227 65.1855-18.5547 64.2578-22.4121C63.4277-24.5605 62.0117-25.6836 59.9121-25.6836C57.3242-25.6836 55.6641-23.9746 55.6641-21.4844C55.6641-20.8008 55.8105-20.0684 56.0059-19.2871C57.8125-12.793 64.3555-7.95898 73.584-7.22656L73.584-2.88086C73.584-1.26953 74.707-0.195312 76.2207-0.195312ZM73.584-40.5273L73.1934-40.625C67.9688-42.041 65.4785-44.2871 65.4785-47.7539C65.4785-51.416 68.6523-54.248 73.584-54.9316ZM78.9062-30.4199L80.0781-30.127C85.7422-28.6621 87.8906-26.416 87.8906-22.7051C87.8906-18.6035 84.7656-15.6738 78.9062-15.0879Z"/>
  </g>
  <g id="Medium-L" transform="matrix(1 0 0 1 1670.87 1556)">
   <path d="M75.6836 29.1504C110.938 29.1504 140.088 0 140.088-35.2539C140.088-70.5078 110.889-99.6582 75.6348-99.6582C40.3809-99.6582 11.2793-70.5078 11.2793-35.2539C11.2793 0 40.3809 29.1504 75.6836 29.1504ZM75.6836 18.0176C46.1426 18.0176 22.4609-5.76172 22.4609-35.2539C22.4609-64.7461 46.1426-88.5254 75.6348-88.5254C105.127-88.5254 128.906-64.7461 128.906-35.2539C128.955-5.76172 105.176 18.0176 75.6836 18.0176ZM75.6348 0.0976562C77.1484 0.0976562 78.3203-1.02539 78.3203-2.58789L78.3203-7.03125C88.5254-7.91016 96.0449-13.7695 96.0449-23.0469C96.0449-31.3965 90.625-36.377 79.7852-38.4277L78.3203-38.7695L78.3203-55.6641C82.8613-54.9316 86.1328-52.2461 87.2559-48.1934C88.0371-46.2891 89.209-45.2148 91.2109-45.2148C93.457-45.2148 95.0195-46.6797 95.0195-48.877C95.0195-49.5605 94.873-50.1953 94.6777-50.8789C93.0664-57.4219 86.7188-62.1094 78.3203-62.9395L78.3203-67.1875C78.3203-68.7988 77.1484-69.873 75.6348-69.873C74.0723-69.873 72.9492-68.7988 72.9492-67.1875L72.9492-62.9395C63.2324-62.0117 56.2012-56.0059 56.2012-47.4609C56.2012-39.5508 61.5723-34.8145 71.9727-32.4219L72.9492-32.1777L72.9492-14.2578C67.3828-14.9414 63.8672-18.0176 62.9395-22.2656C62.207-24.2676 60.9375-25.3418 59.0332-25.3418C56.7383-25.3418 55.2246-23.7793 55.2246-21.5332C55.2246-20.8496 55.3223-20.2148 55.5176-19.4824C57.2754-12.6465 64.0137-7.86133 72.9492-7.08008L72.9492-2.58789C72.9492-0.976562 74.1211 0.0976562 75.6348 0.0976562ZM72.9492-40.0879L72.5586-40.2344C66.8945-41.7969 64.2578-44.1406 64.2578-47.9004C64.2578-51.8066 67.6758-54.9316 72.9492-55.6641ZM78.3203-30.8594L79.541-30.5664C85.6445-28.9551 87.9883-26.5137 87.9883-22.5098C87.9883-18.1152 84.5703-14.8438 78.3203-14.2578Z"/>
  </g>
  <g id="Regular-L" transform="matrix(1 0 0 1 1374.97 1556)">
   <path d="M74.8535 28.3203C109.668 28.3203 138.477-0.488281 138.477-35.2539C138.477-70.0684 109.619-98.877 74.8047-98.877C40.0391-98.877 11.2793-70.0684 11.2793-35.2539C11.2793-0.488281 40.0879 28.3203 74.8535 28.3203ZM74.8535 19.2383C44.6777 19.2383 20.4102-5.07812 20.4102-35.2539C20.4102-65.4785 44.6289-89.7461 74.8047-89.7461C105.029-89.7461 129.297-65.4785 129.346-35.2539C129.395-5.07812 105.078 19.2383 74.8535 19.2383ZM74.8047 0.439453C76.3672 0.439453 77.4902-0.634766 77.4902-2.19727L77.4902-6.83594C87.4023-7.71484 94.873-13.4766 94.873-22.6074C94.873-30.9082 89.4531-35.8887 78.6621-37.9395L77.4902-38.1836L77.4902-56.6406C82.5684-55.9082 86.1816-52.9297 87.3047-48.4375C87.8418-46.7285 88.916-45.6543 90.6738-45.6543C92.5781-45.6543 93.9453-46.9727 93.9453-48.9258C93.9453-49.5605 93.7988-50.1465 93.6523-50.7812C92.0898-57.4707 85.6445-62.207 77.4902-63.0371L77.4902-67.3828C77.4902-68.9453 76.3672-70.0684 74.8047-70.0684C73.2422-70.0684 72.168-68.9941 72.168-67.3828L72.168-63.0371C62.7441-62.0605 55.8594-56.1523 55.8594-47.8027C55.8594-40.0879 61.1816-35.3516 71.582-32.959L72.168-32.8125L72.168-13.1836C66.0156-13.916 62.1582-17.334 61.2305-22.0215C60.6445-23.9258 59.5215-24.8535 57.8613-24.8535C55.957-24.8535 54.6387-23.5352 54.6387-21.582C54.6387-20.9473 54.7852-20.3613 54.8828-19.7266C56.5918-12.4512 63.5254-7.71484 72.168-6.93359L72.168-2.19727C72.168-0.585938 73.291 0.439453 74.8047 0.439453ZM72.168-39.5508L71.7285-39.6973C65.5762-41.4062 62.6465-43.9941 62.6465-48.0957C62.6465-52.3926 66.4062-55.8105 72.168-56.6406ZM77.4902-31.4453L78.8574-31.1035C85.5469-29.3457 88.0859-26.6113 88.0859-22.2656C88.0859-17.4316 84.375-13.8184 77.4902-13.1836Z"/>
  </g>
  <g id="Light-L" transform="matrix(1 0 0 1 1079.18 1556)">
   <path d="M73.9258 27.3926C108.301 27.3926 136.621-0.927734 136.621-35.2539C136.621-69.6289 108.252-97.9492 73.9258-97.9492C39.5508-97.9492 11.2793-69.6289 11.2793-35.2539C11.2793-0.927734 39.5996 27.3926 73.9258 27.3926ZM73.9258 20.5078C43.1152 20.5078 18.2129-4.44336 18.2129-35.2539C18.2129-66.1133 43.0664-91.0156 73.9258-91.0156C104.736-91.0156 129.688-66.1133 129.736-35.2539C129.736-4.44336 104.785 20.5078 73.9258 20.5078ZM73.9258 0C75.1953 0 76.1719-0.878906 76.1719-2.19727L76.1719-7.08008C86.3281-7.86133 93.5547-13.7207 93.5547-22.4121C93.5547-30.3223 88.3789-35.0586 77.7344-37.2559L76.1719-37.5977L76.1719-57.2266C81.9824-56.5918 86.2305-53.2227 87.207-48.3887C87.6465-46.9238 88.4766-46.0449 89.9414-46.0449C91.5039-46.0449 92.5781-47.1191 92.5781-48.7305C92.5781-49.3164 92.4805-49.8535 92.334-50.3906C90.8691-56.9824 84.4727-61.7676 76.1719-62.4512L76.1719-66.8457C76.1719-68.1641 75.1953-69.0918 73.9258-69.0918C72.5586-69.0918 71.6797-68.2129 71.6797-66.8457L71.6797-62.4512C62.4512-61.6211 55.4688-55.8105 55.4688-47.7539C55.4688-40.4297 60.5957-35.791 70.8984-33.3984L71.6797-33.252L71.6797-12.2559C64.8926-12.9395 60.3516-16.748 59.5215-22.1191C59.1309-23.6816 58.2031-24.5117 56.7871-24.5117C55.2734-24.5117 54.1992-23.4375 54.1992-21.7773C54.1992-21.1914 54.2969-20.6543 54.4434-20.1172C56.0059-12.793 62.8418-7.86133 71.6797-7.17773L71.6797-2.19727C71.6797-0.830078 72.6074 0 73.9258 0ZM71.6797-38.7207L71.2891-38.8184C64.3555-40.625 60.8887-43.3594 60.8887-47.9492C60.8887-52.832 65.3809-56.543 71.6797-57.2266ZM76.1719-32.1289L77.5391-31.7871C85.0586-29.9316 88.1348-27.0508 88.1348-22.2168C88.1348-16.8457 83.6426-12.793 76.1719-12.2559Z"/>
  </g>
  <g id="Thin-L" transform="matrix(1 0 0 1 783.693 1556)">
   <path d="M72.7051 26.1719C106.494 26.1719 134.18-1.51367 134.18-35.2539C134.18-69.043 106.494-96.7285 72.7051-96.7285C38.9648-96.7285 11.2793-69.043 11.2793-35.2539C11.2793-1.51367 38.9648 26.1719 72.7051 26.1719ZM72.7051 22.168C41.0156 22.168 15.2832-3.56445 15.2832-35.2539C15.2832-66.9922 41.0156-92.7246 72.7051-92.7246C104.395-92.7246 130.176-66.9922 130.176-35.2539C130.176-3.56445 104.443 22.168 72.7051 22.168ZM72.7051-0.537109C73.6816-0.537109 74.4629-1.2207 74.4629-2.19727L74.4629-7.42188C84.8145-8.05664 91.7969-14.1113 91.7969-22.168C91.7969-29.541 86.9141-33.9355 76.4648-36.3281L74.4629-36.7676L74.4629-58.0566C81.25-57.5195 86.2793-53.6621 87.1094-48.3887C87.3535-47.168 87.8906-46.5332 88.9648-46.5332C90.0391-46.5332 90.7715-47.2656 90.7715-48.4375C90.7715-48.9746 90.6738-49.4629 90.625-49.9512C89.3066-56.2988 82.8613-61.1816 74.4629-61.6699L74.4629-66.1133C74.4629-67.0898 73.6816-67.7734 72.7051-67.7734C71.6309-67.7734 70.9961-67.1387 70.9961-66.1133L70.9961-61.6699C62.0117-61.084 54.9316-55.3223 54.9316-47.6562C54.9316-40.8691 59.8633-36.377 69.9707-34.0332L70.9961-33.8379L70.9961-11.0352C63.4277-11.6699 57.9102-16.0156 57.2266-22.2168C57.0801-23.3887 56.4941-24.0723 55.3711-24.0723C54.3457-24.0723 53.6133-23.3398 53.6133-22.0703C53.6133-21.582 53.7109-21.0938 53.8086-20.6055C55.2246-13.2812 61.8652-8.05664 70.9961-7.51953L70.9961-2.19727C70.9961-1.17188 71.7285-0.537109 72.7051-0.537109ZM70.9961-37.5977L70.7031-37.6465C62.7441-39.5508 58.5938-42.4805 58.5938-47.7051C58.5938-53.3691 64.0625-57.5195 70.9961-58.0566ZM74.4629-33.0078L75.8301-32.7148C84.375-30.7129 88.1836-27.5879 88.1836-22.1191C88.1836-16.0156 82.666-11.4746 74.4629-11.0352Z"/>
  </g>
  <g id="Ultralight-L" transform="matrix(1 0 0 1 487.616 1556)">
   <path d="M72.1191 25.5371C105.566 25.5371 132.91-1.80664 132.91-35.2539C132.91-68.75 105.566-96.0938 72.1191-96.0938C38.623-96.0938 11.2793-68.75 11.2793-35.2539C11.2793-1.80664 38.623 25.5371 72.1191 25.5371ZM72.1191 23.0469C39.9414 23.0469 13.7695-3.125 13.7695-35.2539C13.7695-67.4316 39.9414-93.6035 72.1191-93.6035C104.248-93.6035 130.42-67.4316 130.42-35.2539C130.42-3.125 104.248 23.0469 72.1191 23.0469ZM72.0703-0.830078C72.9004-0.830078 73.5352-1.41602 73.5352-2.19727L73.5352-7.61719C84.082-8.1543 90.918-14.3066 90.918-22.0215C90.918-29.1016 86.1816-33.3984 75.8301-35.8398L73.5352-36.377L73.5352-58.4473C80.8594-58.0078 86.3281-53.8574 87.0605-48.3887C87.1582-47.3145 87.5977-46.8262 88.4766-46.8262C89.3066-46.8262 89.8438-47.3633 89.8438-48.291C89.8438-48.7793 89.7949-49.2676 89.6973-49.707C88.4766-55.9082 82.0312-60.8398 73.5352-61.2793L73.5352-65.7227C73.5352-66.5527 72.9004-67.1387 72.0703-67.1387C71.1914-67.1387 70.7031-66.6016 70.7031-65.7227L70.7031-61.2793C61.8164-60.791 54.6387-55.0781 54.6387-47.6562C54.6387-41.0645 59.4727-36.7188 69.4824-34.375L70.7031-34.1309L70.7031-10.4492C62.6953-10.9863 56.6406-15.625 56.0547-22.2656C56.0059-23.1934 55.6152-23.8281 54.6387-23.8281C53.9062-23.8281 53.3203-23.2422 53.3203-22.2168C53.3203-21.7773 53.418-21.2891 53.4668-20.8496C54.834-13.5254 61.377-8.1543 70.7031-7.66602L70.7031-2.19727C70.7031-1.31836 71.2891-0.830078 72.0703-0.830078ZM70.7031-37.0117L70.3613-37.0605C61.9141-39.0137 57.4219-42.041 57.4219-47.6074C57.4219-53.6621 63.3789-58.0078 70.7031-58.4473ZM73.5352-33.4961L74.9023-33.1543C84.0332-31.1035 88.2324-27.832 88.2324-22.0703C88.2324-15.625 82.1777-10.8398 73.5352-10.4492Z"/>
  </g>
  <g id="Black-M" transform="matrix(1 0 0 1 2870.97 1126)">
   <path d="M62.4023 18.457C91.9922 18.457 116.113-5.61523 116.113-35.2051C116.113-64.7949 91.9922-88.8672 62.4023-88.8672C32.8125-88.8672 8.74023-64.7949 8.74023-35.2051C8.74023-5.61523 32.8125 18.457 62.4023 18.457ZM62.4023 0.195312C42.8711 0.195312 27.002-15.625 27.002-35.2051C27.002-54.7363 42.8711-70.6055 62.4023-70.6055C81.9824-70.6055 97.8027-54.7363 97.8027-35.2051C97.8027-15.625 81.9824 0.195312 62.4023 0.195312ZM62.4023-10.0098C63.4277-10.0098 64.1602-10.791 64.1602-11.9629L64.1602-14.5508C73.8281-15.2344 79.8828-20.3613 79.8828-27.9785C79.8828-34.668 75.7812-38.1836 67.2363-39.9902L64.1602-40.625L64.1602-46.0938C65.5762-45.8008 66.5527-45.0684 67.2852-44.0918C68.8965-41.7969 70.6543-40.8203 73.0957-40.8203C76.4648-40.8203 78.5645-42.627 78.5645-45.4102C78.5645-46.2402 78.3691-47.1191 78.125-47.8516C76.6602-51.7578 72.0703-55.3711 64.1602-55.9082L64.1602-58.6914C64.1602-59.8633 63.4277-60.6445 62.4023-60.6445C61.3281-60.6445 60.5957-59.8633 60.5957-58.6914L60.5957-55.9082C51.5137-55.4688 45.0684-50.4883 45.0684-42.8223C45.0684-35.8887 49.5117-32.1289 57.6172-30.4688L60.5957-29.834L60.5957-24.2188C58.7402-24.4629 57.6172-25.2441 57.0312-26.3184C55.7617-28.4668 54.0527-29.7852 51.416-29.7852C47.6074-29.7852 45.6055-27.6367 45.6055-24.5605C45.6055-23.7793 45.752-22.9004 46.1914-21.9727C47.6074-18.8477 51.709-14.8438 60.5957-14.502L60.5957-11.9629C60.5957-10.791 61.3281-10.0098 62.4023-10.0098ZM60.5957-41.4062L60.3027-41.4551C58.3984-41.8457 57.373-42.627 57.373-43.9453C57.373-45.3613 58.6426-46.2402 60.5957-46.2891ZM64.1602-29.1016L64.502-29.0527C66.6992-28.6133 67.6758-28.0273 67.6758-26.6113C67.6758-25.1953 66.3086-24.4629 64.1602-24.2188Z"/>
  </g>
  <g id="Heavy-M" transform="matrix(1 0 0 1 2575.19 1126)">
   <path d="M61.5234 17.5293C90.5273 17.5293 114.258-6.20117 114.258-35.2051C114.258-64.2578 90.5273-87.9883 61.4746-87.9883C32.4707-87.9883 8.74023-64.2578 8.74023-35.2051C8.74023-6.20117 32.4707 17.5293 61.5234 17.5293ZM61.5234 1.61133C41.1133 1.61133 24.6582-14.8438 24.6582-35.2051C24.6582-55.6152 41.1133-72.0703 61.4746-72.0703C81.8848-72.0703 98.3398-55.6152 98.3398-35.2051C98.3398-14.8438 81.8848 1.61133 61.5234 1.61133ZM61.4746-9.375C62.5977-9.375 63.3789-10.2051 63.3789-11.4258L63.3789-14.209C72.5586-14.8926 78.5645-19.873 78.5645-27.3926C78.5645-34.082 74.4141-37.6953 65.8691-39.4531L63.3789-39.9414L63.3789-47.3633C65.2832-47.0215 66.6016-45.9473 67.3828-44.3848C68.7012-42.334 70.2637-41.3574 72.5098-41.3574C75.5371-41.3574 77.3926-43.0176 77.3926-45.5566C77.3926-46.2891 77.1973-47.0703 77.002-47.7539C75.5859-52.002 70.8984-55.6152 63.3789-56.2012L63.3789-59.1309C63.3789-60.3516 62.5977-61.1328 61.4746-61.1328C60.3516-61.1328 59.5703-60.3516 59.5703-59.1309L59.5703-56.2012C50.8789-55.6641 44.7266-50.7812 44.7266-43.3105C44.7266-36.5723 49.0723-32.8613 57.1777-31.1035L59.5703-30.6152L59.5703-22.9004C57.0801-23.2422 55.6641-24.4141 54.9805-25.9766C53.9062-28.0273 52.3438-29.1992 50-29.1992C46.7285-29.1992 44.9219-27.2949 44.9219-24.5605C44.9219-23.8281 45.0195-23.0469 45.4102-22.2168C46.8262-18.5059 51.2207-14.5996 59.5703-14.1602L59.5703-11.4258C59.5703-10.1562 60.3516-9.375 61.4746-9.375ZM59.5703-40.8691L59.2285-40.918C56.7871-41.5039 55.5176-42.5781 55.5176-44.2871C55.5176-46.0449 57.0801-47.3145 59.5703-47.5098ZM63.3789-29.7363L63.8672-29.6387C66.6504-29.0039 67.8223-28.125 67.8223-26.3184C67.8223-24.3652 66.2109-23.2422 63.3789-22.9004Z"/>
  </g>
  <g id="Bold-M" transform="matrix(1 0 0 1 2279.5 1126)">
   <path d="M60.498 16.5039C88.8672 16.5039 112.207-6.83594 112.207-35.2051C112.207-63.623 88.8672-86.9629 60.4492-86.9629C32.0312-86.9629 8.74023-63.623 8.74023-35.2051C8.74023-6.83594 32.0801 16.5039 60.498 16.5039ZM60.498 3.22266C39.1602 3.22266 22.0703-13.916 22.0703-35.2051C22.0703-56.543 39.1602-73.6816 60.4492-73.6816C81.7383-73.6816 98.9258-56.543 98.9258-35.2051C98.9746-13.916 81.7871 3.22266 60.498 3.22266ZM60.4492-8.69141C61.6211-8.69141 62.5-9.52148 62.5-10.791L62.5-13.8184C71.0938-14.502 77.0996-19.2871 77.0996-26.7578C77.0996-33.4473 72.8516-37.207 64.3555-38.8672L62.5-39.2578L62.5-48.7793C64.9414-48.3398 66.6504-46.9238 67.4805-44.7754C68.5547-42.9199 69.873-41.9434 71.875-41.9434C74.4141-41.9434 76.0742-43.457 76.0742-45.7031C76.0742-46.3379 75.9277-47.0215 75.7324-47.6562C74.3652-52.2461 69.5801-55.8594 62.5-56.4941L62.5-59.5703C62.5-60.8398 61.6211-61.7188 60.4492-61.7188C59.2773-61.7188 58.3984-60.8887 58.3984-59.5703L58.3984-56.4941C50.1465-55.8594 44.2871-51.0742 44.2871-43.8965C44.2871-37.3535 48.6328-33.5938 56.7383-31.8359L58.3984-31.4453L58.3984-21.4355C55.2734-21.875 53.418-23.4863 52.7344-25.6348C51.8066-27.5391 50.4395-28.5645 48.4375-28.5645C45.7031-28.5645 44.0918-26.9043 44.0918-24.5117C44.0918-23.877 44.2383-23.2422 44.4824-22.5098C45.8984-18.1152 50.6836-14.3066 58.3984-13.8184L58.3984-10.791C58.3984-9.52148 59.2773-8.69141 60.4492-8.69141ZM58.3984-40.2344L58.0566-40.332C54.9316-41.1621 53.4668-42.4805 53.4668-44.6289C53.4668-46.8262 55.3711-48.4863 58.3984-48.877ZM62.5-30.5176L63.1836-30.3223C66.6504-29.4922 67.9688-28.1738 67.9688-25.9277C67.9688-23.4863 66.0645-21.8262 62.5-21.4355Z"/>
  </g>
  <g id="Semibold-M" transform="matrix(1 0 0 1 1983.5 1126)">
   <path d="M59.7656 15.8203C87.7441 15.8203 110.791-7.27539 110.791-35.2539C110.791-63.2324 87.6953-86.2793 59.7656-86.2793C31.7871-86.2793 8.74023-63.2324 8.74023-35.2539C8.74023-7.27539 31.7871 15.8203 59.7656 15.8203ZM59.7656 4.3457C37.8418 4.3457 20.2637-13.3301 20.2637-35.2539C20.2637-57.1777 37.793-74.8047 59.7656-74.8047C81.6895-74.8047 99.3164-57.1777 99.3652-35.2539C99.3652-13.3301 81.6895 4.3457 59.7656 4.3457ZM59.7168-8.20312C60.9863-8.20312 61.8652-9.08203 61.8652-10.4004L61.8652-13.5254C70.1172-14.2578 76.0742-18.8965 76.0742-26.3184C76.0742-33.0078 71.8262-36.8164 63.2812-38.4277L61.8652-38.7207L61.8652-49.7559C64.6973-49.2676 66.6992-47.6074 67.5781-45.0195C68.4082-43.3105 69.6289-42.3828 71.4844-42.3828C73.6816-42.3828 75.1465-43.75 75.1465-45.8008C75.1465-46.3867 75-46.9727 74.8535-47.6074C73.5352-52.4414 68.6523-56.0547 61.8652-56.7383L61.8652-59.9121C61.8652-61.2305 60.9863-62.1094 59.7168-62.1094C58.4961-62.1094 57.5684-61.2305 57.5684-59.9121L57.5684-56.7383C49.6582-56.0059 44.043-51.2695 44.043-44.2871C44.043-37.8906 48.291-34.1309 56.3965-32.3242L57.5684-32.0312L57.5684-20.4102C54.0039-20.9473 51.9043-22.8027 51.1719-25.3906C50.3906-27.1973 49.1699-28.1738 47.3145-28.1738C44.9707-28.1738 43.5547-26.6602 43.5547-24.5117C43.5547-23.9258 43.6523-23.3398 43.8965-22.6562C45.2637-17.8711 50.293-14.1113 57.5684-13.5742L57.5684-10.4004C57.5684-9.08203 58.4961-8.20312 59.7168-8.20312ZM57.5684-39.7949L57.2754-39.8926C53.6621-40.918 52.002-42.4805 52.002-44.873C52.002-47.3633 54.1504-49.3164 57.5684-49.8535ZM61.8652-31.0059L62.6953-30.8105C66.6016-29.7852 68.0664-28.2227 68.0664-25.6836C68.0664-22.8516 65.9668-20.8496 61.8652-20.4102Z"/>
  </g>
  <g id="Medium-M" transform="matrix(1 0 0 1 1687.3 1126)">
   <path d="M59.2285 15.2344C86.9141 15.2344 109.766-7.61719 109.766-35.2539C109.766-62.8906 86.8652-85.7422 59.1797-85.7422C31.543-85.7422 8.74023-62.8906 8.74023-35.2539C8.74023-7.61719 31.5918 15.2344 59.2285 15.2344ZM59.2285 5.17578C36.8164 5.17578 18.8965-12.8418 18.8965-35.2539C18.8965-57.666 36.8164-75.6348 59.1797-75.6348C81.5918-75.6348 99.6094-57.666 99.6582-35.2539C99.707-12.8418 81.6406 5.17578 59.2285 5.17578ZM59.1797-7.8125C60.4492-7.8125 61.4258-8.74023 61.4258-10.0586L61.4258-13.3301C69.3359-14.0625 75.293-18.6035 75.293-26.0254C75.293-32.666 70.9961-36.5723 62.5-38.1348L61.4258-38.3789L61.4258-50.4883C64.5508-49.9512 66.6992-48.0957 67.627-45.2148C68.3594-43.6035 69.3848-42.6758 71.1426-42.6758C73.0957-42.6758 74.4629-43.9941 74.4629-45.8496C74.4629-46.4355 74.3164-46.9727 74.2188-47.5586C72.9004-52.5879 67.9688-56.2012 61.4258-56.8848L61.4258-60.1562C61.4258-61.4746 60.4492-62.4023 59.1797-62.4023C57.9102-62.4023 56.9824-61.4746 56.9824-60.1562L56.9824-56.8848C49.2676-56.1035 43.7988-51.416 43.7988-44.6289C43.7988-38.2812 48.0469-34.5703 56.1523-32.7148L56.9824-32.5195L56.9824-19.6289C53.0273-20.2148 50.7324-22.3145 49.9512-25.1953C49.2676-26.9531 48.1445-27.832 46.4844-27.832C44.4336-27.832 43.1152-26.4648 43.1152-24.5117C43.1152-23.9746 43.2617-23.4375 43.4082-22.8027C44.8242-17.627 50-14.0137 56.9824-13.3789L56.9824-10.0586C56.9824-8.69141 57.9102-7.8125 59.1797-7.8125ZM56.9824-39.502L56.6406-39.5996C52.7344-40.7227 50.9277-42.4316 50.9277-45.0684C50.9277-47.7539 53.2227-49.9512 56.9824-50.5371ZM61.4258-31.3965L62.3535-31.2012C66.6016-30.0293 68.1152-28.2715 68.1152-25.4883C68.1152-22.4121 65.8691-20.166 61.4258-19.6289Z"/>
  </g>
  <g id="Regular-M" transform="matrix(1 0 0 1 1391.3 1126)">
   <path d="M58.5449 14.5508C85.791 14.5508 108.35-8.05664 108.35-35.2539C108.35-62.5 85.7422-85.0586 58.4961-85.0586C31.2988-85.0586 8.74023-62.5 8.74023-35.2539C8.74023-8.05664 31.3477 14.5508 58.5449 14.5508ZM58.5449 6.25C35.498 6.25 17.0898-12.207 17.0898-35.2539C17.0898-58.3008 35.4492-76.7578 58.4961-76.7578C81.543-76.7578 100-58.3008 100.049-35.2539C100.098-12.207 81.5918 6.25 58.5449 6.25ZM58.4961-7.32422C59.8145-7.32422 60.791-8.30078 60.791-9.66797L60.791-13.0859C68.3594-13.8184 74.2676-18.2129 74.2676-25.5859C74.2676-32.2266 69.9707-36.2305 61.4746-37.7441L60.791-37.8906L60.791-51.4648C64.3066-50.8789 66.748-48.7793 67.7246-45.459C68.2129-43.9941 69.1406-43.0664 70.7031-43.0664C72.3633-43.0664 73.584-44.2871 73.584-45.9473C73.584-46.4844 73.4375-46.9238 73.3398-47.4609C72.0703-52.7832 67.041-56.3965 60.791-57.0801L60.791-60.4492C60.791-61.8164 59.8145-62.793 58.4961-62.793C57.1777-62.793 56.2012-61.8652 56.2012-60.4492L56.2012-57.0801C48.7793-56.25 43.5059-51.6602 43.5059-45.0195C43.5059-38.8184 47.7051-35.1074 55.8594-33.2031L56.2012-33.1055L56.2012-18.6523C51.8066-19.2871 49.2188-21.6797 48.4375-24.9512C47.8516-26.6113 46.875-27.3926 45.4102-27.3926C43.75-27.3926 42.5781-26.2207 42.5781-24.5117C42.5781-23.9746 42.6758-23.5352 42.8223-22.998C44.1895-17.3828 49.6582-13.8184 56.2012-13.1348L56.2012-9.66797C56.2012-8.25195 57.1777-7.32422 58.4961-7.32422ZM56.2012-39.0625L55.8594-39.1602C51.4648-40.4785 49.5117-42.3828 49.5117-45.3125C49.5117-48.291 52.0508-50.7812 56.2012-51.4648ZM60.791-31.8848L61.8652-31.6406C66.6016-30.3223 68.2129-28.3203 68.2129-25.2441C68.2129-21.7773 65.7715-19.1895 60.791-18.6523Z"/>
  </g>
  <g id="Light-M" transform="matrix(1 0 0 1 1095.42 1126)">
   <path d="M57.7148 13.7207C84.5215 13.7207 106.689-8.44727 106.689-35.2539C106.689-62.1094 84.5215-84.2285 57.666-84.2285C30.8594-84.2285 8.74023-62.1094 8.74023-35.2539C8.74023-8.44727 30.9082 13.7207 57.7148 13.7207ZM57.7148 7.37305C34.082 7.37305 15.0879-11.6699 15.0879-35.2539C15.0879-58.8867 34.082-77.9297 57.666-77.9297C81.2988-77.9297 100.342-58.8867 100.391-35.2539C100.391-11.6699 81.3477 7.37305 57.7148 7.37305ZM57.666-7.71484C58.7891-7.71484 59.6191-8.49609 59.6191-9.66797L59.6191-13.3301C67.3828-13.916 73.0957-18.457 73.0957-25.3906C73.0957-31.6895 68.9453-35.4492 60.6445-37.1094L59.6191-37.3047L59.6191-52.002C63.7695-51.4648 66.7969-49.0234 67.627-45.459C68.0176-44.1895 68.75-43.457 70.0195-43.457C71.3867-43.457 72.3633-44.3848 72.3633-45.752C72.3633-46.2402 72.2656-46.6797 72.168-47.168C70.9473-52.2949 65.9668-55.957 59.6191-56.5918L59.6191-59.9609C59.6191-61.1328 58.7891-61.9141 57.666-61.9141C56.543-61.9141 55.7617-61.1328 55.7617-59.9609L55.7617-56.5918C48.4863-55.8594 43.1641-51.3184 43.1641-44.9707C43.1641-39.1113 47.2168-35.498 55.2246-33.5938L55.7617-33.4961L55.7617-17.8223C50.7812-18.4082 47.5586-21.1914 46.875-25.0488C46.4844-26.416 45.7031-27.0996 44.4824-27.0996C43.1152-27.0996 42.1875-26.123 42.1875-24.707C42.1875-24.2676 42.2852-23.8281 42.3828-23.3398C43.6523-17.6758 48.9746-13.916 55.7617-13.3789L55.7617-9.66797C55.7617-8.49609 56.543-7.71484 57.666-7.71484ZM55.7617-38.2812L55.4199-38.3789C50.3906-39.7461 47.9492-41.7969 47.9492-45.166C47.9492-48.6816 51.123-51.416 55.7617-52.002ZM59.6191-32.5195L60.6934-32.2754C66.1133-30.8594 68.2617-28.7109 68.2617-25.1465C68.2617-21.2402 65.1367-18.3105 59.6191-17.8223Z"/>
  </g>
  <g id="Thin-M" transform="matrix(1 0 0 1 799.806 1126)">
   <path d="M56.6406 12.5977C82.9102 12.5977 104.492-8.98438 104.492-35.2539C104.492-61.5723 82.9102-83.1543 56.5918-83.1543C30.3223-83.1543 8.74023-61.5723 8.74023-35.2539C8.74023-8.98438 30.3223 12.5977 56.6406 12.5977ZM56.6406 8.88672C32.2266 8.88672 12.4512-10.8887 12.4512-35.2539C12.4512-59.6191 32.2266-79.4434 56.5918-79.4434C81.0059-79.4434 100.781-59.6191 100.781-35.2539C100.781-10.8887 81.0059 8.88672 56.6406 8.88672ZM56.5918-8.20312C57.4219-8.20312 58.0566-8.83789 58.0566-9.66797L58.0566-13.623C66.0645-14.1113 71.5332-18.7988 71.5332-25.1465C71.5332-30.957 67.6758-34.4727 59.5215-36.2793L58.0566-36.6211L58.0566-52.7344C63.1348-52.3438 66.8457-49.4141 67.5293-45.4102C67.7246-44.4336 68.2129-43.8965 69.1406-43.8965C70.0684-43.8965 70.752-44.5312 70.752-45.5566C70.752-45.9473 70.6543-46.3379 70.6055-46.7285C69.5312-51.709 64.5508-55.4688 58.0566-55.9082L58.0566-59.3262C58.0566-60.1562 57.4219-60.7422 56.5918-60.7422C55.7129-60.7422 55.1758-60.2051 55.1758-59.3262L55.1758-55.9082C48.1445-55.3711 42.6758-50.9277 42.6758-44.873C42.6758-39.502 46.5332-35.9863 54.3945-34.1797L55.1758-34.0332L55.1758-16.748C49.4629-17.2363 45.3613-20.5078 44.8242-25.1465C44.6777-26.123 44.1406-26.6602 43.2129-26.6602C42.334-26.6602 41.6504-26.0254 41.6504-25C41.6504-24.5605 41.748-24.1699 41.7969-23.7793C42.9688-18.1152 48.1445-14.1113 55.1758-13.6719L55.1758-9.66797C55.1758-8.74023 55.7617-8.20312 56.5918-8.20312ZM55.1758-37.3047L54.8828-37.3535C48.9746-38.8184 45.8984-41.0645 45.8984-44.9707C45.8984-49.1699 49.9023-52.2949 55.1758-52.7344ZM58.0566-33.3008L59.1309-33.0566C65.5273-31.543 68.3105-29.1992 68.3105-25.0977C68.3105-20.5078 64.2578-17.1387 58.0566-16.748Z"/>
  </g>
  <g id="Ultralight-M" transform="matrix(1 0 0 1 503.656 1126)">
   <path d="M56.0547 12.0605C82.0801 12.0605 103.369-9.22852 103.369-35.2539C103.369-61.2793 82.0801-82.5684 56.0547-82.5684C30.0293-82.5684 8.74023-61.2793 8.74023-35.2539C8.74023-9.22852 30.0293 12.0605 56.0547 12.0605ZM56.0547 9.66797C31.2988 9.66797 11.1328-10.498 11.1328-35.2539C11.1328-60.0586 31.2988-80.1758 56.0547-80.1758C80.8594-80.1758 100.977-60.0586 100.977-35.2539C100.977-10.498 80.8594 9.66797 56.0547 9.66797ZM56.0059-8.49609C56.6895-8.49609 57.2754-8.98438 57.2754-9.66797L57.2754-13.7695C65.3809-14.209 70.7031-18.9453 70.7031-25.0488C70.7031-30.6152 66.9922-33.9844 58.9355-35.8398L57.2754-36.2305L57.2754-53.125C62.793-52.7344 66.8457-49.6094 67.4805-45.4102C67.5781-44.5801 67.9688-44.1406 68.7012-44.1406C69.4336-44.1406 69.9219-44.6289 69.9219-45.4102C69.9219-45.8008 69.8242-46.1426 69.7754-46.5332C68.7988-51.3672 63.8184-55.1758 57.2754-55.5664L57.2754-58.9844C57.2754-59.668 56.6895-60.1562 56.0059-60.1562C55.2734-60.1562 54.8828-59.7168 54.8828-58.9844L54.8828-55.5664C47.9492-55.127 42.3828-50.6836 42.3828-44.873C42.3828-39.6973 46.1914-36.2793 54.0039-34.4727L54.8828-34.2773L54.8828-16.2109C48.7793-16.6504 44.2871-20.166 43.75-25.1465C43.7012-25.9766 43.3594-26.4648 42.5781-26.4648C41.8945-26.4648 41.4062-25.9766 41.4062-25.0977C41.4062-24.7559 41.4551-24.3652 41.5039-23.9746C42.5781-18.3105 47.7051-14.209 54.8828-13.8184L54.8828-9.66797C54.8828-8.88672 55.3711-8.49609 56.0059-8.49609ZM54.8828-36.7676L54.6387-36.8164C48.2422-38.3301 44.8242-40.6738 44.8242-44.873C44.8242-49.4141 49.2676-52.7344 54.8828-53.125ZM57.2754-33.7402L58.3008-33.4961C65.1855-31.9336 68.3594-29.4434 68.3594-25.0488C68.3594-20.166 63.8184-16.5039 57.2754-16.2109Z"/>
  </g>
  <g id="Black-S" transform="matrix(1 0 0 1 2884.57 696)">
   <path d="M48.8281 6.78711C71.9727 6.78711 90.8203-12.0605 90.8203-35.2051C90.8203-58.3496 71.9727-77.1973 48.8281-77.1973C25.6836-77.1973 6.83594-58.3496 6.83594-35.2051C6.83594-12.0605 25.6836 6.78711 48.8281 6.78711ZM48.8281-7.37305C33.4473-7.37305 20.9961-19.8242 20.9961-35.2051C20.9961-50.5859 33.4473-63.0371 48.8281-63.0371C64.209-63.0371 76.6602-50.5859 76.6602-35.2051C76.6602-19.8242 64.209-7.37305 48.8281-7.37305ZM48.8281-15.4297C49.6582-15.4297 50.2441-16.0156 50.2441-16.9434L50.2441-18.9941C57.7637-19.5312 62.5-23.5352 62.5-29.4922C62.5-34.7656 59.2773-37.5 52.5879-38.916L50.2441-39.4043L50.2441-43.8477C51.3672-43.6035 52.1484-43.0176 52.7344-42.1875C53.9551-40.4297 55.3223-39.6484 57.2266-39.6484C59.8633-39.6484 61.4746-41.0645 61.4746-43.2129C61.4746-43.8477 61.3281-44.5312 61.1328-45.1172C60.0098-48.1934 56.3965-51.0254 50.2441-51.4648L50.2441-53.6621C50.2441-54.5898 49.6582-55.1758 48.8281-55.1758C47.998-55.1758 47.4121-54.5898 47.4121-53.6621L47.4121-51.4648C40.332-51.123 35.3027-47.2168 35.3027-41.2109C35.3027-35.791 38.7695-32.8613 45.1172-31.543L47.4121-31.0547L47.4121-26.5137C45.8984-26.709 45.0195-27.3438 44.5312-28.2227C43.5547-29.8828 42.2363-30.9082 40.1855-30.9082C37.2559-30.9082 35.6934-29.248 35.6934-26.8555C35.6934-26.2695 35.791-25.5859 36.1328-24.8535C37.2559-22.3633 40.4785-19.2383 47.4121-18.9453L47.4121-16.9434C47.4121-16.0156 47.998-15.4297 48.8281-15.4297ZM47.4121-40.0391L47.168-40.0879C45.6543-40.3809 44.8242-41.0156 44.8242-42.0898C44.8242-43.2129 45.8496-43.9453 47.4121-43.9941ZM50.2441-30.4688L50.4883-30.4199C52.2461-30.0781 53.0273-29.5898 53.0273-28.4668C53.0273-27.2949 51.9531-26.709 50.2441-26.5137Z"/>
  </g>
  <g id="Heavy-S" transform="matrix(1 0 0 1 2588.47 696)">
   <path d="M48.2422 6.15234C70.9961 6.15234 89.5996-12.4512 89.5996-35.2051C89.5996-57.959 70.9961-76.6113 48.1934-76.6113C25.4395-76.6113 6.83594-57.959 6.83594-35.2051C6.83594-12.4512 25.4395 6.15234 48.2422 6.15234ZM48.2422-6.39648C32.2754-6.39648 19.4336-19.2871 19.4336-35.2051C19.4336-51.1719 32.2754-64.0137 48.1934-64.0137C64.1602-64.0137 77.002-51.1719 77.0508-35.2051C77.0508-19.2871 64.1602-6.39648 48.2422-6.39648ZM48.1934-14.8926C49.1211-14.8926 49.7559-15.5273 49.7559-16.5527L49.7559-18.7012C56.8848-19.2383 61.6211-23.0957 61.6211-29.1016C61.6211-34.375 58.3496-37.207 51.6602-38.5742L49.7559-38.9648L49.7559-44.7754C51.1719-44.4336 52.1973-43.6523 52.832-42.4316C53.8574-40.8203 55.0781-40.0391 56.8848-40.0391C59.2285-40.0391 60.6934-41.3574 60.6934-43.3105C60.6934-43.8965 60.5957-44.5312 60.4004-45.0684C59.2773-48.4375 55.6152-51.2695 49.7559-51.7578L49.7559-54.0527C49.7559-55.0293 49.1211-55.6641 48.1934-55.6641C47.3145-55.6641 46.6797-55.0293 46.6797-54.0527L46.6797-51.7578C39.8438-51.3184 35.0586-47.4609 35.0586-41.6016C35.0586-36.2793 38.5254-33.3496 44.873-31.9824L46.6797-31.5918L46.6797-25.5859C44.7754-25.8789 43.7012-26.7578 43.1641-27.9785C42.2852-29.5898 41.0645-30.5176 39.209-30.5176C36.6211-30.5176 35.2051-29.0039 35.2051-26.8066C35.2051-26.2695 35.3027-25.6836 35.5469-25C36.7188-22.0703 40.1855-19.043 46.6797-18.7012L46.6797-16.5527C46.6797-15.5273 47.3145-14.8926 48.1934-14.8926ZM46.6797-39.6973L46.3867-39.7461C44.5312-40.2344 43.6035-41.0645 43.6035-42.334C43.6035-43.7012 44.7754-44.6777 46.6797-44.873ZM49.7559-30.9082L50.1465-30.8105C52.2949-30.3223 53.125-29.5898 53.125-28.2227C53.125-26.7578 51.9531-25.8789 49.7559-25.5859Z"/>
  </g>
  <g id="Bold-S" transform="matrix(1 0 0 1 2292.44 696)">
   <path d="M47.5586 5.46875C69.873 5.46875 88.2324-12.8906 88.2324-35.2539C88.2324-57.5684 69.873-75.9277 47.5098-75.9277C25.1953-75.9277 6.83594-57.5684 6.83594-35.2539C6.83594-12.8906 25.1953 5.46875 47.5586 5.46875ZM47.5586-5.32227C30.957-5.32227 17.6758-18.6523 17.6758-35.2539C17.6758-51.8066 30.957-65.1367 47.5098-65.1367C64.1113-65.1367 77.4414-51.8066 77.4414-35.2539C77.4414-18.6523 64.1113-5.32227 47.5586-5.32227ZM47.5098-14.3066C48.5352-14.3066 49.2188-14.9902 49.2188-16.0645L49.2188-18.3594C55.9082-18.9453 60.6445-22.6562 60.6445-28.6133C60.6445-33.9355 57.2754-36.9141 50.5859-38.1836L49.2188-38.4766L49.2188-45.752C50.9766-45.4102 52.1973-44.3359 52.9297-42.7246C53.7598-41.2109 54.834-40.4297 56.4941-40.4297C58.5449-40.4297 59.8633-41.6504 59.8633-43.457C59.8633-43.9941 59.7168-44.5312 59.5703-45.0195C58.4961-48.6816 54.7363-51.5137 49.2188-52.0508L49.2188-54.4434C49.2188-55.5176 48.5352-56.2012 47.5098-56.2012C46.5332-56.2012 45.8008-55.5176 45.8008-54.4434L45.8008-52.0508C39.3555-51.5137 34.8145-47.7051 34.8145-42.041C34.8145-36.8164 38.1836-33.8867 44.5801-32.4707L45.8008-32.2266L45.8008-24.5605C43.5059-24.9512 42.1875-26.123 41.6016-27.6855C40.8691-29.248 39.7461-30.0781 38.1348-30.0781C35.9375-30.0781 34.6191-28.7109 34.6191-26.8066C34.6191-26.2695 34.7168-25.7324 34.9121-25.1953C36.084-21.7285 39.8438-18.7988 45.8008-18.3594L45.8008-16.0645C45.8008-14.9902 46.5332-14.3066 47.5098-14.3066ZM45.8008-39.3066L45.5566-39.4043C43.2617-40.0391 42.1875-41.0645 42.1875-42.627C42.1875-44.2383 43.5547-45.5078 45.8008-45.8496ZM49.2188-31.3965L49.7559-31.25C52.2949-30.6152 53.2227-29.6387 53.2227-27.9297C53.2227-26.123 51.9043-24.9023 49.2188-24.5605Z"/>
  </g>
  <g id="Semibold-S" transform="matrix(1 0 0 1 1996.2 696)">
   <path d="M47.0703 4.98047C69.0918 4.98047 87.3047-13.1836 87.3047-35.2539C87.3047-57.2754 69.0918-75.4883 47.0215-75.4883C25-75.4883 6.83594-57.2754 6.83594-35.2539C6.83594-13.1836 25.0488 4.98047 47.0703 4.98047ZM47.0703-4.58984C30.0781-4.58984 16.4551-18.2129 16.4551-35.2539C16.4551-52.2461 30.0293-65.8691 47.0215-65.8691C64.0625-65.8691 77.6855-52.2461 77.7344-35.2539C77.7344-18.2129 64.0625-4.58984 47.0703-4.58984ZM47.0703-13.916C48.0957-13.916 48.877-14.6484 48.877-15.7227L48.877-18.1641C55.2246-18.75 59.9609-22.3145 59.9609-28.3203C59.9609-33.6426 56.543-36.7188 49.8535-37.9395L48.877-38.1348L48.877-46.4844C50.8789-46.0449 52.2461-44.8242 52.9785-42.9199C53.6621-41.5039 54.6387-40.7227 56.2012-40.7227C58.0566-40.7227 59.2773-41.8945 59.2773-43.5547C59.2773-44.043 59.1309-44.5312 59.0332-45.0195C57.959-48.877 54.1504-51.6602 48.877-52.2461L48.877-54.7363C48.877-55.8594 48.0957-56.5918 47.0703-56.5918C45.9961-56.5918 45.2637-55.8594 45.2637-54.7363L45.2637-52.2461C38.9648-51.6602 34.6191-47.9004 34.6191-42.3828C34.6191-37.207 37.9883-34.2773 44.3848-32.8125L45.2637-32.6172L45.2637-23.877C42.627-24.2676 41.1621-25.6348 40.5273-27.4902C39.8926-29.0039 38.8672-29.7852 37.3535-29.7852C35.4492-29.7852 34.2285-28.5156 34.2285-26.7578C34.2285-26.3184 34.3262-25.8301 34.5215-25.293C35.6445-21.4844 39.5996-18.6523 45.2637-18.1641L45.2637-15.7227C45.2637-14.6484 45.9961-13.916 47.0703-13.916ZM45.2637-39.0625L44.9707-39.1602C42.3828-39.8926 41.2598-41.0645 41.2598-42.8223C41.2598-44.6289 42.6758-46.0938 45.2637-46.5332ZM48.877-31.7383L49.5117-31.5918C52.3438-30.8105 53.3203-29.6387 53.3203-27.7832C53.3203-25.6836 51.9043-24.2676 48.877-23.877Z"/>
  </g>
  <g id="Medium-S" transform="matrix(1 0 0 1 1699.83 696)">
   <path d="M46.7285 4.63867C68.5547 4.63867 86.6211-13.4277 86.6211-35.2539C86.6211-57.0801 68.5059-75.1465 46.6797-75.1465C24.8535-75.1465 6.83594-57.0801 6.83594-35.2539C6.83594-13.4277 24.9023 4.63867 46.7285 4.63867ZM46.7285-4.00391C29.3945-4.00391 15.5273-17.9199 15.5273-35.2539C15.5273-52.5879 29.3457-66.4551 46.6797-66.4551C64.0137-66.4551 77.8809-52.5879 77.9297-35.2539C77.9785-17.9199 64.0625-4.00391 46.7285-4.00391ZM46.6797-13.5742C47.8027-13.5742 48.584-14.3555 48.584-15.4785L48.584-17.9688C54.7363-18.6035 59.4238-22.0703 59.4238-28.0762C59.4238-33.3984 56.0059-36.5723 49.3164-37.7441L48.584-37.8906L48.584-47.0215C50.7324-46.5332 52.2461-45.2148 53.0273-43.0664C53.6133-41.748 54.541-40.918 56.0059-40.918C57.666-40.918 58.7891-42.041 58.7891-43.6523C58.7891-44.0918 58.6914-44.5312 58.5938-45.0195C57.5195-49.0234 53.6621-51.8066 48.584-52.3926L48.584-54.9805C48.584-56.1035 47.8027-56.8848 46.6797-56.8848C45.6055-56.8848 44.8242-56.1035 44.8242-54.9805L44.8242-52.3926C38.7207-51.7578 34.4727-48.0469 34.4727-42.627C34.4727-37.5 37.8418-34.5703 44.2383-33.0566L44.8242-32.959L44.8242-23.3398C41.9434-23.7793 40.3809-25.293 39.7461-27.3438C39.1602-28.8086 38.1836-29.541 36.8164-29.541C35.0586-29.541 33.9355-28.418 33.9355-26.7578C33.9355-26.3184 34.0332-25.8789 34.1797-25.3906C35.3027-21.3379 39.4531-18.5547 44.8242-18.0176L44.8242-15.4785C44.8242-14.3555 45.6055-13.5742 46.6797-13.5742ZM44.8242-38.8672L44.5312-38.9648C41.748-39.7949 40.5273-41.1133 40.5273-42.9688C40.5273-44.9219 42.041-46.5332 44.8242-47.0215ZM48.584-31.9824L49.3164-31.8359C52.3438-30.957 53.3691-29.6387 53.3691-27.6367C53.3691-25.3906 51.9043-23.7305 48.584-23.3398Z"/>
  </g>
  <g id="Regular-S" transform="matrix(1 0 0 1 1403.58 696)">
   <path d="M46.2402 4.15039C67.7734 4.15039 85.6934-13.7207 85.6934-35.2539C85.6934-56.7871 67.7246-74.6582 46.1914-74.6582C24.707-74.6582 6.83594-56.7871 6.83594-35.2539C6.83594-13.7207 24.7559 4.15039 46.2402 4.15039ZM46.2402-3.27148C28.5156-3.27148 14.3555-17.4805 14.3555-35.2539C14.3555-53.0273 28.4668-67.2363 46.1914-67.2363C63.9648-67.2363 78.1738-53.0273 78.2227-35.2539C78.2715-17.4805 64.0137-3.27148 46.2402-3.27148ZM46.2402-13.1836C47.3633-13.1836 48.2422-14.0137 48.2422-15.1855L48.2422-17.7734C54.0527-18.3594 58.7891-21.7773 58.7891-27.7344C58.7891-33.1055 55.2734-36.377 48.584-37.5L48.2422-37.5488L48.2422-47.7051C50.6348-47.168 52.2461-45.7031 53.0762-43.2617C53.5645-42.041 54.3457-41.2109 55.7129-41.2109C57.1777-41.2109 58.2031-42.2363 58.2031-43.7012C58.2031-44.1406 58.1543-44.5312 58.0566-44.9707C56.9824-49.2188 53.0762-52.002 48.2422-52.5879L48.2422-55.2246C48.2422-56.4453 47.3633-57.2266 46.2402-57.2266C45.0684-57.2266 44.2383-56.4453 44.2383-55.2246L44.2383-52.5879C38.3301-51.9043 34.2773-48.2422 34.2773-42.9199C34.2773-37.8906 37.6465-34.9121 44.043-33.3984L44.2383-33.3496L44.2383-22.6074C41.0645-23.1445 39.3555-24.8535 38.6719-27.1484C38.1836-28.5645 37.3047-29.248 36.0352-29.248C34.5703-29.248 33.5449-28.2227 33.5449-26.7578C33.5449-26.3184 33.6426-25.9277 33.7402-25.4883C34.9121-21.0938 39.209-18.3594 44.2383-17.8223L44.2383-15.1855C44.2383-14.0137 45.0684-13.1836 46.2402-13.1836ZM44.2383-38.623L43.9453-38.7207C40.8691-39.6973 39.5508-41.1133 39.5508-43.2129C39.5508-45.2637 41.2109-47.0703 44.2383-47.7051ZM48.2422-32.3242L49.0723-32.1289C52.3926-31.1523 53.418-29.6387 53.418-27.4414C53.418-24.9512 51.8555-23.0957 48.2422-22.6074Z"/>
  </g>
  <g id="Light-S" transform="matrix(1 0 0 1 1107.6 696)">
   <path d="M45.5078 3.41797C66.6992 3.41797 84.2285-14.0625 84.2285-35.2539C84.2285-56.4453 66.6504-73.9258 45.5078-73.9258C24.3164-73.9258 6.83594-56.4453 6.83594-35.2539C6.83594-14.0625 24.3652 3.41797 45.5078 3.41797ZM45.5078-2.29492C27.2461-2.29492 12.5977-16.9922 12.5977-35.2539C12.5977-53.5156 27.1973-68.2129 45.5078-68.2129C63.7695-68.2129 78.4668-53.5156 78.5156-35.2539C78.5156-16.9922 63.8184-2.29492 45.5078-2.29492ZM45.5078-13.5254C46.4355-13.5254 47.168-14.209 47.168-15.1855L47.168-17.9688C53.1738-18.5059 57.7148-21.9727 57.7148-27.5879C57.7148-32.666 54.3945-35.6934 47.8027-36.9629L47.168-37.0605L47.168-48.1934C50.1465-47.7051 52.2949-45.9473 53.0273-43.2617C53.3691-42.1875 54.0039-41.5039 55.127-41.5039C56.2988-41.5039 57.1289-42.334 57.1289-43.5547C57.1289-43.9453 57.0801-44.2871 56.9824-44.6777C56.0059-48.7793 52.0996-51.6602 47.168-52.1484L47.168-54.7852C47.168-55.7617 46.4355-56.4453 45.5078-56.4453C44.5312-56.4453 43.8477-55.8105 43.8477-54.7852L43.8477-52.1484C38.0859-51.5625 33.9355-47.9492 33.9355-42.8711C33.9355-38.1348 37.1582-35.2539 43.5059-33.7891L43.8477-33.6914L43.8477-21.9238C40.1855-22.3633 37.8906-24.4141 37.3047-27.1973C36.9629-28.3691 36.2305-28.9551 35.2051-28.9551C34.0332-28.9551 33.2031-28.125 33.2031-26.9043C33.2031-26.5137 33.3008-26.1719 33.3496-25.7812C34.4238-21.3867 38.623-18.5059 43.8477-18.0176L43.8477-15.1855C43.8477-14.209 44.5312-13.5254 45.5078-13.5254ZM43.8477-37.9395L43.6035-37.9883C39.8926-39.0625 38.1836-40.625 38.1836-43.0664C38.1836-45.6055 40.4297-47.6562 43.8477-48.1934ZM47.168-32.8613L47.998-32.666C52.002-31.5918 53.4668-29.9805 53.4668-27.3926C53.4668-24.4629 51.2695-22.3145 47.168-21.9238Z"/>
  </g>
  <g id="Thin-S" transform="matrix(1 0 0 1 811.867 696)">
   <path d="M44.5801 2.49023C65.2832 2.49023 82.2754-14.5508 82.2754-35.2539C82.2754-55.957 65.2344-72.998 44.5312-72.998C23.8281-72.998 6.83594-55.957 6.83594-35.2539C6.83594-14.5508 23.877 2.49023 44.5801 2.49023ZM44.5801-0.927734C25.5859-0.927734 10.2539-16.3086 10.2539-35.2539C10.2539-54.1992 25.5859-69.5801 44.5312-69.5801C63.5254-69.5801 78.8574-54.1992 78.8574-35.2539C78.8574-16.3086 63.5254-0.927734 44.5801-0.927734ZM44.5312-13.9648C45.2148-13.9648 45.8008-14.4531 45.8008-15.1855L45.8008-18.2129C52.002-18.6523 56.3477-22.2656 56.3477-27.3926C56.3477-32.0312 53.2715-34.8145 46.8262-36.2305L45.8008-36.4258L45.8008-48.8281C49.5605-48.4375 52.3438-46.2891 52.9297-43.2129C53.125-42.3828 53.5156-41.9434 54.3457-41.9434C55.1758-41.9434 55.7129-42.4805 55.7129-43.3594C55.7129-43.7012 55.6641-43.9941 55.6152-44.3359C54.7363-48.2422 50.8301-51.1719 45.8008-51.5625L45.8008-54.248C45.8008-54.9316 45.2148-55.4199 44.5312-55.4199C43.7988-55.4199 43.3105-54.9805 43.3105-54.248L43.3105-51.5625C37.793-51.123 33.4961-47.6074 33.4961-42.8223C33.4961-38.4766 36.5723-35.7422 42.7734-34.2773L43.3105-34.1797L43.3105-20.9473C39.0137-21.3379 35.9863-23.8281 35.498-27.2949C35.3516-28.125 34.8633-28.6133 34.082-28.6133C33.3008-28.6133 32.7148-28.0273 32.7148-27.1484C32.7148-26.8066 32.8125-26.5137 32.8613-26.1719C33.7891-21.7285 37.8906-18.6523 43.3105-18.2617L43.3105-15.1855C43.3105-14.4531 43.8477-13.9648 44.5312-13.9648ZM43.3105-37.0605L43.1152-37.1094C38.623-38.2324 36.3281-39.9414 36.3281-42.8711C36.3281-46.0449 39.3555-48.4375 43.3105-48.8281ZM45.8008-33.5938L46.6309-33.3984C51.4648-32.2266 53.5156-30.3711 53.5156-27.2949C53.5156-23.8281 50.5371-21.2891 45.8008-20.9473Z"/>
  </g>
  <g id="Ultralight-S" transform="matrix(1 0 0 1 515.644 696)">
   <path d="M44.043 1.95312C64.502 1.95312 81.2988-14.7949 81.2988-35.2539C81.2988-55.7129 64.502-72.4609 44.043-72.4609C23.584-72.4609 6.83594-55.7129 6.83594-35.2539C6.83594-14.7949 23.584 1.95312 44.043 1.95312ZM44.043-0.244141C24.7559-0.244141 9.08203-15.9668 9.08203-35.2539C9.08203-54.541 24.7559-70.2637 44.043-70.2637C63.3789-70.2637 79.0527-54.541 79.0527-35.2539C79.0527-15.9668 63.3789-0.244141 44.043-0.244141ZM44.043-14.209C44.5801-14.209 45.0684-14.5996 45.0684-15.1855L45.0684-18.3594C51.3672-18.75 55.6152-22.4121 55.6152-27.2949C55.6152-31.6895 52.6367-34.375 46.3379-35.8398L45.0684-36.1328L45.0684-49.1211C49.2676-48.8281 52.3438-46.4355 52.8809-43.2129C52.9785-42.4805 53.3203-42.1387 53.9062-42.1387C54.541-42.1387 54.9805-42.5781 54.9805-43.2617C54.9805-43.5547 54.9316-43.8477 54.8828-44.1406C54.1016-47.9492 50.1953-50.9277 45.0684-51.2207L45.0684-53.9062C45.0684-54.4922 44.5801-54.8828 44.043-54.8828C43.4082-54.8828 43.0664-54.541 43.0664-53.9062L43.0664-51.2207C37.5977-50.8789 33.3008-47.4121 33.3008-42.7734C33.3008-38.6719 36.2793-35.9863 42.3828-34.5703L43.0664-34.4238L43.0664-20.459C38.3789-20.8008 34.9609-23.4863 34.5703-27.3438C34.4727-28.0273 34.1797-28.418 33.4961-28.418C32.9102-28.418 32.5195-27.9785 32.5195-27.2461C32.5195-26.9531 32.5684-26.6602 32.6172-26.3672C33.4473-21.9238 37.4512-18.75 43.0664-18.4082L43.0664-15.1855C43.0664-14.5508 43.457-14.209 44.043-14.209ZM43.0664-36.5723L42.8711-36.6211C37.9883-37.793 35.4004-39.5996 35.4004-42.7734C35.4004-46.2891 38.7695-48.8281 43.0664-49.1211ZM45.0684-33.9355L45.8984-33.7402C51.1719-32.5684 53.5156-30.6152 53.5156-27.2461C53.5156-23.5352 50.0977-20.752 45.0684-20.459Z"/>
  </g>
 </g>
</svg>
