<?xml version="1.0" encoding="UTF-8"?>
<!--Generator: Apple Native CoreSVG 149-->
<!DOCTYPE svg
PUBLIC "-//W3C//DTD SVG 1.1//EN"
       "http://www.w3.org/Graphics/SVG/1.1/DTD/svg11.dtd">
<svg version="1.1" xmlns="http://www.w3.org/2000/svg" xmlns:xlink="http://www.w3.org/1999/xlink" width="3300" height="2200">
 <!--glyph: "uni100597.medium", point size: 100.0, font version: "17.0d8e1", template writer version: "58"-->
 <style>.hierarchical-0:secondary {fill:#4D4D4D}
.hierarchical-1:primary {fill:#212121}

.SFSymbolsPreview212121 {fill:#212121;opacity:1.0}
.SFSymbolsPreview4D4D4D {fill:#4D4D4D;opacity:1.0}
</style>
 <g id="Notes">
  <rect height="2200" id="artboard" style="fill:white;opacity:1" width="3300" x="0" y="0"/>
  <line style="fill:none;stroke:black;opacity:1;stroke-width:0.5;" x1="263" x2="3036" y1="292" y2="292"/>
  <text style="stroke:none;fill:black;font-family:SF Pro,SF Pro Display,SF Pro Text,sans-serif;font-size:13;font-weight:bold;" transform="matrix(1 0 0 1 263 322)">Weight/Scale Variations</text>
  <text style="stroke:none;fill:black;font-family:SF Pro,SF Pro Display,SF Pro Text,sans-serif;font-size:13;text-anchor:middle;" transform="matrix(1 0 0 1 559.711 322)">Ultralight</text>
  <text style="stroke:none;fill:black;font-family:SF Pro,SF Pro Display,SF Pro Text,sans-serif;font-size:13;text-anchor:middle;" transform="matrix(1 0 0 1 856.422 322)">Thin</text>
  <text style="stroke:none;fill:black;font-family:SF Pro,SF Pro Display,SF Pro Text,sans-serif;font-size:13;text-anchor:middle;" transform="matrix(1 0 0 1 1153.13 322)">Light</text>
  <text style="stroke:none;fill:black;font-family:SF Pro,SF Pro Display,SF Pro Text,sans-serif;font-size:13;text-anchor:middle;" transform="matrix(1 0 0 1 1449.84 322)">Regular</text>
  <text style="stroke:none;fill:black;font-family:SF Pro,SF Pro Display,SF Pro Text,sans-serif;font-size:13;text-anchor:middle;" transform="matrix(1 0 0 1 1746.56 322)">Medium</text>
  <text style="stroke:none;fill:black;font-family:SF Pro,SF Pro Display,SF Pro Text,sans-serif;font-size:13;text-anchor:middle;" transform="matrix(1 0 0 1 2043.27 322)">Semibold</text>
  <text style="stroke:none;fill:black;font-family:SF Pro,SF Pro Display,SF Pro Text,sans-serif;font-size:13;text-anchor:middle;" transform="matrix(1 0 0 1 2339.98 322)">Bold</text>
  <text style="stroke:none;fill:black;font-family:SF Pro,SF Pro Display,SF Pro Text,sans-serif;font-size:13;text-anchor:middle;" transform="matrix(1 0 0 1 2636.69 322)">Heavy</text>
  <text style="stroke:none;fill:black;font-family:SF Pro,SF Pro Display,SF Pro Text,sans-serif;font-size:13;text-anchor:middle;" transform="matrix(1 0 0 1 2933.4 322)">Black</text>
  <line style="fill:none;stroke:black;opacity:1;stroke-width:0.5;" x1="263" x2="3036" y1="1903" y2="1903"/>
  <g transform="matrix(1 0 0 1 263 1933)">
   <path d="M9.24805 0.830078Q10.8691 0.830078 12.2949 0.214844Q13.7207-0.400391 14.8096-1.49414Q15.8984-2.58789 16.5186-4.01367Q17.1387-5.43945 17.1387-7.05078Q17.1387-8.66211 16.5186-10.0879Q15.8984-11.5137 14.8047-12.6074Q13.7109-13.7012 12.2852-14.3164Q10.8594-14.9316 9.23828-14.9316Q7.62695-14.9316 6.20117-14.3164Q4.77539-13.7012 3.69141-12.6074Q2.60742-11.5137 1.9873-10.0879Q1.36719-8.66211 1.36719-7.05078Q1.36719-5.43945 1.9873-4.01367Q2.60742-2.58789 3.69629-1.49414Q4.78516-0.400391 6.21094 0.214844Q7.63672 0.830078 9.24805 0.830078ZM9.24805-0.654297Q7.91992-0.654297 6.7627-1.14746Q5.60547-1.64062 4.73145-2.51953Q3.85742-3.39844 3.36426-4.56055Q2.87109-5.72266 2.87109-7.05078Q2.87109-8.37891 3.35938-9.54102Q3.84766-10.7031 4.72168-11.582Q5.5957-12.4609 6.75293-12.9541Q7.91016-13.4473 9.23828-13.4473Q10.5762-13.4473 11.7334-12.9541Q12.8906-12.4609 13.7695-11.582Q14.6484-10.7031 15.1465-9.54102Q15.6445-8.37891 15.6445-7.05078Q15.6445-5.72266 15.1514-4.56055Q14.6582-3.39844 13.7842-2.51953Q12.9102-1.64062 11.748-1.14746Q10.5859-0.654297 9.24805-0.654297ZM5.83984-7.04102Q5.83984-6.71875 6.04492-6.51855Q6.25-6.31836 6.5918-6.31836L8.50586-6.31836L8.50586-4.39453Q8.50586-4.0625 8.70605-3.85742Q8.90625-3.65234 9.22852-3.65234Q9.56055-3.65234 9.76562-3.85742Q9.9707-4.0625 9.9707-4.39453L9.9707-6.31836L11.8945-6.31836Q12.2266-6.31836 12.4316-6.51855Q12.6367-6.71875 12.6367-7.04102Q12.6367-7.37305 12.4316-7.57812Q12.2266-7.7832 11.8945-7.7832L9.9707-7.7832L9.9707-9.69727Q9.9707-10.0391 9.76562-10.2441Q9.56055-10.4492 9.22852-10.4492Q8.90625-10.4492 8.70605-10.2441Q8.50586-10.0391 8.50586-9.69727L8.50586-7.7832L6.5918-7.7832Q6.25-7.7832 6.04492-7.57812Q5.83984-7.37305 5.83984-7.04102Z"/>
  </g>
  <g transform="matrix(1 0 0 1 281.867 1933)">
   <path d="M11.709 2.91016Q13.75 2.91016 15.5518 2.12891Q17.3535 1.34766 18.7305-0.0292969Q20.1074-1.40625 20.8887-3.20801Q21.6699-5.00977 21.6699-7.05078Q21.6699-9.0918 20.8887-10.8936Q20.1074-12.6953 18.7305-14.0723Q17.3535-15.4492 15.5469-16.2305Q13.7402-17.0117 11.6992-17.0117Q9.6582-17.0117 7.85645-16.2305Q6.05469-15.4492 4.68262-14.0723Q3.31055-12.6953 2.5293-10.8936Q1.74805-9.0918 1.74805-7.05078Q1.74805-5.00977 2.5293-3.20801Q3.31055-1.40625 4.6875-0.0292969Q6.06445 1.34766 7.86621 2.12891Q9.66797 2.91016 11.709 2.91016ZM11.709 1.25Q9.98047 1.25 8.47656 0.605469Q6.97266-0.0390625 5.83496-1.17676Q4.69727-2.31445 4.05762-3.81836Q3.41797-5.32227 3.41797-7.05078Q3.41797-8.7793 4.05762-10.2832Q4.69727-11.7871 5.83008-12.9297Q6.96289-14.0723 8.4668-14.7119Q9.9707-15.3516 11.6992-15.3516Q13.4277-15.3516 14.9316-14.7119Q16.4355-14.0723 17.5781-12.9297Q18.7207-11.7871 19.3652-10.2832Q20.0098-8.7793 20.0098-7.05078Q20.0098-5.32227 19.3701-3.81836Q18.7305-2.31445 17.5928-1.17676Q16.4551-0.0390625 14.9463 0.605469Q13.4375 1.25 11.709 1.25ZM7.39258-7.04102Q7.39258-6.68945 7.62695-6.46484Q7.86133-6.24023 8.23242-6.24023L10.8789-6.24023L10.8789-3.57422Q10.8789-3.21289 11.1035-2.9834Q11.3281-2.75391 11.6797-2.75391Q12.0508-2.75391 12.2852-2.9834Q12.5195-3.21289 12.5195-3.57422L12.5195-6.24023L15.1758-6.24023Q15.5371-6.24023 15.7715-6.46484Q16.0059-6.68945 16.0059-7.04102Q16.0059-7.41211 15.7715-7.6416Q15.5371-7.87109 15.1758-7.87109L12.5195-7.87109L12.5195-10.5176Q12.5195-10.8984 12.2852-11.1279Q12.0508-11.3574 11.6797-11.3574Q11.3281-11.3574 11.1035-11.1279Q10.8789-10.8984 10.8789-10.5176L10.8789-7.87109L8.23242-7.87109Q7.85156-7.87109 7.62207-7.6416Q7.39258-7.41211 7.39258-7.04102Z"/>
  </g>
  <g transform="matrix(1 0 0 1 305.646 1933)">
   <path d="M14.9707 5.66406Q17.0605 5.66406 18.96 5.01465Q20.8594 4.36523 22.4512 3.19336Q24.043 2.02148 25.2197 0.429688Q26.3965-1.16211 27.0459-3.06641Q27.6953-4.9707 27.6953-7.05078Q27.6953-9.14062 27.0459-11.04Q26.3965-12.9395 25.2197-14.5312Q24.043-16.123 22.4512-17.2998Q20.8594-18.4766 18.9551-19.126Q17.0508-19.7754 14.9609-19.7754Q12.8711-19.7754 10.9717-19.126Q9.07227-18.4766 7.48535-17.2998Q5.89844-16.123 4.72168-14.5312Q3.54492-12.9395 2.90039-11.04Q2.25586-9.14062 2.25586-7.05078Q2.25586-4.9707 2.90527-3.06641Q3.55469-1.16211 4.72656 0.429688Q5.89844 2.02148 7.49023 3.19336Q9.08203 4.36523 10.9814 5.01465Q12.8809 5.66406 14.9707 5.66406ZM14.9707 3.84766Q13.1641 3.84766 11.5283 3.2959Q9.89258 2.74414 8.53516 1.74805Q7.17773 0.751953 6.17676-0.610352Q5.17578-1.97266 4.62891-3.6084Q4.08203-5.24414 4.08203-7.05078Q4.08203-8.86719 4.62891-10.5029Q5.17578-12.1387 6.17188-13.501Q7.16797-14.8633 8.52539-15.8594Q9.88281-16.8555 11.5186-17.4023Q13.1543-17.9492 14.9609-17.9492Q16.7773-17.9492 18.4131-17.4023Q20.0488-16.8555 21.4111-15.8594Q22.7734-14.8633 23.7695-13.501Q24.7656-12.1387 25.3174-10.5029Q25.8691-8.86719 25.8691-7.05078Q25.8789-5.24414 25.332-3.6084Q24.7852-1.97266 23.7842-0.610352Q22.7832 0.751953 21.4209 1.74805Q20.0586 2.74414 18.4229 3.2959Q16.7871 3.84766 14.9707 3.84766ZM9.45312-7.04102Q9.45312-6.66016 9.71191-6.41113Q9.9707-6.16211 10.3711-6.16211L14.0625-6.16211L14.0625-2.46094Q14.0625-2.06055 14.3115-1.80664Q14.5605-1.55273 14.9414-1.55273Q15.3516-1.55273 15.6055-1.80664Q15.8594-2.06055 15.8594-2.46094L15.8594-6.16211L19.5605-6.16211Q19.9609-6.16211 20.2148-6.41113Q20.4688-6.66016 20.4688-7.04102Q20.4688-7.45117 20.2148-7.70508Q19.9609-7.95898 19.5605-7.95898L15.8594-7.95898L15.8594-11.6504Q15.8594-12.0605 15.6055-12.3145Q15.3516-12.5684 14.9414-12.5684Q14.5605-12.5684 14.3115-12.3096Q14.0625-12.0508 14.0625-11.6504L14.0625-7.95898L10.3711-7.95898Q9.96094-7.95898 9.70703-7.70508Q9.45312-7.45117 9.45312-7.04102Z"/>
  </g>
  <text style="stroke:none;fill:black;font-family:SF Pro,SF Pro Display,SF Pro Text,sans-serif;font-size:13;font-weight:bold;" transform="matrix(1 0 0 1 263 1953)">Design Variations</text>
  <text style="stroke:none;fill:black;font-family:SF Pro,SF Pro Display,SF Pro Text,sans-serif;font-size:13;" transform="matrix(1 0 0 1 263 1971)">Symbols are supported in up to nine weights and three scales.</text>
  <text style="stroke:none;fill:black;font-family:SF Pro,SF Pro Display,SF Pro Text,sans-serif;font-size:13;" transform="matrix(1 0 0 1 263 1989)">For optimal layout with text and other symbols, vertically align</text>
  <text style="stroke:none;fill:black;font-family:SF Pro,SF Pro Display,SF Pro Text,sans-serif;font-size:13;" transform="matrix(1 0 0 1 263 2007)">symbols with the adjacent text.</text>
  <line style="fill:none;stroke:#00AEEF;stroke-width:0.5;opacity:1.0;" x1="776" x2="776" y1="1919" y2="1933"/>
  <g transform="matrix(1 0 0 1 776 1933)">
   <path d="M3.31055 0.15625Q3.70117 0.15625 3.91602-0.00976562Q4.13086-0.175781 4.26758-0.585938L5.52734-4.0332L11.2891-4.0332L12.5488-0.585938Q12.6855-0.175781 12.9004-0.00976562Q13.1152 0.15625 13.4961 0.15625Q13.8867 0.15625 14.1162-0.0585938Q14.3457-0.273438 14.3457-0.644531Q14.3457-0.869141 14.2383-1.17188L9.6582-13.3691Q9.48242-13.8184 9.17969-14.043Q8.87695-14.2676 8.4082-14.2676Q7.5-14.2676 7.17773-13.3789L2.59766-1.16211Q2.49023-0.859375 2.49023-0.634766Q2.49023-0.263672 2.70996-0.0537109Q2.92969 0.15625 3.31055 0.15625ZM6.00586-5.51758L8.37891-12.0898L8.42773-12.0898L10.8008-5.51758Z"/>
  </g>
  <line style="fill:none;stroke:#00AEEF;stroke-width:0.5;opacity:1.0;" x1="793.197" x2="793.197" y1="1919" y2="1933"/>
  <text style="stroke:none;fill:black;font-family:SF Pro,SF Pro Display,SF Pro Text,sans-serif;font-size:13;font-weight:bold;" transform="matrix(1 0 0 1 776 1953)">Margins</text>
  <text style="stroke:none;fill:black;font-family:SF Pro,SF Pro Display,SF Pro Text,sans-serif;font-size:13;" transform="matrix(1 0 0 1 776 1971)">Leading and trailing margins on the left and right side of each symbol</text>
  <text style="stroke:none;fill:black;font-family:SF Pro,SF Pro Display,SF Pro Text,sans-serif;font-size:13;" transform="matrix(1 0 0 1 776 1989)">can be adjusted by modifying the x-location of the margin guidelines.</text>
  <text style="stroke:none;fill:black;font-family:SF Pro,SF Pro Display,SF Pro Text,sans-serif;font-size:13;" transform="matrix(1 0 0 1 776 2007)">Modifications are automatically applied proportionally to all</text>
  <text style="stroke:none;fill:black;font-family:SF Pro,SF Pro Display,SF Pro Text,sans-serif;font-size:13;" transform="matrix(1 0 0 1 776 2025)">scales and weights.</text>
  <g transform="matrix(1 0 0 1 1289 1933)">
   <path d="M2.8418 1.86523L4.54102 3.57422Q5.18555 4.22852 5.90332 4.17969Q6.62109 4.13086 7.31445 3.35938L18.0078-8.42773L17.041-9.4043L6.42578 2.27539Q6.16211 2.57812 5.89355 2.61719Q5.625 2.65625 5.27344 2.30469L4.10156 1.14258Q3.75 0.791016 3.79395 0.522461Q3.83789 0.253906 4.14062-0.0195312L15.6152-10.8203L14.6387-11.7871L3.04688-0.898438Q2.30469-0.214844 2.25098 0.498047Q2.19727 1.21094 2.8418 1.86523ZM9.25781-16.3281Q8.94531-16.0254 8.90625-15.6348Q8.86719-15.2441 9.04297-14.9512Q9.21875-14.6777 9.55566-14.541Q9.89258-14.4043 10.3809-14.5215Q11.4746-14.7754 12.5977-14.7314Q13.7207-14.6875 14.7949-13.9844L14.209-12.5293Q13.9551-11.9043 14.0674-11.4404Q14.1797-10.9766 14.5801-10.5664L16.875-8.25195Q17.2363-7.88086 17.5781-7.82227Q17.9199-7.76367 18.3398-7.8418L19.4043-8.03711L20.0684-7.36328L20.0293-6.80664Q20-6.43555 20.1221-6.12305Q20.2441-5.81055 20.6055-5.44922L21.3672-4.70703Q21.7285-4.3457 22.1533-4.33105Q22.5781-4.31641 22.9297-4.66797L25.8398-7.58789Q26.1914-7.93945 26.1816-8.35449Q26.1719-8.76953 25.8105-9.13086L25.0391-9.89258Q24.6875-10.2539 24.3799-10.3857Q24.0723-10.5176 23.7109-10.4883L23.1348-10.4395L22.4902-11.0742L22.7344-12.1973Q22.832-12.6172 22.6953-12.9834Q22.5586-13.3496 22.1191-13.7891L19.9219-15.9766Q18.6719-17.2168 17.2607-17.8369Q15.8496-18.457 14.4189-18.4814Q12.9883-18.5059 11.665-17.959Q10.3418-17.4121 9.25781-16.3281ZM10.752-15.957Q11.6602-16.6211 12.7002-16.9043Q13.7402-17.1875 14.8047-17.085Q15.8691-16.9824 16.8701-16.5137Q17.8711-16.0449 18.7012-15.2051L21.1328-12.793Q21.3086-12.6172 21.3525-12.4512Q21.3965-12.2852 21.3379-12.0312L21.0156-10.5469L22.5195-9.0625L23.5059-9.12109Q23.6914-9.13086 23.7891-9.09668Q23.8867-9.0625 24.0332-8.91602L24.6094-8.33984L22.168-5.89844L21.5918-6.47461Q21.4453-6.62109 21.4062-6.71875Q21.3672-6.81641 21.377-7.01172L21.4453-7.98828L19.9512-9.47266L18.4277-9.21875Q18.1836-9.16992 18.042-9.2041Q17.9004-9.23828 17.7148-9.41406L15.7129-11.416Q15.5176-11.5918 15.4932-11.7529Q15.4688-11.9141 15.5859-12.1875L16.4648-14.2773Q15.293-15.3711 13.8281-15.791Q12.3633-16.2109 10.8398-15.7617Q10.7227-15.7324 10.6885-15.8057Q10.6543-15.8789 10.752-15.957Z"/>
  </g>
  <text style="stroke:none;fill:black;font-family:SF Pro,SF Pro Display,SF Pro Text,sans-serif;font-size:13;font-weight:bold;" transform="matrix(1 0 0 1 1289 1953)">Exporting</text>
  <text style="stroke:none;fill:black;font-family:SF Pro,SF Pro Display,SF Pro Text,sans-serif;font-size:13;" transform="matrix(1 0 0 1 1289 1971)">Symbols should be outlined when exporting to ensure the</text>
  <text style="stroke:none;fill:black;font-family:SF Pro,SF Pro Display,SF Pro Text,sans-serif;font-size:13;" transform="matrix(1 0 0 1 1289 1989)">design is preserved when submitting to Xcode.</text>
  <text id="template-version" style="stroke:none;fill:black;font-family:SF Pro,SF Pro Display,SF Pro Text,sans-serif;font-size:13;text-anchor:end;" transform="matrix(1 0 0 1 3036 1933)">Template v.3.0</text>
  <text style="stroke:none;fill:black;font-family:SF Pro,SF Pro Display,SF Pro Text,sans-serif;font-size:13;text-anchor:end;" transform="matrix(1 0 0 1 3036 1951)">Requires Xcode 13 or greater</text>
  <text id="descriptive-name" style="stroke:none;fill:black;font-family:SF Pro,SF Pro Display,SF Pro Text,sans-serif;font-size:13;text-anchor:end;" transform="matrix(1 0 0 1 3036 1969)">Generated from dollarsign.circle</text>
  <text style="stroke:none;fill:black;font-family:SF Pro,SF Pro Display,SF Pro Text,sans-serif;font-size:13;text-anchor:end;" transform="matrix(1 0 0 1 3036 1987)">Typeset at 100 points</text>
  <text style="stroke:none;fill:black;font-family:SF Pro,SF Pro Display,SF Pro Text,sans-serif;font-size:13;" transform="matrix(1 0 0 1 263 726)">Small</text>
  <text style="stroke:none;fill:black;font-family:SF Pro,SF Pro Display,SF Pro Text,sans-serif;font-size:13;" transform="matrix(1 0 0 1 263 1156)">Medium</text>
  <text style="stroke:none;fill:black;font-family:SF Pro,SF Pro Display,SF Pro Text,sans-serif;font-size:13;" transform="matrix(1 0 0 1 263 1586)">Large</text>
 </g>
 <g id="Guides">
  <g id="H-reference" style="fill:#27AAE1;stroke:none;" transform="matrix(1 0 0 1 339 696)">
   <path d="M0.976562 0L3.66211 0L29.3457-67.1387L30.0293-67.1387L30.0293-70.459L28.125-70.459ZM11.6699-24.4629L46.9727-24.4629L46.2402-26.709L12.4512-26.709ZM55.127 0L57.7637 0L30.6152-70.459L29.4434-70.459L29.4434-67.1387Z"/>
  </g>
  <line id="Baseline-S" style="fill:none;stroke:#27AAE1;opacity:1;stroke-width:0.5;" x1="263" x2="3036" y1="696" y2="696"/>
  <line id="Capline-S" style="fill:none;stroke:#27AAE1;opacity:1;stroke-width:0.5;" x1="263" x2="3036" y1="625.541" y2="625.541"/>
  <g id="H-reference" style="fill:#27AAE1;stroke:none;" transform="matrix(1 0 0 1 339 1126)">
   <path d="M0.976562 0L3.66211 0L29.3457-67.1387L30.0293-67.1387L30.0293-70.459L28.125-70.459ZM11.6699-24.4629L46.9727-24.4629L46.2402-26.709L12.4512-26.709ZM55.127 0L57.7637 0L30.6152-70.459L29.4434-70.459L29.4434-67.1387Z"/>
  </g>
  <line id="Baseline-M" style="fill:none;stroke:#27AAE1;opacity:1;stroke-width:0.5;" x1="263" x2="3036" y1="1126" y2="1126"/>
  <line id="Capline-M" style="fill:none;stroke:#27AAE1;opacity:1;stroke-width:0.5;" x1="263" x2="3036" y1="1055.54" y2="1055.54"/>
  <g id="H-reference" style="fill:#27AAE1;stroke:none;" transform="matrix(1 0 0 1 339 1556)">
   <path d="M0.976562 0L3.66211 0L29.3457-67.1387L30.0293-67.1387L30.0293-70.459L28.125-70.459ZM11.6699-24.4629L46.9727-24.4629L46.2402-26.709L12.4512-26.709ZM55.127 0L57.7637 0L30.6152-70.459L29.4434-70.459L29.4434-67.1387Z"/>
  </g>
  <line id="Baseline-L" style="fill:none;stroke:#27AAE1;opacity:1;stroke-width:0.5;" x1="263" x2="3036" y1="1556" y2="1556"/>
  <line id="Capline-L" style="fill:none;stroke:#27AAE1;opacity:1;stroke-width:0.5;" x1="263" x2="3036" y1="1485.54" y2="1485.54"/>
  <line id="left-margin-Regular-M" style="fill:none;stroke:#00AEEF;stroke-width:0.5;opacity:1.0;" x1="1391.3" x2="1391.3" y1="1030.79" y2="1150.12"/>
  <line id="right-margin-Regular-M" style="fill:none;stroke:#00AEEF;stroke-width:0.5;opacity:1.0;" x1="1508.39" x2="1508.39" y1="1030.79" y2="1150.12"/>
 </g>
 <g id="Symbols">
  <g id="Black-L" transform="matrix(1 0 0 1 2854.05 1556)">
   <path class="hierarchical-0:secondary SFSymbolsPreview4D4D4D" d="M79.3457 32.8613Q90.5762 32.8613 100.757 29.3945Q110.938 25.9277 119.458 19.6777Q127.979 13.4277 134.229 4.90723Q140.479-3.61328 143.945-13.7939Q147.412-23.9746 147.412-35.2051Q147.412-46.4355 143.945-56.6162Q140.479-66.7969 134.204-75.3174Q127.93-83.8379 119.434-90.1123Q110.938-96.3867 100.732-99.8291Q90.5273-103.271 79.2969-103.271Q68.1152-103.271 57.9102-99.8291Q47.7051-96.3867 39.209-90.1123Q30.7129-83.8379 24.4385-75.3174Q18.1641-66.7969 14.7217-56.6162Q11.2793-46.4355 11.2793-35.2051Q11.2793-23.9746 14.7217-13.7939Q18.1641-3.61328 24.4385 4.90723Q30.7129 13.4277 39.2334 19.6777Q47.7539 25.9277 57.9346 29.3945Q68.1152 32.8613 79.3457 32.8613ZM79.3457 12.4023Q71.4355 12.4023 64.2822 10.0098Q57.1289 7.61719 51.1963 3.24707Q45.2637-1.12305 40.8936-7.08008Q36.5234-13.0371 34.1309-20.166Q31.7383-27.2949 31.7383-35.2051Q31.7383-43.1152 34.1309-50.2686Q36.5234-57.4219 40.8936-63.3545Q45.2637-69.2871 51.1963-73.6572Q57.1289-78.0273 64.2578-80.4199Q71.3867-82.8125 79.2969-82.8125Q87.207-82.8125 94.3604-80.4199Q101.514-78.0273 107.471-73.6572Q113.428-69.2871 117.798-63.3545Q122.168-57.4219 124.561-50.2686Q126.953-43.1152 126.953-35.2051Q126.953-27.2949 124.561-20.166Q122.168-13.0371 117.798-7.08008Q113.428-1.12305 107.495 3.24707Q101.562 7.61719 94.4092 10.0098Q87.2559 12.4023 79.3457 12.4023Z"/>
   <path class="hierarchical-1:primary SFSymbolsPreview212121" d="M79.2969-1.66016Q80.4199-1.66016 81.1523-2.39258Q81.8848-3.125 81.8848-4.39453L81.8848-7.95898Q90.625-8.69141 95.9717-13.1836Q101.318-17.6758 101.318-25.0488Q101.318-31.6406 97.2168-35.376Q93.1152-39.1113 84.8145-40.7715L81.8848-41.3574L81.8848-51.1719Q83.6914-50.7812 84.9365-49.7803Q86.1816-48.7793 87.0117-47.2168Q89.502-43.2617 93.6035-43.2617Q96.4844-43.2617 98.1689-44.751Q99.8535-46.2402 99.8535-48.6816Q99.8535-49.4141 99.707-50.1465Q99.5605-50.8789 99.3652-51.5137Q97.998-55.7129 93.5303-58.8379Q89.0625-61.9629 81.8848-62.5977L81.8848-66.4062Q81.8848-67.627 81.1523-68.3838Q80.4199-69.1406 79.2969-69.1406Q78.125-69.1406 77.3926-68.3838Q76.6602-67.627 76.6602-66.4062L76.6602-62.5977Q71.0938-62.207 66.8213-60.083Q62.5488-57.959 60.1074-54.3457Q57.666-50.7324 57.666-45.8984Q57.666-39.3066 61.8164-35.5225Q65.9668-31.7383 73.8281-30.0293L76.6602-29.4434L76.6602-19.2383Q74.2676-19.5801 72.876-20.6543Q71.4844-21.7285 70.8008-23.2422Q69.7266-25.2441 68.1885-26.3428Q66.6504-27.4414 64.3555-27.4414Q61.2305-27.4414 59.5215-25.7568Q57.8125-24.0723 57.8125-21.4355Q57.8125-20.752 57.959-20.0195Q58.1055-19.2871 58.4473-18.457Q59.8145-14.7461 64.2822-11.5723Q68.75-8.39844 76.6602-7.95898L76.6602-4.39453Q76.6602-3.125 77.3926-2.39258Q78.125-1.66016 79.2969-1.66016ZM76.6602-42.627L76.2207-42.7246Q73.877-43.3105 72.7051-44.3848Q71.5332-45.459 71.5332-47.0703Q71.5332-48.7793 72.9004-49.9268Q74.2676-51.0742 76.6602-51.3672ZM81.8848-28.2227L82.5684-28.0762Q85.2051-27.4414 86.3525-26.4404Q87.5-25.4395 87.5-23.6816Q87.5-21.8262 86.0596-20.7031Q84.6191-19.5801 81.8848-19.2383Z"/>
  </g>
  <g id="Heavy-L" transform="matrix(1 0 0 1 2558.39 1556)">
   <path class="hierarchical-0:secondary SFSymbolsPreview4D4D4D" d="M78.2715 31.7871Q89.3555 31.7871 99.3652 28.3691Q109.375 24.9512 117.749 18.7988Q126.123 12.6465 132.3 4.24805Q138.477-4.15039 141.895-14.1602Q145.312-24.1699 145.312-35.2051Q145.312-46.2402 141.895-56.2744Q138.477-66.3086 132.3-74.6826Q126.123-83.0566 117.749-89.2578Q109.375-95.459 99.3408-98.8525Q89.3066-102.246 78.2227-102.246Q67.2363-102.246 57.2021-98.8525Q47.168-95.459 38.7939-89.2578Q30.4199-83.0566 24.2432-74.6826Q18.0664-66.3086 14.6729-56.2744Q11.2793-46.2402 11.2793-35.2051Q11.2793-24.1699 14.6729-14.1602Q18.0664-4.15039 24.2432 4.24805Q30.4199 12.6465 38.8184 18.7988Q47.2168 24.9512 57.2266 28.3691Q67.2363 31.7871 78.2715 31.7871ZM78.2715 14.0137Q70.1172 14.0137 62.7197 11.5479Q55.3223 9.08203 49.1943 4.56543Q43.0664 0.0488281 38.5498-6.12793Q34.0332-12.3047 31.543-19.6777Q29.0527-27.0508 29.0527-35.2051Q29.0527-43.4082 31.543-50.8057Q34.0332-58.2031 38.5254-64.3311Q43.0176-70.459 49.1699-74.9756Q55.3223-79.4922 62.6953-81.9824Q70.0684-84.4727 78.2227-84.4727Q86.4258-84.4727 93.8232-81.9824Q101.221-79.4922 107.373-74.9756Q113.525-70.459 118.042-64.3311Q122.559-58.2031 125.049-50.8057Q127.539-43.4082 127.539-35.2051Q127.539-27.0508 125.049-19.6777Q122.559-12.3047 118.042-6.12793Q113.525 0.0488281 107.397 4.56543Q101.27 9.08203 93.8721 11.5479Q86.4746 14.0137 78.2715 14.0137Z"/>
   <path class="hierarchical-1:primary SFSymbolsPreview212121" d="M78.2227-1.17188Q79.3945-1.17188 80.127-1.9043Q80.8594-2.63672 80.8594-3.90625L80.8594-7.71484Q89.3066-8.39844 94.5557-12.8174Q99.8047-17.2363 99.8047-24.5117Q99.8047-31.0059 95.7031-34.7412Q91.6016-38.4766 83.3496-40.1367L80.8594-40.625L80.8594-52.4902Q83.1543-52.0508 84.7168-50.7812Q86.2793-49.5117 87.1094-47.5098Q89.209-43.8477 92.9199-43.8477Q95.459-43.8477 96.9727-45.1904Q98.4863-46.5332 98.4863-48.7305Q98.4863-49.4141 98.3398-50.0732Q98.1934-50.7324 98.0469-51.3672Q96.6797-55.7617 92.2363-58.9111Q87.793-62.0605 80.8594-62.6953L80.8594-66.6504Q80.8594-67.8711 80.127-68.6279Q79.3945-69.3848 78.2227-69.3848Q77.0508-69.3848 76.3184-68.6279Q75.5859-67.8711 75.5859-66.6504L75.5859-62.6953Q70.2148-62.3047 66.0889-60.2051Q61.9629-58.1055 59.5947-54.5654Q57.2266-51.0254 57.2266-46.3379Q57.2266-39.9414 61.3281-36.2061Q65.4297-32.4707 73.291-30.7129L75.5859-30.2734L75.5859-17.8223Q72.7051-18.2129 70.9717-19.6045Q69.2383-20.9961 68.5547-22.998Q67.627-24.8535 66.2598-25.8545Q64.8926-26.8555 62.8418-26.8555Q60.1074-26.8555 58.5938-25.3418Q57.0801-23.8281 57.0801-21.4844Q57.0801-20.8496 57.2021-20.1904Q57.3242-19.5312 57.6172-18.75Q58.9844-14.6484 63.501-11.4258Q68.0176-8.20312 75.5859-7.71484L75.5859-3.90625Q75.5859-2.63672 76.3428-1.9043Q77.0996-1.17188 78.2227-1.17188ZM75.5859-41.8945L75.1465-42.041Q72.2656-42.7734 70.8496-44.0674Q69.4336-45.3613 69.4336-47.3145Q69.4336-49.4141 71.0938-50.8301Q72.7539-52.2461 75.5859-52.6367ZM80.8594-29.0039L81.6895-28.8086Q84.9121-28.0273 86.2793-26.7578Q87.6465-25.4883 87.6465-23.3887Q87.6465-21.0938 85.9131-19.6533Q84.1797-18.2129 80.8594-17.8223Z"/>
  </g>
  <g id="Bold-L" transform="matrix(1 0 0 1 2262.85 1556)">
   <path class="hierarchical-0:secondary SFSymbolsPreview4D4D4D" d="M77.0996 30.6152Q87.9395 30.6152 97.7783 27.2461Q107.617 23.877 115.869 17.8223Q124.121 11.7676 130.176 3.51562Q136.23-4.73633 139.6-14.5752Q142.969-24.4141 142.969-35.2539Q142.969-46.0938 139.6-55.9326Q136.23-65.7715 130.151-73.999Q124.072-82.2266 115.845-88.3057Q107.617-94.3848 97.7539-97.7295Q87.8906-101.074 77.0508-101.074Q66.2598-101.074 56.3965-97.7295Q46.5332-94.3848 38.3301-88.3057Q30.127-82.2266 24.0479-73.999Q17.9688-65.7715 14.624-55.9326Q11.2793-46.0938 11.2793-35.2539Q11.2793-24.4141 14.624-14.5752Q17.9688-4.73633 24.0479 3.51562Q30.127 11.7676 38.3545 17.8223Q46.582 23.877 56.4209 27.2461Q66.2598 30.6152 77.0996 30.6152ZM77.0996 15.8203Q68.6523 15.8203 60.9863 13.2568Q53.3203 10.6934 46.9482 6.00586Q40.5762 1.31836 35.8887-5.07812Q31.2012-11.4746 28.6377-19.1162Q26.0742-26.7578 26.0742-35.2539Q26.0742-43.75 28.6377-51.416Q31.2012-59.082 35.8887-65.4541Q40.5762-71.8262 46.9238-76.4893Q53.2715-81.1523 60.9375-83.7158Q68.6035-86.2793 77.0508-86.2793Q85.5469-86.2793 93.2129-83.7158Q100.879-81.1523 107.275-76.4893Q113.672-71.8262 118.335-65.4541Q122.998-59.082 125.586-51.416Q128.174-43.75 128.174-35.2539Q128.174-26.7578 125.61-19.1162Q123.047-11.4746 118.359-5.07812Q113.672 1.31836 107.3 6.00586Q100.928 10.6934 93.2617 13.2568Q85.5957 15.8203 77.0996 15.8203Z"/>
   <path class="hierarchical-1:primary SFSymbolsPreview212121" d="M77.0508-0.634766Q78.2227-0.634766 78.9795-1.36719Q79.7363-2.09961 79.7363-3.36914L79.7363-7.42188Q87.793-8.10547 92.9443-12.4268Q98.0957-16.748 98.0957-23.877Q98.0957-30.2734 94.0186-34.0332Q89.9414-37.793 81.7383-39.4043L79.7363-39.7949L79.7363-53.9551Q82.5195-53.4668 84.4238-51.9043Q86.3281-50.3418 87.1582-47.8516Q88.8672-44.4824 92.1875-44.4824Q94.3359-44.4824 95.6299-45.6787Q96.9238-46.875 96.9238-48.8281Q96.9238-49.4629 96.8018-50.0488Q96.6797-50.6348 96.5332-51.1719Q95.2637-55.8105 90.8203-59.0088Q86.377-62.207 79.7363-62.8418L79.7363-66.9434Q79.7363-68.1641 78.9795-68.8965Q78.2227-69.6289 77.0508-69.6289Q75.8789-69.6289 75.1465-68.8965Q74.4141-68.1641 74.4141-66.9434L74.4141-62.8418Q69.2871-62.4023 65.3076-60.3271Q61.3281-58.252 59.0576-54.834Q56.7871-51.416 56.7871-46.875Q56.7871-40.7227 60.8398-37.0117Q64.8926-33.3008 72.7051-31.543L74.4141-31.1523L74.4141-16.2598Q70.9473-16.6992 68.8232-18.4326Q66.6992-20.166 66.0156-22.7051Q65.2832-24.4141 64.0869-25.3174Q62.8906-26.2207 61.1328-26.2207Q58.8379-26.2207 57.5439-24.9023Q56.25-23.584 56.25-21.5332Q56.25-20.9473 56.3477-20.3613Q56.4453-19.7754 56.6895-19.1406Q58.0078-14.5508 62.6221-11.2793Q67.2363-8.00781 74.4141-7.4707L74.4141-3.36914Q74.4141-2.09961 75.1709-1.36719Q75.9277-0.634766 77.0508-0.634766ZM74.4141-41.1133L73.9746-41.2598Q70.5078-42.1875 68.7988-43.7256Q67.0898-45.2637 67.0898-47.6074Q67.0898-50.0977 69.0918-51.8555Q71.0938-53.6133 74.4141-54.0527ZM79.7363-29.8828L80.7617-29.6387Q84.5703-28.6621 86.1816-27.0996Q87.793-25.5371 87.793-23.0469Q87.793-20.2637 85.7178-18.457Q83.6426-16.6504 79.7363-16.2598Z"/>
  </g>
  <g id="Semibold-L" transform="matrix(1 0 0 1 1966.97 1556)">
   <path class="hierarchical-0:secondary SFSymbolsPreview4D4D4D" d="M76.2695 29.7852Q86.9629 29.7852 96.6797 26.4648Q106.396 23.1445 114.551 17.1631Q122.705 11.1816 128.687 3.02734Q134.668-5.12695 137.988-14.8438Q141.309-24.5605 141.309-35.2539Q141.309-45.9473 137.988-55.6641Q134.668-65.3809 128.662-73.5107Q122.656-81.6406 114.526-87.6465Q106.396-93.6523 96.6553-96.9727Q86.9141-100.293 76.2207-100.293Q65.5273-100.293 55.8105-96.9727Q46.0938-93.6523 37.9883-87.6465Q29.8828-81.6406 23.877-73.5107Q17.8711-65.3809 14.5752-55.6641Q11.2793-45.9473 11.2793-35.2539Q11.2793-24.5605 14.5996-14.8438Q17.9199-5.12695 23.9014 3.02734Q29.8828 11.1816 38.0127 17.1631Q46.1426 23.1445 55.8594 26.4648Q65.5762 29.7852 76.2695 29.7852ZM76.2695 17.041Q67.627 17.041 59.7656 14.4043Q51.9043 11.7676 45.3857 6.98242Q38.8672 2.19727 34.0576-4.3457Q29.248-10.8887 26.6357-18.7256Q24.0234-26.5625 24.0234-35.2539Q24.0234-43.9453 26.6357-51.8066Q29.248-59.668 34.0332-66.1865Q38.8184-72.7051 45.3369-77.4902Q51.8555-82.2754 59.7168-84.9121Q67.5781-87.5488 76.2207-87.5488Q84.9609-87.5488 92.7979-84.9121Q100.635-82.2754 107.178-77.4902Q113.721-72.7051 118.506-66.1865Q123.291-59.668 125.928-51.8066Q128.564-43.9453 128.564-35.2539Q128.613-26.5625 126.001-18.7256Q123.389-10.8887 118.579-4.3457Q113.77 2.19727 107.227 6.98242Q100.684 11.7676 92.8467 14.4043Q85.0098 17.041 76.2695 17.041Z"/>
   <path class="hierarchical-1:primary SFSymbolsPreview212121" d="M76.2207-0.244141Q77.3926-0.244141 78.1494-0.976562Q78.9062-1.70898 78.9062-2.97852L78.9062-7.22656Q86.7676-7.91016 91.8457-12.1582Q96.9238-16.4062 96.9238-23.4375Q96.9238-29.7852 92.8467-33.5449Q88.7695-37.3047 80.6152-38.916L78.9062-39.209L78.9062-54.9316Q82.0312-54.4434 84.2041-52.6611Q86.377-50.8789 87.207-48.0957Q88.623-44.9219 91.6016-44.9219Q93.5059-44.9219 94.6533-46.0205Q95.8008-47.1191 95.8008-48.877Q95.8008-49.4629 95.7031-49.9756Q95.6055-50.4883 95.5078-51.0254Q94.2383-55.8105 89.7949-59.0576Q85.3516-62.3047 78.9062-62.9395L78.9062-67.0898Q78.9062-68.3105 78.1494-69.0674Q77.3926-69.8242 76.2207-69.8242Q75.0488-69.8242 74.3164-69.0674Q73.584-68.3105 73.584-67.0898L73.584-62.9395Q68.5547-62.4512 64.7217-60.4004Q60.8887-58.3496 58.6426-54.9805Q56.3965-51.6113 56.3965-47.2168Q56.3965-41.2109 60.4248-37.5244Q64.4531-33.8379 72.2656-32.0801L73.584-31.7871L73.584-15.1367Q69.6777-15.6738 67.3096-17.627Q64.9414-19.5801 64.2578-22.4609Q63.623-24.0723 62.5732-24.9023Q61.5234-25.7324 59.9121-25.7324Q57.959-25.7324 56.7871-24.5605Q55.6152-23.3887 55.6152-21.582Q55.6152-20.9961 55.7129-20.4834Q55.8105-19.9707 56.0059-19.3359Q57.3242-14.502 61.9873-11.1572Q66.6504-7.8125 73.584-7.27539L73.584-2.97852Q73.584-1.70898 74.3408-0.976562Q75.0977-0.244141 76.2207-0.244141ZM73.584-40.5762L73.1445-40.6738Q69.2383-41.7969 67.3584-43.5059Q65.4785-45.2148 65.4785-47.8027Q65.4785-50.5371 67.6758-52.5146Q69.873-54.4922 73.584-54.9805ZM78.9062-30.4688L80.0293-30.1758Q84.2773-29.0527 86.084-27.2949Q87.8906-25.5371 87.8906-22.8027Q87.8906-19.6777 85.5713-17.627Q83.252-15.5762 78.9062-15.1367Z"/>
  </g>
  <g id="Medium-L" transform="matrix(1 0 0 1 1670.87 1556)">
   <path class="hierarchical-0:secondary SFSymbolsPreview4D4D4D" d="M75.6836 29.1504Q86.2305 29.1504 95.8496 25.8545Q105.469 22.5586 113.55 16.626Q121.631 10.6934 127.563 2.63672Q133.496-5.41992 136.792-15.0635Q140.088-24.707 140.088-35.2539Q140.088-45.8496 136.792-55.4688Q133.496-65.0879 127.539-73.1445Q121.582-81.2012 113.525-87.1582Q105.469-93.1152 95.8252-96.3867Q86.1816-99.6582 75.6348-99.6582Q65.0391-99.6582 55.4199-96.3867Q45.8008-93.1152 37.7441-87.1582Q29.6875-81.2012 23.7549-73.1445Q17.8223-65.0879 14.5508-55.4688Q11.2793-45.8496 11.2793-35.2539Q11.2793-24.707 14.5508-15.0635Q17.8223-5.41992 23.7549 2.63672Q29.6875 10.6934 37.7686 16.626Q45.8496 22.5586 55.4688 25.8545Q65.0879 29.1504 75.6836 29.1504ZM75.6836 18.0176Q66.8457 18.0176 58.8379 15.332Q50.8301 12.6465 44.2139 7.76367Q37.5977 2.88086 32.6904-3.78418Q27.7832-10.4492 25.1221-18.4326Q22.4609-26.416 22.4609-35.2539Q22.4609-44.1406 25.1221-52.124Q27.7832-60.1074 32.666-66.748Q37.5488-73.3887 44.165-78.2715Q50.7812-83.1543 58.7891-85.8154Q66.7969-88.4766 75.6348-88.4766Q84.4727-88.4766 92.4805-85.8154Q100.488-83.1543 107.129-78.2715Q113.77-73.3887 118.652-66.748Q123.535-60.1074 126.221-52.124Q128.906-44.1406 128.906-35.2539Q128.955-26.416 126.294-18.4326Q123.633-10.4492 118.726-3.78418Q113.818 2.88086 107.178 7.76367Q100.537 12.6465 92.5293 15.332Q84.5215 18.0176 75.6836 18.0176Z"/>
   <path class="hierarchical-1:primary SFSymbolsPreview212121" d="M75.6348 0Q76.8066 0 77.5635-0.732422Q78.3203-1.46484 78.3203-2.68555L78.3203-7.08008Q85.9863-7.71484 91.0156-11.9385Q96.0449-16.1621 96.0449-23.1445Q96.0449-29.3945 91.9922-33.1787Q87.9395-36.9629 79.7852-38.5254L78.3203-38.8184L78.3203-55.7129Q81.7383-55.1758 84.082-53.2471Q86.4258-51.3184 87.2559-48.2422Q88.4766-45.2637 91.2598-45.2637Q92.9199-45.2637 93.9697-46.2646Q95.0195-47.2656 95.0195-48.9258Q95.0195-49.4629 94.9463-49.9512Q94.873-50.4395 94.7266-50.9766Q93.5059-55.8105 89.0625-59.082Q84.6191-62.3535 78.3203-62.9883L78.3203-67.2363Q78.3203-68.457 77.5635-69.1895Q76.8066-69.9219 75.6348-69.9219Q74.4629-69.9219 73.7305-69.1895Q72.998-68.457 72.998-67.2363L72.998-62.9883Q68.1152-62.5488 64.3311-60.498Q60.5469-58.4473 58.374-55.127Q56.2012-51.8066 56.2012-47.5098Q56.2012-41.6016 60.2051-37.9395Q64.209-34.2773 72.0215-32.4707L72.998-32.2266L72.998-14.3066Q68.7988-14.8438 66.2354-16.9922Q63.6719-19.1406 62.9883-22.3145Q62.4023-23.8281 61.4502-24.6094Q60.498-25.3906 59.0332-25.3906Q57.3242-25.3906 56.2744-24.3408Q55.2246-23.291 55.2246-21.582Q55.2246-21.0938 55.3223-20.5811Q55.4199-20.0684 55.5664-19.5312Q56.8848-14.4043 61.5967-11.0596Q66.3086-7.71484 72.998-7.17773L72.998-2.68555Q72.998-1.46484 73.7549-0.732422Q74.5117 0 75.6348 0ZM72.998-40.1367L72.5586-40.2832Q68.3105-41.4551 66.2842-43.2861Q64.2578-45.1172 64.2578-47.9492Q64.2578-50.8789 66.6504-53.0273Q69.043-55.1758 72.998-55.7129ZM78.3203-30.9082L79.5898-30.6152Q84.1309-29.3945 86.0596-27.4658Q87.9883-25.5371 87.9883-22.6074Q87.9883-19.2871 85.5225-17.041Q83.0566-14.7949 78.3203-14.3066Z"/>
  </g>
  <g id="Regular-L" transform="matrix(1 0 0 1 1374.97 1556)">
   <path class="hierarchical-0:secondary SFSymbolsPreview4D4D4D" d="M74.8535 28.3203Q85.3027 28.3203 94.7998 25.0732Q104.297 21.8262 112.256 15.9668Q120.215 10.1074 126.099 2.14844Q131.982-5.81055 135.229-15.332Q138.477-24.8535 138.477-35.2539Q138.477-45.7031 135.229-55.2002Q131.982-64.6973 126.099-72.6562Q120.215-80.6152 112.256-86.499Q104.297-92.3828 94.7754-95.6299Q85.2539-98.877 74.8047-98.877Q64.3555-98.877 54.8584-95.6299Q45.3613-92.3828 37.4268-86.499Q29.4922-80.6152 23.6084-72.6562Q17.7246-64.6973 14.502-55.2002Q11.2793-45.7031 11.2793-35.2539Q11.2793-24.8535 14.5264-15.332Q17.7734-5.81055 23.6328 2.14844Q29.4922 10.1074 37.4512 15.9668Q45.4102 21.8262 54.9072 25.0732Q64.4043 28.3203 74.8535 28.3203ZM74.8535 19.2383Q65.8203 19.2383 57.6416 16.4795Q49.4629 13.7207 42.6758 8.74023Q35.8887 3.75977 30.8838-3.05176Q25.8789-9.86328 23.1445-18.042Q20.4102-26.2207 20.4102-35.2539Q20.4102-44.3359 23.1445-52.5146Q25.8789-60.6934 30.8594-67.5049Q35.8398-74.3164 42.627-79.2969Q49.4141-84.2773 57.5928-87.0117Q65.7715-89.7461 74.8047-89.7461Q83.8867-89.7461 92.0654-87.0117Q100.244-84.2773 107.056-79.2969Q113.867-74.3164 118.848-67.5049Q123.828-60.6934 126.587-52.5146Q129.346-44.3359 129.346-35.2539Q129.395-26.2207 126.66-18.042Q123.926-9.86328 118.921-3.05176Q113.916 3.75977 107.104 8.74023Q100.293 13.7207 92.1143 16.4795Q83.9355 19.2383 74.8535 19.2383Z"/>
   <path class="hierarchical-1:primary SFSymbolsPreview212121" d="M74.8047 0.390625Q75.9766 0.390625 76.7578-0.341797Q77.5391-1.07422 77.5391-2.29492L77.5391-6.88477Q84.9609-7.51953 89.917-11.6699Q94.873-15.8203 94.873-22.7051Q94.873-28.9062 90.8203-32.6904Q86.7676-36.4746 78.6621-38.0371L77.5391-38.2324L77.5391-56.6895Q81.2988-56.1523 83.8867-54.0039Q86.4746-51.8555 87.3047-48.4863Q88.2324-45.7031 90.7227-45.7031Q92.1387-45.7031 93.042-46.6064Q93.9453-47.5098 93.9453-48.9746Q93.9453-49.4629 93.8721-49.9023Q93.7988-50.3418 93.7012-50.8301Q92.4805-55.8594 88.0615-59.1553Q83.6426-62.4512 77.5391-63.0859L77.5391-67.4316Q77.5391-68.6523 76.7578-69.3848Q75.9766-70.1172 74.8047-70.1172Q73.6328-70.1172 72.9004-69.3848Q72.168-68.6523 72.168-67.4316L72.168-63.0859Q67.4316-62.5977 63.7695-60.5713Q60.1074-58.5449 57.9834-55.2979Q55.8594-52.0508 55.8594-47.8516Q55.8594-42.0898 59.8145-38.4521Q63.7695-34.8145 71.582-33.0078L72.168-32.8613L72.168-13.2324Q67.5781-13.8184 64.7461-16.1865Q61.9141-18.5547 61.2305-22.1191Q60.791-23.5352 59.9609-24.2432Q59.1309-24.9512 57.8613-24.9512Q56.4453-24.9512 55.542-24.0234Q54.6387-23.0957 54.6387-21.6309Q54.6387-21.1426 54.7119-20.7031Q54.7852-20.2637 54.8828-19.7754Q56.2012-14.3555 60.9619-10.9619Q65.7227-7.56836 72.168-6.98242L72.168-2.29492Q72.168-1.07422 72.9248-0.341797Q73.6816 0.390625 74.8047 0.390625ZM72.168-39.5996L71.7285-39.7461Q67.0898-41.0645 64.8682-43.0664Q62.6465-45.0684 62.6465-48.1445Q62.6465-51.3672 65.2588-53.7354Q67.8711-56.1035 72.168-56.6895ZM77.5391-31.4941L78.9062-31.1523Q83.8867-29.834 85.9863-27.71Q88.0859-25.5859 88.0859-22.3633Q88.0859-18.7012 85.376-16.2109Q82.666-13.7207 77.5391-13.2324Z"/>
  </g>
  <g id="Light-L" transform="matrix(1 0 0 1 1079.18 1556)">
   <path class="hierarchical-0:secondary SFSymbolsPreview4D4D4D" d="M73.9258 27.3926Q84.2285 27.3926 93.6035 24.1943Q102.979 20.9961 110.815 15.2344Q118.652 9.47266 124.438 1.63574Q130.225-6.20117 133.423-15.5762Q136.621-24.9512 136.621-35.2539Q136.621-45.5566 133.423-54.9316Q130.225-64.3066 124.438-72.1436Q118.652-79.9805 110.815-85.7666Q102.979-91.5527 93.6035-94.751Q84.2285-97.9492 73.877-97.9492Q63.5742-97.9492 54.2236-94.751Q44.873-91.5527 37.0361-85.7666Q29.1992-79.9805 23.4131-72.1436Q17.627-64.3066 14.4531-54.9316Q11.2793-45.5566 11.2793-35.2539Q11.2793-24.9512 14.4775-15.5762Q17.6758-6.20117 23.4375 1.63574Q29.1992 9.47266 37.0361 15.2344Q44.873 20.9961 54.248 24.1943Q63.623 27.3926 73.9258 27.3926ZM73.9258 20.5078Q64.6973 20.5078 56.3232 17.6758Q47.9492 14.8438 40.9912 9.74121Q34.0332 4.63867 28.9307-2.31934Q23.8281-9.27734 21.0205-17.6514Q18.2129-26.0254 18.2129-35.2539Q18.2129-44.5312 21.0205-52.8809Q23.8281-61.2305 28.9307-68.2129Q34.0332-75.1953 40.9912-80.2979Q47.9492-85.4004 56.2988-88.208Q64.6484-91.0156 73.877-91.0156Q83.1543-91.0156 91.5283-88.208Q99.9023-85.4004 106.86-80.2979Q113.818-75.1953 118.945-68.2129Q124.072-61.2305 126.88-52.8809Q129.688-44.5312 129.688-35.2539Q129.736-26.0254 126.929-17.6514Q124.121-9.27734 118.994-2.31934Q113.867 4.63867 106.909 9.74121Q99.9512 14.8438 91.5771 17.6758Q83.2031 20.5078 73.9258 20.5078Z"/>
   <path class="hierarchical-1:primary SFSymbolsPreview212121" d="M73.9258-0.0976562Q74.9023-0.0976562 75.5615-0.708008Q76.2207-1.31836 76.2207-2.34375L76.2207-7.17773Q83.7891-7.71484 88.6719-11.8652Q93.5547-16.0156 93.5547-22.5586Q93.5547-28.4668 89.6484-32.0801Q85.7422-35.6934 77.7344-37.3535L76.2207-37.6465L76.2207-57.3242Q80.5664-56.8848 83.5205-54.5166Q86.4746-52.1484 87.2559-48.4863Q87.9395-46.1426 89.9902-46.1426Q91.1621-46.1426 91.8701-46.875Q92.5781-47.6074 92.5781-48.8281Q92.5781-49.2676 92.5293-49.6582Q92.4805-50.0488 92.3828-50.4883Q91.2598-55.4199 86.8408-58.7158Q82.4219-62.0117 76.2207-62.5488L76.2207-66.8945Q76.2207-67.9199 75.5615-68.5547Q74.9023-69.1895 73.9258-69.1895Q72.9004-69.1895 72.29-68.5791Q71.6797-67.9688 71.6797-66.8945L71.6797-62.5488Q67.041-62.1582 63.4033-60.1807Q59.7656-58.2031 57.6172-55.0537Q55.4688-51.9043 55.4688-47.8516Q55.4688-42.3828 59.3262-38.8428Q63.1836-35.3027 70.8984-33.5449L71.6797-33.3496L71.6797-12.3535Q66.6504-12.8906 63.3789-15.5518Q60.1074-18.2129 59.5215-22.2168Q59.2285-23.3887 58.5693-23.999Q57.9102-24.6094 56.7871-24.6094Q55.6641-24.6094 54.9316-23.877Q54.1992-23.1445 54.1992-21.875Q54.1992-21.4355 54.2725-21.0205Q54.3457-20.6055 54.4434-20.166Q55.6641-14.7461 60.3516-11.2549Q65.0391-7.76367 71.6797-7.27539L71.6797-2.34375Q71.6797-1.26953 72.3145-0.683594Q72.9492-0.0976562 73.9258-0.0976562ZM71.6797-38.8184L71.2891-38.916Q66.1133-40.2832 63.501-42.4316Q60.8887-44.5801 60.8887-48.0469Q60.8887-51.709 63.9404-54.2725Q66.9922-56.8359 71.6797-57.3242ZM76.2207-32.2266L77.5879-31.8848Q83.2031-30.4688 85.6689-28.1982Q88.1348-25.9277 88.1348-22.3145Q88.1348-18.2617 84.9609-15.5273Q81.7871-12.793 76.2207-12.3535Z"/>
  </g>
  <g id="Thin-L" transform="matrix(1 0 0 1 783.693 1556)">
   <path class="hierarchical-0:secondary SFSymbolsPreview4D4D4D" d="M72.7051 26.1719Q82.8613 26.1719 92.041 23.0469Q101.221 19.9219 108.911 14.2822Q116.602 8.64258 122.266 0.952148Q127.93-6.73828 131.055-15.9424Q134.18-25.1465 134.18-35.2539Q134.18-45.4102 131.055-54.5898Q127.93-63.7695 122.29-71.46Q116.65-79.1504 108.936-84.8145Q101.221-90.4785 92.0166-93.6035Q82.8125-96.7285 72.7051-96.7285Q62.5488-96.7285 53.3691-93.6035Q44.1895-90.4785 36.499-84.8145Q28.8086-79.1504 23.1689-71.46Q17.5293-63.7695 14.4043-54.5898Q11.2793-45.4102 11.2793-35.2539Q11.2793-25.1465 14.4043-15.9424Q17.5293-6.73828 23.1689 0.952148Q28.8086 8.64258 36.5234 14.2822Q44.2383 19.9219 53.418 23.0469Q62.5977 26.1719 72.7051 26.1719ZM72.7051 22.168Q63.2324 22.168 54.6143 19.2627Q45.9961 16.3574 38.8184 11.084Q31.6406 5.81055 26.3428-1.36719Q21.0449-8.54492 18.1641-17.1631Q15.2832-25.7812 15.2832-35.2539Q15.2832-44.7754 18.1641-53.3936Q21.0449-62.0117 26.3428-69.1895Q31.6406-76.3672 38.8184-81.6406Q45.9961-86.9141 54.5898-89.8193Q63.1836-92.7246 72.7051-92.7246Q82.2266-92.7246 90.8203-89.8193Q99.4141-86.9141 106.616-81.6406Q113.818-76.3672 119.092-69.1895Q124.365-62.0117 127.271-53.3936Q130.176-44.7754 130.176-35.2539Q130.176-25.7812 127.271-17.1631Q124.365-8.54492 119.092-1.36719Q113.818 5.81055 106.641 11.084Q99.4629 16.3574 90.8447 19.2627Q82.2266 22.168 72.7051 22.168Z"/>
   <path class="hierarchical-1:primary SFSymbolsPreview212121" d="M72.6562-0.683594Q73.3887-0.683594 73.9014-1.17188Q74.4141-1.66016 74.4141-2.34375L74.4141-7.56836Q82.1777-8.00781 86.9873-12.1338Q91.7969-16.2598 91.7969-22.3145Q91.7969-27.832 88.0371-31.25Q84.2773-34.668 76.4648-36.4746L74.4141-36.9141L74.4141-58.2031Q79.541-57.8125 83.0078-55.1514Q86.4746-52.4902 87.0605-48.5352Q87.4512-46.6797 88.9648-46.6797Q89.7461-46.6797 90.2588-47.1924Q90.7715-47.7051 90.7715-48.584Q90.7715-48.9746 90.6982-49.3408Q90.625-49.707 90.5762-50.0977Q89.5996-54.834 85.1807-58.1299Q80.7617-61.4258 74.4141-61.8164L74.4141-66.2598Q74.4141-66.9922 73.9014-67.4561Q73.3887-67.9199 72.6562-67.9199Q71.875-67.9199 71.4355-67.4805Q70.9961-67.041 70.9961-66.2598L70.9961-61.8164Q66.5039-61.5234 62.8662-59.6436Q59.2285-57.7637 57.0557-54.7119Q54.8828-51.6602 54.8828-47.8027Q54.8828-42.7246 58.6182-39.3555Q62.3535-35.9863 69.9219-34.1797L70.9961-33.9844L70.9961-11.1816Q65.2832-11.6211 61.499-14.6729Q57.7148-17.7246 57.1777-22.3633Q57.0801-23.2422 56.6406-23.7305Q56.2012-24.2188 55.3223-24.2188Q54.5898-24.2188 54.1016-23.6816Q53.6133-23.1445 53.6133-22.2168Q53.6133-21.8262 53.6621-21.46Q53.7109-21.0938 53.7598-20.7031Q54.834-15.2832 59.4727-11.6699Q64.1113-8.05664 70.9961-7.66602L70.9961-2.34375Q70.9961-1.5625 71.46-1.12305Q71.9238-0.683594 72.6562-0.683594ZM70.9961-37.7441L70.6543-37.793Q64.6973-39.2578 61.6211-41.6016Q58.5449-43.9453 58.5449-47.8516Q58.5449-52.0996 62.1582-54.9561Q65.7715-57.8125 70.9961-58.2031ZM74.4141-33.2031L75.7812-32.8613Q82.2266-31.3477 85.2051-28.8574Q88.1836-26.3672 88.1836-22.2656Q88.1836-17.6758 84.3994-14.5996Q80.6152-11.5234 74.4141-11.1816Z"/>
  </g>
  <g id="Ultralight-L" transform="matrix(1 0 0 1 487.592 1556)">
   <path class="hierarchical-0:secondary SFSymbolsPreview4D4D4D" d="M72.0703 25.5371Q82.1289 25.5371 91.2354 22.4609Q100.342 19.3848 107.935 13.7939Q115.527 8.20312 121.143 0.585938Q126.758-7.03125 129.858-16.1133Q132.959-25.1953 132.959-35.2539Q132.959-45.3125 129.858-54.4189Q126.758-63.5254 121.167-71.1182Q115.576-78.7109 107.959-84.3262Q100.342-89.9414 91.2354-93.0176Q82.1289-96.0938 72.0703-96.0938Q62.0605-96.0938 52.9541-93.0176Q43.8477-89.9414 36.2305-84.3262Q28.6133-78.7109 23.0225-71.1182Q17.4316-63.5254 14.3555-54.4189Q11.2793-45.3125 11.2793-35.2539Q11.2793-25.1953 14.3555-16.1133Q17.4316-7.03125 23.0225 0.585938Q28.6133 8.20312 36.2305 13.7939Q43.8477 19.3848 52.9541 22.4609Q62.0605 25.5371 72.0703 25.5371ZM72.0703 23.0469Q62.4512 23.0469 53.7109 20.0928Q44.9707 17.1387 37.6709 11.792Q30.3711 6.44531 25.0244-0.854492Q19.6777-8.1543 16.7236-16.8945Q13.7695-25.6348 13.7695-35.2539Q13.7695-44.9219 16.7236-53.6377Q19.6777-62.3535 25.0244-69.6533Q30.3711-76.9531 37.6953-82.3242Q45.0195-87.6953 53.7354-90.6494Q62.4512-93.6035 72.0703-93.6035Q81.7383-93.6035 90.4785-90.6494Q99.2188-87.6953 106.494-82.3242Q113.77-76.9531 119.141-69.6533Q124.512-62.3535 127.466-53.6377Q130.42-44.9219 130.42-35.2539Q130.371-25.6348 127.441-16.8945Q124.512-8.1543 119.141-0.854492Q113.77 6.44531 106.494 11.792Q99.2188 17.1387 90.4785 20.0928Q81.7383 23.0469 72.0703 23.0469Z"/>
   <path class="hierarchical-1:primary SFSymbolsPreview212121" d="M72.0703-1.02539Q72.6562-1.02539 73.0957-1.41602Q73.5352-1.80664 73.5352-2.39258L73.5352-7.8125Q81.4453-8.1543 86.1816-12.2803Q90.918-16.4062 90.918-22.2168Q90.918-27.5391 87.2559-30.8594Q83.5938-34.1797 75.8301-36.0352L73.5352-36.5234L73.5352-58.6426Q79.0527-58.3008 82.7637-55.4932Q86.4746-52.6855 87.0605-48.5352Q87.2559-46.9727 88.4766-46.9727Q89.1113-46.9727 89.4775-47.3877Q89.8438-47.8027 89.8438-48.4863Q89.8438-48.8281 89.7949-49.1699Q89.7461-49.5117 89.6973-49.8535Q88.7695-54.541 84.3506-57.8369Q79.9316-61.1328 73.5352-61.4746L73.5352-65.8691Q73.5352-66.5039 73.0957-66.8945Q72.6562-67.2852 72.0703-67.2852Q71.4355-67.2852 71.0449-66.9189Q70.6543-66.5527 70.6543-65.8691L70.6543-61.4746Q66.2598-61.2305 62.6221-59.3994Q58.9844-57.5684 56.8115-54.5654Q54.6387-51.5625 54.6387-47.8027Q54.6387-42.9199 58.3008-39.624Q61.9629-36.3281 69.4824-34.5703L70.6543-34.3262L70.6543-10.5957Q64.6973-10.9863 60.5957-14.2334Q56.4941-17.4805 56.0547-22.4609Q56.0059-23.1445 55.6885-23.5596Q55.3711-23.9746 54.6387-23.9746Q54.1016-23.9746 53.7109-23.584Q53.3203-23.1934 53.3203-22.4121Q53.3203-22.0703 53.3691-21.7041Q53.418-21.3379 53.4668-20.9961Q54.4922-15.5273 59.082-11.8652Q63.6719-8.20312 70.6543-7.86133L70.6543-2.39258Q70.6543-1.70898 71.0693-1.36719Q71.4844-1.02539 72.0703-1.02539ZM70.6543-37.207L70.3613-37.2559Q64.0625-38.7207 60.7178-41.1621Q57.373-43.6035 57.373-47.8027Q57.373-52.3438 61.2793-55.3467Q65.1855-58.3496 70.6543-58.6426ZM73.5352-33.6914L74.9023-33.3496Q81.7383-31.7871 84.9854-29.1748Q88.2324-26.5625 88.2324-22.2168Q88.2324-17.3828 84.1309-14.1357Q80.0293-10.8887 73.5352-10.5957Z"/>
  </g>
  <g id="Black-M" transform="matrix(1 0 0 1 2871.32 1126)">
   <path class="hierarchical-0:secondary SFSymbolsPreview4D4D4D" d="M62.0605 18.1152Q73.0957 18.1152 82.7637 13.9648Q92.4316 9.81445 99.7559 2.46582Q107.08-4.88281 111.255-14.5264Q115.43-24.1699 115.43-35.2051Q115.43-46.2402 111.255-55.8838Q107.08-65.5273 99.7559-72.876Q92.4316-80.2246 82.7637-84.375Q73.0957-88.5254 62.0605-88.5254Q51.0742-88.5254 41.4062-84.375Q31.7383-80.2246 24.3896-72.876Q17.041-65.5273 12.8906-55.8838Q8.74023-46.2402 8.74023-35.2051Q8.74023-24.1699 12.8906-14.5264Q17.041-4.88281 24.3896 2.46582Q31.7383 9.81445 41.4062 13.9648Q51.0742 18.1152 62.0605 18.1152ZM62.0605 0.732422Q54.6387 0.732422 48.1201-2.05078Q41.6016-4.83398 36.6455-9.76562Q31.6895-14.6973 28.9062-21.2158Q26.123-27.7344 26.123-35.2051Q26.123-42.6758 28.9062-49.1943Q31.6895-55.7129 36.6455-60.6445Q41.6016-65.5762 48.1201-68.3594Q54.6387-71.1426 62.0605-71.1426Q69.5312-71.1426 76.0498-68.3594Q82.5684-65.5762 87.5-60.6445Q92.4316-55.7129 95.2393-49.1943Q98.0469-42.6758 98.0469-35.2051Q98.0469-27.7344 95.2393-21.2158Q92.4316-14.6973 87.5-9.76562Q82.5684-4.83398 76.0498-2.05078Q69.5312 0.732422 62.0605 0.732422Z"/>
   <path class="hierarchical-1:primary SFSymbolsPreview212121" d="M62.0117-9.76562Q62.8418-9.76562 63.3789-10.3027Q63.916-10.8398 63.916-11.7676L63.916-14.4043Q70.9473-14.9414 75.1465-18.5059Q79.3457-22.0703 79.3457-27.7832Q79.3457-32.8613 76.2207-35.6934Q73.0957-38.5254 66.6504-39.8438L63.916-40.4297L63.916-46.6797Q65.0879-46.4355 65.918-45.8252Q66.748-45.2148 67.334-44.2871Q69.4824-41.1133 72.8516-41.1133Q75.293-41.1133 76.709-42.3096Q78.125-43.5059 78.125-45.5566Q78.125-46.1426 78.0029-46.7529Q77.8809-47.3633 77.6855-47.9004Q76.6113-50.9277 73.1445-53.3203Q69.6777-55.7129 63.916-56.1523L63.916-58.9844Q63.916-59.9121 63.3789-60.4492Q62.8418-60.9863 62.0117-60.9863Q60.1562-60.9863 60.1562-58.9844L60.1562-56.1523Q53.4668-55.7617 49.1943-52.2705Q44.9219-48.7793 44.9219-43.1152Q44.9219-37.9395 48.1445-34.9854Q51.3672-32.0312 57.4707-30.7617L60.1562-30.1758L60.1562-23.7793Q58.5938-23.9746 57.6416-24.6338Q56.6895-25.293 56.2012-26.2207Q55.3223-27.7832 54.0283-28.6865Q52.7344-29.5898 50.8301-29.5898Q48.1445-29.5898 46.7285-28.1982Q45.3125-26.8066 45.3125-24.5605Q45.3125-24.0234 45.4102-23.4131Q45.5078-22.8027 45.8496-22.1191Q46.9238-19.5801 50.293-17.1387Q53.6621-14.6973 60.1562-14.3555L60.1562-11.7676Q60.1562-10.8398 60.6689-10.3027Q61.1816-9.76562 62.0117-9.76562ZM60.1562-41.2598L59.8145-41.3574Q58.252-41.6992 57.4463-42.3828Q56.6406-43.0664 56.6406-44.1406Q56.6406-45.3125 57.5928-46.0449Q58.5449-46.7773 60.1562-46.875ZM63.916-29.3945L64.2578-29.2969Q66.0645-28.9551 66.8701-28.3203Q67.6758-27.6855 67.6758-26.5625Q67.6758-25.3418 66.6748-24.6582Q65.6738-23.9746 63.916-23.7793Z"/>
  </g>
  <g id="Heavy-M" transform="matrix(1 0 0 1 2575.43 1126)">
   <path class="hierarchical-0:secondary SFSymbolsPreview4D4D4D" d="M61.2305 17.2852Q72.0703 17.2852 81.5918 13.1836Q91.1133 9.08203 98.3154 1.85547Q105.518-5.37109 109.644-14.8682Q113.77-24.3652 113.77-35.2051Q113.77-46.0449 109.644-55.542Q105.518-65.0391 98.3154-72.29Q91.1133-79.541 81.5918-83.6182Q72.0703-87.6953 61.2305-87.6953Q50.4395-87.6953 40.918-83.6182Q31.3965-79.541 24.1699-72.29Q16.9434-65.0391 12.8418-55.542Q8.74023-46.0449 8.74023-35.2051Q8.74023-24.3652 12.8418-14.8682Q16.9434-5.37109 24.1699 1.85547Q31.3965 9.08203 40.918 13.1836Q50.4395 17.2852 61.2305 17.2852ZM61.2305 2.05078Q53.5156 2.05078 46.7529-0.854492Q39.9902-3.75977 34.8633-8.8623Q29.7363-13.9648 26.8555-20.7275Q23.9746-27.4902 23.9746-35.2051Q23.9746-42.9688 26.8555-49.7314Q29.7363-56.4941 34.8633-61.5967Q39.9902-66.6992 46.7529-69.5801Q53.5156-72.4609 61.2305-72.4609Q68.9453-72.4609 75.708-69.5801Q82.4707-66.6992 87.5977-61.5967Q92.7246-56.4941 95.6299-49.7314Q98.5352-42.9688 98.5352-35.2051Q98.5352-27.4902 95.6299-20.7275Q92.7246-13.9648 87.6221-8.8623Q82.5195-3.75977 75.7568-0.854492Q68.9941 2.05078 61.2305 2.05078Z"/>
   <path class="hierarchical-1:primary SFSymbolsPreview212121" d="M61.1816-9.17969Q62.0605-9.17969 62.6221-9.74121Q63.1836-10.3027 63.1836-11.2793L63.1836-14.1113Q69.9219-14.6484 74.0479-18.1152Q78.1738-21.582 78.1738-27.2461Q78.1738-32.3242 75.0244-35.2051Q71.875-38.0859 65.4297-39.3555L63.1836-39.8438L63.1836-47.8027Q64.6973-47.5098 65.7471-46.6797Q66.7969-45.8496 67.4316-44.5801Q69.2871-41.6016 72.3633-41.6016Q74.5117-41.6016 75.7812-42.7002Q77.0508-43.7988 77.0508-45.6543Q77.0508-46.1914 76.9531-46.7529Q76.8555-47.3145 76.6602-47.8027Q75.6348-51.0742 72.168-53.4912Q68.7012-55.9082 63.1836-56.3965L63.1836-59.3262Q63.1836-60.3027 62.6221-60.8643Q62.0605-61.4258 61.1816-61.4258Q59.2285-61.4258 59.2285-59.3262L59.2285-56.3965Q52.7832-55.957 48.6816-52.5146Q44.5801-49.0723 44.5801-43.5547Q44.5801-38.5254 47.7783-35.5957Q50.9766-32.666 57.0801-31.3477L59.2285-30.8594L59.2285-22.5586Q57.2266-22.8516 56.0547-23.7549Q54.8828-24.6582 54.3945-25.9277Q53.6133-27.3926 52.4414-28.2471Q51.2695-29.1016 49.5605-29.1016Q47.2168-29.1016 45.9473-27.832Q44.6777-26.5625 44.6777-24.5605Q44.6777-24.0723 44.7754-23.5107Q44.873-22.9492 45.1172-22.3145Q46.1914-19.3848 49.6582-16.9189Q53.125-14.4531 59.2285-14.0625L59.2285-11.2793Q59.2285-10.3027 59.7656-9.74121Q60.3027-9.17969 61.1816-9.17969ZM59.2285-40.7715L58.8867-40.8691Q56.9336-41.3574 55.957-42.2119Q54.9805-43.0664 54.9805-44.4336Q54.9805-45.8496 56.1279-46.8018Q57.2754-47.7539 59.2285-47.9492ZM63.1836-29.9805L63.7207-29.8828Q65.918-29.3457 66.8701-28.5156Q67.8223-27.6855 67.8223-26.2695Q67.8223-24.707 66.626-23.7549Q65.4297-22.8027 63.1836-22.5586Z"/>
  </g>
  <g id="Bold-M" transform="matrix(1 0 0 1 2279.65 1126)">
   <path class="hierarchical-0:secondary SFSymbolsPreview4D4D4D" d="M60.3027 16.3574Q70.9473 16.3574 80.2734 12.3291Q89.5996 8.30078 96.7041 1.17188Q103.809-5.95703 107.861-15.2832Q111.914-24.6094 111.914-35.2539Q111.914-45.8496 107.861-55.1758Q103.809-64.502 96.7041-71.6309Q89.5996-78.7598 80.249-82.7881Q70.8984-86.8164 60.3027-86.8164Q49.707-86.8164 40.3564-82.7881Q31.0059-78.7598 23.9014-71.6309Q16.7969-64.502 12.7686-55.1758Q8.74023-45.8496 8.74023-35.2539Q8.74023-24.6094 12.7686-15.2832Q16.7969-5.95703 23.9258 1.17188Q31.0547 8.30078 40.3809 12.3291Q49.707 16.3574 60.3027 16.3574ZM60.3027 3.51562Q52.2949 3.51562 45.2637 0.488281Q38.2324-2.53906 32.9102-7.83691Q27.5879-13.1348 24.6094-20.166Q21.6309-27.1973 21.6309-35.2539Q21.6309-43.3105 24.6094-50.3174Q27.5879-57.3242 32.9102-62.6465Q38.2324-67.9688 45.2393-70.9717Q52.2461-73.9746 60.3027-73.9746Q68.3594-73.9746 75.3662-70.9717Q82.373-67.9688 87.6953-62.6465Q93.0176-57.3242 96.0449-50.3174Q99.0723-43.3105 99.0723-35.2539Q99.0723-27.1973 96.0693-20.166Q93.0664-13.1348 87.7441-7.83691Q82.4219-2.53906 75.3906 0.488281Q68.3594 3.51562 60.3027 3.51562Z"/>
   <path class="hierarchical-1:primary SFSymbolsPreview212121" d="M60.2539-8.59375Q61.1816-8.59375 61.7676-9.17969Q62.3535-9.76562 62.3535-10.7422L62.3535-13.7695Q68.75-14.3066 72.7783-17.7002Q76.8066-21.0938 76.8066-26.709Q76.8066-31.7383 73.6328-34.668Q70.459-37.5977 64.0625-38.8184L62.3535-39.1602L62.3535-49.1211Q64.2578-48.7305 65.5762-47.6562Q66.8945-46.582 67.5293-44.9219Q69.043-42.1387 71.7773-42.1387Q73.6328-42.1387 74.7559-43.1396Q75.8789-44.1406 75.8789-45.8008Q75.8789-46.2891 75.7812-46.7773Q75.6836-47.2656 75.5371-47.7051Q74.5117-51.2207 71.0449-53.6865Q67.5781-56.1523 62.3535-56.6406L62.3535-59.7656Q62.3535-60.7422 61.7676-61.3281Q61.1816-61.9141 60.2539-61.9141Q58.2031-61.9141 58.2031-59.7656L58.2031-56.6406Q52.0508-56.1523 48.1445-52.7832Q44.2383-49.4141 44.2383-44.0918Q44.2383-39.1602 47.4121-36.2549Q50.5859-33.3496 56.6895-31.9824L58.2031-31.6406L58.2031-21.2402Q55.7617-21.582 54.3213-22.7539Q52.8809-23.9258 52.3438-25.6348Q51.6602-27.002 50.6348-27.7588Q49.6094-28.5156 48.1445-28.5156Q46.1914-28.5156 45.0684-27.417Q43.9453-26.3184 43.9453-24.5605Q43.9453-24.1211 44.043-23.6328Q44.1406-23.1445 44.3359-22.6074Q45.4102-19.1895 48.9502-16.6992Q52.4902-14.209 58.2031-13.7695L58.2031-10.7422Q58.2031-9.76562 58.7891-9.17969Q59.375-8.59375 60.2539-8.59375ZM58.2031-40.1855L57.8613-40.2832Q55.4199-40.9668 54.248-42.041Q53.0762-43.1152 53.0762-44.7266Q53.0762-46.4355 54.4434-47.6562Q55.8105-48.877 58.2031-49.2188ZM62.3535-30.6641L63.0859-30.5176Q65.7227-29.834 66.8457-28.7354Q67.9688-27.6367 67.9688-25.9277Q67.9688-24.0234 66.5527-22.7783Q65.1367-21.5332 62.3535-21.2402Z"/>
  </g>
  <g id="Semibold-M" transform="matrix(1 0 0 1 1983.6 1126)">
   <path class="hierarchical-0:secondary SFSymbolsPreview4D4D4D" d="M59.668 15.6738Q70.1172 15.6738 79.3457 11.6943Q88.5742 7.71484 95.6055 0.683594Q102.637-6.34766 106.616-15.5518Q110.596-24.7559 110.596-35.2539Q110.596-45.7031 106.616-54.9072Q102.637-64.1113 95.6055-71.1426Q88.5742-78.1738 79.3457-82.1777Q70.1172-86.1816 59.6191-86.1816Q49.1699-86.1816 39.9658-82.1777Q30.7617-78.1738 23.7305-71.1426Q16.6992-64.1113 12.7197-54.9072Q8.74023-45.7031 8.74023-35.2539Q8.74023-24.7559 12.7197-15.5518Q16.6992-6.34766 23.7305 0.683594Q30.7617 7.71484 39.9902 11.6943Q49.2188 15.6738 59.668 15.6738ZM59.668 4.49219Q51.416 4.49219 44.2139 1.41602Q37.0117-1.66016 31.543-7.10449Q26.0742-12.5488 23.0225-19.751Q19.9707-26.9531 19.9707-35.2539Q19.9707-43.5059 23.0225-50.708Q26.0742-57.9102 31.5186-63.3789Q36.9629-68.8477 44.165-71.8994Q51.3672-74.9512 59.6191-74.9512Q67.9199-74.9512 75.1221-71.8994Q82.3242-68.8477 87.7686-63.3789Q93.2129-57.9102 96.3135-50.708Q99.4141-43.5059 99.4141-35.2539Q99.4141-26.9531 96.3379-19.751Q93.2617-12.5488 87.8174-7.10449Q82.373-1.66016 75.1465 1.41602Q67.9199 4.49219 59.668 4.49219Z"/>
   <path class="hierarchical-1:primary SFSymbolsPreview212121" d="M59.6191-8.1543Q60.5469-8.1543 61.1572-8.74023Q61.7676-9.32617 61.7676-10.3516L61.7676-13.5254Q67.9199-14.0625 71.8994-17.3828Q75.8789-20.7031 75.8789-26.2695Q75.8789-31.2988 72.6807-34.2529Q69.4824-37.207 63.0859-38.4277L61.7676-38.7207L61.7676-50Q63.916-49.5605 65.4053-48.3154Q66.8945-47.0703 67.5781-45.1172Q68.8477-42.4805 71.3867-42.4805Q72.998-42.4805 73.999-43.4082Q75-44.3359 75-45.8496Q75-46.2891 74.9268-46.7529Q74.8535-47.2168 74.707-47.6562Q73.6816-51.3184 70.2393-53.8086Q66.7969-56.2988 61.7676-56.8359L61.7676-60.0098Q61.7676-61.0352 61.1572-61.6211Q60.5469-62.207 59.6191-62.207Q57.4219-62.207 57.4219-60.0098L57.4219-56.8359Q51.5137-56.25 47.7295-52.9297Q43.9453-49.6094 43.9453-44.4336Q43.9453-39.5996 47.0947-36.6943Q50.2441-33.7891 56.3477-32.4219L57.4219-32.1777L57.4219-20.2637Q54.6875-20.6543 53.0762-22.0459Q51.4648-23.4375 50.8789-25.3906Q50.293-26.709 49.3652-27.417Q48.4375-28.125 47.1191-28.125Q45.4102-28.125 44.4092-27.124Q43.4082-26.123 43.4082-24.5605Q43.4082-24.1211 43.5059-23.6816Q43.6035-23.2422 43.75-22.7539Q44.8242-19.043 48.4131-16.5283Q52.002-14.0137 57.4219-13.5742L57.4219-10.3516Q57.4219-9.32617 58.0322-8.74023Q58.6426-8.1543 59.6191-8.1543ZM57.4219-39.7949L57.0801-39.8926Q54.3945-40.6738 53.0762-41.8945Q51.7578-43.1152 51.7578-44.9219Q51.7578-46.8262 53.2715-48.2422Q54.7852-49.6582 57.4219-50.0488ZM61.7676-31.1035L62.5977-30.9082Q65.5762-30.1758 66.7969-28.9062Q68.0176-27.6367 68.0176-25.6836Q68.0176-23.4863 66.4551-22.0703Q64.8926-20.6543 61.7676-20.2637Z"/>
  </g>
  <g id="Medium-M" transform="matrix(1 0 0 1 1687.38 1126)">
   <path class="hierarchical-0:secondary SFSymbolsPreview4D4D4D" d="M59.1797 15.1855Q69.5312 15.1855 78.6621 11.2305Q87.793 7.27539 94.751 0.317383Q101.709-6.64062 105.664-15.7715Q109.619-24.9023 109.619-35.2539Q109.619-45.6055 105.664-54.7363Q101.709-63.8672 94.751-70.8252Q87.793-77.7832 78.6377-81.7383Q69.4824-85.6934 59.1309-85.6934Q48.7793-85.6934 39.6484-81.7383Q30.5176-77.7832 23.584-70.8252Q16.6504-63.8672 12.6953-54.7363Q8.74023-45.6055 8.74023-35.2539Q8.74023-24.9023 12.6953-15.7715Q16.6504-6.64062 23.6084 0.317383Q30.5664 7.27539 39.6973 11.2305Q48.8281 15.1855 59.1797 15.1855ZM59.1797 5.27344Q50.7324 5.27344 43.4082 2.12402Q36.084-1.02539 30.5176-6.5918Q24.9512-12.1582 21.8262-19.4824Q18.7012-26.8066 18.7012-35.2539Q18.7012-43.7012 21.8262-51.0254Q24.9512-58.3496 30.4932-63.916Q36.0352-69.4824 43.3838-72.6074Q50.7324-75.7324 59.1309-75.7324Q67.5781-75.7324 74.9023-72.6074Q82.2266-69.4824 87.8174-63.916Q93.4082-58.3496 96.5576-51.0254Q99.707-43.7012 99.707-35.2539Q99.707-26.8066 96.582-19.4824Q93.457-12.1582 87.8906-6.5918Q82.3242-1.02539 74.9756 2.12402Q67.627 5.27344 59.1797 5.27344Z"/>
   <path class="hierarchical-1:primary SFSymbolsPreview212121" d="M59.1309-7.8125Q60.1074-7.8125 60.7422-8.42285Q61.377-9.0332 61.377-10.0586L61.377-13.3301Q67.334-13.916 71.2646-17.1631Q75.1953-20.4102 75.1953-25.9766Q75.1953-30.957 71.9971-33.96Q68.7988-36.9629 62.4512-38.1348L61.377-38.3301L61.377-50.6348Q63.7695-50.1953 65.3809-48.8281Q66.9922-47.4609 67.6758-45.3125Q68.75-42.7734 71.0938-42.7734Q72.6074-42.7734 73.5107-43.6523Q74.4141-44.5312 74.4141-45.8984Q74.4141-46.3379 74.3408-46.7529Q74.2676-47.168 74.1211-47.5586Q73.1445-51.3672 69.7021-53.9062Q66.2598-56.4453 61.377-56.9336L61.377-60.2051Q61.377-61.2305 60.7422-61.8408Q60.1074-62.4512 59.1309-62.4512Q56.9336-62.4512 56.9336-60.2051L56.9336-56.9336Q51.1719-56.3477 47.4854-53.0762Q43.7988-49.8047 43.7988-44.6777Q43.7988-39.9414 46.9238-37.0361Q50.0488-34.1309 56.1523-32.7637L56.9336-32.5684L56.9336-19.5801Q53.9551-20.0195 52.1973-21.5332Q50.4395-23.0469 49.8535-25.1953Q49.3164-26.5137 48.4863-27.1729Q47.6562-27.832 46.3867-27.832Q44.9219-27.832 44.0186-26.9287Q43.1152-26.0254 43.1152-24.5605Q43.1152-24.1211 43.1885-23.7305Q43.2617-23.3398 43.4082-22.9004Q44.4336-18.9453 48.0713-16.4062Q51.709-13.8672 56.9336-13.3789L56.9336-10.0586Q56.9336-9.0332 57.5684-8.42285Q58.2031-7.8125 59.1309-7.8125ZM56.9336-39.502L56.5918-39.5996Q53.6133-40.4785 52.2217-41.8213Q50.8301-43.1641 50.8301-45.1172Q50.8301-47.168 52.4658-48.7061Q54.1016-50.2441 56.9336-50.6836ZM61.377-31.4941L62.3047-31.25Q65.5273-30.4199 66.8457-29.0039Q68.1641-27.5879 68.1641-25.4883Q68.1641-23.1445 66.4795-21.5576Q64.7949-19.9707 61.377-19.5801Z"/>
  </g>
  <g id="Regular-M" transform="matrix(1 0 0 1 1391.3 1126)">
   <path class="hierarchical-0:secondary SFSymbolsPreview4D4D4D" d="M58.5449 14.5508Q68.75 14.5508 77.7588 10.6445Q86.7676 6.73828 93.6523-0.146484Q100.537-7.03125 104.443-16.04Q108.35-25.0488 108.35-35.2539Q108.35-45.459 104.443-54.4678Q100.537-63.4766 93.6523-70.3613Q86.7676-77.2461 77.7344-81.1523Q68.7012-85.0586 58.4961-85.0586Q48.291-85.0586 39.2822-81.1523Q30.2734-77.2461 23.4131-70.3613Q16.5527-63.4766 12.6465-54.4678Q8.74023-45.459 8.74023-35.2539Q8.74023-25.0488 12.6465-16.04Q16.5527-7.03125 23.4375-0.146484Q30.3223 6.73828 39.3311 10.6445Q48.3398 14.5508 58.5449 14.5508ZM58.5449 6.25Q49.9023 6.25 42.3828 3.02734Q34.8633-0.195312 29.1748-5.88379Q23.4863-11.5723 20.2881-19.0918Q17.0898-26.6113 17.0898-35.2539Q17.0898-43.8965 20.2881-51.416Q23.4863-58.9355 29.1504-64.6484Q34.8145-70.3613 42.334-73.5596Q49.8535-76.7578 58.4961-76.7578Q67.1387-76.7578 74.6582-73.5596Q82.1777-70.3613 87.8906-64.6484Q93.6035-58.9355 96.8262-51.416Q100.049-43.8965 100.049-35.2539Q100.049-26.6113 96.8506-19.0918Q93.6523-11.5723 87.9639-5.88379Q82.2754-0.195312 74.7314 3.02734Q67.1875 6.25 58.5449 6.25Z"/>
   <path class="hierarchical-1:primary SFSymbolsPreview212121" d="M58.4961-7.37305Q59.4727-7.37305 60.1318-8.00781Q60.791-8.64258 60.791-9.66797L60.791-13.0859Q66.5039-13.6719 70.3857-16.8701Q74.2676-20.0684 74.2676-25.5859Q74.2676-30.5664 71.0449-33.5938Q67.8223-36.6211 61.4746-37.7441L60.791-37.8906L60.791-51.5137Q63.4277-51.0254 65.21-49.4873Q66.9922-47.9492 67.7246-45.5078Q68.5547-43.1152 70.7031-43.1152Q71.9727-43.1152 72.7783-43.9209Q73.584-44.7266 73.584-45.9961Q73.584-46.3867 73.5107-46.7529Q73.4375-47.1191 73.3398-47.5098Q72.3633-51.4648 68.9209-54.0283Q65.4785-56.5918 60.791-57.1289L60.791-60.498Q60.791-61.5234 60.1318-62.1582Q59.4727-62.793 58.4961-62.793Q56.2012-62.793 56.2012-60.498L56.2012-57.1289Q50.6348-56.4941 47.0703-53.2471Q43.5059-50 43.5059-45.0195Q43.5059-40.3809 46.6309-37.5Q49.7559-34.6191 55.8594-33.2031L56.2012-33.1055L56.2012-18.6523Q52.8809-19.1406 50.9521-20.8496Q49.0234-22.5586 48.4375-25Q47.998-26.2207 47.2412-26.8311Q46.4844-27.4414 45.4102-27.4414Q44.1895-27.4414 43.3838-26.6357Q42.5781-25.8301 42.5781-24.5605Q42.5781-24.1699 42.6514-23.8037Q42.7246-23.4375 42.8223-23.0469Q43.8477-18.7988 47.5586-16.2354Q51.2695-13.6719 56.2012-13.1836L56.2012-9.66797Q56.2012-8.64258 56.8604-8.00781Q57.5195-7.37305 58.4961-7.37305ZM56.2012-39.1113L55.8594-39.209Q52.5879-40.1855 51.0498-41.6748Q49.5117-43.1641 49.5117-45.3125Q49.5117-47.5586 51.2939-49.2676Q53.0762-50.9766 56.2012-51.5137ZM60.791-31.9336L61.8652-31.6895Q65.3809-30.7129 66.7969-29.1504Q68.2129-27.5879 68.2129-25.2441Q68.2129-22.6562 66.3818-20.874Q64.5508-19.0918 60.791-18.6523Z"/>
  </g>
  <g id="Light-M" transform="matrix(1 0 0 1 1095.42 1126)">
   <path class="hierarchical-0:secondary SFSymbolsPreview4D4D4D" d="M57.7148 13.7207Q67.7734 13.7207 76.6357 9.8877Q85.498 6.05469 92.2607-0.708008Q99.0234-7.4707 102.856-16.333Q106.689-25.1953 106.689-35.2539Q106.689-45.3125 102.856-54.1748Q99.0234-63.0371 92.2607-69.7998Q85.498-76.5625 76.6113-80.3955Q67.7246-84.2285 57.666-84.2285Q47.6074-84.2285 38.7451-80.3955Q29.8828-76.5625 23.1445-69.7998Q16.4062-63.0371 12.5732-54.1748Q8.74023-45.3125 8.74023-35.2539Q8.74023-25.1953 12.5732-16.333Q16.4062-7.4707 23.1689-0.708008Q29.9316 6.05469 38.7939 9.8877Q47.6562 13.7207 57.7148 13.7207ZM57.7148 7.37305Q48.877 7.37305 41.1377 4.07715Q33.3984 0.78125 27.5391-5.07812Q21.6797-10.9375 18.3838-18.6768Q15.0879-26.416 15.0879-35.2539Q15.0879-44.0918 18.3838-51.8311Q21.6797-59.5703 27.5391-65.4541Q33.3984-71.3379 41.1133-74.6338Q48.8281-77.9297 57.666-77.9297Q66.5527-77.9297 74.2676-74.6338Q81.9824-71.3379 87.8662-65.4541Q93.75-59.5703 97.0703-51.8311Q100.391-44.0918 100.391-35.2539Q100.391-26.416 97.0703-18.6768Q93.75-10.9375 87.915-5.07812Q82.0801 0.78125 74.3408 4.07715Q66.6016 7.37305 57.7148 7.37305Z"/>
   <path class="hierarchical-1:primary SFSymbolsPreview212121" d="M57.666-7.76367Q58.4961-7.76367 59.0576-8.30078Q59.6191-8.83789 59.6191-9.7168L59.6191-13.3789Q65.4785-13.8672 69.2871-17.0654Q73.0957-20.2637 73.0957-25.4395Q73.0957-30.1758 69.9951-33.0566Q66.8945-35.9375 60.6445-37.1582L59.6191-37.3535L59.6191-52.0996Q62.7441-51.6602 64.8682-49.9268Q66.9922-48.1934 67.6758-45.5078Q68.2617-43.5059 70.0195-43.5059Q71.0938-43.5059 71.7285-44.165Q72.3633-44.8242 72.3633-45.8496Q72.3633-46.1914 72.3145-46.5332Q72.2656-46.875 72.168-47.2168Q71.2891-51.0742 67.8467-53.6377Q64.4043-56.2012 59.6191-56.6406L59.6191-60.0098Q59.6191-60.8887 59.0576-61.4258Q58.4961-61.9629 57.666-61.9629Q55.7617-61.9629 55.7617-60.0098L55.7617-56.6406Q50.3418-56.1035 46.7529-52.9541Q43.1641-49.8047 43.1641-45.0195Q43.1641-40.625 46.1914-37.8418Q49.2188-35.0586 55.2246-33.6914L55.7617-33.5449L55.7617-17.8711Q52.0508-18.3105 49.7314-20.2637Q47.4121-22.2168 46.875-25.0977Q46.582-26.123 45.9961-26.6357Q45.4102-27.1484 44.4824-27.1484Q43.5059-27.1484 42.8467-26.4893Q42.1875-25.8301 42.1875-24.8047Q42.1875-24.4141 42.2607-24.0967Q42.334-23.7793 42.3828-23.3887Q43.3594-19.1406 47.0215-16.5039Q50.6836-13.8672 55.7617-13.4277L55.7617-9.7168Q55.7617-8.83789 56.3232-8.30078Q56.8848-7.76367 57.666-7.76367ZM55.7617-38.3789L55.4688-38.4766Q51.6602-39.502 49.8047-41.1133Q47.9492-42.7246 47.9492-45.2148Q47.9492-47.8516 50.1221-49.7559Q52.2949-51.6602 55.7617-52.0996ZM59.6191-32.5684L60.6934-32.3242Q64.7461-31.2988 66.5039-29.5898Q68.2617-27.8809 68.2617-25.1953Q68.2617-22.2656 66.0156-20.2637Q63.7695-18.2617 59.6191-17.8711Z"/>
  </g>
  <g id="Thin-M" transform="matrix(1 0 0 1 799.782 1126)">
   <path class="hierarchical-0:secondary SFSymbolsPreview4D4D4D" d="M56.5918 12.5977Q66.5039 12.5977 75.1709 8.88672Q83.8379 5.17578 90.4297-1.44043Q97.0215-8.05664 100.781-16.7236Q104.541-25.3906 104.541-35.2539Q104.541-45.1172 100.781-53.7842Q97.0215-62.4512 90.4297-69.0674Q83.8379-75.6836 75.1709-79.3945Q66.5039-83.1055 56.5918-83.1055Q46.7285-83.1055 38.0615-79.3945Q29.3945-75.6836 22.8271-69.0674Q16.2598-62.4512 12.5-53.7842Q8.74023-45.1172 8.74023-35.2539Q8.74023-25.3906 12.4756-16.7236Q16.2109-8.05664 22.8027-1.44043Q29.3945 5.17578 38.0859 8.88672Q46.7773 12.5977 56.5918 12.5977ZM56.5918 8.88672Q47.4609 8.88672 39.4775 5.44434Q31.4941 2.00195 25.415-4.05273Q19.3359-10.1074 15.918-18.1152Q12.5-26.123 12.5-35.2539Q12.5-44.3848 15.918-52.3926Q19.3359-60.4004 25.415-66.4795Q31.4941-72.5586 39.4775-76.001Q47.4609-79.4434 56.5918-79.4434Q65.7715-79.4434 73.7549-76.001Q81.7383-72.5586 87.8174-66.4795Q93.8965-60.4004 97.3389-52.3926Q100.781-44.3848 100.781-35.2539Q100.781-26.123 97.3633-18.1152Q93.9453-10.1074 87.8662-4.05273Q81.7871 2.00195 73.7793 5.44434Q65.7715 8.88672 56.5918 8.88672Z"/>
   <path class="hierarchical-1:primary SFSymbolsPreview212121" d="M56.543-8.30078Q57.1777-8.30078 57.5928-8.71582Q58.0078-9.13086 58.0078-9.7168L58.0078-13.7207Q64.0137-14.1113 67.749-17.3096Q71.4844-20.5078 71.4844-25.293Q71.4844-29.6387 68.5303-32.3486Q65.5762-35.0586 59.4727-36.377L58.0078-36.7188L58.0078-52.832Q61.8164-52.5391 64.4043-50.5371Q66.9922-48.5352 67.4805-45.5566Q67.8223-43.9941 69.0918-43.9941Q69.8242-43.9941 70.2637-44.458Q70.7031-44.9219 70.7031-45.6543Q70.7031-45.9473 70.6543-46.2402Q70.6055-46.5332 70.5566-46.8262Q69.7754-50.5371 66.333-53.1006Q62.8906-55.6641 58.0078-56.0059L58.0078-59.4238Q58.0078-60.0586 57.5928-60.4492Q57.1777-60.8398 56.543-60.8398Q55.127-60.8398 55.127-59.4238L55.127-56.0059Q49.8535-55.6152 46.2402-52.5635Q42.627-49.5117 42.627-44.9707Q42.627-40.9668 45.5566-38.3057Q48.4863-35.6445 54.3457-34.2773L55.127-34.1309L55.127-16.8457Q50.8789-17.1875 48.0469-19.458Q45.2148-21.7285 44.7754-25.1953Q44.6777-25.9766 44.2871-26.3672Q43.8965-26.7578 43.1641-26.7578Q42.5293-26.7578 42.0898-26.3184Q41.6504-25.8789 41.6504-25.0977Q41.6504-24.7559 41.6748-24.4629Q41.6992-24.1699 41.7969-23.877Q42.627-19.6289 46.2402-16.8701Q49.8535-14.1113 55.127-13.7695L55.127-9.7168Q55.127-9.08203 55.542-8.69141Q55.957-8.30078 56.543-8.30078ZM55.127-37.4023L54.8828-37.5Q50.4395-38.5742 48.1445-40.3564Q45.8496-42.1387 45.8496-45.0684Q45.8496-48.2422 48.5107-50.3906Q51.1719-52.5391 55.127-52.832ZM58.0078-33.3984L59.082-33.1543Q63.8672-32.0312 66.0889-30.1514Q68.3105-28.2715 68.3105-25.1953Q68.3105-21.7285 65.5029-19.4336Q62.6953-17.1387 58.0078-16.8457Z"/>
  </g>
  <g id="Ultralight-M" transform="matrix(1 0 0 1 503.632 1126)">
   <path class="hierarchical-0:secondary SFSymbolsPreview4D4D4D" d="M56.0547 12.0605Q65.8203 12.0605 74.3896 8.37402Q82.959 4.6875 89.4775-1.83105Q95.9961-8.34961 99.707-16.9189Q103.418-25.4883 103.418-35.2539Q103.418-45.0195 99.707-53.5889Q95.9961-62.1582 89.4775-68.6768Q82.959-75.1953 74.3896-78.8818Q65.8203-82.5684 56.0547-82.5684Q46.2891-82.5684 37.7197-78.8818Q29.1504-75.1953 22.6562-68.6768Q16.1621-62.1582 12.4512-53.5889Q8.74023-45.0195 8.74023-35.2539Q8.74023-25.4883 12.4268-16.9189Q16.1133-8.34961 22.6318-1.83105Q29.1504 4.6875 37.7197 8.37402Q46.2891 12.0605 56.0547 12.0605ZM56.0547 9.66797Q46.7773 9.66797 38.6475 6.17676Q30.5176 2.68555 24.3164-3.49121Q18.1152-9.66797 14.624-17.8223Q11.1328-25.9766 11.1328-35.2539Q11.1328-44.5312 14.624-52.6855Q18.1152-60.8398 24.3164-67.041Q30.5176-73.2422 38.6475-76.7334Q46.7773-80.2246 56.0547-80.2246Q65.3809-80.2246 73.5107-76.7334Q81.6406-73.2422 87.8174-67.041Q93.9941-60.8398 97.5098-52.6855Q101.025-44.5312 101.025-35.2539Q101.025-25.9766 97.5098-17.8223Q93.9941-9.66797 87.8174-3.49121Q81.6406 2.68555 73.5107 6.17676Q65.3809 9.66797 56.0547 9.66797Z"/>
   <path class="hierarchical-1:primary SFSymbolsPreview212121" d="M56.0059-8.59375Q56.543-8.59375 56.9092-8.93555Q57.2754-9.27734 57.2754-9.76562L57.2754-13.916Q63.3301-14.209 67.041-17.4072Q70.752-20.6055 70.752-25.1953Q70.752-29.3457 67.8711-31.958Q64.9902-34.5703 58.9355-35.9863L57.2754-36.3281L57.2754-53.2227Q61.377-52.9785 64.1846-50.8301Q66.9922-48.6816 67.4805-45.5566Q67.6758-44.2383 68.6523-44.2383Q69.2383-44.2383 69.5801-44.6045Q69.9219-44.9707 69.9219-45.5566Q69.9219-45.8008 69.873-46.0938Q69.8242-46.3867 69.7754-46.6309Q69.043-50.293 65.6006-52.8564Q62.1582-55.4199 57.2754-55.6641L57.2754-59.082Q57.2754-59.6191 56.9092-59.9365Q56.543-60.2539 56.0059-60.2539Q54.834-60.2539 54.834-59.082L54.834-55.6641Q49.707-55.3711 46.0693-52.3682Q42.4316-49.3652 42.4316-44.9707Q42.4316-41.1133 45.2881-38.5254Q48.1445-35.9375 53.9551-34.6191L54.834-34.4238L54.834-16.3574Q50.293-16.6504 47.2168-19.0918Q44.1406-21.5332 43.75-25.293Q43.75-25.8789 43.457-26.2207Q43.1641-26.5625 42.5781-26.5625Q42.041-26.5625 41.7236-26.2207Q41.4062-25.8789 41.4062-25.2441Q41.4062-24.9512 41.4307-24.6826Q41.4551-24.4141 41.5039-24.1211Q42.334-19.873 45.8984-17.041Q49.4629-14.209 54.834-13.9648L54.834-9.76562Q54.834-9.22852 55.1758-8.91113Q55.5176-8.59375 56.0059-8.59375ZM54.834-36.8652L54.6387-36.9629Q49.8047-38.0859 47.3145-39.9658Q44.8242-41.8457 44.8242-44.9707Q44.8242-48.4375 47.7539-50.708Q50.6836-52.9785 54.834-53.2227ZM57.2754-33.8379L58.3496-33.5938Q63.4766-32.4219 65.918-30.4443Q68.3594-28.4668 68.3594-25.1465Q68.3594-21.4844 65.2832-19.0186Q62.207-16.5527 57.2754-16.3574Z"/>
  </g>
  <g id="Black-S" transform="matrix(1 0 0 1 2884.57 696)">
   <path class="hierarchical-0:secondary SFSymbolsPreview4D4D4D" d="M48.8281 6.78711Q57.5195 6.78711 65.1123 3.51562Q72.7051 0.244141 78.4912-5.54199Q84.2773-11.3281 87.5488-18.9209Q90.8203-26.5137 90.8203-35.2051Q90.8203-43.8965 87.5488-51.4893Q84.2773-59.082 78.4912-64.8682Q72.7051-70.6543 65.1123-73.9258Q57.5195-77.1973 48.8281-77.1973Q40.1367-77.1973 32.5439-73.9258Q24.9512-70.6543 19.165-64.8682Q13.3789-59.082 10.1074-51.4893Q6.83594-43.8965 6.83594-35.2051Q6.83594-26.5137 10.1074-18.9209Q13.3789-11.3281 19.165-5.54199Q24.9512 0.244141 32.5439 3.51562Q40.1367 6.78711 48.8281 6.78711ZM48.8281-7.37305Q43.0664-7.37305 38.0127-9.5459Q32.959-11.7188 29.1504-15.5273Q25.3418-19.3359 23.1689-24.3896Q20.9961-29.4434 20.9961-35.2051Q20.9961-40.9668 23.1689-46.0205Q25.3418-51.0742 29.1504-54.8828Q32.959-58.6914 38.0127-60.8643Q43.0664-63.0371 48.8281-63.0371Q54.5898-63.0371 59.6436-60.8643Q64.6973-58.6914 68.5059-54.8828Q72.3145-51.0742 74.4873-46.0205Q76.6602-40.9668 76.6602-35.2051Q76.6602-29.4434 74.4873-24.3896Q72.3145-19.3359 68.5059-15.5273Q64.6973-11.7188 59.6436-9.5459Q54.5898-7.37305 48.8281-7.37305Z"/>
   <path class="hierarchical-1:primary SFSymbolsPreview212121" d="M48.8281-15.4785Q50.2441-15.4785 50.2441-16.9922L50.2441-19.043Q55.9082-19.4336 59.2041-22.2656Q62.5-25.0977 62.5-29.541Q62.5-33.4961 60.0586-35.6934Q57.6172-37.8906 52.5879-38.9648L50.2441-39.4531L50.2441-43.8965Q51.0742-43.7012 51.6846-43.2861Q52.2949-42.8711 52.7344-42.2363Q54.4922-39.6973 57.2266-39.6973Q59.2285-39.6973 60.3516-40.6738Q61.4746-41.6504 61.4746-43.2617Q61.4746-43.75 61.377-44.2383Q61.2793-44.7266 61.1328-45.166Q60.3027-47.4609 57.5928-49.3164Q54.8828-51.1719 50.2441-51.5137L50.2441-53.7109Q50.2441-55.2246 48.8281-55.2246Q47.4121-55.2246 47.4121-53.7109L47.4121-51.5137Q42.0898-51.2695 38.6963-48.5107Q35.3027-45.752 35.3027-41.2598Q35.3027-37.207 37.8418-34.8877Q40.3809-32.5684 45.1172-31.5918L47.4121-31.1035L47.4121-26.5625Q46.2891-26.709 45.6055-27.1729Q44.9219-27.6367 44.5312-28.2715Q43.7988-29.541 42.7734-30.249Q41.748-30.957 40.1855-30.957Q37.9883-30.957 36.8408-29.834Q35.6934-28.7109 35.6934-26.9043Q35.6934-26.4648 35.791-25.9521Q35.8887-25.4395 36.1328-24.9023Q36.9629-23.0469 39.5996-21.1426Q42.2363-19.2383 47.4121-18.9941L47.4121-16.9922Q47.4121-15.4785 48.8281-15.4785ZM47.4121-40.0879L47.168-40.1367Q46.0449-40.3809 45.4346-40.8691Q44.8242-41.3574 44.8242-42.1387Q44.8242-42.9688 45.5322-43.4814Q46.2402-43.9941 47.4121-44.043ZM50.2441-30.5176L50.4883-30.4688Q51.8066-30.2246 52.417-29.7852Q53.0273-29.3457 53.0273-28.5156Q53.0273-27.6367 52.2705-27.1729Q51.5137-26.709 50.2441-26.5625Z"/>
  </g>
  <g id="Heavy-S" transform="matrix(1 0 0 1 2588.47 696)">
   <path class="hierarchical-0:secondary SFSymbolsPreview4D4D4D" d="M48.1934 6.15234Q56.7871 6.15234 64.2578 2.92969Q71.7285-0.292969 77.4414-6.00586Q83.1543-11.7188 86.377-19.1895Q89.5996-26.6602 89.5996-35.2051Q89.5996-43.75 86.377-51.2451Q83.1543-58.7402 77.4414-64.4531Q71.7285-70.166 64.2334-73.3887Q56.7383-76.6113 48.1934-76.6113Q39.6484-76.6113 32.1777-73.3887Q24.707-70.166 18.9941-64.4531Q13.2812-58.7402 10.0586-51.2451Q6.83594-43.75 6.83594-35.2051Q6.83594-26.6602 10.0586-19.1895Q13.2812-11.7188 18.9941-6.00586Q24.707-0.292969 32.2021 2.92969Q39.6973 6.15234 48.1934 6.15234ZM48.1934-6.39648Q42.2363-6.39648 37.0117-8.64258Q31.7871-10.8887 27.8564-14.8438Q23.9258-18.7988 21.6797-24.0234Q19.4336-29.248 19.4336-35.2051Q19.4336-41.1621 21.6553-46.4111Q23.877-51.6602 27.832-55.5908Q31.7871-59.5215 37.0117-61.7676Q42.2363-64.0137 48.1934-64.0137Q54.1992-64.0137 59.4238-61.7676Q64.6484-59.5215 68.5791-55.5908Q72.5098-51.6602 74.7803-46.4111Q77.0508-41.1621 77.0508-35.2051Q77.0508-29.248 74.8047-24.0234Q72.5586-18.7988 68.6035-14.8438Q64.6484-10.8887 59.4238-8.64258Q54.1992-6.39648 48.1934-6.39648Z"/>
   <path class="hierarchical-1:primary SFSymbolsPreview212121" d="M48.1934-14.9414Q49.7559-14.9414 49.7559-16.5527L49.7559-18.75Q55.127-19.1406 58.374-21.8994Q61.6211-24.6582 61.6211-29.1504Q61.6211-33.1055 59.1553-35.3516Q56.6895-37.5977 51.6602-38.623L49.7559-39.0137L49.7559-44.7754Q50.8301-44.5312 51.5869-43.9697Q52.3438-43.4082 52.832-42.4805Q54.3457-40.0391 56.8848-40.0391Q58.6426-40.0391 59.668-40.9668Q60.6934-41.8945 60.6934-43.3594Q60.6934-43.7988 60.6201-44.2627Q60.5469-44.7266 60.4004-45.1172Q59.5703-47.6074 56.8604-49.5117Q54.1504-51.416 49.7559-51.7578L49.7559-54.1016Q49.7559-55.7129 48.1934-55.7129Q46.6797-55.7129 46.6797-54.1016L46.6797-51.7578Q41.5527-51.4648 38.3057-48.7549Q35.0586-46.0449 35.0586-41.6504Q35.0586-37.6465 37.5977-35.3516Q40.1367-33.0566 44.873-32.0312L46.6797-31.6406L46.6797-25.6348Q45.2637-25.8301 44.4092-26.4648Q43.5547-27.0996 43.1641-28.0273Q42.4805-29.248 41.5527-29.9072Q40.625-30.5664 39.209-30.5664Q37.2559-30.5664 36.2305-29.541Q35.2051-28.5156 35.2051-26.8555Q35.2051-26.4648 35.2783-26.001Q35.3516-25.5371 35.5469-25.0488Q36.4258-22.8516 39.1113-20.9229Q41.7969-18.9941 46.6797-18.7012L46.6797-16.5527Q46.6797-14.9414 48.1934-14.9414ZM46.6797-39.7461L46.3867-39.7949Q45.0195-40.1855 44.2871-40.7959Q43.5547-41.4062 43.5547-42.3828Q43.5547-43.4082 44.3848-44.0918Q45.2148-44.7754 46.6797-44.9219ZM49.7559-30.957L50.1465-30.8594Q51.7578-30.5176 52.4414-29.9072Q53.125-29.2969 53.125-28.2715Q53.125-27.1484 52.2461-26.4893Q51.3672-25.8301 49.7559-25.6348Z"/>
  </g>
  <g id="Bold-S" transform="matrix(1 0 0 1 2292.42 696)">
   <path class="hierarchical-0:secondary SFSymbolsPreview4D4D4D" d="M47.5586 5.46875Q55.957 5.46875 63.3057 2.29492Q70.6543-0.878906 76.2695-6.51855Q81.8848-12.1582 85.083-19.5068Q88.2812-26.8555 88.2812-35.2539Q88.2812-43.6035 85.083-50.9766Q81.8848-58.3496 76.2695-63.9648Q70.6543-69.5801 63.2812-72.7539Q55.9082-75.9277 47.5098-75.9277Q39.1602-75.9277 31.7871-72.7539Q24.4141-69.5801 18.8232-63.9648Q13.2324-58.3496 10.0342-50.9766Q6.83594-43.6035 6.83594-35.2539Q6.83594-26.8555 10.0342-19.5068Q13.2324-12.1582 18.8477-6.51855Q24.4629-0.878906 31.8115 2.29492Q39.1602 5.46875 47.5586 5.46875ZM47.5586-5.32227Q41.3574-5.32227 35.9375-7.6416Q30.5176-9.96094 26.416-14.0625Q22.3145-18.1641 19.9951-23.6084Q17.6758-29.0527 17.6758-35.2539Q17.6758-41.4551 19.9951-46.875Q22.3145-52.2949 26.3916-56.3965Q30.4688-60.498 35.8887-62.8174Q41.3086-65.1367 47.5098-65.1367Q53.7598-65.1367 59.1797-62.8174Q64.5996-60.498 68.7012-56.3965Q72.8027-52.2949 75.1221-46.875Q77.4414-41.4551 77.4414-35.2539Q77.4414-29.0527 75.1221-23.6084Q72.8027-18.1641 68.7256-14.0625Q64.6484-9.96094 59.2041-7.6416Q53.7598-5.32227 47.5586-5.32227Z"/>
   <path class="hierarchical-1:primary SFSymbolsPreview212121" d="M47.5586-14.3555Q49.2676-14.3555 49.2676-16.1133L49.2676-18.4082Q54.2969-18.8477 57.4707-21.5332Q60.6445-24.2188 60.6445-28.6621Q60.6445-32.666 58.1543-34.9854Q55.6641-37.3047 50.6348-38.2324L49.2676-38.5254L49.2676-45.8008Q50.5859-45.5078 51.5137-44.751Q52.4414-43.9941 52.9297-42.7734Q54.1992-40.4785 56.4941-40.4785Q58.0566-40.4785 58.96-41.3086Q59.8633-42.1387 59.8633-43.5059Q59.8633-43.8965 59.79-44.2871Q59.7168-44.6777 59.6191-45.0684Q58.7891-47.8027 56.1035-49.7314Q53.418-51.6602 49.2676-52.0508L49.2676-54.4922Q49.2676-56.25 47.5586-56.25Q45.8496-56.25 45.8496-54.4922L45.8496-52.0508Q40.9668-51.709 37.8906-49.0234Q34.8145-46.3379 34.8145-42.0898Q34.8145-38.1836 37.3291-35.8887Q39.8438-33.5938 44.6289-32.5195L45.8496-32.2266L45.8496-24.6094Q44.0918-24.9023 43.0908-25.7324Q42.0898-26.5625 41.6504-27.7344Q41.0645-28.9062 40.2344-29.5166Q39.4043-30.127 38.1348-30.127Q36.5234-30.127 35.5957-29.1992Q34.668-28.2715 34.668-26.8555Q34.668-26.4648 34.7412-26.0498Q34.8145-25.6348 34.9609-25.1953Q35.8398-22.6562 38.623-20.7031Q41.4062-18.75 45.8496-18.4082L45.8496-16.1133Q45.8496-14.3555 47.5586-14.3555ZM45.8496-39.3555L45.6055-39.4531Q43.8965-39.9414 43.0664-40.7227Q42.2363-41.5039 42.2363-42.6758Q42.2363-43.8965 43.1885-44.751Q44.1406-45.6055 45.8496-45.8984ZM49.2676-31.4453L49.8047-31.2988Q51.709-30.8105 52.4902-30.0293Q53.2715-29.248 53.2715-27.9785Q53.2715-26.6113 52.2705-25.7324Q51.2695-24.8535 49.2676-24.6094Z"/>
  </g>
  <g id="Semibold-S" transform="matrix(1 0 0 1 1996.2 696)">
   <path class="hierarchical-0:secondary SFSymbolsPreview4D4D4D" d="M47.0703 4.98047Q55.3711 4.98047 62.6465 1.85547Q69.9219-1.26953 75.4639-6.86035Q81.0059-12.4512 84.1553-19.7266Q87.3047-27.002 87.3047-35.2539Q87.3047-43.5059 84.1553-50.7812Q81.0059-58.0566 75.4395-63.623Q69.873-69.1895 62.5977-72.3389Q55.3223-75.4883 47.0215-75.4883Q38.7695-75.4883 31.4941-72.3389Q24.2188-69.1895 18.6768-63.623Q13.1348-58.0566 9.98535-50.7812Q6.83594-43.5059 6.83594-35.2539Q6.83594-27.002 9.98535-19.7266Q13.1348-12.4512 18.7012-6.86035Q24.2676-1.26953 31.543 1.85547Q38.8184 4.98047 47.0703 4.98047ZM47.0703-4.58984Q40.7227-4.58984 35.1562-6.95801Q29.5898-9.32617 25.3906-13.5254Q21.1914-17.7246 18.8232-23.291Q16.4551-28.8574 16.4551-35.2539Q16.4551-41.6016 18.8232-47.168Q21.1914-52.7344 25.3662-56.9336Q29.541-61.1328 35.1074-63.5254Q40.6738-65.918 47.0215-65.918Q53.418-65.918 58.9844-63.5254Q64.5508-61.1328 68.75-56.9336Q72.9492-52.7344 75.3418-47.168Q77.7344-41.6016 77.7344-35.2539Q77.7344-28.8574 75.3662-23.291Q72.998-17.7246 68.7988-13.5254Q64.5996-9.32617 59.0332-6.95801Q53.4668-4.58984 47.0703-4.58984Z"/>
   <path class="hierarchical-1:primary SFSymbolsPreview212121" d="M47.0215-13.916Q48.8281-13.916 48.8281-15.7715L48.8281-18.1641Q53.6133-18.6035 56.7627-21.2402Q59.9121-23.877 59.9121-28.3203Q59.9121-32.3242 57.3975-34.6924Q54.8828-37.0605 49.8535-37.9883L48.8281-38.1348L48.8281-46.4844Q50.3418-46.1426 51.3672-45.2637Q52.3926-44.3848 52.9297-42.9199Q54.0527-40.7227 56.1523-40.7227Q57.5684-40.7227 58.3984-41.5283Q59.2285-42.334 59.2285-43.6035Q59.2285-43.9453 59.1553-44.3115Q59.082-44.6777 58.9844-45.0195Q58.2031-47.9492 55.4932-49.9023Q52.7832-51.8555 48.8281-52.2461L48.8281-54.7852Q48.8281-56.5918 47.0215-56.5918Q45.2148-56.5918 45.2148-54.7852L45.2148-52.2461Q40.4785-51.8555 37.5244-49.1943Q34.5703-46.5332 34.5703-42.3828Q34.5703-38.5254 37.085-36.2305Q39.5996-33.9355 44.3848-32.8125L45.2148-32.6172L45.2148-23.877Q43.2129-24.2188 42.1143-25.1709Q41.0156-26.123 40.5273-27.4902Q39.9902-28.6621 39.2334-29.2236Q38.4766-29.7852 37.3535-29.7852Q35.8887-29.7852 35.0586-28.9551Q34.2285-28.125 34.2285-26.8066Q34.2285-26.416 34.2773-26.0498Q34.3262-25.6836 34.4727-25.293Q35.3516-22.4609 38.1836-20.5078Q41.0156-18.5547 45.2148-18.2129L45.2148-15.7715Q45.2148-13.916 47.0215-13.916ZM45.2148-39.1113L44.9219-39.1602Q43.0176-39.7461 42.1143-40.6494Q41.2109-41.5527 41.2109-42.8711Q41.2109-44.1895 42.2607-45.1904Q43.3105-46.1914 45.2148-46.5332ZM48.8281-31.7383L49.4629-31.5918Q51.6113-31.0059 52.4414-30.1025Q53.2715-29.1992 53.2715-27.7832Q53.2715-26.2207 52.1729-25.1953Q51.0742-24.1699 48.8281-23.877Z"/>
  </g>
  <g id="Medium-S" transform="matrix(1 0 0 1 1699.83 696)">
   <path class="hierarchical-0:secondary SFSymbolsPreview4D4D4D" d="M46.7285 4.63867Q54.9316 4.63867 62.1338 1.51367Q69.3359-1.61133 74.8535-7.12891Q80.3711-12.6465 83.4961-19.8486Q86.6211-27.0508 86.6211-35.2539Q86.6211-43.4082 83.4961-50.6348Q80.3711-57.8613 74.8291-63.3789Q69.2871-68.8965 62.085-71.9971Q54.8828-75.0977 46.6797-75.0977Q38.4766-75.0977 31.2744-71.9971Q24.0723-68.8965 18.5791-63.3789Q13.0859-57.8613 9.96094-50.6348Q6.83594-43.4082 6.83594-35.2539Q6.83594-27.0508 9.96094-19.8486Q13.0859-12.6465 18.6035-7.12891Q24.1211-1.61133 31.3232 1.51367Q38.5254 4.63867 46.7285 4.63867ZM46.7285-4.00391Q40.2344-4.00391 34.5703-6.4209Q28.9062-8.83789 24.6338-13.1348Q20.3613-17.4316 17.9443-23.0957Q15.5273-28.7598 15.5273-35.2539Q15.5273-41.748 17.9199-47.4121Q20.3125-53.0762 24.585-57.373Q28.8574-61.6699 34.5215-64.0869Q40.1855-66.5039 46.6797-66.5039Q53.1738-66.5039 58.8379-64.0869Q64.502-61.6699 68.7988-57.373Q73.0957-53.0762 75.5127-47.4121Q77.9297-41.748 77.9297-35.2539Q77.9297-28.7598 75.5127-23.0957Q73.0957-17.4316 68.8477-13.1348Q64.5996-8.83789 58.9111-6.4209Q53.2227-4.00391 46.7285-4.00391Z"/>
   <path class="hierarchical-1:primary SFSymbolsPreview212121" d="M46.7285-13.5742Q48.584-13.5742 48.584-15.5273L48.584-18.0176Q53.1738-18.4082 56.2988-21.0205Q59.4238-23.6328 59.4238-28.0762Q59.4238-32.0801 56.8848-34.4727Q54.3457-36.8652 49.3164-37.7441L48.584-37.8906L48.584-47.0215Q50.1953-46.6797 51.3184-45.7031Q52.4414-44.7266 53.0273-43.0664Q53.9551-40.918 56.0059-40.918Q57.2754-40.918 58.0322-41.6748Q58.7891-42.4316 58.7891-43.6523Q58.7891-43.9941 58.7402-44.3115Q58.6914-44.6289 58.5938-45.0195Q57.7637-47.998 55.0781-49.9756Q52.3926-51.9531 48.584-52.3926L48.584-54.9805Q48.584-56.8848 46.7285-56.8848Q44.8242-56.8848 44.8242-54.9805L44.8242-52.3926Q40.2344-51.9531 37.3535-49.3408Q34.4727-46.7285 34.4727-42.627Q34.4727-38.8184 36.9629-36.5234Q39.4531-34.2285 44.2383-33.0566L44.8242-32.959L44.8242-23.3398Q42.627-23.6816 41.4307-24.7559Q40.2344-25.8301 39.7461-27.3438Q39.2578-28.4668 38.5498-29.0039Q37.8418-29.541 36.7676-29.541Q35.498-29.541 34.7168-28.7598Q33.9355-27.9785 33.9355-26.8066Q33.9355-26.416 33.9844-26.0986Q34.0332-25.7812 34.1797-25.3906Q35.0586-22.3633 37.9395-20.4102Q40.8203-18.457 44.8242-18.0176L44.8242-15.5273Q44.8242-13.5742 46.7285-13.5742ZM44.8242-38.8672L44.5312-38.9648Q42.4316-39.5996 41.4795-40.6006Q40.5273-41.6016 40.5273-43.0176Q40.5273-44.4336 41.6504-45.5322Q42.7734-46.6309 44.8242-47.0703ZM48.584-31.9824L49.3164-31.8359Q51.6113-31.2012 52.4902-30.1758Q53.3691-29.1504 53.3691-27.6367Q53.3691-25.9766 52.1973-24.8291Q51.0254-23.6816 48.584-23.3398Z"/>
  </g>
  <g id="Regular-S" transform="matrix(1 0 0 1 1403.58 696)">
   <path class="hierarchical-0:secondary SFSymbolsPreview4D4D4D" d="M46.2402 4.15039Q54.3457 4.15039 61.4746 1.07422Q68.6035-2.00195 74.0479-7.4707Q79.4922-12.9395 82.5928-20.0684Q85.6934-27.1973 85.6934-35.2539Q85.6934-43.3105 82.5928-50.4395Q79.4922-57.5684 74.0234-63.0371Q68.5547-68.5059 61.4258-71.582Q54.2969-74.6582 46.1914-74.6582Q38.1348-74.6582 31.0059-71.582Q23.877-68.5059 18.457-63.0371Q13.0371-57.5684 9.93652-50.4395Q6.83594-43.3105 6.83594-35.2539Q6.83594-27.1973 9.93652-20.0684Q13.0371-12.9395 18.4814-7.4707Q23.9258-2.00195 31.0547 1.07422Q38.1836 4.15039 46.2402 4.15039ZM46.2402-3.27148Q39.5996-3.27148 33.8135-5.7373Q28.0273-8.20312 23.6572-12.5977Q19.2871-16.9922 16.8213-22.8027Q14.3555-28.6133 14.3555-35.2539Q14.3555-41.8945 16.7969-47.7051Q19.2383-53.5156 23.6084-57.9102Q27.9785-62.3047 33.7646-64.7705Q39.5508-67.2363 46.1914-67.2363Q52.8809-67.2363 58.667-64.7705Q64.4531-62.3047 68.8477-57.9102Q73.2422-53.5156 75.7324-47.7051Q78.2227-41.8945 78.2227-35.2539Q78.2227-28.6133 75.7568-22.8027Q73.291-16.9922 68.9209-12.5977Q64.5508-8.20312 58.7402-5.7373Q52.9297-3.27148 46.2402-3.27148Z"/>
   <path class="hierarchical-1:primary SFSymbolsPreview212121" d="M46.2402-13.1836Q48.1934-13.1836 48.1934-15.1855L48.1934-17.7734Q52.5879-18.2129 55.6641-20.752Q58.7402-23.291 58.7402-27.7832Q58.7402-31.7871 56.1768-34.2285Q53.6133-36.6699 48.584-37.5L48.1934-37.5488L48.1934-47.7051Q50-47.3145 51.2451-46.2158Q52.4902-45.1172 53.0762-43.2617Q53.8574-41.2109 55.7129-41.2109Q56.8359-41.2109 57.5195-41.9189Q58.2031-42.627 58.2031-43.75Q58.2031-44.043 58.1543-44.3359Q58.1055-44.6289 58.0078-44.9707Q57.2266-48.1445 54.541-50.1465Q51.8555-52.1484 48.1934-52.5879L48.1934-55.2734Q48.1934-57.2266 46.2402-57.2266Q44.2383-57.2266 44.2383-55.2734L44.2383-52.5879Q39.7949-52.0996 37.0361-49.5117Q34.2773-46.9238 34.2773-42.9199Q34.2773-39.1602 36.7676-36.8652Q39.2578-34.5703 44.043-33.3984L44.2383-33.3496L44.2383-22.6562Q41.8457-23.0469 40.5273-24.2432Q39.209-25.4395 38.6719-27.1484Q38.2812-28.2227 37.6221-28.7354Q36.9629-29.248 36.0352-29.248Q34.9609-29.248 34.2529-28.54Q33.5449-27.832 33.5449-26.7578Q33.5449-26.416 33.5938-26.123Q33.6426-25.8301 33.7402-25.4883Q34.6191-22.2168 37.5488-20.2393Q40.4785-18.2617 44.2383-17.8223L44.2383-15.1855Q44.2383-13.1836 46.2402-13.1836ZM44.2383-38.623L43.9453-38.7207Q41.6504-39.4531 40.6006-40.5518Q39.5508-41.6504 39.5508-43.2129Q39.5508-44.7754 40.7715-45.9961Q41.9922-47.2168 44.2383-47.7051ZM48.1934-32.3242L49.0234-32.1289Q51.5625-31.3965 52.4902-30.249Q53.418-29.1016 53.418-27.4414Q53.418-25.5859 52.1729-24.292Q50.9277-22.998 48.1934-22.6562Z"/>
  </g>
  <g id="Light-S" transform="matrix(1 0 0 1 1107.6 696)">
   <path class="hierarchical-0:secondary SFSymbolsPreview4D4D4D" d="M45.5078 3.41797Q53.4668 3.41797 60.4736 0.415039Q67.4805-2.58789 72.8271-7.95898Q78.1738-13.3301 81.2012-20.3125Q84.2285-27.2949 84.2285-35.2539Q84.2285-43.2129 81.2012-50.1953Q78.1738-57.1777 72.8027-62.5488Q67.4316-67.9199 60.4492-70.9229Q53.4668-73.9258 45.459-73.9258Q37.5488-73.9258 30.542-70.9229Q23.5352-67.9199 18.2129-62.5488Q12.8906-57.1777 9.86328-50.1953Q6.83594-43.2129 6.83594-35.2539Q6.83594-27.2949 9.86328-20.3125Q12.8906-13.3301 18.2373-7.95898Q23.584-2.58789 30.5908 0.415039Q37.5977 3.41797 45.5078 3.41797ZM45.5078-2.29492Q38.6719-2.29492 32.6904-4.83398Q26.709-7.37305 22.1924-11.9141Q17.6758-16.4551 15.1367-22.4365Q12.5977-28.418 12.5977-35.2539Q12.5977-42.0898 15.1367-48.0713Q17.6758-54.0527 22.1924-58.5938Q26.709-63.1348 32.666-65.6738Q38.623-68.2129 45.459-68.2129Q52.3438-68.2129 58.3252-65.6738Q64.3066-63.1348 68.8232-58.5938Q73.3398-54.0527 75.9277-48.0713Q78.5156-42.0898 78.5156-35.2539Q78.5156-28.418 75.9521-22.4365Q73.3887-16.4551 68.8721-11.9141Q64.3555-7.37305 58.374-4.83398Q52.3926-2.29492 45.5078-2.29492Z"/>
   <path class="hierarchical-1:primary SFSymbolsPreview212121" d="M45.5078-13.5742Q47.168-13.5742 47.168-15.2344L47.168-18.0176Q51.6602-18.3594 54.6875-20.8984Q57.7148-23.4375 57.7148-27.6367Q57.7148-31.4453 55.249-33.7646Q52.7832-36.084 47.8516-36.9629L47.168-37.1094L47.168-48.2422Q49.4141-47.8516 50.9521-46.582Q52.4902-45.3125 53.0273-43.2617Q53.6133-41.5527 55.127-41.5527Q56.0547-41.5527 56.5918-42.1143Q57.1289-42.6758 57.1289-43.6035Q57.1289-43.8965 57.1045-44.165Q57.0801-44.4336 56.9824-44.7266Q56.25-47.8027 53.5645-49.8047Q50.8789-51.8066 47.168-52.1484L47.168-54.834Q47.168-56.4941 45.5078-56.4941Q43.8477-56.4941 43.8477-54.834L43.8477-52.1484Q39.5508-51.7578 36.7676-49.2432Q33.9844-46.7285 33.9844-42.9199Q33.9844-39.3555 36.377-37.1582Q38.7695-34.9609 43.5059-33.8379L43.8477-33.7402L43.8477-21.9727Q41.1133-22.3145 39.4531-23.7305Q37.793-25.1465 37.3047-27.2461Q37.0605-28.125 36.5234-28.5645Q35.9863-29.0039 35.2051-29.0039Q34.3262-29.0039 33.7646-28.4424Q33.2031-27.8809 33.2031-26.9531Q33.2031-26.6602 33.252-26.3916Q33.3008-26.123 33.3984-25.8301Q34.1797-22.5098 37.0605-20.459Q39.9414-18.4082 43.8477-18.0664L43.8477-15.2344Q43.8477-13.5742 45.5078-13.5742ZM43.8477-37.9883L43.6035-38.0371Q40.8691-38.8184 39.5264-40.0391Q38.1836-41.2598 38.1836-43.1152Q38.1836-45.0195 39.7461-46.4111Q41.3086-47.8027 43.8477-48.2422ZM47.168-32.9102L47.998-32.7148Q51.0254-31.9336 52.2461-30.6396Q53.4668-29.3457 53.4668-27.3926Q53.4668-25.2441 51.8555-23.7549Q50.2441-22.2656 47.168-21.9727Z"/>
  </g>
  <g id="Thin-S" transform="matrix(1 0 0 1 811.867 696)">
   <path class="hierarchical-0:secondary SFSymbolsPreview4D4D4D" d="M44.5312 2.44141Q52.3438 2.44141 59.1553-0.488281Q65.9668-3.41797 71.1914-8.64258Q76.416-13.8672 79.3457-20.6787Q82.2754-27.4902 82.2754-35.2539Q82.2754-43.0176 79.3457-49.8291Q76.416-56.6406 71.1914-61.8652Q65.9668-67.0898 59.1553-70.0195Q52.3438-72.9492 44.5312-72.9492Q36.7676-72.9492 29.9316-70.0195Q23.0957-67.0898 17.9199-61.8652Q12.7441-56.6406 9.79004-49.8291Q6.83594-43.0176 6.83594-35.2539Q6.83594-27.4902 9.79004-20.6787Q12.7441-13.8672 17.9199-8.64258Q23.0957-3.41797 29.9316-0.488281Q36.7676 2.44141 44.5312 2.44141ZM44.5312-0.927734Q37.4512-0.927734 31.2256-3.58887Q25-6.25 20.2881-10.9619Q15.5762-15.6738 12.915-21.9238Q10.2539-28.1738 10.2539-35.2539Q10.2539-42.334 12.915-48.584Q15.5762-54.834 20.2881-59.5459Q25-64.2578 31.2256-66.9189Q37.4512-69.5801 44.5312-69.5801Q51.6602-69.5801 57.8857-66.9189Q64.1113-64.2578 68.8232-59.5459Q73.5352-54.834 76.1963-48.584Q78.8574-42.334 78.8574-35.2539Q78.8574-28.1738 76.1963-21.9238Q73.5352-15.6738 68.8232-10.9619Q64.1113-6.25 57.8857-3.58887Q51.6602-0.927734 44.5312-0.927734Z"/>
   <path class="hierarchical-1:primary SFSymbolsPreview212121" d="M44.4824-14.0625Q45.752-14.0625 45.752-15.2344L45.752-18.3105Q50.4395-18.6035 53.3691-21.1182Q56.2988-23.6328 56.2988-27.4902Q56.2988-30.957 53.9551-33.1055Q51.6113-35.2539 46.8262-36.2793L45.752-36.4746L45.752-48.877Q48.584-48.6328 50.5371-47.1191Q52.4902-45.6055 52.8809-43.3105Q53.2227-41.9922 54.2969-41.9922Q54.9316-41.9922 55.2979-42.3828Q55.6641-42.7734 55.6641-43.457Q55.6641-43.6523 55.6396-43.8965Q55.6152-44.1406 55.5664-44.3848Q54.9316-47.3145 52.2461-49.3164Q49.5605-51.3184 45.752-51.6113L45.752-54.2969Q45.752-55.5176 44.4824-55.5176Q43.3105-55.5176 43.3105-54.2969L43.3105-51.6113Q39.1602-51.2695 36.3281-48.877Q33.4961-46.4844 33.4961-42.8711Q33.4961-39.6484 35.8154-37.5488Q38.1348-35.4492 42.7734-34.375L43.3105-34.2773L43.3105-21.0449Q40.0879-21.3379 37.9395-23.0469Q35.791-24.7559 35.498-27.3438Q35.3516-28.0273 35.0098-28.3447Q34.668-28.6621 34.0332-28.6621Q33.4473-28.6621 33.0811-28.2715Q32.7148-27.8809 32.7148-27.1973Q32.7148-27.002 32.7393-26.7578Q32.7637-26.5137 32.8613-26.2207Q33.5449-22.9004 36.377-20.7764Q39.209-18.6523 43.3105-18.3594L43.3105-15.2344Q43.3105-14.0625 44.4824-14.0625ZM43.3105-37.1094L43.0664-37.1582Q39.7461-37.9883 38.0371-39.3555Q36.3281-40.7227 36.3281-42.9688Q36.3281-45.3613 38.3301-46.9727Q40.332-48.584 43.3105-48.877ZM45.752-33.6426L46.582-33.4473Q50.1953-32.5684 51.8555-31.1279Q53.5156-29.6875 53.5156-27.3926Q53.5156-24.7559 51.3916-23.0225Q49.2676-21.2891 45.752-21.0449Z"/>
  </g>
  <g id="Ultralight-S" transform="matrix(1 0 0 1 515.644 696)">
   <path class="hierarchical-0:secondary SFSymbolsPreview4D4D4D" d="M44.043 1.95312Q51.7578 1.95312 58.4717-0.927734Q65.1855-3.80859 70.3369-8.95996Q75.4883-14.1113 78.3936-20.8252Q81.2988-27.5391 81.2988-35.2539Q81.2988-42.9688 78.3936-49.6826Q75.4883-56.3965 70.3369-61.5479Q65.1855-66.6992 58.4717-69.5801Q51.7578-72.4609 44.043-72.4609Q36.377-72.4609 29.6387-69.5801Q22.9004-66.6992 17.7734-61.5479Q12.6465-56.3965 9.74121-49.6826Q6.83594-42.9688 6.83594-35.2539Q6.83594-27.5391 9.74121-20.8252Q12.6465-14.1113 17.7734-8.95996Q22.9004-3.80859 29.6387-0.927734Q36.377 1.95312 44.043 1.95312ZM44.043-0.292969Q36.8164-0.292969 30.4688-3.00293Q24.1211-5.71289 19.3115-10.5225Q14.502-15.332 11.7676-21.6797Q9.0332-28.0273 9.0332-35.2539Q9.0332-42.4805 11.7676-48.8281Q14.502-55.1758 19.3115-59.9854Q24.1211-64.7949 30.4688-67.5049Q36.8164-70.2148 44.043-70.2148Q51.2695-70.2148 57.6416-67.5049Q64.0137-64.7949 68.7988-59.9854Q73.584-55.1758 76.3184-48.8281Q79.0527-42.4805 79.0527-35.2539Q79.0527-28.0273 76.3428-21.6797Q73.6328-15.332 68.8232-10.5225Q64.0137-5.71289 57.666-3.00293Q51.3184-0.292969 44.043-0.292969Z"/>
   <path class="hierarchical-1:primary SFSymbolsPreview212121" d="M44.043-14.3066Q45.0684-14.3066 45.0684-15.2832L45.0684-18.457Q49.8047-18.7012 52.71-21.2158Q55.6152-23.7305 55.6152-27.3926Q55.6152-30.7129 53.3447-32.7881Q51.0742-34.8633 46.3379-35.8887L45.0684-36.1816L45.0684-49.2676Q48.2422-48.9746 50.3662-47.3633Q52.4902-45.752 52.832-43.3105Q53.0273-42.1875 53.9551-42.1875Q54.3945-42.1875 54.6875-42.5049Q54.9805-42.8223 54.9805-43.3594Q54.9805-43.5547 54.9561-43.7744Q54.9316-43.9941 54.8828-44.2383Q54.2969-47.1191 51.6113-49.1211Q48.9258-51.123 45.0684-51.3184L45.0684-54.0039Q45.0684-54.9805 44.043-54.9805Q43.0664-54.9805 43.0664-54.0039L43.0664-51.3184Q38.9648-51.0742 36.1328-48.7061Q33.3008-46.3379 33.3008-42.8711Q33.3008-39.7949 35.5469-37.7441Q37.793-35.6934 42.4316-34.668L43.0664-34.5215L43.0664-20.5566Q39.5996-20.8008 37.2314-22.6807Q34.8633-24.5605 34.5703-27.4414Q34.5215-27.9297 34.2773-28.2227Q34.0332-28.5156 33.4961-28.5156Q33.0566-28.5156 32.7881-28.2227Q32.5195-27.9297 32.5195-27.3438Q32.5195-27.1484 32.5439-26.9287Q32.5684-26.709 32.6172-26.4648Q33.252-23.1445 36.0596-20.9473Q38.8672-18.75 43.0664-18.5059L43.0664-15.2832Q43.0664-14.3066 44.043-14.3066ZM43.0664-36.6699L42.8711-36.7188Q39.209-37.5977 37.3291-39.0381Q35.4492-40.4785 35.4492-42.8711Q35.4492-45.5078 37.6465-47.2412Q39.8438-48.9746 43.0664-49.2676ZM45.0684-34.0332L45.8984-33.8379Q49.8535-32.959 51.709-31.4209Q53.5645-29.8828 53.5645-27.3438Q53.5645-24.5605 51.1963-22.6562Q48.8281-20.752 45.0684-20.5566Z"/>
  </g>
 </g>
</svg>
