<?xml version="1.0" encoding="UTF-8"?>
<!--Generator: Apple Native CoreSVG 149-->
<!DOCTYPE svg
PUBLIC "-//W3C//DTD SVG 1.1//EN"
       "http://www.w3.org/Graphics/SVG/1.1/DTD/svg11.dtd">
<svg version="1.1" xmlns="http://www.w3.org/2000/svg" xmlns:xlink="http://www.w3.org/1999/xlink" width="3300" height="2200">
 <!--glyph: "uni10065A.medium", point size: 100.000000, font version: "Version 16.0d18e1", template writer version: "8"-->
 <g id="Notes">
  <rect height="2200" id="artboard" style="fill:white;opacity:1" width="3300" x="0" y="0"/>
  <line id="" style="fill:none;stroke:black;opacity:1;stroke-width:0.5;" x1="263" x2="3036" y1="292" y2="292"/>
  <text style="stroke:none;fill:black;font-family:-apple-system,&quot;SF Pro Display&quot;,&quot;SF Pro Text&quot;,Helvetica,sans-serif;font-weight:bold;" transform="matrix(1 0 0 1 263 322)">Weight/Scale Variations</text>
  <text style="stroke:none;fill:black;font-family:-apple-system,&quot;SF Pro Display&quot;,&quot;SF Pro Text&quot;,Helvetica,sans-serif;text-anchor:middle;" transform="matrix(1 0 0 1 559.711 322)">Ultralight</text>
  <text style="stroke:none;fill:black;font-family:-apple-system,&quot;SF Pro Display&quot;,&quot;SF Pro Text&quot;,Helvetica,sans-serif;text-anchor:middle;" transform="matrix(1 0 0 1 856.422 322)">Thin</text>
  <text style="stroke:none;fill:black;font-family:-apple-system,&quot;SF Pro Display&quot;,&quot;SF Pro Text&quot;,Helvetica,sans-serif;text-anchor:middle;" transform="matrix(1 0 0 1 1153.13 322)">Light</text>
  <text style="stroke:none;fill:black;font-family:-apple-system,&quot;SF Pro Display&quot;,&quot;SF Pro Text&quot;,Helvetica,sans-serif;text-anchor:middle;" transform="matrix(1 0 0 1 1449.84 322)">Regular</text>
  <text style="stroke:none;fill:black;font-family:-apple-system,&quot;SF Pro Display&quot;,&quot;SF Pro Text&quot;,Helvetica,sans-serif;text-anchor:middle;" transform="matrix(1 0 0 1 1746.56 322)">Medium</text>
  <text style="stroke:none;fill:black;font-family:-apple-system,&quot;SF Pro Display&quot;,&quot;SF Pro Text&quot;,Helvetica,sans-serif;text-anchor:middle;" transform="matrix(1 0 0 1 2043.27 322)">Semibold</text>
  <text style="stroke:none;fill:black;font-family:-apple-system,&quot;SF Pro Display&quot;,&quot;SF Pro Text&quot;,Helvetica,sans-serif;text-anchor:middle;" transform="matrix(1 0 0 1 2339.98 322)">Bold</text>
  <text style="stroke:none;fill:black;font-family:-apple-system,&quot;SF Pro Display&quot;,&quot;SF Pro Text&quot;,Helvetica,sans-serif;text-anchor:middle;" transform="matrix(1 0 0 1 2636.69 322)">Heavy</text>
  <text style="stroke:none;fill:black;font-family:-apple-system,&quot;SF Pro Display&quot;,&quot;SF Pro Text&quot;,Helvetica,sans-serif;text-anchor:middle;" transform="matrix(1 0 0 1 2933.4 322)">Black</text>
  <line id="" style="fill:none;stroke:black;opacity:1;stroke-width:0.5;" x1="263" x2="3036" y1="1903" y2="1903"/>
  <g id="" transform="matrix(1 0 0 1 263 1933)">
   <path d="M9.24805 0.830078C13.5547 0.830078 17.1387-2.74414 17.1387-7.05078C17.1387-11.3574 13.5449-14.9316 9.23828-14.9316C4.94141-14.9316 1.36719-11.3574 1.36719-7.05078C1.36719-2.74414 4.95117 0.830078 9.24805 0.830078ZM9.24805-0.654297C5.70312-0.654297 2.87109-3.49609 2.87109-7.05078C2.87109-10.6055 5.69336-13.4473 9.23828-13.4473C12.793-13.4473 15.6348-10.6055 15.6445-7.05078C15.6543-3.49609 12.8027-0.654297 9.24805-0.654297ZM6.39648-6.31836L8.50586-6.31836L8.50586-4.19922C8.50586-3.75977 8.79883-3.45703 9.22852-3.45703C9.67773-3.45703 9.9707-3.75977 9.9707-4.19922L9.9707-6.31836L12.0996-6.31836C12.5391-6.31836 12.8418-6.61133 12.8418-7.04102C12.8418-7.48047 12.5391-7.7832 12.0996-7.7832L9.9707-7.7832L9.9707-9.89258C9.9707-10.3418 9.67773-10.6445 9.22852-10.6445C8.79883-10.6445 8.50586-10.3418 8.50586-9.89258L8.50586-7.7832L6.39648-7.7832C5.94727-7.7832 5.64453-7.48047 5.64453-7.04102C5.64453-6.61133 5.94727-6.31836 6.39648-6.31836Z"/>
  </g>
  <g id="" transform="matrix(1 0 0 1 281.506 1933)">
   <path d="M11.709 2.91016C17.1582 2.91016 21.6699-1.61133 21.6699-7.05078C21.6699-12.5 17.1484-17.0117 11.6992-17.0117C6.25977-17.0117 1.74805-12.5 1.74805-7.05078C1.74805-1.61133 6.26953 2.91016 11.709 2.91016ZM11.709 1.25C7.09961 1.25 3.41797-2.44141 3.41797-7.05078C3.41797-11.6602 7.08984-15.3516 11.6992-15.3516C16.3086-15.3516 20-11.6602 20.0098-7.05078C20.0195-2.44141 16.3184 1.25 11.709 1.25ZM7.98828-6.23047L10.8789-6.23047L10.8789-3.32031C10.8789-2.83203 11.2109-2.5 11.6895-2.5C12.1777-2.5 12.5195-2.83203 12.5195-3.32031L12.5195-6.23047L15.4297-6.23047C15.918-6.23047 16.25-6.5625 16.25-7.04102C16.25-7.5293 15.918-7.87109 15.4297-7.87109L12.5195-7.87109L12.5195-10.7617C12.5195-11.2695 12.1777-11.6016 11.6895-11.6016C11.2109-11.6016 10.8789-11.2598 10.8789-10.7617L10.8789-7.87109L7.98828-7.87109C7.48047-7.87109 7.14844-7.5293 7.14844-7.04102C7.14844-6.5625 7.49023-6.23047 7.98828-6.23047Z"/>
  </g>
  <g id="" transform="matrix(1 0 0 1 304.924 1933)">
   <path d="M14.9707 5.66406C21.9336 5.66406 27.6953-0.0976562 27.6953-7.05078C27.6953-14.0137 21.9238-19.7754 14.9609-19.7754C8.00781-19.7754 2.25586-14.0137 2.25586-7.05078C2.25586-0.0976562 8.01758 5.66406 14.9707 5.66406ZM14.9707 3.84766C8.93555 3.84766 4.08203-1.01562 4.08203-7.05078C4.08203-13.0957 8.92578-17.9492 14.9609-17.9492C21.0059-17.9492 25.8594-13.0957 25.8691-7.05078C25.8789-1.01562 21.0156 3.84766 14.9707 3.84766ZM10.0586-6.14258L14.0625-6.14258L14.0625-2.12891C14.0625-1.5918 14.4336-1.2207 14.9512-1.2207C15.4883-1.2207 15.8594-1.5918 15.8594-2.12891L15.8594-6.14258L19.8828-6.14258C20.4102-6.14258 20.791-6.51367 20.791-7.03125C20.791-7.56836 20.4199-7.94922 19.8828-7.94922L15.8594-7.94922L15.8594-11.9531C15.8594-12.5098 15.4883-12.8809 14.9512-12.8809C14.4336-12.8809 14.0625-12.5 14.0625-11.9531L14.0625-7.94922L10.0586-7.94922C9.50195-7.94922 9.13086-7.56836 9.13086-7.03125C9.13086-6.51367 9.51172-6.14258 10.0586-6.14258Z"/>
  </g>
  <text style="stroke:none;fill:black;font-family:-apple-system,&quot;SF Pro Display&quot;,&quot;SF Pro Text&quot;,Helvetica,sans-serif;font-weight:bold;" transform="matrix(1 0 0 1 263 1953)">Design Variations</text>
  <text style="stroke:none;fill:black;font-family:-apple-system,&quot;SF Pro Display&quot;,&quot;SF Pro Text&quot;,Helvetica,sans-serif;" transform="matrix(1 0 0 1 263 1971)">Symbols are supported in up to nine weights and three scales.</text>
  <text style="stroke:none;fill:black;font-family:-apple-system,&quot;SF Pro Display&quot;,&quot;SF Pro Text&quot;,Helvetica,sans-serif;" transform="matrix(1 0 0 1 263 1989)">For optimal layout with text and other symbols, vertically align</text>
  <text style="stroke:none;fill:black;font-family:-apple-system,&quot;SF Pro Display&quot;,&quot;SF Pro Text&quot;,Helvetica,sans-serif;" transform="matrix(1 0 0 1 263 2007)">symbols with the adjacent text.</text>
  <line id="" style="fill:none;stroke:#00AEEF;stroke-width:0.5;opacity:1.0;" x1="776" x2="776" y1="1919" y2="1933"/>
  <g id="" transform="matrix(1 0 0 1 776 1933)">
   <path d="M3.31055 0.126953C3.82812 0.126953 4.08203-0.0683594 4.26758-0.605469L5.52734-4.0625L11.2891-4.0625L12.5488-0.605469C12.7344-0.0683594 12.9883 0.126953 13.4961 0.126953C14.0137 0.126953 14.3457-0.185547 14.3457-0.673828C14.3457-0.839844 14.3164-0.986328 14.2383-1.20117L9.6582-13.3887C9.43359-13.9941 9.0332-14.2871 8.4082-14.2871C7.80273-14.2871 7.39258-13.9941 7.17773-13.3984L2.59766-1.19141C2.51953-0.976562 2.49023-0.830078 2.49023-0.664062C2.49023-0.175781 2.80273 0.126953 3.31055 0.126953ZM6.00586-5.53711L8.37891-12.1094L8.42773-12.1094L10.8008-5.53711Z"/>
  </g>
  <line id="" style="fill:none;stroke:#00AEEF;stroke-width:0.5;opacity:1.0;" x1="792.836" x2="792.836" y1="1919" y2="1933"/>
  <text style="stroke:none;fill:black;font-family:-apple-system,&quot;SF Pro Display&quot;,&quot;SF Pro Text&quot;,Helvetica,sans-serif;font-weight:bold;" transform="matrix(1 0 0 1 776 1953)">Margins</text>
  <text style="stroke:none;fill:black;font-family:-apple-system,&quot;SF Pro Display&quot;,&quot;SF Pro Text&quot;,Helvetica,sans-serif;" transform="matrix(1 0 0 1 776 1971)">Leading and trailing margins on the left and right side of each symbol</text>
  <text style="stroke:none;fill:black;font-family:-apple-system,&quot;SF Pro Display&quot;,&quot;SF Pro Text&quot;,Helvetica,sans-serif;" transform="matrix(1 0 0 1 776 1989)">can be adjusted by modifying the x-location of the margin guidelines.</text>
  <text style="stroke:none;fill:black;font-family:-apple-system,&quot;SF Pro Display&quot;,&quot;SF Pro Text&quot;,Helvetica,sans-serif;" transform="matrix(1 0 0 1 776 2007)">Modifications are automatically applied proportionally to all</text>
  <text style="stroke:none;fill:black;font-family:-apple-system,&quot;SF Pro Display&quot;,&quot;SF Pro Text&quot;,Helvetica,sans-serif;" transform="matrix(1 0 0 1 776 2025)">scales and weights.</text>
  <g id="" transform="matrix(1 0 0 1 1289 1933)">
   <path d="M2.8418 1.86523L4.54102 3.57422C5.40039 4.44336 6.38672 4.38477 7.31445 3.35938L17.4902-7.85156C17.7539-7.76367 18.0273-7.7832 18.3398-7.8418L19.4043-8.03711L20.0684-7.36328L20.0293-6.80664C19.9902-6.30859 20.1172-5.92773 20.6055-5.44922L21.3672-4.70703C21.8457-4.22852 22.4609-4.19922 22.9297-4.66797L25.8398-7.58789C26.3086-8.05664 26.2891-8.65234 25.8105-9.13086L25.0391-9.89258C24.5605-10.3711 24.1895-10.5273 23.7109-10.4883L23.1348-10.4395L22.4902-11.0742L22.7344-12.1973C22.8613-12.7637 22.7051-13.2031 22.1191-13.7891L19.9219-15.9766C16.582-19.2969 12.1484-19.2188 9.25781-16.3281C8.83789-15.918 8.80859-15.3418 9.04297-14.9512C9.27734-14.5898 9.73633-14.3555 10.3809-14.5215C11.8457-14.8633 13.3691-14.9219 14.7949-13.9844L14.209-12.5293C14.0137-12.0508 13.9844-11.6504 14.1113-11.2891L3.04688-0.898438C2.06055 0.0195312 1.98242 0.996094 2.8418 1.86523ZM10.752-15.957C13.1836-17.7344 16.4746-17.4316 18.7012-15.2051L21.1328-12.793C21.3672-12.5586 21.4062-12.373 21.3379-12.0312L21.0156-10.5469L22.5195-9.0625L23.5059-9.12109C23.7598-9.13086 23.8379-9.11133 24.0332-8.91602L24.6094-8.33984L22.168-5.89844L21.5918-6.47461C21.3965-6.66992 21.3672-6.74805 21.377-7.01172L21.4453-7.98828L19.9512-9.47266L18.4277-9.21875C18.1055-9.15039 17.959-9.17969 17.7148-9.41406L15.7129-11.416C15.459-11.6504 15.4297-11.8164 15.5859-12.1875L16.4648-14.2773C14.9023-15.7324 12.8711-16.3574 10.8398-15.7617C10.6836-15.7227 10.625-15.8496 10.752-15.957ZM5.27344 2.30469L4.10156 1.14258C3.63281 0.683594 3.74023 0.341797 4.14062-0.0195312L14.9512-10.1953L16.416-8.71094L6.42578 2.27539C6.07422 2.67578 5.74219 2.77344 5.27344 2.30469Z"/>
  </g>
  <text style="stroke:none;fill:black;font-family:-apple-system,&quot;SF Pro Display&quot;,&quot;SF Pro Text&quot;,Helvetica,sans-serif;font-weight:bold;" transform="matrix(1 0 0 1 1289 1953)">Exporting</text>
  <text style="stroke:none;fill:black;font-family:-apple-system,&quot;SF Pro Display&quot;,&quot;SF Pro Text&quot;,Helvetica,sans-serif;" transform="matrix(1 0 0 1 1289 1971)">Symbols should be outlined when exporting to ensure the</text>
  <text style="stroke:none;fill:black;font-family:-apple-system,&quot;SF Pro Display&quot;,&quot;SF Pro Text&quot;,Helvetica,sans-serif;" transform="matrix(1 0 0 1 1289 1989)">design is preserved when submitting to Xcode.</text>
  <text id="template-version" style="stroke:none;fill:black;font-family:-apple-system,&quot;SF Pro Display&quot;,&quot;SF Pro Text&quot;,Helvetica,sans-serif;text-anchor:end;" transform="matrix(1 0 0 1 3036 1933)">Template v.2.0</text>
  <text style="stroke:none;fill:black;font-family:-apple-system,&quot;SF Pro Display&quot;,&quot;SF Pro Text&quot;,Helvetica,sans-serif;text-anchor:end;" transform="matrix(1 0 0 1 3036 1951)">Requires Xcode 12 or greater</text>
  <text style="stroke:none;fill:black;font-family:-apple-system,&quot;SF Pro Display&quot;,&quot;SF Pro Text&quot;,Helvetica,sans-serif;text-anchor:end;" transform="matrix(1 0 0 1 3036 1969)">Generated from chevron.left.slash.chevron.right</text>
  <text style="stroke:none;fill:black;font-family:-apple-system,&quot;SF Pro Display&quot;,&quot;SF Pro Text&quot;,Helvetica,sans-serif;text-anchor:end;" transform="matrix(1 0 0 1 3036 1987)">Typeset at 100 points</text>
  <text style="stroke:none;fill:black;font-family:-apple-system,&quot;SF Pro Display&quot;,&quot;SF Pro Text&quot;,Helvetica,sans-serif;" transform="matrix(1 0 0 1 263 726)">Small</text>
  <text style="stroke:none;fill:black;font-family:-apple-system,&quot;SF Pro Display&quot;,&quot;SF Pro Text&quot;,Helvetica,sans-serif;" transform="matrix(1 0 0 1 263 1156)">Medium</text>
  <text style="stroke:none;fill:black;font-family:-apple-system,&quot;SF Pro Display&quot;,&quot;SF Pro Text&quot;,Helvetica,sans-serif;" transform="matrix(1 0 0 1 263 1586)">Large</text>
 </g>
 <g id="Guides">
  <g id="H-reference" style="fill:#27AAE1;stroke:none;" transform="matrix(1 0 0 1 339 696)">
   <path d="M0.976562 0L3.66211 0L12.9883-24.4629L45.752-24.4629L55.127 0L57.7637 0L30.6152-70.459L28.125-70.459ZM29.3457-67.1387L29.4434-67.1387L44.873-26.709L13.8672-26.709Z"/>
  </g>
  <line id="Baseline-S" style="fill:none;stroke:#27AAE1;opacity:1;stroke-width:0.5;" x1="263" x2="3036" y1="696" y2="696"/>
  <line id="Capline-S" style="fill:none;stroke:#27AAE1;opacity:1;stroke-width:0.5;" x1="263" x2="3036" y1="625.541" y2="625.541"/>
  <g id="H-reference" style="fill:#27AAE1;stroke:none;" transform="matrix(1 0 0 1 339 1126)">
   <path d="M0.976562 0L3.66211 0L12.9883-24.4629L45.752-24.4629L55.127 0L57.7637 0L30.6152-70.459L28.125-70.459ZM29.3457-67.1387L29.4434-67.1387L44.873-26.709L13.8672-26.709Z"/>
  </g>
  <line id="Baseline-M" style="fill:none;stroke:#27AAE1;opacity:1;stroke-width:0.5;" x1="263" x2="3036" y1="1126" y2="1126"/>
  <line id="Capline-M" style="fill:none;stroke:#27AAE1;opacity:1;stroke-width:0.5;" x1="263" x2="3036" y1="1055.54" y2="1055.54"/>
  <g id="H-reference" style="fill:#27AAE1;stroke:none;" transform="matrix(1 0 0 1 339 1556)">
   <path d="M0.976562 0L3.66211 0L12.9883-24.4629L45.752-24.4629L55.127 0L57.7637 0L30.6152-70.459L28.125-70.459ZM29.3457-67.1387L29.4434-67.1387L44.873-26.709L13.8672-26.709Z"/>
  </g>
  <line id="Baseline-L" style="fill:none;stroke:#27AAE1;opacity:1;stroke-width:0.5;" x1="263" x2="3036" y1="1556" y2="1556"/>
  <line id="Capline-L" style="fill:none;stroke:#27AAE1;opacity:1;stroke-width:0.5;" x1="263" x2="3036" y1="1485.54" y2="1485.54"/>
  <line id="left-margin" style="fill:none;stroke:#00AEEF;stroke-width:0.5;opacity:1.0;" x1="1366.32" x2="1366.32" y1="1030.79" y2="1150.12"/>
  <line id="right-margin" style="fill:none;stroke:#00AEEF;stroke-width:0.5;opacity:1.0;" x1="1533.36" x2="1533.36" y1="1030.79" y2="1150.12"/>
 </g>
 <g id="Symbols">
  <g id="Black-L" transform="matrix(1 0 0 1 2813.33 1556)">
   <path d="M99.6582 34.7656C106.836 36.8652 113.623 33.0078 115.82 25.5859L149.219-88.7207C151.367-96.1426 147.656-103.027 140.479-105.127C133.35-107.227 126.514-103.369 124.316-95.9473L90.9668 18.3105C88.7695 25.7812 92.4805 32.6172 99.6582 34.7656ZM177.686 12.5488L219.238-25C225.635-30.7617 225.635-39.7461 219.238-45.5078L177.686-83.0078C171.973-88.1836 164.111-87.8906 159.082-82.373C154.102-76.7578 154.59-68.9453 160.254-63.8184L191.895-35.2539L160.254-6.68945C154.59-1.51367 154.102 6.25 159.082 11.8652C164.111 17.4316 171.973 17.7246 177.686 12.5488ZM62.5 12.6465C68.1641 17.8223 76.0742 17.5293 81.0547 12.0117C86.0352 6.39648 85.5957-1.41602 79.8828-6.5918L48.291-35.1074L79.8828-63.6719C85.5957-68.8477 86.0352-76.6602 81.0547-82.2266C76.0742-87.793 68.2617-88.1348 62.5-82.9102L20.8984-45.3613C14.502-39.5996 14.5508-30.6641 20.8984-24.9023Z"/>
  </g>
  <g id="Heavy-L" transform="matrix(1 0 0 1 2519.77 1556)">
   <path d="M96.4844 34.8145C102.588 36.5723 108.398 33.252 110.254 26.9531L144.727-91.1621C146.582-97.5098 143.457-103.418 137.354-105.225C131.25-106.982 125.439-103.662 123.535-97.3633L89.0625 20.752C87.207 27.0996 90.3809 33.0078 96.4844 34.8145ZM170.508 12.4512L213.623-26.5137C219.092-31.4453 219.043-39.1113 213.623-43.9941L170.508-82.959C165.625-87.3535 158.887-87.1582 154.639-82.4219C150.391-77.6367 150.781-70.9961 155.664-66.6016L190.332-35.2539L155.664-3.90625C150.781 0.488281 150.391 7.12891 154.639 11.9141C158.887 16.6504 165.625 16.8457 170.508 12.4512ZM63.3301 12.5488C68.2129 16.9922 74.9512 16.748 79.1992 12.0117C83.4473 7.22656 83.0078 0.585938 78.1738-3.80859L43.5059-35.1562L78.1738-66.5039C83.0078-70.8984 83.4473-77.5391 79.1992-82.3242C74.9512-87.0605 68.2617-87.3047 63.3301-82.8613L20.2148-43.8965C14.7461-38.9648 14.7461-31.2988 20.2148-26.416Z"/>
  </g>
  <g id="Bold-L" transform="matrix(1 0 0 1 2226.62 1556)">
   <path d="M92.9199 34.8633C97.8027 36.2793 102.539 33.5938 104.053 28.4668L139.746-93.9453C141.211-99.0723 138.721-103.857 133.789-105.322C128.906-106.738 124.17-104.053 122.656-98.9258L86.9629 23.4863C85.498 28.6621 87.9883 33.3984 92.9199 34.8633ZM162.451 12.3047L207.275-28.1738C211.719-32.1289 211.67-38.3789 207.275-42.3828L162.451-82.8613C158.496-86.4746 153.076-86.2793 149.658-82.4707C146.24-78.6621 146.582-73.2422 150.488-69.7266L188.574-35.2539L150.488-0.830078C146.582 2.73438 146.24 8.10547 149.658 11.9629C153.076 15.7715 158.496 15.918 162.451 12.3047ZM64.2578 12.4023C68.2129 16.0156 73.6816 15.8691 77.0996 12.0605C80.5176 8.20312 80.127 2.83203 76.2207-0.732422L38.1348-35.1562L76.2207-69.6289C80.127-73.1445 80.5176-78.5645 77.0996-82.373C73.6816-86.1816 68.2617-86.377 64.2578-82.7637L19.4336-42.2852C14.9902-38.2812 15.0391-32.0801 19.4336-28.0762Z"/>
  </g>
  <g id="Semibold-L" transform="matrix(1 0 0 1 1932.35 1556)">
   <path d="M90.4297 34.9121C94.5312 36.084 98.4863 33.8379 99.7559 29.541L136.328-95.8496C137.549-100.146 135.498-104.15 131.396-105.371C127.295-106.543 123.34-104.297 122.07-100L85.498 25.3906C84.2773 29.6875 86.3281 33.6914 90.4297 34.9121ZM156.934 12.2559L202.93-29.2969C206.641-32.666 206.592-37.8906 202.93-41.2109L156.934-82.7637C153.613-85.791 149.023-85.6934 146.191-82.5195C143.359-79.3457 143.701-74.8047 146.924-71.8262L187.354-35.2539L146.924 1.31836C143.701 4.29688 143.359 8.78906 146.191 11.9629C149.023 15.1367 153.613 15.2832 156.934 12.2559ZM64.8926 12.3047C68.2129 15.332 72.8027 15.2344 75.6348 12.0605C78.4668 8.83789 78.125 4.3457 74.9023 1.36719L34.4727-35.2051L74.9023-71.7773C78.125-74.7559 78.4668-79.248 75.6348-82.4219C72.8027-85.6445 68.2617-85.7422 64.8926-82.7148L18.8965-41.1621C15.1855-37.793 15.2344-32.5684 18.8965-29.248Z"/>
  </g>
  <g id="Medium-L" transform="matrix(1 0 0 1 1637.5 1556)">
   <path d="M88.5742 34.9121C92.041 35.9375 95.4102 33.9844 96.4844 30.3223L133.691-97.2656C134.717-100.977 133.008-104.346 129.541-105.42C126.074-106.396 122.705-104.492 121.631-100.83L84.4238 26.8066C83.3984 30.4688 85.1074 33.8867 88.5742 34.9121ZM152.734 12.207L199.658-30.1758C202.832-33.0566 202.783-37.5 199.658-40.3809L152.734-82.7148C149.902-85.3516 145.996-85.2539 143.604-82.5684C141.162-79.834 141.455-75.9766 144.238-73.4863L186.475-35.2539L144.238 2.92969C141.455 5.46875 141.162 9.27734 143.604 12.0117C145.996 14.6973 149.902 14.7949 152.734 12.207ZM65.3809 12.2559C68.2129 14.8438 72.1191 14.7949 74.5605 12.0605C76.9531 9.375 76.6602 5.51758 73.877 2.97852L31.6406-35.2051L73.877-73.3887C76.6602-75.9277 76.9531-79.7852 74.5605-82.4707C72.1191-85.2051 68.2617-85.2539 65.3809-82.666L18.457-40.2832C15.2832-37.4512 15.332-32.959 18.457-30.127Z"/>
  </g>
  <g id="Regular-L" transform="matrix(1 0 0 1 1343.2 1556)">
   <path d="M86.1328 34.9609C88.8184 35.7422 91.4062 34.2285 92.2363 31.3477L130.322-99.1699C131.104-102.002 129.785-104.639 127.148-105.469C124.463-106.25 121.875-104.736 121.045-101.855L82.959 28.6621C82.1777 31.543 83.4961 34.1309 86.1328 34.9609ZM147.266 12.1094L195.361-31.3477C197.803-33.5449 197.754-37.0117 195.361-39.2578L147.266-82.666C145.02-84.7168 142.041-84.668 140.186-82.6172C138.33-80.5176 138.623-77.5391 140.723-75.5859L185.254-35.3027L140.723 5.0293C138.623 6.98242 138.33 9.96094 140.186 12.0117C142.041 14.1113 145.02 14.1602 147.266 12.1094ZM66.0156 12.1582C68.2129 14.209 71.2402 14.1602 73.0957 12.1094C74.9512 10.0098 74.6582 7.03125 72.5586 5.07812L28.0273-35.2051L72.5586-75.5371C74.6582-77.4902 74.9512-80.4688 73.0957-82.5195C71.2402-84.6191 68.2129-84.6191 66.0156-82.6172L17.9199-39.1602C15.4785-36.9629 15.5273-33.4473 17.9199-31.25Z"/>
  </g>
  <g id="Light-L" transform="matrix(1 0 0 1 1048.03 1556)">
   <path d="M84.668 34.7656C86.6699 35.3516 88.623 34.2285 89.2578 32.0801L127.93-100.635C128.516-102.734 127.539-104.688 125.537-105.322C123.535-105.908 121.582-104.785 120.947-102.637L82.2754 30.0293C81.6895 32.1777 82.666 34.1309 84.668 34.7656ZM143.701 11.9141L192.773-32.373C194.58-34.0332 194.531-36.6211 192.773-38.2812L143.701-82.6172C142.041-84.1309 139.746-84.082 138.379-82.5195C137.012-80.957 137.256-78.7109 138.818-77.2949L185.156-35.3516L138.818 6.64062C137.256 8.05664 137.012 10.3027 138.379 11.8652C139.746 13.3789 142.041 13.4277 143.701 11.9141ZM66.5039 12.0117C68.1641 13.5254 70.459 13.4766 71.8262 11.9629C73.1934 10.4004 72.998 8.1543 71.3867 6.73828L25.0488-35.2539L71.3867-77.1973C72.998-78.6133 73.1934-80.8594 71.8262-82.4219C70.459-83.9844 68.1641-84.0332 66.5039-82.5195L17.4805-38.1836C15.6738-36.5234 15.6738-33.9355 17.4805-32.2754Z"/>
  </g>
  <g id="Thin-L" transform="matrix(1 0 0 1 753.346 1556)">
   <path d="M82.7148 34.4727C83.8379 34.8145 84.9609 34.2285 85.2539 33.0078L124.756-102.539C125.098-103.711 124.561-104.736 123.438-105.127C122.314-105.518 121.24-104.883 120.898-103.662L81.3965 31.8848C81.1035 33.0078 81.5918 34.082 82.7148 34.4727ZM139.014 11.6699L189.355-33.7891C190.283-34.7168 190.283-36.1328 189.355-37.0605L139.014-82.5195C138.086-83.3496 136.768-83.252 136.035-82.4219C135.303-81.5918 135.449-80.2734 136.279-79.541L185.01-35.4004L136.279 8.74023C135.449 9.47266 135.303 10.791 136.035 11.6211C136.768 12.4512 138.086 12.5 139.014 11.6699ZM67.1387 11.8164C68.0664 12.6465 69.3848 12.5977 70.1172 11.7676C70.8496 10.9375 70.752 9.61914 69.873 8.88672L21.1426-35.2539L69.873-79.3945C70.752-80.127 70.8496-81.4453 70.1172-82.2754C69.3848-83.1055 68.0664-83.2031 67.1387-82.373L16.8457-36.9141C15.8691-35.9863 15.8691-34.5215 16.8457-33.6426Z"/>
  </g>
  <g id="Ultralight-L" transform="matrix(1 0 0 1 457.66 1556)">
   <path d="M81.7383 34.2773C82.373 34.5703 83.0566 34.2285 83.2031 33.4961L123.145-103.564C123.34-104.199 123.047-104.785 122.363-105.029C121.729-105.273 121.045-104.932 120.85-104.199L80.9082 32.8125C80.7617 33.4473 81.0547 34.0332 81.7383 34.2773ZM136.621 11.5723L187.598-34.4727C188.086-35.0098 188.086-35.8887 187.598-36.4258L136.621-82.4707C136.084-82.9102 135.254-82.8613 134.863-82.373C134.473-81.8848 134.521-81.1035 134.961-80.7129L184.961-35.4492L134.961 9.81445C134.521 10.2051 134.473 10.9863 134.863 11.4746C135.254 11.9629 136.084 12.0117 136.621 11.5723ZM67.4805 11.7188C68.0176 12.207 68.8477 12.1094 69.2383 11.6699C69.6289 11.1816 69.5801 10.3516 69.1406 9.96094L19.1406-35.2539L69.1406-80.5176C69.5801-80.9082 69.6289-81.7383 69.2383-82.1777C68.8477-82.666 68.0176-82.7637 67.4805-82.2754L16.5039-36.2305C15.9668-35.6934 15.9668-34.8633 16.5039-34.3262Z"/>
  </g>
  <g id="Black-M" transform="matrix(1 0 0 1 2836.87 1126)">
   <path d="M80.7617 18.7988C87.4023 20.8008 93.6523 17.2363 95.6543 10.4492L120.361-74.1211C122.412-80.957 118.945-87.2559 112.305-89.209C105.664-91.1621 99.4141-87.6465 97.4121-80.8105L72.7051 3.71094C70.6543 10.5469 74.1211 16.8457 80.7617 18.7988ZM145.508 1.80664L176.172-25.8789C182.031-31.1523 182.031-39.3555 176.172-44.6777L145.508-72.3633C140.283-77.0996 133.008-76.7578 128.369-71.6309C123.779-66.4551 124.17-59.2773 129.395-54.541L150.781-35.2539L129.395-15.9668C124.17-11.2305 123.779-4.05273 128.369 1.12305C133.008 6.25 140.283 6.54297 145.508 1.80664ZM47.5586 1.95312C52.7832 6.68945 60.0586 6.34766 64.6973 1.26953C69.2871-3.90625 68.8965-11.1328 63.6719-15.8691L42.2852-35.1562L63.6719-54.3945C68.8965-59.1309 69.2871-66.3574 64.6973-71.5332C60.0586-76.6602 52.8809-77.002 47.5586-72.2168L16.8945-44.5312C11.0352-39.2578 11.0352-31.0547 16.8945-25.7324Z"/>
  </g>
  <g id="Heavy-M" transform="matrix(1 0 0 1 2543.23 1126)">
   <path d="M77.6855 18.9453C83.3008 20.6055 88.6719 17.5781 90.3809 11.7188L116.113-76.4648C117.822-82.2754 114.893-87.6953 109.277-89.3555C103.613-91.0156 98.291-87.9883 96.5332-82.1289L70.8008 6.05469C69.0918 11.8652 72.0215 17.2852 77.6855 18.9453ZM138.574 1.75781L170.654-27.1973C175.684-31.7383 175.684-38.7695 170.654-43.3105L138.574-72.2656C134.082-76.3184 127.881-76.0742 123.975-71.7285C120.02-67.334 120.41-61.1816 124.854-57.1289L149.072-35.2539L124.854-13.3789C120.41-9.32617 120.02-3.17383 123.975 1.2207C127.881 5.56641 134.082 5.81055 138.574 1.75781ZM48.3398 1.85547C52.832 5.9082 59.0332 5.66406 62.9395 1.31836C66.8945-3.07617 66.5527-9.22852 62.0605-13.2812L37.8418-35.1562L62.0605-57.0312C66.5527-61.084 66.8945-67.2363 62.9395-71.6309C59.0332-75.9766 52.8809-76.2695 48.3398-72.168L16.2598-43.2129C11.2305-38.6719 11.2305-31.6406 16.2598-27.0996Z"/>
  </g>
  <g id="Bold-M" transform="matrix(1 0 0 1 2249.94 1126)">
   <path d="M74.1699 19.043C78.7109 20.3613 83.0566 17.9199 84.4238 13.1836L111.377-79.0527C112.744-83.7891 110.4-88.1348 105.859-89.502C101.318-90.8203 97.0215-88.3301 95.6055-83.6426L68.7012 8.59375C67.334 13.3301 69.6289 17.7246 74.1699 19.043ZM130.811 1.70898L164.502-28.7109C168.604-32.373 168.555-38.0859 164.502-41.748L130.811-72.2168C127.197-75.4883 122.168-75.3418 119.043-71.8262C115.869-68.2617 116.162-63.3301 119.775-60.0586L147.217-35.2539L119.775-10.4492C116.162-7.17773 115.869-2.24609 119.043 1.31836C122.168 4.83398 127.197 4.98047 130.811 1.70898ZM49.2188 1.75781C52.8809 5.07812 57.8613 4.88281 61.0352 1.36719C64.209-2.14844 63.8672-7.12891 60.3027-10.4004L32.8613-35.1562L60.3027-59.9609C63.8672-63.2324 64.209-68.2129 61.0352-71.7285C57.8613-75.2441 52.8809-75.4395 49.2188-72.1191L15.5273-41.6992C11.4746-38.0371 11.4746-32.3242 15.5273-28.6621Z"/>
  </g>
  <g id="Semibold-M" transform="matrix(1 0 0 1 1955.6 1126)">
   <path d="M71.7773 19.1406C75.5859 20.2148 79.1992 18.1641 80.3711 14.209L108.105-80.8105C109.229-84.8145 107.324-88.4766 103.516-89.5996C99.7559-90.6738 96.1426-88.5742 94.9707-84.668L67.2363 10.4004C66.1133 14.3555 68.0176 18.0176 71.7773 19.1406ZM125.488 1.66016L160.254-29.7852C163.672-32.8613 163.672-37.6465 160.254-40.7227L125.488-72.1191C122.412-74.9023 118.262-74.8047 115.625-71.875C112.988-68.9453 113.281-64.7949 116.26-62.0605L145.898-35.2539L116.26-8.44727C113.281-5.71289 112.988-1.5625 115.625 1.36719C118.262 4.29688 122.412 4.44336 125.488 1.66016ZM49.8535 1.70898C52.8809 4.49219 57.0801 4.39453 59.7168 1.41602C62.3535-1.51367 62.0605-5.66406 59.0332-8.39844L29.3945-35.2051L59.0332-61.9629C62.0605-64.7461 62.3535-68.8477 59.7168-71.8262C57.0801-74.7559 52.9297-74.8535 49.8535-72.0703L15.0391-40.6738C11.6211-37.5977 11.6699-32.7637 15.0391-29.7363Z"/>
  </g>
  <g id="Medium-M" transform="matrix(1 0 0 1 1660.69 1126)">
   <path d="M69.9707 19.1895C73.1934 20.1172 76.2695 18.3594 77.2461 14.9902L105.615-82.1777C106.543-85.5469 104.932-88.6719 101.758-89.6484C98.5352-90.5762 95.459-88.7695 94.4824-85.4492L66.1621 11.7188C65.1855 15.1367 66.7969 18.2617 69.9707 19.1895ZM121.436 1.61133L157.08-30.5664C159.961-33.2031 159.961-37.3047 157.08-39.8926L121.436-72.1191C118.848-74.4629 115.234-74.4141 113.037-71.9238C110.791-69.4336 111.084-65.918 113.623-63.5742L144.922-35.2539L113.623-6.93359C111.084-4.58984 110.791-1.07422 113.037 1.41602C115.234 3.90625 118.848 4.00391 121.436 1.61133ZM50.293 1.66016C52.9297 4.05273 56.4941 3.95508 58.6914 1.46484C60.9375-1.02539 60.6445-4.54102 58.1055-6.88477L26.8066-35.2051L58.1055-63.5254C60.6445-65.8691 60.9375-69.3848 58.6914-71.875C56.4941-74.3652 52.9297-74.4629 50.293-72.0703L14.6973-39.8926C11.7676-37.2559 11.8164-33.1543 14.6973-30.5176Z"/>
  </g>
  <g id="Regular-M" transform="matrix(1 0 0 1 1366.32 1126)">
   <path d="M67.627 19.2871C70.0684 19.9707 72.4609 18.6035 73.2422 15.9668L102.344-83.9355C103.076-86.5723 101.904-89.0137 99.4629-89.7461C97.0215-90.4297 94.6289-89.0625 93.8477-86.4258L64.6973 13.4766C63.9648 16.1133 65.1855 18.5547 67.627 19.2871ZM116.162 1.5625L152.881-31.5918C155.127-33.6426 155.078-36.8652 152.881-38.8672L116.162-72.0215C114.111-73.9258 111.377-73.877 109.668-71.9727C107.959-70.0684 108.203-67.334 110.156-65.5273L143.652-35.2539L110.156-4.93164C108.203-3.125 107.959-0.390625 109.668 1.51367C111.377 3.41797 114.111 3.41797 116.162 1.5625ZM50.9277 1.61133C52.9297 3.4668 55.7129 3.41797 57.4219 1.51367C59.1309-0.390625 58.8379-3.07617 56.8848-4.88281L23.3887-35.2051L56.8848-65.5273C58.8379-67.334 59.1309-70.0195 57.4219-71.9727C55.7129-73.877 52.9297-73.877 50.9277-72.0215L14.1602-38.8672C11.9141-36.8164 11.9629-33.5938 14.1602-31.5918Z"/>
  </g>
  <g id="Light-M" transform="matrix(1 0 0 1 1070.98 1126)">
   <path d="M66.3086 19.0918C68.1152 19.6289 69.9707 18.6035 70.5078 16.6016L100.195-85.2539C100.732-87.207 99.8535-89.0625 97.998-89.5996C96.1914-90.1367 94.3359-89.1113 93.7988-87.1094L64.1113 14.7461C63.5742 16.6992 64.4531 18.5059 66.3086 19.0918ZM112.988 1.41602L150.537-32.5684C152.246-34.082 152.197-36.4746 150.537-38.0371L112.988-71.9727C111.426-73.3887 109.326-73.3398 108.057-71.9238C106.787-70.459 106.982-68.4082 108.447-67.0898L143.555-35.3027L108.447-3.51562C106.982-2.14844 106.787-0.0976562 108.057 1.31836C109.326 2.7832 111.426 2.7832 112.988 1.41602ZM51.3672 1.46484C52.8809 2.88086 54.9805 2.83203 56.25 1.41602C57.5195-0.0488281 57.3242-2.09961 55.8594-3.4668L20.752-35.2051L55.8594-66.9922C57.3242-68.3594 57.5195-70.4102 56.25-71.875C54.9805-73.291 52.8809-73.291 51.3672-71.9238L13.7695-37.9883C12.0605-36.4258 12.1094-34.0332 13.7695-32.4707Z"/>
  </g>
  <g id="Thin-M" transform="matrix(1 0 0 1 776.076 1126)">
   <path d="M64.5508 18.8477C65.5762 19.1895 66.6504 18.6035 66.9434 17.4316L97.4121-86.9629C97.7051-88.0859 97.2168-89.1113 96.1426-89.4531C95.0684-89.7949 94.043-89.209 93.7012-88.0371L63.2812 16.3574C62.9883 17.4805 63.4766 18.5059 64.5508 18.8477ZM108.74 1.17188L147.51-33.7891C148.389-34.668 148.389-36.0352 147.51-36.9141L108.74-71.875C107.91-72.6562 106.689-72.6074 105.957-71.8262C105.273-71.0449 105.371-69.8242 106.152-69.0918L143.408-35.3516L106.152-1.61133C105.371-0.878906 105.273 0.341797 105.957 1.12305C106.689 1.9043 107.91 1.95312 108.74 1.17188ZM51.9043 1.26953C52.7832 2.05078 54.0039 2.00195 54.7363 1.2207C55.4199 0.439453 55.3223-0.78125 54.4922-1.51367L17.2363-35.2539L54.4922-68.9941C55.3223-69.7266 55.4199-70.8984 54.7363-71.7285C54.0039-72.5098 52.7832-72.5586 51.9043-71.7773L13.1836-36.8164C12.2559-35.9375 12.2559-34.5703 13.1836-33.6914Z"/>
  </g>
  <g id="Ultralight-M" transform="matrix(1 0 0 1 480.292 1126)">
   <path d="M63.623 18.7012C64.3066 18.9453 64.9414 18.6035 65.1367 17.8711L95.9473-87.8906C96.1426-88.5254 95.8496-89.1113 95.166-89.3555C94.5312-89.5996 93.8477-89.2578 93.7012-88.5254L62.8906 17.2363C62.6953 17.8711 62.9883 18.457 63.623 18.7012ZM106.592 1.07422L145.898-34.4238C146.436-34.9609 146.436-35.791 145.898-36.3281L106.592-71.8262C106.055-72.3145 105.322-72.2656 104.883-71.7773C104.492-71.2891 104.541-70.5566 104.98-70.1172L143.359-35.4004L104.98-0.634766C104.541-0.244141 104.492 0.537109 104.883 1.02539C105.322 1.46484 106.055 1.5625 106.592 1.07422ZM52.1973 1.17188C52.7344 1.66016 53.5156 1.61133 53.9062 1.12305C54.3457 0.634766 54.2969-0.0976562 53.8086-0.537109L15.4785-35.2539L53.8086-69.9707C54.2969-70.4102 54.3457-71.1914 53.9062-71.6309C53.5156-72.1191 52.7344-72.168 52.1973-71.7285L12.8906-36.2305C12.3535-35.6934 12.3535-34.8633 12.8906-34.3262Z"/>
  </g>
  <g id="Black-S" transform="matrix(1 0 0 1 2858.01 696)">
   <path d="M63.0371 7.12891C68.1641 8.64258 72.998 5.9082 74.5605 0.634766L93.9941-65.8691C95.5566-71.1426 92.8711-76.0254 87.7441-77.5391C82.6172-79.0527 77.7832-76.3184 76.2207-71.0449L56.7871-4.54102C55.2246 0.732422 57.9102 5.61523 63.0371 7.12891ZM113.477-6.20117L137.598-27.9785C142.139-32.0801 142.139-38.4277 137.598-42.5293L113.477-64.3066C109.424-67.9688 103.809-67.7246 100.244-63.7695C96.6797-59.7656 96.9727-54.1992 101.025-50.5371L117.969-35.2539L101.025-19.9707C96.9727-16.3086 96.6797-10.7422 100.244-6.73828C103.809-2.7832 109.424-2.53906 113.477-6.20117ZM37.3047-6.10352C41.3574-2.44141 46.9727-2.68555 50.5371-6.64062C54.1016-10.6445 53.8086-16.2109 49.7559-19.873L32.8125-35.1562L49.7559-50.4395C53.8086-54.1016 54.1016-59.668 50.5371-63.6719C46.9727-67.627 41.4062-67.9199 37.3047-64.209L13.1836-42.4316C8.64258-38.3301 8.64258-31.9824 13.1836-27.8809Z"/>
  </g>
  <g id="Heavy-S" transform="matrix(1 0 0 1 2563.5 696)">
   <path d="M60.791 7.22656C65.2344 8.54492 69.4336 6.15234 70.8008 1.5625L90.9668-67.4805C92.334-72.0703 89.9902-76.3184 85.5469-77.6367C81.1523-78.9551 76.9531-76.5625 75.5859-71.9727L55.4199-2.92969C54.0527 1.66016 56.3477 5.9082 60.791 7.22656ZM108.496-6.25L133.643-28.9062C137.598-32.4707 137.598-37.9883 133.643-41.5527L108.496-64.2578C104.98-67.4316 100.098-67.2852 97.0215-63.8184C93.9453-60.3516 94.2383-55.5176 97.7539-52.3438L116.699-35.2539L97.7539-18.1152C94.2383-14.9414 93.9453-10.1074 97.0215-6.64062C100.098-3.22266 104.98-3.02734 108.496-6.25ZM37.8418-6.15234C41.3574-2.97852 46.2402-3.125 49.3164-6.5918C52.4414-10.0586 52.1484-14.8926 48.6328-18.0664L29.6875-35.1562L48.6328-52.2949C52.1484-55.4688 52.4414-60.3027 49.3164-63.7695C46.2402-67.1875 41.4062-67.4316 37.8418-64.1602L12.7441-41.5039C8.78906-37.9395 8.78906-32.4219 12.7441-28.8574Z"/>
  </g>
  <g id="Bold-S" transform="matrix(1 0 0 1 2269.25 696)">
   <path d="M58.3008 7.37305C61.9629 8.39844 65.4785 6.39648 66.6016 2.58789L87.5977-69.3359C88.7207-73.1445 86.8164-76.709 83.1543-77.7832C79.4922-78.8574 75.9766-76.8555 74.8535-73.0469L53.8574-1.12305C52.7832 2.73438 54.6387 6.25 58.3008 7.37305ZM102.979-6.25L129.248-29.9805C132.52-32.9102 132.52-37.5488 129.248-40.5273L102.979-64.209C100.049-66.8945 95.9961-66.748 93.457-63.916C90.8691-61.0352 91.1621-57.0312 94.043-54.3945L115.283-35.2539L94.043-16.0645C91.1621-13.4277 90.8691-9.42383 93.457-6.54297C95.9961-3.71094 100.049-3.61328 102.979-6.25ZM38.4766-6.20117C41.4062-3.51562 45.459-3.66211 47.998-6.49414C50.5859-9.375 50.293-13.3789 47.4121-16.0156L26.1719-35.2051L47.4121-54.3457C50.293-56.9824 50.5859-60.9863 47.998-63.8672C45.459-66.6992 41.4551-66.8457 38.4766-64.1602L12.2559-40.4785C8.93555-37.5 8.93555-32.8613 12.2559-29.8828Z"/>
  </g>
  <g id="Semibold-S" transform="matrix(1 0 0 1 1974.22 696)">
   <path d="M56.5918 7.42188C59.7168 8.34961 62.7441 6.5918 63.7207 3.32031L85.2539-70.5566C86.1816-73.877 84.6191-76.9043 81.4941-77.8809C78.3691-78.7598 75.3418-77.002 74.3652-73.7305L52.832 0.146484C51.8555 3.4668 53.4668 6.49414 56.5918 7.42188ZM99.1699-6.29883L126.172-30.6641C129.053-33.2031 129.004-37.207 126.172-39.7949L99.1699-64.1602C96.6309-66.5039 93.1641-66.4062 90.9668-63.9648C88.7695-61.5234 89.0137-58.0566 91.5527-55.8105L114.258-35.2051L91.5527-14.6484C89.0137-12.3535 88.7695-8.93555 90.9668-6.49414C93.1641-4.05273 96.6309-3.95508 99.1699-6.29883ZM38.916-6.25C41.4551-3.95508 44.9219-4.00391 47.1191-6.44531C49.2676-8.88672 49.0234-12.3535 46.5332-14.5996L23.7793-35.2051L46.5332-55.7617C49.0234-58.0566 49.2676-61.4746 47.1191-63.916C44.9219-66.3574 41.4551-66.4551 38.916-64.1113L11.9141-39.7461C9.0332-37.207 9.08203-33.2031 11.9141-30.6641Z"/>
  </g>
  <g id="Medium-S" transform="matrix(1 0 0 1 1678.81 696)">
   <path d="M55.2734 7.51953C58.0078 8.30078 60.6445 6.73828 61.5234 3.85742L83.4961-71.5332C84.3262-74.4141 82.959-77.0996 80.2246-77.9297C77.4902-78.7109 74.8535-77.1484 73.9746-74.3164L52.002 1.12305C51.1719 4.00391 52.5391 6.68945 55.2734 7.51953ZM96.2891-6.29883L123.877-31.2012C126.367-33.4473 126.318-36.9629 123.877-39.209L96.2891-64.1602C94.043-66.1621 91.0156-66.1133 89.1113-64.0137C87.207-61.8652 87.4512-58.8379 89.5996-56.8359L113.525-35.2051L89.5996-13.5742C87.4512-11.5723 87.207-8.59375 89.1113-6.44531C91.0156-4.29688 94.043-4.24805 96.2891-6.29883ZM39.209-6.29883C41.4551-4.24805 44.4824-4.29688 46.3867-6.39648C48.3398-8.54492 48.0957-11.5723 45.8984-13.5742L21.9727-35.2051L45.8984-56.8359C48.0957-58.8379 48.3398-61.8164 46.3867-63.9648C44.4824-66.1133 41.4551-66.1621 39.209-64.1113L11.6211-39.209C9.13086-36.9629 9.17969-33.4473 11.6211-31.2012Z"/>
  </g>
  <g id="Regular-S" transform="matrix(1 0 0 1 1383.76 696)">
   <path d="M53.5645 7.56836C55.8105 8.20312 57.959 6.93359 58.6426 4.58984L81.2012-72.7539C81.8359-75.1465 80.7617-77.3438 78.5645-78.0273C76.3672-78.6133 74.2188-77.3438 73.4863-75L50.9766 2.34375C50.293 4.73633 51.3672 6.93359 53.5645 7.56836ZM92.5293-6.34766L120.85-31.9336C122.9-33.7402 122.852-36.6699 120.85-38.4766L92.5293-64.1113C90.6738-65.7715 88.1836-65.7715 86.6699-64.0625C85.1074-62.3047 85.3516-59.8633 87.1094-58.252L112.549-35.2051L87.1094-12.1582C85.3516-10.5469 85.1074-8.10547 86.6699-6.39648C88.1836-4.63867 90.6738-4.63867 92.5293-6.34766ZM39.6484-6.29883C41.4551-4.63867 43.9453-4.63867 45.5078-6.34766C47.0703-8.10547 46.8262-10.5469 45.0195-12.1582L19.5801-35.2051L45.0195-58.252C46.8262-59.8633 47.0703-62.3047 45.5078-64.0625C43.9453-65.7715 41.4551-65.7715 39.6484-64.1113L11.2793-38.4766C9.22852-36.6699 9.27734-33.7402 11.2793-31.9336Z"/>
  </g>
  <g id="Light-S" transform="matrix(1 0 0 1 1088.27 696)">
   <path d="M52.3926 7.42188C54.1016 7.91016 55.7129 6.93359 56.25 5.12695L79.2969-73.9258C79.7852-75.7324 79.0039-77.3926 77.2949-77.8809C75.6348-78.3691 73.9746-77.3926 73.4863-75.6348L50.4395 3.41797C49.9023 5.22461 50.7324 6.88477 52.3926 7.42188ZM89.6973-6.49414L118.799-32.7637C120.361-34.1797 120.312-36.377 118.799-37.7441L89.6973-64.0625C88.3301-65.332 86.4258-65.2832 85.2539-64.0137C84.082-62.6953 84.2773-60.8398 85.5957-59.5703L112.5-35.2539L85.5957-10.9375C84.2773-9.7168 84.082-7.8125 85.2539-6.54297C86.4258-5.22461 88.3301-5.17578 89.6973-6.49414ZM40.0391-6.44531C41.4062-5.17578 43.3105-5.17578 44.4824-6.49414C45.6543-7.8125 45.459-9.66797 44.1406-10.8887L17.2363-35.2051L44.1406-59.5703C45.459-60.791 45.6543-62.6465 44.4824-63.9648C43.3105-65.2832 41.4062-65.2832 40.0391-64.0137L10.8887-37.6953C9.375-36.3281 9.375-34.1309 10.8887-32.7148Z"/>
  </g>
  <g id="Thin-S" transform="matrix(1 0 0 1 793.165 696)">
   <path d="M50.8789 7.17773C51.8555 7.4707 52.7832 6.93359 53.0762 5.85938L76.8066-75.4395C77.0996-76.4648 76.6113-77.3926 75.6348-77.7344C74.6582-78.0273 73.6816-77.4902 73.3887-76.416L49.707 4.88281C49.4141 5.9082 49.9023 6.88477 50.8789 7.17773ZM85.9863-6.64062L116.113-33.8867C116.943-34.668 116.943-35.9375 116.113-36.7676L85.9863-63.9648C85.1562-64.6973 84.0332-64.6484 83.3984-63.916C82.7148-63.1836 82.8125-62.0605 83.5938-61.377L112.354-35.3027L83.5938-9.27734C82.8125-8.59375 82.7148-7.4707 83.3984-6.68945C84.0332-5.95703 85.1562-5.9082 85.9863-6.64062ZM40.5273-6.5918C41.3574-5.85938 42.4805-5.9082 43.1152-6.64062C43.7988-7.37305 43.7012-8.49609 42.9199-9.17969L14.1602-35.2539L42.9199-61.2793C43.7012-61.9629 43.7988-63.0859 43.1152-63.8672C42.4805-64.5996 41.3574-64.6484 40.5273-63.916L10.4004-36.6699C9.52148-35.8887 9.57031-34.6191 10.4004-33.7891Z"/>
  </g>
  <g id="Ultralight-S" transform="matrix(1 0 0 1 497.284 696)">
   <path d="M50.0488 7.08008C50.6836 7.27539 51.3184 6.93359 51.4648 6.25L75.5371-76.2207C75.6836-76.8555 75.3906-77.4414 74.8047-77.6367C74.1699-77.8809 73.5352-77.5391 73.3887-76.8555L49.3164 5.61523C49.1699 6.25 49.4629 6.83594 50.0488 7.08008ZM84.082-6.78711L114.697-34.4238C115.234-34.9609 115.234-35.7422 114.697-36.2305L84.082-63.916C83.5449-64.3555 82.8125-64.3555 82.4219-63.8672C82.0312-63.4277 82.0801-62.6953 82.5684-62.3047L112.305-35.3516L82.5684-8.39844C82.0801-8.00781 82.0312-7.27539 82.4219-6.83594C82.8125-6.34766 83.5449-6.29883 84.082-6.78711ZM40.8203-6.68945C41.3086-6.20117 42.041-6.25 42.4316-6.73828C42.8223-7.17773 42.7734-7.91016 42.334-8.30078L12.5488-35.2539L42.334-62.207C42.7734-62.5977 42.8223-63.3301 42.4316-63.7695C42.041-64.2578 41.3086-64.3066 40.8203-63.8184L10.1562-36.1328C9.61914-35.6445 9.61914-34.8633 10.1562-34.3262Z"/>
  </g>
 </g>
</svg>
