<?xml version="1.0" encoding="UTF-8"?>
<!--Generator: Apple Native CoreSVG 149-->
<!DOCTYPE svg
PUBLIC "-//W3C//DTD SVG 1.1//EN"
       "http://www.w3.org/Graphics/SVG/1.1/DTD/svg11.dtd">
<svg version="1.1" xmlns="http://www.w3.org/2000/svg" xmlns:xlink="http://www.w3.org/1999/xlink" width="3300" height="2200">
 <!--glyph: "uni1002E1.medium", point size: 100.0, font version: "17.0d8e1", template writer version: "58"-->
 <g id="Notes">
  <rect height="2200" id="artboard" style="fill:white;opacity:1" width="3300" x="0" y="0"/>
  <line style="fill:none;stroke:black;opacity:1;stroke-width:0.5;" x1="263" x2="3036" y1="292" y2="292"/>
  <text style="stroke:none;fill:black;font-family:SF Pro,SF Pro Display,SF Pro Text,sans-serif;font-size:13;font-weight:bold;" transform="matrix(1 0 0 1 263 322)">Weight/Scale Variations</text>
  <text style="stroke:none;fill:black;font-family:SF Pro,SF Pro Display,SF Pro Text,sans-serif;font-size:13;text-anchor:middle;" transform="matrix(1 0 0 1 559.711 322)">Ultralight</text>
  <text style="stroke:none;fill:black;font-family:SF Pro,SF Pro Display,SF Pro Text,sans-serif;font-size:13;text-anchor:middle;" transform="matrix(1 0 0 1 856.422 322)">Thin</text>
  <text style="stroke:none;fill:black;font-family:SF Pro,SF Pro Display,SF Pro Text,sans-serif;font-size:13;text-anchor:middle;" transform="matrix(1 0 0 1 1153.13 322)">Light</text>
  <text style="stroke:none;fill:black;font-family:SF Pro,SF Pro Display,SF Pro Text,sans-serif;font-size:13;text-anchor:middle;" transform="matrix(1 0 0 1 1449.84 322)">Regular</text>
  <text style="stroke:none;fill:black;font-family:SF Pro,SF Pro Display,SF Pro Text,sans-serif;font-size:13;text-anchor:middle;" transform="matrix(1 0 0 1 1746.56 322)">Medium</text>
  <text style="stroke:none;fill:black;font-family:SF Pro,SF Pro Display,SF Pro Text,sans-serif;font-size:13;text-anchor:middle;" transform="matrix(1 0 0 1 2043.27 322)">Semibold</text>
  <text style="stroke:none;fill:black;font-family:SF Pro,SF Pro Display,SF Pro Text,sans-serif;font-size:13;text-anchor:middle;" transform="matrix(1 0 0 1 2339.98 322)">Bold</text>
  <text style="stroke:none;fill:black;font-family:SF Pro,SF Pro Display,SF Pro Text,sans-serif;font-size:13;text-anchor:middle;" transform="matrix(1 0 0 1 2636.69 322)">Heavy</text>
  <text style="stroke:none;fill:black;font-family:SF Pro,SF Pro Display,SF Pro Text,sans-serif;font-size:13;text-anchor:middle;" transform="matrix(1 0 0 1 2933.4 322)">Black</text>
  <line style="fill:none;stroke:black;opacity:1;stroke-width:0.5;" x1="263" x2="3036" y1="1903" y2="1903"/>
  <g transform="matrix(1 0 0 1 263 1933)">
   <path d="M9.24805 0.830078Q10.8691 0.830078 12.2949 0.214844Q13.7207-0.400391 14.8096-1.49414Q15.8984-2.58789 16.5186-4.01367Q17.1387-5.43945 17.1387-7.05078Q17.1387-8.66211 16.5186-10.0879Q15.8984-11.5137 14.8047-12.6074Q13.7109-13.7012 12.2852-14.3164Q10.8594-14.9316 9.23828-14.9316Q7.62695-14.9316 6.20117-14.3164Q4.77539-13.7012 3.69141-12.6074Q2.60742-11.5137 1.9873-10.0879Q1.36719-8.66211 1.36719-7.05078Q1.36719-5.43945 1.9873-4.01367Q2.60742-2.58789 3.69629-1.49414Q4.78516-0.400391 6.21094 0.214844Q7.63672 0.830078 9.24805 0.830078ZM9.24805-0.654297Q7.91992-0.654297 6.7627-1.14746Q5.60547-1.64062 4.73145-2.51953Q3.85742-3.39844 3.36426-4.56055Q2.87109-5.72266 2.87109-7.05078Q2.87109-8.37891 3.35938-9.54102Q3.84766-10.7031 4.72168-11.582Q5.5957-12.4609 6.75293-12.9541Q7.91016-13.4473 9.23828-13.4473Q10.5762-13.4473 11.7334-12.9541Q12.8906-12.4609 13.7695-11.582Q14.6484-10.7031 15.1465-9.54102Q15.6445-8.37891 15.6445-7.05078Q15.6445-5.72266 15.1514-4.56055Q14.6582-3.39844 13.7842-2.51953Q12.9102-1.64062 11.748-1.14746Q10.5859-0.654297 9.24805-0.654297ZM5.83984-7.04102Q5.83984-6.71875 6.04492-6.51855Q6.25-6.31836 6.5918-6.31836L8.50586-6.31836L8.50586-4.39453Q8.50586-4.0625 8.70605-3.85742Q8.90625-3.65234 9.22852-3.65234Q9.56055-3.65234 9.76562-3.85742Q9.9707-4.0625 9.9707-4.39453L9.9707-6.31836L11.8945-6.31836Q12.2266-6.31836 12.4316-6.51855Q12.6367-6.71875 12.6367-7.04102Q12.6367-7.37305 12.4316-7.57812Q12.2266-7.7832 11.8945-7.7832L9.9707-7.7832L9.9707-9.69727Q9.9707-10.0391 9.76562-10.2441Q9.56055-10.4492 9.22852-10.4492Q8.90625-10.4492 8.70605-10.2441Q8.50586-10.0391 8.50586-9.69727L8.50586-7.7832L6.5918-7.7832Q6.25-7.7832 6.04492-7.57812Q5.83984-7.37305 5.83984-7.04102Z"/>
  </g>
  <g transform="matrix(1 0 0 1 281.867 1933)">
   <path d="M11.709 2.91016Q13.75 2.91016 15.5518 2.12891Q17.3535 1.34766 18.7305-0.0292969Q20.1074-1.40625 20.8887-3.20801Q21.6699-5.00977 21.6699-7.05078Q21.6699-9.0918 20.8887-10.8936Q20.1074-12.6953 18.7305-14.0723Q17.3535-15.4492 15.5469-16.2305Q13.7402-17.0117 11.6992-17.0117Q9.6582-17.0117 7.85645-16.2305Q6.05469-15.4492 4.68262-14.0723Q3.31055-12.6953 2.5293-10.8936Q1.74805-9.0918 1.74805-7.05078Q1.74805-5.00977 2.5293-3.20801Q3.31055-1.40625 4.6875-0.0292969Q6.06445 1.34766 7.86621 2.12891Q9.66797 2.91016 11.709 2.91016ZM11.709 1.25Q9.98047 1.25 8.47656 0.605469Q6.97266-0.0390625 5.83496-1.17676Q4.69727-2.31445 4.05762-3.81836Q3.41797-5.32227 3.41797-7.05078Q3.41797-8.7793 4.05762-10.2832Q4.69727-11.7871 5.83008-12.9297Q6.96289-14.0723 8.4668-14.7119Q9.9707-15.3516 11.6992-15.3516Q13.4277-15.3516 14.9316-14.7119Q16.4355-14.0723 17.5781-12.9297Q18.7207-11.7871 19.3652-10.2832Q20.0098-8.7793 20.0098-7.05078Q20.0098-5.32227 19.3701-3.81836Q18.7305-2.31445 17.5928-1.17676Q16.4551-0.0390625 14.9463 0.605469Q13.4375 1.25 11.709 1.25ZM7.39258-7.04102Q7.39258-6.68945 7.62695-6.46484Q7.86133-6.24023 8.23242-6.24023L10.8789-6.24023L10.8789-3.57422Q10.8789-3.21289 11.1035-2.9834Q11.3281-2.75391 11.6797-2.75391Q12.0508-2.75391 12.2852-2.9834Q12.5195-3.21289 12.5195-3.57422L12.5195-6.24023L15.1758-6.24023Q15.5371-6.24023 15.7715-6.46484Q16.0059-6.68945 16.0059-7.04102Q16.0059-7.41211 15.7715-7.6416Q15.5371-7.87109 15.1758-7.87109L12.5195-7.87109L12.5195-10.5176Q12.5195-10.8984 12.2852-11.1279Q12.0508-11.3574 11.6797-11.3574Q11.3281-11.3574 11.1035-11.1279Q10.8789-10.8984 10.8789-10.5176L10.8789-7.87109L8.23242-7.87109Q7.85156-7.87109 7.62207-7.6416Q7.39258-7.41211 7.39258-7.04102Z"/>
  </g>
  <g transform="matrix(1 0 0 1 305.646 1933)">
   <path d="M14.9707 5.66406Q17.0605 5.66406 18.96 5.01465Q20.8594 4.36523 22.4512 3.19336Q24.043 2.02148 25.2197 0.429688Q26.3965-1.16211 27.0459-3.06641Q27.6953-4.9707 27.6953-7.05078Q27.6953-9.14062 27.0459-11.04Q26.3965-12.9395 25.2197-14.5312Q24.043-16.123 22.4512-17.2998Q20.8594-18.4766 18.9551-19.126Q17.0508-19.7754 14.9609-19.7754Q12.8711-19.7754 10.9717-19.126Q9.07227-18.4766 7.48535-17.2998Q5.89844-16.123 4.72168-14.5312Q3.54492-12.9395 2.90039-11.04Q2.25586-9.14062 2.25586-7.05078Q2.25586-4.9707 2.90527-3.06641Q3.55469-1.16211 4.72656 0.429688Q5.89844 2.02148 7.49023 3.19336Q9.08203 4.36523 10.9814 5.01465Q12.8809 5.66406 14.9707 5.66406ZM14.9707 3.84766Q13.1641 3.84766 11.5283 3.2959Q9.89258 2.74414 8.53516 1.74805Q7.17773 0.751953 6.17676-0.610352Q5.17578-1.97266 4.62891-3.6084Q4.08203-5.24414 4.08203-7.05078Q4.08203-8.86719 4.62891-10.5029Q5.17578-12.1387 6.17188-13.501Q7.16797-14.8633 8.52539-15.8594Q9.88281-16.8555 11.5186-17.4023Q13.1543-17.9492 14.9609-17.9492Q16.7773-17.9492 18.4131-17.4023Q20.0488-16.8555 21.4111-15.8594Q22.7734-14.8633 23.7695-13.501Q24.7656-12.1387 25.3174-10.5029Q25.8691-8.86719 25.8691-7.05078Q25.8789-5.24414 25.332-3.6084Q24.7852-1.97266 23.7842-0.610352Q22.7832 0.751953 21.4209 1.74805Q20.0586 2.74414 18.4229 3.2959Q16.7871 3.84766 14.9707 3.84766ZM9.45312-7.04102Q9.45312-6.66016 9.71191-6.41113Q9.9707-6.16211 10.3711-6.16211L14.0625-6.16211L14.0625-2.46094Q14.0625-2.06055 14.3115-1.80664Q14.5605-1.55273 14.9414-1.55273Q15.3516-1.55273 15.6055-1.80664Q15.8594-2.06055 15.8594-2.46094L15.8594-6.16211L19.5605-6.16211Q19.9609-6.16211 20.2148-6.41113Q20.4688-6.66016 20.4688-7.04102Q20.4688-7.45117 20.2148-7.70508Q19.9609-7.95898 19.5605-7.95898L15.8594-7.95898L15.8594-11.6504Q15.8594-12.0605 15.6055-12.3145Q15.3516-12.5684 14.9414-12.5684Q14.5605-12.5684 14.3115-12.3096Q14.0625-12.0508 14.0625-11.6504L14.0625-7.95898L10.3711-7.95898Q9.96094-7.95898 9.70703-7.70508Q9.45312-7.45117 9.45312-7.04102Z"/>
  </g>
  <text style="stroke:none;fill:black;font-family:SF Pro,SF Pro Display,SF Pro Text,sans-serif;font-size:13;font-weight:bold;" transform="matrix(1 0 0 1 263 1953)">Design Variations</text>
  <text style="stroke:none;fill:black;font-family:SF Pro,SF Pro Display,SF Pro Text,sans-serif;font-size:13;" transform="matrix(1 0 0 1 263 1971)">Symbols are supported in up to nine weights and three scales.</text>
  <text style="stroke:none;fill:black;font-family:SF Pro,SF Pro Display,SF Pro Text,sans-serif;font-size:13;" transform="matrix(1 0 0 1 263 1989)">For optimal layout with text and other symbols, vertically align</text>
  <text style="stroke:none;fill:black;font-family:SF Pro,SF Pro Display,SF Pro Text,sans-serif;font-size:13;" transform="matrix(1 0 0 1 263 2007)">symbols with the adjacent text.</text>
  <line style="fill:none;stroke:#00AEEF;stroke-width:0.5;opacity:1.0;" x1="776" x2="776" y1="1919" y2="1933"/>
  <g transform="matrix(1 0 0 1 776 1933)">
   <path d="M3.31055 0.15625Q3.70117 0.15625 3.91602-0.00976562Q4.13086-0.175781 4.26758-0.585938L5.52734-4.0332L11.2891-4.0332L12.5488-0.585938Q12.6855-0.175781 12.9004-0.00976562Q13.1152 0.15625 13.4961 0.15625Q13.8867 0.15625 14.1162-0.0585938Q14.3457-0.273438 14.3457-0.644531Q14.3457-0.869141 14.2383-1.17188L9.6582-13.3691Q9.48242-13.8184 9.17969-14.043Q8.87695-14.2676 8.4082-14.2676Q7.5-14.2676 7.17773-13.3789L2.59766-1.16211Q2.49023-0.859375 2.49023-0.634766Q2.49023-0.263672 2.70996-0.0537109Q2.92969 0.15625 3.31055 0.15625ZM6.00586-5.51758L8.37891-12.0898L8.42773-12.0898L10.8008-5.51758Z"/>
  </g>
  <line style="fill:none;stroke:#00AEEF;stroke-width:0.5;opacity:1.0;" x1="793.197" x2="793.197" y1="1919" y2="1933"/>
  <text style="stroke:none;fill:black;font-family:SF Pro,SF Pro Display,SF Pro Text,sans-serif;font-size:13;font-weight:bold;" transform="matrix(1 0 0 1 776 1953)">Margins</text>
  <text style="stroke:none;fill:black;font-family:SF Pro,SF Pro Display,SF Pro Text,sans-serif;font-size:13;" transform="matrix(1 0 0 1 776 1971)">Leading and trailing margins on the left and right side of each symbol</text>
  <text style="stroke:none;fill:black;font-family:SF Pro,SF Pro Display,SF Pro Text,sans-serif;font-size:13;" transform="matrix(1 0 0 1 776 1989)">can be adjusted by modifying the x-location of the margin guidelines.</text>
  <text style="stroke:none;fill:black;font-family:SF Pro,SF Pro Display,SF Pro Text,sans-serif;font-size:13;" transform="matrix(1 0 0 1 776 2007)">Modifications are automatically applied proportionally to all</text>
  <text style="stroke:none;fill:black;font-family:SF Pro,SF Pro Display,SF Pro Text,sans-serif;font-size:13;" transform="matrix(1 0 0 1 776 2025)">scales and weights.</text>
  <g transform="matrix(1 0 0 1 1289 1933)">
   <path d="M2.8418 1.86523L4.54102 3.57422Q5.18555 4.22852 5.90332 4.17969Q6.62109 4.13086 7.31445 3.35938L18.0078-8.42773L17.041-9.4043L6.42578 2.27539Q6.16211 2.57812 5.89355 2.61719Q5.625 2.65625 5.27344 2.30469L4.10156 1.14258Q3.75 0.791016 3.79395 0.522461Q3.83789 0.253906 4.14062-0.0195312L15.6152-10.8203L14.6387-11.7871L3.04688-0.898438Q2.30469-0.214844 2.25098 0.498047Q2.19727 1.21094 2.8418 1.86523ZM9.25781-16.3281Q8.94531-16.0254 8.90625-15.6348Q8.86719-15.2441 9.04297-14.9512Q9.21875-14.6777 9.55566-14.541Q9.89258-14.4043 10.3809-14.5215Q11.4746-14.7754 12.5977-14.7314Q13.7207-14.6875 14.7949-13.9844L14.209-12.5293Q13.9551-11.9043 14.0674-11.4404Q14.1797-10.9766 14.5801-10.5664L16.875-8.25195Q17.2363-7.88086 17.5781-7.82227Q17.9199-7.76367 18.3398-7.8418L19.4043-8.03711L20.0684-7.36328L20.0293-6.80664Q20-6.43555 20.1221-6.12305Q20.2441-5.81055 20.6055-5.44922L21.3672-4.70703Q21.7285-4.3457 22.1533-4.33105Q22.5781-4.31641 22.9297-4.66797L25.8398-7.58789Q26.1914-7.93945 26.1816-8.35449Q26.1719-8.76953 25.8105-9.13086L25.0391-9.89258Q24.6875-10.2539 24.3799-10.3857Q24.0723-10.5176 23.7109-10.4883L23.1348-10.4395L22.4902-11.0742L22.7344-12.1973Q22.832-12.6172 22.6953-12.9834Q22.5586-13.3496 22.1191-13.7891L19.9219-15.9766Q18.6719-17.2168 17.2607-17.8369Q15.8496-18.457 14.4189-18.4814Q12.9883-18.5059 11.665-17.959Q10.3418-17.4121 9.25781-16.3281ZM10.752-15.957Q11.6602-16.6211 12.7002-16.9043Q13.7402-17.1875 14.8047-17.085Q15.8691-16.9824 16.8701-16.5137Q17.8711-16.0449 18.7012-15.2051L21.1328-12.793Q21.3086-12.6172 21.3525-12.4512Q21.3965-12.2852 21.3379-12.0312L21.0156-10.5469L22.5195-9.0625L23.5059-9.12109Q23.6914-9.13086 23.7891-9.09668Q23.8867-9.0625 24.0332-8.91602L24.6094-8.33984L22.168-5.89844L21.5918-6.47461Q21.4453-6.62109 21.4062-6.71875Q21.3672-6.81641 21.377-7.01172L21.4453-7.98828L19.9512-9.47266L18.4277-9.21875Q18.1836-9.16992 18.042-9.2041Q17.9004-9.23828 17.7148-9.41406L15.7129-11.416Q15.5176-11.5918 15.4932-11.7529Q15.4688-11.9141 15.5859-12.1875L16.4648-14.2773Q15.293-15.3711 13.8281-15.791Q12.3633-16.2109 10.8398-15.7617Q10.7227-15.7324 10.6885-15.8057Q10.6543-15.8789 10.752-15.957Z"/>
  </g>
  <text style="stroke:none;fill:black;font-family:SF Pro,SF Pro Display,SF Pro Text,sans-serif;font-size:13;font-weight:bold;" transform="matrix(1 0 0 1 1289 1953)">Exporting</text>
  <text style="stroke:none;fill:black;font-family:SF Pro,SF Pro Display,SF Pro Text,sans-serif;font-size:13;" transform="matrix(1 0 0 1 1289 1971)">Symbols should be outlined when exporting to ensure the</text>
  <text style="stroke:none;fill:black;font-family:SF Pro,SF Pro Display,SF Pro Text,sans-serif;font-size:13;" transform="matrix(1 0 0 1 1289 1989)">design is preserved when submitting to Xcode.</text>
  <text id="template-version" style="stroke:none;fill:black;font-family:SF Pro,SF Pro Display,SF Pro Text,sans-serif;font-size:13;text-anchor:end;" transform="matrix(1 0 0 1 3036 1933)">Template v.3.0</text>
  <text style="stroke:none;fill:black;font-family:SF Pro,SF Pro Display,SF Pro Text,sans-serif;font-size:13;text-anchor:end;" transform="matrix(1 0 0 1 3036 1951)">Requires Xcode 13 or greater</text>
  <text id="descriptive-name" style="stroke:none;fill:black;font-family:SF Pro,SF Pro Display,SF Pro Text,sans-serif;font-size:13;text-anchor:end;" transform="matrix(1 0 0 1 3036 1969)">Generated from tag</text>
  <text style="stroke:none;fill:black;font-family:SF Pro,SF Pro Display,SF Pro Text,sans-serif;font-size:13;text-anchor:end;" transform="matrix(1 0 0 1 3036 1987)">Typeset at 100 points</text>
  <text style="stroke:none;fill:black;font-family:SF Pro,SF Pro Display,SF Pro Text,sans-serif;font-size:13;" transform="matrix(1 0 0 1 263 726)">Small</text>
  <text style="stroke:none;fill:black;font-family:SF Pro,SF Pro Display,SF Pro Text,sans-serif;font-size:13;" transform="matrix(1 0 0 1 263 1156)">Medium</text>
  <text style="stroke:none;fill:black;font-family:SF Pro,SF Pro Display,SF Pro Text,sans-serif;font-size:13;" transform="matrix(1 0 0 1 263 1586)">Large</text>
 </g>
 <g id="Guides">
  <g id="H-reference" style="fill:#27AAE1;stroke:none;" transform="matrix(1 0 0 1 339 696)">
   <path d="M0.976562 0L3.66211 0L29.3457-67.1387L30.0293-67.1387L30.0293-70.459L28.125-70.459ZM11.6699-24.4629L46.9727-24.4629L46.2402-26.709L12.4512-26.709ZM55.127 0L57.7637 0L30.6152-70.459L29.4434-70.459L29.4434-67.1387Z"/>
  </g>
  <line id="Baseline-S" style="fill:none;stroke:#27AAE1;opacity:1;stroke-width:0.5;" x1="263" x2="3036" y1="696" y2="696"/>
  <line id="Capline-S" style="fill:none;stroke:#27AAE1;opacity:1;stroke-width:0.5;" x1="263" x2="3036" y1="625.541" y2="625.541"/>
  <g id="H-reference" style="fill:#27AAE1;stroke:none;" transform="matrix(1 0 0 1 339 1126)">
   <path d="M0.976562 0L3.66211 0L29.3457-67.1387L30.0293-67.1387L30.0293-70.459L28.125-70.459ZM11.6699-24.4629L46.9727-24.4629L46.2402-26.709L12.4512-26.709ZM55.127 0L57.7637 0L30.6152-70.459L29.4434-70.459L29.4434-67.1387Z"/>
  </g>
  <line id="Baseline-M" style="fill:none;stroke:#27AAE1;opacity:1;stroke-width:0.5;" x1="263" x2="3036" y1="1126" y2="1126"/>
  <line id="Capline-M" style="fill:none;stroke:#27AAE1;opacity:1;stroke-width:0.5;" x1="263" x2="3036" y1="1055.54" y2="1055.54"/>
  <g id="H-reference" style="fill:#27AAE1;stroke:none;" transform="matrix(1 0 0 1 339 1556)">
   <path d="M0.976562 0L3.66211 0L29.3457-67.1387L30.0293-67.1387L30.0293-70.459L28.125-70.459ZM11.6699-24.4629L46.9727-24.4629L46.2402-26.709L12.4512-26.709ZM55.127 0L57.7637 0L30.6152-70.459L29.4434-70.459L29.4434-67.1387Z"/>
  </g>
  <line id="Baseline-L" style="fill:none;stroke:#27AAE1;opacity:1;stroke-width:0.5;" x1="263" x2="3036" y1="1556" y2="1556"/>
  <line id="Capline-L" style="fill:none;stroke:#27AAE1;opacity:1;stroke-width:0.5;" x1="263" x2="3036" y1="1485.54" y2="1485.54"/>
  <line id="left-margin-Regular-M" style="fill:none;stroke:#00AEEF;stroke-width:0.5;opacity:1.0;" x1="1384.07" x2="1384.07" y1="1030.79" y2="1150.12"/>
  <line id="right-margin-Regular-M" style="fill:none;stroke:#00AEEF;stroke-width:0.5;opacity:1.0;" x1="1515.62" x2="1515.62" y1="1030.79" y2="1150.12"/>
 </g>
 <g id="Symbols">
  <g id="Black-L" transform="matrix(1 0 0 1 2842.9 1556)">
   <path d="M97.2168 39.1602L159.863-23.4863Q162.695-26.3184 164.136-28.8086Q165.576-31.2988 166.064-34.2773Q166.553-37.2559 166.553-41.6016L166.553-65.3809Q166.553-69.3359 165.82-72.0947Q165.088-74.8535 163.33-77.3438Q161.572-79.834 158.496-82.8613L144.287-97.0703Q141.211-100.146 138.745-101.904Q136.279-103.662 133.521-104.419Q130.762-105.176 126.807-105.176L103.027-105.176Q98.6816-105.176 95.752-104.614Q92.8223-104.053 90.4053-102.539Q87.9883-101.025 85.1562-98.1934L22.5098-35.5469Q14.4531-27.5391 14.4531-18.7744Q14.4531-10.0098 22.5098-1.9043L63.5742 39.1113Q71.6797 47.2168 80.4443 47.1924Q89.209 47.168 97.2168 39.1602ZM84.9609 22.8516Q80.4688 27.3438 75.8789 22.8027L38.8184-14.209Q36.377-16.6016 36.4746-18.8232Q36.5723-21.0449 38.8184-23.2422L99.6582-84.082Q100.537-85.0098 101.318-85.4004Q102.1-85.791 103.369-85.791L125.195-85.791Q127.393-85.791 128.857-84.3262L145.752-67.4805Q147.217-65.9668 147.217-63.7695L147.217-41.9434Q147.217-40.4297 146.924-39.624Q146.631-38.8184 145.801-37.9883ZM117.48-45.5078Q121.973-45.5078 125.024-48.584Q128.076-51.6602 128.076-56.1035Q128.076-60.5469 125.024-63.5986Q121.973-66.6504 117.48-66.6504Q113.037-66.6504 109.985-63.5986Q106.934-60.5469 106.934-56.1035Q106.934-51.6602 109.985-48.584Q113.037-45.5078 117.48-45.5078Z"/>
  </g>
  <g id="Heavy-L" transform="matrix(1 0 0 1 2547.65 1556)">
   <path d="M94.9707 37.3535L157.373-25.0977Q160.059-27.7832 161.401-30.127Q162.744-32.4707 163.184-35.2539Q163.623-38.0371 163.623-42.1387L163.623-65.9668Q163.623-69.7266 162.939-72.29Q162.256-74.8535 160.596-77.1729Q158.936-79.4922 156.006-82.373L141.699-96.6797Q138.818-99.6094 136.523-101.27Q134.229-102.93 131.641-103.638Q129.053-104.346 125.293-104.346L101.465-104.346Q97.3633-104.346 94.6045-103.833Q91.8457-103.32 89.5996-101.929Q87.3535-100.537 84.6191-97.8516L22.168-35.4492Q14.4531-27.7832 14.4531-19.5068Q14.4531-11.2305 22.168-3.4668L62.9883 37.3047Q70.752 45.0684 79.0283 45.0439Q87.3047 45.0195 94.9707 37.3535ZM84.2285 23.3398Q79.0527 28.5645 73.7793 23.291L36.1816-14.2578Q33.4473-16.9434 33.5205-19.5312Q33.5938-22.1191 36.1328-24.6582L97.168-85.6445Q98.0957-86.6211 98.9746-87.0361Q99.8535-87.4512 101.221-87.4512L124.17-87.4512Q126.514-87.4512 128.174-85.8398L145.166-68.8965Q146.826-67.1875 146.826-64.7949L146.826-41.8945Q146.826-40.332 146.46-39.4287Q146.094-38.5254 145.215-37.6465ZM116.455-47.168Q120.703-47.168 123.584-50.0732Q126.465-52.9785 126.465-57.1777Q126.465-61.377 123.584-64.2334Q120.703-67.0898 116.455-67.0898Q112.256-67.0898 109.399-64.2334Q106.543-61.377 106.543-57.1777Q106.543-52.9785 109.399-50.0732Q112.256-47.168 116.455-47.168Z"/>
  </g>
  <g id="Bold-L" transform="matrix(1 0 0 1 2252.55 1556)">
   <path d="M92.4805 35.3027L154.639-26.9531Q157.178-29.4434 158.398-31.5918Q159.619-33.7402 159.985-36.3281Q160.352-38.916 160.352-42.7246L160.352-66.6016Q160.352-70.166 159.717-72.5342Q159.082-74.9023 157.544-77.0264Q156.006-79.1504 153.271-81.8359L138.867-96.2891Q136.133-99.0234 134.033-100.562Q131.934-102.1 129.565-102.734Q127.197-103.369 123.633-103.369L99.7559-103.369Q95.8984-103.369 93.3594-102.954Q90.8203-102.539 88.7207-101.294Q86.6211-100.049 84.082-97.5098L21.7773-35.3516Q14.502-28.0762 14.4775-20.3369Q14.4531-12.5977 21.8262-5.22461L62.3535 35.2539Q69.7266 42.627 77.4658 42.6025Q85.2051 42.5781 92.4805 35.3027ZM83.3984 23.9258Q77.4414 29.9316 71.3867 23.877L33.2031-14.3066Q30.127-17.334 30.2002-20.3613Q30.2734-23.3887 33.2031-26.2695L94.3848-87.4023Q95.3613-88.3789 96.3623-88.8672Q97.3633-89.3555 98.8281-89.3555L122.998-89.3555Q125.537-89.3555 127.441-87.5L144.531-70.459Q146.387-68.5547 146.387-66.0156L146.387-41.8457Q146.387-40.2344 145.947-39.209Q145.508-38.1836 144.531-37.2559ZM115.332-49.0723Q119.336-49.0723 121.997-51.7578Q124.658-54.4434 124.658-58.3496Q124.658-62.2559 121.997-64.9414Q119.336-67.627 115.332-67.627Q111.426-67.627 108.74-64.9414Q106.055-62.2559 106.055-58.3496Q106.055-54.4434 108.74-51.7578Q111.426-49.0723 115.332-49.0723Z"/>
  </g>
  <g id="Semibold-L" transform="matrix(1 0 0 1 1956.99 1556)">
   <path d="M90.7227 33.8867L152.686-28.1738Q155.127-30.5664 156.274-32.5928Q157.422-34.6191 157.764-37.0605Q158.105-39.502 158.105-43.1152L158.105-67.041Q158.105-70.459 157.495-72.6807Q156.885-74.9023 155.444-76.9043Q154.004-78.9062 151.367-81.4453L136.865-95.9473Q134.277-98.584 132.3-100.049Q130.322-101.514 128.101-102.124Q125.879-102.734 122.461-102.734L98.5352-102.734Q94.873-102.734 92.4561-102.368Q90.0391-102.002 88.0615-100.83Q86.084-99.6582 83.6426-97.2168L21.5332-35.2539Q14.502-28.2227 14.4775-20.874Q14.4531-13.5254 21.5332-6.44531L61.9141 33.8379Q68.9941 40.9668 76.3428 40.9424Q83.6914 40.918 90.7227 33.8867ZM82.8125 24.3164Q76.3184 30.8594 69.7754 24.2676L31.1523-14.3066Q27.832-17.5781 27.8809-20.8984Q27.9297-24.2188 31.1035-27.3926L92.4316-88.5742Q93.457-89.5996 94.5312-90.1367Q95.6055-90.6738 97.168-90.6738L122.217-90.6738Q124.854-90.6738 126.904-88.6719L144.043-71.5332Q146.045-69.4824 146.045-66.7969L146.045-41.7969Q146.045-40.1367 145.557-39.0381Q145.068-37.9395 144.092-36.9629ZM114.551-50.3418Q118.359-50.3418 120.874-52.9053Q123.389-55.4688 123.389-59.1797Q123.389-62.8906 120.874-65.4297Q118.359-67.9688 114.551-67.9688Q110.791-67.9688 108.252-65.4297Q105.713-62.8906 105.713-59.1797Q105.713-55.4688 108.252-52.9053Q110.791-50.3418 114.551-50.3418Z"/>
  </g>
  <g id="Medium-L" transform="matrix(1 0 0 1 1661.11 1556)">
   <path d="M89.4043 32.8125L151.27-29.1504Q153.613-31.4453 154.688-33.374Q155.762-35.3027 156.079-37.6221Q156.396-39.9414 156.396-43.457L156.396-67.3828Q156.396-70.7031 155.811-72.8271Q155.225-74.9512 153.833-76.8311Q152.441-78.7109 149.951-81.2012L135.352-95.752Q132.861-98.2422 130.981-99.6582Q129.102-101.074 126.978-101.636Q124.854-102.197 121.582-102.197L97.6074-102.197Q94.1406-102.197 91.8213-101.88Q89.502-101.562 87.5977-100.464Q85.6934-99.3652 83.3496-97.0215L21.2891-35.2051Q14.5508-28.3691 14.502-21.2891Q14.4531-14.209 21.3379-7.37305L61.5723 32.7637Q68.457 39.6973 75.5371 39.6729Q82.6172 39.6484 89.4043 32.8125ZM82.4219 24.6094Q75.4883 31.543 68.5059 24.5605L29.5898-14.3066Q26.123-17.8223 26.1719-21.3379Q26.2207-24.8535 29.5898-28.2227L90.9668-89.502Q91.9922-90.5273 93.1396-91.0889Q94.2871-91.6504 95.8984-91.6504L121.582-91.6504Q124.365-91.6504 126.514-89.5508L143.701-72.3145Q145.801-70.166 145.801-67.4316L145.801-41.748Q145.801-40.0879 145.264-38.9404Q144.727-37.793 143.701-36.7676ZM113.965-51.3184Q117.627-51.3184 120.02-53.7598Q122.412-56.2012 122.412-59.7656Q122.412-63.3301 120.02-65.7959Q117.627-68.2617 113.965-68.2617Q110.352-68.2617 107.91-65.7959Q105.469-63.3301 105.469-59.7656Q105.469-56.2012 107.91-53.7598Q110.352-51.3184 113.965-51.3184Z"/>
  </g>
  <g id="Regular-L" transform="matrix(1 0 0 1 1365.52 1556)">
   <path d="M87.6953 31.4453L149.365-30.3711Q151.611-32.5684 152.612-34.375Q153.613-36.1816 153.882-38.3545Q154.15-40.5273 154.15-43.8477L154.15-67.8223Q154.15-70.9961 153.613-72.9736Q153.076-74.9512 151.758-76.709Q150.439-78.4668 148.047-80.8105L133.398-95.459Q131.055-97.8516 129.297-99.1699Q127.539-100.488 125.562-101.025Q123.584-101.562 120.41-101.562L96.4355-101.562Q93.1152-101.562 90.9424-101.294Q88.7695-101.025 86.9873-100.024Q85.2051-99.0234 82.959-96.7773L21.0449-35.1074Q14.5508-28.5645 14.502-21.8506Q14.4531-15.1367 21.0938-8.54492L61.1328 31.3965Q67.7734 38.0371 74.4629 38.0127Q81.1523 37.9883 87.6953 31.4453ZM81.8359 25Q74.4141 32.4707 66.8945 24.9512L27.5879-14.3555Q23.877-18.0664 23.9014-21.875Q23.9258-25.6836 27.5391-29.2969L89.0625-90.6738Q90.1367-91.748 91.3574-92.334Q92.5781-92.9199 94.2871-92.9199L120.801-92.9199Q123.682-92.9199 125.977-90.6738L143.262-73.3887Q145.508-71.0938 145.508-68.2129L145.508-41.6992Q145.508-39.9902 144.922-38.7695Q144.336-37.5488 143.262-36.4746ZM113.184-52.5879Q116.65-52.5879 118.921-54.9072Q121.191-57.2266 121.191-60.5957Q121.191-63.9648 118.921-66.2842Q116.65-68.6035 113.184-68.6035Q109.766-68.6035 107.471-66.2842Q105.176-63.9648 105.176-60.5957Q105.176-57.2266 107.471-54.9072Q109.766-52.5879 113.184-52.5879Z"/>
  </g>
  <g id="Light-L" transform="matrix(1 0 0 1 1069.56 1556)">
   <path d="M86.1328 31.3965L148.145-30.8105Q150.195-32.8125 151.147-34.4482Q152.1-36.084 152.368-38.1348Q152.637-40.1855 152.637-43.5547L152.637-67.5293Q152.637-70.459 152.197-72.29Q151.758-74.1211 150.513-75.8057Q149.268-77.4902 146.875-79.834L132.031-94.6777Q129.688-97.0703 128.003-98.291Q126.318-99.5117 124.487-99.9756Q122.656-100.439 119.727-100.439L95.752-100.439Q92.4316-100.439 90.3564-100.171Q88.2812-99.9023 86.6699-98.9502Q85.0586-97.998 83.0078-95.9473L20.7031-33.9844Q14.502-27.7832 14.4775-21.3867Q14.4531-14.9902 20.7031-8.78906L60.9375 31.3477Q67.1875 37.6465 73.584 37.6221Q79.9805 37.5977 86.1328 31.3965ZM81.6895 26.4648Q73.5352 34.6191 65.332 26.416L25.6836-13.2324Q21.6309-17.2852 21.6553-21.4355Q21.6797-25.5859 25.6836-29.541L87.6465-91.2598Q88.916-92.5293 90.332-93.1885Q91.748-93.8477 93.6035-93.8477L120.117-93.8477Q123.438-93.8477 126.025-91.2598L143.506-73.8281Q146.045-71.2402 146.045-67.9199L146.045-41.4062Q146.045-39.5508 145.386-38.1348Q144.727-36.7188 143.506-35.4492ZM112.695-53.3203Q115.82-53.3203 117.847-55.3955Q119.873-57.4707 119.873-60.498Q119.873-63.5254 117.847-65.6006Q115.82-67.6758 112.695-67.6758Q109.668-67.6758 107.593-65.6006Q105.518-63.5254 105.518-60.498Q105.518-57.4707 107.593-55.3955Q109.668-53.3203 112.695-53.3203Z"/>
  </g>
  <g id="Thin-L" transform="matrix(1 0 0 1 773.854 1556)">
   <path d="M84.1309 31.3477L146.533-31.3477Q148.389-33.1543 149.268-34.5703Q150.146-35.9863 150.415-37.8906Q150.684-39.7949 150.684-43.1641L150.684-67.1387Q150.684-69.7266 150.342-71.3623Q150-72.998 148.877-74.5605Q147.754-76.123 145.361-78.5645L130.273-93.6035Q127.832-96.0449 126.27-97.168Q124.707-98.291 123.071-98.6328Q121.436-98.9746 118.848-98.9746L94.873-98.9746Q91.5039-98.9746 89.5996-98.7061Q87.6953-98.4375 86.3037-97.5586Q84.9121-96.6797 83.0566-94.8242L20.2148-32.5195Q14.4531-26.7578 14.4775-20.7764Q14.502-14.7949 20.2148-9.08203L60.6445 31.3477Q66.4551 37.1094 72.4365 37.085Q78.418 37.0605 84.1309 31.3477ZM81.4453 28.418Q72.3633 37.5 63.2812 28.418L23.1934-11.7188Q18.6523-16.2598 18.6768-20.8252Q18.7012-25.3906 23.1934-29.8828L85.8398-92.0898Q87.3047-93.5547 88.9648-94.2871Q90.625-95.0195 92.7246-95.0195L119.238-95.0195Q123.096-95.0195 126.074-92.0898L143.799-74.3652Q146.729-71.3867 146.729-67.5293L146.729-41.0156Q146.729-38.916 145.996-37.2559Q145.264-35.5957 143.799-34.1309ZM112.109-54.2969Q114.697-54.2969 116.431-56.0547Q118.164-57.8125 118.164-60.4004Q118.164-62.9883 116.431-64.7217Q114.697-66.4551 112.109-66.4551Q109.521-66.4551 107.764-64.7217Q106.006-62.9883 106.006-60.4004Q106.006-57.8125 107.764-56.0547Q109.521-54.2969 112.109-54.2969Z"/>
  </g>
  <g id="Ultralight-L" transform="matrix(1 0 0 1 477.655 1556)">
   <path d="M83.0566 31.2988L145.752-31.6406Q147.412-33.3496 148.267-34.6191Q149.121-35.8887 149.39-37.7197Q149.658-39.5508 149.658-42.9688L149.658-66.9434Q149.658-69.3848 149.365-70.8984Q149.072-72.4121 147.998-73.9502Q146.924-75.4883 144.531-77.8809L129.346-93.0664Q126.904-95.5078 125.391-96.5576Q123.877-97.6074 122.339-97.9004Q120.801-98.1934 118.408-98.1934L94.4336-98.1934Q91.0156-98.1934 89.1846-97.9248Q87.3535-97.6562 86.084-96.8262Q84.8145-95.9961 83.1055-94.2871L20.0195-31.7871Q14.4043-26.2207 14.4531-20.459Q14.502-14.6973 19.9707-9.22852L60.498 31.2988Q66.0645 36.8652 71.8262 36.8408Q77.5879 36.8164 83.0566 31.2988ZM81.3477 29.3945Q71.7773 38.9648 62.207 29.3945L21.9238-10.9375Q17.1387-15.7227 17.1631-20.5322Q17.1875-25.3418 21.9238-30.0293L84.8633-92.4805Q86.5234-94.0918 88.3057-94.873Q90.0879-95.6543 92.2363-95.6543L118.799-95.6543Q122.949-95.6543 126.123-92.4805L143.945-74.6582Q147.119-71.4844 147.119-67.334L147.119-40.7715Q147.119-38.623 146.338-36.8408Q145.557-35.0586 143.945-33.4473ZM111.768-54.834Q114.16-54.834 115.723-56.3965Q117.285-57.959 117.285-60.3027Q117.285-62.6953 115.723-64.2578Q114.16-65.8203 111.768-65.8203Q109.424-65.8203 107.837-64.2578Q106.25-62.6953 106.25-60.3027Q106.25-57.959 107.837-56.3965Q109.424-54.834 111.768-54.834Z"/>
  </g>
  <g id="Black-M" transform="matrix(1 0 0 1 2862.21 1126)">
   <path d="M76.8066 23.9258L125.635-24.9023Q127.881-27.1484 129.077-29.1504Q130.273-31.1523 130.713-33.5938Q131.152-36.0352 131.152-39.5996L131.152-58.0078Q131.152-61.1328 130.566-63.3789Q129.98-65.625 128.54-67.6758Q127.1-69.7266 124.609-72.2656L113.623-83.2031Q111.084-85.7422 109.033-87.1582Q106.982-88.5742 104.736-89.1602Q102.49-89.7461 99.4141-89.7461L81.0059-89.7461Q77.3926-89.7461 75.0244-89.2578Q72.6562-88.7695 70.7031-87.5488Q68.75-86.3281 66.5039-84.0332L17.627-35.2051Q11.2305-28.8086 11.2305-21.6797Q11.2305-14.5508 17.6758-8.1543L49.7559 23.9258Q56.2012 30.3711 63.3057 30.3711Q70.4102 30.3711 76.8066 23.9258ZM66.4551 9.81445Q63.3301 12.9395 60.1562 9.81445L31.7871-18.5059Q30.0293-20.2148 30.1025-21.7285Q30.1758-23.2422 31.7383-24.8047L78.9062-71.9727Q79.6875-72.7051 80.249-72.998Q80.8105-73.291 81.7383-73.291L97.7051-73.291Q99.4629-73.291 100.537-72.2168L113.574-59.1797Q114.648-58.0566 114.648-56.3477L114.648-40.3809Q114.648-39.209 114.453-38.5986Q114.258-37.9883 113.623-37.3535ZM91.7969-42.041Q95.3613-42.041 97.8027-44.4824Q100.244-46.9238 100.244-50.4395Q100.244-54.0039 97.8027-56.4453Q95.3613-58.8867 91.7969-58.8867Q88.2812-58.8867 85.8398-56.4453Q83.3984-54.0039 83.3984-50.4395Q83.3984-46.9238 85.8398-44.4824Q88.2812-42.041 91.7969-42.041Z"/>
  </g>
  <g id="Heavy-M" transform="matrix(1 0 0 1 2566.77 1126)">
   <path d="M74.9023 22.168L123.438-26.3672Q125.635-28.5645 126.733-30.4443Q127.832-32.3242 128.223-34.5947Q128.613-36.8652 128.613-40.1855L128.613-58.6426Q128.613-61.6211 128.052-63.7207Q127.49-65.8203 126.123-67.7246Q124.756-69.6289 122.412-72.0215L111.377-83.0078Q109.033-85.3516 107.129-86.6943Q105.225-88.0371 103.125-88.5986Q101.025-89.1602 98.0469-89.1602L79.5898-89.1602Q76.2695-89.1602 74.0479-88.7451Q71.8262-88.3301 69.9707-87.207Q68.1152-86.084 65.9668-83.8867L17.3828-35.3516Q11.2305-29.1992 11.2305-22.4854Q11.2305-15.7715 17.4316-9.61914L49.2188 22.168Q55.4199 28.3203 62.1094 28.3203Q68.7988 28.3203 74.9023 22.168ZM65.7715 10.0098Q62.1094 13.6719 58.3984 10.0098L29.5898-18.7988Q27.5879-20.752 27.6611-22.5586Q27.7344-24.3652 29.541-26.1719L76.7578-73.3398Q77.5391-74.0723 78.1494-74.4141Q78.7598-74.7559 79.7852-74.7559L96.8262-74.7559Q98.6328-74.7559 99.8535-73.5352L112.939-60.4492Q114.111-59.2285 114.111-57.4219L114.111-40.3809Q114.111-39.209 113.867-38.5498Q113.623-37.8906 112.988-37.207ZM90.918-43.5059Q94.2871-43.5059 96.6064-45.8252Q98.9258-48.1445 98.9258-51.5137Q98.9258-54.8828 96.6064-57.2021Q94.2871-59.5215 90.918-59.5215Q87.5488-59.5215 85.2295-57.2021Q82.9102-54.8828 82.9102-51.5137Q82.9102-48.1445 85.2295-45.8252Q87.5488-43.5059 90.918-43.5059Z"/>
  </g>
  <g id="Bold-M" transform="matrix(1 0 0 1 2271.5 1126)">
   <path d="M72.8027 20.2148L121.045-28.0762Q123.096-30.127 124.097-31.8604Q125.098-33.5938 125.415-35.6934Q125.732-37.793 125.732-40.8691L125.732-59.3262Q125.732-62.207 125.22-64.1357Q124.707-66.0645 123.438-67.7979Q122.168-69.5312 120.02-71.7285L108.887-82.8125Q106.689-84.9609 104.98-86.2305Q103.271-87.5 101.343-88.0127Q99.4141-88.5254 96.582-88.5254L78.0762-88.5254Q75-88.5254 72.9248-88.1836Q70.8496-87.8418 69.1406-86.8164Q67.4316-85.791 65.3809-83.7402L17.0898-35.498Q11.2793-29.6875 11.2549-23.4375Q11.2305-17.1875 17.1387-11.2793L48.6328 20.2148Q54.541 26.0742 60.7666 26.0742Q66.9922 26.0742 72.8027 20.2148ZM64.9902 10.2051Q60.7422 14.502 56.4453 10.2051L27.0996-19.1406Q24.9023-21.3379 24.9512-23.4619Q25-25.5859 27.0508-27.6855L74.3652-74.9023Q75.0977-75.6348 75.8057-76.001Q76.5137-76.3672 77.5879-76.3672L95.8496-76.3672Q97.7539-76.3672 99.0723-75.0488L112.256-61.8652Q113.574-60.5469 113.574-58.6914L113.574-40.3809Q113.574-39.209 113.257-38.4766Q112.939-37.7441 112.256-37.0605ZM89.8926-45.166Q93.1152-45.166 95.2881-47.3633Q97.4609-49.5605 97.4609-52.6855Q97.4609-55.9082 95.2881-58.0811Q93.1152-60.2539 89.8926-60.2539Q86.7188-60.2539 84.5459-58.0811Q82.373-55.9082 82.373-52.6855Q82.373-49.5605 84.5459-47.3633Q86.7188-45.166 89.8926-45.166Z"/>
  </g>
  <g id="Semibold-M" transform="matrix(1 0 0 1 1975.76 1126)">
   <path d="M71.3379 18.8477L119.336-29.1992Q121.338-31.2012 122.266-32.8369Q123.193-34.4727 123.486-36.4258Q123.779-38.3789 123.779-41.3086L123.779-59.8145Q123.779-62.5488 123.267-64.3799Q122.754-66.2109 121.558-67.8223Q120.361-69.4336 118.311-71.4844L107.178-82.6172Q105.078-84.668 103.491-85.8643Q101.904-87.0605 100.073-87.5732Q98.2422-88.0859 95.5078-88.0859L76.9531-88.0859Q74.0723-88.0859 72.1436-87.7686Q70.2148-87.4512 68.5547-86.499Q66.8945-85.5469 64.9902-83.5938L16.8457-35.5957Q11.2793-29.9805 11.2305-24.0479Q11.1816-18.1152 16.8945-12.4023L48.1934 18.8477Q53.9062 24.5117 59.8389 24.4873Q65.7715 24.4629 71.3379 18.8477ZM64.4531 10.3516Q59.8145 15.0391 55.0781 10.3027L25.3906-19.3359Q22.998-21.7285 23.0469-24.0723Q23.0957-26.416 25.3418-28.7109L72.6562-75.9766Q73.4375-76.709 74.1943-77.0996Q74.9512-77.4902 76.0742-77.4902L95.166-77.4902Q97.1191-77.4902 98.4863-76.0254L111.719-62.8418Q113.135-61.4258 113.135-59.5215L113.135-40.3809Q113.135-39.1602 112.793-38.4033Q112.451-37.6465 111.768-36.9629ZM89.209-46.2891Q92.2852-46.2891 94.3604-48.3887Q96.4355-50.4883 96.4355-53.5156Q96.4355-56.5918 94.3604-58.667Q92.2852-60.7422 89.209-60.7422Q86.1328-60.7422 84.0576-58.667Q81.9824-56.5918 81.9824-53.5156Q81.9824-50.4883 84.0576-48.3887Q86.1328-46.2891 89.209-46.2891Z"/>
  </g>
  <g id="Medium-M" transform="matrix(1 0 0 1 1679.81 1126)">
   <path d="M70.2637 17.8223L118.066-30.0781Q119.971-31.9824 120.85-33.5693Q121.729-35.1562 121.997-37.0117Q122.266-38.8672 122.266-41.6504L122.266-60.1562Q122.266-62.8418 121.777-64.5996Q121.289-66.3574 120.142-67.8711Q118.994-69.3848 117.041-71.3379L105.859-82.5195Q103.857-84.4727 102.368-85.6201Q100.879-86.7676 99.1455-87.2559Q97.4121-87.7441 94.7266-87.7441L76.1719-87.7441Q73.4375-87.7441 71.5576-87.4756Q69.6777-87.207 68.1152-86.3037Q66.5527-85.4004 64.6484-83.4961L16.6992-35.6445Q11.2793-30.2246 11.2305-24.5361Q11.1816-18.8477 16.748-13.2812L47.8516 17.8223Q53.418 23.3398 59.1064 23.3154Q64.7949 23.291 70.2637 17.8223ZM64.0625 10.4492Q59.082 15.4785 54.0527 10.4004L24.1211-19.5312Q21.582-22.0215 21.6064-24.5605Q21.6309-27.0996 24.0723-29.4922L71.4355-76.7578Q72.168-77.4902 72.9736-77.9053Q73.7793-78.3203 74.9512-78.3203L94.6777-78.3203Q96.6309-78.3203 98.0957-76.8066L111.377-63.5742Q112.842-62.1094 112.842-60.1562L112.842-40.3809Q112.842-39.1602 112.476-38.3789Q112.109-37.5977 111.377-36.8652ZM88.6719-47.1191Q91.6992-47.1191 93.7012-49.1699Q95.7031-51.2207 95.7031-54.1016Q95.7031-57.0801 93.7012-59.1064Q91.6992-61.1328 88.6719-61.1328Q85.6934-61.1328 83.6914-59.1064Q81.6895-57.0801 81.6895-54.1016Q81.6895-51.2207 83.6914-49.1699Q85.6934-47.1191 88.6719-47.1191Z"/>
  </g>
  <g id="Regular-M" transform="matrix(1 0 0 1 1384.07 1126)">
   <path d="M68.7988 16.5039L116.406-31.2012Q118.262-33.0566 119.067-34.5459Q119.873-36.0352 120.093-37.7686Q120.312-39.502 120.312-42.0898L120.312-60.6445Q120.312-63.2324 119.849-64.8682Q119.385-66.5039 118.311-67.8955Q117.236-69.2871 115.381-71.1426L104.15-82.373Q102.295-84.1797 100.928-85.2783Q99.5605-86.377 97.9248-86.8408Q96.2891-87.3047 93.7012-87.3047L75.0977-87.3047Q72.5586-87.3047 70.8008-87.085Q69.043-86.8652 67.5537-86.0352Q66.0645-85.2051 64.2578-83.3984L16.5039-35.7422Q11.2793-30.5176 11.2305-25.1465Q11.1816-19.7754 16.5527-14.4043L47.4609 16.4551Q52.832 21.7773 58.2031 21.7529Q63.5742 21.7285 68.7988 16.5039ZM63.5254 10.5957Q58.1543 16.0156 52.7344 10.5469L22.4121-19.7266Q19.7266-22.4121 19.751-25.1709Q19.7754-27.9297 22.3633-30.5176L69.7754-77.832Q70.5078-78.5645 71.3623-79.0039Q72.2168-79.4434 73.4375-79.4434L93.9941-79.4434Q95.9961-79.4434 97.5586-77.832L110.889-64.5508Q112.451-62.9883 112.451-60.9863L112.451-40.3809Q112.451-39.1602 112.036-38.3301Q111.621-37.5 110.889-36.7676ZM87.9883-48.2422Q90.8691-48.2422 92.7734-50.1953Q94.6777-52.1484 94.6777-54.9316Q94.6777-57.7637 92.7734-59.6924Q90.8691-61.6211 87.9883-61.6211Q85.1074-61.6211 83.2031-59.6924Q81.2988-57.7637 81.2988-54.9316Q81.2988-52.1484 83.2031-50.1953Q85.1074-48.2422 87.9883-48.2422Z"/>
  </g>
  <g id="Light-M" transform="matrix(1 0 0 1 1088.02 1126)">
   <path d="M67.4316 16.4551L115.332-31.5918Q117.041-33.3008 117.798-34.6191Q118.555-35.9375 118.774-37.5732Q118.994-39.209 118.994-41.7969L118.994-60.4004Q118.994-62.7441 118.604-64.2578Q118.213-65.7715 117.212-67.0898Q116.211-68.4082 114.355-70.2637L102.979-81.6406Q101.074-83.4961 99.7803-84.4971Q98.4863-85.498 96.9727-85.8887Q95.459-86.2793 93.1152-86.2793L74.5117-86.2793Q71.9727-86.2793 70.3125-86.0596Q68.6523-85.8398 67.3096-85.083Q65.9668-84.3262 64.3066-82.666L16.2109-34.7656Q11.2305-29.7852 11.2305-24.707Q11.2305-19.6289 16.2109-14.5996L47.3145 16.4062Q52.3438 21.4355 57.4219 21.4111Q62.5 21.3867 67.4316 16.4551ZM63.3789 11.9141Q57.373 17.9688 51.3184 11.8652L20.752-18.7012Q17.7246-21.6797 17.749-24.7559Q17.7734-27.832 20.7031-30.7129L68.5547-78.3691Q69.4336-79.2969 70.459-79.7607Q71.4844-80.2246 72.8516-80.2246L93.4082-80.2246Q95.8008-80.2246 97.6074-78.3691L111.084-64.9414Q112.939-63.0859 112.939-60.6934L112.939-40.1367Q112.939-38.7695 112.476-37.7686Q112.012-36.7676 111.084-35.8398ZM87.5977-48.9258Q90.1367-48.9258 91.8213-50.6348Q93.5059-52.3438 93.5059-54.834Q93.5059-57.373 91.8213-59.082Q90.1367-60.791 87.5977-60.791Q85.0098-60.791 83.3252-59.082Q81.6406-57.373 81.6406-54.834Q81.6406-52.3438 83.3252-50.6348Q85.0098-48.9258 87.5977-48.9258Z"/>
  </g>
  <g id="Thin-M" transform="matrix(1 0 0 1 792.189 1126)">
   <path d="M65.625 16.3574L113.916-32.0801Q115.43-33.5938 116.113-34.7168Q116.797-35.8398 117.017-37.3535Q117.236-38.8672 117.236-41.4551L117.236-60.0586Q117.236-62.1094 116.943-63.4277Q116.65-64.7461 115.747-65.9912Q114.844-67.2363 112.988-69.0918L101.367-80.7129Q99.4629-82.5684 98.2422-83.4717Q97.0215-84.375 95.7031-84.668Q94.3848-84.9609 92.334-84.9609L73.7305-84.9609Q71.1426-84.9609 69.6289-84.7412Q68.1152-84.5215 66.9678-83.8379Q65.8203-83.1543 64.3555-81.6895L15.8203-33.4473Q11.2305-28.8574 11.2305-24.1699Q11.2305-19.4824 15.8203-14.8438L47.0703 16.4062Q51.6602 20.9473 56.3965 20.9229Q61.1328 20.8984 65.625 16.3574ZM63.1836 13.6719Q56.3477 20.5078 49.5117 13.623L18.5059-17.334Q15.1367-20.7031 15.1611-24.1943Q15.1855-27.6855 18.5059-31.0059L66.9434-79.1016Q68.0176-80.2246 69.2627-80.7617Q70.5078-81.2988 72.0703-81.2988L92.627-81.2988Q95.5078-81.2988 97.7051-79.1016L111.377-65.4297Q113.574-63.2324 113.574-60.3516L113.574-39.7949Q113.574-38.2324 113.037-36.9873Q112.5-35.7422 111.377-34.668ZM87.0605-49.8047Q89.1602-49.8047 90.5762-51.2207Q91.9922-52.6367 91.9922-54.7363Q91.9922-56.8359 90.5762-58.2764Q89.1602-59.7168 87.0605-59.7168Q84.9121-59.7168 83.4961-58.2764Q82.0801-56.8359 82.0801-54.7363Q82.0801-52.6367 83.4961-51.2207Q84.9121-49.8047 87.0605-49.8047Z"/>
  </g>
  <g id="Ultralight-M" transform="matrix(1 0 0 1 495.942 1126)">
   <path d="M64.6973 16.3086L113.184-32.3242Q114.6-33.7402 115.234-34.7412Q115.869-35.7422 116.089-37.207Q116.309-38.6719 116.309-41.2598L116.309-59.8633Q116.309-61.7676 116.064-63.0127Q115.82-64.2578 114.99-65.4297Q114.16-66.6016 112.305-68.5059L100.586-80.2246Q98.6816-82.0801 97.4854-82.9346Q96.2891-83.7891 95.0684-84.0332Q93.8477-84.2773 91.9434-84.2773L73.3398-84.2773Q70.752-84.2773 69.2871-84.0576Q67.8223-83.8379 66.7725-83.1787Q65.7227-82.5195 64.4043-81.1523L15.5762-32.8125Q11.1816-28.3691 11.2305-23.877Q11.2793-19.3848 15.5762-14.9902L46.9727 16.3574Q51.3184 20.752 55.8594 20.7275Q60.4004 20.7031 64.6973 16.3086ZM63.0859 14.5508Q55.8594 21.8262 48.5352 14.5508L17.3828-16.6504Q13.7695-20.2148 13.7939-23.9014Q13.8184-27.5879 17.3828-31.1523L66.1133-79.4434Q67.2852-80.7129 68.6523-81.2744Q70.0195-81.8359 71.6797-81.8359L92.2363-81.8359Q95.3613-81.8359 97.7539-79.4434L111.523-65.6738Q113.916-63.3301 113.916-60.1562L113.916-39.5996Q113.916-37.9883 113.33-36.6211Q112.744-35.2539 111.523-34.0332ZM86.7676-50.2441Q88.623-50.2441 89.8926-51.5137Q91.1621-52.7832 91.1621-54.6875Q91.1621-56.5918 89.8926-57.8857Q88.623-59.1797 86.7676-59.1797Q84.8145-59.1797 83.5449-57.8857Q82.2754-56.5918 82.2754-54.6875Q82.2754-52.7832 83.5449-51.5137Q84.8145-50.2441 86.7676-50.2441Z"/>
  </g>
  <g id="Black-S" transform="matrix(1 0 0 1 2877.3 696)">
   <path d="M60.6445 11.6699L99.0234-26.709Q101.709-29.3945 102.563-31.7871Q103.418-34.1797 103.418-38.4766L103.418-52.8809Q103.418-56.5918 102.344-58.9111Q101.27-61.2305 98.1934-64.2578L89.5996-72.8516Q86.5723-75.8789 84.2529-76.9775Q81.9336-78.0762 78.2227-78.0762L63.8184-78.0762Q59.5215-78.0762 57.2266-77.124Q54.9316-76.1719 52.2461-73.4863L13.8672-35.1074Q8.78906-30.0293 8.78906-24.3408Q8.78906-18.6523 13.8672-13.5742L39.1113 11.6699Q44.2383 16.748 49.9023 16.748Q55.5664 16.748 60.6445 11.6699ZM52.2461 0.0976562Q49.9512 2.39258 47.5586 0.0976562L25.4395-21.9727Q24.1211-23.2422 24.1943-24.3652Q24.2676-25.4883 25.4395-26.6602L62.4023-63.623Q62.9883-64.209 63.4277-64.4287Q63.8672-64.6484 64.5996-64.6484L76.7578-64.6484Q78.125-64.6484 78.9551-63.8184L89.1602-53.6133Q89.9902-52.7832 89.9902-51.416L89.9902-39.2578Q89.9902-38.3301 89.8682-37.8662Q89.7461-37.4023 89.209-36.8652ZM72.168-40.1367Q75-40.1367 76.9287-42.0654Q78.8574-43.9941 78.8574-46.8262Q78.8574-49.6582 76.9287-51.5869Q75-53.5156 72.168-53.5156Q69.3848-53.5156 67.4316-51.5869Q65.4785-49.6582 65.4785-46.8262Q65.4785-43.9941 67.4316-42.0654Q69.3848-40.1367 72.168-40.1367Z"/>
  </g>
  <g id="Heavy-S" transform="matrix(1 0 0 1 2581.59 696)">
   <path d="M59.1797 10.1562L97.3145-27.9297Q99.9023-30.5176 100.659-32.7637Q101.416-35.0098 101.416-39.0137L101.416-53.4668Q101.416-57.0312 100.366-59.1797Q99.3164-61.3281 96.4844-64.1602L87.8418-72.7539Q85.0098-75.5859 82.8857-76.6357Q80.7617-77.6855 77.1484-77.6855L62.6953-77.6855Q58.6914-77.6855 56.5186-76.8555Q54.3457-76.0254 51.8066-73.4375L13.6719-35.3516Q8.78906-30.4688 8.78906-25.0977Q8.78906-19.7266 13.6719-14.7949L38.6719 10.1562Q43.6035 15.0879 48.9746 15.0635Q54.3457 15.0391 59.1797 10.1562ZM51.6602 0.0976562Q48.9746 2.7832 46.2402 0.0976562L23.7793-22.3633Q22.3145-23.7793 22.3633-25.1221Q22.4121-26.4648 23.7793-27.7832L60.7422-64.7461Q61.2793-65.2832 61.7432-65.5273Q62.207-65.7715 62.9883-65.7715L76.0742-65.7715Q77.4414-65.7715 78.3691-64.8926L88.5742-54.6387Q89.502-53.7598 89.502-52.3926L89.502-39.3066Q89.502-38.3789 89.3311-37.8906Q89.1602-37.4023 88.623-36.8652ZM71.4355-41.3086Q74.1699-41.3086 76.0254-43.1641Q77.8809-45.0195 77.8809-47.7539Q77.8809-50.4883 76.0254-52.3193Q74.1699-54.1504 71.4355-54.1504Q68.75-54.1504 66.8945-52.3193Q65.0391-50.4883 65.0391-47.7539Q65.0391-45.0195 66.8945-43.1641Q68.75-41.3086 71.4355-41.3086Z"/>
  </g>
  <g id="Bold-S" transform="matrix(1 0 0 1 2286 696)">
   <path d="M57.6172 8.49609L95.3613-29.2969Q97.8516-31.7871 98.5107-33.8867Q99.1699-35.9863 99.1699-39.5996L99.1699-54.1016Q99.1699-57.5684 98.1689-59.4971Q97.168-61.4258 94.5312-64.0137L85.8887-72.7051Q83.3008-75.293 81.3721-76.2939Q79.4434-77.2949 75.9766-77.2949L61.4746-77.2949Q57.8125-77.2949 55.7861-76.5869Q53.7598-75.8789 51.2695-73.4375L13.4766-35.6445Q8.83789-30.957 8.81348-25.9521Q8.78906-20.9473 13.5254-16.2109L38.1836 8.49609Q42.9688 13.1836 47.9492 13.1836Q52.9297 13.1836 57.6172 8.49609ZM51.0254 0.0976562Q47.9492 3.17383 44.7754 0.0488281L21.9238-22.8027Q20.2637-24.4141 20.3125-25.9766Q20.3613-27.5391 21.875-29.0527L58.8379-66.0156Q59.375-66.5527 59.8877-66.8213Q60.4004-67.0898 61.2305-67.0898L75.3418-67.0898Q76.709-67.0898 77.6855-66.1133L87.9395-55.8105Q88.916-54.834 88.916-53.4668L88.916-39.3555Q88.916-38.4277 88.7207-37.915Q88.5254-37.4023 87.9883-36.8652ZM70.6543-42.627Q73.291-42.627 75.0488-44.4092Q76.8066-46.1914 76.8066-48.7793Q76.8066-51.3672 75.0488-53.1494Q73.291-54.9316 70.6543-54.9316Q68.0664-54.9316 66.2842-53.1494Q64.502-51.3672 64.502-48.7793Q64.502-46.1914 66.2842-44.4092Q68.0664-42.627 70.6543-42.627Z"/>
  </g>
  <g id="Semibold-S" transform="matrix(1 0 0 1 1990.07 696)">
   <path d="M56.4941 7.32422L94.043-30.2246Q96.4355-32.666 97.0215-34.6436Q97.6074-36.6211 97.6074-39.9902L97.6074-54.4922Q97.6074-57.9102 96.6309-59.6924Q95.6543-61.4746 93.2129-63.916L84.5215-72.6074Q82.1289-75.0488 80.3223-76.0254Q78.5156-77.002 75.1465-77.002L60.6445-77.002Q57.1777-77.002 55.249-76.3916Q53.3203-75.7812 50.9277-73.3887L13.3301-35.791Q8.83789-31.2988 8.78906-26.5137Q8.74023-21.7285 13.3789-17.1875L37.8418 7.32422Q42.4805 11.8652 47.2168 11.8652Q51.9531 11.8652 56.4941 7.32422ZM50.5859 0.0488281Q47.168 3.4668 43.75 0.0488281L20.6055-23.0957Q18.8477-24.8047 18.8965-26.5381Q18.9453-28.2715 20.5566-29.9316L57.5195-66.8457Q58.0566-67.3828 58.5693-67.6758Q59.082-67.9688 59.9609-67.9688L74.8047-67.9688Q76.1719-67.9688 77.2461-66.8945L87.5-56.5918Q88.5254-55.5664 88.5254-54.1992L88.5254-39.3555Q88.5254-38.4766 88.2812-37.915Q88.0371-37.3535 87.5-36.8652ZM70.0684-43.5547Q72.6562-43.5547 74.3408-45.2637Q76.0254-46.9727 76.0254-49.5117Q76.0254-52.002 74.3408-53.7109Q72.6562-55.4199 70.0684-55.4199Q67.5293-55.4199 65.8447-53.7109Q64.1602-52.002 64.1602-49.5117Q64.1602-46.9727 65.8447-45.2637Q67.5293-43.5547 70.0684-43.5547Z"/>
  </g>
  <g id="Medium-S" transform="matrix(1 0 0 1 1693.94 696)">
   <path d="M55.6152 6.44531L93.0176-30.957Q95.3613-33.3008 95.8984-35.2051Q96.4355-37.1094 96.4355-40.332L96.4355-54.834Q96.4355-58.1543 95.4834-59.8633Q94.5312-61.5723 92.1875-63.8672L83.4961-72.5586Q81.2012-74.8535 79.5166-75.8301Q77.832-76.8066 74.5117-76.8066L59.9609-76.8066Q56.7383-76.8066 54.8584-76.2451Q52.9785-75.6836 50.6348-73.3887L13.2324-35.9375Q8.83789-31.543 8.78906-26.9531Q8.74023-22.3633 13.2812-17.9199L37.5977 6.44531Q42.1387 10.8887 46.6797 10.8643Q51.2207 10.8398 55.6152 6.44531ZM50.2441 0.0488281Q46.6309 3.66211 42.9688 0L19.6289-23.291Q17.7734-25.1465 17.8223-26.9775Q17.8711-28.8086 19.5801-30.5664L56.543-67.5293Q57.0801-68.0176 57.6172-68.3105Q58.1543-68.6035 59.0332-68.6035L74.4141-68.6035Q75.7812-68.6035 76.8555-67.5293L87.1582-57.2266Q88.2324-56.1523 88.2324-54.7852L88.2324-39.3555Q88.2324-38.4766 87.9639-37.915Q87.6953-37.3535 87.1582-36.8652ZM69.6289-44.2383Q72.168-44.2383 73.8037-45.9229Q75.4395-47.6074 75.4395-50.0488Q75.4395-52.4414 73.8037-54.126Q72.168-55.8105 69.6289-55.8105Q67.1875-55.8105 65.5273-54.126Q63.8672-52.4414 63.8672-50.0488Q63.8672-47.6074 65.5273-45.9229Q67.1875-44.2383 69.6289-44.2383Z"/>
  </g>
  <g id="Regular-S" transform="matrix(1 0 0 1 1397.99 696)">
   <path d="M54.541 5.32227L91.6992-31.8848Q93.9941-34.1797 94.458-35.9619Q94.9219-37.7441 94.9219-40.7227L94.9219-55.2734Q94.9219-58.4961 93.9941-60.0586Q93.0664-61.6211 90.8691-63.7695L82.1777-72.5098Q80.0293-74.6582 78.4668-75.5859Q76.9043-76.5137 73.6816-76.5137L59.1309-76.5137Q56.1035-76.5137 54.3213-76.0498Q52.5391-75.5859 50.293-73.3398L13.0859-36.1328Q8.83789-31.8848 8.78906-27.5391Q8.74023-23.1934 13.1348-18.8477L37.2559 5.27344Q41.6504 9.61914 45.9717 9.59473Q50.293 9.57031 54.541 5.32227ZM49.8047 0.0488281Q45.8984 3.95508 41.9434 0L18.3594-23.584Q16.4062-25.5371 16.4307-27.5391Q16.4551-29.541 18.3105-31.4453L55.2734-68.3594Q55.7617-68.8477 56.3232-69.165Q56.8848-69.4824 57.8125-69.4824L73.9258-69.4824Q75.293-69.4824 76.416-68.3594L86.7188-58.0078Q87.8418-56.8848 87.8418-55.5176L87.8418-39.4043Q87.8418-38.5254 87.5488-37.9395Q87.2559-37.3535 86.7188-36.8652ZM69.0918-45.1172Q71.5332-45.1172 73.1201-46.7529Q74.707-48.3887 74.707-50.7324Q74.707-53.0762 73.1201-54.6875Q71.5332-56.2988 69.0918-56.2988Q66.6992-56.2988 65.1123-54.6875Q63.5254-53.0762 63.5254-50.7324Q63.5254-48.3887 65.1123-46.7529Q66.6992-45.1172 69.0918-45.1172Z"/>
  </g>
  <g id="Light-S" transform="matrix(1 0 0 1 1101.86 696)">
   <path d="M53.3203 5.27344L90.7715-32.2266Q92.8223-34.2773 93.2861-35.8887Q93.75-37.5 93.75-40.4785L93.75-55.0293Q93.75-57.959 92.9443-59.3994Q92.1387-60.8398 89.9414-62.9883L81.1035-71.875Q78.9551-74.0234 77.5146-74.8291Q76.0742-75.6348 73.1445-75.6348L58.5938-75.6348Q55.5664-75.6348 53.9795-75.1709Q52.3926-74.707 50.3418-72.6562L12.793-35.2539Q8.83789-31.25 8.78906-27.1729Q8.74023-23.0957 12.8418-18.9941L37.1094 5.22461Q41.2109 9.27734 45.2881 9.25293Q49.3652 9.22852 53.3203 5.27344ZM49.707 1.2207Q45.2148 5.66406 40.7227 1.17188L16.8945-22.6562Q14.6484-24.9023 14.6729-27.1729Q14.6973-29.4434 16.8457-31.6406L54.1992-68.8477Q54.7852-69.4824 55.5176-69.8486Q56.25-70.2148 57.2754-70.2148L73.3887-70.2148Q75.0977-70.2148 76.4648-68.8477L86.9141-58.3496Q88.2812-56.9824 88.2812-55.2734L88.2812-39.1602Q88.2812-38.1836 87.9395-37.4512Q87.5977-36.7188 86.9141-36.084ZM68.75-45.7031Q70.8984-45.7031 72.29-47.1436Q73.6816-48.584 73.6816-50.6348Q73.6816-52.7344 72.29-54.1504Q70.8984-55.5664 68.75-55.5664Q66.6016-55.5664 65.21-54.1504Q63.8184-52.7344 63.8184-50.6348Q63.8184-48.584 65.21-47.1436Q66.6016-45.7031 68.75-45.7031Z"/>
  </g>
  <g id="Thin-S" transform="matrix(1 0 0 1 805.958 696)">
   <path d="M51.709 5.22461L89.502-32.666Q91.3086-34.4727 91.7236-35.8154Q92.1387-37.1582 92.1387-40.1855L92.1387-54.7363Q92.1387-57.2754 91.5527-58.5449Q90.9668-59.8145 88.7695-61.9629L79.7363-71.0449Q77.5391-73.1934 76.2451-73.8281Q74.9512-74.4629 72.4609-74.4629L57.9102-74.4629Q54.834-74.4629 53.5156-74.0234Q52.1973-73.584 50.3906-71.7773L12.4512-34.082Q8.78906-30.4199 8.78906-26.6602Q8.78906-22.9004 12.4512-19.2383L36.9141 5.22461Q40.5762 8.88672 44.3604 8.8623Q48.1445 8.83789 51.709 5.22461ZM49.5117 2.73438Q44.3359 7.91016 39.1113 2.73438L14.8926-21.4844Q12.3047-24.0723 12.3291-26.709Q12.3535-29.3457 14.8926-31.8848L52.7344-69.4824Q53.5645-70.3125 54.4922-70.7275Q55.4199-71.1426 56.5918-71.1426L72.7051-71.1426Q74.8535-71.1426 76.5137-69.4824L87.1582-58.7891Q88.8672-57.1289 88.8672-54.9805L88.8672-38.8672Q88.8672-37.6953 88.4521-36.7676Q88.0371-35.8398 87.1582-35.0098ZM68.2617-46.4844Q70.0195-46.4844 71.1914-47.6562Q72.3633-48.8281 72.3633-50.5371Q72.3633-52.2461 71.1914-53.418Q70.0195-54.5898 68.2617-54.5898Q66.5039-54.5898 65.3564-53.418Q64.209-52.2461 64.209-50.5371Q64.209-48.8281 65.3564-47.6562Q66.5039-46.4844 68.2617-46.4844Z"/>
  </g>
  <g id="Ultralight-S" transform="matrix(1 0 0 1 509.638 696)">
   <path d="M50.9277 5.17578L88.8672-32.8613Q90.4785-34.5215 90.918-35.7422Q91.3574-36.9629 91.3574-40.0391L91.3574-54.5898Q91.3574-56.8848 90.8447-58.0811Q90.332-59.2773 88.1348-61.4746L79.0039-70.6055Q76.8066-72.8027 75.6104-73.3154Q74.4141-73.8281 72.0703-73.8281L57.5195-73.8281Q54.4922-73.8281 53.2959-73.4131Q52.0996-72.998 50.4395-71.3379L12.2559-33.4961Q8.78906-30.0293 8.78906-26.4404Q8.78906-22.8516 12.2559-19.3359L36.8164 5.17578Q40.2832 8.64258 43.8965 8.61816Q47.5098 8.59375 50.9277 5.17578ZM49.4629 3.56445Q43.8477 9.08203 38.2812 3.56445L13.916-20.8496Q11.1328-23.6328 11.1572-26.4404Q11.1816-29.248 13.916-31.9824L52.002-69.8242Q52.8809-70.7031 53.9307-71.167Q54.9805-71.6309 56.2012-71.6309L72.3145-71.6309Q74.7559-71.6309 76.5625-69.8242L87.3047-58.9844Q89.1602-57.2266 89.1602-54.834L89.1602-38.7207Q89.1602-37.4512 88.6963-36.4258Q88.2324-35.4004 87.3047-34.4727ZM68.0664-46.875Q69.5801-46.875 70.6299-47.9248Q71.6797-48.9746 71.6797-50.4883Q71.6797-52.0508 70.6299-53.0762Q69.5801-54.1016 68.0664-54.1016Q66.4551-54.1016 65.4541-53.0762Q64.4531-52.0508 64.4531-50.4883Q64.4531-48.9746 65.4541-47.9248Q66.4551-46.875 68.0664-46.875Z"/>
  </g>
 </g>
</svg>
