<?xml version="1.0" encoding="UTF-8"?>
<!--Generator: Apple Native CoreSVG 149-->
<!DOCTYPE svg
PUBLIC "-//W3C//DTD SVG 1.1//EN"
       "http://www.w3.org/Graphics/SVG/1.1/DTD/svg11.dtd">
<svg version="1.1" xmlns="http://www.w3.org/2000/svg" xmlns:xlink="http://www.w3.org/1999/xlink" width="3300" height="2200">
 <!--glyph: "uni1007D5.medium", point size: 100.000000, font version: "Version 16.0d18e1", template writer version: "8"-->
 <g id="Notes">
  <rect height="2200" id="artboard" style="fill:white;opacity:1" width="3300" x="0" y="0"/>
  <line id="" style="fill:none;stroke:black;opacity:1;stroke-width:0.5;" x1="263" x2="3036" y1="292" y2="292"/>
  <text style="stroke:none;fill:black;font-family:-apple-system,&quot;SF Pro Display&quot;,&quot;SF Pro Text&quot;,Helvetica,sans-serif;font-weight:bold;" transform="matrix(1 0 0 1 263 322)">Weight/Scale Variations</text>
  <text style="stroke:none;fill:black;font-family:-apple-system,&quot;SF Pro Display&quot;,&quot;SF Pro Text&quot;,Helvetica,sans-serif;text-anchor:middle;" transform="matrix(1 0 0 1 559.711 322)">Ultralight</text>
  <text style="stroke:none;fill:black;font-family:-apple-system,&quot;SF Pro Display&quot;,&quot;SF Pro Text&quot;,Helvetica,sans-serif;text-anchor:middle;" transform="matrix(1 0 0 1 856.422 322)">Thin</text>
  <text style="stroke:none;fill:black;font-family:-apple-system,&quot;SF Pro Display&quot;,&quot;SF Pro Text&quot;,Helvetica,sans-serif;text-anchor:middle;" transform="matrix(1 0 0 1 1153.13 322)">Light</text>
  <text style="stroke:none;fill:black;font-family:-apple-system,&quot;SF Pro Display&quot;,&quot;SF Pro Text&quot;,Helvetica,sans-serif;text-anchor:middle;" transform="matrix(1 0 0 1 1449.84 322)">Regular</text>
  <text style="stroke:none;fill:black;font-family:-apple-system,&quot;SF Pro Display&quot;,&quot;SF Pro Text&quot;,Helvetica,sans-serif;text-anchor:middle;" transform="matrix(1 0 0 1 1746.56 322)">Medium</text>
  <text style="stroke:none;fill:black;font-family:-apple-system,&quot;SF Pro Display&quot;,&quot;SF Pro Text&quot;,Helvetica,sans-serif;text-anchor:middle;" transform="matrix(1 0 0 1 2043.27 322)">Semibold</text>
  <text style="stroke:none;fill:black;font-family:-apple-system,&quot;SF Pro Display&quot;,&quot;SF Pro Text&quot;,Helvetica,sans-serif;text-anchor:middle;" transform="matrix(1 0 0 1 2339.98 322)">Bold</text>
  <text style="stroke:none;fill:black;font-family:-apple-system,&quot;SF Pro Display&quot;,&quot;SF Pro Text&quot;,Helvetica,sans-serif;text-anchor:middle;" transform="matrix(1 0 0 1 2636.69 322)">Heavy</text>
  <text style="stroke:none;fill:black;font-family:-apple-system,&quot;SF Pro Display&quot;,&quot;SF Pro Text&quot;,Helvetica,sans-serif;text-anchor:middle;" transform="matrix(1 0 0 1 2933.4 322)">Black</text>
  <line id="" style="fill:none;stroke:black;opacity:1;stroke-width:0.5;" x1="263" x2="3036" y1="1903" y2="1903"/>
  <g id="" transform="matrix(1 0 0 1 263 1933)">
   <path d="M9.24805 0.830078C13.5547 0.830078 17.1387-2.74414 17.1387-7.05078C17.1387-11.3574 13.5449-14.9316 9.23828-14.9316C4.94141-14.9316 1.36719-11.3574 1.36719-7.05078C1.36719-2.74414 4.95117 0.830078 9.24805 0.830078ZM9.24805-0.654297C5.70312-0.654297 2.87109-3.49609 2.87109-7.05078C2.87109-10.6055 5.69336-13.4473 9.23828-13.4473C12.793-13.4473 15.6348-10.6055 15.6445-7.05078C15.6543-3.49609 12.8027-0.654297 9.24805-0.654297ZM6.39648-6.31836L8.50586-6.31836L8.50586-4.19922C8.50586-3.75977 8.79883-3.45703 9.22852-3.45703C9.67773-3.45703 9.9707-3.75977 9.9707-4.19922L9.9707-6.31836L12.0996-6.31836C12.5391-6.31836 12.8418-6.61133 12.8418-7.04102C12.8418-7.48047 12.5391-7.7832 12.0996-7.7832L9.9707-7.7832L9.9707-9.89258C9.9707-10.3418 9.67773-10.6445 9.22852-10.6445C8.79883-10.6445 8.50586-10.3418 8.50586-9.89258L8.50586-7.7832L6.39648-7.7832C5.94727-7.7832 5.64453-7.48047 5.64453-7.04102C5.64453-6.61133 5.94727-6.31836 6.39648-6.31836Z"/>
  </g>
  <g id="" transform="matrix(1 0 0 1 281.506 1933)">
   <path d="M11.709 2.91016C17.1582 2.91016 21.6699-1.61133 21.6699-7.05078C21.6699-12.5 17.1484-17.0117 11.6992-17.0117C6.25977-17.0117 1.74805-12.5 1.74805-7.05078C1.74805-1.61133 6.26953 2.91016 11.709 2.91016ZM11.709 1.25C7.09961 1.25 3.41797-2.44141 3.41797-7.05078C3.41797-11.6602 7.08984-15.3516 11.6992-15.3516C16.3086-15.3516 20-11.6602 20.0098-7.05078C20.0195-2.44141 16.3184 1.25 11.709 1.25ZM7.98828-6.23047L10.8789-6.23047L10.8789-3.32031C10.8789-2.83203 11.2109-2.5 11.6895-2.5C12.1777-2.5 12.5195-2.83203 12.5195-3.32031L12.5195-6.23047L15.4297-6.23047C15.918-6.23047 16.25-6.5625 16.25-7.04102C16.25-7.5293 15.918-7.87109 15.4297-7.87109L12.5195-7.87109L12.5195-10.7617C12.5195-11.2695 12.1777-11.6016 11.6895-11.6016C11.2109-11.6016 10.8789-11.2598 10.8789-10.7617L10.8789-7.87109L7.98828-7.87109C7.48047-7.87109 7.14844-7.5293 7.14844-7.04102C7.14844-6.5625 7.49023-6.23047 7.98828-6.23047Z"/>
  </g>
  <g id="" transform="matrix(1 0 0 1 304.924 1933)">
   <path d="M14.9707 5.66406C21.9336 5.66406 27.6953-0.0976562 27.6953-7.05078C27.6953-14.0137 21.9238-19.7754 14.9609-19.7754C8.00781-19.7754 2.25586-14.0137 2.25586-7.05078C2.25586-0.0976562 8.01758 5.66406 14.9707 5.66406ZM14.9707 3.84766C8.93555 3.84766 4.08203-1.01562 4.08203-7.05078C4.08203-13.0957 8.92578-17.9492 14.9609-17.9492C21.0059-17.9492 25.8594-13.0957 25.8691-7.05078C25.8789-1.01562 21.0156 3.84766 14.9707 3.84766ZM10.0586-6.14258L14.0625-6.14258L14.0625-2.12891C14.0625-1.5918 14.4336-1.2207 14.9512-1.2207C15.4883-1.2207 15.8594-1.5918 15.8594-2.12891L15.8594-6.14258L19.8828-6.14258C20.4102-6.14258 20.791-6.51367 20.791-7.03125C20.791-7.56836 20.4199-7.94922 19.8828-7.94922L15.8594-7.94922L15.8594-11.9531C15.8594-12.5098 15.4883-12.8809 14.9512-12.8809C14.4336-12.8809 14.0625-12.5 14.0625-11.9531L14.0625-7.94922L10.0586-7.94922C9.50195-7.94922 9.13086-7.56836 9.13086-7.03125C9.13086-6.51367 9.51172-6.14258 10.0586-6.14258Z"/>
  </g>
  <text style="stroke:none;fill:black;font-family:-apple-system,&quot;SF Pro Display&quot;,&quot;SF Pro Text&quot;,Helvetica,sans-serif;font-weight:bold;" transform="matrix(1 0 0 1 263 1953)">Design Variations</text>
  <text style="stroke:none;fill:black;font-family:-apple-system,&quot;SF Pro Display&quot;,&quot;SF Pro Text&quot;,Helvetica,sans-serif;" transform="matrix(1 0 0 1 263 1971)">Symbols are supported in up to nine weights and three scales.</text>
  <text style="stroke:none;fill:black;font-family:-apple-system,&quot;SF Pro Display&quot;,&quot;SF Pro Text&quot;,Helvetica,sans-serif;" transform="matrix(1 0 0 1 263 1989)">For optimal layout with text and other symbols, vertically align</text>
  <text style="stroke:none;fill:black;font-family:-apple-system,&quot;SF Pro Display&quot;,&quot;SF Pro Text&quot;,Helvetica,sans-serif;" transform="matrix(1 0 0 1 263 2007)">symbols with the adjacent text.</text>
  <line id="" style="fill:none;stroke:#00AEEF;stroke-width:0.5;opacity:1.0;" x1="776" x2="776" y1="1919" y2="1933"/>
  <g id="" transform="matrix(1 0 0 1 776 1933)">
   <path d="M3.31055 0.126953C3.82812 0.126953 4.08203-0.0683594 4.26758-0.605469L5.52734-4.0625L11.2891-4.0625L12.5488-0.605469C12.7344-0.0683594 12.9883 0.126953 13.4961 0.126953C14.0137 0.126953 14.3457-0.185547 14.3457-0.673828C14.3457-0.839844 14.3164-0.986328 14.2383-1.20117L9.6582-13.3887C9.43359-13.9941 9.0332-14.2871 8.4082-14.2871C7.80273-14.2871 7.39258-13.9941 7.17773-13.3984L2.59766-1.19141C2.51953-0.976562 2.49023-0.830078 2.49023-0.664062C2.49023-0.175781 2.80273 0.126953 3.31055 0.126953ZM6.00586-5.53711L8.37891-12.1094L8.42773-12.1094L10.8008-5.53711Z"/>
  </g>
  <line id="" style="fill:none;stroke:#00AEEF;stroke-width:0.5;opacity:1.0;" x1="792.836" x2="792.836" y1="1919" y2="1933"/>
  <text style="stroke:none;fill:black;font-family:-apple-system,&quot;SF Pro Display&quot;,&quot;SF Pro Text&quot;,Helvetica,sans-serif;font-weight:bold;" transform="matrix(1 0 0 1 776 1953)">Margins</text>
  <text style="stroke:none;fill:black;font-family:-apple-system,&quot;SF Pro Display&quot;,&quot;SF Pro Text&quot;,Helvetica,sans-serif;" transform="matrix(1 0 0 1 776 1971)">Leading and trailing margins on the left and right side of each symbol</text>
  <text style="stroke:none;fill:black;font-family:-apple-system,&quot;SF Pro Display&quot;,&quot;SF Pro Text&quot;,Helvetica,sans-serif;" transform="matrix(1 0 0 1 776 1989)">can be adjusted by modifying the x-location of the margin guidelines.</text>
  <text style="stroke:none;fill:black;font-family:-apple-system,&quot;SF Pro Display&quot;,&quot;SF Pro Text&quot;,Helvetica,sans-serif;" transform="matrix(1 0 0 1 776 2007)">Modifications are automatically applied proportionally to all</text>
  <text style="stroke:none;fill:black;font-family:-apple-system,&quot;SF Pro Display&quot;,&quot;SF Pro Text&quot;,Helvetica,sans-serif;" transform="matrix(1 0 0 1 776 2025)">scales and weights.</text>
  <g id="" transform="matrix(1 0 0 1 1289 1933)">
   <path d="M2.8418 1.86523L4.54102 3.57422C5.40039 4.44336 6.38672 4.38477 7.31445 3.35938L17.4902-7.85156C17.7539-7.76367 18.0273-7.7832 18.3398-7.8418L19.4043-8.03711L20.0684-7.36328L20.0293-6.80664C19.9902-6.30859 20.1172-5.92773 20.6055-5.44922L21.3672-4.70703C21.8457-4.22852 22.4609-4.19922 22.9297-4.66797L25.8398-7.58789C26.3086-8.05664 26.2891-8.65234 25.8105-9.13086L25.0391-9.89258C24.5605-10.3711 24.1895-10.5273 23.7109-10.4883L23.1348-10.4395L22.4902-11.0742L22.7344-12.1973C22.8613-12.7637 22.7051-13.2031 22.1191-13.7891L19.9219-15.9766C16.582-19.2969 12.1484-19.2188 9.25781-16.3281C8.83789-15.918 8.80859-15.3418 9.04297-14.9512C9.27734-14.5898 9.73633-14.3555 10.3809-14.5215C11.8457-14.8633 13.3691-14.9219 14.7949-13.9844L14.209-12.5293C14.0137-12.0508 13.9844-11.6504 14.1113-11.2891L3.04688-0.898438C2.06055 0.0195312 1.98242 0.996094 2.8418 1.86523ZM10.752-15.957C13.1836-17.7344 16.4746-17.4316 18.7012-15.2051L21.1328-12.793C21.3672-12.5586 21.4062-12.373 21.3379-12.0312L21.0156-10.5469L22.5195-9.0625L23.5059-9.12109C23.7598-9.13086 23.8379-9.11133 24.0332-8.91602L24.6094-8.33984L22.168-5.89844L21.5918-6.47461C21.3965-6.66992 21.3672-6.74805 21.377-7.01172L21.4453-7.98828L19.9512-9.47266L18.4277-9.21875C18.1055-9.15039 17.959-9.17969 17.7148-9.41406L15.7129-11.416C15.459-11.6504 15.4297-11.8164 15.5859-12.1875L16.4648-14.2773C14.9023-15.7324 12.8711-16.3574 10.8398-15.7617C10.6836-15.7227 10.625-15.8496 10.752-15.957ZM5.27344 2.30469L4.10156 1.14258C3.63281 0.683594 3.74023 0.341797 4.14062-0.0195312L14.9512-10.1953L16.416-8.71094L6.42578 2.27539C6.07422 2.67578 5.74219 2.77344 5.27344 2.30469Z"/>
  </g>
  <text style="stroke:none;fill:black;font-family:-apple-system,&quot;SF Pro Display&quot;,&quot;SF Pro Text&quot;,Helvetica,sans-serif;font-weight:bold;" transform="matrix(1 0 0 1 1289 1953)">Exporting</text>
  <text style="stroke:none;fill:black;font-family:-apple-system,&quot;SF Pro Display&quot;,&quot;SF Pro Text&quot;,Helvetica,sans-serif;" transform="matrix(1 0 0 1 1289 1971)">Symbols should be outlined when exporting to ensure the</text>
  <text style="stroke:none;fill:black;font-family:-apple-system,&quot;SF Pro Display&quot;,&quot;SF Pro Text&quot;,Helvetica,sans-serif;" transform="matrix(1 0 0 1 1289 1989)">design is preserved when submitting to Xcode.</text>
  <text id="template-version" style="stroke:none;fill:black;font-family:-apple-system,&quot;SF Pro Display&quot;,&quot;SF Pro Text&quot;,Helvetica,sans-serif;text-anchor:end;" transform="matrix(1 0 0 1 3036 1933)">Template v.2.0</text>
  <text style="stroke:none;fill:black;font-family:-apple-system,&quot;SF Pro Display&quot;,&quot;SF Pro Text&quot;,Helvetica,sans-serif;text-anchor:end;" transform="matrix(1 0 0 1 3036 1951)">Requires Xcode 12 or greater</text>
  <text style="stroke:none;fill:black;font-family:-apple-system,&quot;SF Pro Display&quot;,&quot;SF Pro Text&quot;,Helvetica,sans-serif;text-anchor:end;" transform="matrix(1 0 0 1 3036 1969)">Generated from key</text>
  <text style="stroke:none;fill:black;font-family:-apple-system,&quot;SF Pro Display&quot;,&quot;SF Pro Text&quot;,Helvetica,sans-serif;text-anchor:end;" transform="matrix(1 0 0 1 3036 1987)">Typeset at 100 points</text>
  <text style="stroke:none;fill:black;font-family:-apple-system,&quot;SF Pro Display&quot;,&quot;SF Pro Text&quot;,Helvetica,sans-serif;" transform="matrix(1 0 0 1 263 726)">Small</text>
  <text style="stroke:none;fill:black;font-family:-apple-system,&quot;SF Pro Display&quot;,&quot;SF Pro Text&quot;,Helvetica,sans-serif;" transform="matrix(1 0 0 1 263 1156)">Medium</text>
  <text style="stroke:none;fill:black;font-family:-apple-system,&quot;SF Pro Display&quot;,&quot;SF Pro Text&quot;,Helvetica,sans-serif;" transform="matrix(1 0 0 1 263 1586)">Large</text>
 </g>
 <g id="Guides">
  <g id="H-reference" style="fill:#27AAE1;stroke:none;" transform="matrix(1 0 0 1 339 696)">
   <path d="M0.976562 0L3.66211 0L12.9883-24.4629L45.752-24.4629L55.127 0L57.7637 0L30.6152-70.459L28.125-70.459ZM29.3457-67.1387L29.4434-67.1387L44.873-26.709L13.8672-26.709Z"/>
  </g>
  <line id="Baseline-S" style="fill:none;stroke:#27AAE1;opacity:1;stroke-width:0.5;" x1="263" x2="3036" y1="696" y2="696"/>
  <line id="Capline-S" style="fill:none;stroke:#27AAE1;opacity:1;stroke-width:0.5;" x1="263" x2="3036" y1="625.541" y2="625.541"/>
  <g id="H-reference" style="fill:#27AAE1;stroke:none;" transform="matrix(1 0 0 1 339 1126)">
   <path d="M0.976562 0L3.66211 0L12.9883-24.4629L45.752-24.4629L55.127 0L57.7637 0L30.6152-70.459L28.125-70.459ZM29.3457-67.1387L29.4434-67.1387L44.873-26.709L13.8672-26.709Z"/>
  </g>
  <line id="Baseline-M" style="fill:none;stroke:#27AAE1;opacity:1;stroke-width:0.5;" x1="263" x2="3036" y1="1126" y2="1126"/>
  <line id="Capline-M" style="fill:none;stroke:#27AAE1;opacity:1;stroke-width:0.5;" x1="263" x2="3036" y1="1055.54" y2="1055.54"/>
  <g id="H-reference" style="fill:#27AAE1;stroke:none;" transform="matrix(1 0 0 1 339 1556)">
   <path d="M0.976562 0L3.66211 0L12.9883-24.4629L45.752-24.4629L55.127 0L57.7637 0L30.6152-70.459L28.125-70.459ZM29.3457-67.1387L29.4434-67.1387L44.873-26.709L13.8672-26.709Z"/>
  </g>
  <line id="Baseline-L" style="fill:none;stroke:#27AAE1;opacity:1;stroke-width:0.5;" x1="263" x2="3036" y1="1556" y2="1556"/>
  <line id="Capline-L" style="fill:none;stroke:#27AAE1;opacity:1;stroke-width:0.5;" x1="263" x2="3036" y1="1485.54" y2="1485.54"/>
  <line id="left-margin" style="fill:none;stroke:#00AEEF;stroke-width:0.5;opacity:1.0;" x1="1404.75" x2="1404.75" y1="1030.79" y2="1150.12"/>
  <line id="right-margin" style="fill:none;stroke:#00AEEF;stroke-width:0.5;opacity:1.0;" x1="1494.94" x2="1494.94" y1="1030.79" y2="1150.12"/>
 </g>
 <g id="Symbols">
  <g id="Black-L" transform="matrix(1 0 0 1 2872.24 1556)">
   <path d="M54.6875 43.1641C58.6426 46.5332 64.0137 46.875 67.627 43.2617L87.0605 23.7793C90.6738 20.166 90.5762 14.502 87.0117 10.8887L79.4434 3.27148L91.5039-8.88672C95.0195-12.4512 95.0684-18.1641 91.5039-21.7773L81.1523-32.1289C97.3145-41.2109 106.25-55.5664 106.25-72.1191C106.25-97.0215 86.1816-117.139 61.1816-117.139C36.084-117.139 16.0645-97.0703 16.0645-72.1191C16.0645-54.834 25.6348-39.209 41.0645-31.5918L41.0645 26.3184C41.0645 29.1504 42.041 32.4707 44.4336 34.4727ZM61.1816 27.6855L54.8828 21.4844L54.8828-43.1641C41.8945-45.6055 31.543-57.666 31.543-72.1191C31.543-88.3789 44.7754-101.562 61.1816-101.562C77.5391-101.562 90.6738-88.3789 90.6738-72.1191C90.6738-57.7637 80.2734-45.5566 65.0879-43.0664L65.0879-26.123L75.8789-15.2344L64.6973-4.24805L64.6973 10.5957L71.4844 17.2363ZM61.1816-72.3145C66.9434-72.3145 71.6797-77.0508 71.6797-82.8125C71.6797-88.5742 66.9434-93.3105 61.1816-93.3105C55.3711-93.3105 50.6836-88.6719 50.6836-82.8125C50.6836-77.0508 55.3711-72.3145 61.1816-72.3145Z"/>
  </g>
  <g id="Heavy-L" transform="matrix(1 0 0 1 2576.46 1556)">
   <path d="M54.4434 42.5293C57.959 45.5078 62.793 45.8496 66.0645 42.5781L85.498 23.1445C88.7695 19.873 88.6719 14.7949 85.4004 11.5234L77.1973 3.27148L89.9414-9.52148C93.1152-12.7441 93.1152-17.8711 89.8926-21.1426L78.6621-32.373C95.2148-41.2109 104.395-55.5176 104.395-72.1191C104.395-96.4844 84.7168-116.211 60.2539-116.211C35.6445-116.211 16.0645-96.582 16.0645-72.1191C16.0645-54.9805 25.6836-39.502 41.0645-32.1777L41.0645 26.1719C41.0645 28.7598 41.9434 31.8359 44.1406 33.6914ZM60.2539 28.6621L53.6621 22.168L53.6621-42.5293C40.2344-45.2148 29.9316-57.4707 29.9316-72.1191C29.9316-88.7695 43.457-102.246 60.2539-102.246C77.002-102.246 90.4785-88.8184 90.4785-72.1191C90.4785-57.5684 80.0781-45.166 64.5508-42.2363L64.5508-26.7578L75.9277-15.2344L64.0625-3.56445L64.0625 9.91211L71.5332 17.2363ZM60.2539-72.2168C66.1133-72.2168 70.8984-77.0508 70.8984-82.8613C70.8984-88.7695 66.1133-93.5547 60.2539-93.5547C54.2969-93.5547 49.5605-88.8672 49.5605-82.8613C49.5605-77.0508 54.3457-72.2168 60.2539-72.2168Z"/>
  </g>
  <g id="Bold-L" transform="matrix(1 0 0 1 2280.77 1556)">
   <path d="M54.1504 41.7969C57.2266 44.4336 61.4258 44.7266 64.2578 41.8457L83.7402 22.4121C86.6211 19.5312 86.5234 15.0879 83.6426 12.2559L74.707 3.27148L88.1836-10.2539C90.9668-13.0371 90.918-17.5293 88.0859-20.4102L75.8789-32.666C92.8711-41.2598 102.344-55.4688 102.344-72.1191C102.344-95.9473 83.1055-115.137 59.1797-115.137C35.2051-115.137 16.0645-95.9961 16.0645-72.1191C16.0645-55.127 25.7324-39.8926 41.0645-32.8613L41.0645 26.0254C41.0645 28.3691 41.8457 31.0547 43.8477 32.8125ZM59.1797 29.7852L52.3438 22.9492L52.3438-41.748C38.4277-44.7754 28.125-57.2266 28.125-72.1191C28.125-89.209 41.9922-103.027 59.1797-103.027C76.416-103.027 90.2344-89.2578 90.2344-72.1191C90.2344-57.373 79.834-44.7266 63.8672-41.3574L63.8672-27.4414L76.0254-15.2344L63.3789-2.7832L63.3789 9.13086L71.6309 17.2363ZM59.1797-72.0703C65.1855-72.0703 70.0684-77.002 70.0684-82.959C70.0684-88.9648 65.1855-93.8477 59.1797-93.8477C53.125-93.8477 48.291-89.0625 48.291-82.959C48.291-77.002 53.1738-72.0703 59.1797-72.0703Z"/>
  </g>
  <g id="Semibold-L" transform="matrix(1 0 0 1 1984.77 1556)">
   <path d="M53.9062 41.3086C56.6895 43.6523 60.4492 43.9453 63.0859 41.3574L82.5195 21.9238C85.1074 19.2871 85.0098 15.332 82.4707 12.7441L72.9492 3.27148L86.9629-10.7422C89.502-13.2812 89.4531-17.2852 86.8652-19.9219L73.9258-32.9102C91.2109-41.2598 100.928-55.4199 100.928-72.1191C100.928-95.5566 81.9824-114.453 58.4961-114.453C34.9121-114.453 16.0645-95.6055 16.0645-72.1191C16.0645-55.2246 25.7324-40.1367 41.0645-33.3496L41.0645 25.9277C41.0645 28.0762 41.748 30.5664 43.6523 32.1777ZM58.4961 30.5664L51.3672 23.4863L51.3672-41.2598C37.1582-44.4824 26.8555-57.0801 26.8555-72.1191C26.8555-89.502 40.9668-103.564 58.4961-103.564C75.9766-103.564 90.0391-89.5508 90.0391-72.1191C90.0391-57.2266 79.6875-44.4336 63.4277-40.7715L63.4277-27.8809L76.0742-15.2344L62.8906-2.24609L62.8906 8.54492L71.6797 17.2363ZM58.4961-71.9727C64.5508-71.9727 69.5312-76.9531 69.5312-83.0078C69.5312-89.1113 64.5508-94.043 58.4961-94.043C52.3438-94.043 47.4609-89.209 47.4609-83.0078C47.4609-76.9531 52.3926-71.9727 58.4961-71.9727Z"/>
  </g>
  <g id="Medium-L" transform="matrix(1 0 0 1 1688.62 1556)">
   <path d="M53.7598 40.918C56.2988 43.0664 59.7656 43.3594 62.1582 40.9668L81.5918 21.5332C83.9844 19.1406 83.8867 15.4785 81.543 13.1348L71.6309 3.27148L86.0352-11.1328C88.3789-13.4277 88.2812-17.1387 85.9375-19.5312L72.5098-33.0566C89.9902-41.2598 99.8047-55.4199 99.8047-72.1191C99.8047-95.2637 81.1523-113.916 57.959-113.916C34.668-113.916 16.0645-95.3125 16.0645-72.1191C16.0645-55.3223 25.7324-40.332 41.0645-33.6914L41.0645 25.8301C41.0645 27.832 41.6992 30.1758 43.5059 31.7383ZM57.959 31.1523L50.6836 23.877L50.6836-40.8691C36.1816-44.2383 25.9277-56.9824 25.9277-72.1191C25.9277-89.7461 40.1855-104.004 57.959-104.004C75.6836-104.004 89.8926-89.7949 89.8926-72.1191C89.8926-57.1289 79.5898-44.2383 63.1348-40.2832L63.1348-28.2715L76.123-15.2344L62.5-1.80664L62.5 8.1543L71.6797 17.2363ZM57.959-71.9238C64.0625-71.9238 69.0918-76.9531 69.0918-83.0566C69.0918-89.209 64.0625-94.2383 57.959-94.2383C51.7578-94.2383 46.7773-89.3066 46.7773-83.0566C46.7773-76.9531 51.8066-71.9238 57.959-71.9238Z"/>
  </g>
  <g id="Regular-L" transform="matrix(1 0 0 1 1392.59 1556)">
   <path d="M53.5645 40.4297C55.7617 42.334 58.7891 42.5781 60.9375 40.4785L80.3711 21.0449C82.5195 18.8965 82.4219 15.6738 80.3223 13.623L69.9219 3.27148L84.8145-11.6211C86.8652-13.623 86.8164-16.8945 84.7168-19.043L70.6055-33.252C88.3789-41.3086 98.4375-55.3711 98.4375-72.1191C98.4375-94.873 80.0293-113.184 57.2266-113.184C34.375-113.184 16.0645-94.9219 16.0645-72.1191C16.0645-55.4199 25.7812-40.5762 41.0645-34.1309L41.0645 25.7324C41.0645 27.5879 41.6504 29.6875 43.3105 31.1523ZM57.2266 31.8848L49.7559 24.4141L49.7559-40.3809C34.9121-43.9453 24.6582-56.8359 24.6582-72.1191C24.6582-90.0391 39.209-104.492 57.2266-104.492C75.2441-104.492 89.7461-90.0879 89.7461-72.1191C89.7461-56.9824 79.4434-43.9453 62.6953-39.6973L62.6953-28.7109L76.1719-15.2344L62.0117-1.26953L62.0117 7.61719L71.7285 17.2363ZM57.2266-71.8262C63.4766-71.8262 68.5059-76.9043 68.5059-83.1543C68.5059-89.3555 63.4766-94.4336 57.2266-94.4336C50.9277-94.4336 45.9473-89.4531 45.9473-83.1543C45.9473-76.9043 51.0254-71.8262 57.2266-71.8262Z"/>
  </g>
  <g id="Light-L" transform="matrix(1 0 0 1 1097.18 1556)">
   <path d="M53.1738 39.502C54.834 40.9668 57.1289 41.1621 58.7402 39.5508L78.1738 20.1172C79.7852 18.5059 79.7363 16.0645 78.125 14.502L66.7969 3.27148L82.6172-12.5C84.1797-14.0137 84.1309-16.5039 82.5195-18.1152L67.041-33.6914C85.498-41.4062 95.8496-55.3711 95.8496-72.1191C95.8496-94.1406 78.0273-111.914 55.957-111.914C33.7891-111.914 16.0645-94.2383 16.0645-72.1191C16.0645-55.6641 25.8301-41.0645 41.0645-35.0098L41.0645 25.3418C41.0645 26.8555 41.5527 28.6133 42.9688 29.8828ZM55.957 32.9102L47.7539 24.707L47.7539-39.7949C32.9102-43.6523 22.6562-56.6895 22.6562-72.1191C22.6562-90.4297 37.5-105.225 55.957-105.225C74.3652-105.225 89.1602-90.4785 89.1602-72.1191C89.1602-56.8359 78.9062-43.6523 60.8887-38.7207L60.8887-30.2246L75.8789-15.2344L60.7422-0.244141L60.7422 6.5918L71.4355 17.2363ZM55.957-72.2656C62.0117-72.2656 66.9922-77.2461 66.9922-83.3496C66.9922-89.4531 62.0117-94.4336 55.957-94.4336C49.7559-94.4336 44.873-89.502 44.873-83.3496C44.873-77.2461 49.8535-72.2656 55.957-72.2656Z"/>
  </g>
  <g id="Thin-L" transform="matrix(1 0 0 1 802.199 1556)">
   <path d="M52.6855 38.3301C53.6133 39.209 54.8828 39.3066 55.8594 38.3301L75.2441 18.9453C76.2207 17.9688 76.1719 16.6016 75.2441 15.7227L62.6953 3.27148L79.7363-13.7207C80.6152-14.5508 80.5176-15.9668 79.5898-16.9434L62.3535-34.2285C81.6406-41.5039 92.3828-55.3711 92.3828-72.1191C92.3828-93.1641 75.3906-110.205 54.248-110.205C33.0078-110.205 16.0645-93.2617 16.0645-72.1191C16.0645-55.957 25.8789-41.6992 41.0645-36.1816L41.0645 24.8535C41.0645 25.9277 41.4062 27.1973 42.4805 28.2227ZM54.248 34.2773L45.0684 25.0977L45.0684-39.0625C30.2246-43.2617 19.9707-56.4941 19.9707-72.1191C19.9707-90.9668 35.2539-106.201 54.248-106.201C73.1445-106.201 88.3789-91.0156 88.3789-72.1191C88.3789-56.6406 78.1738-43.2617 58.4961-37.4512L58.4961-32.2266L75.4883-15.2344L58.9844 1.12305L58.9844 5.22461L71.0938 17.2363ZM54.248-72.8516C60.1562-72.8516 64.9902-77.6855 64.9902-83.5938C64.9902-89.5508 60.1562-94.3848 54.248-94.3848C48.2422-94.3848 43.457-89.5996 43.457-83.5938C43.457-77.6855 48.3398-72.8516 54.248-72.8516Z"/>
  </g>
  <g id="Ultralight-L" transform="matrix(1 0 0 1 506.342 1556)">
   <path d="M52.4414 37.6953C52.9785 38.2812 53.7109 38.3301 54.3457 37.6953L73.7305 18.3105C74.3652 17.6758 74.3652 16.8945 73.7305 16.3574L60.5469 3.27148L78.2227-14.3555C78.8086-14.7949 78.7109-15.6738 78.0762-16.3086L59.9609-34.5215C79.6875-41.5527 90.6738-55.3711 90.6738-72.1191C90.6738-92.6758 74.0234-109.326 53.3691-109.326C32.6172-109.326 16.0645-92.7734 16.0645-72.1191C16.0645-56.1035 25.8789-42.041 41.0645-36.7676L41.0645 24.6094C41.0645 25.4395 41.3574 26.4648 42.2363 27.3926ZM53.3691 34.9609L43.7012 25.293L43.7012-38.7207C28.8086-43.0664 18.6035-56.3477 18.6035-72.1191C18.6035-91.2109 34.082-106.689 53.3691-106.689C72.5586-106.689 88.0371-91.3086 88.0371-72.1191C88.0371-56.543 77.832-43.0664 57.2754-36.8164L57.2754-33.252L75.3418-15.2344L58.1055 1.80664L58.1055 4.54102L70.8984 17.2363ZM53.3691-73.1445C59.1797-73.1445 63.9648-77.9297 63.9648-83.7402C63.9648-89.5996 59.1797-94.3848 53.3691-94.3848C47.4609-94.3848 42.7246-89.6484 42.7246-83.7402C42.7246-77.9297 47.5098-73.1445 53.3691-73.1445Z"/>
  </g>
  <g id="Black-M" transform="matrix(1 0 0 1 2885.45 1126)">
   <path d="M42.5781 25.9277C45.8984 28.7109 50.3418 29.0039 53.3691 25.9766L68.457 10.8887C71.4355 7.86133 71.3867 3.17383 68.3594 0.0976562L62.9395-5.41992L71.875-14.4043C74.8047-17.4316 74.8535-22.168 71.875-25.1953L64.3555-32.7148C76.709-39.8926 83.4473-51.0254 83.4473-63.8184C83.4473-83.3984 67.6758-99.2676 47.9492-99.2676C28.1738-99.2676 12.4512-83.4473 12.4512-63.8184C12.4512-50.3418 19.873-38.1348 31.8359-32.0312L31.8359 12.5C31.8359 14.7949 32.666 17.5781 34.5703 19.1895ZM47.9492 12.7441L43.1152 7.91016L43.1152-41.9922C33.5938-43.6523 25.5859-52.7832 25.5859-63.8184C25.5859-76.123 35.5957-86.084 47.9492-86.084C60.3516-86.084 70.2637-76.123 70.2637-63.8184C70.2637-52.832 62.207-43.5547 50.2441-41.8457L50.2441-28.1738L58.5449-19.7266L50.293-11.6211L50.293 0.683594L55.1758 5.41992ZM47.9492-64.3555C52.2461-64.3555 55.7129-67.8711 55.7129-72.0703C55.7129-76.3672 52.2461-79.834 47.9492-79.834C43.7012-79.834 40.1855-76.416 40.1855-72.0703C40.1855-67.8711 43.6523-64.3555 47.9492-64.3555Z"/>
  </g>
  <g id="Heavy-M" transform="matrix(1 0 0 1 2589.4 1126)">
   <path d="M42.3828 25.4395C45.4102 28.0273 49.4629 28.2715 52.1973 25.4883L67.2852 10.4004C70.0195 7.66602 69.9707 3.36914 67.2363 0.585938L61.2793-5.41992L70.7031-14.8926C73.3887-17.627 73.4375-21.9727 70.7031-24.707L62.5488-32.8613C75.1465-39.8926 82.1289-50.9766 82.1289-63.8184C82.1289-83.0566 66.6016-98.584 47.2656-98.584C27.8809-98.584 12.4512-83.1055 12.4512-63.8184C12.4512-50.4395 19.873-38.3301 31.8359-32.4707L31.8359 12.4023C31.8359 14.5508 32.5684 17.0898 34.375 18.6523ZM47.2656 13.5254L42.2852 8.59375L42.2852-41.4062C32.3242-43.3105 24.3164-52.6367 24.3164-63.8184C24.3164-76.4648 34.5703-86.6699 47.2656-86.6699C59.9609-86.6699 70.166-76.4648 70.166-63.8184C70.166-52.6855 62.1094-43.2617 50.0977-41.2109L50.0977-28.418L58.6914-19.7266L49.9512-11.1328L49.9512 0.195312L55.3223 5.41992ZM47.2656-64.1113C51.709-64.1113 55.3223-67.7734 55.3223-72.1191C55.3223-76.5625 51.709-80.1758 47.2656-80.1758C42.8223-80.1758 39.2578-76.6113 39.2578-72.1191C39.2578-67.7734 42.8711-64.1113 47.2656-64.1113Z"/>
  </g>
  <g id="Bold-M" transform="matrix(1 0 0 1 2293.44 1126)">
   <path d="M42.1387 24.9023C44.8242 27.1973 48.4375 27.4414 50.9277 24.9512L66.0156 9.91211C68.457 7.42188 68.4082 3.56445 65.918 1.12305L59.4238-5.41992L69.4336-15.4297C71.8262-17.8711 71.8262-21.7285 69.3848-24.2188L60.5469-33.0566C73.4375-39.8926 80.6152-50.9277 80.6152-63.8184C80.6152-82.6172 65.4297-97.8027 46.5332-97.8027C27.5879-97.8027 12.4512-82.666 12.4512-63.8184C12.4512-50.5371 19.9219-38.623 31.8359-32.959L31.8359 12.3535C31.8359 14.3066 32.4707 16.6016 34.1797 18.0664ZM46.5332 14.4531L41.4062 9.375L41.4062-40.7715C30.9082-42.9199 22.9004-52.3926 22.9004-63.8184C22.9004-76.8066 33.4473-87.3047 46.5332-87.3047C59.5703-87.3047 70.0684-76.8066 70.0684-63.8184C70.0684-52.4902 62.0117-42.8711 49.9512-40.5273L49.9512-28.7598L58.8867-19.7266L49.5605-10.5469L49.5605-0.390625L55.4688 5.41992ZM46.5332-63.8672C51.123-63.8672 54.834-67.627 54.834-72.168C54.834-76.7578 51.123-80.4688 46.5332-80.4688C41.8945-80.4688 38.2324-76.8066 38.2324-72.168C38.2324-67.627 41.9434-63.8672 46.5332-63.8672Z"/>
  </g>
  <g id="Semibold-M" transform="matrix(1 0 0 1 1997.27 1126)">
   <path d="M41.9922 24.5605C44.4336 26.6113 47.7539 26.8555 50.0488 24.6094L65.0879 9.52148C67.3828 7.22656 67.2852 3.71094 65.0391 1.46484L58.2031-5.41992L68.5547-15.7715C70.752-18.0176 70.752-21.5332 68.5059-23.8281L59.1309-33.2031C72.2168-39.8926 79.541-50.8789 79.541-63.8184C79.541-82.3242 64.5996-97.3145 45.9961-97.3145C27.3438-97.3145 12.4512-82.4219 12.4512-63.8184C12.4512-50.6348 19.9219-38.7695 31.8359-33.3008L31.8359 12.3047C31.8359 14.1602 32.4219 16.2598 34.0332 17.627ZM45.9961 15.0879L40.7715 9.91211L40.7715-40.332C29.9316-42.627 21.9727-52.2949 21.9727-63.8184C21.9727-77.0508 32.666-87.7441 45.9961-87.7441C59.3262-87.7441 70.0195-77.0508 70.0195-63.8184C70.0195-52.3926 61.9629-42.627 49.8047-40.0879L49.8047-28.9551L58.9844-19.7266L49.2676-10.1562L49.2676-0.78125L55.5664 5.41992ZM45.9961-63.6719C50.6836-63.6719 54.541-67.5293 54.541-72.2168C54.541-76.9043 50.6836-80.7129 45.9961-80.7129C41.2598-80.7129 37.5-76.9531 37.5-72.2168C37.5-67.5293 41.3086-63.6719 45.9961-63.6719Z"/>
  </g>
  <g id="Medium-M" transform="matrix(1 0 0 1 1700.95 1126)">
   <path d="M41.8945 24.2676C44.1406 26.2207 47.2168 26.4648 49.3652 24.3164L64.4531 9.22852C66.5527 7.12891 66.4551 3.85742 64.4043 1.75781L57.2266-5.41992L67.8711-16.0645C69.9219-18.1152 69.9219-21.4355 67.8223-23.5352L58.1055-33.3008C71.3379-39.8926 78.7598-50.8789 78.7598-63.8184C78.7598-82.1289 63.9648-96.9238 45.6055-96.9238C27.1973-96.9238 12.4512-82.1777 12.4512-63.8184C12.4512-50.6836 19.9219-38.916 31.8359-33.5449L31.8359 12.2559C31.8359 14.0137 32.373 16.0156 33.8867 17.334ZM45.6055 15.5762L40.332 10.3027L40.332-39.9902C29.1992-42.4316 21.2402-52.1973 21.2402-63.8184C21.2402-77.2461 32.0801-88.0859 45.6055-88.0859C59.1309-88.0859 69.9219-77.2461 69.9219-63.8184C69.9219-52.2949 61.9141-42.3828 49.707-39.6973L49.707-29.1016L59.082-19.7266L49.0723-9.91211L49.0723-1.07422L55.6641 5.41992ZM45.6055-63.5254C50.3906-63.5254 54.2969-67.4316 54.2969-72.2168C54.2969-77.002 50.3906-80.9082 45.6055-80.9082C40.7715-80.9082 36.9141-77.0508 36.9141-72.2168C36.9141-67.4316 40.8203-63.5254 45.6055-63.5254Z"/>
  </g>
  <g id="Regular-M" transform="matrix(1 0 0 1 1404.75 1126)">
   <path d="M41.6992 23.9258C43.75 25.6348 46.5332 25.8789 48.4863 23.9746L63.5742 8.88672C65.4785 6.93359 65.3809 4.00391 63.5254 2.09961L55.957-5.41992L66.9922-16.4062C68.8965-18.2617 68.7988-21.2402 66.9434-23.1934L56.7383-33.4473C70.166-39.8926 77.7344-50.8301 77.7344-63.8184C77.7344-81.8359 63.1348-96.3867 45.1172-96.3867C26.9531-96.3867 12.4512-81.9336 12.4512-63.8184C12.4512-50.7324 19.9707-39.1113 31.8359-33.8867L31.8359 12.207C31.8359 13.8184 32.3242 15.6738 33.7402 16.9434ZM45.1172 16.2109L39.6973 10.8398L39.6973-39.5508C28.2227-42.1387 20.2637-52.0508 20.2637-63.8184C20.2637-77.4902 31.3477-88.5254 45.1172-88.5254C58.8379-88.5254 69.873-77.4902 69.873-63.8184C69.873-52.1484 61.8652-42.1387 49.6094-39.209L49.6094-29.3457L59.1797-19.7266L48.8281-9.52148L48.8281-1.41602L55.7617 5.41992ZM45.1172-63.3789C50-63.3789 53.9551-67.334 53.9551-72.2656C53.9551-77.1484 50-81.1035 45.1172-81.1035C40.1367-81.1035 36.2305-77.1973 36.2305-72.2656C36.2305-67.334 40.1855-63.3789 45.1172-63.3789Z"/>
  </g>
  <g id="Light-M" transform="matrix(1 0 0 1 1109.19 1126)">
   <path d="M41.4062 23.0957C42.9199 24.4141 45.0195 24.6094 46.5332 23.1445L61.5723 8.05664C63.0371 6.5918 62.9883 4.3457 61.5234 2.92969L53.1738-5.41992L65.0391-17.2363C66.4551-18.6523 66.4062-20.8984 64.9414-22.3633L53.5645-33.8379C67.5781-39.9414 75.4395-50.8301 75.4395-63.8184C75.4395-81.2012 61.377-95.2148 43.9453-95.2148C26.4648-95.2148 12.4512-81.25 12.4512-63.8184C12.4512-50.9766 19.9707-39.5508 31.8359-34.668L31.8359 11.8652C31.8359 13.1836 32.2266 14.7461 33.4473 15.7715ZM43.9453 17.1387L37.8906 11.084L37.8906-39.0137C26.416-41.8945 18.457-51.9043 18.457-63.8184C18.457-77.832 29.834-89.1602 43.9453-89.1602C58.0078-89.1602 69.3359-77.8809 69.3359-63.8184C69.3359-52.0508 61.377-41.8945 47.998-38.3789L47.998-30.6641L58.9355-19.7266L47.6562-8.59375L47.6562-2.34375L55.5176 5.41992ZM43.9453-63.7695C48.7305-63.7695 52.6367-67.627 52.6367-72.4121C52.6367-77.1973 48.7305-81.1035 43.9453-81.1035C39.1113-81.1035 35.2539-77.2461 35.2539-72.4121C35.2539-67.627 39.1602-63.7695 43.9453-63.7695Z"/>
  </g>
  <g id="Thin-M" transform="matrix(1 0 0 1 814.015 1126)">
   <path d="M40.9668 22.0215C41.8457 22.8516 43.0176 22.9492 43.8965 22.0215L58.9355 6.98242C59.8145 6.10352 59.8145 4.83398 58.9355 4.00391L49.4629-5.41992L62.4023-18.3105C63.2324-19.0918 63.1836-20.4102 62.3047-21.2891L49.3164-34.3262C64.1113-40.0879 72.3633-50.8301 72.3633-63.8184C72.3633-80.3711 58.9844-93.7012 42.3828-93.7012C25.7324-93.7012 12.4512-80.4199 12.4512-63.8184C12.4512-51.2207 20.0195-40.0879 31.8359-35.6934L31.8359 11.4258C31.8359 12.3535 32.1289 13.4277 33.0078 14.3066ZM42.3828 18.3105L35.498 11.4258L35.498-38.3789C23.9746-41.5527 16.0645-51.7578 16.0645-63.8184C16.0645-78.3203 27.7832-90.0391 42.3828-90.0391C56.9336-90.0391 68.6523-78.3691 68.6523-63.8184C68.6523-51.8555 60.7422-41.5527 45.8496-37.207L45.8496-32.4707L58.5938-19.7266L46.0938-7.37305L46.0938-3.56445L55.1758 5.41992ZM42.3828-64.2578C47.0215-64.2578 50.8301-68.0664 50.8301-72.6562C50.8301-77.2949 47.0215-81.1035 42.3828-81.1035C37.6953-81.1035 33.9844-77.3438 33.9844-72.6562C33.9844-68.0664 37.793-64.2578 42.3828-64.2578Z"/>
  </g>
  <g id="Ultralight-M" transform="matrix(1 0 0 1 518.085 1126)">
   <path d="M40.7227 21.4844C41.2598 22.0215 41.9922 22.0703 42.5781 21.4844L57.5684 6.44531C58.2031 5.85938 58.2031 5.07812 57.5684 4.54102L47.5586-5.41992L61.084-18.8477C61.6211-19.3359 61.5723-20.166 60.9375-20.752L47.168-34.6191C62.3535-40.1367 70.8008-50.8301 70.8008-63.8184C70.8008-79.9316 57.7637-92.9199 41.6016-92.9199C25.3906-92.9199 12.4512-79.9805 12.4512-63.8184C12.4512-51.3672 20.0684-40.3809 31.8359-36.2305L31.8359 11.2305C31.8359 11.9629 32.0801 12.793 32.8125 13.5254ZM41.6016 18.9453L34.2773 11.6211L34.2773-38.0371C22.7539-41.3574 14.8438-51.6602 14.8438-63.8184C14.8438-78.5156 26.7578-90.4297 41.6016-90.4297C56.3965-90.4297 68.3105-78.6133 68.3105-63.8184C68.3105-51.7578 60.4004-41.3574 44.7754-36.6699L44.7754-33.3984L58.4473-19.7266L45.3125-6.73828L45.3125-4.19922L55.0293 5.41992ZM41.6016-64.502C46.1426-64.502 49.9023-68.2617 49.9023-72.8027C49.9023-77.3438 46.1426-81.0547 41.6016-81.0547C37.0117-81.0547 33.3496-77.3926 33.3496-72.8027C33.3496-68.2617 37.0605-64.502 41.6016-64.502Z"/>
  </g>
  <g id="Black-S" transform="matrix(1 0 0 1 2895.85 696)">
   <path d="M33.3496 12.6465C35.9375 14.8438 39.4043 15.0391 41.748 12.6953L53.5645 0.878906C55.9082-1.46484 55.8594-5.12695 53.5156-7.51953L49.2188-11.8652L56.25-18.9453C58.5449-21.2891 58.5938-25 56.25-27.3438L50.3418-33.252C60.0098-38.8672 65.332-47.6074 65.332-57.6172C65.332-72.9492 52.9785-85.3516 37.5488-85.3516C22.0703-85.3516 9.76562-72.998 9.76562-57.6172C9.76562-47.0703 15.5762-37.5 24.9512-32.7637L24.9512 2.14844C24.9512 3.95508 25.5859 6.10352 27.0996 7.37305ZM37.5488 2.39258L33.7402-1.36719L33.7402-40.4785C26.2695-41.7969 19.9707-48.9746 19.9707-57.6172C19.9707-67.2852 27.832-75.0977 37.5488-75.0977C47.2656-75.0977 55.0781-67.2852 55.0781-57.6172C55.0781-49.0234 48.7305-41.748 39.4043-40.3809L39.4043-29.6875L45.8984-23.0957L39.4043-16.6992L39.4043-7.12891L43.2617-3.36914ZM37.5488-58.0078C40.918-58.0078 43.6523-60.791 43.6523-64.1113C43.6523-67.4805 40.918-70.2148 37.5488-70.2148C34.1797-70.2148 31.4453-67.5293 31.4453-64.1113C31.4453-60.791 34.1797-58.0078 37.5488-58.0078Z"/>
  </g>
  <g id="Heavy-S" transform="matrix(1 0 0 1 2599.53 696)">
   <path d="M33.252 12.3535C35.6445 14.4043 38.8672 14.5996 41.0645 12.4023L52.8809 0.585938C55.127-1.61133 55.0293-5.0293 52.832-7.22656L48.291-11.8652L55.5664-19.2383C57.7637-21.3867 57.7637-24.8535 55.5664-27.0508L49.3164-33.3496C59.1309-38.8672 64.5508-47.5586 64.5508-57.6172C64.5508-72.7539 52.3438-84.9609 37.1582-84.9609C21.9238-84.9609 9.76562-72.8027 9.76562-57.6172C9.76562-47.1191 15.5762-37.6465 24.9512-33.0078L24.9512 2.14844C24.9512 3.85742 25.5371 5.85938 27.002 7.08008ZM37.1582 2.92969L33.3496-0.878906L33.3496-40.0879C25.4883-41.5527 19.1895-48.877 19.1895-57.6172C19.1895-67.4805 27.2461-75.4883 37.1582-75.4883C47.0703-75.4883 55.0781-67.4805 55.0781-57.6172C55.0781-48.9258 48.7305-41.5039 39.4531-39.9902L39.4531-29.7363L46.0449-23.0957L39.2578-16.4062L39.2578-7.42188L43.4082-3.36914ZM37.1582-57.8125C40.6738-57.8125 43.5059-60.6445 43.5059-64.1113C43.5059-67.627 40.6738-70.459 37.1582-70.459C33.6426-70.459 30.8105-67.6758 30.8105-64.1113C30.8105-60.6445 33.6914-57.8125 37.1582-57.8125Z"/>
  </g>
  <g id="Bold-S" transform="matrix(1 0 0 1 2303.26 696)">
   <path d="M33.1055 12.0605C35.3027 13.9648 38.3301 14.1602 40.332 12.1094L52.1484 0.292969C54.1992-1.75781 54.1504-4.88281 52.0996-6.93359L47.2168-11.8652L54.834-19.5312C56.8359-21.5332 56.8359-24.707 54.834-26.7578L48.1445-33.4473C58.1055-38.8672 63.6719-47.5586 63.6719-57.6172C63.6719-72.5098 51.6602-84.5215 36.7188-84.5215C21.7285-84.5215 9.76562-72.5586 9.76562-57.6172C9.76562-47.168 15.625-37.793 24.9512-33.3008L24.9512 2.09961C24.9512 3.71094 25.4883 5.61523 26.8555 6.78711ZM36.7188 3.51562L32.8613-0.341797L32.8613-39.6484C24.6582-41.3086 18.3594-48.7305 18.3594-57.6172C18.3594-67.7246 26.5625-75.8789 36.7188-75.8789C46.875-75.8789 55.0293-67.7246 55.0293-57.6172C55.0293-48.7793 48.7305-41.2598 39.502-39.5996L39.502-29.834L46.1914-23.0957L39.1113-16.1133L39.1113-7.71484L43.5547-3.36914ZM36.7188-57.5684C40.332-57.5684 43.3105-60.498 43.3105-64.1113C43.3105-67.7734 40.332-70.7031 36.7188-70.7031C33.0566-70.7031 30.127-67.8223 30.127-64.1113C30.127-60.498 33.1055-57.5684 36.7188-57.5684Z"/>
  </g>
  <g id="Semibold-S" transform="matrix(1 0 0 1 2006.84 696)">
   <path d="M33.0078 11.8652C35.1074 13.623 37.8906 13.8184 39.8438 11.9141L51.6602 0.0976562C53.5645-1.85547 53.5156-4.83398 51.6113-6.73828L46.4844-11.8652L54.3457-19.7266C56.2012-21.6309 56.2012-24.6094 54.2969-26.5625L47.3633-33.5449C57.4219-38.8184 63.0859-47.5098 63.0859-57.6172C63.0859-72.3633 51.1719-84.2285 36.4258-84.2285C21.6309-84.2285 9.76562-72.4121 9.76562-57.6172C9.76562-47.2168 15.625-37.8906 24.9512-33.4961L24.9512 2.09961C24.9512 3.66211 25.4395 5.41992 26.7578 6.54297ZM36.4258 3.90625L32.5684 0.0488281L32.5684-39.3555C24.0234-41.1133 17.7734-48.6328 17.7734-57.6172C17.7734-67.8711 26.123-76.1719 36.4258-76.1719C46.7285-76.1719 55.0293-67.8711 55.0293-57.6172C55.0293-48.7305 48.7305-41.0645 39.5508-39.3066L39.5508-29.8828L46.2891-23.0957L39.0137-15.918L39.0137-7.91016L43.6523-3.36914ZM36.4258-57.373C40.1367-57.373 43.1641-60.4004 43.1641-64.1113C43.1641-67.8711 40.1367-70.8984 36.4258-70.8984C32.666-70.8984 29.6875-67.9199 29.6875-64.1113C29.6875-60.4004 32.7148-57.373 36.4258-57.373Z"/>
  </g>
  <g id="Medium-S" transform="matrix(1 0 0 1 1710.35 696)">
   <path d="M32.959 11.7188C34.9121 13.3789 37.5977 13.5742 39.4531 11.7676L51.2695-0.0488281C53.125-1.9043 53.0273-4.73633 51.2207-6.5918L45.9473-11.8652L53.9551-19.873C55.7617-21.6797 55.7129-24.5605 53.9062-26.416L46.7773-33.5938C56.9336-38.8184 62.6465-47.5098 62.6465-57.6172C62.6465-72.2168 50.8301-83.9844 36.1816-83.9844C21.5332-83.9844 9.76562-72.2656 9.76562-57.6172C9.76562-47.2656 15.625-37.9395 24.9512-33.6426L24.9512 2.09961C24.9512 3.61328 25.4395 5.32227 26.709 6.39648ZM36.1816 4.24805L32.3242 0.341797L32.3242-39.1113C23.584-40.9668 17.334-48.5352 17.334-57.6172C17.334-68.0176 25.7324-76.3672 36.1816-76.3672C46.6309-76.3672 55.0293-68.0176 55.0293-57.6172C55.0293-48.6328 48.7305-40.9668 39.5996-39.0625L39.5996-29.8828L46.3867-23.0957L38.916-15.7227L38.916-8.10547L43.7012-3.36914ZM36.1816-57.2754C39.9902-57.2754 43.0664-60.3516 43.0664-64.1113C43.0664-67.9199 39.9902-70.9961 36.1816-70.9961C32.373-70.9961 29.2969-67.9688 29.2969-64.1113C29.2969-60.3516 32.4219-57.2754 36.1816-57.2754Z"/>
  </g>
  <g id="Regular-S" transform="matrix(1 0 0 1 1413.93 696)">
   <path d="M32.8613 11.4746C34.668 13.0371 37.207 13.2812 38.9648 11.5234L50.7812-0.292969C52.4902-2.00195 52.3926-4.6875 50.7324-6.34766L45.2148-11.8652L53.4668-20.1172C55.127-21.7773 55.0781-24.4629 53.418-26.1719L45.9961-33.6426C56.25-38.8184 62.0605-47.4609 62.0605-57.6172C62.0605-72.0703 50.3418-83.6914 35.8887-83.6914C21.3867-83.6914 9.76562-72.1191 9.76562-57.6172C9.76562-47.3145 15.625-38.0371 24.9512-33.7891L24.9512 2.09961C24.9512 3.51562 25.3906 5.12695 26.6113 6.15234ZM35.8887 4.63867L31.9824 0.732422L31.9824-38.8184C22.998-40.7715 16.748-48.4863 16.748-57.6172C16.748-68.1641 25.293-76.6602 35.8887-76.6602C46.4844-76.6602 54.9805-68.1641 54.9805-57.6172C54.9805-48.584 48.6816-40.7715 39.6484-38.7695L39.6484-29.9316L46.4844-23.0957L38.8184-15.5273L38.8184-8.30078L43.7988-3.36914ZM35.8887-57.0801C39.7949-57.0801 42.9688-60.2539 42.9688-64.1602C42.9688-68.0176 39.7949-71.1914 35.8887-71.1914C31.9824-71.1914 28.8574-68.0664 28.8574-64.1602C28.8574-60.2539 32.0312-57.0801 35.8887-57.0801Z"/>
  </g>
  <g id="Light-S" transform="matrix(1 0 0 1 1118.25 696)">
   <path d="M32.5684 10.791C33.9355 11.9629 35.8887 12.1582 37.207 10.791L49.0234-0.976562C50.3418-2.34375 50.293-4.3457 48.9746-5.66406L42.7246-11.8652L51.709-20.8008C52.9785-22.0703 52.9297-24.1211 51.6602-25.4883L43.1641-33.9844C53.9551-38.916 60.0098-47.4609 60.0098-57.6172C60.0098-71.4844 48.7793-82.666 34.8633-82.666C20.9473-82.666 9.76562-71.5332 9.76562-57.6172C9.76562-47.4609 15.6738-38.4277 24.9512-34.5215L24.9512 1.80664C24.9512 2.97852 25.293 4.29688 26.3184 5.17578ZM34.8633 5.41992L30.4199 0.976562L30.4199-38.3789C21.3867-40.5273 15.1855-48.3398 15.1855-57.6172C15.1855-68.457 23.9746-77.2461 34.8633-77.2461C45.8008-77.2461 54.541-68.5059 54.541-57.6172C54.541-48.4375 48.291-40.5273 38.2324-38.0371L38.2324-31.1523L46.2891-23.0957L37.793-14.6973L37.793-9.13086L43.6035-3.36914ZM34.8633-57.4219C38.6719-57.4219 41.748-60.498 41.748-64.3066C41.748-68.0664 38.6719-71.1914 34.8633-71.1914C31.0547-71.1914 28.0273-68.1152 28.0273-64.3066C28.0273-60.498 31.1035-57.4219 34.8633-57.4219Z"/>
  </g>
  <g id="Thin-S" transform="matrix(1 0 0 1 822.902 696)">
   <path d="M32.1777 9.81445C33.0078 10.5469 34.082 10.6445 34.9121 9.86328L46.6797-1.95312C47.5098-2.73438 47.4609-3.95508 46.6797-4.6875L39.4531-11.8652L49.4141-21.7773C50.1953-22.5098 50.1465-23.7305 49.3164-24.5117L39.4531-34.4238C50.8789-39.0137 57.2754-47.4609 57.2754-57.6172C57.2754-70.752 46.6797-81.3477 33.5449-81.3477C20.3125-81.3477 9.76562-70.8008 9.76562-57.6172C9.76562-47.7051 15.6738-38.916 24.9512-35.4004L24.9512 1.41602C24.9512 2.24609 25.1953 3.17383 25.9766 3.85742ZM33.5449 6.49414L28.2715 1.26953L28.2715-37.8418C19.2871-40.2344 13.0371-48.1934 13.0371-57.6172C13.0371-68.8965 22.168-77.9785 33.5449-77.9785C44.8242-77.9785 53.9551-68.8965 53.9551-57.6172C53.9551-48.291 47.7051-40.2344 36.3281-37.0117L36.3281-32.7148L45.9961-23.0957L36.4258-13.623L36.4258-10.2051L43.3105-3.36914ZM33.5449-57.8613C37.1582-57.8613 40.1855-60.8398 40.1855-64.502C40.1855-68.1641 37.1582-71.1426 33.5449-71.1426C29.834-71.1426 26.9043-68.2129 26.9043-64.502C26.9043-60.8398 29.8828-57.8613 33.5449-57.8613Z"/>
  </g>
  <g id="Ultralight-S" transform="matrix(1 0 0 1 526.874 696)">
   <path d="M31.9824 9.32617C32.4707 9.81445 33.1543 9.91211 33.7402 9.32617L45.5078-2.44141C46.0449-2.97852 46.0449-3.71094 45.5078-4.19922L37.793-11.8652L48.2422-22.2656C48.7305-22.7051 48.6816-23.4863 48.1445-24.0234L37.5488-34.668C49.3164-39.0625 55.9082-47.4609 55.9082-57.6172C55.9082-70.3613 45.6055-80.6152 32.8125-80.6152C19.9707-80.6152 9.76562-70.4102 9.76562-57.6172C9.76562-47.8027 15.7227-39.209 24.9512-35.8887L24.9512 1.2207C24.9512 1.85547 25.1465 2.58789 25.7812 3.17383ZM32.8125 7.03125L27.1973 1.41602L27.1973-37.5C18.1641-40.0879 11.9629-48.0957 11.9629-57.6172C11.9629-69.0918 21.2402-78.3691 32.8125-78.3691C44.3359-78.3691 53.6133-69.1406 53.6133-57.6172C53.6133-48.1934 47.4121-40.0879 35.4004-36.4746L35.4004-33.5449L45.8496-23.0957L35.6934-13.0859L35.6934-10.7422L43.1641-3.36914ZM32.8125-58.1055C36.4258-58.1055 39.3555-61.0352 39.3555-64.5996C39.3555-68.2129 36.4258-71.1426 32.8125-71.1426C29.1992-71.1426 26.3184-68.2617 26.3184-64.5996C26.3184-61.0352 29.248-58.1055 32.8125-58.1055Z"/>
  </g>
 </g>
</svg>
