<?xml version="1.0" encoding="UTF-8"?>
<!--Generator: Apple Native CoreSVG 149-->
<!DOCTYPE svg
PUBLIC "-//W3C//DTD SVG 1.1//EN"
       "http://www.w3.org/Graphics/SVG/1.1/DTD/svg11.dtd">
<svg version="1.1" xmlns="http://www.w3.org/2000/svg" xmlns:xlink="http://www.w3.org/1999/xlink" width="3300" height="2200">
 <!--glyph: "uni10049A.medium", point size: 100.0, font version: "17.0d8e1", template writer version: "58"-->
 <style>.multicolor-0:tintColor {fill:#007AFF;opacity:1.0}
.multicolor-1:white {fill:#FFFFFF;opacity:1.0}

.hierarchical-0:tertiary {fill:#8E8E8E}
.hierarchical-1:primary {fill:#212121}

.SFSymbolsPreview007AFF {fill:#007AFF;opacity:1.0}
.SFSymbolsPreviewFFFFFF {fill:#FFFFFF;opacity:1.0}
</style>
 <g id="Notes">
  <rect height="2200" id="artboard" style="fill:white;opacity:1" width="3300" x="0" y="0"/>
  <line style="fill:none;stroke:black;opacity:1;stroke-width:0.5;" x1="263" x2="3036" y1="292" y2="292"/>
  <text style="stroke:none;fill:black;font-family:SF Pro,SF Pro Display,SF Pro Text,sans-serif;font-size:13;font-weight:bold;" transform="matrix(1 0 0 1 263 322)">Weight/Scale Variations</text>
  <text style="stroke:none;fill:black;font-family:SF Pro,SF Pro Display,SF Pro Text,sans-serif;font-size:13;text-anchor:middle;" transform="matrix(1 0 0 1 559.711 322)">Ultralight</text>
  <text style="stroke:none;fill:black;font-family:SF Pro,SF Pro Display,SF Pro Text,sans-serif;font-size:13;text-anchor:middle;" transform="matrix(1 0 0 1 856.422 322)">Thin</text>
  <text style="stroke:none;fill:black;font-family:SF Pro,SF Pro Display,SF Pro Text,sans-serif;font-size:13;text-anchor:middle;" transform="matrix(1 0 0 1 1153.13 322)">Light</text>
  <text style="stroke:none;fill:black;font-family:SF Pro,SF Pro Display,SF Pro Text,sans-serif;font-size:13;text-anchor:middle;" transform="matrix(1 0 0 1 1449.84 322)">Regular</text>
  <text style="stroke:none;fill:black;font-family:SF Pro,SF Pro Display,SF Pro Text,sans-serif;font-size:13;text-anchor:middle;" transform="matrix(1 0 0 1 1746.56 322)">Medium</text>
  <text style="stroke:none;fill:black;font-family:SF Pro,SF Pro Display,SF Pro Text,sans-serif;font-size:13;text-anchor:middle;" transform="matrix(1 0 0 1 2043.27 322)">Semibold</text>
  <text style="stroke:none;fill:black;font-family:SF Pro,SF Pro Display,SF Pro Text,sans-serif;font-size:13;text-anchor:middle;" transform="matrix(1 0 0 1 2339.98 322)">Bold</text>
  <text style="stroke:none;fill:black;font-family:SF Pro,SF Pro Display,SF Pro Text,sans-serif;font-size:13;text-anchor:middle;" transform="matrix(1 0 0 1 2636.69 322)">Heavy</text>
  <text style="stroke:none;fill:black;font-family:SF Pro,SF Pro Display,SF Pro Text,sans-serif;font-size:13;text-anchor:middle;" transform="matrix(1 0 0 1 2933.4 322)">Black</text>
  <line style="fill:none;stroke:black;opacity:1;stroke-width:0.5;" x1="263" x2="3036" y1="1903" y2="1903"/>
  <g transform="matrix(1 0 0 1 263 1933)">
   <path d="M9.24805 0.830078Q10.8691 0.830078 12.2949 0.214844Q13.7207-0.400391 14.8096-1.49414Q15.8984-2.58789 16.5186-4.01367Q17.1387-5.43945 17.1387-7.05078Q17.1387-8.66211 16.5186-10.0879Q15.8984-11.5137 14.8047-12.6074Q13.7109-13.7012 12.2852-14.3164Q10.8594-14.9316 9.23828-14.9316Q7.62695-14.9316 6.20117-14.3164Q4.77539-13.7012 3.69141-12.6074Q2.60742-11.5137 1.9873-10.0879Q1.36719-8.66211 1.36719-7.05078Q1.36719-5.43945 1.9873-4.01367Q2.60742-2.58789 3.69629-1.49414Q4.78516-0.400391 6.21094 0.214844Q7.63672 0.830078 9.24805 0.830078ZM9.24805-0.654297Q7.91992-0.654297 6.7627-1.14746Q5.60547-1.64062 4.73145-2.51953Q3.85742-3.39844 3.36426-4.56055Q2.87109-5.72266 2.87109-7.05078Q2.87109-8.37891 3.35938-9.54102Q3.84766-10.7031 4.72168-11.582Q5.5957-12.4609 6.75293-12.9541Q7.91016-13.4473 9.23828-13.4473Q10.5762-13.4473 11.7334-12.9541Q12.8906-12.4609 13.7695-11.582Q14.6484-10.7031 15.1465-9.54102Q15.6445-8.37891 15.6445-7.05078Q15.6445-5.72266 15.1514-4.56055Q14.6582-3.39844 13.7842-2.51953Q12.9102-1.64062 11.748-1.14746Q10.5859-0.654297 9.24805-0.654297ZM5.83984-7.04102Q5.83984-6.71875 6.04492-6.51855Q6.25-6.31836 6.5918-6.31836L8.50586-6.31836L8.50586-4.39453Q8.50586-4.0625 8.70605-3.85742Q8.90625-3.65234 9.22852-3.65234Q9.56055-3.65234 9.76562-3.85742Q9.9707-4.0625 9.9707-4.39453L9.9707-6.31836L11.8945-6.31836Q12.2266-6.31836 12.4316-6.51855Q12.6367-6.71875 12.6367-7.04102Q12.6367-7.37305 12.4316-7.57812Q12.2266-7.7832 11.8945-7.7832L9.9707-7.7832L9.9707-9.69727Q9.9707-10.0391 9.76562-10.2441Q9.56055-10.4492 9.22852-10.4492Q8.90625-10.4492 8.70605-10.2441Q8.50586-10.0391 8.50586-9.69727L8.50586-7.7832L6.5918-7.7832Q6.25-7.7832 6.04492-7.57812Q5.83984-7.37305 5.83984-7.04102Z"/>
  </g>
  <g transform="matrix(1 0 0 1 281.867 1933)">
   <path d="M11.709 2.91016Q13.75 2.91016 15.5518 2.12891Q17.3535 1.34766 18.7305-0.0292969Q20.1074-1.40625 20.8887-3.20801Q21.6699-5.00977 21.6699-7.05078Q21.6699-9.0918 20.8887-10.8936Q20.1074-12.6953 18.7305-14.0723Q17.3535-15.4492 15.5469-16.2305Q13.7402-17.0117 11.6992-17.0117Q9.6582-17.0117 7.85645-16.2305Q6.05469-15.4492 4.68262-14.0723Q3.31055-12.6953 2.5293-10.8936Q1.74805-9.0918 1.74805-7.05078Q1.74805-5.00977 2.5293-3.20801Q3.31055-1.40625 4.6875-0.0292969Q6.06445 1.34766 7.86621 2.12891Q9.66797 2.91016 11.709 2.91016ZM11.709 1.25Q9.98047 1.25 8.47656 0.605469Q6.97266-0.0390625 5.83496-1.17676Q4.69727-2.31445 4.05762-3.81836Q3.41797-5.32227 3.41797-7.05078Q3.41797-8.7793 4.05762-10.2832Q4.69727-11.7871 5.83008-12.9297Q6.96289-14.0723 8.4668-14.7119Q9.9707-15.3516 11.6992-15.3516Q13.4277-15.3516 14.9316-14.7119Q16.4355-14.0723 17.5781-12.9297Q18.7207-11.7871 19.3652-10.2832Q20.0098-8.7793 20.0098-7.05078Q20.0098-5.32227 19.3701-3.81836Q18.7305-2.31445 17.5928-1.17676Q16.4551-0.0390625 14.9463 0.605469Q13.4375 1.25 11.709 1.25ZM7.39258-7.04102Q7.39258-6.68945 7.62695-6.46484Q7.86133-6.24023 8.23242-6.24023L10.8789-6.24023L10.8789-3.57422Q10.8789-3.21289 11.1035-2.9834Q11.3281-2.75391 11.6797-2.75391Q12.0508-2.75391 12.2852-2.9834Q12.5195-3.21289 12.5195-3.57422L12.5195-6.24023L15.1758-6.24023Q15.5371-6.24023 15.7715-6.46484Q16.0059-6.68945 16.0059-7.04102Q16.0059-7.41211 15.7715-7.6416Q15.5371-7.87109 15.1758-7.87109L12.5195-7.87109L12.5195-10.5176Q12.5195-10.8984 12.2852-11.1279Q12.0508-11.3574 11.6797-11.3574Q11.3281-11.3574 11.1035-11.1279Q10.8789-10.8984 10.8789-10.5176L10.8789-7.87109L8.23242-7.87109Q7.85156-7.87109 7.62207-7.6416Q7.39258-7.41211 7.39258-7.04102Z"/>
  </g>
  <g transform="matrix(1 0 0 1 305.646 1933)">
   <path d="M14.9707 5.66406Q17.0605 5.66406 18.96 5.01465Q20.8594 4.36523 22.4512 3.19336Q24.043 2.02148 25.2197 0.429688Q26.3965-1.16211 27.0459-3.06641Q27.6953-4.9707 27.6953-7.05078Q27.6953-9.14062 27.0459-11.04Q26.3965-12.9395 25.2197-14.5312Q24.043-16.123 22.4512-17.2998Q20.8594-18.4766 18.9551-19.126Q17.0508-19.7754 14.9609-19.7754Q12.8711-19.7754 10.9717-19.126Q9.07227-18.4766 7.48535-17.2998Q5.89844-16.123 4.72168-14.5312Q3.54492-12.9395 2.90039-11.04Q2.25586-9.14062 2.25586-7.05078Q2.25586-4.9707 2.90527-3.06641Q3.55469-1.16211 4.72656 0.429688Q5.89844 2.02148 7.49023 3.19336Q9.08203 4.36523 10.9814 5.01465Q12.8809 5.66406 14.9707 5.66406ZM14.9707 3.84766Q13.1641 3.84766 11.5283 3.2959Q9.89258 2.74414 8.53516 1.74805Q7.17773 0.751953 6.17676-0.610352Q5.17578-1.97266 4.62891-3.6084Q4.08203-5.24414 4.08203-7.05078Q4.08203-8.86719 4.62891-10.5029Q5.17578-12.1387 6.17188-13.501Q7.16797-14.8633 8.52539-15.8594Q9.88281-16.8555 11.5186-17.4023Q13.1543-17.9492 14.9609-17.9492Q16.7773-17.9492 18.4131-17.4023Q20.0488-16.8555 21.4111-15.8594Q22.7734-14.8633 23.7695-13.501Q24.7656-12.1387 25.3174-10.5029Q25.8691-8.86719 25.8691-7.05078Q25.8789-5.24414 25.332-3.6084Q24.7852-1.97266 23.7842-0.610352Q22.7832 0.751953 21.4209 1.74805Q20.0586 2.74414 18.4229 3.2959Q16.7871 3.84766 14.9707 3.84766ZM9.45312-7.04102Q9.45312-6.66016 9.71191-6.41113Q9.9707-6.16211 10.3711-6.16211L14.0625-6.16211L14.0625-2.46094Q14.0625-2.06055 14.3115-1.80664Q14.5605-1.55273 14.9414-1.55273Q15.3516-1.55273 15.6055-1.80664Q15.8594-2.06055 15.8594-2.46094L15.8594-6.16211L19.5605-6.16211Q19.9609-6.16211 20.2148-6.41113Q20.4688-6.66016 20.4688-7.04102Q20.4688-7.45117 20.2148-7.70508Q19.9609-7.95898 19.5605-7.95898L15.8594-7.95898L15.8594-11.6504Q15.8594-12.0605 15.6055-12.3145Q15.3516-12.5684 14.9414-12.5684Q14.5605-12.5684 14.3115-12.3096Q14.0625-12.0508 14.0625-11.6504L14.0625-7.95898L10.3711-7.95898Q9.96094-7.95898 9.70703-7.70508Q9.45312-7.45117 9.45312-7.04102Z"/>
  </g>
  <text style="stroke:none;fill:black;font-family:SF Pro,SF Pro Display,SF Pro Text,sans-serif;font-size:13;font-weight:bold;" transform="matrix(1 0 0 1 263 1953)">Design Variations</text>
  <text style="stroke:none;fill:black;font-family:SF Pro,SF Pro Display,SF Pro Text,sans-serif;font-size:13;" transform="matrix(1 0 0 1 263 1971)">Symbols are supported in up to nine weights and three scales.</text>
  <text style="stroke:none;fill:black;font-family:SF Pro,SF Pro Display,SF Pro Text,sans-serif;font-size:13;" transform="matrix(1 0 0 1 263 1989)">For optimal layout with text and other symbols, vertically align</text>
  <text style="stroke:none;fill:black;font-family:SF Pro,SF Pro Display,SF Pro Text,sans-serif;font-size:13;" transform="matrix(1 0 0 1 263 2007)">symbols with the adjacent text.</text>
  <line style="fill:none;stroke:#00AEEF;stroke-width:0.5;opacity:1.0;" x1="776" x2="776" y1="1919" y2="1933"/>
  <g transform="matrix(1 0 0 1 776 1933)">
   <path d="M3.31055 0.15625Q3.70117 0.15625 3.91602-0.00976562Q4.13086-0.175781 4.26758-0.585938L5.52734-4.0332L11.2891-4.0332L12.5488-0.585938Q12.6855-0.175781 12.9004-0.00976562Q13.1152 0.15625 13.4961 0.15625Q13.8867 0.15625 14.1162-0.0585938Q14.3457-0.273438 14.3457-0.644531Q14.3457-0.869141 14.2383-1.17188L9.6582-13.3691Q9.48242-13.8184 9.17969-14.043Q8.87695-14.2676 8.4082-14.2676Q7.5-14.2676 7.17773-13.3789L2.59766-1.16211Q2.49023-0.859375 2.49023-0.634766Q2.49023-0.263672 2.70996-0.0537109Q2.92969 0.15625 3.31055 0.15625ZM6.00586-5.51758L8.37891-12.0898L8.42773-12.0898L10.8008-5.51758Z"/>
  </g>
  <line style="fill:none;stroke:#00AEEF;stroke-width:0.5;opacity:1.0;" x1="793.197" x2="793.197" y1="1919" y2="1933"/>
  <text style="stroke:none;fill:black;font-family:SF Pro,SF Pro Display,SF Pro Text,sans-serif;font-size:13;font-weight:bold;" transform="matrix(1 0 0 1 776 1953)">Margins</text>
  <text style="stroke:none;fill:black;font-family:SF Pro,SF Pro Display,SF Pro Text,sans-serif;font-size:13;" transform="matrix(1 0 0 1 776 1971)">Leading and trailing margins on the left and right side of each symbol</text>
  <text style="stroke:none;fill:black;font-family:SF Pro,SF Pro Display,SF Pro Text,sans-serif;font-size:13;" transform="matrix(1 0 0 1 776 1989)">can be adjusted by modifying the x-location of the margin guidelines.</text>
  <text style="stroke:none;fill:black;font-family:SF Pro,SF Pro Display,SF Pro Text,sans-serif;font-size:13;" transform="matrix(1 0 0 1 776 2007)">Modifications are automatically applied proportionally to all</text>
  <text style="stroke:none;fill:black;font-family:SF Pro,SF Pro Display,SF Pro Text,sans-serif;font-size:13;" transform="matrix(1 0 0 1 776 2025)">scales and weights.</text>
  <g transform="matrix(1 0 0 1 1289 1933)">
   <path d="M2.8418 1.86523L4.54102 3.57422Q5.18555 4.22852 5.90332 4.17969Q6.62109 4.13086 7.31445 3.35938L18.0078-8.42773L17.041-9.4043L6.42578 2.27539Q6.16211 2.57812 5.89355 2.61719Q5.625 2.65625 5.27344 2.30469L4.10156 1.14258Q3.75 0.791016 3.79395 0.522461Q3.83789 0.253906 4.14062-0.0195312L15.6152-10.8203L14.6387-11.7871L3.04688-0.898438Q2.30469-0.214844 2.25098 0.498047Q2.19727 1.21094 2.8418 1.86523ZM9.25781-16.3281Q8.94531-16.0254 8.90625-15.6348Q8.86719-15.2441 9.04297-14.9512Q9.21875-14.6777 9.55566-14.541Q9.89258-14.4043 10.3809-14.5215Q11.4746-14.7754 12.5977-14.7314Q13.7207-14.6875 14.7949-13.9844L14.209-12.5293Q13.9551-11.9043 14.0674-11.4404Q14.1797-10.9766 14.5801-10.5664L16.875-8.25195Q17.2363-7.88086 17.5781-7.82227Q17.9199-7.76367 18.3398-7.8418L19.4043-8.03711L20.0684-7.36328L20.0293-6.80664Q20-6.43555 20.1221-6.12305Q20.2441-5.81055 20.6055-5.44922L21.3672-4.70703Q21.7285-4.3457 22.1533-4.33105Q22.5781-4.31641 22.9297-4.66797L25.8398-7.58789Q26.1914-7.93945 26.1816-8.35449Q26.1719-8.76953 25.8105-9.13086L25.0391-9.89258Q24.6875-10.2539 24.3799-10.3857Q24.0723-10.5176 23.7109-10.4883L23.1348-10.4395L22.4902-11.0742L22.7344-12.1973Q22.832-12.6172 22.6953-12.9834Q22.5586-13.3496 22.1191-13.7891L19.9219-15.9766Q18.6719-17.2168 17.2607-17.8369Q15.8496-18.457 14.4189-18.4814Q12.9883-18.5059 11.665-17.959Q10.3418-17.4121 9.25781-16.3281ZM10.752-15.957Q11.6602-16.6211 12.7002-16.9043Q13.7402-17.1875 14.8047-17.085Q15.8691-16.9824 16.8701-16.5137Q17.8711-16.0449 18.7012-15.2051L21.1328-12.793Q21.3086-12.6172 21.3525-12.4512Q21.3965-12.2852 21.3379-12.0312L21.0156-10.5469L22.5195-9.0625L23.5059-9.12109Q23.6914-9.13086 23.7891-9.09668Q23.8867-9.0625 24.0332-8.91602L24.6094-8.33984L22.168-5.89844L21.5918-6.47461Q21.4453-6.62109 21.4062-6.71875Q21.3672-6.81641 21.377-7.01172L21.4453-7.98828L19.9512-9.47266L18.4277-9.21875Q18.1836-9.16992 18.042-9.2041Q17.9004-9.23828 17.7148-9.41406L15.7129-11.416Q15.5176-11.5918 15.4932-11.7529Q15.4688-11.9141 15.5859-12.1875L16.4648-14.2773Q15.293-15.3711 13.8281-15.791Q12.3633-16.2109 10.8398-15.7617Q10.7227-15.7324 10.6885-15.8057Q10.6543-15.8789 10.752-15.957Z"/>
  </g>
  <text style="stroke:none;fill:black;font-family:SF Pro,SF Pro Display,SF Pro Text,sans-serif;font-size:13;font-weight:bold;" transform="matrix(1 0 0 1 1289 1953)">Exporting</text>
  <text style="stroke:none;fill:black;font-family:SF Pro,SF Pro Display,SF Pro Text,sans-serif;font-size:13;" transform="matrix(1 0 0 1 1289 1971)">Symbols should be outlined when exporting to ensure the</text>
  <text style="stroke:none;fill:black;font-family:SF Pro,SF Pro Display,SF Pro Text,sans-serif;font-size:13;" transform="matrix(1 0 0 1 1289 1989)">design is preserved when submitting to Xcode.</text>
  <text id="template-version" style="stroke:none;fill:black;font-family:SF Pro,SF Pro Display,SF Pro Text,sans-serif;font-size:13;text-anchor:end;" transform="matrix(1 0 0 1 3036 1933)">Template v.3.0</text>
  <text style="stroke:none;fill:black;font-family:SF Pro,SF Pro Display,SF Pro Text,sans-serif;font-size:13;text-anchor:end;" transform="matrix(1 0 0 1 3036 1951)">Requires Xcode 13 or greater</text>
  <text id="descriptive-name" style="stroke:none;fill:black;font-family:SF Pro,SF Pro Display,SF Pro Text,sans-serif;font-size:13;text-anchor:end;" transform="matrix(1 0 0 1 3036 1969)">Generated from bolt.horizontal.circle.fill</text>
  <text style="stroke:none;fill:black;font-family:SF Pro,SF Pro Display,SF Pro Text,sans-serif;font-size:13;text-anchor:end;" transform="matrix(1 0 0 1 3036 1987)">Typeset at 100 points</text>
  <text style="stroke:none;fill:black;font-family:SF Pro,SF Pro Display,SF Pro Text,sans-serif;font-size:13;" transform="matrix(1 0 0 1 263 726)">Small</text>
  <text style="stroke:none;fill:black;font-family:SF Pro,SF Pro Display,SF Pro Text,sans-serif;font-size:13;" transform="matrix(1 0 0 1 263 1156)">Medium</text>
  <text style="stroke:none;fill:black;font-family:SF Pro,SF Pro Display,SF Pro Text,sans-serif;font-size:13;" transform="matrix(1 0 0 1 263 1586)">Large</text>
 </g>
 <g id="Guides">
  <g id="H-reference" style="fill:#27AAE1;stroke:none;" transform="matrix(1 0 0 1 339 696)">
   <path d="M0.976562 0L3.66211 0L29.3457-67.1387L30.0293-67.1387L30.0293-70.459L28.125-70.459ZM11.6699-24.4629L46.9727-24.4629L46.2402-26.709L12.4512-26.709ZM55.127 0L57.7637 0L30.6152-70.459L29.4434-70.459L29.4434-67.1387Z"/>
  </g>
  <line id="Baseline-S" style="fill:none;stroke:#27AAE1;opacity:1;stroke-width:0.5;" x1="263" x2="3036" y1="696" y2="696"/>
  <line id="Capline-S" style="fill:none;stroke:#27AAE1;opacity:1;stroke-width:0.5;" x1="263" x2="3036" y1="625.541" y2="625.541"/>
  <g id="H-reference" style="fill:#27AAE1;stroke:none;" transform="matrix(1 0 0 1 339 1126)">
   <path d="M0.976562 0L3.66211 0L29.3457-67.1387L30.0293-67.1387L30.0293-70.459L28.125-70.459ZM11.6699-24.4629L46.9727-24.4629L46.2402-26.709L12.4512-26.709ZM55.127 0L57.7637 0L30.6152-70.459L29.4434-70.459L29.4434-67.1387Z"/>
  </g>
  <line id="Baseline-M" style="fill:none;stroke:#27AAE1;opacity:1;stroke-width:0.5;" x1="263" x2="3036" y1="1126" y2="1126"/>
  <line id="Capline-M" style="fill:none;stroke:#27AAE1;opacity:1;stroke-width:0.5;" x1="263" x2="3036" y1="1055.54" y2="1055.54"/>
  <g id="H-reference" style="fill:#27AAE1;stroke:none;" transform="matrix(1 0 0 1 339 1556)">
   <path d="M0.976562 0L3.66211 0L29.3457-67.1387L30.0293-67.1387L30.0293-70.459L28.125-70.459ZM11.6699-24.4629L46.9727-24.4629L46.2402-26.709L12.4512-26.709ZM55.127 0L57.7637 0L30.6152-70.459L29.4434-70.459L29.4434-67.1387Z"/>
  </g>
  <line id="Baseline-L" style="fill:none;stroke:#27AAE1;opacity:1;stroke-width:0.5;" x1="263" x2="3036" y1="1556" y2="1556"/>
  <line id="Capline-L" style="fill:none;stroke:#27AAE1;opacity:1;stroke-width:0.5;" x1="263" x2="3036" y1="1485.54" y2="1485.54"/>
  <line id="left-margin-Regular-M" style="fill:none;stroke:#00AEEF;stroke-width:0.5;opacity:1.0;" x1="1391.3" x2="1391.3" y1="1030.79" y2="1150.12"/>
  <line id="right-margin-Regular-M" style="fill:none;stroke:#00AEEF;stroke-width:0.5;opacity:1.0;" x1="1508.39" x2="1508.39" y1="1030.79" y2="1150.12"/>
 </g>
 <g id="Symbols">
  <g id="Black-L" transform="matrix(1 0 0 1 2854.05 1556)">
   <path class="multicolor-0:tintColor hierarchical-0:tertiary SFSymbolsPreview007AFF" d="M79.3457 32.959Q90.5762 32.959 100.757 29.4922Q110.938 26.0254 119.458 19.7754Q127.979 13.5254 134.229 5.00488Q140.479-3.51562 143.945-13.6963Q147.412-23.877 147.412-35.1074Q147.412-46.3379 143.945-56.5186Q140.479-66.6992 134.204-75.2197Q127.93-83.7402 119.434-90.0146Q110.938-96.2891 100.732-99.7314Q90.5273-103.174 79.2969-103.174Q68.1152-103.174 57.9102-99.7314Q47.7051-96.2891 39.209-90.0146Q30.7129-83.7402 24.4385-75.2197Q18.1641-66.6992 14.7217-56.5186Q11.2793-46.3379 11.2793-35.1074Q11.2793-23.877 14.7217-13.6963Q18.1641-3.51562 24.4385 5.00488Q30.7129 13.5254 39.2334 19.7754Q47.7539 26.0254 57.9346 29.4922Q68.1152 32.959 79.3457 32.959Z"/>
   <path class="multicolor-1:white hierarchical-1:primary SFSymbolsPreviewFFFFFF" d="M39.9414-26.6602L59.6191-51.1719Q62.4512-54.7363 65.918-54.7363Q67.1387-54.7363 68.2861-54.3457Q69.4336-53.9551 70.7031-53.2227L92.4805-41.0156L112.305-50.9766Q115.332-52.4414 117.578-51.3672Q119.824-50.293 120.361-47.8271Q120.898-45.3613 118.848-42.8223L99.1211-18.2617Q96.1914-14.6973 92.7734-14.6973Q90.3809-14.6973 87.9883-16.1621L66.2109-28.4668L46.4355-18.457Q43.4082-16.9434 41.1377-18.042Q38.8672-19.1406 38.3301-21.582Q37.793-24.0234 39.9414-26.6602Z"/>
  </g>
  <g id="Heavy-L" transform="matrix(1 0 0 1 2558.39 1556)">
   <path class="multicolor-0:tintColor hierarchical-0:tertiary SFSymbolsPreview007AFF" d="M78.2715 31.8848Q89.3555 31.8848 99.3652 28.4668Q109.375 25.0488 117.749 18.8965Q126.123 12.7441 132.3 4.3457Q138.477-4.05273 141.895-14.0625Q145.312-24.0723 145.312-35.1074Q145.312-46.1426 141.895-56.1768Q138.477-66.2109 132.3-74.585Q126.123-82.959 117.749-89.1602Q109.375-95.3613 99.3408-98.7549Q89.3066-102.148 78.2227-102.148Q67.2363-102.148 57.2021-98.7549Q47.168-95.3613 38.7939-89.1602Q30.4199-82.959 24.2432-74.585Q18.0664-66.2109 14.6729-56.1768Q11.2793-46.1426 11.2793-35.1074Q11.2793-24.0723 14.6729-14.0625Q18.0664-4.05273 24.2432 4.3457Q30.4199 12.7441 38.8184 18.8965Q47.2168 25.0488 57.2266 28.4668Q67.2363 31.8848 78.2715 31.8848Z"/>
   <path class="multicolor-1:white hierarchical-1:primary SFSymbolsPreviewFFFFFF" d="M38.3789-25.6348L58.5938-51.0254Q61.1816-54.248 64.2578-54.248Q65.3809-54.248 66.4307-53.8818Q67.4805-53.5156 68.6523-52.8809L92.041-39.8926L112.305-50.293Q115.039-51.6602 117.065-50.708Q119.092-49.7559 119.604-47.5342Q120.117-45.3125 118.262-43.0176L97.998-17.5293Q95.3613-14.3555 92.2852-14.3555Q90.1855-14.3555 87.9395-15.6738L64.502-28.7109L44.2871-18.2617Q41.6016-16.8945 39.5508-17.8711Q37.5-18.8477 36.9629-21.0449Q36.4258-23.2422 38.3789-25.6348Z"/>
  </g>
  <g id="Bold-L" transform="matrix(1 0 0 1 2262.85 1556)">
   <path class="multicolor-0:tintColor hierarchical-0:tertiary SFSymbolsPreview007AFF" d="M77.0996 30.7129Q87.9395 30.7129 97.7783 27.3438Q107.617 23.9746 115.869 17.9199Q124.121 11.8652 130.176 3.61328Q136.23-4.63867 139.6-14.4775Q142.969-24.3164 142.969-35.1562Q142.969-45.9961 139.6-55.835Q136.23-65.6738 130.151-73.9014Q124.072-82.1289 115.845-88.208Q107.617-94.2871 97.7539-97.6318Q87.8906-100.977 77.0508-100.977Q66.2598-100.977 56.3965-97.6318Q46.5332-94.2871 38.3301-88.208Q30.127-82.1289 24.0479-73.9014Q17.9688-65.6738 14.624-55.835Q11.2793-45.9961 11.2793-35.1562Q11.2793-24.3164 14.624-14.4775Q17.9688-4.63867 24.0479 3.61328Q30.127 11.8652 38.3545 17.9199Q46.582 23.9746 56.4209 27.3438Q66.2598 30.7129 77.0996 30.7129Z"/>
   <path class="multicolor-1:white hierarchical-1:primary SFSymbolsPreviewFFFFFF" d="M36.7188-24.5605L57.5195-50.9277Q59.7656-53.7598 62.4512-53.7598Q63.4277-53.7598 64.3799-53.4424Q65.332-53.125 66.3574-52.5391L91.6016-38.7207L112.305-49.6094Q114.697-50.8301 116.504-50Q118.311-49.1699 118.774-47.2412Q119.238-45.3125 117.578-43.2617L96.7773-16.7969Q94.4824-14.0137 91.7969-14.0137Q89.9902-14.0137 87.8906-15.2344L62.6465-29.0527L41.9434-18.1152Q39.6484-16.9434 37.793-17.749Q35.9375-18.5547 35.4492-20.4834Q34.9609-22.4121 36.7188-24.5605Z"/>
  </g>
  <g id="Semibold-L" transform="matrix(1 0 0 1 1966.97 1556)">
   <path class="multicolor-0:tintColor hierarchical-0:tertiary SFSymbolsPreview007AFF" d="M76.2695 29.8828Q86.9629 29.8828 96.6797 26.5625Q106.396 23.2422 114.551 17.2607Q122.705 11.2793 128.687 3.125Q134.668-5.0293 137.988-14.7461Q141.309-24.4629 141.309-35.1562Q141.309-45.8496 137.988-55.5664Q134.668-65.2832 128.662-73.4131Q122.656-81.543 114.526-87.5488Q106.396-93.5547 96.6553-96.875Q86.9141-100.195 76.2207-100.195Q65.5273-100.195 55.8105-96.875Q46.0938-93.5547 37.9883-87.5488Q29.8828-81.543 23.877-73.4131Q17.8711-65.2832 14.5752-55.5664Q11.2793-45.8496 11.2793-35.1562Q11.2793-24.4629 14.5996-14.7461Q17.9199-5.0293 23.9014 3.125Q29.8828 11.2793 38.0127 17.2607Q46.1426 23.2422 55.8594 26.5625Q65.5762 29.8828 76.2695 29.8828Z"/>
   <path class="multicolor-1:white hierarchical-1:primary SFSymbolsPreviewFFFFFF" d="M35.5469-23.7305L56.7383-50.8301Q58.7891-53.3691 61.1816-53.3691Q62.0605-53.3691 62.9395-53.0762Q63.8184-52.7832 64.7461-52.2949L91.2598-37.8906L112.305-49.0723Q114.502-50.1953 116.138-49.4629Q117.773-48.7305 118.188-46.9971Q118.604-45.2637 117.139-43.3594L95.8984-16.2598Q93.8477-13.7207 91.4551-13.7207Q89.8438-13.7207 87.8418-14.8438L61.3281-29.248L40.332-17.9688Q38.2812-16.8945 36.5967-17.6025Q34.9121-18.3105 34.4238-20.0439Q33.9355-21.7773 35.5469-23.7305Z"/>
  </g>
  <g id="Medium-L" transform="matrix(1 0 0 1 1670.87 1556)">
   <path class="multicolor-0:tintColor hierarchical-0:tertiary SFSymbolsPreview007AFF" d="M75.6836 29.248Q86.2305 29.248 95.8496 25.9521Q105.469 22.6562 113.55 16.7236Q121.631 10.791 127.563 2.73438Q133.496-5.32227 136.792-14.9658Q140.088-24.6094 140.088-35.1562Q140.088-45.752 136.792-55.3711Q133.496-64.9902 127.539-73.0469Q121.582-81.1035 113.525-87.0605Q105.469-93.0176 95.8252-96.2891Q86.1816-99.5605 75.6348-99.5605Q65.0391-99.5605 55.4199-96.2891Q45.8008-93.0176 37.7441-87.0605Q29.6875-81.1035 23.7549-73.0469Q17.8223-64.9902 14.5508-55.3711Q11.2793-45.752 11.2793-35.1562Q11.2793-24.6094 14.5508-14.9658Q17.8223-5.32227 23.7549 2.73438Q29.6875 10.791 37.7686 16.7236Q45.8496 22.6562 55.4688 25.9521Q65.0879 29.248 75.6836 29.248Z"/>
   <path class="multicolor-1:white hierarchical-1:primary SFSymbolsPreviewFFFFFF" d="M34.6191-23.1934L56.1035-50.7812Q58.0078-53.1738 60.1562-53.1738Q60.9863-53.1738 61.8164-52.8809Q62.6465-52.5879 63.5254-52.0996L90.9668-37.2559L112.305-48.7305Q114.258-49.7559 115.771-49.1211Q117.285-48.4863 117.7-46.8994Q118.115-45.3125 116.748-43.5059L95.2148-15.8691Q93.3594-13.5742 91.1133-13.5742Q89.6973-13.5742 87.793-14.5996L60.3027-29.4434L39.0625-17.9199Q37.207-16.9434 35.6201-17.5781Q34.0332-18.2129 33.5938-19.7754Q33.1543-21.3379 34.6191-23.1934Z"/>
  </g>
  <g id="Regular-L" transform="matrix(1 0 0 1 1374.97 1556)">
   <path class="multicolor-0:tintColor hierarchical-0:tertiary SFSymbolsPreview007AFF" d="M74.8535 28.418Q85.3027 28.418 94.7998 25.1709Q104.297 21.9238 112.256 16.0645Q120.215 10.2051 126.099 2.24609Q131.982-5.71289 135.229-15.2344Q138.477-24.7559 138.477-35.1562Q138.477-45.6055 135.229-55.1025Q131.982-64.5996 126.099-72.5586Q120.215-80.5176 112.256-86.4014Q104.297-92.2852 94.7754-95.5322Q85.2539-98.7793 74.8047-98.7793Q64.3555-98.7793 54.8584-95.5322Q45.3613-92.2852 37.4268-86.4014Q29.4922-80.5176 23.6084-72.5586Q17.7246-64.5996 14.502-55.1025Q11.2793-45.6055 11.2793-35.1562Q11.2793-24.7559 14.5264-15.2344Q17.7734-5.71289 23.6328 2.24609Q29.4922 10.2051 37.4512 16.0645Q45.4102 21.9238 54.9072 25.1709Q64.4043 28.418 74.8535 28.418Z"/>
   <path class="multicolor-1:white hierarchical-1:primary SFSymbolsPreviewFFFFFF" d="M33.4473-22.4121L55.3711-50.6836Q57.0312-52.7832 58.9355-52.7832Q59.668-52.7832 60.4248-52.5146Q61.1816-52.2461 61.9629-51.8555L90.6738-36.4258L112.305-48.2422Q114.062-49.1699 115.405-48.6084Q116.748-48.0469 117.139-46.6553Q117.529-45.2637 116.309-43.6523L94.3848-15.332Q92.7246-13.2812 90.7715-13.2812Q89.5508-13.2812 87.7441-14.2578L59.0332-29.6387L37.4512-17.7734Q35.8398-16.8945 34.4238-17.4316Q33.0078-17.9688 32.5684-19.3604Q32.1289-20.752 33.4473-22.4121Z"/>
  </g>
  <g id="Light-L" transform="matrix(1 0 0 1 1079.18 1556)">
   <path class="multicolor-0:tintColor hierarchical-0:tertiary SFSymbolsPreview007AFF" d="M73.9258 27.4902Q84.2285 27.4902 93.6035 24.292Q102.979 21.0938 110.815 15.332Q118.652 9.57031 124.438 1.7334Q130.225-6.10352 133.423-15.4785Q136.621-24.8535 136.621-35.1562Q136.621-45.459 133.423-54.834Q130.225-64.209 124.438-72.0459Q118.652-79.8828 110.815-85.6689Q102.979-91.4551 93.6035-94.6533Q84.2285-97.8516 73.877-97.8516Q63.5742-97.8516 54.2236-94.6533Q44.873-91.4551 37.0361-85.6689Q29.1992-79.8828 23.4131-72.0459Q17.627-64.209 14.4531-54.834Q11.2793-45.459 11.2793-35.1562Q11.2793-24.8535 14.4775-15.4785Q17.6758-6.10352 23.4375 1.7334Q29.1992 9.57031 37.0361 15.332Q44.873 21.0938 54.248 24.292Q63.623 27.4902 73.9258 27.4902Z"/>
   <path class="multicolor-1:white hierarchical-1:primary SFSymbolsPreviewFFFFFF" d="M33.3008-21.7773L55.3223-50Q56.5918-51.6113 58.0566-51.6113Q58.6426-51.6113 59.2285-51.416Q59.8145-51.2207 60.4004-50.9277L89.6973-35.1562L111.328-47.2168Q112.793-47.998 113.867-47.5586Q114.941-47.1191 115.234-45.9961Q115.527-44.873 114.551-43.5547L92.6758-15.2832Q91.4062-13.7207 89.8438-13.7207Q88.8672-13.7207 87.5-14.4531L58.252-30.2246L36.5234-18.0664Q35.2051-17.334 34.082-17.7734Q32.959-18.2129 32.6172-19.3115Q32.2754-20.4102 33.3008-21.7773Z"/>
  </g>
  <g id="Thin-L" transform="matrix(1 0 0 1 783.693 1556)">
   <path class="multicolor-0:tintColor hierarchical-0:tertiary SFSymbolsPreview007AFF" d="M72.7051 26.2695Q82.8613 26.2695 92.041 23.1445Q101.221 20.0195 108.911 14.3799Q116.602 8.74023 122.266 1.0498Q127.93-6.64062 131.055-15.8447Q134.18-25.0488 134.18-35.1562Q134.18-45.3125 131.055-54.4922Q127.93-63.6719 122.29-71.3623Q116.65-79.0527 108.936-84.7168Q101.221-90.3809 92.0166-93.5059Q82.8125-96.6309 72.7051-96.6309Q62.5488-96.6309 53.3691-93.5059Q44.1895-90.3809 36.499-84.7168Q28.8086-79.0527 23.1689-71.3623Q17.5293-63.6719 14.4043-54.4922Q11.2793-45.3125 11.2793-35.1562Q11.2793-25.0488 14.4043-15.8447Q17.5293-6.64062 23.1689 1.0498Q28.8086 8.74023 36.5234 14.3799Q44.2383 20.0195 53.418 23.1445Q62.5977 26.2695 72.7051 26.2695Z"/>
   <path class="multicolor-1:white hierarchical-1:primary SFSymbolsPreviewFFFFFF" d="M33.1543-20.8496L55.2734-49.0723Q56.0059-50 56.9824-50Q57.2754-50 57.6416-49.9023Q58.0078-49.8047 58.3008-49.6582L88.4766-33.3984L110.107-45.752Q111.182-46.3867 111.914-46.0938Q112.646-45.8008 112.793-45.0195Q112.939-44.2383 112.256-43.3105L90.4297-15.1855Q89.6484-14.2578 88.7207-14.2578Q87.9883-14.2578 87.2559-14.6973L57.2266-30.8594L35.4004-18.4082Q34.4238-17.8711 33.667-18.1641Q32.9102-18.457 32.6904-19.1895Q32.4707-19.9219 33.1543-20.8496Z"/>
  </g>
  <g id="Ultralight-L" transform="matrix(1 0 0 1 487.592 1556)">
   <path class="multicolor-0:tintColor hierarchical-0:tertiary SFSymbolsPreview007AFF" d="M72.0703 25.6348Q82.1289 25.6348 91.2354 22.5586Q100.342 19.4824 107.935 13.8916Q115.527 8.30078 121.143 0.683594Q126.758-6.93359 129.858-16.0156Q132.959-25.0977 132.959-35.1562Q132.959-45.2148 129.858-54.3213Q126.758-63.4277 121.167-71.0205Q115.576-78.6133 107.959-84.2285Q100.342-89.8438 91.2354-92.9199Q82.1289-95.9961 72.0703-95.9961Q62.0605-95.9961 52.9541-92.9199Q43.8477-89.8438 36.2305-84.2285Q28.6133-78.6133 23.0225-71.0205Q17.4316-63.4277 14.3555-54.3213Q11.2793-45.2148 11.2793-35.1562Q11.2793-25.0977 14.3555-16.0156Q17.4316-6.93359 23.0225 0.683594Q28.6133 8.30078 36.2305 13.8916Q43.8477 19.4824 52.9541 22.5586Q62.0605 25.6348 72.0703 25.6348Z"/>
   <path class="multicolor-1:white hierarchical-1:primary SFSymbolsPreviewFFFFFF" d="M33.1055-20.4102L55.2246-48.6328Q55.7129-49.2188 56.3965-49.2188Q56.5918-49.2188 56.8359-49.1699Q57.0801-49.1211 57.2754-49.0234L87.8418-32.5195L109.473-45.0684Q110.352-45.6055 110.889-45.4102Q111.426-45.2148 111.499-44.6045Q111.572-43.9941 111.035-43.2617L89.2578-15.1367Q88.7695-14.5996 88.0859-14.5996Q87.5-14.5996 87.1094-14.8438L56.6895-31.2988L34.7656-18.6523Q34.0332-18.2129 33.4473-18.4082Q32.8613-18.6035 32.7393-19.165Q32.6172-19.7266 33.1055-20.4102Z"/>
  </g>
  <g id="Black-M" transform="matrix(1 0 0 1 2871.32 1126)">
   <path class="multicolor-0:tintColor hierarchical-0:tertiary SFSymbolsPreview007AFF" d="M62.0605 18.1641Q73.0957 18.1641 82.7637 14.0137Q92.4316 9.86328 99.7559 2.51465Q107.08-4.83398 111.255-14.4775Q115.43-24.1211 115.43-35.1562Q115.43-46.1914 111.255-55.835Q107.08-65.4785 99.7559-72.8271Q92.4316-80.1758 82.7637-84.3262Q73.0957-88.4766 62.0605-88.4766Q51.0742-88.4766 41.4062-84.3262Q31.7383-80.1758 24.3896-72.8271Q17.041-65.4785 12.8906-55.835Q8.74023-46.1914 8.74023-35.1562Q8.74023-24.1211 12.8906-14.4775Q17.041-4.83398 24.3896 2.51465Q31.7383 9.86328 41.4062 14.0137Q51.0742 18.1641 62.0605 18.1641Z"/>
   <path class="multicolor-1:white hierarchical-1:primary SFSymbolsPreviewFFFFFF" d="M32.2266-29.248L47.0703-47.4609Q49.3652-50.3418 52.2461-50.3418Q53.1738-50.3418 54.1016-50.0488Q55.0293-49.7559 56.0547-49.1699L71.7285-40.2344L86.7188-47.6562Q89.209-48.877 91.04-47.9736Q92.8711-47.0703 93.3105-45.0439Q93.75-43.0176 92.041-40.918L77.1973-22.6562Q74.8047-19.8242 72.0215-19.8242Q70.0195-19.8242 68.2129-20.8984L52.4902-29.9805L37.5488-22.5098Q35.0098-21.2891 33.1543-22.1924Q31.2988-23.0957 30.8838-25.1221Q30.4688-27.1484 32.2266-29.248Z"/>
  </g>
  <g id="Heavy-M" transform="matrix(1 0 0 1 2575.43 1126)">
   <path class="multicolor-0:tintColor hierarchical-0:tertiary SFSymbolsPreview007AFF" d="M61.2305 17.334Q72.0703 17.334 81.5918 13.2324Q91.1133 9.13086 98.3154 1.9043Q105.518-5.32227 109.644-14.8193Q113.77-24.3164 113.77-35.1562Q113.77-45.9961 109.644-55.4932Q105.518-64.9902 98.3154-72.2412Q91.1133-79.4922 81.5918-83.5693Q72.0703-87.6465 61.2305-87.6465Q50.4395-87.6465 40.918-83.5693Q31.3965-79.4922 24.1699-72.2412Q16.9434-64.9902 12.8418-55.4932Q8.74023-45.9961 8.74023-35.1562Q8.74023-24.3164 12.8418-14.8193Q16.9434-5.32227 24.1699 1.9043Q31.3965 9.13086 40.918 13.2324Q50.4395 17.334 61.2305 17.334Z"/>
   <path class="multicolor-1:white hierarchical-1:primary SFSymbolsPreviewFFFFFF" d="M30.7617-28.418L46.1426-47.5098Q48.2422-50.1465 50.8301-50.1465Q51.709-50.1465 52.5635-49.8535Q53.418-49.5605 54.3945-49.0234L71.5332-39.4531L86.9629-47.2656Q89.209-48.3398 90.8936-47.5342Q92.5781-46.7285 92.9932-44.8975Q93.4082-43.0664 91.8457-41.1133L76.5137-21.9727Q74.3164-19.3848 71.7773-19.3848Q69.9707-19.3848 68.2129-20.4102L51.0254-30.127L35.6934-22.2656Q33.3984-21.1426 31.6895-21.9482Q29.9805-22.7539 29.5654-24.6094Q29.1504-26.4648 30.7617-28.418Z"/>
  </g>
  <g id="Bold-M" transform="matrix(1 0 0 1 2279.65 1126)">
   <path class="multicolor-0:tintColor hierarchical-0:tertiary SFSymbolsPreview007AFF" d="M60.3027 16.4062Q70.9473 16.4062 80.2734 12.3779Q89.5996 8.34961 96.7041 1.2207Q103.809-5.9082 107.861-15.2344Q111.914-24.5605 111.914-35.2051Q111.914-45.8008 107.861-55.127Q103.809-64.4531 96.7041-71.582Q89.5996-78.7109 80.249-82.7393Q70.8984-86.7676 60.3027-86.7676Q49.707-86.7676 40.3564-82.7393Q31.0059-78.7109 23.9014-71.582Q16.7969-64.4531 12.7686-55.127Q8.74023-45.8008 8.74023-35.2051Q8.74023-24.5605 12.7686-15.2344Q16.7969-5.9082 23.9258 1.2207Q31.0547 8.34961 40.3809 12.3779Q49.707 16.4062 60.3027 16.4062Z"/>
   <path class="multicolor-1:white hierarchical-1:primary SFSymbolsPreviewFFFFFF" d="M29.1504-27.4902L45.0195-47.5586Q46.9238-49.9023 49.2188-49.9023Q50-49.9023 50.8057-49.6338Q51.6113-49.3652 52.4902-48.877L71.2891-38.5742L87.1582-46.7773Q89.1602-47.8027 90.6738-47.0947Q92.1875-46.3867 92.6025-44.751Q93.0176-43.1152 91.6504-41.3574L75.6836-21.2402Q73.7305-18.8965 71.4844-18.8965Q69.9219-18.8965 68.2129-19.873L49.3652-30.2734L33.5449-22.0215Q31.5918-21.0449 30.0293-21.7285Q28.4668-22.4121 28.0762-24.0479Q27.6855-25.6836 29.1504-27.4902Z"/>
  </g>
  <g id="Semibold-M" transform="matrix(1 0 0 1 1983.6 1126)">
   <path class="multicolor-0:tintColor hierarchical-0:tertiary SFSymbolsPreview007AFF" d="M59.668 15.7227Q70.1172 15.7227 79.3457 11.7432Q88.5742 7.76367 95.6055 0.732422Q102.637-6.29883 106.616-15.5029Q110.596-24.707 110.596-35.2051Q110.596-45.6543 106.616-54.8584Q102.637-64.0625 95.6055-71.0938Q88.5742-78.125 79.3457-82.1289Q70.1172-86.1328 59.6191-86.1328Q49.1699-86.1328 39.9658-82.1289Q30.7617-78.125 23.7305-71.0938Q16.6992-64.0625 12.7197-54.8584Q8.74023-45.6543 8.74023-35.2051Q8.74023-24.707 12.7197-15.5029Q16.6992-6.29883 23.7305 0.732422Q30.7617 7.76367 39.9902 11.7432Q49.2188 15.7227 59.668 15.7227Z"/>
   <path class="multicolor-1:white hierarchical-1:primary SFSymbolsPreviewFFFFFF" d="M27.9785-26.8066L44.2871-47.5586Q46.0449-49.7559 48.1445-49.7559Q48.8281-49.7559 49.6094-49.4873Q50.3906-49.2188 51.2207-48.7793L71.1426-37.9395L87.3047-46.4355Q89.1602-47.3633 90.5518-46.7285Q91.9434-46.0938 92.334-44.6289Q92.7246-43.1641 91.5039-41.5039L75.1465-20.7031Q73.3398-18.5059 71.2402-18.5059Q69.873-18.5059 68.1641-19.4824L48.2422-30.3711L32.0801-21.8262Q30.3223-20.8984 28.8818-21.5088Q27.4414-22.1191 27.0508-23.6084Q26.6602-25.0977 27.9785-26.8066Z"/>
  </g>
  <g id="Medium-M" transform="matrix(1 0 0 1 1687.38 1126)">
   <path class="multicolor-0:tintColor hierarchical-0:tertiary SFSymbolsPreview007AFF" d="M59.1797 15.2344Q69.5312 15.2344 78.6621 11.2793Q87.793 7.32422 94.751 0.366211Q101.709-6.5918 105.664-15.7227Q109.619-24.8535 109.619-35.2051Q109.619-45.5566 105.664-54.6875Q101.709-63.8184 94.751-70.7764Q87.793-77.7344 78.6377-81.6895Q69.4824-85.6445 59.1309-85.6445Q48.7793-85.6445 39.6484-81.6895Q30.5176-77.7344 23.584-70.7764Q16.6504-63.8184 12.6953-54.6875Q8.74023-45.5566 8.74023-35.2051Q8.74023-24.8535 12.6953-15.7227Q16.6504-6.5918 23.6084 0.366211Q30.5664 7.32422 39.6973 11.2793Q48.8281 15.2344 59.1797 15.2344Z"/>
   <path class="multicolor-1:white hierarchical-1:primary SFSymbolsPreviewFFFFFF" d="M27.1484-26.3184L43.7012-47.5586Q45.3613-49.6094 47.2656-49.6094Q47.998-49.6094 48.7061-49.3652Q49.4141-49.1211 50.1953-48.6816L70.9961-37.4512L87.4512-46.1914Q89.1113-47.0703 90.4297-46.4844Q91.748-45.8984 92.1387-44.5312Q92.5293-43.1641 91.3574-41.6504L74.707-20.3125Q73.0469-18.2617 71.0938-18.2617Q69.873-18.2617 68.1641-19.1895L47.3633-30.4688L31.0059-21.6797Q29.3457-20.8496 28.0029-21.3867Q26.6602-21.9238 26.2695-23.3154Q25.8789-24.707 27.1484-26.3184Z"/>
  </g>
  <g id="Regular-M" transform="matrix(1 0 0 1 1391.3 1126)">
   <path class="multicolor-0:tintColor hierarchical-0:tertiary SFSymbolsPreview007AFF" d="M58.5449 14.5996Q68.75 14.5996 77.7588 10.6934Q86.7676 6.78711 93.6523-0.0976562Q100.537-6.98242 104.443-15.9912Q108.35-25 108.35-35.2051Q108.35-45.4102 104.443-54.4189Q100.537-63.4277 93.6523-70.3125Q86.7676-77.1973 77.7344-81.1035Q68.7012-85.0098 58.4961-85.0098Q48.291-85.0098 39.2822-81.1035Q30.2734-77.1973 23.4131-70.3125Q16.5527-63.4277 12.6465-54.4189Q8.74023-45.4102 8.74023-35.2051Q8.74023-25 12.6465-15.9912Q16.5527-6.98242 23.4375-0.0976562Q30.3223 6.78711 39.3311 10.6934Q48.3398 14.5996 58.5449 14.5996Z"/>
   <path class="multicolor-1:white hierarchical-1:primary SFSymbolsPreviewFFFFFF" d="M26.0254-25.6836L42.9688-47.6074Q44.4824-49.4629 46.1914-49.4629Q46.8262-49.4629 47.5098-49.2188Q48.1934-48.9746 48.9258-48.584L70.8496-36.8652L87.5977-45.8984Q89.1113-46.6797 90.3076-46.167Q91.5039-45.6543 91.8701-44.4336Q92.2363-43.2129 91.2109-41.7969L74.1699-19.8242Q72.6562-17.9199 70.8984-17.9199Q69.8242-17.9199 68.1641-18.7988L46.2402-30.5664L29.541-21.4844Q28.125-20.752 26.8799-21.2158Q25.6348-21.6797 25.2441-22.9248Q24.8535-24.1699 26.0254-25.6836Z"/>
  </g>
  <g id="Light-M" transform="matrix(1 0 0 1 1095.42 1126)">
   <path class="multicolor-0:tintColor hierarchical-0:tertiary SFSymbolsPreview007AFF" d="M57.7148 13.7695Q67.7734 13.7695 76.6357 9.93652Q85.498 6.10352 92.2607-0.65918Q99.0234-7.42188 102.856-16.2842Q106.689-25.1465 106.689-35.2051Q106.689-45.2637 102.856-54.126Q99.0234-62.9883 92.2607-69.751Q85.498-76.5137 76.6113-80.3467Q67.7246-84.1797 57.666-84.1797Q47.6074-84.1797 38.7451-80.3467Q29.8828-76.5137 23.1445-69.751Q16.4062-62.9883 12.5732-54.126Q8.74023-45.2637 8.74023-35.2051Q8.74023-25.1465 12.5732-16.2842Q16.4062-7.42188 23.1689-0.65918Q29.9316 6.10352 38.7939 9.93652Q47.6562 13.7695 57.7148 13.7695Z"/>
   <path class="multicolor-1:white hierarchical-1:primary SFSymbolsPreviewFFFFFF" d="M25.9277-25.0977L42.9199-47.0215Q44.0918-48.4375 45.4102-48.4375Q45.8984-48.4375 46.4355-48.2422Q46.9727-48.0469 47.5098-47.7539L69.9707-35.7422L86.7188-44.9707Q87.9883-45.6055 88.9404-45.2148Q89.8926-44.8242 90.1611-43.8477Q90.4297-42.8711 89.5996-41.6992L72.6074-19.7754Q71.4844-18.3105 70.0684-18.3105Q69.1895-18.3105 67.9688-18.9941L45.5566-31.0547L28.7598-21.7773Q27.5879-21.1426 26.5869-21.5088Q25.5859-21.875 25.293-22.876Q25-23.877 25.9277-25.0977Z"/>
  </g>
  <g id="Thin-M" transform="matrix(1 0 0 1 799.782 1126)">
   <path class="multicolor-0:tintColor hierarchical-0:tertiary SFSymbolsPreview007AFF" d="M56.5918 12.6465Q66.5039 12.6465 75.1709 8.93555Q83.8379 5.22461 90.4297-1.3916Q97.0215-8.00781 100.781-16.6748Q104.541-25.3418 104.541-35.2051Q104.541-45.0684 100.781-53.7354Q97.0215-62.4023 90.4297-69.0186Q83.8379-75.6348 75.1709-79.3457Q66.5039-83.0566 56.5918-83.0566Q46.7285-83.0566 38.0615-79.3457Q29.3945-75.6348 22.8271-69.0186Q16.2598-62.4023 12.5-53.7354Q8.74023-45.0684 8.74023-35.2051Q8.74023-25.3418 12.4756-16.6748Q16.2109-8.00781 22.8027-1.3916Q29.3945 5.22461 38.0859 8.93555Q46.7773 12.6465 56.5918 12.6465Z"/>
   <path class="multicolor-1:white hierarchical-1:primary SFSymbolsPreviewFFFFFF" d="M25.7324-24.2676L42.8711-46.1426Q43.5059-46.9727 44.3848-46.9727Q44.6777-46.9727 44.9951-46.8994Q45.3125-46.8262 45.6055-46.6309L68.8477-34.1309L85.5957-43.6523Q86.5234-44.1406 87.1582-43.8965Q87.793-43.6523 87.9395-42.9932Q88.0859-42.334 87.5-41.5527L70.5566-19.6777Q69.873-18.7988 68.9941-18.7988Q68.3594-18.7988 67.6758-19.1895L44.5801-31.6895L27.6855-22.1191Q26.8555-21.6309 26.1963-21.875Q25.5371-22.1191 25.3418-22.7783Q25.1465-23.4375 25.7324-24.2676Z"/>
  </g>
  <g id="Ultralight-M" transform="matrix(1 0 0 1 503.632 1126)">
   <path class="multicolor-0:tintColor hierarchical-0:tertiary SFSymbolsPreview007AFF" d="M56.0547 12.1094Q65.8203 12.1094 74.3896 8.42285Q82.959 4.73633 89.4775-1.78223Q95.9961-8.30078 99.707-16.8701Q103.418-25.4395 103.418-35.2051Q103.418-44.9707 99.707-53.54Q95.9961-62.1094 89.4775-68.6279Q82.959-75.1465 74.3896-78.833Q65.8203-82.5195 56.0547-82.5195Q46.2891-82.5195 37.7197-78.833Q29.1504-75.1465 22.6562-68.6279Q16.1621-62.1094 12.4512-53.54Q8.74023-44.9707 8.74023-35.2051Q8.74023-25.4395 12.4268-16.8701Q16.1133-8.30078 22.6318-1.78223Q29.1504 4.73633 37.7197 8.42285Q46.2891 12.1094 56.0547 12.1094Z"/>
   <path class="multicolor-1:white hierarchical-1:primary SFSymbolsPreviewFFFFFF" d="M25.6836-23.877L42.8223-45.752Q43.2617-46.2891 43.8965-46.2891Q44.043-46.2891 44.2627-46.2402Q44.4824-46.1914 44.6777-46.0938L68.2617-33.3984L85.0098-43.0664Q85.7422-43.457 86.2305-43.2861Q86.7188-43.1152 86.792-42.6025Q86.8652-42.0898 86.4258-41.5039L69.5312-19.6289Q69.0918-19.0918 68.457-19.0918Q67.9688-19.0918 67.5293-19.3359L44.1406-32.0312L27.1484-22.3145Q26.5137-21.9238 26.001-22.0947Q25.4883-22.2656 25.3662-22.7783Q25.2441-23.291 25.6836-23.877Z"/>
  </g>
  <g id="Black-S" transform="matrix(1 0 0 1 2884.57 696)">
   <path class="multicolor-0:tintColor hierarchical-0:tertiary SFSymbolsPreview007AFF" d="M48.8281 6.83594Q57.5195 6.83594 65.1123 3.56445Q72.7051 0.292969 78.4912-5.49316Q84.2773-11.2793 87.5488-18.8721Q90.8203-26.4648 90.8203-35.1562Q90.8203-43.8477 87.5488-51.4404Q84.2773-59.0332 78.4912-64.8193Q72.7051-70.6055 65.1123-73.877Q57.5195-77.1484 48.8281-77.1484Q40.1367-77.1484 32.5439-73.877Q24.9512-70.6055 19.165-64.8193Q13.3789-59.0332 10.1074-51.4404Q6.83594-43.8477 6.83594-35.1562Q6.83594-26.4648 10.1074-18.8721Q13.3789-11.2793 19.165-5.49316Q24.9512 0.292969 32.5439 3.56445Q40.1367 6.83594 48.8281 6.83594Z"/>
   <path class="multicolor-1:white hierarchical-1:primary SFSymbolsPreviewFFFFFF" d="M25.6348-30.7617L37.1094-44.7754Q38.9648-47.0703 41.2598-47.0703Q42.041-47.0703 42.7734-46.8506Q43.5059-46.6309 44.2871-46.1426L56.1523-39.3066L67.7734-45.0195Q69.8242-45.9961 71.2891-45.2637Q72.7539-44.5312 73.0713-42.9199Q73.3887-41.3086 72.0215-39.5996L60.5469-25.5859Q58.6426-23.291 56.3965-23.291Q54.7852-23.291 53.3691-24.1699L41.5039-31.1035L29.8828-25.3418Q27.832-24.3652 26.3672-25.0977Q24.9023-25.8301 24.585-27.4658Q24.2676-29.1016 25.6348-30.7617Z"/>
  </g>
  <g id="Heavy-S" transform="matrix(1 0 0 1 2588.47 696)">
   <path class="multicolor-0:tintColor hierarchical-0:tertiary SFSymbolsPreview007AFF" d="M48.1934 6.20117Q56.7871 6.20117 64.2578 2.97852Q71.7285-0.244141 77.4414-5.95703Q83.1543-11.6699 86.377-19.1406Q89.5996-26.6113 89.5996-35.1562Q89.5996-43.7012 86.377-51.1963Q83.1543-58.6914 77.4414-64.4043Q71.7285-70.1172 64.2334-73.3398Q56.7383-76.5625 48.1934-76.5625Q39.6484-76.5625 32.1777-73.3398Q24.707-70.1172 18.9941-64.4043Q13.2812-58.6914 10.0586-51.1963Q6.83594-43.7012 6.83594-35.1562Q6.83594-26.6113 10.0586-19.1406Q13.2812-11.6699 18.9941-5.95703Q24.707-0.244141 32.2021 2.97852Q39.6973 6.20117 48.1934 6.20117Z"/>
   <path class="multicolor-1:white hierarchical-1:primary SFSymbolsPreviewFFFFFF" d="M24.3652-30.127L36.2793-44.873Q37.9883-47.0215 40.1367-47.0215Q40.8691-47.0215 41.5771-46.8018Q42.2852-46.582 43.0176-46.1426L56.0547-38.7695L68.0664-44.7754Q69.9219-45.7031 71.2891-45.0439Q72.6562-44.3848 72.9736-42.8955Q73.291-41.4062 72.0215-39.7949L60.1074-25Q58.3496-22.8516 56.25-22.8516Q54.7852-22.8516 53.3691-23.7305L40.332-31.1523L28.3691-25.0977Q26.5137-24.2188 25.1221-24.8779Q23.7305-25.5371 23.4131-27.0264Q23.0957-28.5156 24.3652-30.127Z"/>
  </g>
  <g id="Bold-S" transform="matrix(1 0 0 1 2292.42 696)">
   <path class="multicolor-0:tintColor hierarchical-0:tertiary SFSymbolsPreview007AFF" d="M47.5586 5.51758Q55.957 5.51758 63.3057 2.34375Q70.6543-0.830078 76.2695-6.46973Q81.8848-12.1094 85.083-19.458Q88.2812-26.8066 88.2812-35.2051Q88.2812-43.5547 85.083-50.9277Q81.8848-58.3008 76.2695-63.916Q70.6543-69.5312 63.2812-72.7051Q55.9082-75.8789 47.5098-75.8789Q39.1602-75.8789 31.7871-72.7051Q24.4141-69.5312 18.8232-63.916Q13.2324-58.3008 10.0342-50.9277Q6.83594-43.5547 6.83594-35.2051Q6.83594-26.8066 10.0342-19.458Q13.2324-12.1094 18.8477-6.46973Q24.4629-0.830078 31.8115 2.34375Q39.1602 5.51758 47.5586 5.51758Z"/>
   <path class="multicolor-1:white hierarchical-1:primary SFSymbolsPreviewFFFFFF" d="M23.0469-29.3945L35.4004-45.0195Q37.0117-47.0215 38.916-47.0215Q39.5996-47.0215 40.2588-46.7773Q40.918-46.5332 41.6504-46.1426L56.0059-38.1836L68.4082-44.5312Q70.0684-45.3613 71.3379-44.7754Q72.6074-44.1895 72.9248-42.8467Q73.2422-41.5039 72.1191-40.0391L59.668-24.4141Q58.0566-22.4121 56.1523-22.4121Q54.8828-22.4121 53.418-23.2422L39.0137-31.2012L26.709-24.8535Q25.0488-24.0234 23.7793-24.6094Q22.5098-25.1953 22.168-26.5625Q21.8262-27.9297 23.0469-29.3945Z"/>
  </g>
  <g id="Semibold-S" transform="matrix(1 0 0 1 1996.2 696)">
   <path class="multicolor-0:tintColor hierarchical-0:tertiary SFSymbolsPreview007AFF" d="M47.0703 5.0293Q55.3711 5.0293 62.6465 1.9043Q69.9219-1.2207 75.4639-6.81152Q81.0059-12.4023 84.1553-19.6777Q87.3047-26.9531 87.3047-35.2051Q87.3047-43.457 84.1553-50.7324Q81.0059-58.0078 75.4395-63.5742Q69.873-69.1406 62.5977-72.29Q55.3223-75.4395 47.0215-75.4395Q38.7695-75.4395 31.4941-72.29Q24.2188-69.1406 18.6768-63.5742Q13.1348-58.0078 9.98535-50.7324Q6.83594-43.457 6.83594-35.2051Q6.83594-26.9531 9.98535-19.6777Q13.1348-12.4023 18.7012-6.81152Q24.2676-1.2207 31.543 1.9043Q38.8184 5.0293 47.0703 5.0293Z"/>
   <path class="multicolor-1:white hierarchical-1:primary SFSymbolsPreviewFFFFFF" d="M22.0703-28.9062L34.7656-45.0684Q36.2793-46.9727 38.0371-46.9727Q38.6719-46.9727 39.3311-46.7285Q39.9902-46.4844 40.7227-46.0938L55.957-37.793L68.6035-44.3359Q70.166-45.1172 71.3623-44.5801Q72.5586-44.043 72.876-42.7979Q73.1934-41.5527 72.1191-40.1855L59.375-23.9746Q57.8613-22.0703 56.0547-22.0703Q54.8828-22.0703 53.4668-22.8516L38.1348-31.25L25.5859-24.6582Q24.0234-23.877 22.8271-24.4141Q21.6309-24.9512 21.2891-26.2207Q20.9473-27.4902 22.0703-28.9062Z"/>
  </g>
  <g id="Medium-S" transform="matrix(1 0 0 1 1699.83 696)">
   <path class="multicolor-0:tintColor hierarchical-0:tertiary SFSymbolsPreview007AFF" d="M46.7285 4.6875Q54.9316 4.6875 62.1338 1.5625Q69.3359-1.5625 74.8535-7.08008Q80.3711-12.5977 83.4961-19.7998Q86.6211-27.002 86.6211-35.2051Q86.6211-43.3594 83.4961-50.5859Q80.3711-57.8125 74.8291-63.3301Q69.2871-68.8477 62.085-71.9482Q54.8828-75.0488 46.6797-75.0488Q38.4766-75.0488 31.2744-71.9482Q24.0723-68.8477 18.5791-63.3301Q13.0859-57.8125 9.96094-50.5859Q6.83594-43.3594 6.83594-35.2051Q6.83594-27.002 9.96094-19.7998Q13.0859-12.5977 18.6035-7.08008Q24.1211-1.5625 31.3232 1.5625Q38.5254 4.6875 46.7285 4.6875Z"/>
   <path class="multicolor-1:white hierarchical-1:primary SFSymbolsPreviewFFFFFF" d="M21.3379-28.5156L34.2773-45.1172Q35.7422-46.9727 37.3535-46.9727Q37.9883-46.9727 38.623-46.7285Q39.2578-46.4844 39.9414-46.0938L55.9082-37.4512L68.7988-44.2383Q70.2148-44.9707 71.3623-44.4824Q72.5098-43.9941 72.8271-42.7979Q73.1445-41.6016 72.1191-40.332L59.082-23.6328Q57.666-21.8262 56.0059-21.8262Q54.8828-21.8262 53.4668-22.6074L37.4023-31.25L24.6582-24.5605Q23.291-23.8281 22.1191-24.3164Q20.9473-24.8047 20.6055-25.9766Q20.2637-27.1484 21.3379-28.5156Z"/>
  </g>
  <g id="Regular-S" transform="matrix(1 0 0 1 1403.58 696)">
   <path class="multicolor-0:tintColor hierarchical-0:tertiary SFSymbolsPreview007AFF" d="M46.2402 4.19922Q54.3457 4.19922 61.4746 1.12305Q68.6035-1.95312 74.0479-7.42188Q79.4922-12.8906 82.5928-20.0195Q85.6934-27.1484 85.6934-35.2051Q85.6934-43.2617 82.5928-50.3906Q79.4922-57.5195 74.0234-62.9883Q68.5547-68.457 61.4258-71.5332Q54.2969-74.6094 46.1914-74.6094Q38.1348-74.6094 31.0059-71.5332Q23.877-68.457 18.457-62.9883Q13.0371-57.5195 9.93652-50.3906Q6.83594-43.2617 6.83594-35.2051Q6.83594-27.1484 9.93652-20.0195Q13.0371-12.8906 18.4814-7.42188Q23.9258-1.95312 31.0547 1.12305Q38.1836 4.19922 46.2402 4.19922Z"/>
   <path class="multicolor-1:white hierarchical-1:primary SFSymbolsPreviewFFFFFF" d="M20.4102-28.0273L33.6426-45.2148Q35.0098-46.9238 36.5234-46.9238Q37.1094-46.9238 37.7197-46.6797Q38.3301-46.4355 39.0137-46.0938L55.8594-37.0605L68.9941-44.043Q70.3125-44.7266 71.3867-44.2871Q72.4609-43.8477 72.7783-42.749Q73.0957-41.6504 72.168-40.4785L58.7891-23.1934Q57.4707-21.4844 55.9082-21.4844Q54.9316-21.4844 53.4668-22.2656L36.5234-31.2988L23.5352-24.3652Q22.2656-23.6816 21.167-24.1211Q20.0684-24.5605 19.7266-25.6348Q19.3848-26.709 20.4102-28.0273Z"/>
  </g>
  <g id="Light-S" transform="matrix(1 0 0 1 1107.6 696)">
   <path class="multicolor-0:tintColor hierarchical-0:tertiary SFSymbolsPreview007AFF" d="M45.5078 3.4668Q53.4668 3.4668 60.4736 0.463867Q67.4805-2.53906 72.8271-7.91016Q78.1738-13.2812 81.2012-20.2637Q84.2285-27.2461 84.2285-35.2051Q84.2285-43.1641 81.2012-50.1465Q78.1738-57.1289 72.8027-62.5Q67.4316-67.8711 60.4492-70.874Q53.4668-73.877 45.459-73.877Q37.5488-73.877 30.542-70.874Q23.5352-67.8711 18.2129-62.5Q12.8906-57.1289 9.86328-50.1465Q6.83594-43.1641 6.83594-35.2051Q6.83594-27.2461 9.86328-20.2637Q12.8906-13.2812 18.2373-7.91016Q23.584-2.53906 30.5908 0.463867Q37.5977 3.4668 45.5078 3.4668Z"/>
   <path class="multicolor-1:white hierarchical-1:primary SFSymbolsPreviewFFFFFF" d="M20.3125-27.5391L33.5938-44.6777Q34.668-45.9961 35.8398-45.9961Q36.2793-45.9961 36.7676-45.8252Q37.2559-45.6543 37.7441-45.4102L55.127-36.0352L68.2617-43.2129Q69.3359-43.7988 70.1904-43.457Q71.0449-43.1152 71.2891-42.2363Q71.5332-41.3574 70.752-40.3809L57.4219-23.1445Q56.3965-21.875 55.1758-21.875Q54.3945-21.875 53.2715-22.4609L35.8887-31.7871L22.8027-24.6094Q21.7773-24.0723 20.8984-24.4141Q20.0195-24.7559 19.751-25.6104Q19.4824-26.4648 20.3125-27.5391Z"/>
  </g>
  <g id="Thin-S" transform="matrix(1 0 0 1 811.867 696)">
   <path class="multicolor-0:tintColor hierarchical-0:tertiary SFSymbolsPreview007AFF" d="M44.5312 2.49023Q52.3438 2.49023 59.1553-0.439453Q65.9668-3.36914 71.1914-8.59375Q76.416-13.8184 79.3457-20.6299Q82.2754-27.4414 82.2754-35.2051Q82.2754-42.9688 79.3457-49.7803Q76.416-56.5918 71.1914-61.8164Q65.9668-67.041 59.1553-69.9707Q52.3438-72.9004 44.5312-72.9004Q36.7676-72.9004 29.9316-69.9707Q23.0957-67.041 17.9199-61.8164Q12.7441-56.5918 9.79004-49.7803Q6.83594-42.9688 6.83594-35.2051Q6.83594-27.4414 9.79004-20.6299Q12.7441-13.8184 17.9199-8.59375Q23.0957-3.36914 29.9316-0.439453Q36.7676 2.49023 44.5312 2.49023Z"/>
   <path class="multicolor-1:white hierarchical-1:primary SFSymbolsPreviewFFFFFF" d="M20.166-26.7578L33.5449-43.9453Q34.1797-44.7266 34.9609-44.7266Q35.2051-44.7266 35.498-44.6289Q35.791-44.5312 36.084-44.3848L54.1016-34.668L67.2363-42.0898Q68.0176-42.5293 68.5791-42.3096Q69.1406-42.0898 69.2871-41.4795Q69.4336-40.8691 68.8965-40.2344L55.6641-23.0469Q54.9805-22.2656 54.1992-22.2656Q53.6621-22.2656 53.0273-22.6074L35.0586-32.3242L21.8262-24.8535Q21.1426-24.4629 20.5566-24.6826Q19.9707-24.9023 19.7998-25.4883Q19.6289-26.0742 20.166-26.7578Z"/>
  </g>
  <g id="Ultralight-S" transform="matrix(1 0 0 1 515.644 696)">
   <path class="multicolor-0:tintColor hierarchical-0:tertiary SFSymbolsPreview007AFF" d="M44.043 2.00195Q51.7578 2.00195 58.4717-0.878906Q65.1855-3.75977 70.3369-8.91113Q75.4883-14.0625 78.3936-20.7764Q81.2988-27.4902 81.2988-35.2051Q81.2988-42.9199 78.3936-49.6338Q75.4883-56.3477 70.3369-61.499Q65.1855-66.6504 58.4717-69.5312Q51.7578-72.4121 44.043-72.4121Q36.377-72.4121 29.6387-69.5312Q22.9004-66.6504 17.7734-61.499Q12.6465-56.3477 9.74121-49.6338Q6.83594-42.9199 6.83594-35.2051Q6.83594-27.4902 9.74121-20.7764Q12.6465-14.0625 17.7734-8.91113Q22.9004-3.75977 29.6387-0.878906Q36.377 2.00195 44.043 2.00195Z"/>
   <path class="multicolor-1:white hierarchical-1:primary SFSymbolsPreviewFFFFFF" d="M20.1172-26.4648L33.4961-43.6035Q33.9355-44.0918 34.5215-44.0918Q34.668-44.0918 34.8633-44.043Q35.0586-43.9941 35.2539-43.9453L53.6133-33.9844L66.748-41.5527Q67.3828-41.8945 67.7979-41.748Q68.2129-41.6016 68.2861-41.1377Q68.3594-40.6738 67.9688-40.1855L54.7363-23.0469Q54.2969-22.5586 53.7598-22.5586Q53.3203-22.5586 52.9297-22.7539L34.668-32.666L21.3867-25.0488Q20.8008-24.7559 20.3613-24.9023Q19.9219-25.0488 19.8242-25.4883Q19.7266-25.9277 20.1172-26.4648Z"/>
  </g>
 </g>
</svg>
