<?xml version="1.0" encoding="UTF-8"?>
<!--Generator: Apple Native CoreSVG 149-->
<!DOCTYPE svg
PUBLIC "-//W3C//DTD SVG 1.1//EN"
       "http://www.w3.org/Graphics/SVG/1.1/DTD/svg11.dtd">
<svg version="1.1" xmlns="http://www.w3.org/2000/svg" xmlns:xlink="http://www.w3.org/1999/xlink" width="3300" height="2200">
 <!--glyph: "uni1007FF.medium", point size: 100.0, font version: "17.0d8e1", template writer version: "58"-->
 <g id="Notes">
  <rect height="2200" id="artboard" style="fill:white;opacity:1" width="3300" x="0" y="0"/>
  <line style="fill:none;stroke:black;opacity:1;stroke-width:0.5;" x1="263" x2="3036" y1="292" y2="292"/>
  <text style="stroke:none;fill:black;font-family:SF Pro,SF Pro Display,SF Pro Text,sans-serif;font-size:13;font-weight:bold;" transform="matrix(1 0 0 1 263 322)">Weight/Scale Variations</text>
  <text style="stroke:none;fill:black;font-family:SF Pro,SF Pro Display,SF Pro Text,sans-serif;font-size:13;text-anchor:middle;" transform="matrix(1 0 0 1 559.711 322)">Ultralight</text>
  <text style="stroke:none;fill:black;font-family:SF Pro,SF Pro Display,SF Pro Text,sans-serif;font-size:13;text-anchor:middle;" transform="matrix(1 0 0 1 856.422 322)">Thin</text>
  <text style="stroke:none;fill:black;font-family:SF Pro,SF Pro Display,SF Pro Text,sans-serif;font-size:13;text-anchor:middle;" transform="matrix(1 0 0 1 1153.13 322)">Light</text>
  <text style="stroke:none;fill:black;font-family:SF Pro,SF Pro Display,SF Pro Text,sans-serif;font-size:13;text-anchor:middle;" transform="matrix(1 0 0 1 1449.84 322)">Regular</text>
  <text style="stroke:none;fill:black;font-family:SF Pro,SF Pro Display,SF Pro Text,sans-serif;font-size:13;text-anchor:middle;" transform="matrix(1 0 0 1 1746.56 322)">Medium</text>
  <text style="stroke:none;fill:black;font-family:SF Pro,SF Pro Display,SF Pro Text,sans-serif;font-size:13;text-anchor:middle;" transform="matrix(1 0 0 1 2043.27 322)">Semibold</text>
  <text style="stroke:none;fill:black;font-family:SF Pro,SF Pro Display,SF Pro Text,sans-serif;font-size:13;text-anchor:middle;" transform="matrix(1 0 0 1 2339.98 322)">Bold</text>
  <text style="stroke:none;fill:black;font-family:SF Pro,SF Pro Display,SF Pro Text,sans-serif;font-size:13;text-anchor:middle;" transform="matrix(1 0 0 1 2636.69 322)">Heavy</text>
  <text style="stroke:none;fill:black;font-family:SF Pro,SF Pro Display,SF Pro Text,sans-serif;font-size:13;text-anchor:middle;" transform="matrix(1 0 0 1 2933.4 322)">Black</text>
  <line style="fill:none;stroke:black;opacity:1;stroke-width:0.5;" x1="263" x2="3036" y1="1903" y2="1903"/>
  <g transform="matrix(1 0 0 1 263 1933)">
   <path d="M9.24805 0.830078Q10.8691 0.830078 12.2949 0.214844Q13.7207-0.400391 14.8096-1.49414Q15.8984-2.58789 16.5186-4.01367Q17.1387-5.43945 17.1387-7.05078Q17.1387-8.66211 16.5186-10.0879Q15.8984-11.5137 14.8047-12.6074Q13.7109-13.7012 12.2852-14.3164Q10.8594-14.9316 9.23828-14.9316Q7.62695-14.9316 6.20117-14.3164Q4.77539-13.7012 3.69141-12.6074Q2.60742-11.5137 1.9873-10.0879Q1.36719-8.66211 1.36719-7.05078Q1.36719-5.43945 1.9873-4.01367Q2.60742-2.58789 3.69629-1.49414Q4.78516-0.400391 6.21094 0.214844Q7.63672 0.830078 9.24805 0.830078ZM9.24805-0.654297Q7.91992-0.654297 6.7627-1.14746Q5.60547-1.64062 4.73145-2.51953Q3.85742-3.39844 3.36426-4.56055Q2.87109-5.72266 2.87109-7.05078Q2.87109-8.37891 3.35938-9.54102Q3.84766-10.7031 4.72168-11.582Q5.5957-12.4609 6.75293-12.9541Q7.91016-13.4473 9.23828-13.4473Q10.5762-13.4473 11.7334-12.9541Q12.8906-12.4609 13.7695-11.582Q14.6484-10.7031 15.1465-9.54102Q15.6445-8.37891 15.6445-7.05078Q15.6445-5.72266 15.1514-4.56055Q14.6582-3.39844 13.7842-2.51953Q12.9102-1.64062 11.748-1.14746Q10.5859-0.654297 9.24805-0.654297ZM5.83984-7.04102Q5.83984-6.71875 6.04492-6.51855Q6.25-6.31836 6.5918-6.31836L8.50586-6.31836L8.50586-4.39453Q8.50586-4.0625 8.70605-3.85742Q8.90625-3.65234 9.22852-3.65234Q9.56055-3.65234 9.76562-3.85742Q9.9707-4.0625 9.9707-4.39453L9.9707-6.31836L11.8945-6.31836Q12.2266-6.31836 12.4316-6.51855Q12.6367-6.71875 12.6367-7.04102Q12.6367-7.37305 12.4316-7.57812Q12.2266-7.7832 11.8945-7.7832L9.9707-7.7832L9.9707-9.69727Q9.9707-10.0391 9.76562-10.2441Q9.56055-10.4492 9.22852-10.4492Q8.90625-10.4492 8.70605-10.2441Q8.50586-10.0391 8.50586-9.69727L8.50586-7.7832L6.5918-7.7832Q6.25-7.7832 6.04492-7.57812Q5.83984-7.37305 5.83984-7.04102Z"/>
  </g>
  <g transform="matrix(1 0 0 1 281.867 1933)">
   <path d="M11.709 2.91016Q13.75 2.91016 15.5518 2.12891Q17.3535 1.34766 18.7305-0.0292969Q20.1074-1.40625 20.8887-3.20801Q21.6699-5.00977 21.6699-7.05078Q21.6699-9.0918 20.8887-10.8936Q20.1074-12.6953 18.7305-14.0723Q17.3535-15.4492 15.5469-16.2305Q13.7402-17.0117 11.6992-17.0117Q9.6582-17.0117 7.85645-16.2305Q6.05469-15.4492 4.68262-14.0723Q3.31055-12.6953 2.5293-10.8936Q1.74805-9.0918 1.74805-7.05078Q1.74805-5.00977 2.5293-3.20801Q3.31055-1.40625 4.6875-0.0292969Q6.06445 1.34766 7.86621 2.12891Q9.66797 2.91016 11.709 2.91016ZM11.709 1.25Q9.98047 1.25 8.47656 0.605469Q6.97266-0.0390625 5.83496-1.17676Q4.69727-2.31445 4.05762-3.81836Q3.41797-5.32227 3.41797-7.05078Q3.41797-8.7793 4.05762-10.2832Q4.69727-11.7871 5.83008-12.9297Q6.96289-14.0723 8.4668-14.7119Q9.9707-15.3516 11.6992-15.3516Q13.4277-15.3516 14.9316-14.7119Q16.4355-14.0723 17.5781-12.9297Q18.7207-11.7871 19.3652-10.2832Q20.0098-8.7793 20.0098-7.05078Q20.0098-5.32227 19.3701-3.81836Q18.7305-2.31445 17.5928-1.17676Q16.4551-0.0390625 14.9463 0.605469Q13.4375 1.25 11.709 1.25ZM7.39258-7.04102Q7.39258-6.68945 7.62695-6.46484Q7.86133-6.24023 8.23242-6.24023L10.8789-6.24023L10.8789-3.57422Q10.8789-3.21289 11.1035-2.9834Q11.3281-2.75391 11.6797-2.75391Q12.0508-2.75391 12.2852-2.9834Q12.5195-3.21289 12.5195-3.57422L12.5195-6.24023L15.1758-6.24023Q15.5371-6.24023 15.7715-6.46484Q16.0059-6.68945 16.0059-7.04102Q16.0059-7.41211 15.7715-7.6416Q15.5371-7.87109 15.1758-7.87109L12.5195-7.87109L12.5195-10.5176Q12.5195-10.8984 12.2852-11.1279Q12.0508-11.3574 11.6797-11.3574Q11.3281-11.3574 11.1035-11.1279Q10.8789-10.8984 10.8789-10.5176L10.8789-7.87109L8.23242-7.87109Q7.85156-7.87109 7.62207-7.6416Q7.39258-7.41211 7.39258-7.04102Z"/>
  </g>
  <g transform="matrix(1 0 0 1 305.646 1933)">
   <path d="M14.9707 5.66406Q17.0605 5.66406 18.96 5.01465Q20.8594 4.36523 22.4512 3.19336Q24.043 2.02148 25.2197 0.429688Q26.3965-1.16211 27.0459-3.06641Q27.6953-4.9707 27.6953-7.05078Q27.6953-9.14062 27.0459-11.04Q26.3965-12.9395 25.2197-14.5312Q24.043-16.123 22.4512-17.2998Q20.8594-18.4766 18.9551-19.126Q17.0508-19.7754 14.9609-19.7754Q12.8711-19.7754 10.9717-19.126Q9.07227-18.4766 7.48535-17.2998Q5.89844-16.123 4.72168-14.5312Q3.54492-12.9395 2.90039-11.04Q2.25586-9.14062 2.25586-7.05078Q2.25586-4.9707 2.90527-3.06641Q3.55469-1.16211 4.72656 0.429688Q5.89844 2.02148 7.49023 3.19336Q9.08203 4.36523 10.9814 5.01465Q12.8809 5.66406 14.9707 5.66406ZM14.9707 3.84766Q13.1641 3.84766 11.5283 3.2959Q9.89258 2.74414 8.53516 1.74805Q7.17773 0.751953 6.17676-0.610352Q5.17578-1.97266 4.62891-3.6084Q4.08203-5.24414 4.08203-7.05078Q4.08203-8.86719 4.62891-10.5029Q5.17578-12.1387 6.17188-13.501Q7.16797-14.8633 8.52539-15.8594Q9.88281-16.8555 11.5186-17.4023Q13.1543-17.9492 14.9609-17.9492Q16.7773-17.9492 18.4131-17.4023Q20.0488-16.8555 21.4111-15.8594Q22.7734-14.8633 23.7695-13.501Q24.7656-12.1387 25.3174-10.5029Q25.8691-8.86719 25.8691-7.05078Q25.8789-5.24414 25.332-3.6084Q24.7852-1.97266 23.7842-0.610352Q22.7832 0.751953 21.4209 1.74805Q20.0586 2.74414 18.4229 3.2959Q16.7871 3.84766 14.9707 3.84766ZM9.45312-7.04102Q9.45312-6.66016 9.71191-6.41113Q9.9707-6.16211 10.3711-6.16211L14.0625-6.16211L14.0625-2.46094Q14.0625-2.06055 14.3115-1.80664Q14.5605-1.55273 14.9414-1.55273Q15.3516-1.55273 15.6055-1.80664Q15.8594-2.06055 15.8594-2.46094L15.8594-6.16211L19.5605-6.16211Q19.9609-6.16211 20.2148-6.41113Q20.4688-6.66016 20.4688-7.04102Q20.4688-7.45117 20.2148-7.70508Q19.9609-7.95898 19.5605-7.95898L15.8594-7.95898L15.8594-11.6504Q15.8594-12.0605 15.6055-12.3145Q15.3516-12.5684 14.9414-12.5684Q14.5605-12.5684 14.3115-12.3096Q14.0625-12.0508 14.0625-11.6504L14.0625-7.95898L10.3711-7.95898Q9.96094-7.95898 9.70703-7.70508Q9.45312-7.45117 9.45312-7.04102Z"/>
  </g>
  <text style="stroke:none;fill:black;font-family:SF Pro,SF Pro Display,SF Pro Text,sans-serif;font-size:13;font-weight:bold;" transform="matrix(1 0 0 1 263 1953)">Design Variations</text>
  <text style="stroke:none;fill:black;font-family:SF Pro,SF Pro Display,SF Pro Text,sans-serif;font-size:13;" transform="matrix(1 0 0 1 263 1971)">Symbols are supported in up to nine weights and three scales.</text>
  <text style="stroke:none;fill:black;font-family:SF Pro,SF Pro Display,SF Pro Text,sans-serif;font-size:13;" transform="matrix(1 0 0 1 263 1989)">For optimal layout with text and other symbols, vertically align</text>
  <text style="stroke:none;fill:black;font-family:SF Pro,SF Pro Display,SF Pro Text,sans-serif;font-size:13;" transform="matrix(1 0 0 1 263 2007)">symbols with the adjacent text.</text>
  <line style="fill:none;stroke:#00AEEF;stroke-width:0.5;opacity:1.0;" x1="776" x2="776" y1="1919" y2="1933"/>
  <g transform="matrix(1 0 0 1 776 1933)">
   <path d="M3.31055 0.15625Q3.70117 0.15625 3.91602-0.00976562Q4.13086-0.175781 4.26758-0.585938L5.52734-4.0332L11.2891-4.0332L12.5488-0.585938Q12.6855-0.175781 12.9004-0.00976562Q13.1152 0.15625 13.4961 0.15625Q13.8867 0.15625 14.1162-0.0585938Q14.3457-0.273438 14.3457-0.644531Q14.3457-0.869141 14.2383-1.17188L9.6582-13.3691Q9.48242-13.8184 9.17969-14.043Q8.87695-14.2676 8.4082-14.2676Q7.5-14.2676 7.17773-13.3789L2.59766-1.16211Q2.49023-0.859375 2.49023-0.634766Q2.49023-0.263672 2.70996-0.0537109Q2.92969 0.15625 3.31055 0.15625ZM6.00586-5.51758L8.37891-12.0898L8.42773-12.0898L10.8008-5.51758Z"/>
  </g>
  <line style="fill:none;stroke:#00AEEF;stroke-width:0.5;opacity:1.0;" x1="793.197" x2="793.197" y1="1919" y2="1933"/>
  <text style="stroke:none;fill:black;font-family:SF Pro,SF Pro Display,SF Pro Text,sans-serif;font-size:13;font-weight:bold;" transform="matrix(1 0 0 1 776 1953)">Margins</text>
  <text style="stroke:none;fill:black;font-family:SF Pro,SF Pro Display,SF Pro Text,sans-serif;font-size:13;" transform="matrix(1 0 0 1 776 1971)">Leading and trailing margins on the left and right side of each symbol</text>
  <text style="stroke:none;fill:black;font-family:SF Pro,SF Pro Display,SF Pro Text,sans-serif;font-size:13;" transform="matrix(1 0 0 1 776 1989)">can be adjusted by modifying the x-location of the margin guidelines.</text>
  <text style="stroke:none;fill:black;font-family:SF Pro,SF Pro Display,SF Pro Text,sans-serif;font-size:13;" transform="matrix(1 0 0 1 776 2007)">Modifications are automatically applied proportionally to all</text>
  <text style="stroke:none;fill:black;font-family:SF Pro,SF Pro Display,SF Pro Text,sans-serif;font-size:13;" transform="matrix(1 0 0 1 776 2025)">scales and weights.</text>
  <g transform="matrix(1 0 0 1 1289 1933)">
   <path d="M2.8418 1.86523L4.54102 3.57422Q5.18555 4.22852 5.90332 4.17969Q6.62109 4.13086 7.31445 3.35938L18.0078-8.42773L17.041-9.4043L6.42578 2.27539Q6.16211 2.57812 5.89355 2.61719Q5.625 2.65625 5.27344 2.30469L4.10156 1.14258Q3.75 0.791016 3.79395 0.522461Q3.83789 0.253906 4.14062-0.0195312L15.6152-10.8203L14.6387-11.7871L3.04688-0.898438Q2.30469-0.214844 2.25098 0.498047Q2.19727 1.21094 2.8418 1.86523ZM9.25781-16.3281Q8.94531-16.0254 8.90625-15.6348Q8.86719-15.2441 9.04297-14.9512Q9.21875-14.6777 9.55566-14.541Q9.89258-14.4043 10.3809-14.5215Q11.4746-14.7754 12.5977-14.7314Q13.7207-14.6875 14.7949-13.9844L14.209-12.5293Q13.9551-11.9043 14.0674-11.4404Q14.1797-10.9766 14.5801-10.5664L16.875-8.25195Q17.2363-7.88086 17.5781-7.82227Q17.9199-7.76367 18.3398-7.8418L19.4043-8.03711L20.0684-7.36328L20.0293-6.80664Q20-6.43555 20.1221-6.12305Q20.2441-5.81055 20.6055-5.44922L21.3672-4.70703Q21.7285-4.3457 22.1533-4.33105Q22.5781-4.31641 22.9297-4.66797L25.8398-7.58789Q26.1914-7.93945 26.1816-8.35449Q26.1719-8.76953 25.8105-9.13086L25.0391-9.89258Q24.6875-10.2539 24.3799-10.3857Q24.0723-10.5176 23.7109-10.4883L23.1348-10.4395L22.4902-11.0742L22.7344-12.1973Q22.832-12.6172 22.6953-12.9834Q22.5586-13.3496 22.1191-13.7891L19.9219-15.9766Q18.6719-17.2168 17.2607-17.8369Q15.8496-18.457 14.4189-18.4814Q12.9883-18.5059 11.665-17.959Q10.3418-17.4121 9.25781-16.3281ZM10.752-15.957Q11.6602-16.6211 12.7002-16.9043Q13.7402-17.1875 14.8047-17.085Q15.8691-16.9824 16.8701-16.5137Q17.8711-16.0449 18.7012-15.2051L21.1328-12.793Q21.3086-12.6172 21.3525-12.4512Q21.3965-12.2852 21.3379-12.0312L21.0156-10.5469L22.5195-9.0625L23.5059-9.12109Q23.6914-9.13086 23.7891-9.09668Q23.8867-9.0625 24.0332-8.91602L24.6094-8.33984L22.168-5.89844L21.5918-6.47461Q21.4453-6.62109 21.4062-6.71875Q21.3672-6.81641 21.377-7.01172L21.4453-7.98828L19.9512-9.47266L18.4277-9.21875Q18.1836-9.16992 18.042-9.2041Q17.9004-9.23828 17.7148-9.41406L15.7129-11.416Q15.5176-11.5918 15.4932-11.7529Q15.4688-11.9141 15.5859-12.1875L16.4648-14.2773Q15.293-15.3711 13.8281-15.791Q12.3633-16.2109 10.8398-15.7617Q10.7227-15.7324 10.6885-15.8057Q10.6543-15.8789 10.752-15.957Z"/>
  </g>
  <text style="stroke:none;fill:black;font-family:SF Pro,SF Pro Display,SF Pro Text,sans-serif;font-size:13;font-weight:bold;" transform="matrix(1 0 0 1 1289 1953)">Exporting</text>
  <text style="stroke:none;fill:black;font-family:SF Pro,SF Pro Display,SF Pro Text,sans-serif;font-size:13;" transform="matrix(1 0 0 1 1289 1971)">Symbols should be outlined when exporting to ensure the</text>
  <text style="stroke:none;fill:black;font-family:SF Pro,SF Pro Display,SF Pro Text,sans-serif;font-size:13;" transform="matrix(1 0 0 1 1289 1989)">design is preserved when submitting to Xcode.</text>
  <text id="template-version" style="stroke:none;fill:black;font-family:SF Pro,SF Pro Display,SF Pro Text,sans-serif;font-size:13;text-anchor:end;" transform="matrix(1 0 0 1 3036 1933)">Template v.3.0</text>
  <text style="stroke:none;fill:black;font-family:SF Pro,SF Pro Display,SF Pro Text,sans-serif;font-size:13;text-anchor:end;" transform="matrix(1 0 0 1 3036 1951)">Requires Xcode 13 or greater</text>
  <text id="descriptive-name" style="stroke:none;fill:black;font-family:SF Pro,SF Pro Display,SF Pro Text,sans-serif;font-size:13;text-anchor:end;" transform="matrix(1 0 0 1 3036 1969)">Generated from wallet.pass.fill</text>
  <text style="stroke:none;fill:black;font-family:SF Pro,SF Pro Display,SF Pro Text,sans-serif;font-size:13;text-anchor:end;" transform="matrix(1 0 0 1 3036 1987)">Typeset at 100 points</text>
  <text style="stroke:none;fill:black;font-family:SF Pro,SF Pro Display,SF Pro Text,sans-serif;font-size:13;" transform="matrix(1 0 0 1 263 726)">Small</text>
  <text style="stroke:none;fill:black;font-family:SF Pro,SF Pro Display,SF Pro Text,sans-serif;font-size:13;" transform="matrix(1 0 0 1 263 1156)">Medium</text>
  <text style="stroke:none;fill:black;font-family:SF Pro,SF Pro Display,SF Pro Text,sans-serif;font-size:13;" transform="matrix(1 0 0 1 263 1586)">Large</text>
 </g>
 <g id="Guides">
  <g id="H-reference" style="fill:#27AAE1;stroke:none;" transform="matrix(1 0 0 1 339 696)">
   <path d="M0.976562 0L3.66211 0L29.3457-67.1387L30.0293-67.1387L30.0293-70.459L28.125-70.459ZM11.6699-24.4629L46.9727-24.4629L46.2402-26.709L12.4512-26.709ZM55.127 0L57.7637 0L30.6152-70.459L29.4434-70.459L29.4434-67.1387Z"/>
  </g>
  <line id="Baseline-S" style="fill:none;stroke:#27AAE1;opacity:1;stroke-width:0.5;" x1="263" x2="3036" y1="696" y2="696"/>
  <line id="Capline-S" style="fill:none;stroke:#27AAE1;opacity:1;stroke-width:0.5;" x1="263" x2="3036" y1="625.541" y2="625.541"/>
  <g id="H-reference" style="fill:#27AAE1;stroke:none;" transform="matrix(1 0 0 1 339 1126)">
   <path d="M0.976562 0L3.66211 0L29.3457-67.1387L30.0293-67.1387L30.0293-70.459L28.125-70.459ZM11.6699-24.4629L46.9727-24.4629L46.2402-26.709L12.4512-26.709ZM55.127 0L57.7637 0L30.6152-70.459L29.4434-70.459L29.4434-67.1387Z"/>
  </g>
  <line id="Baseline-M" style="fill:none;stroke:#27AAE1;opacity:1;stroke-width:0.5;" x1="263" x2="3036" y1="1126" y2="1126"/>
  <line id="Capline-M" style="fill:none;stroke:#27AAE1;opacity:1;stroke-width:0.5;" x1="263" x2="3036" y1="1055.54" y2="1055.54"/>
  <g id="H-reference" style="fill:#27AAE1;stroke:none;" transform="matrix(1 0 0 1 339 1556)">
   <path d="M0.976562 0L3.66211 0L29.3457-67.1387L30.0293-67.1387L30.0293-70.459L28.125-70.459ZM11.6699-24.4629L46.9727-24.4629L46.2402-26.709L12.4512-26.709ZM55.127 0L57.7637 0L30.6152-70.459L29.4434-70.459L29.4434-67.1387Z"/>
  </g>
  <line id="Baseline-L" style="fill:none;stroke:#27AAE1;opacity:1;stroke-width:0.5;" x1="263" x2="3036" y1="1556" y2="1556"/>
  <line id="Capline-L" style="fill:none;stroke:#27AAE1;opacity:1;stroke-width:0.5;" x1="263" x2="3036" y1="1485.54" y2="1485.54"/>
  <line id="left-margin-Regular-M" style="fill:none;stroke:#00AEEF;stroke-width:0.5;opacity:1.0;" x1="1396.33" x2="1396.33" y1="1030.79" y2="1150.12"/>
  <line id="right-margin-Regular-M" style="fill:none;stroke:#00AEEF;stroke-width:0.5;opacity:1.0;" x1="1503.36" x2="1503.36" y1="1030.79" y2="1150.12"/>
 </g>
 <g id="Symbols">
  <g id="Black-L" transform="matrix(1 0 0 1 2859.65 1556)">
   <path d="M39.8926 35.2539L107.617 35.2539Q119.043 35.2539 125.244 29.0039Q131.445 22.7539 131.445 11.3281L131.445-81.7383Q131.445-93.2129 125.244-99.4385Q119.043-105.664 107.617-105.664L94.3848-105.664Q91.6992-105.664 90.3076-103.906Q88.916-102.148 88.916-99.8535Q88.916-99.5117 88.916-99.0967Q88.916-98.6816 88.916-98.291Q88.916-94.043 87.085-91.0156Q85.2539-87.9883 81.8604-86.4014Q78.4668-84.8145 73.7793-84.8145Q69.043-84.8145 65.6494-86.4014Q62.2559-87.9883 60.4248-91.0156Q58.5938-94.043 58.5938-98.291Q58.5938-98.6816 58.5938-99.0967Q58.5938-99.5117 58.5938-99.8535Q58.5938-102.148 57.2021-103.906Q55.8105-105.664 53.125-105.664L39.8926-105.664Q28.4668-105.664 22.2656-99.4385Q16.0645-93.2129 16.0645-81.7383L16.0645 11.3281Q16.0645 22.7539 22.2656 29.0039Q28.4668 35.2539 39.8926 35.2539ZM52.9297-52.4902Q50.8789-52.4902 49.5361-53.8574Q48.1934-55.2246 48.1934-57.2266Q48.1934-59.1797 49.5361-60.498Q50.8789-61.8164 52.9297-61.8164L94.5312-61.8164Q96.5332-61.8164 97.876-60.498Q99.2188-59.1797 99.2188-57.2266Q99.2188-55.2246 97.876-53.8574Q96.5332-52.4902 94.5312-52.4902ZM52.9297-30.6152Q50.8789-30.6152 49.5361-31.9336Q48.1934-33.252 48.1934-35.2051Q48.1934-37.207 49.5361-38.5742Q50.8789-39.9414 52.9297-39.9414L74.6582-39.9414Q76.709-39.9414 78.0273-38.5742Q79.3457-37.207 79.3457-35.2051Q79.3457-33.252 78.0273-31.9336Q76.709-30.6152 74.6582-30.6152Z"/>
  </g>
  <g id="Heavy-L" transform="matrix(1 0 0 1 2564.18 1556)">
   <path d="M38.7207 34.5215L106.299 34.5215Q117.236 34.5215 123.096 28.6133Q128.955 22.7051 128.955 11.7188L128.955-82.1289Q128.955-93.1641 123.096-99.0479Q117.236-104.932 106.299-104.932L92.2852-104.932Q89.8926-104.932 88.6475-103.369Q87.4023-101.807 87.4023-99.707Q87.4023-99.4141 87.4023-99.0479Q87.4023-98.6816 87.4023-98.3398Q87.4023-94.1406 85.5957-91.1377Q83.7891-88.1348 80.4443-86.5479Q77.0996-84.9609 72.5586-84.9609Q67.9199-84.9609 64.5752-86.5479Q61.2305-88.1348 59.4238-91.1377Q57.6172-94.1406 57.6172-98.3398Q57.6172-98.6816 57.6172-99.0479Q57.6172-99.4141 57.6172-99.707Q57.6172-101.807 56.3721-103.369Q55.127-104.932 52.7344-104.932L38.7207-104.932Q27.7832-104.932 21.9238-99.0479Q16.0645-93.1641 16.0645-82.1289L16.0645 11.7188Q16.0645 22.7051 21.9238 28.6133Q27.7832 34.5215 38.7207 34.5215ZM50.8301-53.5156Q48.9258-53.5156 47.6562-54.8096Q46.3867-56.1035 46.3867-57.959Q46.3867-59.8145 47.6562-61.0352Q48.9258-62.2559 50.8301-62.2559L94.1406-62.2559Q96.0449-62.2559 97.29-61.0352Q98.5352-59.8145 98.5352-57.959Q98.5352-56.1035 97.29-54.8096Q96.0449-53.5156 94.1406-53.5156ZM50.8301-31.4453Q48.9258-31.4453 47.6562-32.6904Q46.3867-33.9355 46.3867-35.7422Q46.3867-37.5977 47.6562-38.8916Q48.9258-40.1855 50.8301-40.1855L72.9492-40.1855Q74.8535-40.1855 76.0986-38.8916Q77.3438-37.5977 77.3438-35.7422Q77.3438-33.9355 76.0986-32.6904Q74.8535-31.4453 72.9492-31.4453Z"/>
  </g>
  <g id="Bold-L" transform="matrix(1 0 0 1 2268.86 1556)">
   <path d="M37.4023 33.6914L104.883 33.6914Q115.234 33.6914 120.703 28.1738Q126.172 22.6562 126.172 12.207L126.172-82.6172Q126.172-93.1152 120.728-98.6084Q115.283-104.102 104.883-104.102L89.9414-104.102Q87.9395-104.102 86.8164-102.783Q85.6934-101.465 85.6934-99.5605Q85.6934-99.3164 85.6934-99.0234Q85.6934-98.7305 85.6934-98.4375Q85.6934-94.2871 83.9111-91.2842Q82.1289-88.2812 78.8574-86.6943Q75.5859-85.1074 71.1426-85.1074Q66.6992-85.1074 63.4277-86.6943Q60.1562-88.2812 58.3496-91.2842Q56.543-94.2871 56.543-98.4375Q56.543-98.7305 56.543-99.0234Q56.543-99.3164 56.543-99.5605Q56.543-101.465 55.4443-102.783Q54.3457-104.102 52.2949-104.102L37.4023-104.102Q27.002-104.102 21.5332-98.6084Q16.0645-93.1152 16.0645-82.6172L16.0645 12.207Q16.0645 22.6562 21.5332 28.1738Q27.002 33.6914 37.4023 33.6914ZM48.5352-54.6875Q46.7285-54.6875 45.5811-55.8838Q44.4336-57.0801 44.4336-58.7891Q44.4336-60.498 45.5811-61.6455Q46.7285-62.793 48.5352-62.793L93.75-62.793Q95.459-62.793 96.6309-61.6455Q97.8027-60.498 97.8027-58.7891Q97.8027-57.0801 96.6309-55.8838Q95.459-54.6875 93.75-54.6875ZM48.5352-32.373Q46.7285-32.373 45.5811-33.5205Q44.4336-34.668 44.4336-36.377Q44.4336-38.0859 45.5811-39.2578Q46.7285-40.4297 48.5352-40.4297L71.0938-40.4297Q72.8516-40.4297 73.999-39.2578Q75.1465-38.0859 75.1465-36.377Q75.1465-34.668 73.999-33.5205Q72.8516-32.373 71.0938-32.373Z"/>
  </g>
  <g id="Semibold-L" transform="matrix(1 0 0 1 1973.1 1556)">
   <path d="M36.4746 33.1055L103.857 33.1055Q113.867 33.1055 119.067 27.8564Q124.268 22.6074 124.268 12.5488L124.268-82.959Q124.268-93.0664 119.067-98.291Q113.867-103.516 103.857-103.516L88.3301-103.516Q86.5234-103.516 85.5225-102.344Q84.5215-101.172 84.5215-99.4629Q84.5215-99.2676 84.5215-98.999Q84.5215-98.7305 84.5215-98.4375Q84.5215-94.3848 82.7393-91.3818Q80.957-88.3789 77.7344-86.792Q74.5117-85.2051 70.166-85.2051Q65.8203-85.2051 62.5977-86.792Q59.375-88.3789 57.5928-91.3818Q55.8105-94.3848 55.8105-98.4375Q55.8105-98.7305 55.8105-98.999Q55.8105-99.2676 55.8105-99.4629Q55.8105-101.172 54.7852-102.344Q53.7598-103.516 52.002-103.516L36.4746-103.516Q26.416-103.516 21.2402-98.291Q16.0645-93.0664 16.0645-82.959L16.0645 12.5488Q16.0645 22.6074 21.2646 27.8564Q26.4648 33.1055 36.4746 33.1055ZM46.9238-55.4688Q45.2148-55.4688 44.1162-56.5918Q43.0176-57.7148 43.0176-59.375Q43.0176-60.9375 44.1162-62.0361Q45.2148-63.1348 46.9238-63.1348L93.457-63.1348Q95.0684-63.1348 96.167-62.0361Q97.2656-60.9375 97.2656-59.375Q97.2656-57.7148 96.167-56.5918Q95.0684-55.4688 93.457-55.4688ZM46.9238-33.0078Q45.2148-33.0078 44.1162-34.1064Q43.0176-35.2051 43.0176-36.7676Q43.0176-38.3789 44.1162-39.502Q45.2148-40.625 46.9238-40.625L69.7754-40.625Q71.4355-40.625 72.5098-39.502Q73.584-38.3789 73.584-36.7676Q73.584-35.2051 72.5098-34.1064Q71.4355-33.0078 69.7754-33.0078Z"/>
  </g>
  <g id="Medium-L" transform="matrix(1 0 0 1 1677.12 1556)">
   <path d="M35.791 32.666L103.076 32.666Q112.793 32.666 117.798 27.6123Q122.803 22.5586 122.803 12.793L122.803-83.2031Q122.803-93.0176 117.822-98.0469Q112.842-103.076 103.076-103.076L87.1094-103.076Q85.498-103.076 84.5703-102.026Q83.6426-100.977 83.6426-99.3652Q83.6426-99.1699 83.6426-98.9502Q83.6426-98.7305 83.6426-98.4863Q83.6426-94.4336 81.8604-91.4551Q80.0781-88.4766 76.8799-86.8652Q73.6816-85.2539 69.4336-85.2539Q65.1367-85.2539 61.9629-86.8652Q58.7891-88.4766 57.0068-91.4551Q55.2246-94.4336 55.2246-98.4863Q55.2246-98.7305 55.2246-98.9502Q55.2246-99.1699 55.2246-99.3652Q55.2246-100.977 54.2969-102.026Q53.3691-103.076 51.7578-103.076L35.791-103.076Q26.0254-103.076 21.0449-98.0469Q16.0645-93.0176 16.0645-83.2031L16.0645 12.793Q16.0645 22.5586 21.0693 27.6123Q26.0742 32.666 35.791 32.666ZM45.7031-56.1035Q44.0918-56.1035 43.042-57.1777Q41.9922-58.252 41.9922-59.7656Q41.9922-61.2793 43.042-62.3291Q44.0918-63.3789 45.7031-63.3789L93.2617-63.3789Q94.7754-63.3789 95.8252-62.3291Q96.875-61.2793 96.875-59.7656Q96.875-58.252 95.8252-57.1777Q94.7754-56.1035 93.2617-56.1035ZM45.7031-33.4961Q44.0918-33.4961 43.042-34.5459Q41.9922-35.5957 41.9922-37.1094Q41.9922-38.623 43.042-39.6729Q44.0918-40.7227 45.7031-40.7227L68.75-40.7227Q70.3613-40.7227 71.3867-39.6729Q72.4121-38.623 72.4121-37.1094Q72.4121-35.5957 71.3867-34.5459Q70.3613-33.4961 68.75-33.4961Z"/>
  </g>
  <g id="Regular-L" transform="matrix(1 0 0 1 1381.36 1556)">
   <path d="M34.8633 32.0801L102.1 32.0801Q111.426 32.0801 116.162 27.2949Q120.898 22.5098 120.898 13.0859L120.898-83.4961Q120.898-92.9688 116.187-97.7295Q111.475-102.49 102.1-102.49L85.498-102.49Q84.1309-102.49 83.3008-101.611Q82.4707-100.732 82.4707-99.2676Q82.4707-99.1211 82.4707-98.9258Q82.4707-98.7305 82.4707-98.5352Q82.4707-94.5312 80.7129-91.5527Q78.9551-88.5742 75.8057-86.9629Q72.6562-85.3516 68.5059-85.3516Q64.3066-85.3516 61.1572-86.9629Q58.0078-88.5742 56.25-91.5527Q54.4922-94.5312 54.4922-98.5352Q54.4922-98.7305 54.4922-98.9258Q54.4922-99.1211 54.4922-99.2676Q54.4922-100.732 53.6621-101.611Q52.832-102.49 51.4648-102.49L34.8633-102.49Q25.4883-102.49 20.7764-97.7295Q16.0645-92.9688 16.0645-83.4961L16.0645 13.0859Q16.0645 22.5098 20.8008 27.2949Q25.5371 32.0801 34.8633 32.0801ZM44.0918-56.8848Q42.5781-56.8848 41.6016-57.8857Q40.625-58.8867 40.625-60.3516Q40.625-61.7676 41.6016-62.7441Q42.5781-63.7207 44.0918-63.7207L92.9688-63.7207Q94.3848-63.7207 95.3613-62.7441Q96.3379-61.7676 96.3379-60.3516Q96.3379-58.8867 95.3613-57.8857Q94.3848-56.8848 92.9688-56.8848ZM44.0918-34.1309Q42.5781-34.1309 41.6016-35.1074Q40.625-36.084 40.625-37.5Q40.625-38.916 41.6016-39.917Q42.5781-40.918 44.0918-40.918L67.4805-40.918Q68.9453-40.918 69.9219-39.917Q70.8984-38.916 70.8984-37.5Q70.8984-36.084 69.9219-35.1074Q68.9453-34.1309 67.4805-34.1309Z"/>
  </g>
  <g id="Light-L" transform="matrix(1 0 0 1 1085.43 1556)">
   <path d="M33.8867 31.7383L101.514 31.7383Q110.254 31.7383 114.795 27.1973Q119.336 22.6562 119.336 13.8184L119.336-84.1309Q119.336-93.0664 114.844-97.583Q110.352-102.1 101.514-102.1L84.1309-102.1Q83.1055-102.1 82.4707-101.44Q81.8359-100.781 81.8359-99.6582Q81.8359-99.5605 81.8359-99.4141Q81.8359-99.2676 81.8359-99.1211Q81.8359-95.166 80.0537-92.1387Q78.2715-89.1113 75.0732-87.4268Q71.875-85.7422 67.7246-85.7422Q63.5254-85.7422 60.3516-87.4268Q57.1777-89.1113 55.3711-92.1387Q53.5645-95.166 53.5645-99.1211Q53.5645-99.2676 53.5645-99.4141Q53.5645-99.5605 53.5645-99.6582Q53.5645-100.781 52.9297-101.44Q52.2949-102.1 51.2695-102.1L33.8867-102.1Q25.0488-102.1 20.5566-97.583Q16.0645-93.0664 16.0645-84.1309L16.0645 13.8184Q16.0645 22.6562 20.6055 27.1973Q25.1465 31.7383 33.8867 31.7383ZM42.5781-58.3008Q41.3574-58.3008 40.5762-59.082Q39.7949-59.8633 39.7949-61.0352Q39.7949-62.207 40.5762-62.9883Q41.3574-63.7695 42.5781-63.7695L92.9199-63.7695Q94.043-63.7695 94.8486-62.9883Q95.6543-62.207 95.6543-61.0352Q95.6543-59.8633 94.8486-59.082Q94.043-58.3008 92.9199-58.3008ZM42.5781-35.0098Q41.3574-35.0098 40.5762-35.791Q39.7949-36.5723 39.7949-37.6953Q39.7949-38.8672 40.5762-39.6729Q41.3574-40.4785 42.5781-40.4785L66.9922-40.4785Q68.2129-40.4785 68.9941-39.6729Q69.7754-38.8672 69.7754-37.6953Q69.7754-36.5723 68.9941-35.791Q68.2129-35.0098 66.9922-35.0098Z"/>
  </g>
  <g id="Thin-L" transform="matrix(1 0 0 1 789.747 1556)">
   <path d="M32.666 31.3477L100.732 31.3477Q108.74 31.3477 113.013 27.124Q117.285 22.9004 117.285 14.7461L117.285-84.9609Q117.285-93.1641 113.086-97.3633Q108.887-101.562 100.732-101.562L82.3242-101.562Q81.7383-101.562 81.3721-101.172Q81.0059-100.781 81.0059-100.195Q81.0059-100.098 81.0059-100.024Q81.0059-99.9512 81.0059-99.8535Q81.0059-95.9961 79.1748-92.9199Q77.3438-89.8438 74.0967-88.0615Q70.8496-86.2793 66.6992-86.2793Q62.5-86.2793 59.2773-88.0615Q56.0547-89.8438 54.1992-92.9199Q52.3438-95.9961 52.3438-99.8535Q52.3438-99.9512 52.3438-100.024Q52.3438-100.098 52.3438-100.195Q52.3438-100.781 52.002-101.172Q51.6602-101.562 51.0254-101.562L32.666-101.562Q24.5117-101.562 20.2881-97.3633Q16.0645-93.1641 16.0645-84.9609L16.0645 14.7461Q16.0645 22.9004 20.3369 27.124Q24.6094 31.3477 32.666 31.3477ZM40.5762-60.1074Q39.7461-60.1074 39.209-60.6201Q38.6719-61.1328 38.6719-61.9629Q38.6719-62.8418 39.209-63.3545Q39.7461-63.8672 40.5762-63.8672L92.8711-63.8672Q93.6523-63.8672 94.1895-63.3545Q94.7266-62.8418 94.7266-61.9629Q94.7266-61.1328 94.1895-60.6201Q93.6523-60.1074 92.8711-60.1074ZM40.5762-36.1816Q39.7461-36.1816 39.209-36.7188Q38.6719-37.2559 38.6719-37.9883Q38.6719-38.7695 39.209-39.3066Q39.7461-39.8438 40.5762-39.8438L66.4062-39.8438Q67.2363-39.8438 67.7734-39.3066Q68.3105-38.7695 68.3105-37.9883Q68.3105-37.2559 67.7734-36.7188Q67.2363-36.1816 66.4062-36.1816Z"/>
  </g>
  <g id="Ultralight-L" transform="matrix(1 0 0 1 493.573 1556)">
   <path d="M31.9824 31.1035L100.342 31.1035Q107.959 31.1035 112.085 27.0508Q116.211 22.998 116.211 15.2344L116.211-85.4004Q116.211-93.2129 112.158-97.2656Q108.105-101.318 100.342-101.318L81.3965-101.318Q81.0547-101.318 80.835-101.074Q80.6152-100.83 80.6152-100.439Q80.6152-100.391 80.6152-100.366Q80.6152-100.342 80.6152-100.244Q80.6152-96.4355 78.7354-93.3105Q76.8555-90.1855 73.6084-88.3545Q70.3613-86.5234 66.1621-86.5234Q61.9629-86.5234 58.7158-88.3545Q55.4688-90.1855 53.5889-93.3105Q51.709-96.4355 51.709-100.244Q51.709-100.342 51.709-100.366Q51.709-100.391 51.709-100.439Q51.709-100.83 51.4893-101.074Q51.2695-101.318 50.9277-101.318L31.9824-101.318Q24.2188-101.318 20.1416-97.2656Q16.0645-93.2129 16.0645-85.4004L16.0645 15.2344Q16.0645 22.998 20.2148 27.0508Q24.3652 31.1035 31.9824 31.1035ZM39.5508-61.084Q38.916-61.084 38.501-61.4502Q38.0859-61.8164 38.0859-62.4512Q38.0859-63.1348 38.501-63.5254Q38.916-63.916 39.5508-63.916L92.8223-63.916Q93.4082-63.916 93.8232-63.5254Q94.2383-63.1348 94.2383-62.4512Q94.2383-61.8164 93.8232-61.4502Q93.4082-61.084 92.8223-61.084ZM39.5508-36.7676Q38.916-36.7676 38.501-37.1826Q38.0859-37.5977 38.0859-38.1348Q38.0859-38.7207 38.501-39.1357Q38.916-39.5508 39.5508-39.5508L66.0645-39.5508Q66.6992-39.5508 67.1387-39.1357Q67.5781-38.7207 67.5781-38.1348Q67.5781-37.5977 67.1387-37.1826Q66.6992-36.7676 66.0645-36.7676Z"/>
  </g>
  <g id="Black-M" transform="matrix(1 0 0 1 2875.44 1126)">
   <path d="M31.5918 19.9219L84.3262 19.9219Q93.4082 19.9219 98.4375 14.8682Q103.467 9.81445 103.467 0.732422L103.467-71.1426Q103.467-80.2246 98.4375-85.2783Q93.4082-90.332 84.3262-90.332L74.5117-90.332Q72.2168-90.332 71.0938-88.8428Q69.9707-87.3535 69.9707-85.5469Q69.9707-85.2539 69.9707-84.9121Q69.9707-84.5703 69.9707-84.2285Q69.9707-79.248 66.7969-76.4648Q63.623-73.6816 57.959-73.6816Q52.2949-73.6816 49.1211-76.4648Q45.9473-79.248 45.9473-84.2285Q45.9473-84.5703 45.9473-84.9121Q45.9473-85.2539 45.9473-85.5469Q45.9473-87.3535 44.8242-88.8428Q43.7012-90.332 41.4551-90.332L31.5918-90.332Q22.5098-90.332 17.4805-85.2783Q12.4512-80.2246 12.4512-71.1426L12.4512 0.732422Q12.4512 9.81445 17.4805 14.8682Q22.5098 19.9219 31.5918 19.9219ZM42.2852-48.1445Q40.7227-48.1445 39.6484-49.2188Q38.5742-50.293 38.5742-51.9043Q38.5742-53.418 39.6484-54.4434Q40.7227-55.4688 42.2852-55.4688L73.584-55.4688Q75.0977-55.4688 76.1719-54.4434Q77.2461-53.418 77.2461-51.9043Q77.2461-50.293 76.1719-49.2188Q75.0977-48.1445 73.584-48.1445ZM42.2852-31.2012Q40.7227-31.2012 39.6484-32.2266Q38.5742-33.252 38.5742-34.8145Q38.5742-36.377 39.6484-37.4512Q40.7227-38.5254 42.2852-38.5254L59.1797-38.5254Q60.7422-38.5254 61.792-37.4512Q62.8418-36.377 62.8418-34.8145Q62.8418-33.252 61.792-32.2266Q60.7422-31.2012 59.1797-31.2012Z"/>
  </g>
  <g id="Heavy-M" transform="matrix(1 0 0 1 2579.78 1126)">
   <path d="M30.6641 19.2383L83.1543 19.2383Q91.8945 19.2383 96.6309 14.4775Q101.367 9.7168 101.367 0.976562L101.367-71.3867Q101.367-80.1758 96.6309-84.9365Q91.8945-89.6973 83.1543-89.6973L72.7539-89.6973Q70.7031-89.6973 69.6533-88.3545Q68.6035-87.0117 68.6035-85.3516Q68.6035-85.0586 68.6035-84.7656Q68.6035-84.4727 68.6035-84.1797Q68.6035-79.248 65.5029-76.4893Q62.4023-73.7305 56.9336-73.7305Q51.4648-73.7305 48.3398-76.4893Q45.2148-79.248 45.2148-84.1797Q45.2148-84.4727 45.2148-84.7656Q45.2148-85.0586 45.2148-85.3516Q45.2148-87.0117 44.165-88.3545Q43.1152-89.6973 41.1133-89.6973L30.6641-89.6973Q21.9238-89.6973 17.1875-84.9365Q12.4512-80.1758 12.4512-71.3867L12.4512 0.976562Q12.4512 9.7168 17.1875 14.4775Q21.9238 19.2383 30.6641 19.2383ZM40.5762-48.877Q39.0625-48.877 38.0371-49.9023Q37.0117-50.9277 37.0117-52.4902Q37.0117-53.9062 38.0371-54.9072Q39.0625-55.9082 40.5762-55.9082L73.2422-55.9082Q74.707-55.9082 75.708-54.9072Q76.709-53.9062 76.709-52.4902Q76.709-50.9277 75.708-49.9023Q74.707-48.877 73.2422-48.877ZM40.5762-31.8359Q39.0625-31.8359 38.0371-32.8125Q37.0117-33.7891 37.0117-35.3027Q37.0117-36.7676 38.0371-37.8174Q39.0625-38.8672 40.5762-38.8672L57.6172-38.8672Q59.1309-38.8672 60.1318-37.8174Q61.1328-36.7676 61.1328-35.3027Q61.1328-33.7891 60.1318-32.8125Q59.1309-31.8359 57.6172-31.8359Z"/>
  </g>
  <g id="Bold-M" transform="matrix(1 0 0 1 2284.24 1126)">
   <path d="M29.5898 18.5059L81.8848 18.5059Q90.2344 18.5059 94.6289 14.0625Q99.0234 9.61914 99.0234 1.26953L99.0234-71.7285Q99.0234-80.0781 94.6289-84.5215Q90.2344-88.9648 81.8848-88.9648L70.8008-88.9648Q68.9941-88.9648 68.0664-87.8174Q67.1387-86.6699 67.1387-85.1074Q67.1387-84.9121 67.1387-84.6436Q67.1387-84.375 67.1387-84.1309Q67.1387-79.248 64.0625-76.5137Q60.9863-73.7793 55.7617-73.7793Q50.4883-73.7793 47.4365-76.5137Q44.3848-79.248 44.3848-84.1309Q44.3848-84.375 44.3848-84.6436Q44.3848-84.9121 44.3848-85.1074Q44.3848-86.6699 43.4326-87.8174Q42.4805-88.9648 40.7227-88.9648L29.5898-88.9648Q21.2891-88.9648 16.8701-84.5215Q12.4512-80.0781 12.4512-71.7285L12.4512 1.26953Q12.4512 9.61914 16.8701 14.0625Q21.2891 18.5059 29.5898 18.5059ZM38.6719-49.707Q37.207-49.707 36.2549-50.6836Q35.3027-51.6602 35.3027-53.125Q35.3027-54.4922 36.2549-55.4443Q37.207-56.3965 38.6719-56.3965L72.8516-56.3965Q74.2188-56.3965 75.1953-55.4443Q76.1719-54.4922 76.1719-53.125Q76.1719-51.6602 75.1953-50.6836Q74.2188-49.707 72.8516-49.707ZM38.6719-32.5684Q37.207-32.5684 36.2549-33.4961Q35.3027-34.4238 35.3027-35.8398Q35.3027-37.2559 36.2549-38.2324Q37.207-39.209 38.6719-39.209L55.8594-39.209Q57.3242-39.209 58.2764-38.2324Q59.2285-37.2559 59.2285-35.8398Q59.2285-34.4238 58.2764-33.4961Q57.3242-32.5684 55.8594-32.5684Z"/>
  </g>
  <g id="Semibold-M" transform="matrix(1 0 0 1 1988.34 1126)">
   <path d="M28.8574 17.9688L81.0059 17.9688Q89.0625 17.9688 93.2373 13.7695Q97.4121 9.57031 97.4121 1.46484L97.4121-71.9238Q97.4121-80.0293 93.2373-84.2529Q89.0625-88.4766 81.0059-88.4766L69.4336-88.4766Q67.8223-88.4766 66.9434-87.4512Q66.0645-86.4258 66.0645-84.9609Q66.0645-84.7656 66.0645-84.5215Q66.0645-84.2773 66.0645-84.082Q66.0645-79.248 63.0371-76.5137Q60.0098-73.7793 54.9316-73.7793Q49.8535-73.7793 46.8262-76.5137Q43.7988-79.248 43.7988-84.082Q43.7988-84.2773 43.7988-84.5215Q43.7988-84.7656 43.7988-84.9609Q43.7988-86.4258 42.9199-87.4512Q42.041-88.4766 40.4785-88.4766L28.8574-88.4766Q20.8008-88.4766 16.626-84.2529Q12.4512-80.0293 12.4512-71.9238L12.4512 1.46484Q12.4512 9.57031 16.626 13.7695Q20.8008 17.9688 28.8574 17.9688ZM37.3047-50.2441Q35.9375-50.2441 35.0098-51.1963Q34.082-52.1484 34.082-53.5156Q34.082-54.8828 35.0098-55.7861Q35.9375-56.6895 37.3047-56.6895L72.5586-56.6895Q73.877-56.6895 74.8047-55.7861Q75.7324-54.8828 75.7324-53.5156Q75.7324-52.1484 74.8047-51.1963Q73.877-50.2441 72.5586-50.2441ZM37.3047-33.0566Q35.9375-33.0566 35.0098-33.96Q34.082-34.8633 34.082-36.2305Q34.082-37.5977 35.0098-38.5254Q35.9375-39.4531 37.3047-39.4531L54.6387-39.4531Q56.0547-39.4531 56.958-38.5254Q57.8613-37.5977 57.8613-36.2305Q57.8613-34.8633 56.958-33.96Q56.0547-33.0566 54.6387-33.0566Z"/>
  </g>
  <g id="Medium-M" transform="matrix(1 0 0 1 1692.23 1126)">
   <path d="M28.3203 17.5781L80.3223 17.5781Q88.1836 17.5781 92.1875 13.5254Q96.1914 9.47266 96.1914 1.61133L96.1914-72.0703Q96.1914-79.9805 92.1875-84.0332Q88.1836-88.0859 80.3223-88.0859L68.4082-88.0859Q66.9434-88.0859 66.1133-87.1582Q65.2832-86.2305 65.2832-84.8145Q65.2832-84.668 65.2832-84.4482Q65.2832-84.2285 65.2832-84.0332Q65.2832-79.248 62.2803-76.5137Q59.2773-73.7793 54.2969-73.7793Q49.3164-73.7793 46.3379-76.5137Q43.3594-79.248 43.3594-84.0332Q43.3594-84.2285 43.3594-84.4482Q43.3594-84.668 43.3594-84.8145Q43.3594-86.2305 42.5293-87.1582Q41.6992-88.0859 40.2344-88.0859L28.3203-88.0859Q20.459-88.0859 16.4551-84.0332Q12.4512-79.9805 12.4512-72.0703L12.4512 1.61133Q12.4512 9.47266 16.4551 13.5254Q20.459 17.5781 28.3203 17.5781ZM36.3281-50.6836Q34.9609-50.6836 34.0576-51.5869Q33.1543-52.4902 33.1543-53.8574Q33.1543-55.1758 34.0576-56.0547Q34.9609-56.9336 36.3281-56.9336L72.3633-56.9336Q73.6328-56.9336 74.5361-56.0547Q75.4395-55.1758 75.4395-53.8574Q75.4395-52.4902 74.5361-51.5869Q73.6328-50.6836 72.3633-50.6836ZM36.3281-33.3984Q34.9609-33.3984 34.0576-34.2773Q33.1543-35.1562 33.1543-36.4746Q33.1543-37.8418 34.0576-38.7451Q34.9609-39.6484 36.3281-39.6484L53.7109-39.6484Q55.0781-39.6484 55.9814-38.7451Q56.8848-37.8418 56.8848-36.4746Q56.8848-35.1562 55.9814-34.2773Q55.0781-33.3984 53.7109-33.3984Z"/>
  </g>
  <g id="Regular-M" transform="matrix(1 0 0 1 1396.33 1126)">
   <path d="M27.5879 17.0898L79.4434 17.0898Q87.0117 17.0898 90.7959 13.2568Q94.5801 9.42383 94.5801 1.80664L94.5801-72.2656Q94.5801-79.9316 90.7959-83.7646Q87.0117-87.5977 79.4434-87.5977L67.041-87.5977Q65.7715-87.5977 65.0146-86.792Q64.2578-85.9863 64.2578-84.668Q64.2578-84.5215 64.2578-84.3262Q64.2578-84.1309 64.2578-83.9844Q64.2578-79.248 61.3037-76.5381Q58.3496-73.8281 53.5156-73.8281Q48.6816-73.8281 45.7275-76.5381Q42.7734-79.248 42.7734-83.9844Q42.7734-84.1309 42.7734-84.3262Q42.7734-84.5215 42.7734-84.668Q42.7734-85.9863 42.0166-86.792Q41.2598-87.5977 39.9902-87.5977L27.5879-87.5977Q20.0195-87.5977 16.2354-83.7646Q12.4512-79.9316 12.4512-72.2656L12.4512 1.80664Q12.4512 9.42383 16.2354 13.2568Q20.0195 17.0898 27.5879 17.0898ZM35.0098-51.2207Q33.6914-51.2207 32.8369-52.0996Q31.9824-52.9785 31.9824-54.2969Q31.9824-55.5664 32.8369-56.4209Q33.6914-57.2754 35.0098-57.2754L72.0703-57.2754Q73.3398-57.2754 74.1943-56.4209Q75.0488-55.5664 75.0488-54.2969Q75.0488-52.9785 74.1943-52.0996Q73.3398-51.2207 72.0703-51.2207ZM35.0098-33.8867Q33.6914-33.8867 32.8369-34.7412Q31.9824-35.5957 31.9824-36.8652Q31.9824-38.1348 32.8369-39.0137Q33.6914-39.8926 35.0098-39.8926L52.5391-39.8926Q53.8574-39.8926 54.7119-39.0137Q55.5664-38.1348 55.5664-36.8652Q55.5664-35.5957 54.7119-34.7412Q53.8574-33.8867 52.5391-33.8867Z"/>
  </g>
  <g id="Light-M" transform="matrix(1 0 0 1 1100.33 1126)">
   <path d="M26.709 16.7969L78.9062 16.7969Q85.9863 16.7969 89.5752 13.1836Q93.1641 9.57031 93.1641 2.44141L93.1641-72.8516Q93.1641-80.0293 89.5996-83.6426Q86.0352-87.2559 78.9062-87.2559L65.8203-87.2559Q64.8438-87.2559 64.2822-86.6455Q63.7207-86.0352 63.7207-85.0098Q63.7207-84.9121 63.7207-84.7656Q63.7207-84.6191 63.7207-84.5215Q63.7207-79.834 60.6934-77.002Q57.666-74.1699 52.832-74.1699Q47.9492-74.1699 44.9463-77.002Q41.9434-79.834 41.9434-84.5215Q41.9434-84.6191 41.9434-84.7656Q41.9434-84.9121 41.9434-85.0098Q41.9434-86.0352 41.3574-86.6455Q40.7715-87.2559 39.8438-87.2559L26.709-87.2559Q19.6289-87.2559 16.04-83.6426Q12.4512-80.0293 12.4512-72.8516L12.4512 2.44141Q12.4512 9.57031 16.0645 13.1836Q19.6777 16.7969 26.709 16.7969ZM33.6426-52.4414Q32.6172-52.4414 31.9092-53.1494Q31.2012-53.8574 31.2012-54.9316Q31.2012-55.957 31.9092-56.6406Q32.6172-57.3242 33.6426-57.3242L72.0215-57.3242Q73.0469-57.3242 73.7305-56.6406Q74.4141-55.957 74.4141-54.9316Q74.4141-53.8574 73.7305-53.1494Q73.0469-52.4414 72.0215-52.4414ZM33.6426-34.668Q32.6172-34.668 31.9092-35.3516Q31.2012-36.0352 31.2012-37.0605Q31.2012-38.0859 31.9092-38.7939Q32.6172-39.502 33.6426-39.502L52.1484-39.502Q53.1738-39.502 53.8818-38.7939Q54.5898-38.0859 54.5898-37.0605Q54.5898-36.0352 53.8818-35.3516Q53.1738-34.668 52.1484-34.668Z"/>
  </g>
  <g id="Thin-M" transform="matrix(1 0 0 1 804.518 1126)">
   <path d="M25.5859 16.4551L78.2227 16.4551Q84.6191 16.4551 87.9883 13.1104Q91.3574 9.76562 91.3574 3.27148L91.3574-73.584Q91.3574-80.127 88.0127-83.4473Q84.668-86.7676 78.2227-86.7676L64.209-86.7676Q63.623-86.7676 63.2812-86.4014Q62.9395-86.0352 62.9395-85.498Q62.9395-85.4004 62.9395-85.3271Q62.9395-85.2539 62.9395-85.1562Q62.9395-80.6152 59.8633-77.6367Q56.7871-74.6582 51.9043-74.6582Q47.0215-74.6582 43.9209-77.6367Q40.8203-80.6152 40.8203-85.1562Q40.8203-85.2539 40.8203-85.3271Q40.8203-85.4004 40.8203-85.498Q40.8203-86.0352 40.5029-86.4014Q40.1855-86.7676 39.5996-86.7676L25.5859-86.7676Q19.0918-86.7676 15.7715-83.4473Q12.4512-80.127 12.4512-73.584L12.4512 3.27148Q12.4512 9.76562 15.8203 13.1104Q19.1895 16.4551 25.5859 16.4551ZM31.8848-54.1016Q31.1523-54.1016 30.6641-54.5654Q30.1758-55.0293 30.1758-55.7617Q30.1758-56.4941 30.6641-56.958Q31.1523-57.4219 31.8848-57.4219L72.0215-57.4219Q72.6562-57.4219 73.1201-56.958Q73.584-56.4941 73.584-55.7617Q73.584-55.0293 73.1201-54.5654Q72.6562-54.1016 72.0215-54.1016ZM31.8848-35.6934Q31.1523-35.6934 30.6641-36.1816Q30.1758-36.6699 30.1758-37.3047Q30.1758-37.9883 30.6641-38.4766Q31.1523-38.9648 31.8848-38.9648L51.6113-38.9648Q52.2949-38.9648 52.7832-38.4766Q53.2715-37.9883 53.2715-37.3047Q53.2715-36.6699 52.7832-36.1816Q52.2949-35.6934 51.6113-35.6934Z"/>
  </g>
  <g id="Ultralight-M" transform="matrix(1 0 0 1 508.295 1126)">
   <path d="M25 16.2598L77.832 16.2598Q83.9355 16.2598 87.1582 13.0615Q90.3809 9.86328 90.3809 3.71094L90.3809-73.9746Q90.3809-80.1758 87.207-83.374Q84.0332-86.5723 77.832-86.5723L63.3789-86.5723Q62.9883-86.5723 62.793-86.3281Q62.5977-86.084 62.5977-85.6934Q62.5977-85.6445 62.5977-85.6201Q62.5977-85.5957 62.5977-85.5469Q62.5977-81.0059 59.4482-77.9541Q56.2988-74.9023 51.416-74.9023Q46.5332-74.9023 43.4082-77.9541Q40.2832-81.0059 40.2832-85.5469Q40.2832-85.5957 40.2832-85.6201Q40.2832-85.6445 40.2832-85.6934Q40.2832-86.084 40.0635-86.3281Q39.8438-86.5723 39.502-86.5723L25-86.5723Q18.8477-86.5723 15.6494-83.374Q12.4512-80.1758 12.4512-73.9746L12.4512 3.71094Q12.4512 9.86328 15.6982 13.0615Q18.9453 16.2598 25 16.2598ZM30.957-54.9316Q30.4199-54.9316 30.0537-55.2734Q29.6875-55.6152 29.6875-56.1523Q29.6875-56.7871 30.0537-57.1289Q30.4199-57.4707 30.957-57.4707L71.9727-57.4707Q72.4609-57.4707 72.8271-57.1289Q73.1934-56.7871 73.1934-56.1523Q73.1934-55.6152 72.8271-55.2734Q72.4609-54.9316 71.9727-54.9316ZM30.957-36.2305Q30.4199-36.2305 30.0537-36.5967Q29.6875-36.9629 29.6875-37.4512Q29.6875-37.9395 30.0537-38.3057Q30.4199-38.6719 30.957-38.6719L51.3184-38.6719Q51.8555-38.6719 52.2461-38.3057Q52.6367-37.9395 52.6367-37.4512Q52.6367-36.9629 52.2461-36.5967Q51.8555-36.2305 51.3184-36.2305Z"/>
  </g>
  <g id="Black-S" transform="matrix(1 0 0 1 2887.7 696)">
   <path d="M25 8.1543L66.4062 8.1543Q73.584 8.1543 77.6123 4.12598Q81.6406 0.0976562 81.6406-7.08008L81.6406-63.3301Q81.6406-70.5078 77.6123-74.5361Q73.584-78.5645 66.4062-78.5645L58.8379-78.5645Q57.0312-78.5645 56.1279-77.3682Q55.2246-76.1719 55.2246-74.7559Q55.2246-74.5117 55.2246-74.2188Q55.2246-73.9258 55.2246-73.6816Q55.2246-69.7754 52.71-67.5781Q50.1953-65.3809 45.7031-65.3809Q41.2109-65.3809 38.6963-67.5781Q36.1816-69.7754 36.1816-73.6816Q36.1816-73.9258 36.1816-74.2188Q36.1816-74.5117 36.1816-74.7559Q36.1816-76.1719 35.3027-77.3682Q34.4238-78.5645 32.5684-78.5645L25-78.5645Q17.8223-78.5645 13.7939-74.5361Q9.76562-70.5078 9.76562-63.3301L9.76562-7.08008Q9.76562 0.0976562 13.7939 4.12598Q17.8223 8.1543 25 8.1543ZM33.5938-45.2148Q32.373-45.2148 31.5186-46.0693Q30.6641-46.9238 30.6641-48.1445Q30.6641-49.3652 31.5186-50.1709Q32.373-50.9766 33.5938-50.9766L57.7637-50.9766Q58.9844-50.9766 59.8145-50.1709Q60.6445-49.3652 60.6445-48.1445Q60.6445-46.9238 59.8145-46.0693Q58.9844-45.2148 57.7637-45.2148ZM33.5938-31.9336Q32.373-31.9336 31.5186-32.7393Q30.6641-33.5449 30.6641-34.7656Q30.6641-36.0352 31.5186-36.8652Q32.373-37.6953 33.5938-37.6953L46.8262-37.6953Q48.0957-37.6953 48.9014-36.8652Q49.707-36.0352 49.707-34.7656Q49.707-33.5449 48.9014-32.7393Q48.0957-31.9336 46.8262-31.9336Z"/>
  </g>
  <g id="Heavy-S" transform="matrix(1 0 0 1 2591.79 696)">
   <path d="M24.3164 7.61719L65.4785 7.61719Q72.4121 7.61719 76.2207 3.80859Q80.0293 0 80.0293-6.93359L80.0293-63.4766Q80.0293-70.459 76.2207-74.2676Q72.4121-78.0762 65.4785-78.0762L57.4707-78.0762Q55.8594-78.0762 55.0049-76.9775Q54.1504-75.8789 54.1504-74.5117Q54.1504-74.3164 54.1504-74.0479Q54.1504-73.7793 54.1504-73.584Q54.1504-69.6777 51.6846-67.5293Q49.2188-65.3809 44.873-65.3809Q40.5762-65.3809 38.1104-67.5293Q35.6445-69.6777 35.6445-73.584Q35.6445-73.7793 35.6445-74.0479Q35.6445-74.3164 35.6445-74.5117Q35.6445-75.8789 34.8145-76.9775Q33.9844-78.0762 32.2754-78.0762L24.3164-78.0762Q17.3828-78.0762 13.5742-74.2676Q9.76562-70.459 9.76562-63.4766L9.76562-6.93359Q9.76562 0 13.5742 3.80859Q17.3828 7.61719 24.3164 7.61719ZM32.3242-45.6543Q31.1035-45.6543 30.2734-46.5088Q29.4434-47.3633 29.4434-48.5352Q29.4434-49.7559 30.2734-50.5371Q31.1035-51.3184 32.3242-51.3184L57.4707-51.3184Q58.6426-51.3184 59.4727-50.5371Q60.3027-49.7559 60.3027-48.5352Q60.3027-47.3633 59.4727-46.5088Q58.6426-45.6543 57.4707-45.6543ZM32.3242-32.373Q31.1035-32.373 30.2734-33.1543Q29.4434-33.9355 29.4434-35.1562Q29.4434-36.377 30.2734-37.207Q31.1035-38.0371 32.3242-38.0371L45.5566-38.0371Q46.7773-38.0371 47.583-37.207Q48.3887-36.377 48.3887-35.1562Q48.3887-33.9355 47.583-33.1543Q46.7773-32.373 45.5566-32.373Z"/>
  </g>
  <g id="Bold-S" transform="matrix(1 0 0 1 2295.98 696)">
   <path d="M23.5352 7.03125L64.4531 7.03125Q71.1426 7.03125 74.6826 3.44238Q78.2227-0.146484 78.2227-6.83594L78.2227-63.6719Q78.2227-70.3613 74.6826-73.9258Q71.1426-77.4902 64.4531-77.4902L56.0059-77.4902Q54.541-77.4902 53.7354-76.5381Q52.9297-75.5859 52.9297-74.2676Q52.9297-74.0723 52.9297-73.8525Q52.9297-73.6328 52.9297-73.4375Q52.9297-69.6289 50.5371-67.4805Q48.1445-65.332 43.9941-65.332Q39.8926-65.332 37.4756-67.4805Q35.0586-69.6289 35.0586-73.4375Q35.0586-73.6328 35.0586-73.8525Q35.0586-74.0723 35.0586-74.2676Q35.0586-75.5859 34.2773-76.5381Q33.4961-77.4902 31.9824-77.4902L23.5352-77.4902Q16.8457-77.4902 13.3057-73.9258Q9.76562-70.3613 9.76562-63.6719L9.76562-6.83594Q9.76562-0.146484 13.3057 3.44238Q16.8457 7.03125 23.5352 7.03125ZM30.8594-46.1914Q29.6875-46.1914 28.8818-47.0215Q28.0762-47.8516 28.0762-49.0234Q28.0762-50.1953 28.8818-50.9521Q29.6875-51.709 30.8594-51.709L57.1289-51.709Q58.3008-51.709 59.1064-50.9521Q59.9121-50.1953 59.9121-49.0234Q59.9121-47.8516 59.1064-47.0215Q58.3008-46.1914 57.1289-46.1914ZM30.8594-32.8613Q29.6875-32.8613 28.8818-33.6426Q28.0762-34.4238 28.0762-35.5957Q28.0762-36.8164 28.8818-37.6221Q29.6875-38.4277 30.8594-38.4277L44.1406-38.4277Q45.3125-38.4277 46.0938-37.6221Q46.875-36.8164 46.875-35.5957Q46.875-34.4238 46.0938-33.6426Q45.3125-32.8613 44.1406-32.8613Z"/>
  </g>
  <g id="Semibold-S" transform="matrix(1 0 0 1 1999.88 696)">
   <path d="M22.9492 6.64062L63.7207 6.64062Q70.2148 6.64062 73.6084 3.22266Q77.002-0.195312 77.002-6.68945L77.002-63.7695Q77.002-70.3125 73.6084-73.7061Q70.2148-77.0996 63.7207-77.0996L54.9316-77.0996Q53.6133-77.0996 52.8564-76.2451Q52.0996-75.3906 52.0996-74.0723Q52.0996-73.9258 52.0996-73.7305Q52.0996-73.5352 52.0996-73.3398Q52.0996-69.5312 49.7314-67.4316Q47.3633-65.332 43.3594-65.332Q39.3555-65.332 36.9873-67.4316Q34.6191-69.5312 34.6191-73.3398Q34.6191-73.5352 34.6191-73.7305Q34.6191-73.9258 34.6191-74.0723Q34.6191-75.3906 33.8867-76.2451Q33.1543-77.0996 31.7871-77.0996L22.9492-77.0996Q16.5039-77.0996 13.1348-73.7061Q9.76562-70.3125 9.76562-63.7695L9.76562-6.68945Q9.76562-0.195312 13.1348 3.22266Q16.5039 6.64062 22.9492 6.64062ZM29.8828-46.5332Q28.6621-46.5332 27.8809-47.3389Q27.0996-48.1445 27.0996-49.3164Q27.0996-50.4883 27.8809-51.2207Q28.6621-51.9531 29.8828-51.9531L56.8848-51.9531Q58.0566-51.9531 58.8379-51.2207Q59.6191-50.4883 59.6191-49.3164Q59.6191-48.1445 58.8379-47.3389Q58.0566-46.5332 56.8848-46.5332ZM29.8828-33.2031Q28.6621-33.2031 27.8809-33.9844Q27.0996-34.7656 27.0996-35.8887Q27.0996-37.0605 27.8809-37.8662Q28.6621-38.6719 29.8828-38.6719L43.1152-38.6719Q44.2871-38.6719 45.0684-37.8662Q45.8496-37.0605 45.8496-35.8887Q45.8496-34.7656 45.0684-33.9844Q44.2871-33.2031 43.1152-33.2031Z"/>
  </g>
  <g id="Medium-S" transform="matrix(1 0 0 1 1703.66 696)">
   <path d="M22.5586 6.29883L63.1836 6.29883Q69.5312 6.29883 72.7783 3.02734Q76.0254-0.244141 76.0254-6.64062L76.0254-63.8672Q76.0254-70.2637 72.7783-73.5352Q69.5312-76.8066 63.1836-76.8066L54.1504-76.8066Q52.9297-76.8066 52.1973-76.001Q51.4648-75.1953 51.4648-73.9746Q51.4648-73.7793 51.4648-73.6084Q51.4648-73.4375 51.4648-73.291Q51.4648-69.4824 49.1211-67.3828Q46.7773-65.2832 42.9199-65.2832Q39.0137-65.2832 36.6455-67.3828Q34.2773-69.4824 34.2773-73.291Q34.2773-73.4375 34.2773-73.6084Q34.2773-73.7793 34.2773-73.9746Q34.2773-75.1953 33.5938-76.001Q32.9102-76.8066 31.5918-76.8066L22.5586-76.8066Q16.2109-76.8066 12.9883-73.5352Q9.76562-70.2637 9.76562-63.8672L9.76562-6.64062Q9.76562-0.244141 12.9883 3.02734Q16.2109 6.29883 22.5586 6.29883ZM29.1016-46.8262Q27.9297-46.8262 27.1484-47.6074Q26.3672-48.3887 26.3672-49.5605Q26.3672-50.6836 27.1484-51.4404Q27.9297-52.1973 29.1016-52.1973L56.7383-52.1973Q57.8613-52.1973 58.6426-51.4404Q59.4238-50.6836 59.4238-49.5605Q59.4238-48.3887 58.6426-47.6074Q57.8613-46.8262 56.7383-46.8262ZM29.1016-33.4473Q27.9297-33.4473 27.1484-34.2285Q26.3672-35.0098 26.3672-36.1328Q26.3672-37.2559 27.1484-38.0615Q27.9297-38.8672 29.1016-38.8672L42.3828-38.8672Q43.5547-38.8672 44.3115-38.0615Q45.0684-37.2559 45.0684-36.1328Q45.0684-35.0098 44.3115-34.2285Q43.5547-33.4473 42.3828-33.4473Z"/>
  </g>
  <g id="Regular-S" transform="matrix(1 0 0 1 1407.56 696)">
   <path d="M22.0215 5.9082L62.5 5.9082Q68.6523 5.9082 71.7285 2.7832Q74.8047-0.341797 74.8047-6.54297L74.8047-63.9648Q74.8047-70.2148 71.7285-73.3154Q68.6523-76.416 62.5-76.416L53.125-76.416Q52.002-76.416 51.3184-75.708Q50.6348-75 50.6348-73.7793Q50.6348-73.6328 50.6348-73.4863Q50.6348-73.3398 50.6348-73.1934Q50.6348-69.4336 48.3398-67.3584Q46.0449-65.2832 42.2852-65.2832Q38.5254-65.2832 36.2061-67.3584Q33.8867-69.4336 33.8867-73.1934Q33.8867-73.3398 33.8867-73.4863Q33.8867-73.6328 33.8867-73.7793Q33.8867-75 33.2275-75.708Q32.5684-76.416 31.3965-76.416L22.0215-76.416Q15.8691-76.416 12.8174-73.3154Q9.76562-70.2148 9.76562-63.9648L9.76562-6.54297Q9.76562-0.341797 12.8174 2.7832Q15.8691 5.9082 22.0215 5.9082ZM28.125-47.168Q26.9531-47.168 26.1963-47.9492Q25.4395-48.7305 25.4395-49.8535Q25.4395-50.9766 26.1963-51.709Q26.9531-52.4414 28.125-52.4414L56.4941-52.4414Q57.6172-52.4414 58.374-51.709Q59.1309-50.9766 59.1309-49.8535Q59.1309-48.7305 58.374-47.9492Q57.6172-47.168 56.4941-47.168ZM28.125-33.7891Q26.9531-33.7891 26.1963-34.5459Q25.4395-35.3027 25.4395-36.4258Q25.4395-37.5488 26.1963-38.3301Q26.9531-39.1113 28.125-39.1113L41.4062-39.1113Q42.5293-39.1113 43.2861-38.3301Q44.043-37.5488 44.043-36.4258Q44.043-35.3027 43.2861-34.5459Q42.5293-33.7891 41.4062-33.7891Z"/>
  </g>
  <g id="Light-S" transform="matrix(1 0 0 1 1111.46 696)">
   <path d="M21.2891 5.66406L62.0117 5.66406Q67.7246 5.66406 70.6543 2.73438Q73.584-0.195312 73.584-5.95703L73.584-64.502Q73.584-70.2637 70.6787-73.1934Q67.7734-76.123 62.0117-76.123L52.0508-76.123Q51.1719-76.123 50.6592-75.5615Q50.1465-75 50.1465-74.0723Q50.1465-73.9746 50.1465-73.8525Q50.1465-73.7305 50.1465-73.6328Q50.1465-69.9707 47.8027-67.7979Q45.459-65.625 41.6504-65.625Q37.8906-65.625 35.5225-67.7979Q33.1543-69.9707 33.1543-73.6328Q33.1543-73.7305 33.1543-73.8525Q33.1543-73.9746 33.1543-74.0723Q33.1543-75 32.6416-75.5615Q32.1289-76.123 31.25-76.123L21.2891-76.123Q15.5273-76.123 12.6465-73.1934Q9.76562-70.2637 9.76562-64.502L9.76562-5.95703Q9.76562-0.195312 12.6465 2.73438Q15.5273 5.66406 21.2891 5.66406ZM26.9043-48.291Q25.9766-48.291 25.3662-48.9014Q24.7559-49.5117 24.7559-50.3906Q24.7559-51.3184 25.3662-51.9043Q25.9766-52.4902 26.9043-52.4902L56.4453-52.4902Q57.373-52.4902 57.9834-51.9043Q58.5938-51.3184 58.5938-50.3906Q58.5938-49.5117 57.9834-48.9014Q57.373-48.291 56.4453-48.291ZM26.9043-34.4727Q25.9766-34.4727 25.3662-35.083Q24.7559-35.6934 24.7559-36.5723Q24.7559-37.5 25.3662-38.1104Q25.9766-38.7207 26.9043-38.7207L41.0156-38.7207Q41.9434-38.7207 42.5537-38.1104Q43.1641-37.5 43.1641-36.5723Q43.1641-35.6934 42.5537-35.083Q41.9434-34.4727 41.0156-34.4727Z"/>
  </g>
  <g id="Thin-S" transform="matrix(1 0 0 1 815.577 696)">
   <path d="M20.2637 5.32227L61.4258 5.32227Q66.5527 5.32227 69.2383 2.63672Q71.9238-0.0488281 71.9238-5.22461L71.9238-65.1367Q71.9238-70.3613 69.2627-73.0469Q66.6016-75.7324 61.4258-75.7324L50.5859-75.7324Q50.0977-75.7324 49.7803-75.3906Q49.4629-75.0488 49.4629-74.4629Q49.4629-74.4629 49.4629-74.3652Q49.4629-74.2676 49.4629-74.2676Q49.4629-70.6543 47.0459-68.335Q44.6289-66.0156 40.8203-66.0156Q37.0605-66.0156 34.6191-68.335Q32.1777-70.6543 32.1777-74.2676Q32.1777-74.2676 32.1777-74.3652Q32.1777-74.4629 32.1777-74.4629Q32.1777-75.0488 31.8848-75.3906Q31.5918-75.7324 31.1035-75.7324L20.2637-75.7324Q15.0879-75.7324 12.4268-73.0469Q9.76562-70.3613 9.76562-65.1367L9.76562-5.22461Q9.76562-0.0488281 12.4512 2.63672Q15.1367 5.32227 20.2637 5.32227ZM25.293-49.7559Q24.707-49.7559 24.292-50.1465Q23.877-50.5371 23.877-51.1719Q23.877-51.8066 24.292-52.1973Q24.707-52.5879 25.293-52.5879L56.4453-52.5879Q57.0312-52.5879 57.4219-52.1973Q57.8125-51.8066 57.8125-51.1719Q57.8125-50.5371 57.4219-50.1465Q57.0312-49.7559 56.4453-49.7559ZM25.293-35.4004Q24.707-35.4004 24.292-35.8154Q23.877-36.2305 23.877-36.8164Q23.877-37.4023 24.292-37.8174Q24.707-38.2324 25.293-38.2324L40.5273-38.2324Q41.1621-38.2324 41.5771-37.8174Q41.9922-37.4023 41.9922-36.8164Q41.9922-36.2305 41.5771-35.8154Q41.1621-35.4004 40.5273-35.4004Z"/>
  </g>
  <g id="Ultralight-S" transform="matrix(1 0 0 1 519.281 696)">
   <path d="M19.7754 5.17578L61.084 5.17578Q65.918 5.17578 68.5059 2.6123Q71.0938 0.0488281 71.0938-4.83398L71.0938-65.5273Q71.0938-70.4102 68.5547-72.9492Q66.0156-75.4883 61.084-75.4883L49.8535-75.4883Q49.5605-75.4883 49.3408-75.2686Q49.1211-75.0488 49.1211-74.707Q49.1211-74.6582 49.1211-74.6094Q49.1211-74.5605 49.1211-74.5605Q49.1211-71.0449 46.6797-68.6523Q44.2383-66.2598 40.4297-66.2598Q36.6211-66.2598 34.1553-68.6523Q31.6895-71.0449 31.6895-74.5605Q31.6895-74.5605 31.6895-74.6094Q31.6895-74.6582 31.6895-74.707Q31.6895-75.0488 31.4941-75.2686Q31.2988-75.4883 31.0059-75.4883L19.7754-75.4883Q14.8926-75.4883 12.3291-72.9492Q9.76562-70.4102 9.76562-65.5273L9.76562-4.83398Q9.76562 0.0488281 12.3291 2.6123Q14.8926 5.17578 19.7754 5.17578ZM24.5117-50.4883Q24.0234-50.4883 23.7061-50.7568Q23.3887-51.0254 23.3887-51.5137Q23.3887-52.002 23.7061-52.3193Q24.0234-52.6367 24.5117-52.6367L56.3965-52.6367Q56.8359-52.6367 57.1533-52.3193Q57.4707-52.002 57.4707-51.5137Q57.4707-51.0254 57.1533-50.7568Q56.8359-50.4883 56.3965-50.4883ZM24.5117-35.8887Q24.0234-35.8887 23.7061-36.1816Q23.3887-36.4746 23.3887-36.9141Q23.3887-37.3535 23.7061-37.6709Q24.0234-37.9883 24.5117-37.9883L40.2832-37.9883Q40.7715-37.9883 41.0889-37.6709Q41.4062-37.3535 41.4062-36.9141Q41.4062-36.4746 41.0889-36.1816Q40.7715-35.8887 40.2832-35.8887Z"/>
  </g>
 </g>
</svg>
