<?xml version="1.0" encoding="UTF-8"?>
<!--Generator: Apple Native CoreSVG 149-->
<!DOCTYPE svg
PUBLIC "-//W3C//DTD SVG 1.1//EN"
       "http://www.w3.org/Graphics/SVG/1.1/DTD/svg11.dtd">
<svg version="1.1" xmlns="http://www.w3.org/2000/svg" xmlns:xlink="http://www.w3.org/1999/xlink" width="3300" height="2200">
 <!--glyph: "uni1007FE.medium", point size: 100.0, font version: "17.0d8e1", template writer version: "58"-->
 <g id="Notes">
  <rect height="2200" id="artboard" style="fill:white;opacity:1" width="3300" x="0" y="0"/>
  <line style="fill:none;stroke:black;opacity:1;stroke-width:0.5;" x1="263" x2="3036" y1="292" y2="292"/>
  <text style="stroke:none;fill:black;font-family:SF Pro,SF Pro Display,SF Pro Text,sans-serif;font-size:13;font-weight:bold;" transform="matrix(1 0 0 1 263 322)">Weight/Scale Variations</text>
  <text style="stroke:none;fill:black;font-family:SF Pro,SF Pro Display,SF Pro Text,sans-serif;font-size:13;text-anchor:middle;" transform="matrix(1 0 0 1 559.711 322)">Ultralight</text>
  <text style="stroke:none;fill:black;font-family:SF Pro,SF Pro Display,SF Pro Text,sans-serif;font-size:13;text-anchor:middle;" transform="matrix(1 0 0 1 856.422 322)">Thin</text>
  <text style="stroke:none;fill:black;font-family:SF Pro,SF Pro Display,SF Pro Text,sans-serif;font-size:13;text-anchor:middle;" transform="matrix(1 0 0 1 1153.13 322)">Light</text>
  <text style="stroke:none;fill:black;font-family:SF Pro,SF Pro Display,SF Pro Text,sans-serif;font-size:13;text-anchor:middle;" transform="matrix(1 0 0 1 1449.84 322)">Regular</text>
  <text style="stroke:none;fill:black;font-family:SF Pro,SF Pro Display,SF Pro Text,sans-serif;font-size:13;text-anchor:middle;" transform="matrix(1 0 0 1 1746.56 322)">Medium</text>
  <text style="stroke:none;fill:black;font-family:SF Pro,SF Pro Display,SF Pro Text,sans-serif;font-size:13;text-anchor:middle;" transform="matrix(1 0 0 1 2043.27 322)">Semibold</text>
  <text style="stroke:none;fill:black;font-family:SF Pro,SF Pro Display,SF Pro Text,sans-serif;font-size:13;text-anchor:middle;" transform="matrix(1 0 0 1 2339.98 322)">Bold</text>
  <text style="stroke:none;fill:black;font-family:SF Pro,SF Pro Display,SF Pro Text,sans-serif;font-size:13;text-anchor:middle;" transform="matrix(1 0 0 1 2636.69 322)">Heavy</text>
  <text style="stroke:none;fill:black;font-family:SF Pro,SF Pro Display,SF Pro Text,sans-serif;font-size:13;text-anchor:middle;" transform="matrix(1 0 0 1 2933.4 322)">Black</text>
  <line style="fill:none;stroke:black;opacity:1;stroke-width:0.5;" x1="263" x2="3036" y1="1903" y2="1903"/>
  <g transform="matrix(1 0 0 1 263 1933)">
   <path d="M9.24805 0.830078Q10.8691 0.830078 12.2949 0.214844Q13.7207-0.400391 14.8096-1.49414Q15.8984-2.58789 16.5186-4.01367Q17.1387-5.43945 17.1387-7.05078Q17.1387-8.66211 16.5186-10.0879Q15.8984-11.5137 14.8047-12.6074Q13.7109-13.7012 12.2852-14.3164Q10.8594-14.9316 9.23828-14.9316Q7.62695-14.9316 6.20117-14.3164Q4.77539-13.7012 3.69141-12.6074Q2.60742-11.5137 1.9873-10.0879Q1.36719-8.66211 1.36719-7.05078Q1.36719-5.43945 1.9873-4.01367Q2.60742-2.58789 3.69629-1.49414Q4.78516-0.400391 6.21094 0.214844Q7.63672 0.830078 9.24805 0.830078ZM9.24805-0.654297Q7.91992-0.654297 6.7627-1.14746Q5.60547-1.64062 4.73145-2.51953Q3.85742-3.39844 3.36426-4.56055Q2.87109-5.72266 2.87109-7.05078Q2.87109-8.37891 3.35938-9.54102Q3.84766-10.7031 4.72168-11.582Q5.5957-12.4609 6.75293-12.9541Q7.91016-13.4473 9.23828-13.4473Q10.5762-13.4473 11.7334-12.9541Q12.8906-12.4609 13.7695-11.582Q14.6484-10.7031 15.1465-9.54102Q15.6445-8.37891 15.6445-7.05078Q15.6445-5.72266 15.1514-4.56055Q14.6582-3.39844 13.7842-2.51953Q12.9102-1.64062 11.748-1.14746Q10.5859-0.654297 9.24805-0.654297ZM5.83984-7.04102Q5.83984-6.71875 6.04492-6.51855Q6.25-6.31836 6.5918-6.31836L8.50586-6.31836L8.50586-4.39453Q8.50586-4.0625 8.70605-3.85742Q8.90625-3.65234 9.22852-3.65234Q9.56055-3.65234 9.76562-3.85742Q9.9707-4.0625 9.9707-4.39453L9.9707-6.31836L11.8945-6.31836Q12.2266-6.31836 12.4316-6.51855Q12.6367-6.71875 12.6367-7.04102Q12.6367-7.37305 12.4316-7.57812Q12.2266-7.7832 11.8945-7.7832L9.9707-7.7832L9.9707-9.69727Q9.9707-10.0391 9.76562-10.2441Q9.56055-10.4492 9.22852-10.4492Q8.90625-10.4492 8.70605-10.2441Q8.50586-10.0391 8.50586-9.69727L8.50586-7.7832L6.5918-7.7832Q6.25-7.7832 6.04492-7.57812Q5.83984-7.37305 5.83984-7.04102Z"/>
  </g>
  <g transform="matrix(1 0 0 1 281.867 1933)">
   <path d="M11.709 2.91016Q13.75 2.91016 15.5518 2.12891Q17.3535 1.34766 18.7305-0.0292969Q20.1074-1.40625 20.8887-3.20801Q21.6699-5.00977 21.6699-7.05078Q21.6699-9.0918 20.8887-10.8936Q20.1074-12.6953 18.7305-14.0723Q17.3535-15.4492 15.5469-16.2305Q13.7402-17.0117 11.6992-17.0117Q9.6582-17.0117 7.85645-16.2305Q6.05469-15.4492 4.68262-14.0723Q3.31055-12.6953 2.5293-10.8936Q1.74805-9.0918 1.74805-7.05078Q1.74805-5.00977 2.5293-3.20801Q3.31055-1.40625 4.6875-0.0292969Q6.06445 1.34766 7.86621 2.12891Q9.66797 2.91016 11.709 2.91016ZM11.709 1.25Q9.98047 1.25 8.47656 0.605469Q6.97266-0.0390625 5.83496-1.17676Q4.69727-2.31445 4.05762-3.81836Q3.41797-5.32227 3.41797-7.05078Q3.41797-8.7793 4.05762-10.2832Q4.69727-11.7871 5.83008-12.9297Q6.96289-14.0723 8.4668-14.7119Q9.9707-15.3516 11.6992-15.3516Q13.4277-15.3516 14.9316-14.7119Q16.4355-14.0723 17.5781-12.9297Q18.7207-11.7871 19.3652-10.2832Q20.0098-8.7793 20.0098-7.05078Q20.0098-5.32227 19.3701-3.81836Q18.7305-2.31445 17.5928-1.17676Q16.4551-0.0390625 14.9463 0.605469Q13.4375 1.25 11.709 1.25ZM7.39258-7.04102Q7.39258-6.68945 7.62695-6.46484Q7.86133-6.24023 8.23242-6.24023L10.8789-6.24023L10.8789-3.57422Q10.8789-3.21289 11.1035-2.9834Q11.3281-2.75391 11.6797-2.75391Q12.0508-2.75391 12.2852-2.9834Q12.5195-3.21289 12.5195-3.57422L12.5195-6.24023L15.1758-6.24023Q15.5371-6.24023 15.7715-6.46484Q16.0059-6.68945 16.0059-7.04102Q16.0059-7.41211 15.7715-7.6416Q15.5371-7.87109 15.1758-7.87109L12.5195-7.87109L12.5195-10.5176Q12.5195-10.8984 12.2852-11.1279Q12.0508-11.3574 11.6797-11.3574Q11.3281-11.3574 11.1035-11.1279Q10.8789-10.8984 10.8789-10.5176L10.8789-7.87109L8.23242-7.87109Q7.85156-7.87109 7.62207-7.6416Q7.39258-7.41211 7.39258-7.04102Z"/>
  </g>
  <g transform="matrix(1 0 0 1 305.646 1933)">
   <path d="M14.9707 5.66406Q17.0605 5.66406 18.96 5.01465Q20.8594 4.36523 22.4512 3.19336Q24.043 2.02148 25.2197 0.429688Q26.3965-1.16211 27.0459-3.06641Q27.6953-4.9707 27.6953-7.05078Q27.6953-9.14062 27.0459-11.04Q26.3965-12.9395 25.2197-14.5312Q24.043-16.123 22.4512-17.2998Q20.8594-18.4766 18.9551-19.126Q17.0508-19.7754 14.9609-19.7754Q12.8711-19.7754 10.9717-19.126Q9.07227-18.4766 7.48535-17.2998Q5.89844-16.123 4.72168-14.5312Q3.54492-12.9395 2.90039-11.04Q2.25586-9.14062 2.25586-7.05078Q2.25586-4.9707 2.90527-3.06641Q3.55469-1.16211 4.72656 0.429688Q5.89844 2.02148 7.49023 3.19336Q9.08203 4.36523 10.9814 5.01465Q12.8809 5.66406 14.9707 5.66406ZM14.9707 3.84766Q13.1641 3.84766 11.5283 3.2959Q9.89258 2.74414 8.53516 1.74805Q7.17773 0.751953 6.17676-0.610352Q5.17578-1.97266 4.62891-3.6084Q4.08203-5.24414 4.08203-7.05078Q4.08203-8.86719 4.62891-10.5029Q5.17578-12.1387 6.17188-13.501Q7.16797-14.8633 8.52539-15.8594Q9.88281-16.8555 11.5186-17.4023Q13.1543-17.9492 14.9609-17.9492Q16.7773-17.9492 18.4131-17.4023Q20.0488-16.8555 21.4111-15.8594Q22.7734-14.8633 23.7695-13.501Q24.7656-12.1387 25.3174-10.5029Q25.8691-8.86719 25.8691-7.05078Q25.8789-5.24414 25.332-3.6084Q24.7852-1.97266 23.7842-0.610352Q22.7832 0.751953 21.4209 1.74805Q20.0586 2.74414 18.4229 3.2959Q16.7871 3.84766 14.9707 3.84766ZM9.45312-7.04102Q9.45312-6.66016 9.71191-6.41113Q9.9707-6.16211 10.3711-6.16211L14.0625-6.16211L14.0625-2.46094Q14.0625-2.06055 14.3115-1.80664Q14.5605-1.55273 14.9414-1.55273Q15.3516-1.55273 15.6055-1.80664Q15.8594-2.06055 15.8594-2.46094L15.8594-6.16211L19.5605-6.16211Q19.9609-6.16211 20.2148-6.41113Q20.4688-6.66016 20.4688-7.04102Q20.4688-7.45117 20.2148-7.70508Q19.9609-7.95898 19.5605-7.95898L15.8594-7.95898L15.8594-11.6504Q15.8594-12.0605 15.6055-12.3145Q15.3516-12.5684 14.9414-12.5684Q14.5605-12.5684 14.3115-12.3096Q14.0625-12.0508 14.0625-11.6504L14.0625-7.95898L10.3711-7.95898Q9.96094-7.95898 9.70703-7.70508Q9.45312-7.45117 9.45312-7.04102Z"/>
  </g>
  <text style="stroke:none;fill:black;font-family:SF Pro,SF Pro Display,SF Pro Text,sans-serif;font-size:13;font-weight:bold;" transform="matrix(1 0 0 1 263 1953)">Design Variations</text>
  <text style="stroke:none;fill:black;font-family:SF Pro,SF Pro Display,SF Pro Text,sans-serif;font-size:13;" transform="matrix(1 0 0 1 263 1971)">Symbols are supported in up to nine weights and three scales.</text>
  <text style="stroke:none;fill:black;font-family:SF Pro,SF Pro Display,SF Pro Text,sans-serif;font-size:13;" transform="matrix(1 0 0 1 263 1989)">For optimal layout with text and other symbols, vertically align</text>
  <text style="stroke:none;fill:black;font-family:SF Pro,SF Pro Display,SF Pro Text,sans-serif;font-size:13;" transform="matrix(1 0 0 1 263 2007)">symbols with the adjacent text.</text>
  <line style="fill:none;stroke:#00AEEF;stroke-width:0.5;opacity:1.0;" x1="776" x2="776" y1="1919" y2="1933"/>
  <g transform="matrix(1 0 0 1 776 1933)">
   <path d="M3.31055 0.15625Q3.70117 0.15625 3.91602-0.00976562Q4.13086-0.175781 4.26758-0.585938L5.52734-4.0332L11.2891-4.0332L12.5488-0.585938Q12.6855-0.175781 12.9004-0.00976562Q13.1152 0.15625 13.4961 0.15625Q13.8867 0.15625 14.1162-0.0585938Q14.3457-0.273438 14.3457-0.644531Q14.3457-0.869141 14.2383-1.17188L9.6582-13.3691Q9.48242-13.8184 9.17969-14.043Q8.87695-14.2676 8.4082-14.2676Q7.5-14.2676 7.17773-13.3789L2.59766-1.16211Q2.49023-0.859375 2.49023-0.634766Q2.49023-0.263672 2.70996-0.0537109Q2.92969 0.15625 3.31055 0.15625ZM6.00586-5.51758L8.37891-12.0898L8.42773-12.0898L10.8008-5.51758Z"/>
  </g>
  <line style="fill:none;stroke:#00AEEF;stroke-width:0.5;opacity:1.0;" x1="793.197" x2="793.197" y1="1919" y2="1933"/>
  <text style="stroke:none;fill:black;font-family:SF Pro,SF Pro Display,SF Pro Text,sans-serif;font-size:13;font-weight:bold;" transform="matrix(1 0 0 1 776 1953)">Margins</text>
  <text style="stroke:none;fill:black;font-family:SF Pro,SF Pro Display,SF Pro Text,sans-serif;font-size:13;" transform="matrix(1 0 0 1 776 1971)">Leading and trailing margins on the left and right side of each symbol</text>
  <text style="stroke:none;fill:black;font-family:SF Pro,SF Pro Display,SF Pro Text,sans-serif;font-size:13;" transform="matrix(1 0 0 1 776 1989)">can be adjusted by modifying the x-location of the margin guidelines.</text>
  <text style="stroke:none;fill:black;font-family:SF Pro,SF Pro Display,SF Pro Text,sans-serif;font-size:13;" transform="matrix(1 0 0 1 776 2007)">Modifications are automatically applied proportionally to all</text>
  <text style="stroke:none;fill:black;font-family:SF Pro,SF Pro Display,SF Pro Text,sans-serif;font-size:13;" transform="matrix(1 0 0 1 776 2025)">scales and weights.</text>
  <g transform="matrix(1 0 0 1 1289 1933)">
   <path d="M2.8418 1.86523L4.54102 3.57422Q5.18555 4.22852 5.90332 4.17969Q6.62109 4.13086 7.31445 3.35938L18.0078-8.42773L17.041-9.4043L6.42578 2.27539Q6.16211 2.57812 5.89355 2.61719Q5.625 2.65625 5.27344 2.30469L4.10156 1.14258Q3.75 0.791016 3.79395 0.522461Q3.83789 0.253906 4.14062-0.0195312L15.6152-10.8203L14.6387-11.7871L3.04688-0.898438Q2.30469-0.214844 2.25098 0.498047Q2.19727 1.21094 2.8418 1.86523ZM9.25781-16.3281Q8.94531-16.0254 8.90625-15.6348Q8.86719-15.2441 9.04297-14.9512Q9.21875-14.6777 9.55566-14.541Q9.89258-14.4043 10.3809-14.5215Q11.4746-14.7754 12.5977-14.7314Q13.7207-14.6875 14.7949-13.9844L14.209-12.5293Q13.9551-11.9043 14.0674-11.4404Q14.1797-10.9766 14.5801-10.5664L16.875-8.25195Q17.2363-7.88086 17.5781-7.82227Q17.9199-7.76367 18.3398-7.8418L19.4043-8.03711L20.0684-7.36328L20.0293-6.80664Q20-6.43555 20.1221-6.12305Q20.2441-5.81055 20.6055-5.44922L21.3672-4.70703Q21.7285-4.3457 22.1533-4.33105Q22.5781-4.31641 22.9297-4.66797L25.8398-7.58789Q26.1914-7.93945 26.1816-8.35449Q26.1719-8.76953 25.8105-9.13086L25.0391-9.89258Q24.6875-10.2539 24.3799-10.3857Q24.0723-10.5176 23.7109-10.4883L23.1348-10.4395L22.4902-11.0742L22.7344-12.1973Q22.832-12.6172 22.6953-12.9834Q22.5586-13.3496 22.1191-13.7891L19.9219-15.9766Q18.6719-17.2168 17.2607-17.8369Q15.8496-18.457 14.4189-18.4814Q12.9883-18.5059 11.665-17.959Q10.3418-17.4121 9.25781-16.3281ZM10.752-15.957Q11.6602-16.6211 12.7002-16.9043Q13.7402-17.1875 14.8047-17.085Q15.8691-16.9824 16.8701-16.5137Q17.8711-16.0449 18.7012-15.2051L21.1328-12.793Q21.3086-12.6172 21.3525-12.4512Q21.3965-12.2852 21.3379-12.0312L21.0156-10.5469L22.5195-9.0625L23.5059-9.12109Q23.6914-9.13086 23.7891-9.09668Q23.8867-9.0625 24.0332-8.91602L24.6094-8.33984L22.168-5.89844L21.5918-6.47461Q21.4453-6.62109 21.4062-6.71875Q21.3672-6.81641 21.377-7.01172L21.4453-7.98828L19.9512-9.47266L18.4277-9.21875Q18.1836-9.16992 18.042-9.2041Q17.9004-9.23828 17.7148-9.41406L15.7129-11.416Q15.5176-11.5918 15.4932-11.7529Q15.4688-11.9141 15.5859-12.1875L16.4648-14.2773Q15.293-15.3711 13.8281-15.791Q12.3633-16.2109 10.8398-15.7617Q10.7227-15.7324 10.6885-15.8057Q10.6543-15.8789 10.752-15.957Z"/>
  </g>
  <text style="stroke:none;fill:black;font-family:SF Pro,SF Pro Display,SF Pro Text,sans-serif;font-size:13;font-weight:bold;" transform="matrix(1 0 0 1 1289 1953)">Exporting</text>
  <text style="stroke:none;fill:black;font-family:SF Pro,SF Pro Display,SF Pro Text,sans-serif;font-size:13;" transform="matrix(1 0 0 1 1289 1971)">Symbols should be outlined when exporting to ensure the</text>
  <text style="stroke:none;fill:black;font-family:SF Pro,SF Pro Display,SF Pro Text,sans-serif;font-size:13;" transform="matrix(1 0 0 1 1289 1989)">design is preserved when submitting to Xcode.</text>
  <text id="template-version" style="stroke:none;fill:black;font-family:SF Pro,SF Pro Display,SF Pro Text,sans-serif;font-size:13;text-anchor:end;" transform="matrix(1 0 0 1 3036 1933)">Template v.3.0</text>
  <text style="stroke:none;fill:black;font-family:SF Pro,SF Pro Display,SF Pro Text,sans-serif;font-size:13;text-anchor:end;" transform="matrix(1 0 0 1 3036 1951)">Requires Xcode 13 or greater</text>
  <text id="descriptive-name" style="stroke:none;fill:black;font-family:SF Pro,SF Pro Display,SF Pro Text,sans-serif;font-size:13;text-anchor:end;" transform="matrix(1 0 0 1 3036 1969)">Generated from wallet.pass</text>
  <text style="stroke:none;fill:black;font-family:SF Pro,SF Pro Display,SF Pro Text,sans-serif;font-size:13;text-anchor:end;" transform="matrix(1 0 0 1 3036 1987)">Typeset at 100 points</text>
  <text style="stroke:none;fill:black;font-family:SF Pro,SF Pro Display,SF Pro Text,sans-serif;font-size:13;" transform="matrix(1 0 0 1 263 726)">Small</text>
  <text style="stroke:none;fill:black;font-family:SF Pro,SF Pro Display,SF Pro Text,sans-serif;font-size:13;" transform="matrix(1 0 0 1 263 1156)">Medium</text>
  <text style="stroke:none;fill:black;font-family:SF Pro,SF Pro Display,SF Pro Text,sans-serif;font-size:13;" transform="matrix(1 0 0 1 263 1586)">Large</text>
 </g>
 <g id="Guides">
  <g id="H-reference" style="fill:#27AAE1;stroke:none;" transform="matrix(1 0 0 1 339 696)">
   <path d="M0.976562 0L3.66211 0L29.3457-67.1387L30.0293-67.1387L30.0293-70.459L28.125-70.459ZM11.6699-24.4629L46.9727-24.4629L46.2402-26.709L12.4512-26.709ZM55.127 0L57.7637 0L30.6152-70.459L29.4434-70.459L29.4434-67.1387Z"/>
  </g>
  <line id="Baseline-S" style="fill:none;stroke:#27AAE1;opacity:1;stroke-width:0.5;" x1="263" x2="3036" y1="696" y2="696"/>
  <line id="Capline-S" style="fill:none;stroke:#27AAE1;opacity:1;stroke-width:0.5;" x1="263" x2="3036" y1="625.541" y2="625.541"/>
  <g id="H-reference" style="fill:#27AAE1;stroke:none;" transform="matrix(1 0 0 1 339 1126)">
   <path d="M0.976562 0L3.66211 0L29.3457-67.1387L30.0293-67.1387L30.0293-70.459L28.125-70.459ZM11.6699-24.4629L46.9727-24.4629L46.2402-26.709L12.4512-26.709ZM55.127 0L57.7637 0L30.6152-70.459L29.4434-70.459L29.4434-67.1387Z"/>
  </g>
  <line id="Baseline-M" style="fill:none;stroke:#27AAE1;opacity:1;stroke-width:0.5;" x1="263" x2="3036" y1="1126" y2="1126"/>
  <line id="Capline-M" style="fill:none;stroke:#27AAE1;opacity:1;stroke-width:0.5;" x1="263" x2="3036" y1="1055.54" y2="1055.54"/>
  <g id="H-reference" style="fill:#27AAE1;stroke:none;" transform="matrix(1 0 0 1 339 1556)">
   <path d="M0.976562 0L3.66211 0L29.3457-67.1387L30.0293-67.1387L30.0293-70.459L28.125-70.459ZM11.6699-24.4629L46.9727-24.4629L46.2402-26.709L12.4512-26.709ZM55.127 0L57.7637 0L30.6152-70.459L29.4434-70.459L29.4434-67.1387Z"/>
  </g>
  <line id="Baseline-L" style="fill:none;stroke:#27AAE1;opacity:1;stroke-width:0.5;" x1="263" x2="3036" y1="1556" y2="1556"/>
  <line id="Capline-L" style="fill:none;stroke:#27AAE1;opacity:1;stroke-width:0.5;" x1="263" x2="3036" y1="1485.54" y2="1485.54"/>
  <line id="left-margin-Regular-M" style="fill:none;stroke:#00AEEF;stroke-width:0.5;opacity:1.0;" x1="1396.33" x2="1396.33" y1="1030.79" y2="1150.12"/>
  <line id="right-margin-Regular-M" style="fill:none;stroke:#00AEEF;stroke-width:0.5;opacity:1.0;" x1="1503.36" x2="1503.36" y1="1030.79" y2="1150.12"/>
 </g>
 <g id="Symbols">
  <g id="Black-L" transform="matrix(1 0 0 1 2859.65 1556)">
   <path d="M39.8926 35.2539L107.617 35.2539Q119.043 35.2539 125.244 29.0039Q131.445 22.7539 131.445 11.3281L131.445-81.8359Q131.445-93.2617 125.244-99.4629Q119.043-105.664 107.617-105.664L88.3789-105.664Q86.084-105.664 84.9121-104.663Q83.7402-103.662 83.7402-101.807Q83.7402-99.2676 82.5928-96.9727Q81.4453-94.6777 79.1992-93.2129Q76.9531-91.748 73.7793-91.748Q70.5566-91.748 68.3105-93.2129Q66.0645-94.6777 64.8926-96.9727Q63.7207-99.2676 63.7207-101.807Q63.7207-103.662 62.5488-104.663Q61.377-105.664 59.1309-105.664L39.8926-105.664Q28.4668-105.664 22.2656-99.4629Q16.0645-93.2617 16.0645-81.8359L16.0645 11.3281Q16.0645 22.7539 22.2656 29.0039Q28.4668 35.2539 39.8926 35.2539ZM42.7246 14.9902Q39.3066 14.9902 37.8174 13.3789Q36.3281 11.7676 36.3281 8.59375L36.3281-79.1016Q36.3281-82.2754 37.8174-83.8867Q39.3066-85.498 42.7246-85.498L63.5742-85.498L50.7324-92.7246Q51.8555-83.5938 58.1299-78.3691Q64.4043-73.1445 73.7793-73.1445Q83.1055-73.1445 89.3799-78.3691Q95.6543-83.5938 96.7773-92.7246L83.9355-85.498L104.785-85.498Q108.203-85.498 109.717-83.8867Q111.23-82.2754 111.23-79.1016L111.23 8.59375Q111.23 11.7676 109.717 13.3789Q108.203 14.9902 104.785 14.9902ZM53.6133-52.2949L93.8477-52.2949Q95.752-52.2949 97.0459-53.6133Q98.3398-54.9316 98.3398-56.8848Q98.3398-58.7402 97.0459-60.0098Q95.752-61.2793 93.8477-61.2793L53.6133-61.2793Q51.6602-61.2793 50.3662-60.0098Q49.0723-58.7402 49.0723-56.8848Q49.0723-54.9316 50.3662-53.6133Q51.6602-52.2949 53.6133-52.2949ZM53.6133-32.2754L74.6094-32.2754Q76.5625-32.2754 77.8564-33.5693Q79.1504-34.8633 79.1504-36.7188Q79.1504-38.623 77.8564-39.9658Q76.5625-41.3086 74.6094-41.3086L53.6133-41.3086Q51.6602-41.3086 50.3662-39.9658Q49.0723-38.623 49.0723-36.7188Q49.0723-34.8633 50.3662-33.5693Q51.6602-32.2754 53.6133-32.2754Z"/>
  </g>
  <g id="Heavy-L" transform="matrix(1 0 0 1 2564.18 1556)">
   <path d="M38.7207 34.5215L106.299 34.5215Q117.236 34.5215 123.096 28.6133Q128.955 22.7051 128.955 11.7188L128.955-82.2266Q128.955-93.2129 123.096-99.0723Q117.236-104.932 106.299-104.932L87.207-104.932Q85.1074-104.932 84.0332-103.955Q82.959-102.979 82.959-101.221Q82.959-98.4863 81.7139-96.0938Q80.4688-93.7012 78.125-92.2363Q75.7812-90.7715 72.5586-90.7715Q69.2383-90.7715 66.8945-92.2363Q64.5508-93.7012 63.2812-96.0938Q62.0117-98.4863 62.0117-101.221Q62.0117-102.979 60.9375-103.955Q59.8633-104.932 57.8125-104.932L38.7207-104.932Q27.7832-104.932 21.9238-99.0723Q16.0645-93.2129 16.0645-82.2266L16.0645 11.7188Q16.0645 22.7051 21.9238 28.6133Q27.7832 34.5215 38.7207 34.5215ZM40.9668 16.9922Q37.1094 16.9922 35.3516 15.1123Q33.5938 13.2324 33.5938 9.61914L33.5938-80.0781Q33.5938-83.7402 35.3516-85.5957Q37.1094-87.4512 40.9668-87.4512L61.1816-87.4512L50.1465-93.75Q51.1719-84.8145 57.2754-79.6875Q63.3789-74.5605 72.5586-74.5605Q81.6406-74.5605 87.7441-79.6875Q93.8477-84.8145 94.873-93.75L83.8379-87.4512L104.053-87.4512Q107.91-87.4512 109.692-85.5957Q111.475-83.7402 111.475-80.0781L111.475 9.61914Q111.475 13.2324 109.692 15.1123Q107.91 16.9922 104.053 16.9922ZM51.3672-53.3691L93.6523-53.3691Q95.4102-53.3691 96.6309-54.6143Q97.8516-55.8594 97.8516-57.7148Q97.8516-59.4727 96.6309-60.6689Q95.4102-61.8652 93.6523-61.8652L51.3672-61.8652Q49.5117-61.8652 48.291-60.6689Q47.0703-59.4727 47.0703-57.7148Q47.0703-55.8594 48.291-54.6143Q49.5117-53.3691 51.3672-53.3691ZM51.3672-32.7148L72.9492-32.7148Q74.7559-32.7148 75.9766-33.9355Q77.1973-35.1562 77.1973-36.9141Q77.1973-38.6719 75.9766-39.9414Q74.7559-41.2109 72.9492-41.2109L51.3672-41.2109Q49.5117-41.2109 48.291-39.9414Q47.0703-38.6719 47.0703-36.9141Q47.0703-35.1562 48.291-33.9355Q49.5117-32.7148 51.3672-32.7148Z"/>
  </g>
  <g id="Bold-L" transform="matrix(1 0 0 1 2268.86 1556)">
   <path d="M37.4023 33.6914L104.883 33.6914Q115.234 33.6914 120.703 28.1738Q126.172 22.6562 126.172 12.207L126.172-82.666Q126.172-93.1152 120.728-98.6084Q115.283-104.102 104.883-104.102L85.8887-104.102Q84.082-104.102 83.0811-103.149Q82.0801-102.197 82.0801-100.537Q82.0801-97.6074 80.7373-95.1172Q79.3945-92.627 76.9531-91.1377Q74.5117-89.6484 71.1426-89.6484Q67.7734-89.6484 65.3076-91.1377Q62.8418-92.627 61.499-95.1172Q60.1562-97.6074 60.1562-100.537Q60.1562-102.197 59.1553-103.149Q58.1543-104.102 56.3477-104.102L37.4023-104.102Q27.002-104.102 21.5332-98.6084Q16.0645-93.1152 16.0645-82.666L16.0645 12.207Q16.0645 22.6562 21.5332 28.1738Q27.002 33.6914 37.4023 33.6914ZM39.0625 19.2383Q34.7168 19.2383 32.6172 17.041Q30.5176 14.8438 30.5176 10.7422L30.5176-81.2012Q30.5176-85.3516 32.6172-87.5244Q34.7168-89.6973 39.0625-89.6973L58.4961-89.6973L49.5117-94.873Q50.4395-86.2305 56.3477-81.2012Q62.2559-76.1719 71.1426-76.1719Q80.0293-76.1719 85.9131-81.2012Q91.7969-86.2305 92.7246-94.873L83.7891-89.6973L103.223-89.6973Q107.568-89.6973 109.668-87.5244Q111.768-85.3516 111.768-81.2012L111.768 10.7422Q111.768 14.8438 109.668 17.041Q107.568 19.2383 103.223 19.2383ZM48.877-54.5898L93.4082-54.5898Q95.0684-54.5898 96.2158-55.7617Q97.3633-56.9336 97.3633-58.6426Q97.3633-60.2539 96.2158-61.377Q95.0684-62.5 93.4082-62.5L48.877-62.5Q47.1191-62.5 45.9961-61.377Q44.873-60.2539 44.873-58.6426Q44.873-56.9336 45.9961-55.7617Q47.1191-54.5898 48.877-54.5898ZM48.877-33.2031L71.0449-33.2031Q72.7539-33.2031 73.9014-34.3506Q75.0488-35.498 75.0488-37.1094Q75.0488-38.7695 73.9014-39.9414Q72.7539-41.1133 71.0449-41.1133L48.877-41.1133Q47.1191-41.1133 45.9961-39.9414Q44.873-38.7695 44.873-37.1094Q44.873-35.498 45.9961-34.3506Q47.1191-33.2031 48.877-33.2031Z"/>
  </g>
  <g id="Semibold-L" transform="matrix(1 0 0 1 1973.1 1556)">
   <path d="M36.4746 33.1055L103.857 33.1055Q113.867 33.1055 119.067 27.8564Q124.268 22.6074 124.268 12.5488L124.268-82.959Q124.268-93.0664 119.067-98.291Q113.867-103.516 103.857-103.516L84.9609-103.516Q83.3008-103.516 82.373-102.588Q81.4453-101.66 81.4453-100.098Q81.4453-96.9727 80.0537-94.4336Q78.6621-91.8945 76.123-90.3809Q73.584-88.8672 70.166-88.8672Q66.748-88.8672 64.1846-90.3809Q61.6211-91.8945 60.2295-94.4336Q58.8379-96.9727 58.8379-100.098Q58.8379-101.66 57.9102-102.588Q56.9824-103.516 55.3223-103.516L36.4746-103.516Q26.416-103.516 21.2402-98.291Q16.0645-93.0664 16.0645-82.959L16.0645 12.5488Q16.0645 22.6074 21.2646 27.8564Q26.4648 33.1055 36.4746 33.1055ZM37.6953 20.752Q33.0078 20.752 30.7129 18.3594Q28.418 15.9668 28.418 11.5234L28.418-81.9824Q28.418-86.4746 30.7129-88.8428Q33.0078-91.2109 37.6953-91.2109L56.5918-91.2109L49.0723-95.6055Q49.9023-87.207 55.6641-82.2266Q61.4258-77.2461 70.166-77.2461Q78.8574-77.2461 84.6191-82.2266Q90.3809-87.207 91.2598-95.6055L83.6914-91.2109L102.637-91.2109Q107.324-91.2109 109.619-88.8428Q111.914-86.4746 111.914-81.9824L111.914 11.5234Q111.914 15.9668 109.619 18.3594Q107.324 20.752 102.637 20.752ZM47.1191-55.4199L93.2617-55.4199Q94.8242-55.4199 95.8984-56.5186Q96.9727-57.6172 96.9727-59.2285Q96.9727-60.791 95.8984-61.8652Q94.8242-62.9395 93.2617-62.9395L47.1191-62.9395Q45.459-62.9395 44.3848-61.8652Q43.3105-60.791 43.3105-59.2285Q43.3105-57.6172 44.3848-56.5186Q45.459-55.4199 47.1191-55.4199ZM47.1191-33.5449L69.7266-33.5449Q71.3867-33.5449 72.4609-34.6191Q73.5352-35.6934 73.5352-37.2559Q73.5352-38.8184 72.4609-39.9414Q71.3867-41.0645 69.7266-41.0645L47.1191-41.0645Q45.459-41.0645 44.3848-39.9414Q43.3105-38.8184 43.3105-37.2559Q43.3105-35.6934 44.3848-34.6191Q45.459-33.5449 47.1191-33.5449Z"/>
  </g>
  <g id="Medium-L" transform="matrix(1 0 0 1 1677.12 1556)">
   <path d="M35.791 32.666L103.076 32.666Q112.793 32.666 117.798 27.6123Q122.803 22.5586 122.803 12.793L122.803-83.2031Q122.803-93.0176 117.822-98.0469Q112.842-103.076 103.076-103.076L84.2773-103.076Q82.7637-103.076 81.8604-102.173Q80.957-101.27 80.957-99.707Q80.957-96.4844 79.5166-93.8965Q78.0762-91.3086 75.4883-89.7949Q72.9004-88.2812 69.4336-88.2812Q65.9668-88.2812 63.3545-89.7949Q60.7422-91.3086 59.2773-93.8965Q57.8125-96.4844 57.8125-99.707Q57.8125-101.27 56.958-102.173Q56.1035-103.076 54.541-103.076L35.791-103.076Q26.0254-103.076 21.0449-98.0469Q16.0645-93.0176 16.0645-83.2031L16.0645 12.793Q16.0645 22.5586 21.0693 27.6123Q26.0742 32.666 35.791 32.666ZM36.6699 21.9238Q31.7383 21.9238 29.2725 19.3604Q26.8066 16.7969 26.8066 12.1094L26.8066-82.5684Q26.8066-87.3047 29.2725-89.8193Q31.7383-92.334 36.6699-92.334L55.2246-92.334L48.7305-96.1914Q49.5117-87.9395 55.1758-83.0078Q60.8398-78.0762 69.4336-78.0762Q78.0273-78.0762 83.667-83.0078Q89.3066-87.9395 90.1367-96.1914L83.6426-92.334L102.197-92.334Q107.129-92.334 109.595-89.8193Q112.061-87.3047 112.061-82.5684L112.061 12.1094Q112.061 16.7969 109.595 19.3604Q107.129 21.9238 102.197 21.9238ZM45.8008-56.0547L93.1152-56.0547Q94.6289-56.0547 95.6543-57.1045Q96.6797-58.1543 96.6797-59.7168Q96.6797-61.2305 95.6543-62.2559Q94.6289-63.2812 93.1152-63.2812L45.8008-63.2812Q44.1895-63.2812 43.1641-62.2559Q42.1387-61.2305 42.1387-59.7168Q42.1387-58.1543 43.1641-57.1045Q44.1895-56.0547 45.8008-56.0547ZM45.8008-33.7891L68.75-33.7891Q70.3125-33.7891 71.3379-34.8389Q72.3633-35.8887 72.3633-37.3535Q72.3633-38.8672 71.3379-39.917Q70.3125-40.9668 68.75-40.9668L45.8008-40.9668Q44.1895-40.9668 43.1641-39.917Q42.1387-38.8672 42.1387-37.3535Q42.1387-35.8887 43.1641-34.8389Q44.1895-33.7891 45.8008-33.7891Z"/>
  </g>
  <g id="Regular-L" transform="matrix(1 0 0 1 1381.36 1556)">
   <path d="M34.8633 32.0801L102.1 32.0801Q111.426 32.0801 116.162 27.2949Q120.898 22.5098 120.898 13.0859L120.898-83.4961Q120.898-92.9688 116.187-97.7295Q111.475-102.49 102.1-102.49L83.3984-102.49Q82.0312-102.49 81.2012-101.611Q80.3711-100.732 80.3711-99.2676Q80.3711-95.8984 78.8574-93.2373Q77.3438-90.5762 74.6826-89.0625Q72.0215-87.5488 68.5059-87.5488Q64.9414-87.5488 62.2559-89.0625Q59.5703-90.5762 58.0566-93.2373Q56.543-95.8984 56.543-99.2676Q56.543-100.732 55.7373-101.611Q54.9316-102.49 53.5156-102.49L34.8633-102.49Q25.4883-102.49 20.7764-97.7295Q16.0645-92.9688 16.0645-83.4961L16.0645 13.0859Q16.0645 22.5098 20.8008 27.2949Q25.5371 32.0801 34.8633 32.0801ZM35.3516 23.4375Q30.0781 23.4375 27.3926 20.6787Q24.707 17.9199 24.707 12.8906L24.707-83.3008Q24.707-88.4277 27.3926-91.1377Q30.0781-93.8477 35.3516-93.8477L53.3691-93.8477L48.291-96.9727Q49.0234-88.8672 54.541-84.0088Q60.0586-79.1504 68.5059-79.1504Q76.9043-79.1504 82.4219-84.0088Q87.9395-88.8672 88.6719-96.9727L83.5938-93.8477L101.611-93.8477Q106.885-93.8477 109.57-91.1377Q112.256-88.4277 112.256-83.3008L112.256 12.8906Q112.256 17.9199 109.57 20.6787Q106.885 23.4375 101.611 23.4375ZM44.0918-56.8848L92.9688-56.8848Q94.3848-56.8848 95.3613-57.8857Q96.3379-58.8867 96.3379-60.3516Q96.3379-61.7676 95.3613-62.7441Q94.3848-63.7207 92.9688-63.7207L44.0918-63.7207Q42.5781-63.7207 41.6016-62.7441Q40.625-61.7676 40.625-60.3516Q40.625-58.8867 41.6016-57.8857Q42.5781-56.8848 44.0918-56.8848ZM44.0918-34.1309L67.4805-34.1309Q68.9453-34.1309 69.9219-35.1074Q70.8984-36.084 70.8984-37.5Q70.8984-38.916 69.9219-39.917Q68.9453-40.918 67.4805-40.918L44.0918-40.918Q42.5781-40.918 41.6016-39.917Q40.625-38.916 40.625-37.5Q40.625-36.084 41.6016-35.1074Q42.5781-34.1309 44.0918-34.1309Z"/>
  </g>
  <g id="Light-L" transform="matrix(1 0 0 1 1085.43 1556)">
   <path d="M33.8867 31.7383L101.514 31.7383Q110.254 31.7383 114.795 27.1973Q119.336 22.6562 119.336 13.8184L119.336-84.1309Q119.336-93.0664 114.844-97.583Q110.352-102.1 101.514-102.1L82.8125-102.1Q81.7871-102.1 81.1523-101.44Q80.5176-100.781 80.5176-99.6582Q80.5176-96.0938 78.8818-93.2617Q77.2461-90.4297 74.3652-88.7695Q71.4844-87.1094 67.7246-87.1094Q63.916-87.1094 61.0107-88.7695Q58.1055-90.4297 56.4697-93.2617Q54.834-96.0938 54.834-99.6582Q54.834-100.781 54.2236-101.44Q53.6133-102.1 52.5391-102.1L33.8867-102.1Q25.0488-102.1 20.5566-97.583Q16.0645-93.0664 16.0645-84.1309L16.0645 13.8184Q16.0645 22.6562 20.6055 27.1973Q25.1465 31.7383 33.8867 31.7383ZM34.2773 25.1465Q28.5156 25.1465 25.5859 22.1191Q22.6562 19.0918 22.6562 13.623L22.6562-83.9355Q22.6562-89.5996 25.5859-92.5537Q28.5156-95.5078 34.2773-95.5078L52.3926-95.5078L48.4863-97.9492Q49.0723-90.1367 54.3457-85.4004Q59.6191-80.6641 67.7246-80.6641Q75.7812-80.6641 81.0791-85.4004Q86.377-90.1367 86.9141-97.9492L83.0078-95.5078L101.123-95.5078Q106.885-95.5078 109.814-92.5537Q112.744-89.5996 112.744-83.9355L112.744 13.623Q112.744 19.0918 109.814 22.1191Q106.885 25.1465 101.123 25.1465ZM42.5781-58.3008L92.9199-58.3008Q94.043-58.3008 94.8486-59.082Q95.6543-59.8633 95.6543-61.0352Q95.6543-62.207 94.8486-62.9883Q94.043-63.7695 92.9199-63.7695L42.5781-63.7695Q41.3574-63.7695 40.5762-62.9883Q39.7949-62.207 39.7949-61.0352Q39.7949-59.8633 40.5762-59.082Q41.3574-58.3008 42.5781-58.3008ZM42.5781-35.0098L66.9922-35.0098Q68.2129-35.0098 68.9941-35.791Q69.7754-36.5723 69.7754-37.6953Q69.7754-38.8672 68.9941-39.6729Q68.2129-40.4785 66.9922-40.4785L42.5781-40.4785Q41.3574-40.4785 40.5762-39.6729Q39.7949-38.8672 39.7949-37.6953Q39.7949-36.5723 40.5762-35.791Q41.3574-35.0098 42.5781-35.0098Z"/>
  </g>
  <g id="Thin-L" transform="matrix(1 0 0 1 789.747 1556)">
   <path d="M32.666 31.3477L100.732 31.3477Q108.74 31.3477 113.013 27.124Q117.285 22.9004 117.285 14.7461L117.285-84.9609Q117.285-93.1641 113.086-97.3633Q108.887-101.562 100.732-101.562L82.0801-101.562Q81.4453-101.562 81.1035-101.172Q80.7617-100.781 80.7617-100.195Q80.7617-96.3379 78.9551-93.2617Q77.1484-90.1855 73.999-88.3789Q70.8496-86.5723 66.6992-86.5723Q62.5488-86.5723 59.375-88.3789Q56.2012-90.1855 54.3945-93.2617Q52.5879-96.3379 52.5879-100.195Q52.5879-100.781 52.2461-101.172Q51.9043-101.562 51.3184-101.562L32.666-101.562Q24.5117-101.562 20.2881-97.3633Q16.0645-93.1641 16.0645-84.9609L16.0645 14.7461Q16.0645 22.9004 20.3369 27.124Q24.6094 31.3477 32.666 31.3477ZM32.8613 27.3926Q26.5137 27.3926 23.2666 24.0479Q20.0195 20.7031 20.0195 14.5996L20.0195-84.8145Q20.0195-91.1621 23.2666-94.4092Q26.5137-97.6562 32.8613-97.6562L51.1719-97.6562L48.7305-99.2676Q49.0723-91.7969 54.0771-87.2314Q59.082-82.666 66.6992-82.666Q74.2676-82.666 79.2725-87.2314Q84.2773-91.7969 84.6191-99.2676L82.2266-97.6562L100.537-97.6562Q106.836-97.6562 110.107-94.4092Q113.379-91.1621 113.379-84.8145L113.379 14.5996Q113.379 20.7031 110.107 24.0479Q106.836 27.3926 100.537 27.3926ZM40.5762-60.1074L92.8711-60.1074Q93.6523-60.1074 94.1895-60.6201Q94.7266-61.1328 94.7266-61.9629Q94.7266-62.8418 94.1895-63.3545Q93.6523-63.8672 92.8711-63.8672L40.5762-63.8672Q39.7461-63.8672 39.209-63.3545Q38.6719-62.8418 38.6719-61.9629Q38.6719-61.1328 39.209-60.6201Q39.7461-60.1074 40.5762-60.1074ZM40.5762-36.1816L66.4062-36.1816Q67.2363-36.1816 67.7734-36.7188Q68.3105-37.2559 68.3105-37.9883Q68.3105-38.7695 67.7734-39.3066Q67.2363-39.8438 66.4062-39.8438L40.5762-39.8438Q39.7461-39.8438 39.209-39.3066Q38.6719-38.7695 38.6719-37.9883Q38.6719-37.2559 39.209-36.7188Q39.7461-36.1816 40.5762-36.1816Z"/>
  </g>
  <g id="Ultralight-L" transform="matrix(1 0 0 1 493.573 1556)">
   <path d="M31.9824 31.1035L100.342 31.1035Q107.959 31.1035 112.085 27.0508Q116.211 22.998 116.211 15.2344L116.211-85.4004Q116.211-93.2129 112.158-97.2656Q108.105-101.318 100.342-101.318L81.6895-101.318Q81.2988-101.318 81.0791-101.074Q80.8594-100.83 80.8594-100.439Q80.8594-96.4844 78.9551-93.2861Q77.0508-90.0879 73.7549-88.1836Q70.459-86.2793 66.1621-86.2793Q61.8652-86.2793 58.5449-88.1836Q55.2246-90.0879 53.3447-93.2861Q51.4648-96.4844 51.4648-100.439Q51.4648-100.83 51.2451-101.074Q51.0254-101.318 50.6348-101.318L31.9824-101.318Q24.2188-101.318 20.1416-97.2656Q16.0645-93.2129 16.0645-85.4004L16.0645 15.2344Q16.0645 22.998 20.2148 27.0508Q24.3652 31.1035 31.9824 31.1035ZM32.1289 28.5645Q25.4395 28.5645 22.0215 25.0244Q18.6035 21.4844 18.6035 15.0879L18.6035-85.2539Q18.6035-91.9922 22.0215-95.3857Q25.4395-98.7793 32.1289-98.7793L50.4883-98.7793L48.8281-99.9023Q49.1211-92.627 53.9551-88.1592Q58.7891-83.6914 66.1621-83.6914Q73.4863-83.6914 78.3447-88.1592Q83.2031-92.627 83.4473-99.9023L81.8359-98.7793L100.195-98.7793Q106.836-98.7793 110.278-95.3857Q113.721-91.9922 113.721-85.2539L113.721 15.0879Q113.721 21.4844 110.278 25.0244Q106.836 28.5645 100.195 28.5645ZM39.5508-61.084L92.8223-61.084Q93.4082-61.084 93.8232-61.4502Q94.2383-61.8164 94.2383-62.4512Q94.2383-63.1348 93.8232-63.5254Q93.4082-63.916 92.8223-63.916L39.5508-63.916Q38.916-63.916 38.501-63.5254Q38.0859-63.1348 38.0859-62.4512Q38.0859-61.8164 38.501-61.4502Q38.916-61.084 39.5508-61.084ZM39.5508-36.7676L66.0645-36.7676Q66.6992-36.7676 67.1387-37.1826Q67.5781-37.5977 67.5781-38.1348Q67.5781-38.7207 67.1387-39.1357Q66.6992-39.5508 66.0645-39.5508L39.5508-39.5508Q38.916-39.5508 38.501-39.1357Q38.0859-38.7207 38.0859-38.1348Q38.0859-37.5977 38.501-37.1826Q38.916-36.7676 39.5508-36.7676Z"/>
  </g>
  <g id="Black-M" transform="matrix(1 0 0 1 2875.44 1126)">
   <path d="M31.5918 19.9219L84.3262 19.9219Q93.4082 19.9219 98.4375 14.8682Q103.467 9.81445 103.467 0.732422L103.467-71.1914Q103.467-80.2734 98.4375-85.3027Q93.4082-90.332 84.3262-90.332L69.2871-90.332Q65.6738-90.332 65.6738-87.4512Q65.6738-84.7168 63.6963-82.2266Q61.7188-79.7363 57.959-79.7363Q54.1992-79.7363 52.2217-82.2266Q50.2441-84.7168 50.2441-87.4512Q50.2441-90.332 46.6309-90.332L31.5918-90.332Q22.5098-90.332 17.4805-85.3027Q12.4512-80.2734 12.4512-71.1914L12.4512 0.732422Q12.4512 9.81445 17.4805 14.8682Q22.5098 19.9219 31.5918 19.9219ZM34.2773 2.58789Q31.8359 2.58789 30.8105 1.46484Q29.7852 0.341797 29.7852-1.9043L29.7852-68.5547Q29.7852-70.8008 30.8105-71.9238Q31.8359-73.0469 34.2773-73.0469L51.0254-73.0469L39.8926-79.248Q40.7715-72.0703 45.7031-67.9932Q50.6348-63.916 57.959-63.916Q65.2832-63.916 70.2393-67.9932Q75.1953-72.0703 76.0742-79.248L64.9414-73.0469L81.6895-73.0469Q84.082-73.0469 85.1074-71.9238Q86.1328-70.8008 86.1328-68.5547L86.1328-1.9043Q86.1328 0.341797 85.1074 1.46484Q84.082 2.58789 81.6895 2.58789ZM42.9688-47.998L72.9004-47.998Q74.4141-47.998 75.3906-49.0234Q76.3672-50.0488 76.3672-51.5625Q76.3672-52.9785 75.3906-53.9795Q74.4141-54.9805 72.9004-54.9805L42.9688-54.9805Q41.4551-54.9805 40.4541-53.9795Q39.4531-52.9785 39.4531-51.5625Q39.4531-50.0488 40.4541-49.0234Q41.4551-47.998 42.9688-47.998ZM42.9688-32.8613L59.1309-32.8613Q60.5957-32.8613 61.5967-33.8623Q62.5977-34.8633 62.5977-36.2793Q62.5977-37.793 61.5967-38.8184Q60.5957-39.8438 59.1309-39.8438L42.9688-39.8438Q41.4551-39.8438 40.4541-38.8184Q39.4531-37.793 39.4531-36.2793Q39.4531-34.8633 40.4541-33.8623Q41.4551-32.8613 42.9688-32.8613Z"/>
  </g>
  <g id="Heavy-M" transform="matrix(1 0 0 1 2579.78 1126)">
   <path d="M30.6641 19.2383L83.1543 19.2383Q91.8945 19.2383 96.6309 14.4775Q101.367 9.7168 101.367 0.976562L101.367-71.4355Q101.367-80.1758 96.6309-84.9365Q91.8945-89.6973 83.1543-89.6973L68.2617-89.6973Q64.8438-89.6973 64.8438-86.8164Q64.8438-83.7891 62.7686-81.3232Q60.6934-78.8574 56.9336-78.8574Q53.125-78.8574 51.0498-81.3232Q48.9746-83.7891 48.9746-86.8164Q48.9746-89.6973 45.5566-89.6973L30.6641-89.6973Q21.9238-89.6973 17.1875-84.9365Q12.4512-80.1758 12.4512-71.4355L12.4512 0.976562Q12.4512 9.7168 17.1875 14.4775Q21.9238 19.2383 30.6641 19.2383ZM32.8125 4.15039Q30.0293 4.15039 28.7842 2.83203Q27.5391 1.51367 27.5391-1.07422L27.5391-69.3848Q27.5391-71.9727 28.7842-73.291Q30.0293-74.6094 32.8125-74.6094L48.877-74.6094L39.3066-80.0293Q40.1367-73.0469 44.9463-69.0186Q49.7559-64.9902 56.9336-64.9902Q64.0625-64.9902 68.8965-69.0186Q73.7305-73.0469 74.5605-80.0293L64.9902-74.6094L81.0547-74.6094Q83.7891-74.6094 85.0342-73.291Q86.2793-71.9727 86.2793-69.3848L86.2793-1.07422Q86.2793 1.51367 85.0342 2.83203Q83.7891 4.15039 81.0547 4.15039ZM41.1133-48.7793L72.7051-48.7793Q74.1699-48.7793 75.1221-49.7559Q76.0742-50.7324 76.0742-52.1973Q76.0742-53.6133 75.1221-54.5654Q74.1699-55.5176 72.7051-55.5176L41.1133-55.5176Q39.5996-55.5176 38.6475-54.5654Q37.6953-53.6133 37.6953-52.1973Q37.6953-50.7324 38.6475-49.7559Q39.5996-48.7793 41.1133-48.7793ZM41.1133-33.1055L57.5684-33.1055Q58.9844-33.1055 59.9609-34.082Q60.9375-35.0586 60.9375-36.4258Q60.9375-37.8906 59.9609-38.8672Q58.9844-39.8438 57.5684-39.8438L41.1133-39.8438Q39.5996-39.8438 38.6475-38.8672Q37.6953-37.8906 37.6953-36.4258Q37.6953-35.0586 38.6475-34.082Q39.5996-33.1055 41.1133-33.1055Z"/>
  </g>
  <g id="Bold-M" transform="matrix(1 0 0 1 2284.24 1126)">
   <path d="M29.5898 18.5059L81.8848 18.5059Q90.2344 18.5059 94.6289 14.0625Q99.0234 9.61914 99.0234 1.26953L99.0234-71.7285Q99.0234-80.127 94.6289-84.5459Q90.2344-88.9648 81.8848-88.9648L67.1387-88.9648Q63.9648-88.9648 63.9648-86.084Q63.9648-82.8125 61.7676-80.3467Q59.5703-77.8809 55.7617-77.8809Q51.9043-77.8809 49.707-80.3467Q47.5098-82.8125 47.5098-86.084Q47.5098-88.9648 44.3359-88.9648L29.5898-88.9648Q21.2891-88.9648 16.8701-84.5459Q12.4512-80.127 12.4512-71.7285L12.4512 1.26953Q12.4512 9.61914 16.8701 14.0625Q21.2891 18.5059 29.5898 18.5059ZM31.1523 5.9082Q28.0273 5.9082 26.5381 4.37012Q25.0488 2.83203 25.0488-0.146484L25.0488-70.3613Q25.0488-73.291 26.5381-74.8535Q28.0273-76.416 31.1523-76.416L46.4844-76.416L38.623-80.9082Q39.4043-74.1211 44.0674-70.1416Q48.7305-66.1621 55.7617-66.1621Q62.7441-66.1621 67.4316-70.1416Q72.1191-74.1211 72.9004-80.9082L65.0391-76.416L80.3711-76.416Q83.4961-76.416 84.9609-74.8535Q86.4258-73.291 86.4258-70.3613L86.4258-0.146484Q86.4258 2.83203 84.9609 4.37012Q83.4961 5.9082 80.3711 5.9082ZM39.0137-49.6094L72.5098-49.6094Q73.877-49.6094 74.8047-50.5615Q75.7324-51.5137 75.7324-52.9297Q75.7324-54.2969 74.8047-55.2246Q73.877-56.1523 72.5098-56.1523L39.0137-56.1523Q37.5977-56.1523 36.6699-55.2246Q35.7422-54.2969 35.7422-52.9297Q35.7422-51.5137 36.6699-50.5615Q37.5977-49.6094 39.0137-49.6094ZM39.0137-33.3984L55.8594-33.3984Q57.2266-33.3984 58.1543-34.3262Q59.082-35.2539 59.082-36.5723Q59.082-37.9883 58.1543-38.9404Q57.2266-39.8926 55.8594-39.8926L39.0137-39.8926Q37.5977-39.8926 36.6699-38.9404Q35.7422-37.9883 35.7422-36.5723Q35.7422-35.2539 36.6699-34.3262Q37.5977-33.3984 39.0137-33.3984Z"/>
  </g>
  <g id="Semibold-M" transform="matrix(1 0 0 1 1988.34 1126)">
   <path d="M28.8574 17.9688L81.0059 17.9688Q89.0625 17.9688 93.2373 13.7695Q97.4121 9.57031 97.4121 1.46484L97.4121-71.9238Q97.4121-80.0293 93.2373-84.2529Q89.0625-88.4766 81.0059-88.4766L66.3086-88.4766Q63.3301-88.4766 63.3301-85.5469Q63.3301-82.0801 61.0596-79.6387Q58.7891-77.1973 54.9316-77.1973Q51.0742-77.1973 48.8037-79.6387Q46.5332-82.0801 46.5332-85.5469Q46.5332-88.4766 43.5059-88.4766L28.8574-88.4766Q20.8008-88.4766 16.626-84.2529Q12.4512-80.0293 12.4512-71.9238L12.4512 1.46484Q12.4512 9.57031 16.626 13.7695Q20.8008 17.9688 28.8574 17.9688ZM29.9805 7.12891Q26.6113 7.12891 24.9756 5.41992Q23.3398 3.71094 23.3398 0.537109L23.3398-70.9961Q23.3398-74.2188 24.9756-75.9033Q26.6113-77.5879 29.9805-77.5879L44.7754-77.5879L38.1836-81.4941Q38.8672-74.8535 43.457-70.9229Q48.0469-66.9922 54.9316-66.9922Q61.8164-66.9922 66.4062-70.9229Q70.9961-74.8535 71.7285-81.4941L65.0879-77.5879L79.8828-77.5879Q83.252-77.5879 84.8877-75.9033Q86.5234-74.2188 86.5234-70.9961L86.5234 0.537109Q86.5234 3.71094 84.8877 5.41992Q83.252 7.12891 79.8828 7.12891ZM37.5488-50.1953L72.3145-50.1953Q73.6816-50.1953 74.585-51.123Q75.4883-52.0508 75.4883-53.418Q75.4883-54.7363 74.585-55.6396Q73.6816-56.543 72.3145-56.543L37.5488-56.543Q36.1816-56.543 35.2783-55.6396Q34.375-54.7363 34.375-53.418Q34.375-52.0508 35.2783-51.123Q36.1816-50.1953 37.5488-50.1953ZM37.5488-33.5449L54.6387-33.5449Q56.0059-33.5449 56.9092-34.4482Q57.8125-35.3516 57.8125-36.6699Q57.8125-38.0371 56.9092-38.9648Q56.0059-39.8926 54.6387-39.8926L37.5488-39.8926Q36.1816-39.8926 35.2783-38.9648Q34.375-38.0371 34.375-36.6699Q34.375-35.3516 35.2783-34.4482Q36.1816-33.5449 37.5488-33.5449Z"/>
  </g>
  <g id="Medium-M" transform="matrix(1 0 0 1 1692.23 1126)">
   <path d="M28.3203 17.5781L80.3223 17.5781Q88.1836 17.5781 92.1875 13.5254Q96.1914 9.47266 96.1914 1.61133L96.1914-72.0703Q96.1914-79.9805 92.1875-84.0332Q88.1836-88.0859 80.3223-88.0859L65.7227-88.0859Q62.8418-88.0859 62.8418-85.1562Q62.8418-81.543 60.5225-79.126Q58.2031-76.709 54.2969-76.709Q50.4395-76.709 48.0957-79.126Q45.752-81.543 45.752-85.1562Q45.752-88.0859 42.8711-88.0859L28.3203-88.0859Q20.459-88.0859 16.4551-84.0332Q12.4512-79.9805 12.4512-72.0703L12.4512 1.61133Q12.4512 9.47266 16.4551 13.5254Q20.459 17.5781 28.3203 17.5781ZM29.1016 8.05664Q25.5371 8.05664 23.7793 6.22559Q22.0215 4.39453 22.0215 1.02539L22.0215-71.4844Q22.0215-74.9023 23.7793-76.709Q25.5371-78.5156 29.1016-78.5156L43.5547-78.5156L37.793-81.9336Q38.4766-75.3906 42.9932-71.4844Q47.5098-67.5781 54.2969-67.5781Q61.1328-67.5781 65.6494-71.4844Q70.166-75.3906 70.8496-81.9336L65.0879-78.5156L79.541-78.5156Q83.0566-78.5156 84.8389-76.709Q86.6211-74.9023 86.6211-71.4844L86.6211 1.02539Q86.6211 4.39453 84.8389 6.22559Q83.0566 8.05664 79.541 8.05664ZM36.4258-50.6348L72.2168-50.6348Q73.5352-50.6348 74.4141-51.5381Q75.293-52.4414 75.293-53.8086Q75.293-55.0781 74.4141-55.9814Q73.5352-56.8848 72.2168-56.8848L36.4258-56.8848Q35.1074-56.8848 34.2285-55.9814Q33.3496-55.0781 33.3496-53.8086Q33.3496-52.4414 34.2285-51.5381Q35.1074-50.6348 36.4258-50.6348ZM36.4258-33.6914L53.7109-33.6914Q55.0781-33.6914 55.957-34.5703Q56.8359-35.4492 56.8359-36.7676Q56.8359-38.0859 55.957-38.9893Q55.0781-39.8926 53.7109-39.8926L36.4258-39.8926Q35.1074-39.8926 34.2285-38.9893Q33.3496-38.0859 33.3496-36.7676Q33.3496-35.4492 34.2285-34.5703Q35.1074-33.6914 36.4258-33.6914Z"/>
  </g>
  <g id="Regular-M" transform="matrix(1 0 0 1 1396.33 1126)">
   <path d="M27.5879 17.0898L79.4434 17.0898Q87.0117 17.0898 90.7959 13.2568Q94.5801 9.42383 94.5801 1.80664L94.5801-72.2656Q94.5801-79.9316 90.7959-83.7646Q87.0117-87.5977 79.4434-87.5977L64.9414-87.5977Q62.207-87.5977 62.207-84.668Q62.207-80.8594 59.8145-78.4424Q57.4219-76.0254 53.5156-76.0254Q49.6094-76.0254 47.1924-78.4424Q44.7754-80.8594 44.7754-84.668Q44.7754-87.5977 42.041-87.5977L27.5879-87.5977Q20.0195-87.5977 16.2354-83.7646Q12.4512-79.9316 12.4512-72.2656L12.4512 1.80664Q12.4512 9.42383 16.2354 13.2568Q20.0195 17.0898 27.5879 17.0898ZM27.9785 9.22852Q24.1699 9.22852 22.2412 7.25098Q20.3125 5.27344 20.3125 1.66016L20.3125-72.1191Q20.3125-75.7812 22.2412-77.7588Q24.1699-79.7363 27.9785-79.7363L41.8945-79.7363L37.3535-82.5195Q37.9883-76.123 42.4072-72.2656Q46.8262-68.4082 53.5156-68.4082Q60.2051-68.4082 64.624-72.2656Q69.043-76.123 69.7266-82.5195L65.1367-79.7363L79.0527-79.7363Q82.8613-79.7363 84.79-77.7588Q86.7188-75.7812 86.7188-72.1191L86.7188 1.66016Q86.7188 5.27344 84.79 7.25098Q82.8613 9.22852 79.0527 9.22852ZM35.0098-51.2207L72.0703-51.2207Q73.3398-51.2207 74.1943-52.0996Q75.0488-52.9785 75.0488-54.2969Q75.0488-55.5664 74.1943-56.4209Q73.3398-57.2754 72.0703-57.2754L35.0098-57.2754Q33.6914-57.2754 32.8369-56.4209Q31.9824-55.5664 31.9824-54.2969Q31.9824-52.9785 32.8369-52.0996Q33.6914-51.2207 35.0098-51.2207ZM35.0098-33.8867L52.5391-33.8867Q53.8574-33.8867 54.7119-34.7412Q55.5664-35.5957 55.5664-36.8652Q55.5664-38.1348 54.7119-39.0137Q53.8574-39.8926 52.5391-39.8926L35.0098-39.8926Q33.6914-39.8926 32.8369-39.0137Q31.9824-38.1348 31.9824-36.8652Q31.9824-35.5957 32.8369-34.7412Q33.6914-33.8867 35.0098-33.8867Z"/>
  </g>
  <g id="Light-M" transform="matrix(1 0 0 1 1100.33 1126)">
   <path d="M26.709 16.7969L78.9062 16.7969Q85.9863 16.7969 89.5752 13.1836Q93.1641 9.57031 93.1641 2.44141L93.1641-72.8516Q93.1641-80.0293 89.5996-83.6426Q86.0352-87.2559 78.9062-87.2559L64.4043-87.2559Q62.3535-87.2559 62.3535-85.0098Q62.3535-80.957 59.7168-78.2959Q57.0801-75.6348 52.832-75.6348Q48.584-75.6348 45.9229-78.2959Q43.2617-80.957 43.2617-85.0098Q43.2617-87.2559 41.1621-87.2559L26.709-87.2559Q19.6289-87.2559 16.04-83.6426Q12.4512-80.0293 12.4512-72.8516L12.4512 2.44141Q12.4512 9.57031 16.0645 13.1836Q19.6777 16.7969 26.709 16.7969ZM27.002 10.791Q22.8027 10.791 20.6543 8.56934Q18.5059 6.34766 18.5059 2.29492L18.5059-72.7051Q18.5059-76.8555 20.6543-79.0283Q22.8027-81.2012 27.002-81.2012L41.0156-81.2012L37.5-83.3984Q37.9883-77.2461 42.2119-73.5107Q46.4355-69.7754 52.832-69.7754Q59.2285-69.7754 63.4277-73.5107Q67.627-77.2461 68.1641-83.3984L64.5996-81.2012L78.6133-81.2012Q82.8613-81.2012 85.0098-79.0283Q87.1582-76.8555 87.1582-72.7051L87.1582 2.29492Q87.1582 6.34766 85.0098 8.56934Q82.8613 10.791 78.6133 10.791ZM33.6426-52.4414L72.0215-52.4414Q73.0469-52.4414 73.7305-53.1494Q74.4141-53.8574 74.4141-54.9316Q74.4141-55.957 73.7305-56.6406Q73.0469-57.3242 72.0215-57.3242L33.6426-57.3242Q32.6172-57.3242 31.9092-56.6406Q31.2012-55.957 31.2012-54.9316Q31.2012-53.8574 31.9092-53.1494Q32.6172-52.4414 33.6426-52.4414ZM33.6426-34.668L52.1484-34.668Q53.1738-34.668 53.8818-35.3516Q54.5898-36.0352 54.5898-37.0605Q54.5898-38.0859 53.8818-38.7939Q53.1738-39.502 52.1484-39.502L33.6426-39.502Q32.6172-39.502 31.9092-38.7939Q31.2012-38.0859 31.2012-37.0605Q31.2012-36.0352 31.9092-35.3516Q32.6172-34.668 33.6426-34.668Z"/>
  </g>
  <g id="Thin-M" transform="matrix(1 0 0 1 804.518 1126)">
   <path d="M25.5859 16.4551L78.2227 16.4551Q84.6191 16.4551 87.9883 13.1104Q91.3574 9.76562 91.3574 3.27148L91.3574-73.584Q91.3574-80.127 88.0127-83.4473Q84.668-86.7676 78.2227-86.7676L63.7695-86.7676Q62.5-86.7676 62.5-85.498Q62.5-81.0547 59.5459-78.1006Q56.5918-75.1465 51.9043-75.1465Q47.2168-75.1465 44.2383-78.1006Q41.2598-81.0547 41.2598-85.498Q41.2598-86.7676 40.0391-86.7676L25.5859-86.7676Q19.0918-86.7676 15.7715-83.4473Q12.4512-80.127 12.4512-73.584L12.4512 3.27148Q12.4512 9.76562 15.8203 13.1104Q19.1895 16.4551 25.5859 16.4551ZM25.7812 12.793Q20.9473 12.793 18.5303 10.2783Q16.1133 7.76367 16.1133 3.17383L16.1133-73.4863Q16.1133-78.2227 18.5303-80.6885Q20.9473-83.1543 25.7812-83.1543L39.8926-83.1543L37.6953-84.5703Q38.0371-78.7109 41.9678-75.1465Q45.8984-71.582 51.9043-71.582Q57.8613-71.582 61.8164-75.1465Q65.7715-78.7109 66.1133-84.5703L63.916-83.1543L78.0273-83.1543Q82.8125-83.1543 85.2539-80.6885Q87.6953-78.2227 87.6953-73.4863L87.6953 3.17383Q87.6953 7.76367 85.2539 10.2783Q82.8125 12.793 78.0273 12.793ZM31.8848-54.1016L72.0215-54.1016Q72.6562-54.1016 73.1201-54.5654Q73.584-55.0293 73.584-55.7617Q73.584-56.4941 73.1201-56.958Q72.6562-57.4219 72.0215-57.4219L31.8848-57.4219Q31.1523-57.4219 30.6641-56.958Q30.1758-56.4941 30.1758-55.7617Q30.1758-55.0293 30.6641-54.5654Q31.1523-54.1016 31.8848-54.1016ZM31.8848-35.6934L51.6113-35.6934Q52.2949-35.6934 52.7832-36.1816Q53.2715-36.6699 53.2715-37.3047Q53.2715-37.9883 52.7832-38.4766Q52.2949-38.9648 51.6113-38.9648L31.8848-38.9648Q31.1523-38.9648 30.6641-38.4766Q30.1758-37.9883 30.1758-37.3047Q30.1758-36.6699 30.6641-36.1816Q31.1523-35.6934 31.8848-35.6934Z"/>
  </g>
  <g id="Ultralight-M" transform="matrix(1 0 0 1 508.295 1126)">
   <path d="M25 16.2598L77.832 16.2598Q83.9355 16.2598 87.1582 13.0615Q90.3809 9.86328 90.3809 3.71094L90.3809-73.9746Q90.3809-80.1758 87.207-83.374Q84.0332-86.5723 77.832-86.5723L63.3789-86.5723Q62.5977-86.5723 62.5977-85.6934Q62.5977-81.1523 59.4971-78.0273Q56.3965-74.9023 51.416-74.9023Q46.5332-74.9023 43.3838-78.0273Q40.2344-81.1523 40.2344-85.6934Q40.2344-86.5723 39.4531-86.5723L25-86.5723Q18.8477-86.5723 15.6494-83.374Q12.4512-80.1758 12.4512-73.9746L12.4512 3.71094Q12.4512 9.86328 15.6982 13.0615Q18.9453 16.2598 25 16.2598ZM25.0977 13.8672Q20.0195 13.8672 17.4316 11.1816Q14.8438 8.49609 14.8438 3.61328L14.8438-73.877Q14.8438-78.9551 17.4316-81.543Q20.0195-84.1309 25.0977-84.1309L39.3066-84.1309L37.793-85.1562Q38.0371-79.4922 41.8457-76.001Q45.6543-72.5098 51.416-72.5098Q57.2266-72.5098 61.0352-76.001Q64.8438-79.4922 65.0391-85.1562L63.5254-84.1309L77.7344-84.1309Q82.8125-84.1309 85.4004-81.543Q87.9883-78.9551 87.9883-73.877L87.9883 3.61328Q87.9883 8.49609 85.4004 11.1816Q82.8125 13.8672 77.7344 13.8672ZM30.957-54.9316L71.9727-54.9316Q72.4609-54.9316 72.8271-55.2734Q73.1934-55.6152 73.1934-56.1523Q73.1934-56.7871 72.8271-57.1289Q72.4609-57.4707 71.9727-57.4707L30.957-57.4707Q30.4199-57.4707 30.0537-57.1289Q29.6875-56.7871 29.6875-56.1523Q29.6875-55.6152 30.0537-55.2734Q30.4199-54.9316 30.957-54.9316ZM30.957-36.2305L51.3184-36.2305Q51.8555-36.2305 52.2461-36.5967Q52.6367-36.9629 52.6367-37.4512Q52.6367-37.9395 52.2461-38.3057Q51.8555-38.6719 51.3184-38.6719L30.957-38.6719Q30.4199-38.6719 30.0537-38.3057Q29.6875-37.9395 29.6875-37.4512Q29.6875-36.9629 30.0537-36.5967Q30.4199-36.2305 30.957-36.2305Z"/>
  </g>
  <g id="Black-S" transform="matrix(1 0 0 1 2887.7 696)">
   <path d="M25 8.1543L66.4062 8.1543Q73.584 8.1543 77.6123 4.12598Q81.6406 0.0976562 81.6406-7.08008L81.6406-63.3789Q81.6406-70.5566 77.6123-74.5605Q73.584-78.5645 66.4062-78.5645L54.5898-78.5645Q51.709-78.5645 51.709-76.3672Q51.709-74.2676 50.1953-72.3145Q48.6816-70.3613 45.7031-70.3613Q42.7246-70.3613 41.2109-72.3145Q39.6973-74.2676 39.6973-76.3672Q39.6973-78.5645 36.8164-78.5645L25-78.5645Q17.8223-78.5645 13.7939-74.5605Q9.76562-70.5566 9.76562-63.3789L9.76562-7.08008Q9.76562 0.0976562 13.7939 4.12598Q17.8223 8.1543 25 8.1543ZM27.2461-6.00586Q25.4395-6.00586 24.6826-6.83594Q23.9258-7.66602 23.9258-9.32617L23.9258-61.1328Q23.9258-62.8418 24.6826-63.6475Q25.4395-64.4531 27.2461-64.4531L40.5762-64.4531L31.4453-69.5312Q32.1289-63.8672 36.0352-60.6689Q39.9414-57.4707 45.7031-57.4707Q51.4648-57.4707 55.3711-60.6689Q59.2773-63.8672 59.9609-69.5312L50.8301-64.4531L64.1602-64.4531Q66.0156-64.4531 66.748-63.6475Q67.4805-62.8418 67.4805-61.1328L67.4805-9.32617Q67.4805-7.66602 66.748-6.83594Q66.0156-6.00586 64.1602-6.00586ZM34.1797-45.0684L57.1777-45.0684Q58.3496-45.0684 59.1309-45.874Q59.9121-46.6797 59.9121-47.8516Q59.9121-48.9746 59.1309-49.7559Q58.3496-50.5371 57.1777-50.5371L34.1797-50.5371Q32.959-50.5371 32.1777-49.7559Q31.3965-48.9746 31.3965-47.8516Q31.3965-46.6797 32.1777-45.874Q32.959-45.0684 34.1797-45.0684ZM34.1797-33.3496L46.7773-33.3496Q47.9492-33.3496 48.7305-34.1309Q49.5117-34.9121 49.5117-36.0352Q49.5117-37.207 48.7305-38.0127Q47.9492-38.8184 46.7773-38.8184L34.1797-38.8184Q32.959-38.8184 32.1777-38.0127Q31.3965-37.207 31.3965-36.0352Q31.3965-34.9121 32.1777-34.1309Q32.959-33.3496 34.1797-33.3496Z"/>
  </g>
  <g id="Heavy-S" transform="matrix(1 0 0 1 2591.79 696)">
   <path d="M24.3164 7.61719L65.4785 7.61719Q72.4121 7.61719 76.2207 3.80859Q80.0293 0 80.0293-6.93359L80.0293-63.5254Q80.0293-70.459 76.2207-74.2676Q72.4121-78.0762 65.4785-78.0762L53.7598-78.0762Q50.9766-78.0762 50.9766-75.7324Q50.9766-73.4863 49.4141-71.582Q47.8516-69.6777 44.873-69.6777Q41.9434-69.6777 40.3564-71.582Q38.7695-73.4863 38.7695-75.7324Q38.7695-78.0762 35.9863-78.0762L24.3164-78.0762Q17.3828-78.0762 13.5742-74.2676Q9.76562-70.459 9.76562-63.5254L9.76562-6.93359Q9.76562 0 13.5742 3.80859Q17.3828 7.61719 24.3164 7.61719ZM26.123-4.83398Q24.0723-4.83398 23.1689-5.81055Q22.2656-6.78711 22.2656-8.69141L22.2656-61.7676Q22.2656-63.7207 23.1689-64.6729Q24.0723-65.625 26.123-65.625L38.8672-65.625L30.9082-70.0684Q31.5918-64.5508 35.4004-61.377Q39.209-58.2031 44.873-58.2031Q50.5859-58.2031 54.3945-61.377Q58.2031-64.5508 58.8867-70.0684L50.9277-65.625L63.6719-65.625Q65.7715-65.625 66.6504-64.6729Q67.5293-63.7207 67.5293-61.7676L67.5293-8.69141Q67.5293-6.78711 66.6504-5.81055Q65.7715-4.83398 63.6719-4.83398ZM32.7637-45.5566L57.0312-45.5566Q58.1543-45.5566 58.9355-46.3623Q59.7168-47.168 59.7168-48.3398Q59.7168-49.4629 58.9355-50.2197Q58.1543-50.9766 57.0312-50.9766L32.7637-50.9766Q31.543-50.9766 30.7617-50.2197Q29.9805-49.4629 29.9805-48.3398Q29.9805-47.168 30.7617-46.3623Q31.543-45.5566 32.7637-45.5566ZM32.7637-33.4473L45.5078-33.4473Q46.6797-33.4473 47.4609-34.2285Q48.2422-35.0098 48.2422-36.1328Q48.2422-37.3047 47.4609-38.0859Q46.6797-38.8672 45.5078-38.8672L32.7637-38.8672Q31.543-38.8672 30.7617-38.0859Q29.9805-37.3047 29.9805-36.1328Q29.9805-35.0098 30.7617-34.2285Q31.543-33.4473 32.7637-33.4473Z"/>
  </g>
  <g id="Bold-S" transform="matrix(1 0 0 1 2295.98 696)">
   <path d="M23.5352 7.03125L64.4531 7.03125Q71.1426 7.03125 74.6826 3.44238Q78.2227-0.146484 78.2227-6.83594L78.2227-63.6719Q78.2227-70.4102 74.6826-73.9502Q71.1426-77.4902 64.4531-77.4902L52.8809-77.4902Q50.1953-77.4902 50.1953-75.0977Q50.1953-72.6074 48.5596-70.752Q46.9238-68.8965 43.9941-68.8965Q41.0645-68.8965 39.4287-70.752Q37.793-72.6074 37.793-75.0977Q37.793-77.4902 35.1074-77.4902L23.5352-77.4902Q16.8457-77.4902 13.3057-73.9502Q9.76562-70.4102 9.76562-63.6719L9.76562-6.83594Q9.76562-0.146484 13.3057 3.44238Q16.8457 7.03125 23.5352 7.03125ZM24.8535-3.56445Q22.5586-3.56445 21.46-4.71191Q20.3613-5.85938 20.3613-8.00781L20.3613-62.5Q20.3613-64.6973 21.46-65.8203Q22.5586-66.9434 24.8535-66.9434L36.9141-66.9434L30.3223-70.7031Q30.957-65.2832 34.6924-62.1582Q38.4277-59.0332 43.9941-59.0332Q49.6094-59.0332 53.3203-62.1582Q57.0312-65.2832 57.666-70.7031L51.0742-66.9434L63.1836-66.9434Q65.4785-66.9434 66.5527-65.8203Q67.627-64.6973 67.627-62.5L67.627-8.00781Q67.627-5.85938 66.5527-4.71191Q65.4785-3.56445 63.1836-3.56445ZM31.1523-46.1426L56.8359-46.1426Q58.0078-46.1426 58.7646-46.9238Q59.5215-47.7051 59.5215-48.877Q59.5215-50 58.7646-50.7568Q58.0078-51.5137 56.8359-51.5137L31.1523-51.5137Q29.9805-51.5137 29.1992-50.7568Q28.418-50 28.418-48.877Q28.418-47.7051 29.1992-46.9238Q29.9805-46.1426 31.1523-46.1426ZM31.1523-33.5938L44.0918-33.5938Q45.2637-33.5938 46.0205-34.3506Q46.7773-35.1074 46.7773-36.2305Q46.7773-37.4023 46.0205-38.1836Q45.2637-38.9648 44.0918-38.9648L31.1523-38.9648Q29.9805-38.9648 29.1992-38.1836Q28.418-37.4023 28.418-36.2305Q28.418-35.1074 29.1992-34.3506Q29.9805-33.5938 31.1523-33.5938Z"/>
  </g>
  <g id="Semibold-S" transform="matrix(1 0 0 1 1999.88 696)">
   <path d="M22.9492 6.64062L63.7207 6.64062Q70.2148 6.64062 73.6084 3.22266Q77.002-0.195312 77.002-6.68945L77.002-63.7695Q77.002-70.3125 73.6084-73.7061Q70.2148-77.0996 63.7207-77.0996L52.2461-77.0996Q49.6094-77.0996 49.6094-74.6094Q49.6094-72.0215 47.9492-70.166Q46.2891-68.3105 43.3594-68.3105Q40.4785-68.3105 38.7695-70.166Q37.0605-72.0215 37.0605-74.6094Q37.0605-77.0996 34.4727-77.0996L22.9492-77.0996Q16.5039-77.0996 13.1348-73.7061Q9.76562-70.3125 9.76562-63.7695L9.76562-6.68945Q9.76562-0.195312 13.1348 3.22266Q16.5039 6.64062 22.9492 6.64062ZM23.9258-2.68555Q21.4844-2.68555 20.2637-3.93066Q19.043-5.17578 19.043-7.4707L19.043-62.9883Q19.043-65.332 20.2637-66.5771Q21.4844-67.8223 23.9258-67.8223L35.5957-67.8223L29.9316-71.1426Q30.5176-65.8203 34.1797-62.6953Q37.8418-59.5703 43.3594-59.5703Q48.877-59.5703 52.5391-62.6953Q56.2012-65.8203 56.8359-71.1426L51.123-67.8223L62.793-67.8223Q65.2344-67.8223 66.4307-66.5771Q67.627-65.332 67.627-62.9883L67.627-7.4707Q67.627-5.17578 66.4307-3.93066Q65.2344-2.68555 62.793-2.68555ZM30.0293-46.4844L56.6895-46.4844Q57.8613-46.4844 58.6182-47.29Q59.375-48.0957 59.375-49.2188Q59.375-50.3418 58.6182-51.0986Q57.8613-51.8555 56.6895-51.8555L30.0293-51.8555Q28.8574-51.8555 28.1006-51.0986Q27.3438-50.3418 27.3438-49.2188Q27.3438-48.0957 28.1006-47.29Q28.8574-46.4844 30.0293-46.4844ZM30.0293-33.6426L43.1152-33.6426Q44.2383-33.6426 45.0195-34.3994Q45.8008-35.1562 45.8008-36.2793Q45.8008-37.4512 45.0195-38.2324Q44.2383-39.0137 43.1152-39.0137L30.0293-39.0137Q28.8574-39.0137 28.1006-38.2324Q27.3438-37.4512 27.3438-36.2793Q27.3438-35.1562 28.1006-34.3994Q28.8574-33.6426 30.0293-33.6426Z"/>
  </g>
  <g id="Medium-S" transform="matrix(1 0 0 1 1703.66 696)">
   <path d="M22.5586 6.29883L63.1836 6.29883Q69.5312 6.29883 72.7783 3.02734Q76.0254-0.244141 76.0254-6.64062L76.0254-63.8672Q76.0254-70.2637 72.7783-73.5352Q69.5312-76.8066 63.1836-76.8066L51.7578-76.8066Q49.1699-76.8066 49.1699-74.2676Q49.1699-71.5332 47.4854-69.7266Q45.8008-67.9199 42.9199-67.9199Q39.9902-67.9199 38.2568-69.7266Q36.5234-71.5332 36.5234-74.2676Q36.5234-76.8066 33.9844-76.8066L22.5586-76.8066Q16.2109-76.8066 12.9883-73.5352Q9.76562-70.2637 9.76562-63.8672L9.76562-6.64062Q9.76562-0.244141 12.9883 3.02734Q16.2109 6.29883 22.5586 6.29883ZM23.291-2.00195Q20.6543-2.00195 19.3604-3.32031Q18.0664-4.63867 18.0664-7.12891L18.0664-63.3789Q18.0664-65.8691 19.3604-67.1875Q20.6543-68.5059 23.291-68.5059L34.5703-68.5059L29.5898-71.4355Q30.2246-66.2109 33.8135-63.1104Q37.4023-60.0098 42.9199-60.0098Q48.3887-60.0098 52.002-63.1104Q55.6152-66.2109 56.2012-71.4355L51.1719-68.5059L62.5-68.5059Q65.0879-68.5059 66.3818-67.1875Q67.6758-65.8691 67.6758-63.3789L67.6758-7.12891Q67.6758-4.63867 66.3818-3.32031Q65.0879-2.00195 62.5-2.00195ZM29.1992-46.7773L56.6406-46.7773Q57.7637-46.7773 58.5205-47.5586Q59.2773-48.3398 59.2773-49.5117Q59.2773-50.6348 58.5205-51.3672Q57.7637-52.0996 56.6406-52.0996L29.1992-52.0996Q28.0273-52.0996 27.2705-51.3672Q26.5137-50.6348 26.5137-49.5117Q26.5137-48.3398 27.2705-47.5586Q28.0273-46.7773 29.1992-46.7773ZM29.1992-33.6914L42.3828-33.6914Q43.5059-33.6914 44.2627-34.4727Q45.0195-35.2539 45.0195-36.377Q45.0195-37.5 44.2627-38.2812Q43.5059-39.0625 42.3828-39.0625L29.1992-39.0625Q28.0273-39.0625 27.2705-38.2812Q26.5137-37.5 26.5137-36.377Q26.5137-35.2539 27.2705-34.4727Q28.0273-33.6914 29.1992-33.6914Z"/>
  </g>
  <g id="Regular-S" transform="matrix(1 0 0 1 1407.56 696)">
   <path d="M22.0215 5.9082L62.5 5.9082Q68.6523 5.9082 71.7285 2.7832Q74.8047-0.341797 74.8047-6.54297L74.8047-63.9648Q74.8047-70.2148 71.7285-73.3154Q68.6523-76.416 62.5-76.416L51.123-76.416Q48.6328-76.416 48.6328-73.7793Q48.6328-70.9473 46.8994-69.165Q45.166-67.3828 42.2852-67.3828Q39.4043-67.3828 37.6221-69.165Q35.8398-70.9473 35.8398-73.7793Q35.8398-76.416 33.3496-76.416L22.0215-76.416Q15.8691-76.416 12.8174-73.3154Q9.76562-70.2148 9.76562-63.9648L9.76562-6.54297Q9.76562-0.341797 12.8174 2.7832Q15.8691 5.9082 22.0215 5.9082ZM22.4121-1.12305Q19.6289-1.12305 18.2129-2.56348Q16.7969-4.00391 16.7969-6.64062L16.7969-63.8672Q16.7969-66.5039 18.2129-67.9443Q19.6289-69.3848 22.4121-69.3848L33.252-69.3848L29.1992-71.875Q29.7852-66.6992 33.3252-63.623Q36.8652-60.5469 42.2852-60.5469Q47.7051-60.5469 51.2451-63.623Q54.7852-66.6992 55.3711-71.875L51.2695-69.3848L62.1582-69.3848Q64.8926-69.3848 66.3086-67.9443Q67.7246-66.5039 67.7246-63.8672L67.7246-6.64062Q67.7246-4.00391 66.3086-2.56348Q64.8926-1.12305 62.1582-1.12305ZM28.125-47.168L56.4941-47.168Q57.6172-47.168 58.374-47.9492Q59.1309-48.7305 59.1309-49.8535Q59.1309-50.9766 58.374-51.709Q57.6172-52.4414 56.4941-52.4414L28.125-52.4414Q26.9531-52.4414 26.1963-51.709Q25.4395-50.9766 25.4395-49.8535Q25.4395-48.7305 26.1963-47.9492Q26.9531-47.168 28.125-47.168ZM28.125-33.7891L41.4062-33.7891Q42.5293-33.7891 43.2861-34.5459Q44.043-35.3027 44.043-36.4258Q44.043-37.5488 43.2861-38.3301Q42.5293-39.1113 41.4062-39.1113L28.125-39.1113Q26.9531-39.1113 26.1963-38.3301Q25.4395-37.5488 25.4395-36.4258Q25.4395-35.3027 26.1963-34.5459Q26.9531-33.7891 28.125-33.7891Z"/>
  </g>
  <g id="Light-S" transform="matrix(1 0 0 1 1111.46 696)">
   <path d="M21.2891 5.66406L62.0117 5.66406Q67.7246 5.66406 70.6543 2.73438Q73.584-0.195312 73.584-5.95703L73.584-64.502Q73.584-70.2637 70.6787-73.1934Q67.7734-76.123 62.0117-76.123L50.6836-76.123Q48.7793-76.123 48.7793-74.0723Q48.7793-71.0449 46.8018-69.043Q44.8242-67.041 41.6504-67.041Q38.4766-67.041 36.4746-69.043Q34.4727-71.0449 34.4727-74.0723Q34.4727-76.123 32.6172-76.123L21.2891-76.123Q15.5273-76.123 12.6465-73.1934Q9.76562-70.2637 9.76562-64.502L9.76562-5.95703Q9.76562-0.195312 12.6465 2.73438Q15.5273 5.66406 21.2891 5.66406ZM21.582 0.244141Q18.4082 0.244141 16.7969-1.41602Q15.1855-3.07617 15.1855-6.05469L15.1855-64.4043Q15.1855-67.4316 16.7969-69.0674Q18.4082-70.7031 21.582-70.7031L32.5195-70.7031L29.3457-72.6562Q29.7852-67.6758 33.1543-64.7217Q36.5234-61.7676 41.6504-61.7676Q46.8262-61.7676 50.1709-64.7217Q53.5156-67.6758 54.0039-72.6562L50.7812-70.7031L61.7676-70.7031Q64.8926-70.7031 66.5039-69.0674Q68.1152-67.4316 68.1152-64.4043L68.1152-6.05469Q68.1152-3.07617 66.5039-1.41602Q64.8926 0.244141 61.7676 0.244141ZM26.9043-48.291L56.4453-48.291Q57.373-48.291 57.9834-48.9014Q58.5938-49.5117 58.5938-50.3906Q58.5938-51.3184 57.9834-51.9043Q57.373-52.4902 56.4453-52.4902L26.9043-52.4902Q25.9766-52.4902 25.3662-51.9043Q24.7559-51.3184 24.7559-50.3906Q24.7559-49.5117 25.3662-48.9014Q25.9766-48.291 26.9043-48.291ZM26.9043-34.4727L41.0156-34.4727Q41.9434-34.4727 42.5537-35.083Q43.1641-35.6934 43.1641-36.5723Q43.1641-37.5 42.5537-38.1104Q41.9434-38.7207 41.0156-38.7207L26.9043-38.7207Q25.9766-38.7207 25.3662-38.1104Q24.7559-37.5 24.7559-36.5723Q24.7559-35.6934 25.3662-35.083Q25.9766-34.4727 26.9043-34.4727Z"/>
  </g>
  <g id="Thin-S" transform="matrix(1 0 0 1 815.577 696)">
   <path d="M20.2637 5.32227L61.4258 5.32227Q66.5527 5.32227 69.2383 2.63672Q71.9238-0.0488281 71.9238-5.22461L71.9238-65.1367Q71.9238-70.3613 69.2627-73.0469Q66.6016-75.7324 61.4258-75.7324L50.0488-75.7324Q48.9258-75.7324 48.9258-74.4629Q48.9258-71.1426 46.6797-68.8721Q44.4336-66.6016 40.8203-66.6016Q37.2559-66.6016 34.9854-68.8721Q32.7148-71.1426 32.7148-74.4629Q32.7148-75.7324 31.5918-75.7324L20.2637-75.7324Q15.0879-75.7324 12.4268-73.0469Q9.76562-70.3613 9.76562-65.1367L9.76562-5.22461Q9.76562-0.0488281 12.4512 2.63672Q15.1367 5.32227 20.2637 5.32227ZM20.459 2.05078Q16.7969 2.05078 14.9414 0.12207Q13.0859-1.80664 13.0859-5.32227L13.0859-65.0391Q13.0859-68.6523 14.9414-70.5322Q16.7969-72.4121 20.459-72.4121L31.4941-72.4121L29.4922-73.6816Q29.834-69.043 32.959-66.2109Q36.084-63.3789 40.8203-63.3789Q45.6543-63.3789 48.7549-66.2109Q51.8555-69.043 52.1484-73.6816L50.1953-72.4121L61.2305-72.4121Q64.8926-72.4121 66.7725-70.5322Q68.6523-68.6523 68.6523-65.0391L68.6523-5.32227Q68.6523-1.80664 66.7725 0.12207Q64.8926 2.05078 61.2305 2.05078ZM25.293-49.7559L56.4453-49.7559Q57.0312-49.7559 57.4219-50.1465Q57.8125-50.5371 57.8125-51.1719Q57.8125-51.8066 57.4219-52.1973Q57.0312-52.5879 56.4453-52.5879L25.293-52.5879Q24.707-52.5879 24.292-52.1973Q23.877-51.8066 23.877-51.1719Q23.877-50.5371 24.292-50.1465Q24.707-49.7559 25.293-49.7559ZM25.293-35.4004L40.5273-35.4004Q41.1621-35.4004 41.5771-35.8154Q41.9922-36.2305 41.9922-36.8164Q41.9922-37.4023 41.5771-37.8174Q41.1621-38.2324 40.5273-38.2324L25.293-38.2324Q24.707-38.2324 24.292-37.8174Q23.877-37.4023 23.877-36.8164Q23.877-36.2305 24.292-35.8154Q24.707-35.4004 25.293-35.4004Z"/>
  </g>
  <g id="Ultralight-S" transform="matrix(1 0 0 1 519.281 696)">
   <path d="M19.7754 5.17578L61.084 5.17578Q65.918 5.17578 68.5059 2.6123Q71.0938 0.0488281 71.0938-4.83398L71.0938-65.5273Q71.0938-70.4102 68.5547-72.9492Q66.0156-75.4883 61.084-75.4883L49.7559-75.4883Q49.0234-75.4883 49.0234-74.707Q49.0234-71.1914 46.6064-68.7988Q44.1895-66.4062 40.4297-66.4062Q36.6211-66.4062 34.2041-68.7988Q31.7871-71.1914 31.7871-74.707Q31.7871-75.4883 31.1035-75.4883L19.7754-75.4883Q14.8926-75.4883 12.3291-72.9492Q9.76562-70.4102 9.76562-65.5273L9.76562-4.83398Q9.76562 0.0488281 12.3291 2.6123Q14.8926 5.17578 19.7754 5.17578ZM19.873 2.97852Q15.9668 2.97852 13.9648 0.90332Q11.9629-1.17188 11.9629-4.93164L11.9629-65.4297Q11.9629-69.2871 13.9648-71.2891Q15.9668-73.291 19.873-73.291L31.0059-73.291L29.5898-74.1699Q29.834-69.6777 32.8613-66.9189Q35.8887-64.1602 40.4297-64.1602Q45.0195-64.1602 48.0225-66.9189Q51.0254-69.6777 51.2207-74.1699L49.8535-73.291L60.9863-73.291Q64.8926-73.291 66.8945-71.2891Q68.8965-69.2871 68.8965-65.4297L68.8965-4.93164Q68.8965-1.17188 66.8945 0.90332Q64.8926 2.97852 60.9863 2.97852ZM24.5117-50.4883L56.3965-50.4883Q56.8359-50.4883 57.1533-50.7568Q57.4707-51.0254 57.4707-51.5137Q57.4707-52.002 57.1533-52.3193Q56.8359-52.6367 56.3965-52.6367L24.5117-52.6367Q24.0234-52.6367 23.7061-52.3193Q23.3887-52.002 23.3887-51.5137Q23.3887-51.0254 23.7061-50.7568Q24.0234-50.4883 24.5117-50.4883ZM24.5117-35.8887L40.2832-35.8887Q40.7715-35.8887 41.0889-36.1816Q41.4062-36.4746 41.4062-36.9141Q41.4062-37.3535 41.0889-37.6709Q40.7715-37.9883 40.2832-37.9883L24.5117-37.9883Q24.0234-37.9883 23.7061-37.6709Q23.3887-37.3535 23.3887-36.9141Q23.3887-36.4746 23.7061-36.1816Q24.0234-35.8887 24.5117-35.8887Z"/>
  </g>
 </g>
</svg>
