<?xml version="1.0" encoding="UTF-8"?>
<!--Generator: Apple Native CoreSVG 149-->
<!DOCTYPE svg
PUBLIC "-//W3C//DTD SVG 1.1//EN"
       "http://www.w3.org/Graphics/SVG/1.1/DTD/svg11.dtd">
<svg version="1.1" xmlns="http://www.w3.org/2000/svg" xmlns:xlink="http://www.w3.org/1999/xlink" width="3300" height="2200">
 <!--glyph: "uni100884.medium", point size: 100.0, font version: "17.0d8e1", template writer version: "58"-->
 <style>.hierarchical-0:tertiary {fill:#8E8E8E}
.hierarchical-1:primary {fill:#212121}

.SFSymbolsPreview212121 {fill:#212121;opacity:1.0}
.SFSymbolsPreview8E8E8E {fill:#8E8E8E;opacity:1.0}
</style>
 <g id="Notes">
  <rect height="2200" id="artboard" style="fill:white;opacity:1" width="3300" x="0" y="0"/>
  <line style="fill:none;stroke:black;opacity:1;stroke-width:0.5;" x1="263" x2="3036" y1="292" y2="292"/>
  <text style="stroke:none;fill:black;font-family:SF Pro,SF Pro Display,SF Pro Text,sans-serif;font-size:13;font-weight:bold;" transform="matrix(1 0 0 1 263 322)">Weight/Scale Variations</text>
  <text style="stroke:none;fill:black;font-family:SF Pro,SF Pro Display,SF Pro Text,sans-serif;font-size:13;text-anchor:middle;" transform="matrix(1 0 0 1 559.711 322)">Ultralight</text>
  <text style="stroke:none;fill:black;font-family:SF Pro,SF Pro Display,SF Pro Text,sans-serif;font-size:13;text-anchor:middle;" transform="matrix(1 0 0 1 856.422 322)">Thin</text>
  <text style="stroke:none;fill:black;font-family:SF Pro,SF Pro Display,SF Pro Text,sans-serif;font-size:13;text-anchor:middle;" transform="matrix(1 0 0 1 1153.13 322)">Light</text>
  <text style="stroke:none;fill:black;font-family:SF Pro,SF Pro Display,SF Pro Text,sans-serif;font-size:13;text-anchor:middle;" transform="matrix(1 0 0 1 1449.84 322)">Regular</text>
  <text style="stroke:none;fill:black;font-family:SF Pro,SF Pro Display,SF Pro Text,sans-serif;font-size:13;text-anchor:middle;" transform="matrix(1 0 0 1 1746.56 322)">Medium</text>
  <text style="stroke:none;fill:black;font-family:SF Pro,SF Pro Display,SF Pro Text,sans-serif;font-size:13;text-anchor:middle;" transform="matrix(1 0 0 1 2043.27 322)">Semibold</text>
  <text style="stroke:none;fill:black;font-family:SF Pro,SF Pro Display,SF Pro Text,sans-serif;font-size:13;text-anchor:middle;" transform="matrix(1 0 0 1 2339.98 322)">Bold</text>
  <text style="stroke:none;fill:black;font-family:SF Pro,SF Pro Display,SF Pro Text,sans-serif;font-size:13;text-anchor:middle;" transform="matrix(1 0 0 1 2636.69 322)">Heavy</text>
  <text style="stroke:none;fill:black;font-family:SF Pro,SF Pro Display,SF Pro Text,sans-serif;font-size:13;text-anchor:middle;" transform="matrix(1 0 0 1 2933.4 322)">Black</text>
  <line style="fill:none;stroke:black;opacity:1;stroke-width:0.5;" x1="263" x2="3036" y1="1903" y2="1903"/>
  <g transform="matrix(1 0 0 1 263 1933)">
   <path d="M9.24805 0.830078Q10.8691 0.830078 12.2949 0.214844Q13.7207-0.400391 14.8096-1.49414Q15.8984-2.58789 16.5186-4.01367Q17.1387-5.43945 17.1387-7.05078Q17.1387-8.66211 16.5186-10.0879Q15.8984-11.5137 14.8047-12.6074Q13.7109-13.7012 12.2852-14.3164Q10.8594-14.9316 9.23828-14.9316Q7.62695-14.9316 6.20117-14.3164Q4.77539-13.7012 3.69141-12.6074Q2.60742-11.5137 1.9873-10.0879Q1.36719-8.66211 1.36719-7.05078Q1.36719-5.43945 1.9873-4.01367Q2.60742-2.58789 3.69629-1.49414Q4.78516-0.400391 6.21094 0.214844Q7.63672 0.830078 9.24805 0.830078ZM9.24805-0.654297Q7.91992-0.654297 6.7627-1.14746Q5.60547-1.64062 4.73145-2.51953Q3.85742-3.39844 3.36426-4.56055Q2.87109-5.72266 2.87109-7.05078Q2.87109-8.37891 3.35938-9.54102Q3.84766-10.7031 4.72168-11.582Q5.5957-12.4609 6.75293-12.9541Q7.91016-13.4473 9.23828-13.4473Q10.5762-13.4473 11.7334-12.9541Q12.8906-12.4609 13.7695-11.582Q14.6484-10.7031 15.1465-9.54102Q15.6445-8.37891 15.6445-7.05078Q15.6445-5.72266 15.1514-4.56055Q14.6582-3.39844 13.7842-2.51953Q12.9102-1.64062 11.748-1.14746Q10.5859-0.654297 9.24805-0.654297ZM5.83984-7.04102Q5.83984-6.71875 6.04492-6.51855Q6.25-6.31836 6.5918-6.31836L8.50586-6.31836L8.50586-4.39453Q8.50586-4.0625 8.70605-3.85742Q8.90625-3.65234 9.22852-3.65234Q9.56055-3.65234 9.76562-3.85742Q9.9707-4.0625 9.9707-4.39453L9.9707-6.31836L11.8945-6.31836Q12.2266-6.31836 12.4316-6.51855Q12.6367-6.71875 12.6367-7.04102Q12.6367-7.37305 12.4316-7.57812Q12.2266-7.7832 11.8945-7.7832L9.9707-7.7832L9.9707-9.69727Q9.9707-10.0391 9.76562-10.2441Q9.56055-10.4492 9.22852-10.4492Q8.90625-10.4492 8.70605-10.2441Q8.50586-10.0391 8.50586-9.69727L8.50586-7.7832L6.5918-7.7832Q6.25-7.7832 6.04492-7.57812Q5.83984-7.37305 5.83984-7.04102Z"/>
  </g>
  <g transform="matrix(1 0 0 1 281.867 1933)">
   <path d="M11.709 2.91016Q13.75 2.91016 15.5518 2.12891Q17.3535 1.34766 18.7305-0.0292969Q20.1074-1.40625 20.8887-3.20801Q21.6699-5.00977 21.6699-7.05078Q21.6699-9.0918 20.8887-10.8936Q20.1074-12.6953 18.7305-14.0723Q17.3535-15.4492 15.5469-16.2305Q13.7402-17.0117 11.6992-17.0117Q9.6582-17.0117 7.85645-16.2305Q6.05469-15.4492 4.68262-14.0723Q3.31055-12.6953 2.5293-10.8936Q1.74805-9.0918 1.74805-7.05078Q1.74805-5.00977 2.5293-3.20801Q3.31055-1.40625 4.6875-0.0292969Q6.06445 1.34766 7.86621 2.12891Q9.66797 2.91016 11.709 2.91016ZM11.709 1.25Q9.98047 1.25 8.47656 0.605469Q6.97266-0.0390625 5.83496-1.17676Q4.69727-2.31445 4.05762-3.81836Q3.41797-5.32227 3.41797-7.05078Q3.41797-8.7793 4.05762-10.2832Q4.69727-11.7871 5.83008-12.9297Q6.96289-14.0723 8.4668-14.7119Q9.9707-15.3516 11.6992-15.3516Q13.4277-15.3516 14.9316-14.7119Q16.4355-14.0723 17.5781-12.9297Q18.7207-11.7871 19.3652-10.2832Q20.0098-8.7793 20.0098-7.05078Q20.0098-5.32227 19.3701-3.81836Q18.7305-2.31445 17.5928-1.17676Q16.4551-0.0390625 14.9463 0.605469Q13.4375 1.25 11.709 1.25ZM7.39258-7.04102Q7.39258-6.68945 7.62695-6.46484Q7.86133-6.24023 8.23242-6.24023L10.8789-6.24023L10.8789-3.57422Q10.8789-3.21289 11.1035-2.9834Q11.3281-2.75391 11.6797-2.75391Q12.0508-2.75391 12.2852-2.9834Q12.5195-3.21289 12.5195-3.57422L12.5195-6.24023L15.1758-6.24023Q15.5371-6.24023 15.7715-6.46484Q16.0059-6.68945 16.0059-7.04102Q16.0059-7.41211 15.7715-7.6416Q15.5371-7.87109 15.1758-7.87109L12.5195-7.87109L12.5195-10.5176Q12.5195-10.8984 12.2852-11.1279Q12.0508-11.3574 11.6797-11.3574Q11.3281-11.3574 11.1035-11.1279Q10.8789-10.8984 10.8789-10.5176L10.8789-7.87109L8.23242-7.87109Q7.85156-7.87109 7.62207-7.6416Q7.39258-7.41211 7.39258-7.04102Z"/>
  </g>
  <g transform="matrix(1 0 0 1 305.646 1933)">
   <path d="M14.9707 5.66406Q17.0605 5.66406 18.96 5.01465Q20.8594 4.36523 22.4512 3.19336Q24.043 2.02148 25.2197 0.429688Q26.3965-1.16211 27.0459-3.06641Q27.6953-4.9707 27.6953-7.05078Q27.6953-9.14062 27.0459-11.04Q26.3965-12.9395 25.2197-14.5312Q24.043-16.123 22.4512-17.2998Q20.8594-18.4766 18.9551-19.126Q17.0508-19.7754 14.9609-19.7754Q12.8711-19.7754 10.9717-19.126Q9.07227-18.4766 7.48535-17.2998Q5.89844-16.123 4.72168-14.5312Q3.54492-12.9395 2.90039-11.04Q2.25586-9.14062 2.25586-7.05078Q2.25586-4.9707 2.90527-3.06641Q3.55469-1.16211 4.72656 0.429688Q5.89844 2.02148 7.49023 3.19336Q9.08203 4.36523 10.9814 5.01465Q12.8809 5.66406 14.9707 5.66406ZM14.9707 3.84766Q13.1641 3.84766 11.5283 3.2959Q9.89258 2.74414 8.53516 1.74805Q7.17773 0.751953 6.17676-0.610352Q5.17578-1.97266 4.62891-3.6084Q4.08203-5.24414 4.08203-7.05078Q4.08203-8.86719 4.62891-10.5029Q5.17578-12.1387 6.17188-13.501Q7.16797-14.8633 8.52539-15.8594Q9.88281-16.8555 11.5186-17.4023Q13.1543-17.9492 14.9609-17.9492Q16.7773-17.9492 18.4131-17.4023Q20.0488-16.8555 21.4111-15.8594Q22.7734-14.8633 23.7695-13.501Q24.7656-12.1387 25.3174-10.5029Q25.8691-8.86719 25.8691-7.05078Q25.8789-5.24414 25.332-3.6084Q24.7852-1.97266 23.7842-0.610352Q22.7832 0.751953 21.4209 1.74805Q20.0586 2.74414 18.4229 3.2959Q16.7871 3.84766 14.9707 3.84766ZM9.45312-7.04102Q9.45312-6.66016 9.71191-6.41113Q9.9707-6.16211 10.3711-6.16211L14.0625-6.16211L14.0625-2.46094Q14.0625-2.06055 14.3115-1.80664Q14.5605-1.55273 14.9414-1.55273Q15.3516-1.55273 15.6055-1.80664Q15.8594-2.06055 15.8594-2.46094L15.8594-6.16211L19.5605-6.16211Q19.9609-6.16211 20.2148-6.41113Q20.4688-6.66016 20.4688-7.04102Q20.4688-7.45117 20.2148-7.70508Q19.9609-7.95898 19.5605-7.95898L15.8594-7.95898L15.8594-11.6504Q15.8594-12.0605 15.6055-12.3145Q15.3516-12.5684 14.9414-12.5684Q14.5605-12.5684 14.3115-12.3096Q14.0625-12.0508 14.0625-11.6504L14.0625-7.95898L10.3711-7.95898Q9.96094-7.95898 9.70703-7.70508Q9.45312-7.45117 9.45312-7.04102Z"/>
  </g>
  <text style="stroke:none;fill:black;font-family:SF Pro,SF Pro Display,SF Pro Text,sans-serif;font-size:13;font-weight:bold;" transform="matrix(1 0 0 1 263 1953)">Design Variations</text>
  <text style="stroke:none;fill:black;font-family:SF Pro,SF Pro Display,SF Pro Text,sans-serif;font-size:13;" transform="matrix(1 0 0 1 263 1971)">Symbols are supported in up to nine weights and three scales.</text>
  <text style="stroke:none;fill:black;font-family:SF Pro,SF Pro Display,SF Pro Text,sans-serif;font-size:13;" transform="matrix(1 0 0 1 263 1989)">For optimal layout with text and other symbols, vertically align</text>
  <text style="stroke:none;fill:black;font-family:SF Pro,SF Pro Display,SF Pro Text,sans-serif;font-size:13;" transform="matrix(1 0 0 1 263 2007)">symbols with the adjacent text.</text>
  <line style="fill:none;stroke:#00AEEF;stroke-width:0.5;opacity:1.0;" x1="776" x2="776" y1="1919" y2="1933"/>
  <g transform="matrix(1 0 0 1 776 1933)">
   <path d="M3.31055 0.15625Q3.70117 0.15625 3.91602-0.00976562Q4.13086-0.175781 4.26758-0.585938L5.52734-4.0332L11.2891-4.0332L12.5488-0.585938Q12.6855-0.175781 12.9004-0.00976562Q13.1152 0.15625 13.4961 0.15625Q13.8867 0.15625 14.1162-0.0585938Q14.3457-0.273438 14.3457-0.644531Q14.3457-0.869141 14.2383-1.17188L9.6582-13.3691Q9.48242-13.8184 9.17969-14.043Q8.87695-14.2676 8.4082-14.2676Q7.5-14.2676 7.17773-13.3789L2.59766-1.16211Q2.49023-0.859375 2.49023-0.634766Q2.49023-0.263672 2.70996-0.0537109Q2.92969 0.15625 3.31055 0.15625ZM6.00586-5.51758L8.37891-12.0898L8.42773-12.0898L10.8008-5.51758Z"/>
  </g>
  <line style="fill:none;stroke:#00AEEF;stroke-width:0.5;opacity:1.0;" x1="793.197" x2="793.197" y1="1919" y2="1933"/>
  <text style="stroke:none;fill:black;font-family:SF Pro,SF Pro Display,SF Pro Text,sans-serif;font-size:13;font-weight:bold;" transform="matrix(1 0 0 1 776 1953)">Margins</text>
  <text style="stroke:none;fill:black;font-family:SF Pro,SF Pro Display,SF Pro Text,sans-serif;font-size:13;" transform="matrix(1 0 0 1 776 1971)">Leading and trailing margins on the left and right side of each symbol</text>
  <text style="stroke:none;fill:black;font-family:SF Pro,SF Pro Display,SF Pro Text,sans-serif;font-size:13;" transform="matrix(1 0 0 1 776 1989)">can be adjusted by modifying the x-location of the margin guidelines.</text>
  <text style="stroke:none;fill:black;font-family:SF Pro,SF Pro Display,SF Pro Text,sans-serif;font-size:13;" transform="matrix(1 0 0 1 776 2007)">Modifications are automatically applied proportionally to all</text>
  <text style="stroke:none;fill:black;font-family:SF Pro,SF Pro Display,SF Pro Text,sans-serif;font-size:13;" transform="matrix(1 0 0 1 776 2025)">scales and weights.</text>
  <g transform="matrix(1 0 0 1 1289 1933)">
   <path d="M2.8418 1.86523L4.54102 3.57422Q5.18555 4.22852 5.90332 4.17969Q6.62109 4.13086 7.31445 3.35938L18.0078-8.42773L17.041-9.4043L6.42578 2.27539Q6.16211 2.57812 5.89355 2.61719Q5.625 2.65625 5.27344 2.30469L4.10156 1.14258Q3.75 0.791016 3.79395 0.522461Q3.83789 0.253906 4.14062-0.0195312L15.6152-10.8203L14.6387-11.7871L3.04688-0.898438Q2.30469-0.214844 2.25098 0.498047Q2.19727 1.21094 2.8418 1.86523ZM9.25781-16.3281Q8.94531-16.0254 8.90625-15.6348Q8.86719-15.2441 9.04297-14.9512Q9.21875-14.6777 9.55566-14.541Q9.89258-14.4043 10.3809-14.5215Q11.4746-14.7754 12.5977-14.7314Q13.7207-14.6875 14.7949-13.9844L14.209-12.5293Q13.9551-11.9043 14.0674-11.4404Q14.1797-10.9766 14.5801-10.5664L16.875-8.25195Q17.2363-7.88086 17.5781-7.82227Q17.9199-7.76367 18.3398-7.8418L19.4043-8.03711L20.0684-7.36328L20.0293-6.80664Q20-6.43555 20.1221-6.12305Q20.2441-5.81055 20.6055-5.44922L21.3672-4.70703Q21.7285-4.3457 22.1533-4.33105Q22.5781-4.31641 22.9297-4.66797L25.8398-7.58789Q26.1914-7.93945 26.1816-8.35449Q26.1719-8.76953 25.8105-9.13086L25.0391-9.89258Q24.6875-10.2539 24.3799-10.3857Q24.0723-10.5176 23.7109-10.4883L23.1348-10.4395L22.4902-11.0742L22.7344-12.1973Q22.832-12.6172 22.6953-12.9834Q22.5586-13.3496 22.1191-13.7891L19.9219-15.9766Q18.6719-17.2168 17.2607-17.8369Q15.8496-18.457 14.4189-18.4814Q12.9883-18.5059 11.665-17.959Q10.3418-17.4121 9.25781-16.3281ZM10.752-15.957Q11.6602-16.6211 12.7002-16.9043Q13.7402-17.1875 14.8047-17.085Q15.8691-16.9824 16.8701-16.5137Q17.8711-16.0449 18.7012-15.2051L21.1328-12.793Q21.3086-12.6172 21.3525-12.4512Q21.3965-12.2852 21.3379-12.0312L21.0156-10.5469L22.5195-9.0625L23.5059-9.12109Q23.6914-9.13086 23.7891-9.09668Q23.8867-9.0625 24.0332-8.91602L24.6094-8.33984L22.168-5.89844L21.5918-6.47461Q21.4453-6.62109 21.4062-6.71875Q21.3672-6.81641 21.377-7.01172L21.4453-7.98828L19.9512-9.47266L18.4277-9.21875Q18.1836-9.16992 18.042-9.2041Q17.9004-9.23828 17.7148-9.41406L15.7129-11.416Q15.5176-11.5918 15.4932-11.7529Q15.4688-11.9141 15.5859-12.1875L16.4648-14.2773Q15.293-15.3711 13.8281-15.791Q12.3633-16.2109 10.8398-15.7617Q10.7227-15.7324 10.6885-15.8057Q10.6543-15.8789 10.752-15.957Z"/>
  </g>
  <text style="stroke:none;fill:black;font-family:SF Pro,SF Pro Display,SF Pro Text,sans-serif;font-size:13;font-weight:bold;" transform="matrix(1 0 0 1 1289 1953)">Exporting</text>
  <text style="stroke:none;fill:black;font-family:SF Pro,SF Pro Display,SF Pro Text,sans-serif;font-size:13;" transform="matrix(1 0 0 1 1289 1971)">Symbols should be outlined when exporting to ensure the</text>
  <text style="stroke:none;fill:black;font-family:SF Pro,SF Pro Display,SF Pro Text,sans-serif;font-size:13;" transform="matrix(1 0 0 1 1289 1989)">design is preserved when submitting to Xcode.</text>
  <text id="template-version" style="stroke:none;fill:black;font-family:SF Pro,SF Pro Display,SF Pro Text,sans-serif;font-size:13;text-anchor:end;" transform="matrix(1 0 0 1 3036 1933)">Template v.3.0</text>
  <text style="stroke:none;fill:black;font-family:SF Pro,SF Pro Display,SF Pro Text,sans-serif;font-size:13;text-anchor:end;" transform="matrix(1 0 0 1 3036 1951)">Requires Xcode 13 or greater</text>
  <text id="descriptive-name" style="stroke:none;fill:black;font-family:SF Pro,SF Pro Display,SF Pro Text,sans-serif;font-size:13;text-anchor:end;" transform="matrix(1 0 0 1 3036 1969)">Generated from xmark.diamond.fill</text>
  <text style="stroke:none;fill:black;font-family:SF Pro,SF Pro Display,SF Pro Text,sans-serif;font-size:13;text-anchor:end;" transform="matrix(1 0 0 1 3036 1987)">Typeset at 100 points</text>
  <text style="stroke:none;fill:black;font-family:SF Pro,SF Pro Display,SF Pro Text,sans-serif;font-size:13;" transform="matrix(1 0 0 1 263 726)">Small</text>
  <text style="stroke:none;fill:black;font-family:SF Pro,SF Pro Display,SF Pro Text,sans-serif;font-size:13;" transform="matrix(1 0 0 1 263 1156)">Medium</text>
  <text style="stroke:none;fill:black;font-family:SF Pro,SF Pro Display,SF Pro Text,sans-serif;font-size:13;" transform="matrix(1 0 0 1 263 1586)">Large</text>
 </g>
 <g id="Guides">
  <g id="H-reference" style="fill:#27AAE1;stroke:none;" transform="matrix(1 0 0 1 339 696)">
   <path d="M0.976562 0L3.66211 0L29.3457-67.1387L30.0293-67.1387L30.0293-70.459L28.125-70.459ZM11.6699-24.4629L46.9727-24.4629L46.2402-26.709L12.4512-26.709ZM55.127 0L57.7637 0L30.6152-70.459L29.4434-70.459L29.4434-67.1387Z"/>
  </g>
  <line id="Baseline-S" style="fill:none;stroke:#27AAE1;opacity:1;stroke-width:0.5;" x1="263" x2="3036" y1="696" y2="696"/>
  <line id="Capline-S" style="fill:none;stroke:#27AAE1;opacity:1;stroke-width:0.5;" x1="263" x2="3036" y1="625.541" y2="625.541"/>
  <g id="H-reference" style="fill:#27AAE1;stroke:none;" transform="matrix(1 0 0 1 339 1126)">
   <path d="M0.976562 0L3.66211 0L29.3457-67.1387L30.0293-67.1387L30.0293-70.459L28.125-70.459ZM11.6699-24.4629L46.9727-24.4629L46.2402-26.709L12.4512-26.709ZM55.127 0L57.7637 0L30.6152-70.459L29.4434-70.459L29.4434-67.1387Z"/>
  </g>
  <line id="Baseline-M" style="fill:none;stroke:#27AAE1;opacity:1;stroke-width:0.5;" x1="263" x2="3036" y1="1126" y2="1126"/>
  <line id="Capline-M" style="fill:none;stroke:#27AAE1;opacity:1;stroke-width:0.5;" x1="263" x2="3036" y1="1055.54" y2="1055.54"/>
  <g id="H-reference" style="fill:#27AAE1;stroke:none;" transform="matrix(1 0 0 1 339 1556)">
   <path d="M0.976562 0L3.66211 0L29.3457-67.1387L30.0293-67.1387L30.0293-70.459L28.125-70.459ZM11.6699-24.4629L46.9727-24.4629L46.2402-26.709L12.4512-26.709ZM55.127 0L57.7637 0L30.6152-70.459L29.4434-70.459L29.4434-67.1387Z"/>
  </g>
  <line id="Baseline-L" style="fill:none;stroke:#27AAE1;opacity:1;stroke-width:0.5;" x1="263" x2="3036" y1="1556" y2="1556"/>
  <line id="Capline-L" style="fill:none;stroke:#27AAE1;opacity:1;stroke-width:0.5;" x1="263" x2="3036" y1="1485.54" y2="1485.54"/>
  <line id="left-margin-Regular-M" style="fill:none;stroke:#00AEEF;stroke-width:0.5;opacity:1.0;" x1="1384.46" x2="1384.46" y1="1030.79" y2="1150.12"/>
  <line id="right-margin-Regular-M" style="fill:none;stroke:#00AEEF;stroke-width:0.5;opacity:1.0;" x1="1515.23" x2="1515.23" y1="1030.79" y2="1150.12"/>
 </g>
 <g id="Symbols">
  <g id="Black-L" transform="matrix(1 0 0 1 2844.63 1556)">
   <path class="hierarchical-0:tertiary SFSymbolsPreview8E8E8E" d="M20.9473-18.3594L71.875 32.5195Q79.9805 40.625 88.7695 40.6494Q97.5586 40.6738 105.664 32.6172L156.641-18.4082Q164.746-26.4648 164.722-35.2783Q164.697-44.0918 156.592-52.1973L105.713-103.076Q97.6074-111.182 88.7939-111.206Q79.9805-111.23 71.9238-103.125L20.8984-52.1484Q12.793-44.043 12.8418-35.2539Q12.8906-26.4648 20.9473-18.3594Z"/>
   <path class="hierarchical-1:primary SFSymbolsPreview212121" d="M69.5312-7.4707Q65.918-7.4707 63.4521-9.96094Q60.9863-12.4512 60.9863-16.1133Q60.9863-19.5312 63.5742-22.0215L76.6113-35.1074L63.5742-48.2422Q60.9863-50.7324 60.9863-54.1504Q60.9863-57.8125 63.4521-60.2783Q65.918-62.7441 69.5312-62.7441Q73.4375-62.7441 75.8789-60.2539L88.8184-47.3633L101.855-60.3027Q104.395-62.793 108.203-62.793Q111.816-62.793 114.282-60.3271Q116.748-57.8613 116.748-54.1992Q116.748-50.7812 114.16-48.291L101.172-35.1074L114.16-22.0215Q116.748-19.5312 116.748-16.1133Q116.748-12.4512 114.258-9.96094Q111.768-7.4707 108.154-7.4707Q104.297-7.4707 101.758-9.96094L88.8184-22.8027L75.9766-9.96094Q73.4375-7.4707 69.5312-7.4707Z"/>
  </g>
  <g id="Heavy-L" transform="matrix(1 0 0 1 2549.16 1556)">
   <path class="hierarchical-0:tertiary SFSymbolsPreview8E8E8E" d="M20.6543-19.1895L71.4844 31.5918Q79.248 39.3555 87.5488 39.4043Q95.8496 39.4531 103.613 31.6895L154.492-19.2383Q162.256-26.9531 162.231-35.2783Q162.207-43.6035 154.443-51.3672L103.662-102.148Q95.8984-109.912 87.5732-109.937Q79.248-109.961 71.5332-102.197L20.5566-51.3184Q12.793-43.5547 12.8418-35.2539Q12.8906-26.9531 20.6543-19.1895Z"/>
   <path class="hierarchical-1:primary SFSymbolsPreview212121" d="M67.5293-7.66602Q64.3555-7.66602 62.1582-9.8877Q59.9609-12.1094 59.9609-15.332Q59.9609-18.4082 62.2559-20.6055L76.709-35.1074L62.2559-49.6582Q59.9609-51.9043 59.9609-54.9316Q59.9609-58.2031 62.1582-60.376Q64.3555-62.5488 67.5293-62.5488Q70.9961-62.5488 73.1445-60.3516L87.5488-45.9473L102.051-60.4004Q104.297-62.5977 107.666-62.5977Q110.84-62.5977 113.037-60.4248Q115.234-58.252 115.234-55.0293Q115.234-51.9531 112.939-49.7559L98.4863-35.1074L112.939-20.6055Q115.234-18.4082 115.234-15.332Q115.234-12.1094 113.013-9.8877Q110.791-7.66602 107.568-7.66602Q104.199-7.66602 101.953-9.91211L87.5488-24.2188L73.2422-9.91211Q70.9961-7.66602 67.5293-7.66602Z"/>
  </g>
  <g id="Bold-L" transform="matrix(1 0 0 1 2253.84 1556)">
   <path class="hierarchical-0:tertiary SFSymbolsPreview8E8E8E" d="M20.3125-20.1172L70.9961 30.5664Q78.418 37.9883 86.1572 38.0127Q93.8965 38.0371 101.27 30.7129L152.1-20.166Q159.424-27.5391 159.424-35.3027Q159.424-43.0664 152.002-50.4395L101.367-101.123Q93.9453-108.545 86.1816-108.569Q78.418-108.594 71.0938-101.172L20.2148-50.3906Q12.8418-43.0176 12.8906-35.2783Q12.9395-27.5391 20.3125-20.1172Z"/>
   <path class="hierarchical-1:primary SFSymbolsPreview212121" d="M65.3809-7.95898Q62.5977-7.95898 60.7178-9.83887Q58.8379-11.7188 58.8379-14.502Q58.8379-17.1387 60.791-19.043L76.9043-35.1562L60.791-51.2695Q58.8379-53.2227 58.8379-55.8594Q58.8379-58.5938 60.7178-60.4736Q62.5977-62.3535 65.3809-62.3535Q68.2617-62.3535 70.1172-60.4492L86.1816-44.4336L102.295-60.498Q104.248-62.4023 107.08-62.4023Q109.814-62.4023 111.694-60.5225Q113.574-58.6426 113.574-55.9082Q113.574-53.2715 111.621-51.3672L95.5078-35.1562L111.572-19.0918Q113.574-17.1387 113.574-14.502Q113.574-11.7188 111.67-9.83887Q109.766-7.95898 106.982-7.95898Q104.15-7.95898 102.148-9.86328L86.1816-25.8301L70.2148-9.86328Q68.2617-7.95898 65.3809-7.95898Z"/>
  </g>
  <g id="Semibold-L" transform="matrix(1 0 0 1 1958.09 1556)">
   <path class="hierarchical-0:tertiary SFSymbolsPreview8E8E8E" d="M20.0684-20.7031L70.6543 29.834Q77.832 37.0117 85.2051 37.0361Q92.5781 37.0605 99.6582 29.9805L150.391-20.8008Q157.471-27.8809 157.471-35.2783Q157.471-42.6758 150.342-49.8047L99.7559-100.391Q92.627-107.568 85.2295-107.593Q77.832-107.617 70.752-100.439L19.9219-49.707Q12.8418-42.627 12.8906-35.2539Q12.9395-27.8809 20.0684-20.7031Z"/>
   <path class="hierarchical-1:primary SFSymbolsPreview212121" d="M63.8184-8.10547Q61.377-8.10547 59.7168-9.79004Q58.0566-11.4746 58.0566-13.916Q58.0566-16.2598 59.7656-17.9688L77.002-35.1562L59.7656-52.3926Q58.0566-54.1016 58.0566-56.4453Q58.0566-58.8867 59.7168-60.5225Q61.377-62.1582 63.8184-62.1582Q66.3574-62.1582 67.9688-60.498L85.2051-43.3105L102.441-60.5469Q104.199-62.2559 106.641-62.2559Q109.033-62.2559 110.718-60.5957Q112.402-58.9355 112.402-56.543Q112.402-54.1992 110.645-52.4414L93.457-35.1562L110.645-17.9688Q112.402-16.2109 112.402-13.916Q112.402-11.4746 110.693-9.79004Q108.984-8.10547 106.543-8.10547Q104.102-8.10547 102.295-9.81445L85.2051-26.9531L68.1152-9.81445Q66.3574-8.10547 63.8184-8.10547Z"/>
  </g>
  <g id="Medium-L" transform="matrix(1 0 0 1 1662.11 1556)">
   <path class="hierarchical-0:tertiary SFSymbolsPreview8E8E8E" d="M19.9219-21.1914L70.4102 29.2969Q77.3926 36.2793 84.4727 36.3037Q91.5527 36.3281 98.4375 29.4434L149.17-21.2891Q156.006-28.1738 156.006-35.2783Q156.006-42.3828 149.072-49.3164L98.5352-99.8535Q91.6016-106.836 84.5215-106.86Q77.4414-106.885 70.5078-99.9023L19.7266-49.2188Q12.8418-42.334 12.8906-35.2539Q12.9395-28.1738 19.9219-21.1914Z"/>
   <path class="hierarchical-1:primary SFSymbolsPreview212121" d="M62.6953-8.25195Q60.498-8.25195 58.9844-9.74121Q57.4707-11.2305 57.4707-13.4766Q57.4707-15.625 59.0332-17.1387L77.0508-35.2051L59.0332-53.2227Q57.4707-54.7852 57.4707-56.9336Q57.4707-59.082 58.9844-60.5713Q60.498-62.0605 62.6953-62.0605Q64.9414-62.0605 66.4062-60.5469L84.4727-42.5293L102.588-60.5957Q104.15-62.1582 106.348-62.1582Q108.496-62.1582 110.034-60.6445Q111.572-59.1309 111.572-56.9824Q111.572-54.8828 109.961-53.3203L91.8945-35.2051L109.912-17.1875Q111.523-15.5762 111.523-13.4766Q111.523-11.2305 109.985-9.74121Q108.447-8.25195 106.25-8.25195Q104.053-8.25195 102.393-9.81445L84.4727-27.7832L66.5527-9.81445Q64.9414-8.25195 62.6953-8.25195Z"/>
  </g>
  <g id="Regular-L" transform="matrix(1 0 0 1 1366.35 1556)">
   <path class="hierarchical-0:tertiary SFSymbolsPreview8E8E8E" d="M19.6777-21.8262L70.1172 28.6133Q76.8066 35.3027 83.5205 35.3516Q90.2344 35.4004 96.875 28.7598L147.51-21.9238Q154.102-28.5645 154.102-35.2783Q154.102-41.9922 147.412-48.6816L96.9727-99.1211Q90.2832-105.859 83.5693-105.884Q76.8555-105.908 70.2148-99.2188L19.4824-48.584Q12.8418-41.9434 12.8906-35.2539Q12.9395-28.5645 19.6777-21.8262Z"/>
   <path class="hierarchical-1:primary SFSymbolsPreview212121" d="M61.1816-8.39844Q59.2773-8.39844 57.9834-9.69238Q56.6895-10.9863 56.6895-12.8906Q56.6895-14.7461 58.0078-16.0645L77.1484-35.2051L58.0078-54.2969Q56.6895-55.6641 56.6895-57.5195Q56.6895-59.375 57.9834-60.6445Q59.2773-61.9141 61.1816-61.9141Q63.0859-61.9141 64.3066-60.5957L83.4961-41.4551L102.734-60.6445Q104.102-62.0117 105.908-62.0117Q107.764-62.0117 109.082-60.7178Q110.4-59.4238 110.4-57.6172Q110.4-55.7617 109.033-54.3945L89.8438-35.2051L108.984-16.1133Q110.352-14.6973 110.352-12.8906Q110.352-10.9863 109.033-9.69238Q107.715-8.39844 105.811-8.39844Q104.004-8.39844 102.539-9.76562L83.4961-28.8574L64.4531-9.76562Q63.0859-8.39844 61.1816-8.39844Z"/>
  </g>
  <g id="Light-L" transform="matrix(1 0 0 1 1070.76 1556)">
   <path class="hierarchical-0:tertiary SFSymbolsPreview8E8E8E" d="M19.2383-22.5586L69.7266 27.9297Q76.0254 34.2285 82.4219 34.2285Q88.8184 34.2285 95.0684 28.0273L145.605-22.6074Q151.807-28.8574 151.855-35.2539Q151.904-41.6504 145.557-47.9492L95.166-98.3887Q88.8184-104.736 82.4219-104.736Q76.0254-104.736 69.7754-98.4375L19.1406-47.9004Q12.8418-41.6016 12.8662-35.2539Q12.8906-28.9062 19.2383-22.5586Z"/>
   <path class="hierarchical-1:primary SFSymbolsPreview212121" d="M59.8145-9.17969Q58.3008-9.17969 57.2998-10.1807Q56.2988-11.1816 56.2988-12.6465Q56.2988-14.1113 57.373-15.1367L77.3926-35.2051L57.373-55.2246Q56.2988-56.2988 56.2988-57.7637Q56.2988-59.2285 57.2998-60.2051Q58.3008-61.1816 59.8145-61.1816Q61.2793-61.1816 62.3047-60.0586L82.373-40.0879L102.393-60.1074Q103.516-61.2305 104.932-61.2305Q106.396-61.2305 107.422-60.2295Q108.447-59.2285 108.447-57.8125Q108.447-56.3477 107.373-55.2734L87.2559-35.2051L107.324-15.1855Q108.398-14.0625 108.398-12.6465Q108.398-11.1816 107.373-10.1807Q106.348-9.17969 104.883-9.17969Q103.467-9.17969 102.246-10.3027L82.373-30.2734L62.4512-10.3027Q61.2793-9.17969 59.8145-9.17969Z"/>
  </g>
  <g id="Thin-L" transform="matrix(1 0 0 1 775.563 1556)">
   <path class="hierarchical-0:tertiary SFSymbolsPreview8E8E8E" d="M18.6523-23.5352L69.1895 27.002Q75 32.7637 80.9814 32.7393Q86.9629 32.7148 92.6758 27.002L143.066-23.5352Q148.73-29.248 148.853-35.2295Q148.975-41.2109 143.164-47.0215L92.7734-97.4121Q86.8652-103.271 80.9082-103.247Q74.9512-103.223 69.1895-97.4121L18.6523-47.0215Q12.8418-41.2109 12.8662-35.2783Q12.8906-29.3457 18.6523-23.5352Z"/>
   <path class="hierarchical-1:primary SFSymbolsPreview212121" d="M58.0078-10.2051Q57.0801-10.2051 56.4453-10.8154Q55.8105-11.4258 55.8105-12.3047Q55.8105-13.2324 56.543-13.9648L77.7832-35.2051L56.543-56.3965Q55.8105-57.1777 55.8105-58.1055Q55.8105-58.9844 56.4453-59.5703Q57.0801-60.1562 58.0078-60.1562Q58.9844-60.1562 59.7168-59.3262L80.8594-38.2324L101.953-59.3262Q102.783-60.1562 103.711-60.1562Q104.639-60.1562 105.273-59.5703Q105.908-58.9844 105.908-58.1055Q105.908-57.1777 105.176-56.4453L83.8867-35.2051L105.176-13.9648Q105.908-13.2324 105.908-12.3047Q105.908-11.4258 105.273-10.8154Q104.639-10.2051 103.711-10.2051Q102.734-10.2051 101.953-11.0352L80.8594-32.1289L59.7656-11.0352Q58.9355-10.2051 58.0078-10.2051Z"/>
  </g>
  <g id="Ultralight-L" transform="matrix(1 0 0 1 479.609 1556)">
   <path class="hierarchical-0:tertiary SFSymbolsPreview8E8E8E" d="M18.3594-24.0234L68.8965 26.5137Q74.4629 32.0312 80.249 31.958Q86.0352 31.8848 91.4062 26.5137L141.748-24.0234Q147.168-29.4434 147.314-35.2295Q147.461-41.0156 141.895-46.5332L91.5039-96.9238Q85.8887-102.539 80.1514-102.466Q74.4141-102.393 68.8965-96.875L18.4082-46.5332Q12.8418-40.9668 12.8418-35.2539Q12.8418-29.541 18.3594-24.0234Z"/>
   <path class="hierarchical-1:primary SFSymbolsPreview212121" d="M57.1289-10.7422Q56.4453-10.7422 56.0059-11.1328Q55.5664-11.5234 55.5664-12.1094Q55.5664-12.793 56.1035-13.3301L77.9785-35.2051L56.1035-57.0312Q55.5664-57.6172 55.5664-58.3008Q55.5664-58.8867 56.0059-59.2773Q56.4453-59.668 57.1289-59.668Q57.7637-59.668 58.3984-58.9844L80.127-37.3047L101.758-58.9844Q102.393-59.6191 103.076-59.6191Q103.711-59.6191 104.15-59.2285Q104.59-58.8379 104.59-58.252Q104.59-57.5684 104.053-57.0312L82.1777-35.2051L104.053-13.3301Q104.59-12.793 104.59-12.1094Q104.59-11.5234 104.15-11.1328Q103.711-10.7422 103.076-10.7422Q102.393-10.7422 101.758-11.377L80.127-33.0566L58.4473-11.377Q57.7637-10.7422 57.1289-10.7422Z"/>
  </g>
  <g id="Black-M" transform="matrix(1 0 0 1 2863.89 1126)">
   <path class="hierarchical-0:tertiary SFSymbolsPreview8E8E8E" d="M16.4062-21.6797L55.9082 17.8223Q62.3535 24.2676 69.4824 24.2676Q76.6113 24.2676 83.0566 17.8711L122.607-21.6797Q129.053-28.125 129.053-35.2539Q129.053-42.3828 122.607-48.8281L83.0566-88.3789Q76.6602-94.7754 69.5068-94.7998Q62.3535-94.8242 55.957-88.3789L16.3574-48.8281Q9.96094-42.3828 9.96094-35.2539Q9.96094-28.125 16.4062-21.6797Z"/>
   <path class="hierarchical-1:primary SFSymbolsPreview212121" d="M55.127-13.7695Q52.0996-13.7695 50.0488-15.8447Q47.998-17.9199 47.998-20.9961Q47.998-23.8281 50.1465-25.8789L59.375-35.1562L50.1465-44.3848Q47.998-46.4844 47.998-49.3164Q47.998-52.3926 50.0488-54.4434Q52.0996-56.4941 55.127-56.4941Q58.3984-56.4941 60.498-54.3945L69.5312-45.3613L78.6133-54.3945Q80.7617-56.4941 83.9844-56.4941Q87.0117-56.4941 89.0625-54.4434Q91.1133-52.3926 91.1133-49.3164Q91.1133-46.4844 88.9648-44.3848L79.7852-35.1562L88.916-25.8789Q91.1133-23.7793 91.1133-20.9961Q91.1133-17.9199 89.0625-15.8447Q87.0117-13.7695 83.9844-13.7695Q80.7129-13.7695 78.6133-15.918L69.5312-24.8535L60.498-15.918Q58.3984-13.7695 55.127-13.7695Z"/>
  </g>
  <g id="Heavy-M" transform="matrix(1 0 0 1 2568.16 1126)">
   <path class="hierarchical-0:tertiary SFSymbolsPreview8E8E8E" d="M16.2109-22.3145L55.6152 17.0898Q61.8164 23.291 68.5303 23.291Q75.2441 23.291 81.3965 17.1387L120.898-22.3633Q127.1-28.5156 127.1-35.2539Q127.1-41.9922 120.898-48.1934L81.4453-87.5977Q75.293-93.7988 68.5547-93.8232Q61.8164-93.8477 55.6641-87.6465L16.1133-48.1445Q9.96094-41.9434 9.96094-35.2295Q9.96094-28.5156 16.2109-22.3145Z"/>
   <path class="hierarchical-1:primary SFSymbolsPreview212121" d="M53.5156-13.8184Q50.8301-13.8184 48.9746-15.6738Q47.1191-17.5293 47.1191-20.3125Q47.1191-22.8516 49.0234-24.707L59.4727-35.1562L49.0234-45.6055Q47.1191-47.4609 47.1191-50.0488Q47.1191-52.7832 48.9746-54.6143Q50.8301-56.4453 53.5156-56.4453Q56.4453-56.4453 58.3008-54.5898L68.5547-44.2871L78.9551-54.5898Q80.8594-56.4941 83.6914-56.4941Q86.377-56.4941 88.2324-54.6387Q90.0879-52.7832 90.0879-50.0488Q90.0879-47.5098 88.1836-45.6055L77.7832-35.1562L88.1348-24.707Q90.0879-22.8027 90.0879-20.3125Q90.0879-17.5293 88.2324-15.6738Q86.377-13.8184 83.6914-13.8184Q80.8105-13.8184 78.9062-15.7227L68.5547-25.9277L58.3008-15.7227Q56.4453-13.8184 53.5156-13.8184Z"/>
  </g>
  <g id="Bold-M" transform="matrix(1 0 0 1 2272.52 1126)">
   <path class="hierarchical-0:tertiary SFSymbolsPreview8E8E8E" d="M15.9668-23.0957L55.2734 16.2598Q61.1816 22.168 67.4316 22.1924Q73.6816 22.2168 79.5898 16.3574L119.043-23.1445Q124.951-29.0039 124.927-35.2783Q124.902-41.5527 118.945-47.4609L79.6387-86.7676Q73.7305-92.6758 67.4805-92.7246Q61.2305-92.7734 55.3223-86.8652L15.8691-47.4121Q9.96094-41.5039 9.98535-35.2539Q10.0098-29.0039 15.9668-23.0957Z"/>
   <path class="hierarchical-1:primary SFSymbolsPreview212121" d="M51.6602-13.8672Q49.3164-13.8672 47.7051-15.5029Q46.0938-17.1387 46.0938-19.5312Q46.0938-21.7773 47.7539-23.3887L59.5215-35.2051L47.7539-46.9727Q46.0938-48.584 46.0938-50.8301Q46.0938-53.2227 47.7051-54.834Q49.3164-56.4453 51.6602-56.4453Q54.1992-56.4453 55.7617-54.7852L67.4805-43.1152L79.248-54.834Q80.9082-56.4941 83.3496-56.4941Q85.6934-56.4941 87.3047-54.8828Q88.916-53.2715 88.916-50.8789Q88.916-48.6816 87.2559-46.9727L75.4883-35.2051L87.207-23.4375Q88.8672-21.7285 88.8672-19.5312Q88.8672-17.1387 87.2559-15.5029Q85.6445-13.8672 83.3008-13.8672Q80.8594-13.8672 79.1504-15.5762L67.4805-27.1973L55.8594-15.5762Q54.1992-13.8672 51.6602-13.8672Z"/>
  </g>
  <g id="Semibold-M" transform="matrix(1 0 0 1 1976.57 1126)">
   <path class="hierarchical-0:tertiary SFSymbolsPreview8E8E8E" d="M15.7715-23.584L55.0293 15.6738Q60.7422 21.3867 66.6748 21.4355Q72.6074 21.4844 78.3203 15.7715L117.725-23.6328Q123.438-29.3457 123.389-35.2783Q123.34-41.2109 117.627-46.9727L78.418-86.1816Q72.6562-91.8945 66.7236-91.9434Q60.791-91.9922 55.0781-86.2793L15.6738-46.875Q9.96094-41.1621 9.98535-35.2539Q10.0098-29.3457 15.7715-23.584Z"/>
   <path class="hierarchical-1:primary SFSymbolsPreview212121" d="M50.3906-13.916Q48.291-13.916 46.8506-15.3809Q45.4102-16.8457 45.4102-18.9941Q45.4102-21.0449 46.875-22.4609L59.5703-35.2051L46.875-47.9004Q45.4102-49.3652 45.4102-51.3672Q45.4102-53.5156 46.8506-54.9561Q48.291-56.3965 50.3906-56.3965Q52.6367-56.3965 54.0527-54.9316L66.6992-42.2852L79.4922-54.9805Q80.957-56.4453 83.1055-56.4453Q85.2051-56.4453 86.6455-55.0049Q88.0859-53.5645 88.0859-51.4648Q88.0859-49.4629 86.6211-47.9004L73.877-35.2051L86.5723-22.5098Q88.0371-20.9961 88.0371-18.9941Q88.0371-16.8457 86.5967-15.3809Q85.1562-13.916 83.0078-13.916Q80.9082-13.916 79.3457-15.4297L66.6992-28.0273L54.1504-15.4297Q52.6367-13.916 50.3906-13.916Z"/>
  </g>
  <g id="Medium-M" transform="matrix(1 0 0 1 1680.44 1126)">
   <path class="hierarchical-0:tertiary SFSymbolsPreview8E8E8E" d="M15.625-23.9746L54.834 15.2344Q60.4492 20.8008 66.1377 20.8496Q71.8262 20.8984 77.3926 15.332L116.699-24.0234Q122.266-29.5898 122.241-35.2783Q122.217-40.9668 116.602-46.582L77.4414-85.7422Q71.875-91.3086 66.1621-91.3574Q60.4492-91.4062 54.9316-85.8398L15.5273-46.4844Q9.96094-40.918 10.0098-35.2539Q10.0586-29.5898 15.625-23.9746Z"/>
   <path class="hierarchical-1:primary SFSymbolsPreview212121" d="M49.4629-13.916Q47.5098-13.916 46.1914-15.2832Q44.873-16.6504 44.873-18.6035Q44.873-20.459 46.2402-21.7773L59.6191-35.2051L46.2402-48.584Q44.873-49.9512 44.873-51.8066Q44.873-53.7598 46.1914-55.0781Q47.5098-56.3965 49.4629-56.3965Q51.4648-56.3965 52.7344-55.0293L66.1133-41.6992L79.6387-55.0781Q81.0059-56.4453 82.9102-56.4453Q84.8145-56.4453 86.1328-55.127Q87.4512-53.8086 87.4512-51.8555Q87.4512-50.0488 86.1328-48.6328L72.7051-35.2051L86.084-21.8262Q87.4512-20.4102 87.4512-18.6035Q87.4512-16.6504 86.1084-15.2832Q84.7656-13.916 82.8125-13.916Q80.9082-13.916 79.4922-15.332L66.1133-28.6621L52.832-15.332Q51.4648-13.916 49.4629-13.916Z"/>
  </g>
  <g id="Regular-M" transform="matrix(1 0 0 1 1384.46 1126)">
   <path class="hierarchical-0:tertiary SFSymbolsPreview8E8E8E" d="M15.4785-24.4629L54.5898 14.6484Q60.0098 20.0684 65.3809 20.1172Q70.752 20.166 76.123 14.7949L115.43-24.5605Q120.801-29.8828 120.752-35.2783Q120.703-40.6738 115.283-46.0938L76.2207-85.1562Q70.8008-90.5762 65.4297-90.625Q60.0586-90.6738 54.6875-85.3027L15.332-45.9961Q9.96094-40.5762 10.0098-35.2295Q10.0586-29.8828 15.4785-24.4629Z"/>
   <path class="hierarchical-1:primary SFSymbolsPreview212121" d="M48.1934-13.9648Q46.5332-13.9648 45.3613-15.1611Q44.1895-16.3574 44.1895-18.0664Q44.1895-19.7266 45.3613-20.8984L59.668-35.2051L45.3613-49.5117Q44.1895-50.6836 44.1895-52.3438Q44.1895-54.0527 45.3613-55.2002Q46.5332-56.3477 48.1934-56.3477Q49.9512-56.3477 51.0254-55.1758L65.3809-40.8691L79.8828-55.2246Q81.0547-56.4453 82.666-56.4453Q84.3262-56.4453 85.498-55.2734Q86.6699-54.1016 86.6699-52.4414Q86.6699-50.8301 85.498-49.5605L71.1426-35.2051L85.4492-20.9473Q86.6211-19.6777 86.6211-18.0664Q86.6211-16.3574 85.4492-15.1611Q84.2773-13.9648 82.5684-13.9648Q80.957-13.9648 79.6875-15.1855L65.3809-29.4922L51.1719-15.1855Q49.9512-13.9648 48.1934-13.9648Z"/>
  </g>
  <g id="Light-M" transform="matrix(1 0 0 1 1088.78 1126)">
   <path class="hierarchical-0:tertiary SFSymbolsPreview8E8E8E" d="M15.0879-25.0977L54.248 14.0137Q59.2773 19.0918 64.3799 19.1162Q69.4824 19.1406 74.5117 14.1113L113.721-25.1465Q118.701-30.127 118.701-35.2539Q118.701-40.3809 113.672-45.459L74.6094-84.5215Q69.4824-89.5996 64.4043-89.624Q59.3262-89.6484 54.2969-84.5703L14.9902-45.3613Q9.96094-40.2832 9.98535-35.2295Q10.0098-30.1758 15.0879-25.0977Z"/>
   <path class="hierarchical-1:primary SFSymbolsPreview212121" d="M46.9727-14.6973Q45.6543-14.6973 44.751-15.6006Q43.8477-16.5039 43.8477-17.8223Q43.8477-19.1406 44.7754-20.0684L59.9121-35.2051L44.7754-50.3418Q43.8477-51.2695 43.8477-52.5879Q43.8477-53.9062 44.751-54.7852Q45.6543-55.6641 46.9727-55.6641Q48.3398-55.6641 49.2676-54.6875L64.3555-39.6484L79.5898-54.7363Q80.5176-55.7129 81.7871-55.7129Q83.1055-55.7129 84.0088-54.8096Q84.9121-53.9062 84.9121-52.6367Q84.9121-51.3672 83.9844-50.3418L68.8477-35.2051L83.9355-20.1172Q84.9121-19.0918 84.9121-17.8223Q84.9121-16.5039 83.9844-15.6006Q83.0566-14.6973 81.7383-14.6973Q80.4688-14.6973 79.4434-15.6738L64.3555-30.7617L49.3652-15.6738Q48.3398-14.6973 46.9727-14.6973Z"/>
  </g>
  <g id="Thin-M" transform="matrix(1 0 0 1 793.434 1126)">
   <path class="hierarchical-0:tertiary SFSymbolsPreview8E8E8E" d="M14.5996-25.9277L53.7598 13.1836Q58.3496 17.7734 63.0859 17.749Q67.8223 17.7246 72.3145 13.2324L111.426-25.9766Q115.967-30.4688 116.04-35.2295Q116.113-39.9902 111.475-44.5801L72.4121-83.6426Q67.7734-88.2812 63.0615-88.2568Q58.3496-88.2324 53.7598-83.6426L14.5508-44.5312Q9.96094-39.9414 9.98535-35.2539Q10.0098-30.5664 14.5996-25.9277Z"/>
   <path class="hierarchical-1:primary SFSymbolsPreview212121" d="M45.3125-15.625Q44.5312-15.625 43.9453-16.1621Q43.3594-16.6992 43.3594-17.4805Q43.3594-18.3594 43.9941-18.9941L60.2051-35.2051L43.9941-51.416Q43.3594-52.002 43.3594-52.8809Q43.3594-53.7109 43.9453-54.248Q44.5312-54.7852 45.3125-54.7852Q46.1914-54.7852 46.875-54.0527L62.9883-37.9883L79.1016-54.0527Q79.7852-54.7852 80.6641-54.7852Q81.4453-54.7852 82.0312-54.2236Q82.6172-53.6621 82.6172-52.8809Q82.6172-52.0508 81.9824-51.416L65.7715-35.2051L81.9336-18.9941Q82.5684-18.3594 82.5684-17.4805Q82.5684-16.6992 82.0068-16.1621Q81.4453-15.625 80.6152-15.625Q79.7852-15.625 79.0527-16.3086L62.9883-32.4219L46.875-16.3086Q46.1914-15.625 45.3125-15.625Z"/>
  </g>
  <g id="Ultralight-M" transform="matrix(1 0 0 1 497.406 1126)">
   <path class="hierarchical-0:tertiary SFSymbolsPreview8E8E8E" d="M14.3555-26.3672L53.5156 12.7441Q57.8613 17.1387 62.4023 17.0898Q66.9434 17.041 71.2402 12.7441L110.254-26.3672Q114.551-30.6641 114.648-35.2051Q114.746-39.7461 110.4-44.1406L71.3379-83.2031Q66.8945-87.6465 62.3535-87.5977Q57.8125-87.5488 53.4668-83.1543L14.3555-44.1406Q9.96094-39.7461 9.96094-35.2539Q9.96094-30.7617 14.3555-26.3672Z"/>
   <path class="hierarchical-1:primary SFSymbolsPreview212121" d="M44.5312-16.1133Q43.9453-16.1133 43.5547-16.4551Q43.1641-16.7969 43.1641-17.334Q43.1641-17.9688 43.6523-18.457L60.4004-35.2051L43.6523-51.9531Q43.1641-52.3926 43.1641-53.0273Q43.1641-53.6133 43.5547-53.9551Q43.9453-54.2969 44.5312-54.2969Q45.166-54.2969 45.7031-53.7109L62.3047-37.1582L78.9551-53.7109Q79.4922-54.2969 80.0781-54.2969Q80.6641-54.2969 81.0547-53.9307Q81.4453-53.5645 81.4453-53.0273Q81.4453-52.4414 80.957-51.9531L64.2578-35.2051L80.957-18.457Q81.4453-17.9688 81.4453-17.334Q81.4453-16.7969 81.0547-16.4551Q80.6641-16.1133 80.0781-16.1133Q79.4922-16.1133 78.9551-16.6504L62.3047-33.252L45.7031-16.6504Q45.166-16.1133 44.5312-16.1133Z"/>
  </g>
  <g id="Black-S" transform="matrix(1 0 0 1 2878.69 696)">
   <path class="hierarchical-0:tertiary SFSymbolsPreview8E8E8E" d="M12.8906-24.4629L43.8965 6.54297Q49.0234 11.6211 54.7119 11.6211Q60.4004 11.6211 65.4785 6.54297L96.4844-24.4629Q101.611-29.541 101.611-35.2539Q101.611-40.9668 96.4844-46.0449L65.4785-77.0508Q60.4004-82.1289 54.7119-82.1289Q49.0234-82.1289 43.8965-77.0508L12.8906-46.0449Q7.8125-40.9668 7.8125-35.2539Q7.8125-29.541 12.8906-24.4629Z"/>
   <path class="hierarchical-1:primary SFSymbolsPreview212121" d="M43.6035-18.457Q41.1621-18.457 39.502-20.1172Q37.8418-21.7773 37.8418-24.2676Q37.8418-26.5625 39.5996-28.2227L46.4844-35.1562L39.5996-42.0898Q37.8418-43.75 37.8418-46.0449Q37.8418-48.5352 39.502-50.1953Q41.1621-51.8555 43.6035-51.8555Q46.2402-51.8555 47.9492-50.1465L54.6875-43.4082L61.4746-50.1465Q63.1836-51.8555 65.8203-51.8555Q68.2617-51.8555 69.9219-50.1953Q71.582-48.5352 71.582-46.0449Q71.582-43.75 69.8242-42.0898L62.9883-35.1562L69.8242-28.2227Q71.582-26.5625 71.582-24.2676Q71.582-21.7773 69.9219-20.1172Q68.2617-18.457 65.8203-18.457Q63.1836-18.457 61.4746-20.166L54.6875-26.8555L47.9492-20.166Q46.2402-18.457 43.6035-18.457Z"/>
  </g>
  <g id="Heavy-S" transform="matrix(1 0 0 1 2582.68 696)">
   <path class="hierarchical-0:tertiary SFSymbolsPreview8E8E8E" d="M12.7441-24.9512L43.6523 5.95703Q48.6328 10.8887 54.0039 10.9131Q59.375 10.9375 64.2578 6.00586L95.2637-24.9512Q100.195-29.8828 100.171-35.2783Q100.146-40.6738 95.2148-45.5566L64.3066-76.4648Q59.375-81.3965 54.0039-81.4209Q48.6328-81.4453 43.7012-76.5137L12.6953-45.5566Q7.8125-40.625 7.8125-35.2295Q7.8125-29.834 12.7441-24.9512Z"/>
   <path class="hierarchical-1:primary SFSymbolsPreview212121" d="M42.334-18.4082Q40.1367-18.4082 38.623-19.9219Q37.1094-21.4355 37.1094-23.6816Q37.1094-25.7812 38.6719-27.2949L46.5332-35.1562L38.6719-43.0176Q37.1094-44.5312 37.1094-46.6309Q37.1094-48.877 38.623-50.3906Q40.1367-51.9043 42.334-51.9043Q44.7266-51.9043 46.2402-50.3418L53.9551-42.6758L61.7676-50.3906Q63.2812-51.9531 65.6738-51.9531Q67.8711-51.9531 69.3848-50.4395Q70.8984-48.9258 70.8984-46.6797Q70.8984-44.5801 69.2871-43.0176L61.5234-35.1562L69.2871-27.3438Q70.8984-25.7812 70.8984-23.6816Q70.8984-21.4355 69.3848-19.9219Q67.8711-18.4082 65.625-18.4082Q63.2812-18.4082 61.7188-19.9707L53.9551-27.6367L46.2891-19.9707Q44.7266-18.4082 42.334-18.4082Z"/>
  </g>
  <g id="Bold-S" transform="matrix(1 0 0 1 2286.78 696)">
   <path class="hierarchical-0:tertiary SFSymbolsPreview8E8E8E" d="M12.5977-25.4883L43.4082 5.37109Q48.1934 10.1074 53.1982 10.1318Q58.2031 10.1562 62.9395 5.41992L93.8477-25.5371Q98.6328-30.2734 98.6084-35.3027Q98.584-40.332 93.7988-45.0684L62.9883-75.8789Q58.252-80.6152 53.2227-80.6396Q48.1934-80.6641 43.457-75.9277L12.5488-45.0195Q7.8125-40.2832 7.83691-35.2539Q7.86133-30.2246 12.5977-25.4883Z"/>
   <path class="hierarchical-1:primary SFSymbolsPreview212121" d="M41.0156-18.3594Q39.0625-18.3594 37.6953-19.7266Q36.3281-21.0938 36.3281-23.0957Q36.3281-24.9512 37.7441-26.3184L46.582-35.2051L37.7441-44.0918Q36.3281-45.4102 36.3281-47.3145Q36.3281-49.3164 37.6953-50.6592Q39.0625-52.002 41.0156-52.002Q43.1152-52.002 44.3848-50.6348L53.2227-41.8457L62.1094-50.6348Q63.4766-52.0508 65.5273-52.0508Q67.4805-52.0508 68.8477-50.6836Q70.2148-49.3164 70.2148-47.3633Q70.2148-45.459 68.7988-44.0918L59.9609-35.2051L68.75-26.3184Q70.166-24.9512 70.166-23.0957Q70.166-21.0938 68.8232-19.7266Q67.4805-18.3594 65.4785-18.3594Q63.4277-18.3594 62.0117-19.7266L53.2227-28.5156L44.4824-19.7266Q43.1152-18.3594 41.0156-18.3594Z"/>
  </g>
  <g id="Semibold-S" transform="matrix(1 0 0 1 1990.63 696)">
   <path class="hierarchical-0:tertiary SFSymbolsPreview8E8E8E" d="M12.4512-25.8301L43.2129 4.93164Q47.8516 9.52148 52.6367 9.5459Q57.4219 9.57031 62.0117 5.0293L92.8711-25.8789Q97.5098-30.5176 97.4854-35.3027Q97.4609-40.0879 92.7734-44.6777L62.0605-75.4395Q57.4219-80.0293 52.6611-80.0537Q47.9004-80.0781 43.2617-75.5371L12.4023-44.6289Q7.76367-39.9902 7.8125-35.2051Q7.86133-30.4199 12.4512-25.8301Z"/>
   <path class="hierarchical-1:primary SFSymbolsPreview212121" d="M39.9902-18.3105Q38.2324-18.3105 36.9873-19.5557Q35.7422-20.8008 35.7422-22.6562Q35.7422-24.3652 37.0117-25.5859L46.582-35.2051L37.0117-44.7754Q35.7422-45.9961 35.7422-47.7539Q35.7422-49.5605 36.9873-50.7812Q38.2324-52.002 39.9902-52.002Q41.8945-52.002 43.0664-50.7812L52.6367-41.2598L62.3047-50.8301Q63.5254-52.0996 65.332-52.0996Q67.1387-52.0996 68.3838-50.8545Q69.6289-49.6094 69.6289-47.8027Q69.6289-46.0938 68.3594-44.8242L58.7891-35.2051L68.3105-25.6348Q69.6289-24.3652 69.6289-22.6562Q69.6289-20.8008 68.3838-19.5557Q67.1387-18.3105 65.2832-18.3105Q63.4766-18.3105 62.1582-19.5801L52.6367-29.1016L43.1641-19.5801Q41.8945-18.3105 39.9902-18.3105Z"/>
  </g>
  <g id="Medium-S" transform="matrix(1 0 0 1 1694.33 696)">
   <path class="hierarchical-0:tertiary SFSymbolsPreview8E8E8E" d="M12.3535-26.123L43.1152 4.58984Q47.6074 9.08203 52.1973 9.13086Q56.7871 9.17969 61.3281 4.6875L92.1387-26.1719Q96.6797-30.7129 96.6309-35.3027Q96.582-39.8926 92.041-44.3848L61.377-75.0977Q56.8359-79.5898 52.2461-79.6387Q47.6562-79.6875 43.1152-75.1953L12.3047-44.3359Q7.76367-39.7949 7.8125-35.2051Q7.86133-30.6152 12.3535-26.123Z"/>
   <path class="hierarchical-1:primary SFSymbolsPreview212121" d="M39.2578-18.2617Q37.5977-18.2617 36.4502-19.4336Q35.3027-20.6055 35.3027-22.3145Q35.3027-23.9258 36.4746-25.0488L46.582-35.2051L36.4746-45.3125Q35.3027-46.4844 35.3027-48.0957Q35.3027-49.7559 36.4502-50.9033Q37.5977-52.0508 39.2578-52.0508Q41.0156-52.0508 42.041-50.9277L52.2461-40.8203L62.4512-50.9277Q63.623-52.1484 65.2344-52.1484Q66.9434-52.1484 68.0908-50.9766Q69.2383-49.8047 69.2383-48.1445Q69.2383-46.5332 68.0664-45.3613L57.9102-35.2051L68.0176-25.0977Q69.1895-23.9258 69.1895-22.3145Q69.1895-20.6055 68.042-19.4336Q66.8945-18.2617 65.1855-18.2617Q63.5254-18.2617 62.3047-19.4336L52.2461-29.541L42.1875-19.4336Q41.0156-18.2617 39.2578-18.2617Z"/>
  </g>
  <g id="Regular-S" transform="matrix(1 0 0 1 1398.16 696)">
   <path class="hierarchical-0:tertiary SFSymbolsPreview8E8E8E" d="M12.2559-26.4648L42.9199 4.15039Q47.3145 8.54492 51.6602 8.59375Q56.0059 8.64258 60.4004 4.29688L91.2109-26.5625Q95.6055-30.957 95.5566-35.3027Q95.5078-39.6484 91.0645-44.043L60.4492-74.6582Q56.0547-79.0527 51.709-79.1016Q47.3633-79.1504 42.9688-74.8047L12.1582-43.9453Q7.76367-39.5508 7.8125-35.2051Q7.86133-30.8594 12.2559-26.4648Z"/>
   <path class="hierarchical-1:primary SFSymbolsPreview212121" d="M38.3301-18.2129Q36.8652-18.2129 35.8154-19.2871Q34.7656-20.3613 34.7656-21.875Q34.7656-23.3398 35.791-24.3652L46.6309-35.2051L35.791-46.0449Q34.7656-47.0703 34.7656-48.5352Q34.7656-50.0488 35.8154-51.0742Q36.8652-52.0996 38.3301-52.0996Q39.8926-52.0996 40.7715-51.0742L51.709-40.2344L62.6953-51.123Q63.7207-52.1973 65.1367-52.1973Q66.6504-52.1973 67.7002-51.1475Q68.75-50.0977 68.75-48.6328Q68.75-47.168 67.6758-46.0938L56.8359-35.2051L67.627-24.4141Q68.7012-23.3398 68.7012-21.875Q68.7012-20.3613 67.6514-19.2871Q66.6016-18.2129 65.0391-18.2129Q63.623-18.2129 62.5-19.2871L51.709-30.127L40.918-19.2871Q39.8926-18.2129 38.3301-18.2129Z"/>
  </g>
  <g id="Light-S" transform="matrix(1 0 0 1 1102.35 696)">
   <path class="hierarchical-0:tertiary SFSymbolsPreview8E8E8E" d="M11.9141-27.0508L42.5781 3.61328Q46.6797 7.66602 50.7812 7.69043Q54.8828 7.71484 58.9844 3.71094L89.6973-27.0996Q93.75-31.1523 93.75-35.2539Q93.75-39.3555 89.6484-43.457L59.0332-74.0723Q54.9316-78.1738 50.8301-78.1982Q46.7285-78.2227 42.627-74.1699L11.8652-43.4082Q7.76367-39.3066 7.8125-35.2295Q7.86133-31.1523 11.9141-27.0508Z"/>
   <path class="hierarchical-1:primary SFSymbolsPreview212121" d="M37.2559-18.8477Q36.1328-18.8477 35.3027-19.6777Q34.4727-20.5078 34.4727-21.6797Q34.4727-22.8027 35.3027-23.6328L46.875-35.2051L35.3027-46.7773Q34.4727-47.6074 34.4727-48.7305Q34.4727-49.9023 35.3027-50.708Q36.1328-51.5137 37.2559-51.5137Q38.4766-51.5137 39.209-50.6348L50.8301-39.1113L62.4512-50.6836Q63.2812-51.5625 64.4043-51.5625Q65.5762-51.5625 66.4062-50.7568Q67.2363-49.9512 67.2363-48.7793Q67.2363-47.6562 66.3574-46.7773L54.834-35.2051L66.3574-23.6816Q67.1875-22.8027 67.1875-21.6797Q67.1875-20.5078 66.3818-19.6777Q65.5762-18.8477 64.3066-18.8477Q63.2324-18.8477 62.3047-19.7266L50.8301-31.25L39.3066-19.7266Q38.4766-18.8477 37.2559-18.8477Z"/>
  </g>
  <g id="Thin-S" transform="matrix(1 0 0 1 806.813 696)">
   <path class="hierarchical-0:tertiary SFSymbolsPreview8E8E8E" d="M11.5234-27.7832L42.1875 2.83203Q45.8496 6.54297 49.6338 6.54297Q53.418 6.54297 57.0801 2.88086L87.6953-27.832Q91.3574-31.4453 91.3818-35.2295Q91.4062-39.0137 87.7441-42.7246L57.1289-73.3398Q53.418-77.0508 49.6582-77.0264Q45.8984-77.002 42.1875-73.3398L11.4746-42.6758Q7.8125-38.9648 7.8125-35.2295Q7.8125-31.4941 11.5234-27.7832Z"/>
   <path class="hierarchical-1:primary SFSymbolsPreview212121" d="M35.8398-19.6777Q35.1074-19.6777 34.5947-20.166Q34.082-20.6543 34.082-21.4355Q34.082-22.168 34.668-22.7051L47.1191-35.2051L34.668-47.7051Q34.082-48.2422 34.082-48.9746Q34.082-49.7559 34.5947-50.2197Q35.1074-50.6836 35.8398-50.6836Q36.6211-50.6836 37.1582-50.0977L49.6094-37.6465L62.0605-50.0977Q62.6953-50.7324 63.3789-50.7324Q64.1602-50.7324 64.6729-50.2441Q65.1855-49.7559 65.1855-49.0234Q65.1855-48.291 64.6484-47.7051L52.1484-35.2051L64.5996-22.7051Q65.1855-22.168 65.1855-21.4355Q65.1855-20.6543 64.6729-20.166Q64.1602-19.6777 63.3789-19.6777Q62.6465-19.6777 62.0117-20.3125L49.6094-32.7148L37.207-20.3125Q36.6211-19.6777 35.8398-19.6777Z"/>
  </g>
  <g id="Ultralight-S" transform="matrix(1 0 0 1 510.712 696)">
   <path class="hierarchical-0:tertiary SFSymbolsPreview8E8E8E" d="M11.2793-28.1738L41.9434 2.49023Q45.459 5.95703 49.0723 5.93262Q52.6855 5.9082 56.1035 2.49023L86.6699-28.1738Q90.0879-31.5918 90.1611-35.2051Q90.2344-38.8184 86.7676-42.334L56.1523-72.9492Q52.6367-76.4648 49.0479-76.416Q45.459-76.3672 41.9922-72.9004L11.2793-42.334Q7.8125-38.8184 7.8125-35.2539Q7.8125-31.6895 11.2793-28.1738Z"/>
   <path class="hierarchical-1:primary SFSymbolsPreview212121" d="M35.1074-20.1172Q34.5703-20.1172 34.2041-20.4346Q33.8379-20.752 33.8379-21.2891Q33.8379-21.7773 34.2773-22.2168L47.2656-35.2051L34.2773-48.1934Q33.8379-48.6328 33.8379-49.1211Q33.8379-49.6582 34.2041-49.9756Q34.5703-50.293 35.1074-50.293Q35.5957-50.293 36.084-49.8047L48.9746-36.9141L61.8652-49.8047Q62.3535-50.293 62.8418-50.293Q63.4277-50.293 63.7695-49.9756Q64.1113-49.6582 64.1113-49.1211Q64.1113-48.6328 63.7207-48.1934L50.7324-35.2051L63.7207-22.2168Q64.1113-21.7773 64.1113-21.2891Q64.1113-20.752 63.7695-20.4346Q63.4277-20.1172 62.8418-20.1172Q62.3535-20.1172 61.8652-20.6055L48.9746-33.4961L36.084-20.6055Q35.5957-20.1172 35.1074-20.1172Z"/>
  </g>
 </g>
</svg>
