<?xml version="1.0" encoding="UTF-8"?>
<!--Generator: Apple Native CoreSVG 149-->
<!DOCTYPE svg
PUBLIC "-//W3C//DTD SVG 1.1//EN"
       "http://www.w3.org/Graphics/SVG/1.1/DTD/svg11.dtd">
<svg version="1.1" xmlns="http://www.w3.org/2000/svg" xmlns:xlink="http://www.w3.org/1999/xlink" width="3300" height="2200">
 <!--glyph: "uni1004A1.medium", point size: 100.000000, font version: "Version 16.0d18e1", template writer version: "8"-->
 <g id="Notes">
  <rect height="2200" id="artboard" style="fill:white;opacity:1" width="3300" x="0" y="0"/>
  <line id="" style="fill:none;stroke:black;opacity:1;stroke-width:0.5;" x1="263" x2="3036" y1="292" y2="292"/>
  <text style="stroke:none;fill:black;font-family:-apple-system,&quot;SF Pro Display&quot;,&quot;SF Pro Text&quot;,Helvetica,sans-serif;font-weight:bold;" transform="matrix(1 0 0 1 263 322)">Weight/Scale Variations</text>
  <text style="stroke:none;fill:black;font-family:-apple-system,&quot;SF Pro Display&quot;,&quot;SF Pro Text&quot;,Helvetica,sans-serif;text-anchor:middle;" transform="matrix(1 0 0 1 559.711 322)">Ultralight</text>
  <text style="stroke:none;fill:black;font-family:-apple-system,&quot;SF Pro Display&quot;,&quot;SF Pro Text&quot;,Helvetica,sans-serif;text-anchor:middle;" transform="matrix(1 0 0 1 856.422 322)">Thin</text>
  <text style="stroke:none;fill:black;font-family:-apple-system,&quot;SF Pro Display&quot;,&quot;SF Pro Text&quot;,Helvetica,sans-serif;text-anchor:middle;" transform="matrix(1 0 0 1 1153.13 322)">Light</text>
  <text style="stroke:none;fill:black;font-family:-apple-system,&quot;SF Pro Display&quot;,&quot;SF Pro Text&quot;,Helvetica,sans-serif;text-anchor:middle;" transform="matrix(1 0 0 1 1449.84 322)">Regular</text>
  <text style="stroke:none;fill:black;font-family:-apple-system,&quot;SF Pro Display&quot;,&quot;SF Pro Text&quot;,Helvetica,sans-serif;text-anchor:middle;" transform="matrix(1 0 0 1 1746.56 322)">Medium</text>
  <text style="stroke:none;fill:black;font-family:-apple-system,&quot;SF Pro Display&quot;,&quot;SF Pro Text&quot;,Helvetica,sans-serif;text-anchor:middle;" transform="matrix(1 0 0 1 2043.27 322)">Semibold</text>
  <text style="stroke:none;fill:black;font-family:-apple-system,&quot;SF Pro Display&quot;,&quot;SF Pro Text&quot;,Helvetica,sans-serif;text-anchor:middle;" transform="matrix(1 0 0 1 2339.98 322)">Bold</text>
  <text style="stroke:none;fill:black;font-family:-apple-system,&quot;SF Pro Display&quot;,&quot;SF Pro Text&quot;,Helvetica,sans-serif;text-anchor:middle;" transform="matrix(1 0 0 1 2636.69 322)">Heavy</text>
  <text style="stroke:none;fill:black;font-family:-apple-system,&quot;SF Pro Display&quot;,&quot;SF Pro Text&quot;,Helvetica,sans-serif;text-anchor:middle;" transform="matrix(1 0 0 1 2933.4 322)">Black</text>
  <line id="" style="fill:none;stroke:black;opacity:1;stroke-width:0.5;" x1="263" x2="3036" y1="1903" y2="1903"/>
  <g id="" transform="matrix(1 0 0 1 263 1933)">
   <path d="M9.24805 0.830078C13.5547 0.830078 17.1387-2.74414 17.1387-7.05078C17.1387-11.3574 13.5449-14.9316 9.23828-14.9316C4.94141-14.9316 1.36719-11.3574 1.36719-7.05078C1.36719-2.74414 4.95117 0.830078 9.24805 0.830078ZM9.24805-0.654297C5.70312-0.654297 2.87109-3.49609 2.87109-7.05078C2.87109-10.6055 5.69336-13.4473 9.23828-13.4473C12.793-13.4473 15.6348-10.6055 15.6445-7.05078C15.6543-3.49609 12.8027-0.654297 9.24805-0.654297ZM6.39648-6.31836L8.50586-6.31836L8.50586-4.19922C8.50586-3.75977 8.79883-3.45703 9.22852-3.45703C9.67773-3.45703 9.9707-3.75977 9.9707-4.19922L9.9707-6.31836L12.0996-6.31836C12.5391-6.31836 12.8418-6.61133 12.8418-7.04102C12.8418-7.48047 12.5391-7.7832 12.0996-7.7832L9.9707-7.7832L9.9707-9.89258C9.9707-10.3418 9.67773-10.6445 9.22852-10.6445C8.79883-10.6445 8.50586-10.3418 8.50586-9.89258L8.50586-7.7832L6.39648-7.7832C5.94727-7.7832 5.64453-7.48047 5.64453-7.04102C5.64453-6.61133 5.94727-6.31836 6.39648-6.31836Z"/>
  </g>
  <g id="" transform="matrix(1 0 0 1 281.506 1933)">
   <path d="M11.709 2.91016C17.1582 2.91016 21.6699-1.61133 21.6699-7.05078C21.6699-12.5 17.1484-17.0117 11.6992-17.0117C6.25977-17.0117 1.74805-12.5 1.74805-7.05078C1.74805-1.61133 6.26953 2.91016 11.709 2.91016ZM11.709 1.25C7.09961 1.25 3.41797-2.44141 3.41797-7.05078C3.41797-11.6602 7.08984-15.3516 11.6992-15.3516C16.3086-15.3516 20-11.6602 20.0098-7.05078C20.0195-2.44141 16.3184 1.25 11.709 1.25ZM7.98828-6.23047L10.8789-6.23047L10.8789-3.32031C10.8789-2.83203 11.2109-2.5 11.6895-2.5C12.1777-2.5 12.5195-2.83203 12.5195-3.32031L12.5195-6.23047L15.4297-6.23047C15.918-6.23047 16.25-6.5625 16.25-7.04102C16.25-7.5293 15.918-7.87109 15.4297-7.87109L12.5195-7.87109L12.5195-10.7617C12.5195-11.2695 12.1777-11.6016 11.6895-11.6016C11.2109-11.6016 10.8789-11.2598 10.8789-10.7617L10.8789-7.87109L7.98828-7.87109C7.48047-7.87109 7.14844-7.5293 7.14844-7.04102C7.14844-6.5625 7.49023-6.23047 7.98828-6.23047Z"/>
  </g>
  <g id="" transform="matrix(1 0 0 1 304.924 1933)">
   <path d="M14.9707 5.66406C21.9336 5.66406 27.6953-0.0976562 27.6953-7.05078C27.6953-14.0137 21.9238-19.7754 14.9609-19.7754C8.00781-19.7754 2.25586-14.0137 2.25586-7.05078C2.25586-0.0976562 8.01758 5.66406 14.9707 5.66406ZM14.9707 3.84766C8.93555 3.84766 4.08203-1.01562 4.08203-7.05078C4.08203-13.0957 8.92578-17.9492 14.9609-17.9492C21.0059-17.9492 25.8594-13.0957 25.8691-7.05078C25.8789-1.01562 21.0156 3.84766 14.9707 3.84766ZM10.0586-6.14258L14.0625-6.14258L14.0625-2.12891C14.0625-1.5918 14.4336-1.2207 14.9512-1.2207C15.4883-1.2207 15.8594-1.5918 15.8594-2.12891L15.8594-6.14258L19.8828-6.14258C20.4102-6.14258 20.791-6.51367 20.791-7.03125C20.791-7.56836 20.4199-7.94922 19.8828-7.94922L15.8594-7.94922L15.8594-11.9531C15.8594-12.5098 15.4883-12.8809 14.9512-12.8809C14.4336-12.8809 14.0625-12.5 14.0625-11.9531L14.0625-7.94922L10.0586-7.94922C9.50195-7.94922 9.13086-7.56836 9.13086-7.03125C9.13086-6.51367 9.51172-6.14258 10.0586-6.14258Z"/>
  </g>
  <text style="stroke:none;fill:black;font-family:-apple-system,&quot;SF Pro Display&quot;,&quot;SF Pro Text&quot;,Helvetica,sans-serif;font-weight:bold;" transform="matrix(1 0 0 1 263 1953)">Design Variations</text>
  <text style="stroke:none;fill:black;font-family:-apple-system,&quot;SF Pro Display&quot;,&quot;SF Pro Text&quot;,Helvetica,sans-serif;" transform="matrix(1 0 0 1 263 1971)">Symbols are supported in up to nine weights and three scales.</text>
  <text style="stroke:none;fill:black;font-family:-apple-system,&quot;SF Pro Display&quot;,&quot;SF Pro Text&quot;,Helvetica,sans-serif;" transform="matrix(1 0 0 1 263 1989)">For optimal layout with text and other symbols, vertically align</text>
  <text style="stroke:none;fill:black;font-family:-apple-system,&quot;SF Pro Display&quot;,&quot;SF Pro Text&quot;,Helvetica,sans-serif;" transform="matrix(1 0 0 1 263 2007)">symbols with the adjacent text.</text>
  <line id="" style="fill:none;stroke:#00AEEF;stroke-width:0.5;opacity:1.0;" x1="776" x2="776" y1="1919" y2="1933"/>
  <g id="" transform="matrix(1 0 0 1 776 1933)">
   <path d="M3.31055 0.126953C3.82812 0.126953 4.08203-0.0683594 4.26758-0.605469L5.52734-4.0625L11.2891-4.0625L12.5488-0.605469C12.7344-0.0683594 12.9883 0.126953 13.4961 0.126953C14.0137 0.126953 14.3457-0.185547 14.3457-0.673828C14.3457-0.839844 14.3164-0.986328 14.2383-1.20117L9.6582-13.3887C9.43359-13.9941 9.0332-14.2871 8.4082-14.2871C7.80273-14.2871 7.39258-13.9941 7.17773-13.3984L2.59766-1.19141C2.51953-0.976562 2.49023-0.830078 2.49023-0.664062C2.49023-0.175781 2.80273 0.126953 3.31055 0.126953ZM6.00586-5.53711L8.37891-12.1094L8.42773-12.1094L10.8008-5.53711Z"/>
  </g>
  <line id="" style="fill:none;stroke:#00AEEF;stroke-width:0.5;opacity:1.0;" x1="792.836" x2="792.836" y1="1919" y2="1933"/>
  <text style="stroke:none;fill:black;font-family:-apple-system,&quot;SF Pro Display&quot;,&quot;SF Pro Text&quot;,Helvetica,sans-serif;font-weight:bold;" transform="matrix(1 0 0 1 776 1953)">Margins</text>
  <text style="stroke:none;fill:black;font-family:-apple-system,&quot;SF Pro Display&quot;,&quot;SF Pro Text&quot;,Helvetica,sans-serif;" transform="matrix(1 0 0 1 776 1971)">Leading and trailing margins on the left and right side of each symbol</text>
  <text style="stroke:none;fill:black;font-family:-apple-system,&quot;SF Pro Display&quot;,&quot;SF Pro Text&quot;,Helvetica,sans-serif;" transform="matrix(1 0 0 1 776 1989)">can be adjusted by modifying the x-location of the margin guidelines.</text>
  <text style="stroke:none;fill:black;font-family:-apple-system,&quot;SF Pro Display&quot;,&quot;SF Pro Text&quot;,Helvetica,sans-serif;" transform="matrix(1 0 0 1 776 2007)">Modifications are automatically applied proportionally to all</text>
  <text style="stroke:none;fill:black;font-family:-apple-system,&quot;SF Pro Display&quot;,&quot;SF Pro Text&quot;,Helvetica,sans-serif;" transform="matrix(1 0 0 1 776 2025)">scales and weights.</text>
  <g id="" transform="matrix(1 0 0 1 1289 1933)">
   <path d="M2.8418 1.86523L4.54102 3.57422C5.40039 4.44336 6.38672 4.38477 7.31445 3.35938L17.4902-7.85156C17.7539-7.76367 18.0273-7.7832 18.3398-7.8418L19.4043-8.03711L20.0684-7.36328L20.0293-6.80664C19.9902-6.30859 20.1172-5.92773 20.6055-5.44922L21.3672-4.70703C21.8457-4.22852 22.4609-4.19922 22.9297-4.66797L25.8398-7.58789C26.3086-8.05664 26.2891-8.65234 25.8105-9.13086L25.0391-9.89258C24.5605-10.3711 24.1895-10.5273 23.7109-10.4883L23.1348-10.4395L22.4902-11.0742L22.7344-12.1973C22.8613-12.7637 22.7051-13.2031 22.1191-13.7891L19.9219-15.9766C16.582-19.2969 12.1484-19.2188 9.25781-16.3281C8.83789-15.918 8.80859-15.3418 9.04297-14.9512C9.27734-14.5898 9.73633-14.3555 10.3809-14.5215C11.8457-14.8633 13.3691-14.9219 14.7949-13.9844L14.209-12.5293C14.0137-12.0508 13.9844-11.6504 14.1113-11.2891L3.04688-0.898438C2.06055 0.0195312 1.98242 0.996094 2.8418 1.86523ZM10.752-15.957C13.1836-17.7344 16.4746-17.4316 18.7012-15.2051L21.1328-12.793C21.3672-12.5586 21.4062-12.373 21.3379-12.0312L21.0156-10.5469L22.5195-9.0625L23.5059-9.12109C23.7598-9.13086 23.8379-9.11133 24.0332-8.91602L24.6094-8.33984L22.168-5.89844L21.5918-6.47461C21.3965-6.66992 21.3672-6.74805 21.377-7.01172L21.4453-7.98828L19.9512-9.47266L18.4277-9.21875C18.1055-9.15039 17.959-9.17969 17.7148-9.41406L15.7129-11.416C15.459-11.6504 15.4297-11.8164 15.5859-12.1875L16.4648-14.2773C14.9023-15.7324 12.8711-16.3574 10.8398-15.7617C10.6836-15.7227 10.625-15.8496 10.752-15.957ZM5.27344 2.30469L4.10156 1.14258C3.63281 0.683594 3.74023 0.341797 4.14062-0.0195312L14.9512-10.1953L16.416-8.71094L6.42578 2.27539C6.07422 2.67578 5.74219 2.77344 5.27344 2.30469Z"/>
  </g>
  <text style="stroke:none;fill:black;font-family:-apple-system,&quot;SF Pro Display&quot;,&quot;SF Pro Text&quot;,Helvetica,sans-serif;font-weight:bold;" transform="matrix(1 0 0 1 1289 1953)">Exporting</text>
  <text style="stroke:none;fill:black;font-family:-apple-system,&quot;SF Pro Display&quot;,&quot;SF Pro Text&quot;,Helvetica,sans-serif;" transform="matrix(1 0 0 1 1289 1971)">Symbols should be outlined when exporting to ensure the</text>
  <text style="stroke:none;fill:black;font-family:-apple-system,&quot;SF Pro Display&quot;,&quot;SF Pro Text&quot;,Helvetica,sans-serif;" transform="matrix(1 0 0 1 1289 1989)">design is preserved when submitting to Xcode.</text>
  <text id="template-version" style="stroke:none;fill:black;font-family:-apple-system,&quot;SF Pro Display&quot;,&quot;SF Pro Text&quot;,Helvetica,sans-serif;text-anchor:end;" transform="matrix(1 0 0 1 3036 1933)">Template v.2.0</text>
  <text style="stroke:none;fill:black;font-family:-apple-system,&quot;SF Pro Display&quot;,&quot;SF Pro Text&quot;,Helvetica,sans-serif;text-anchor:end;" transform="matrix(1 0 0 1 3036 1951)">Requires Xcode 12 or greater</text>
  <text style="stroke:none;fill:black;font-family:-apple-system,&quot;SF Pro Display&quot;,&quot;SF Pro Text&quot;,Helvetica,sans-serif;text-anchor:end;" transform="matrix(1 0 0 1 3036 1969)">Generated from link.circle.fill</text>
  <text style="stroke:none;fill:black;font-family:-apple-system,&quot;SF Pro Display&quot;,&quot;SF Pro Text&quot;,Helvetica,sans-serif;text-anchor:end;" transform="matrix(1 0 0 1 3036 1987)">Typeset at 100 points</text>
  <text style="stroke:none;fill:black;font-family:-apple-system,&quot;SF Pro Display&quot;,&quot;SF Pro Text&quot;,Helvetica,sans-serif;" transform="matrix(1 0 0 1 263 726)">Small</text>
  <text style="stroke:none;fill:black;font-family:-apple-system,&quot;SF Pro Display&quot;,&quot;SF Pro Text&quot;,Helvetica,sans-serif;" transform="matrix(1 0 0 1 263 1156)">Medium</text>
  <text style="stroke:none;fill:black;font-family:-apple-system,&quot;SF Pro Display&quot;,&quot;SF Pro Text&quot;,Helvetica,sans-serif;" transform="matrix(1 0 0 1 263 1586)">Large</text>
 </g>
 <g id="Guides">
  <g id="H-reference" style="fill:#27AAE1;stroke:none;" transform="matrix(1 0 0 1 339 696)">
   <path d="M0.976562 0L3.66211 0L12.9883-24.4629L45.752-24.4629L55.127 0L57.7637 0L30.6152-70.459L28.125-70.459ZM29.3457-67.1387L29.4434-67.1387L44.873-26.709L13.8672-26.709Z"/>
  </g>
  <line id="Baseline-S" style="fill:none;stroke:#27AAE1;opacity:1;stroke-width:0.5;" x1="263" x2="3036" y1="696" y2="696"/>
  <line id="Capline-S" style="fill:none;stroke:#27AAE1;opacity:1;stroke-width:0.5;" x1="263" x2="3036" y1="625.541" y2="625.541"/>
  <g id="H-reference" style="fill:#27AAE1;stroke:none;" transform="matrix(1 0 0 1 339 1126)">
   <path d="M0.976562 0L3.66211 0L12.9883-24.4629L45.752-24.4629L55.127 0L57.7637 0L30.6152-70.459L28.125-70.459ZM29.3457-67.1387L29.4434-67.1387L44.873-26.709L13.8672-26.709Z"/>
  </g>
  <line id="Baseline-M" style="fill:none;stroke:#27AAE1;opacity:1;stroke-width:0.5;" x1="263" x2="3036" y1="1126" y2="1126"/>
  <line id="Capline-M" style="fill:none;stroke:#27AAE1;opacity:1;stroke-width:0.5;" x1="263" x2="3036" y1="1055.54" y2="1055.54"/>
  <g id="H-reference" style="fill:#27AAE1;stroke:none;" transform="matrix(1 0 0 1 339 1556)">
   <path d="M0.976562 0L3.66211 0L12.9883-24.4629L45.752-24.4629L55.127 0L57.7637 0L30.6152-70.459L28.125-70.459ZM29.3457-67.1387L29.4434-67.1387L44.873-26.709L13.8672-26.709Z"/>
  </g>
  <line id="Baseline-L" style="fill:none;stroke:#27AAE1;opacity:1;stroke-width:0.5;" x1="263" x2="3036" y1="1556" y2="1556"/>
  <line id="Capline-L" style="fill:none;stroke:#27AAE1;opacity:1;stroke-width:0.5;" x1="263" x2="3036" y1="1485.54" y2="1485.54"/>
  <line id="left-margin" style="fill:none;stroke:#00AEEF;stroke-width:0.5;opacity:1.0;" x1="1391.3" x2="1391.3" y1="1030.79" y2="1150.12"/>
  <line id="right-margin" style="fill:none;stroke:#00AEEF;stroke-width:0.5;opacity:1.0;" x1="1508.39" x2="1508.39" y1="1030.79" y2="1150.12"/>
 </g>
 <g id="Symbols">
  <g id="Black-L" transform="matrix(1 0 0 1 2854.05 1556)">
   <path d="M79.3457 32.9102C116.748 32.9102 147.412 2.29492 147.412-35.1074C147.412-72.5586 116.748-103.174 79.2969-103.174C41.8945-103.174 11.2793-72.5586 11.2793-35.1074C11.2793 2.29492 41.9434 32.9102 79.3457 32.9102ZM107.91-65.1855C116.553-56.543 115.771-45.5078 105.762-35.498L96.582-26.3672C97.5586-30.0293 96.9727-35.8398 95.6543-38.0371L99.2676-41.5527C105.566-47.7539 106.396-54.1992 101.611-58.8867C96.8262-63.623 90.5762-62.7441 84.2285-56.4941L77.6367-49.9512C71.2402-43.6523 70.459-37.3535 75.2441-32.5195C76.416-31.3965 78.8086-29.7852 80.4199-29.1992C79.6875-27.0996 77.002-23.7793 74.6582-21.9238C73.0957-22.8027 70.752-24.5117 68.9941-26.3184C60.1562-34.8145 60.8887-46.0449 71.0938-56.1035L78.3203-62.9883C88.3789-72.9004 99.2188-73.877 107.91-65.1855ZM48.3398-5.07812C39.6973-13.7695 40.4785-24.7559 50.4883-34.7656L59.668-43.9453C58.6914-40.2832 59.2773-34.4238 60.5957-32.2754L56.9824-28.7109C50.6836-22.5098 49.9023-16.0645 54.6875-11.377C59.4238-6.64062 65.6738-7.56836 72.0703-13.7695L78.6621-20.3125C85.0586-26.6113 85.8398-32.959 81.0547-37.7441C79.834-38.916 77.4414-40.4785 75.8789-41.1133C76.5625-43.1641 79.248-46.5332 81.5918-48.3887C83.1543-47.4609 85.5469-45.752 87.2559-43.9941C96.1426-35.498 95.4102-24.2676 85.1562-14.209L77.9785-7.27539C67.8711 2.63672 57.0312 3.56445 48.3398-5.07812Z"/>
  </g>
  <g id="Heavy-L" transform="matrix(1 0 0 1 2558.39 1556)">
   <path d="M78.2715 31.8848C115.088 31.8848 145.312 1.66016 145.312-35.1562C145.312-71.9238 115.039-102.148 78.2715-102.148C41.4551-102.148 11.2793-71.9238 11.2793-35.1562C11.2793 1.66016 41.5039 31.8848 78.2715 31.8848ZM106.982-65.2832C115.479-56.8359 114.697-46.0938 104.932-36.3281L95.0195-26.4648C96.0449-29.9805 95.6055-35.2051 94.3359-37.4023L98.9746-41.8945C105.273-48.1445 106.006-54.6387 101.123-59.4238C96.2891-64.2578 89.8926-63.4277 83.5449-57.2266L76.123-49.7559C69.6777-43.457 68.9453-37.0117 73.7793-32.1289C75.1465-30.8105 77.5391-29.3457 79.4922-28.8086C78.7598-26.709 76.2207-23.6816 74.0723-21.9727C72.3633-22.7539 69.9219-24.4141 68.0176-26.3672C59.375-34.7168 60.1074-45.6543 70.0684-55.4688L78.0762-63.1836C87.8906-72.9004 98.4863-73.7793 106.982-65.2832ZM47.168-5.07812C38.7207-13.5254 39.4531-24.2676 49.2188-34.0332L59.1309-43.8965C58.1055-40.3809 58.5938-35.1562 59.8145-32.959L55.2246-28.4668C48.877-22.2168 48.1445-15.7227 53.0273-10.9375C57.9102-6.10352 64.2578-6.93359 70.6055-13.1348L78.0762-20.6055C84.4727-26.9043 85.2051-33.3496 80.3711-38.2324C79.0039-39.5508 76.6113-41.0156 74.6582-41.5527C75.3906-43.6523 77.9297-46.6797 80.127-48.3887C81.7871-47.6074 84.2285-45.9473 86.1328-43.9941C94.7754-35.6445 94.043-24.7559 84.082-14.8926L76.0742-7.17773C66.2598 2.53906 55.6641 3.36914 47.168-5.07812Z"/>
  </g>
  <g id="Bold-L" transform="matrix(1 0 0 1 2262.88 1556)">
   <path d="M77.0996 30.6641C113.232 30.6641 142.92 0.927734 142.92-35.1562C142.92-71.2891 113.184-100.977 77.0508-100.977C40.9668-100.977 11.2793-71.2891 11.2793-35.1562C11.2793 0.927734 41.0156 30.6641 77.0996 30.6641ZM105.908-65.4297C114.209-57.1289 113.477-46.7285 104.004-37.207L93.3105-26.6113C94.3359-29.9316 93.9941-34.5215 92.9199-36.7188L98.584-42.334C104.932-48.5352 105.566-55.1758 100.586-60.0586C95.6543-64.9902 89.1602-64.209 82.8125-58.0078L74.4141-49.5605C67.9688-43.2617 67.2363-36.6699 72.2168-31.6895C73.7305-30.1758 76.123-28.8574 78.4668-28.418C77.6855-26.3184 75.3418-23.584 73.3398-22.0703C71.5332-22.7051 68.9941-24.3164 66.9434-26.4648C58.5449-34.6191 59.2773-45.166 68.9453-54.7363L77.7832-63.4277C87.3047-72.8516 97.6562-73.6328 105.908-65.4297ZM45.8984-5.0293C37.5977-13.3301 38.3301-23.7305 47.8027-33.252L58.4961-43.8965C57.4707-40.5273 57.7637-35.9375 58.8867-33.7402L53.2227-28.125C46.875-21.9238 46.2402-15.2832 51.2207-10.4004C56.1523-5.46875 62.6465-6.25 68.9453-12.4512L77.3926-20.8984C83.8379-27.2461 84.5703-33.7891 79.5898-38.7695C78.0273-40.2832 75.6348-41.6016 73.3398-42.041C74.1211-44.1406 76.4648-46.875 78.418-48.3887C80.2734-47.8027 82.7637-46.1426 84.8633-43.9941C93.2617-35.8398 92.5293-25.293 82.8613-15.7227L74.0234-7.03125C64.4531 2.39258 54.1504 3.17383 45.8984-5.0293Z"/>
  </g>
  <g id="Semibold-L" transform="matrix(1 0 0 1 1966.97 1556)">
   <path d="M76.2695 29.834C111.914 29.834 141.309 0.439453 141.309-35.1562C141.309-70.8008 111.865-100.195 76.2695-100.195C40.625-100.195 11.2793-70.8008 11.2793-35.1562C11.2793 0.439453 40.6738 29.834 76.2695 29.834ZM105.176-65.4785C113.33-57.373 112.646-47.168 103.369-37.8418L92.0898-26.6602C93.1152-29.9316 92.9199-34.0332 91.8945-36.2793L98.291-42.627C104.688-48.8281 105.273-55.5176 100.244-60.498C95.2148-65.4785 88.623-64.7461 82.3242-58.5449L73.2422-49.4141C66.7969-43.0664 66.0645-36.4258 71.0938-31.3965C72.7539-29.7363 75.1465-28.5156 77.7344-28.125C76.9531-26.0254 74.707-23.4863 72.8516-22.1191C70.9473-22.6562 68.4082-24.2188 66.2109-26.5137C57.959-34.5703 58.6914-44.873 68.1641-54.248L77.5879-63.5742C86.9141-72.8516 97.0703-73.584 105.176-65.4785ZM44.9707-5.0293C36.8164-13.1348 37.5-23.3887 46.8262-32.666L58.0566-43.8477C57.0312-40.625 57.2266-36.4746 58.252-34.2773L51.8555-27.9297C45.5078-21.6797 44.873-14.9902 49.9512-10.0586C54.9805-5.0293 61.5234-5.76172 67.8223-12.0117L76.9531-21.1426C83.3984-27.4414 84.082-34.1309 79.0527-39.1602C77.3926-40.7715 75-41.9922 72.4121-42.4316C73.1934-44.4824 75.4395-47.0215 77.2949-48.3887C79.248-47.9004 81.7871-46.2891 83.9355-44.043C92.2363-35.9863 91.5039-25.6836 82.0312-16.2598L72.5586-6.93359C63.2324 2.34375 53.0762 3.02734 44.9707-5.0293Z"/>
  </g>
  <g id="Medium-L" transform="matrix(1 0 0 1 1670.87 1556)">
   <path d="M75.6836 29.1992C110.938 29.1992 140.088 0.0976562 140.088-35.1562C140.088-70.459 110.889-99.5605 75.6348-99.5605C40.3809-99.5605 11.2793-70.459 11.2793-35.1562C11.2793 0.0976562 40.3809 29.1992 75.6836 29.1992ZM104.639-65.5762C112.695-57.5684 112.012-47.5098 102.881-38.3301L91.2109-26.7578C92.2363-29.8828 92.0898-33.6914 91.1621-35.9375L98.0957-42.8223C104.492-49.0723 105.078-55.8105 99.9512-60.791C94.873-65.8691 88.2324-65.1855 81.9336-58.9355L72.3633-49.2676C65.8691-42.9688 65.1855-36.2305 70.2637-31.1523C72.0215-29.3945 74.4141-28.2715 77.1973-27.9297C76.416-25.8301 74.2676-23.4375 72.5098-22.168C70.5078-22.6074 67.9199-24.1699 65.625-26.5137C57.5195-34.5215 58.252-44.6289 67.5293-53.9062L77.4414-63.6719C86.6211-72.8516 96.6309-73.4863 104.639-65.5762ZM44.2871-5.0293C36.2305-13.0371 36.9141-23.0957 46.0938-32.2754L57.7148-43.8477C56.6895-40.6738 56.8359-36.9141 57.7637-34.668L50.8301-27.7344C44.4336-21.5332 43.8965-14.7949 48.9746-9.76562C54.0527-4.73633 60.6934-5.41992 66.9922-11.6211L76.6113-21.2891C83.0566-27.5879 83.7402-34.375 78.6621-39.4531C76.9043-41.1621 74.5117-42.334 71.7285-42.6758C72.5586-44.7754 74.6582-47.1191 76.416-48.3887C78.418-47.998 81.0059-46.4355 83.3008-44.043C91.4062-36.084 90.7227-25.9277 81.3965-16.6992L71.4844-6.88477C62.3047 2.24609 52.2949 2.92969 44.2871-5.0293Z"/>
  </g>
  <g id="Regular-L" transform="matrix(1 0 0 1 1374.97 1556)">
   <path d="M74.8535 28.418C109.668 28.418 138.477-0.390625 138.477-35.2051C138.477-69.9707 109.619-98.7793 74.8047-98.7793C40.0391-98.7793 11.2793-69.9707 11.2793-35.2051C11.2793-0.390625 40.0879 28.418 74.8535 28.418ZM103.906-65.625C111.816-57.7637 111.182-47.9004 102.246-38.916L90.0391-26.8555C91.0645-29.8828 91.0156-33.2031 90.1855-35.4492L97.8516-43.1152C104.297-49.3652 104.785-56.1523 99.5605-61.2305C94.4336-66.3574 87.7441-65.7227 81.4453-59.4727L71.1914-49.1211C64.6973-42.8223 64.0625-35.9863 69.1895-30.8594C71.0449-29.0039 73.4375-27.9297 76.5137-27.6367C75.6836-25.5371 73.6816-23.3887 72.0215-22.2168C69.9219-22.5586 67.2852-24.0723 64.8926-26.5625C56.9336-34.4238 57.666-44.3359 66.748-53.418L77.2461-63.8672C86.2305-72.8516 96.0449-73.4375 103.906-65.625ZM43.4082-5.0293C35.498-12.8906 36.1328-22.7051 45.1172-31.6895L57.3242-43.7988C56.25-40.7715 56.2988-37.4512 57.1289-35.2051L49.4629-27.5391C43.0664-21.2891 42.5781-14.502 47.7539-9.42383C52.8809-4.29688 59.6191-4.93164 65.8691-11.1816L76.123-21.4844C82.6172-27.832 83.3008-34.668 78.1738-39.7949C76.2695-41.6504 73.877-42.7246 70.8008-43.0176C71.6309-45.1172 73.6816-47.2656 75.293-48.3887C77.3926-48.0957 80.0293-46.582 82.4219-44.043C90.3809-36.1816 89.6484-26.3184 80.5664-17.2363L70.0684-6.78711C61.084 2.19727 51.2695 2.7832 43.4082-5.0293Z"/>
  </g>
  <g id="Light-L" transform="matrix(1 0 0 1 1079.18 1556)">
   <path d="M73.9258 27.4902C108.301 27.4902 136.621-0.830078 136.621-35.2051C136.621-69.5312 108.252-97.8516 73.9258-97.8516C39.5508-97.8516 11.2793-69.5312 11.2793-35.2051C11.2793-0.830078 39.5996 27.4902 73.9258 27.4902ZM102.393-65.1367C109.912-57.7148 109.375-48.291 101.025-39.9902L87.9883-27.002C89.0137-29.7363 89.0625-32.5195 88.4766-34.4238L97.5098-43.5059C103.76-49.5117 104.053-56.3477 98.7793-61.5234C93.6035-66.6992 86.8164-66.2598 80.8105-60.2051L69.1895-48.584C62.9883-42.5293 62.5-35.5957 67.7734-30.4688C70.0684-28.125 72.6074-27.002 75.8301-26.9043C75.1465-25.0488 73.4863-23.291 72.1191-22.3145C69.6289-22.6562 66.8945-24.1699 64.209-26.9043C56.6895-34.3262 57.2266-43.8477 65.625-52.1973L77.2949-63.7207C85.5957-72.0215 94.9219-72.5586 102.393-65.1367ZM42.9199-5.61523C35.4004-13.0371 35.9863-22.4609 44.2871-30.7617L57.3242-43.7988C56.2988-41.0156 56.25-38.2324 56.8359-36.3281L47.8027-27.2461C41.6504-21.2402 41.3086-14.4043 46.5332-9.22852C51.709-4.05273 58.4961-4.49219 64.5508-10.5469L76.123-22.168C82.373-28.2227 82.8613-35.1562 77.5879-40.2832C75.293-42.627 72.7051-43.75 69.4824-43.8477C70.166-45.7031 71.875-47.4609 73.1934-48.4375C75.6836-48.0957 78.418-46.582 81.1035-43.8477C88.6719-36.4258 88.0859-26.9531 79.6875-18.5547L68.0664-7.03125C59.7656 1.26953 50.4395 1.80664 42.9199-5.61523Z"/>
  </g>
  <g id="Thin-L" transform="matrix(1 0 0 1 783.693 1556)">
   <path d="M72.7051 26.2695C106.494 26.2695 134.18-1.41602 134.18-35.2051C134.18-68.9453 106.494-96.6309 72.7051-96.6309C38.9648-96.6309 11.2793-68.9453 11.2793-35.2051C11.2793-1.41602 38.9648 26.2695 72.7051 26.2695ZM100.391-64.4531C107.373-57.666 106.934-48.7305 99.4629-41.3574L85.3027-27.1973C86.377-29.541 86.4746-31.5918 86.2305-33.0566L97.1191-44.043C103.027-49.707 103.125-56.6406 97.7539-61.8652C92.5293-67.1387 85.6445-66.9922 79.9316-61.1328L66.5527-47.8516C60.6934-42.1387 60.4492-35.1074 65.8691-29.9316C68.7012-26.9531 71.5332-25.8301 74.9512-25.9766C74.4629-24.4141 73.2422-23.1445 72.2656-22.4609C69.2383-22.7539 66.4062-24.3164 63.2812-27.3438C56.2988-34.1797 56.6895-43.1641 64.1602-50.5859L77.2949-63.5254C84.668-70.9473 93.3594-71.3867 100.391-64.4531ZM42.2852-6.44531C35.3027-13.2324 35.7422-22.168 43.2129-29.541L57.4219-43.75C56.3477-41.3574 56.2012-39.3066 56.4941-37.8418L45.6055-26.8555C39.7461-21.1914 39.5996-14.2578 44.9707-9.0332C50.1953-3.75977 57.0801-3.90625 62.793-9.76562L76.1719-23.0469C82.0312-28.7598 82.2754-35.8398 76.8555-40.9668C74.0234-43.9453 71.1914-45.0684 67.7734-44.9707C68.2129-46.4844 69.4824-47.7539 70.459-48.4375C73.4375-48.1445 76.3184-46.582 79.4434-43.5547C86.4258-36.7188 86.0352-27.7344 78.5645-20.3125L65.4297-7.37305C58.0566 0.0488281 49.3652 0.488281 42.2852-6.44531Z"/>
  </g>
  <g id="Ultralight-L" transform="matrix(1 0 0 1 487.616 1556)">
   <path d="M72.1191 25.6348C105.566 25.6348 132.91-1.70898 132.91-35.2051C132.91-68.6523 105.566-95.9961 72.1191-95.9961C38.623-95.9961 11.2793-68.6523 11.2793-35.2051C11.2793-1.70898 38.623 25.6348 72.1191 25.6348ZM99.3652-64.1602C106.104-57.6172 105.713-48.9746 98.6816-42.041L83.9355-27.2949C84.9609-29.4434 85.1562-31.1035 85.1074-32.373L96.875-44.3359C102.686-49.8047 102.637-56.8359 97.2168-62.0605C91.9434-67.3828 85.0098-67.3828 79.4922-61.6211L65.1855-47.4609C59.5215-41.9434 59.4238-34.8145 64.8926-29.6875C68.0176-26.3672 70.9961-25.2441 74.4629-25.4883C74.1211-24.0723 73.0957-23.0957 72.3145-22.5098C69.043-22.8516 66.1133-24.3652 62.793-27.5879C56.1035-34.1309 56.3965-42.8223 63.3789-49.7559L77.2949-63.4766C84.2285-70.4102 92.5781-70.752 99.3652-64.1602ZM41.9922-6.83594C35.2539-13.3789 35.6445-22.0215 42.6758-28.9551L57.4219-43.7012C56.3965-41.5527 56.2012-39.8926 56.25-38.623L44.4824-26.6602C38.7695-21.1914 38.7207-14.1602 44.1406-8.93555C49.4141-3.56445 56.3477-3.61328 61.8652-9.32617L76.1719-23.4863C81.8359-29.0527 81.9824-36.1328 76.4648-41.3086C73.3398-44.5801 70.3613-45.752 66.8945-45.5078C67.2363-46.875 68.2617-47.9004 69.043-48.4863C72.3145-48.1445 75.2441-46.6309 78.5645-43.4082C85.2539-36.8652 84.9609-28.1738 77.9785-21.2402L64.0625-7.51953C57.1289-0.585938 48.7793-0.195312 41.9922-6.83594Z"/>
  </g>
  <g id="Black-M" transform="matrix(1 0 0 1 2870.97 1126)">
   <path d="M62.4023 18.5547C91.9922 18.5547 116.113-5.56641 116.113-35.1562C116.113-64.7461 91.9922-88.8184 62.4023-88.8184C32.8125-88.8184 8.74023-64.7461 8.74023-35.1562C8.74023-5.56641 32.8125 18.5547 62.4023 18.5547ZM84.082-58.0566C90.8203-51.3184 90.2344-42.627 82.4707-34.9121L75.8789-28.2715C76.6113-31.1523 76.0254-36.1816 74.9512-37.6465L77.2461-39.8438C81.9336-44.5312 82.5684-49.4141 78.9551-52.9785C75.3418-56.5918 70.6543-55.9082 65.7715-51.1719L61.1328-46.582C56.3477-41.8945 55.8105-37.1094 59.4727-33.4961C60.4004-32.5195 62.3535-31.1523 63.1836-30.6641C62.7441-29.1504 60.6445-26.416 58.7891-24.8535C57.5195-25.7324 55.7129-27.0996 54.3945-28.418C47.5098-34.9609 47.998-43.8965 55.9082-51.6113L61.0352-56.4453C68.7988-64.0137 77.2949-64.8438 84.082-58.0566ZM38.8184-12.207C32.0801-18.9453 32.666-27.6367 40.4297-35.3516L47.0215-41.9922C46.2891-39.1113 46.875-34.082 47.9492-32.6172L45.6543-30.4199C40.9668-25.7324 40.332-20.8496 43.9453-17.2852C47.5586-13.6719 52.2461-14.3555 57.1289-19.0918L61.7676-23.6816C66.5527-28.3691 67.0898-33.2031 63.4277-36.7676C62.5-37.7441 60.5469-39.1113 59.7168-39.5996C60.1562-41.1133 62.2559-43.8477 64.1113-45.4102C65.3809-44.5312 67.1875-43.1641 68.5059-41.8457C75.3906-35.3027 74.9023-26.3672 66.9922-18.6523L61.8652-13.8672C54.1016-6.25 45.6055-5.41992 38.8184-12.207Z"/>
  </g>
  <g id="Heavy-M" transform="matrix(1 0 0 1 2575.19 1126)">
   <path d="M61.5234 17.627C90.5273 17.627 114.258-6.10352 114.258-35.1562C114.258-64.1602 90.5273-87.8906 61.4746-87.8906C32.4707-87.8906 8.74023-64.1602 8.74023-35.1562C8.74023-6.10352 32.4707 17.627 61.5234 17.627ZM83.4473-58.3008C90.0879-51.6602 89.502-43.1641 81.8848-35.498L74.707-28.3691C75.4395-31.1523 75-35.6934 74.0234-37.2559L76.9531-40.1367C81.7383-44.873 82.373-49.8535 78.6621-53.5156C74.9512-57.1777 70.1172-56.543 65.2344-51.7578L60.0098-46.5332C55.127-41.748 54.541-36.8164 58.3008-33.1543C59.2773-32.1289 61.1816-30.9082 62.3535-30.4199C61.8652-28.9062 59.8145-26.3184 58.0566-24.9023C56.7871-25.6348 54.9316-26.9531 53.5156-28.418C46.7285-34.9121 47.2656-43.5547 55.0781-51.2207L60.7422-56.6895C68.457-64.209 76.8066-64.9414 83.4473-58.3008ZM37.6465-12.0605C31.0059-18.7012 31.5918-27.1973 39.2578-34.8145L46.4355-41.9922C45.6543-39.1602 46.0938-34.668 47.1191-33.0566L44.1406-30.1758C39.3555-25.4395 38.7695-20.459 42.4805-16.8457C46.1426-13.1348 50.9766-13.8184 55.8594-18.6035L61.084-23.7793C65.9668-28.6133 66.5527-33.4961 62.8418-37.207C61.8164-38.1836 59.9121-39.4531 58.7402-39.8926C59.2285-41.4551 61.2793-43.9941 63.0371-45.4102C64.3555-44.6777 66.1621-43.3594 67.5781-41.9434C74.3652-35.4492 73.8281-26.7578 66.0645-19.0918L60.3516-13.6719C52.6855-6.10352 44.3359-5.37109 37.6465-12.0605Z"/>
  </g>
  <g id="Bold-M" transform="matrix(1 0 0 1 2279.5 1126)">
   <path d="M60.498 16.5527C88.8672 16.5527 112.207-6.73828 112.207-35.1562C112.207-63.5742 88.8672-86.9141 60.4492-86.9141C32.0312-86.9141 8.74023-63.5742 8.74023-35.1562C8.74023-6.73828 32.0801 16.5527 60.498 16.5527ZM82.7637-58.5449C89.3066-52.002 88.7207-43.75 81.2012-36.2305L73.3887-28.4668C74.1699-31.1523 73.8281-35.1074 72.9004-36.8164L76.6113-40.4785C81.543-45.3125 82.0801-50.3906 78.3203-54.1016C74.5117-57.8613 69.5801-57.2266 64.6484-52.3926L58.7402-46.4844C53.7598-41.5527 53.1738-36.5723 56.9336-32.7637C58.0566-31.7383 59.8633-30.6152 61.4258-30.2246C60.8398-28.5645 58.9355-26.2695 57.2754-25C55.957-25.5371 54.0527-26.8066 52.5391-28.3691C45.8984-34.8145 46.4355-43.2129 54.1504-50.8301L60.4492-56.9336C68.0176-64.4043 76.2207-65.0879 82.7637-58.5449ZM36.377-11.8652C29.7852-18.4082 30.4199-26.6602 37.9395-34.1797L45.7031-41.9434C44.9219-39.2578 45.2637-35.3027 46.1914-33.5938L42.4805-29.9316C37.5977-25.0977 37.0117-20.0195 40.8203-16.3086C44.5801-12.5488 49.5605-13.1836 54.4434-18.0176L60.4004-23.9258C65.3809-28.8086 65.9668-33.8379 62.1582-37.6465C61.084-38.6719 59.2285-39.7949 57.666-40.1855C58.252-41.8457 60.2051-44.1406 61.8164-45.4102C63.1836-44.873 65.0879-43.5547 66.5527-42.041C73.2422-35.5957 72.6562-27.1973 64.9902-19.5801L58.6426-13.4766C51.0742-5.95703 42.9199-5.32227 36.377-11.8652Z"/>
  </g>
  <g id="Semibold-M" transform="matrix(1 0 0 1 1983.5 1126)">
   <path d="M59.7656 15.8691C87.7441 15.8691 110.791-7.22656 110.791-35.1562C110.791-63.1348 87.6953-86.2305 59.7656-86.2305C31.7871-86.2305 8.74023-63.1348 8.74023-35.1562C8.74023-7.22656 31.7871 15.8691 59.7656 15.8691ZM82.2754-58.7402C88.7695-52.2949 88.1836-44.1406 80.7129-36.6699L72.5098-28.5156C73.291-31.1523 73.0469-34.7168 72.168-36.5234L76.416-40.7227C81.3965-45.6055 81.9336-50.7324 78.0762-54.4922C74.2188-58.3496 69.1895-57.7148 64.2578-52.832L57.8613-46.3867C52.7832-41.4551 52.1973-36.377 56.0059-32.5195C57.1777-31.3965 58.9844-30.4199 60.791-30.0293C60.1562-28.3691 58.3008-26.2207 56.7383-25.0488C55.3711-25.4883 53.418-26.709 51.9043-28.3691C45.3125-34.7656 45.8984-42.9688 53.5156-50.5371L60.2539-57.1289C67.7246-64.5508 75.8301-65.1855 82.2754-58.7402ZM35.4492-11.7188C29.0039-18.1641 29.541-26.3184 37.0117-33.7891L45.2148-41.9434C44.4336-39.3066 44.6777-35.7422 45.5566-33.9355L41.3086-29.7363C36.377-24.8535 35.791-19.7266 39.6973-15.9668C43.5059-12.1094 48.5352-12.7441 53.5156-17.627L59.8633-24.0234C64.9414-29.0039 65.5273-34.082 61.7188-37.9395C60.5469-39.0625 58.7402-40.0391 56.9336-40.4297C57.5684-42.0898 59.4238-44.2383 60.9863-45.4102C62.3535-44.9707 64.3066-43.75 65.8203-42.0898C72.4121-35.6934 71.8262-27.4902 64.209-19.9219L57.4707-13.3301C50-5.85938 41.9434-5.27344 35.4492-11.7188Z"/>
  </g>
  <g id="Medium-M" transform="matrix(1 0 0 1 1687.3 1126)">
   <path d="M59.2285 15.332C86.9141 15.332 109.766-7.51953 109.766-35.2051C109.766-62.8418 86.8652-85.6934 59.1797-85.6934C31.543-85.6934 8.74023-62.8418 8.74023-35.2051C8.74023-7.51953 31.5918 15.332 59.2285 15.332ZM81.8848-58.8867C88.3301-52.4902 87.7441-44.4824 80.3711-37.0605L71.8262-28.5645C72.6074-31.1523 72.4609-34.4238 71.582-36.2793L76.2695-40.8691C81.25-45.8008 81.7871-50.9766 77.8809-54.834C73.9746-58.6914 68.8965-58.0566 63.916-53.1738L57.1777-46.3867C52.0996-41.4062 51.4648-36.2305 55.3223-32.3242C56.4941-31.2012 58.3008-30.2734 60.3027-29.9316C59.6191-28.2227 57.8125-26.1719 56.2988-25.0488C54.9316-25.4395 52.9785-26.6602 51.3672-28.3691C44.873-34.7168 45.459-42.8223 53.0273-50.293L60.1074-57.2754C67.5293-64.6973 75.4883-65.2344 81.8848-58.8867ZM34.8145-11.6211C28.3691-18.0176 28.9062-26.0254 36.3281-33.4473L44.873-41.8945C44.0918-39.3066 44.2383-36.0352 45.0684-34.1797L40.4297-29.5898C35.4492-24.707 34.9121-19.5312 38.8184-15.6738C42.7246-11.8164 47.8027-12.4512 52.7832-17.334L59.5215-24.1211C64.5996-29.1016 65.2344-34.2773 61.377-38.1836C60.1562-39.3066 58.3984-40.2344 56.3477-40.5762C57.0312-42.2852 58.8867-44.3359 60.3516-45.4102C61.7676-45.0684 63.7207-43.8477 65.332-42.1387C71.8262-35.7422 71.1914-27.6855 63.6719-20.2148L56.5918-13.1836C49.1699-5.81055 41.1621-5.22461 34.8145-11.6211Z"/>
  </g>
  <g id="Regular-M" transform="matrix(1 0 0 1 1391.3 1126)">
   <path d="M58.5449 14.5996C85.791 14.5996 108.35-7.95898 108.35-35.2051C108.35-62.4023 85.7422-85.0098 58.4961-85.0098C31.2988-85.0098 8.74023-62.4023 8.74023-35.2051C8.74023-7.95898 31.3477 14.5996 58.5449 14.5996ZM81.3965-59.082C87.793-52.7344 87.207-44.873 79.8828-37.5L70.9473-28.6621C71.7285-31.1523 71.6797-34.082 70.8496-35.9863L76.0254-41.1133C81.1035-46.0938 81.5918-51.3184 77.6367-55.2246C73.6816-59.1309 68.5059-58.5449 63.5254-53.6133L56.2988-46.3379C51.123-41.2598 50.5371-36.0352 54.4434-32.0312C55.6641-30.9082 57.4219-30.0781 59.7168-29.7363C58.9355-27.9785 57.1777-26.0742 55.7617-25.0977C54.3945-25.3418 52.3926-26.5625 50.7324-28.3203C44.2871-34.668 44.9219-42.5781 52.3926-50L59.8633-57.4707C67.2363-64.8438 75.0977-65.332 81.3965-59.082ZM33.9355-11.4746C27.5391-17.8223 28.125-25.6836 35.4004-33.0078L44.3848-41.8945C43.6035-39.3555 43.6523-36.4746 44.4824-34.5215L39.3066-29.4434C34.2285-24.4629 33.6914-19.2383 37.6953-15.332C41.6504-11.4258 46.8262-12.0117 51.8066-16.9434L59.0332-24.2188C64.1602-29.248 64.7949-34.5215 60.8887-38.4766C59.668-39.6484 57.9102-40.4785 55.6152-40.7715C56.3965-42.5293 58.1055-44.4336 59.5215-45.4102C60.9375-45.166 62.9395-43.9941 64.5996-42.1875C71.0449-35.8398 70.4102-27.9785 62.9395-20.5078L55.4199-13.0859C48.0957-5.71289 40.1855-5.22461 33.9355-11.4746Z"/>
  </g>
  <g id="Light-M" transform="matrix(1 0 0 1 1095.42 1126)">
   <path d="M57.7148 13.7695C84.5215 13.7695 106.689-8.34961 106.689-35.2051C106.689-62.0117 84.5215-84.1797 57.666-84.1797C30.8594-84.1797 8.74023-62.0117 8.74023-35.2051C8.74023-8.34961 30.9082 13.7695 57.7148 13.7695ZM80.0293-58.6426C86.0352-52.6855 85.5957-45.166 78.8574-38.4277L69.0918-28.7598C69.9219-31.0547 69.9219-33.4473 69.3359-35.0586L75.7324-41.4551C80.6641-46.2402 80.957-51.5137 76.9043-55.4688C72.9492-59.4727 67.7246-59.0332 62.9395-54.248L54.541-45.8496C49.5605-41.0156 49.1211-35.6934 53.125-31.6895C54.7363-30.127 56.6895-29.248 59.082-29.1016C58.4961-27.5391 57.0312-26.0254 55.8594-25.1953C54.1016-25.4395 52.0508-26.6113 50.0977-28.6133C44.043-34.5703 44.5312-42.0898 51.3672-48.9258L59.9121-57.373C66.6504-64.1113 74.0723-64.5508 80.0293-58.6426ZM33.4961-12.0117C27.4902-17.9688 27.9785-25.4395 34.7168-32.1777L44.4336-41.8457C43.6035-39.5996 43.6035-37.207 44.1895-35.5469L37.793-29.1504C32.9102-24.4141 32.5684-19.1406 36.6211-15.1855C40.625-11.1816 45.8496-11.6211 50.6348-16.3574L59.0332-24.8047C63.9648-29.6387 64.4043-34.9609 60.4004-38.916C58.7891-40.5273 56.8848-41.3574 54.4434-41.5527C55.0293-43.0664 56.4941-44.6289 57.666-45.459C59.4238-45.2148 61.5234-43.9941 63.4766-41.9922C69.4824-36.0352 68.9941-28.5156 62.1582-21.7285L53.6621-13.2812C46.9238-6.54297 39.4531-6.10352 33.4961-12.0117Z"/>
  </g>
  <g id="Thin-M" transform="matrix(1 0 0 1 799.806 1126)">
   <path d="M56.6406 12.6953C82.9102 12.6953 104.492-8.88672 104.492-35.2051C104.492-61.4746 82.9102-83.0566 56.5918-83.0566C30.3223-83.0566 8.74023-61.4746 8.74023-35.2051C8.74023-8.88672 30.3223 12.6953 56.6406 12.6953ZM78.2715-58.0566C83.7891-52.6367 83.3984-45.6055 77.4414-39.6484L66.6992-28.9551C67.5293-30.8594 67.5781-32.6172 67.334-33.8379L75.3418-41.9434C80.0293-46.3867 80.127-51.7578 75.9766-55.8105C71.9727-59.8633 66.6504-59.7168 62.1582-55.127L52.1484-45.166C47.5098-40.6738 47.3145-35.2051 51.4648-31.25C53.5645-29.0527 55.6641-28.2227 58.3008-28.2227C57.8613-27.002 56.8359-25.8789 55.957-25.293C53.7598-25.5371 51.5625-26.709 49.2676-29.0527C43.7012-34.4727 44.043-41.5039 50.0488-47.4609L59.9121-57.2266C65.8203-63.1348 72.7051-63.4766 78.2715-58.0566ZM32.9102-12.7441C27.3926-18.1641 27.7832-25.1953 33.7402-31.1035L44.4824-41.8457C43.6523-39.8926 43.6035-38.1836 43.8477-36.9141L35.8398-28.8086C31.2012-24.3652 31.0547-18.9941 35.2051-14.9902C39.209-10.8887 44.5312-11.084 49.0234-15.6738L59.0332-25.5859C63.6719-30.127 63.8672-35.5469 59.7168-39.5508C57.6172-41.6992 55.5176-42.5781 52.8809-42.5293C53.3203-43.7988 54.3457-44.873 55.2246-45.459C57.4219-45.2148 59.6191-44.043 61.9141-41.748C67.4805-36.3281 67.1387-29.248 61.1328-23.291L51.2695-13.5742C45.3613-7.61719 38.4766-7.27539 32.9102-12.7441Z"/>
  </g>
  <g id="Ultralight-M" transform="matrix(1 0 0 1 503.656 1126)">
   <path d="M56.0547 12.1094C82.0801 12.1094 103.369-9.17969 103.369-35.2051C103.369-61.2305 82.0801-82.5195 56.0547-82.5195C30.0293-82.5195 8.74023-61.2305 8.74023-35.2051C8.74023-9.17969 30.0293 12.1094 56.0547 12.1094ZM77.3438-57.7148C82.6172-52.5879 82.3242-45.8008 76.709-40.2832L65.4785-29.0527C66.2598-30.7617 66.4062-32.1777 66.3086-33.2031L75.1465-42.1875C79.6875-46.4844 79.6875-51.9043 75.4883-55.957C71.4355-60.1074 66.0645-60.0098 61.7188-55.5664L50.9277-44.8242C46.4844-40.4785 46.3379-35.0098 50.5859-31.0059C52.9297-28.5645 55.1758-27.6855 57.8613-27.832C57.5684-26.709 56.6895-25.8301 56.0547-25.3418C53.5645-25.5859 51.3184-26.8066 48.8281-29.248C43.5547-34.375 43.7988-41.2109 49.3652-46.7285L59.9121-57.1289C65.4297-62.6465 71.9727-62.9395 77.3438-57.7148ZM32.6172-13.0859C27.3438-18.2617 27.6855-25.0488 33.252-30.5176L44.4824-41.7969C43.7012-40.0879 43.5547-38.6719 43.7012-37.6465L34.8145-28.6621C30.3223-24.3652 30.2734-18.9453 34.4727-14.8926C38.5254-10.7422 43.8965-10.791 48.2422-15.2832L59.0332-26.0254C63.4766-30.3711 63.623-35.8398 59.375-39.8438C57.0312-42.2852 54.7852-43.1641 52.0996-43.0176C52.3926-44.1406 53.2715-44.9707 53.9551-45.459C56.3965-45.2148 58.6426-44.043 61.1328-41.6016C66.4062-36.4746 66.1621-29.6387 60.5957-24.1211L50.0977-13.7207C44.5801-8.20312 37.9883-7.91016 32.6172-13.0859Z"/>
  </g>
  <g id="Black-S" transform="matrix(1 0 0 1 2884.57 696)">
   <path d="M48.8281 6.83594C71.9727 6.83594 90.8203-12.0117 90.8203-35.1562C90.8203-58.3008 71.9727-77.1484 48.8281-77.1484C25.6836-77.1484 6.83594-58.3008 6.83594-35.1562C6.83594-12.0117 25.6836 6.83594 48.8281 6.83594ZM65.8691-53.125C71.1426-47.8516 70.6543-41.0645 64.5996-35.0098L59.375-29.7852C59.9609-32.0312 59.5215-35.9375 58.6914-37.1094L60.498-38.8672C64.209-42.5293 64.6973-46.3867 61.8652-49.1699C59.0332-52.002 55.3223-51.4648 51.5137-47.7539L47.8516-44.1406C44.0918-40.4297 43.6523-36.6699 46.5332-33.8379C47.2656-33.1055 48.7793-32.0312 49.4629-31.6406C49.1211-30.4688 47.4609-28.3203 45.9961-27.0996C45.0195-27.7832 43.6035-28.8574 42.5781-29.8828C37.1582-35.0098 37.5488-41.9922 43.75-48.0469L47.8027-51.8555C53.9062-57.8125 60.5469-58.4473 65.8691-53.125ZM30.3223-17.1875C25.0488-22.4609 25.5371-29.248 31.5918-35.3027L36.8164-40.5273C36.2305-38.2812 36.6699-34.375 37.5-33.2031L35.6934-31.4453C31.9824-27.7832 31.4941-23.9258 34.3262-21.1426C37.1582-18.3105 40.8691-18.8477 44.6777-22.5586L48.3398-26.1719C52.0996-29.8828 52.5391-33.6426 49.6582-36.4746C48.9258-37.207 47.4121-38.2812 46.7285-38.6719C47.0703-39.8438 48.7305-41.9922 50.1953-43.2129C51.1719-42.5293 52.5879-41.4551 53.6133-40.4297C59.0332-35.3027 58.6426-28.3203 52.4414-22.2656L48.3887-18.457C42.2852-12.5 35.6445-11.8652 30.3223-17.1875Z"/>
  </g>
  <g id="Heavy-S" transform="matrix(1 0 0 1 2588.47 696)">
   <path d="M48.2422 6.20117C70.9961 6.20117 89.5996-12.4023 89.5996-35.1562C89.5996-57.9102 70.9961-76.5625 48.1934-76.5625C25.4395-76.5625 6.83594-57.9102 6.83594-35.1562C6.83594-12.4023 25.4395 6.20117 48.2422 6.20117ZM65.5273-53.3691C70.752-48.0957 70.2637-41.4551 64.209-35.4004L58.6426-29.834C59.2773-32.0312 58.8867-35.6445 58.1055-36.9141L60.3027-39.0625C64.1113-42.8223 64.5508-46.7285 61.6699-49.5605C58.7891-52.4414 55.0293-51.9043 51.123-48.1445L47.168-44.1406C43.3105-40.332 42.8223-36.5234 45.752-33.5938C46.4844-32.9102 47.9492-31.9336 48.877-31.543C48.4375-30.3223 46.8262-28.2715 45.4102-27.1484C44.4336-27.6855 43.0176-28.7598 41.9434-29.834C36.5723-34.9609 37.0117-41.7969 43.2129-47.9004L47.5586-52.0508C53.6621-58.0566 60.2539-58.6426 65.5273-53.3691ZM29.4434-16.9922C24.2188-22.2168 24.707-28.9062 30.7617-34.9609L36.3281-40.5273C35.6934-38.2812 36.084-34.7168 36.8652-33.4473L34.668-31.2988C30.9082-27.5391 30.4199-23.6328 33.3008-20.8008C36.1816-17.9199 39.9902-18.457 43.8477-22.2168L47.8027-26.2207C51.6602-29.9805 52.1484-33.8379 49.2188-36.7188C48.4863-37.4512 47.0215-38.4277 46.0938-38.8184C46.5332-40.0391 48.1445-42.0898 49.5605-43.2129C50.5371-42.627 51.9531-41.6016 53.0273-40.5273C58.3984-35.4004 57.959-28.5645 51.7578-22.4609L47.4121-18.3105C41.3086-12.3047 34.7168-11.7188 29.4434-16.9922Z"/>
  </g>
  <g id="Bold-S" transform="matrix(1 0 0 1 2292.44 696)">
   <path d="M47.5586 5.51758C69.873 5.51758 88.2324-12.8418 88.2324-35.2051C88.2324-57.5195 69.873-75.8789 47.5098-75.8789C25.1953-75.8789 6.83594-57.5195 6.83594-35.2051C6.83594-12.8418 25.1953 5.51758 47.5586 5.51758ZM65.1367-53.6133C70.3613-48.3887 69.873-41.8457 63.8184-35.791L57.9102-29.8828C58.4961-32.0801 58.252-35.3027 57.4707-36.7188L60.1074-39.2578C63.9648-43.1152 64.4531-47.0703 61.4746-49.9512C58.5449-52.8809 54.6875-52.3438 50.7812-48.5352L46.3867-44.1406C42.4316-40.2832 41.9434-36.3281 44.873-33.3496C45.6543-32.666 47.0215-31.7871 48.2422-31.4453C47.7539-30.127 46.1426-28.2227 44.8242-27.1973C43.8477-27.6367 42.3828-28.6133 41.3086-29.7852C35.9863-34.9121 36.4258-41.6016 42.627-47.7051L47.3633-52.2949C53.418-58.3008 59.9121-58.8379 65.1367-53.6133ZM28.5156-16.748C23.291-21.9727 23.7793-28.5645 29.834-34.6191L35.791-40.4785C35.1562-38.3301 35.4492-35.1074 36.2305-33.6914L33.5938-31.1523C29.6875-27.2949 29.1992-23.3398 32.1777-20.4102C35.1074-17.4805 39.0137-18.0176 42.9199-21.875L47.2656-26.2207C51.2207-30.127 51.709-34.0332 48.7793-37.0117C48.0469-37.7441 46.6309-38.5742 45.4102-38.9648C45.8984-40.2832 47.5098-42.1875 48.877-43.2129C49.8047-42.7734 51.2695-41.7969 52.3926-40.625C57.7148-35.4492 57.2266-28.8086 51.0254-22.7051L46.3379-18.1152C40.2344-12.1094 33.7402-11.5723 28.5156-16.748Z"/>
  </g>
  <g id="Semibold-S" transform="matrix(1 0 0 1 1996.2 696)">
   <path d="M47.0703 5.0293C69.0918 5.0293 87.3047-13.1348 87.3047-35.2051C87.3047-57.2266 69.0918-75.4395 47.0215-75.4395C25-75.4395 6.83594-57.2266 6.83594-35.2051C6.83594-13.1348 25.0488 5.0293 47.0703 5.0293ZM64.8926-53.8086C70.0684-48.6328 69.5801-42.1387 63.5742-36.084L57.373-29.9316C57.959-32.0801 57.7637-35.0586 57.0312-36.5234L59.9609-39.4043C63.916-43.3105 64.3555-47.3145 61.377-50.2441C58.3496-53.2227 54.4434-52.6855 50.4883-48.8281L45.8984-44.1406C41.8457-40.1855 41.3086-36.2305 44.2871-33.2031C45.0684-32.4707 46.4355-31.7383 47.8027-31.3965C47.2656-29.9805 45.7031-28.1738 44.3848-27.1973C43.457-27.5391 41.9434-28.5156 40.8203-29.7363C35.5469-34.9121 36.0352-41.4551 42.2363-47.5586L47.168-52.4414C53.2715-58.4473 59.7168-58.9844 64.8926-53.8086ZM27.8809-16.6016C22.7051-21.8262 23.1934-28.2715 29.1992-34.3262L35.4004-40.4785C34.7656-38.3301 34.9609-35.4004 35.7422-33.8867L32.8125-31.0059C28.8574-27.0996 28.3691-23.0957 31.3965-20.166C34.375-17.1875 38.3301-17.7246 42.2852-21.582L46.875-26.2695C50.9277-30.2246 51.4648-34.1797 48.4863-37.207C47.7051-37.9395 46.3379-38.7207 44.9707-39.0625C45.5078-40.4297 47.0703-42.2363 48.3887-43.2129C49.3164-42.8711 50.8301-41.8945 51.9531-40.6738C57.2266-35.5469 56.6895-28.9551 50.5371-22.8516L45.5566-17.9688C39.502-11.9629 33.0566-11.4746 27.8809-16.6016Z"/>
  </g>
  <g id="Medium-S" transform="matrix(1 0 0 1 1699.83 696)">
   <path d="M46.7285 4.6875C68.5547 4.6875 86.6211-13.3789 86.6211-35.2051C86.6211-57.0312 68.5059-75.0977 46.6797-75.0977C24.8535-75.0977 6.83594-57.0312 6.83594-35.2051C6.83594-13.3789 24.9023 4.6875 46.7285 4.6875ZM64.6973-53.9551C69.873-48.7793 69.3848-42.334 63.3789-36.2793L56.9824-29.9805C57.5684-32.0801 57.4219-34.8633 56.6895-36.4258L59.8145-39.502C63.8672-43.457 64.3066-47.5098 61.2793-50.4883C58.252-53.4668 54.2969-52.9297 50.293-49.0234L45.459-44.1406C41.4062-40.1367 40.8691-36.1328 43.8477-33.0566C44.6289-32.373 45.9473-31.6406 47.4609-31.2988C46.875-29.8828 45.3613-28.1738 44.043-27.2461C43.1152-27.4902 41.6016-28.4668 40.4785-29.7363C35.2051-34.8633 35.7422-41.3574 41.9434-47.4609L47.0703-52.5391C53.125-58.5938 59.5703-59.082 64.6973-53.9551ZM27.3926-16.5039C22.2168-21.6797 22.7051-28.0762 28.7109-34.1797L35.1074-40.4785C34.4727-38.3301 34.6191-35.5957 35.4004-34.0332L32.2266-30.9082C28.2227-27.002 27.7832-22.9492 30.8105-19.9707C33.8379-16.9434 37.793-17.5293 41.7969-21.3867L46.582-26.2695C50.6836-30.2734 51.2207-34.2773 48.2422-37.3535C47.4609-38.0859 46.1426-38.8184 44.5801-39.1113C45.2148-40.5762 46.7285-42.2852 47.998-43.2129C48.9746-42.9199 50.4395-41.9922 51.6113-40.7227C56.8359-35.5469 56.2988-29.1016 50.1465-22.998L45.0195-17.8711C38.9648-11.8652 32.5195-11.377 27.3926-16.5039Z"/>
  </g>
  <g id="Regular-S" transform="matrix(1 0 0 1 1403.58 696)">
   <path d="M46.2402 4.19922C67.7734 4.19922 85.6934-13.6719 85.6934-35.2051C85.6934-56.7383 67.7246-74.6094 46.1914-74.6094C24.707-74.6094 6.83594-56.7383 6.83594-35.2051C6.83594-13.6719 24.7559 4.19922 46.2402 4.19922ZM64.4043-54.1504C69.5801-48.9746 69.0918-42.627 63.0859-36.5723L56.4453-29.9805C57.0801-32.1289 56.9824-34.6191 56.25-36.2793L59.7168-39.6484C63.7695-43.6523 64.2578-47.7539 61.1328-50.7812C58.0566-53.8086 54.0527-53.2715 50.0488-49.3164L44.9707-44.1406C40.8203-40.0879 40.2344-36.0352 43.2617-32.9102C44.043-32.2266 45.3125-31.543 47.0703-31.25C46.3867-29.7852 44.873-28.125 43.6523-27.2461C42.7246-27.4414 41.1621-28.3691 40.0391-29.6875C34.8145-34.8633 35.3516-41.2109 41.5039-47.3633L46.9238-52.7344C52.9785-58.7891 59.3262-59.1797 64.4043-54.1504ZM26.7578-16.3574C21.582-21.4844 22.0703-27.832 28.0762-33.8867L34.7656-40.4785C34.1309-38.3789 34.1797-35.8398 34.9609-34.1797L31.4941-30.8105C27.3926-26.8066 26.9531-22.7539 30.0293-19.7266C33.1055-16.6504 37.1094-17.2363 41.1621-21.1426L46.2402-26.3184C50.3906-30.3711 50.9277-34.4238 47.9492-37.5488C47.168-38.2812 45.8496-38.916 44.1406-39.209C44.7754-40.7227 46.2891-42.3828 47.5586-43.2129C48.4863-43.0176 50-42.0898 51.1719-40.7715C56.3965-35.6445 55.8105-29.2969 49.6582-23.1445L44.2871-17.7734C38.2324-11.7188 31.8359-11.2793 26.7578-16.3574Z"/>
  </g>
  <g id="Light-S" transform="matrix(1 0 0 1 1107.6 696)">
   <path d="M45.5078 3.4668C66.6992 3.4668 84.2285-14.0137 84.2285-35.2051C84.2285-56.3965 66.6504-73.877 45.5078-73.877C24.3164-73.877 6.83594-56.3965 6.83594-35.2051C6.83594-14.0137 24.3652 3.4668 45.5078 3.4668ZM63.2324-53.7109C68.0664-48.9258 67.6758-42.9199 62.1582-37.4023L54.834-30.127C55.4688-31.9824 55.4199-34.082 54.8828-35.4492L59.4238-39.9902C63.3301-43.7988 63.6719-47.9004 60.498-50.9766C57.4219-54.1016 53.3203-53.7109 49.5117-49.9023L43.4082-43.7012C39.4043-39.8438 39.0137-35.7422 42.0898-32.6172C43.2129-31.4941 44.6777-30.8594 46.5332-30.6641C45.9961-29.3945 44.7266-28.0273 43.7012-27.3438C42.4805-27.5391 40.8691-28.4668 39.4531-29.9316C34.5703-34.7656 35.0586-40.7715 40.625-46.3867L46.9238-52.6367C52.4414-58.1055 58.3984-58.4961 63.2324-53.7109ZM26.3672-16.8457C21.5332-21.6309 21.9238-27.6367 27.4414-33.1543L34.7656-40.4297C34.1309-38.5742 34.1797-36.5234 34.7168-35.1074L30.1758-30.5664C26.2695-26.7578 25.9277-22.6562 29.1016-19.5801C32.1777-16.4551 36.2793-16.8945 40.0879-20.6543L46.2402-26.8555C50.1953-30.7129 50.5859-34.8633 47.5098-37.9883C46.3867-39.0625 44.9219-39.6973 43.1152-39.8926C43.6035-41.1621 44.873-42.5293 45.8984-43.2129C47.1191-43.0176 48.7305-42.0898 50.1465-40.625C55.0293-35.791 54.5898-29.7852 48.9746-24.1699L42.7246-17.9688C37.207-12.4512 31.2012-12.0605 26.3672-16.8457Z"/>
  </g>
  <g id="Thin-S" transform="matrix(1 0 0 1 811.867 696)">
   <path d="M44.5801 2.53906C65.2832 2.53906 82.2754-14.502 82.2754-35.2051C82.2754-55.9082 65.2344-72.9492 44.5312-72.9492C23.8281-72.9492 6.83594-55.9082 6.83594-35.2051C6.83594-14.502 23.877 2.53906 44.5801 2.53906ZM61.6211-53.2227C66.0645-48.877 65.7227-43.2617 60.9375-38.4766L52.6855-30.2734C53.3203-31.8359 53.3691-33.3496 53.125-34.375L59.082-40.3809C62.793-43.9453 62.8906-48.1445 59.668-51.2695C56.543-54.4434 52.3926-54.248 48.8281-50.6348L41.3086-43.1641C37.5977-39.5508 37.4023-35.3027 40.625-32.1777C42.1387-30.6152 43.7988-29.9316 45.8008-29.9316C45.459-28.9062 44.5312-27.9297 43.7988-27.4414C42.1875-27.6367 40.4785-28.5645 38.7207-30.2734C34.2773-34.668 34.5703-40.2832 39.4531-45.1172L46.9238-52.4902C51.709-57.2754 57.1777-57.5684 61.6211-53.2227ZM25.8789-17.4805C21.4844-21.8262 21.7773-27.3926 26.6113-32.2266L34.8145-40.4297C34.1797-38.8184 34.1309-37.3535 34.4238-36.2793L28.418-30.2734C24.7559-26.7578 24.6094-22.5586 27.832-19.3848C30.957-16.2109 35.1074-16.4062 38.7207-20.0195L46.2402-27.5391C49.9023-31.1035 50.1465-35.3516 46.875-38.4766C45.3613-40.0879 43.7012-40.7227 41.6992-40.7715C42.0898-41.7969 42.9688-42.7246 43.7012-43.2617C45.3613-43.0664 47.0215-42.1387 48.7793-40.3809C53.2227-36.0352 52.9297-30.4199 48.0469-25.5859L40.625-18.2129C35.791-13.3789 30.3223-13.0859 25.8789-17.4805Z"/>
  </g>
  <g id="Ultralight-S" transform="matrix(1 0 0 1 515.644 696)">
   <path d="M44.043 2.00195C64.502 2.00195 81.2988-14.7461 81.2988-35.2051C81.2988-55.6641 64.502-72.4121 44.043-72.4121C23.584-72.4121 6.83594-55.6641 6.83594-35.2051C6.83594-14.7461 23.584 2.00195 44.043 2.00195ZM60.8398-52.9297C65.0391-48.8281 64.7461-43.457 60.3027-39.0137L51.6113-30.3711C52.2461-31.7383 52.3438-32.959 52.1973-33.8379L58.9355-40.625C62.5-44.043 62.5488-48.2422 59.2773-51.416C56.1035-54.6387 51.9043-54.5898 48.4375-51.0254L40.2344-42.8223C36.6699-39.4043 36.5723-35.1074 39.8438-31.9824C41.6016-30.127 43.3594-29.4434 45.4102-29.541C45.166-28.6133 44.4336-27.8809 43.8965-27.4902C41.9922-27.6855 40.2832-28.6133 38.3789-30.4688C34.1309-34.5703 34.375-39.9902 38.8672-44.4336L46.9238-52.3926C51.3184-56.8359 56.5918-57.0801 60.8398-52.9297ZM25.6348-17.7734C21.4355-21.9238 21.6797-27.2949 26.1719-31.6895L34.8633-40.3809C34.2285-38.9648 34.1309-37.793 34.2285-36.9141L27.5391-30.127C23.9746-26.709 23.9258-22.4609 27.1973-19.2871C30.3711-16.1133 34.5215-16.1621 37.9883-19.7266L46.2402-27.8809C49.7559-31.3477 49.9023-35.6445 46.582-38.7695C44.8242-40.625 43.1152-41.2598 41.0156-41.2109C41.2598-42.1387 41.9922-42.8223 42.5781-43.2617C44.4336-43.0664 46.1914-42.1387 48.0957-40.2832C52.2949-36.1328 52.0996-30.7129 47.6074-26.3184L39.5508-18.3105C35.1074-13.916 29.8828-13.623 25.6348-17.7734Z"/>
  </g>
 </g>
</svg>
