<?xml version="1.0" encoding="UTF-8"?>
<!--Generator: Apple Native CoreSVG 149-->
<!DOCTYPE svg
PUBLIC "-//W3C//DTD SVG 1.1//EN"
       "http://www.w3.org/Graphics/SVG/1.1/DTD/svg11.dtd">
<svg version="1.1" xmlns="http://www.w3.org/2000/svg" xmlns:xlink="http://www.w3.org/1999/xlink" width="3300" height="2200">
 <!--glyph: "uni10007F.medium", point size: 100.000000, font version: "Version 16.0d18e1", template writer version: "8"-->
 <g id="Notes">
  <rect height="2200" id="artboard" style="fill:white;opacity:1" width="3300" x="0" y="0"/>
  <line id="" style="fill:none;stroke:black;opacity:1;stroke-width:0.5;" x1="263" x2="3036" y1="292" y2="292"/>
  <text style="stroke:none;fill:black;font-family:-apple-system,&quot;SF Pro Display&quot;,&quot;SF Pro Text&quot;,Helvetica,sans-serif;font-weight:bold;" transform="matrix(1 0 0 1 263 322)">Weight/Scale Variations</text>
  <text style="stroke:none;fill:black;font-family:-apple-system,&quot;SF Pro Display&quot;,&quot;SF Pro Text&quot;,Helvetica,sans-serif;text-anchor:middle;" transform="matrix(1 0 0 1 559.711 322)">Ultralight</text>
  <text style="stroke:none;fill:black;font-family:-apple-system,&quot;SF Pro Display&quot;,&quot;SF Pro Text&quot;,Helvetica,sans-serif;text-anchor:middle;" transform="matrix(1 0 0 1 856.422 322)">Thin</text>
  <text style="stroke:none;fill:black;font-family:-apple-system,&quot;SF Pro Display&quot;,&quot;SF Pro Text&quot;,Helvetica,sans-serif;text-anchor:middle;" transform="matrix(1 0 0 1 1153.13 322)">Light</text>
  <text style="stroke:none;fill:black;font-family:-apple-system,&quot;SF Pro Display&quot;,&quot;SF Pro Text&quot;,Helvetica,sans-serif;text-anchor:middle;" transform="matrix(1 0 0 1 1449.84 322)">Regular</text>
  <text style="stroke:none;fill:black;font-family:-apple-system,&quot;SF Pro Display&quot;,&quot;SF Pro Text&quot;,Helvetica,sans-serif;text-anchor:middle;" transform="matrix(1 0 0 1 1746.56 322)">Medium</text>
  <text style="stroke:none;fill:black;font-family:-apple-system,&quot;SF Pro Display&quot;,&quot;SF Pro Text&quot;,Helvetica,sans-serif;text-anchor:middle;" transform="matrix(1 0 0 1 2043.27 322)">Semibold</text>
  <text style="stroke:none;fill:black;font-family:-apple-system,&quot;SF Pro Display&quot;,&quot;SF Pro Text&quot;,Helvetica,sans-serif;text-anchor:middle;" transform="matrix(1 0 0 1 2339.98 322)">Bold</text>
  <text style="stroke:none;fill:black;font-family:-apple-system,&quot;SF Pro Display&quot;,&quot;SF Pro Text&quot;,Helvetica,sans-serif;text-anchor:middle;" transform="matrix(1 0 0 1 2636.69 322)">Heavy</text>
  <text style="stroke:none;fill:black;font-family:-apple-system,&quot;SF Pro Display&quot;,&quot;SF Pro Text&quot;,Helvetica,sans-serif;text-anchor:middle;" transform="matrix(1 0 0 1 2933.4 322)">Black</text>
  <line id="" style="fill:none;stroke:black;opacity:1;stroke-width:0.5;" x1="263" x2="3036" y1="1903" y2="1903"/>
  <g id="" transform="matrix(1 0 0 1 263 1933)">
   <path d="M9.24805 0.830078C13.5547 0.830078 17.1387-2.74414 17.1387-7.05078C17.1387-11.3574 13.5449-14.9316 9.23828-14.9316C4.94141-14.9316 1.36719-11.3574 1.36719-7.05078C1.36719-2.74414 4.95117 0.830078 9.24805 0.830078ZM9.24805-0.654297C5.70312-0.654297 2.87109-3.49609 2.87109-7.05078C2.87109-10.6055 5.69336-13.4473 9.23828-13.4473C12.793-13.4473 15.6348-10.6055 15.6445-7.05078C15.6543-3.49609 12.8027-0.654297 9.24805-0.654297ZM6.39648-6.31836L8.50586-6.31836L8.50586-4.19922C8.50586-3.75977 8.79883-3.45703 9.22852-3.45703C9.67773-3.45703 9.9707-3.75977 9.9707-4.19922L9.9707-6.31836L12.0996-6.31836C12.5391-6.31836 12.8418-6.61133 12.8418-7.04102C12.8418-7.48047 12.5391-7.7832 12.0996-7.7832L9.9707-7.7832L9.9707-9.89258C9.9707-10.3418 9.67773-10.6445 9.22852-10.6445C8.79883-10.6445 8.50586-10.3418 8.50586-9.89258L8.50586-7.7832L6.39648-7.7832C5.94727-7.7832 5.64453-7.48047 5.64453-7.04102C5.64453-6.61133 5.94727-6.31836 6.39648-6.31836Z"/>
  </g>
  <g id="" transform="matrix(1 0 0 1 281.506 1933)">
   <path d="M11.709 2.91016C17.1582 2.91016 21.6699-1.61133 21.6699-7.05078C21.6699-12.5 17.1484-17.0117 11.6992-17.0117C6.25977-17.0117 1.74805-12.5 1.74805-7.05078C1.74805-1.61133 6.26953 2.91016 11.709 2.91016ZM11.709 1.25C7.09961 1.25 3.41797-2.44141 3.41797-7.05078C3.41797-11.6602 7.08984-15.3516 11.6992-15.3516C16.3086-15.3516 20-11.6602 20.0098-7.05078C20.0195-2.44141 16.3184 1.25 11.709 1.25ZM7.98828-6.23047L10.8789-6.23047L10.8789-3.32031C10.8789-2.83203 11.2109-2.5 11.6895-2.5C12.1777-2.5 12.5195-2.83203 12.5195-3.32031L12.5195-6.23047L15.4297-6.23047C15.918-6.23047 16.25-6.5625 16.25-7.04102C16.25-7.5293 15.918-7.87109 15.4297-7.87109L12.5195-7.87109L12.5195-10.7617C12.5195-11.2695 12.1777-11.6016 11.6895-11.6016C11.2109-11.6016 10.8789-11.2598 10.8789-10.7617L10.8789-7.87109L7.98828-7.87109C7.48047-7.87109 7.14844-7.5293 7.14844-7.04102C7.14844-6.5625 7.49023-6.23047 7.98828-6.23047Z"/>
  </g>
  <g id="" transform="matrix(1 0 0 1 304.924 1933)">
   <path d="M14.9707 5.66406C21.9336 5.66406 27.6953-0.0976562 27.6953-7.05078C27.6953-14.0137 21.9238-19.7754 14.9609-19.7754C8.00781-19.7754 2.25586-14.0137 2.25586-7.05078C2.25586-0.0976562 8.01758 5.66406 14.9707 5.66406ZM14.9707 3.84766C8.93555 3.84766 4.08203-1.01562 4.08203-7.05078C4.08203-13.0957 8.92578-17.9492 14.9609-17.9492C21.0059-17.9492 25.8594-13.0957 25.8691-7.05078C25.8789-1.01562 21.0156 3.84766 14.9707 3.84766ZM10.0586-6.14258L14.0625-6.14258L14.0625-2.12891C14.0625-1.5918 14.4336-1.2207 14.9512-1.2207C15.4883-1.2207 15.8594-1.5918 15.8594-2.12891L15.8594-6.14258L19.8828-6.14258C20.4102-6.14258 20.791-6.51367 20.791-7.03125C20.791-7.56836 20.4199-7.94922 19.8828-7.94922L15.8594-7.94922L15.8594-11.9531C15.8594-12.5098 15.4883-12.8809 14.9512-12.8809C14.4336-12.8809 14.0625-12.5 14.0625-11.9531L14.0625-7.94922L10.0586-7.94922C9.50195-7.94922 9.13086-7.56836 9.13086-7.03125C9.13086-6.51367 9.51172-6.14258 10.0586-6.14258Z"/>
  </g>
  <text style="stroke:none;fill:black;font-family:-apple-system,&quot;SF Pro Display&quot;,&quot;SF Pro Text&quot;,Helvetica,sans-serif;font-weight:bold;" transform="matrix(1 0 0 1 263 1953)">Design Variations</text>
  <text style="stroke:none;fill:black;font-family:-apple-system,&quot;SF Pro Display&quot;,&quot;SF Pro Text&quot;,Helvetica,sans-serif;" transform="matrix(1 0 0 1 263 1971)">Symbols are supported in up to nine weights and three scales.</text>
  <text style="stroke:none;fill:black;font-family:-apple-system,&quot;SF Pro Display&quot;,&quot;SF Pro Text&quot;,Helvetica,sans-serif;" transform="matrix(1 0 0 1 263 1989)">For optimal layout with text and other symbols, vertically align</text>
  <text style="stroke:none;fill:black;font-family:-apple-system,&quot;SF Pro Display&quot;,&quot;SF Pro Text&quot;,Helvetica,sans-serif;" transform="matrix(1 0 0 1 263 2007)">symbols with the adjacent text.</text>
  <line id="" style="fill:none;stroke:#00AEEF;stroke-width:0.5;opacity:1.0;" x1="776" x2="776" y1="1919" y2="1933"/>
  <g id="" transform="matrix(1 0 0 1 776 1933)">
   <path d="M3.31055 0.126953C3.82812 0.126953 4.08203-0.0683594 4.26758-0.605469L5.52734-4.0625L11.2891-4.0625L12.5488-0.605469C12.7344-0.0683594 12.9883 0.126953 13.4961 0.126953C14.0137 0.126953 14.3457-0.185547 14.3457-0.673828C14.3457-0.839844 14.3164-0.986328 14.2383-1.20117L9.6582-13.3887C9.43359-13.9941 9.0332-14.2871 8.4082-14.2871C7.80273-14.2871 7.39258-13.9941 7.17773-13.3984L2.59766-1.19141C2.51953-0.976562 2.49023-0.830078 2.49023-0.664062C2.49023-0.175781 2.80273 0.126953 3.31055 0.126953ZM6.00586-5.53711L8.37891-12.1094L8.42773-12.1094L10.8008-5.53711Z"/>
  </g>
  <line id="" style="fill:none;stroke:#00AEEF;stroke-width:0.5;opacity:1.0;" x1="792.836" x2="792.836" y1="1919" y2="1933"/>
  <text style="stroke:none;fill:black;font-family:-apple-system,&quot;SF Pro Display&quot;,&quot;SF Pro Text&quot;,Helvetica,sans-serif;font-weight:bold;" transform="matrix(1 0 0 1 776 1953)">Margins</text>
  <text style="stroke:none;fill:black;font-family:-apple-system,&quot;SF Pro Display&quot;,&quot;SF Pro Text&quot;,Helvetica,sans-serif;" transform="matrix(1 0 0 1 776 1971)">Leading and trailing margins on the left and right side of each symbol</text>
  <text style="stroke:none;fill:black;font-family:-apple-system,&quot;SF Pro Display&quot;,&quot;SF Pro Text&quot;,Helvetica,sans-serif;" transform="matrix(1 0 0 1 776 1989)">can be adjusted by modifying the x-location of the margin guidelines.</text>
  <text style="stroke:none;fill:black;font-family:-apple-system,&quot;SF Pro Display&quot;,&quot;SF Pro Text&quot;,Helvetica,sans-serif;" transform="matrix(1 0 0 1 776 2007)">Modifications are automatically applied proportionally to all</text>
  <text style="stroke:none;fill:black;font-family:-apple-system,&quot;SF Pro Display&quot;,&quot;SF Pro Text&quot;,Helvetica,sans-serif;" transform="matrix(1 0 0 1 776 2025)">scales and weights.</text>
  <g id="" transform="matrix(1 0 0 1 1289 1933)">
   <path d="M2.8418 1.86523L4.54102 3.57422C5.40039 4.44336 6.38672 4.38477 7.31445 3.35938L17.4902-7.85156C17.7539-7.76367 18.0273-7.7832 18.3398-7.8418L19.4043-8.03711L20.0684-7.36328L20.0293-6.80664C19.9902-6.30859 20.1172-5.92773 20.6055-5.44922L21.3672-4.70703C21.8457-4.22852 22.4609-4.19922 22.9297-4.66797L25.8398-7.58789C26.3086-8.05664 26.2891-8.65234 25.8105-9.13086L25.0391-9.89258C24.5605-10.3711 24.1895-10.5273 23.7109-10.4883L23.1348-10.4395L22.4902-11.0742L22.7344-12.1973C22.8613-12.7637 22.7051-13.2031 22.1191-13.7891L19.9219-15.9766C16.582-19.2969 12.1484-19.2188 9.25781-16.3281C8.83789-15.918 8.80859-15.3418 9.04297-14.9512C9.27734-14.5898 9.73633-14.3555 10.3809-14.5215C11.8457-14.8633 13.3691-14.9219 14.7949-13.9844L14.209-12.5293C14.0137-12.0508 13.9844-11.6504 14.1113-11.2891L3.04688-0.898438C2.06055 0.0195312 1.98242 0.996094 2.8418 1.86523ZM10.752-15.957C13.1836-17.7344 16.4746-17.4316 18.7012-15.2051L21.1328-12.793C21.3672-12.5586 21.4062-12.373 21.3379-12.0312L21.0156-10.5469L22.5195-9.0625L23.5059-9.12109C23.7598-9.13086 23.8379-9.11133 24.0332-8.91602L24.6094-8.33984L22.168-5.89844L21.5918-6.47461C21.3965-6.66992 21.3672-6.74805 21.377-7.01172L21.4453-7.98828L19.9512-9.47266L18.4277-9.21875C18.1055-9.15039 17.959-9.17969 17.7148-9.41406L15.7129-11.416C15.459-11.6504 15.4297-11.8164 15.5859-12.1875L16.4648-14.2773C14.9023-15.7324 12.8711-16.3574 10.8398-15.7617C10.6836-15.7227 10.625-15.8496 10.752-15.957ZM5.27344 2.30469L4.10156 1.14258C3.63281 0.683594 3.74023 0.341797 4.14062-0.0195312L14.9512-10.1953L16.416-8.71094L6.42578 2.27539C6.07422 2.67578 5.74219 2.77344 5.27344 2.30469Z"/>
  </g>
  <text style="stroke:none;fill:black;font-family:-apple-system,&quot;SF Pro Display&quot;,&quot;SF Pro Text&quot;,Helvetica,sans-serif;font-weight:bold;" transform="matrix(1 0 0 1 1289 1953)">Exporting</text>
  <text style="stroke:none;fill:black;font-family:-apple-system,&quot;SF Pro Display&quot;,&quot;SF Pro Text&quot;,Helvetica,sans-serif;" transform="matrix(1 0 0 1 1289 1971)">Symbols should be outlined when exporting to ensure the</text>
  <text style="stroke:none;fill:black;font-family:-apple-system,&quot;SF Pro Display&quot;,&quot;SF Pro Text&quot;,Helvetica,sans-serif;" transform="matrix(1 0 0 1 1289 1989)">design is preserved when submitting to Xcode.</text>
  <text id="template-version" style="stroke:none;fill:black;font-family:-apple-system,&quot;SF Pro Display&quot;,&quot;SF Pro Text&quot;,Helvetica,sans-serif;text-anchor:end;" transform="matrix(1 0 0 1 3036 1933)">Template v.2.0</text>
  <text style="stroke:none;fill:black;font-family:-apple-system,&quot;SF Pro Display&quot;,&quot;SF Pro Text&quot;,Helvetica,sans-serif;text-anchor:end;" transform="matrix(1 0 0 1 3036 1951)">Requires Xcode 12 or greater</text>
  <text style="stroke:none;fill:black;font-family:-apple-system,&quot;SF Pro Display&quot;,&quot;SF Pro Text&quot;,Helvetica,sans-serif;text-anchor:end;" transform="matrix(1 0 0 1 3036 1969)">Generated from arrow.up.arrow.down.circle.fill</text>
  <text style="stroke:none;fill:black;font-family:-apple-system,&quot;SF Pro Display&quot;,&quot;SF Pro Text&quot;,Helvetica,sans-serif;text-anchor:end;" transform="matrix(1 0 0 1 3036 1987)">Typeset at 100 points</text>
  <text style="stroke:none;fill:black;font-family:-apple-system,&quot;SF Pro Display&quot;,&quot;SF Pro Text&quot;,Helvetica,sans-serif;" transform="matrix(1 0 0 1 263 726)">Small</text>
  <text style="stroke:none;fill:black;font-family:-apple-system,&quot;SF Pro Display&quot;,&quot;SF Pro Text&quot;,Helvetica,sans-serif;" transform="matrix(1 0 0 1 263 1156)">Medium</text>
  <text style="stroke:none;fill:black;font-family:-apple-system,&quot;SF Pro Display&quot;,&quot;SF Pro Text&quot;,Helvetica,sans-serif;" transform="matrix(1 0 0 1 263 1586)">Large</text>
 </g>
 <g id="Guides">
  <g id="H-reference" style="fill:#27AAE1;stroke:none;" transform="matrix(1 0 0 1 339 696)">
   <path d="M0.976562 0L3.66211 0L12.9883-24.4629L45.752-24.4629L55.127 0L57.7637 0L30.6152-70.459L28.125-70.459ZM29.3457-67.1387L29.4434-67.1387L44.873-26.709L13.8672-26.709Z"/>
  </g>
  <line id="Baseline-S" style="fill:none;stroke:#27AAE1;opacity:1;stroke-width:0.5;" x1="263" x2="3036" y1="696" y2="696"/>
  <line id="Capline-S" style="fill:none;stroke:#27AAE1;opacity:1;stroke-width:0.5;" x1="263" x2="3036" y1="625.541" y2="625.541"/>
  <g id="H-reference" style="fill:#27AAE1;stroke:none;" transform="matrix(1 0 0 1 339 1126)">
   <path d="M0.976562 0L3.66211 0L12.9883-24.4629L45.752-24.4629L55.127 0L57.7637 0L30.6152-70.459L28.125-70.459ZM29.3457-67.1387L29.4434-67.1387L44.873-26.709L13.8672-26.709Z"/>
  </g>
  <line id="Baseline-M" style="fill:none;stroke:#27AAE1;opacity:1;stroke-width:0.5;" x1="263" x2="3036" y1="1126" y2="1126"/>
  <line id="Capline-M" style="fill:none;stroke:#27AAE1;opacity:1;stroke-width:0.5;" x1="263" x2="3036" y1="1055.54" y2="1055.54"/>
  <g id="H-reference" style="fill:#27AAE1;stroke:none;" transform="matrix(1 0 0 1 339 1556)">
   <path d="M0.976562 0L3.66211 0L12.9883-24.4629L45.752-24.4629L55.127 0L57.7637 0L30.6152-70.459L28.125-70.459ZM29.3457-67.1387L29.4434-67.1387L44.873-26.709L13.8672-26.709Z"/>
  </g>
  <line id="Baseline-L" style="fill:none;stroke:#27AAE1;opacity:1;stroke-width:0.5;" x1="263" x2="3036" y1="1556" y2="1556"/>
  <line id="Capline-L" style="fill:none;stroke:#27AAE1;opacity:1;stroke-width:0.5;" x1="263" x2="3036" y1="1485.54" y2="1485.54"/>
  <line id="left-margin" style="fill:none;stroke:#00AEEF;stroke-width:0.5;opacity:1.0;" x1="1391.3" x2="1391.3" y1="1030.79" y2="1150.12"/>
  <line id="right-margin" style="fill:none;stroke:#00AEEF;stroke-width:0.5;opacity:1.0;" x1="1508.39" x2="1508.39" y1="1030.79" y2="1150.12"/>
 </g>
 <g id="Symbols">
  <g id="Black-L" transform="matrix(1 0 0 1 2854.05 1556)">
   <path d="M79.3457 32.8613C116.748 32.8613 147.412 2.19727 147.412-35.2051C147.412-72.6074 116.748-103.271 79.2969-103.271C41.8945-103.271 11.2793-72.6074 11.2793-35.2051C11.2793 2.19727 41.9434 32.8613 79.3457 32.8613ZM102.295-5.0293C100-2.68555 96.3379-2.73438 94.0918-5.0293L78.6621-21.0449C77.6367-22.0703 76.9531-23.4863 76.9531-24.9023C76.9531-28.125 79.1992-30.3711 82.373-30.3711C83.8867-30.3711 85.2539-29.8828 86.2305-28.7598L92.334-22.4609L92.6758-21.9727L92.627-25.4395L92.627-61.8652C92.627-64.9414 95.0195-67.334 98.1934-67.334C101.27-67.334 103.711-64.9414 103.711-61.8652L103.711-22.0215L104.102-22.4609L110.156-28.7598C111.133-29.834 112.5-30.3711 113.916-30.3711C117.139-30.3711 119.385-28.125 119.385-24.9023C119.385-23.4863 118.75-22.0703 117.773-21.0449ZM56.3477-65.4785C58.6426-67.9688 62.2559-67.8223 64.502-65.4785L79.9316-49.5117C80.957-48.4863 81.6895-47.0703 81.6895-45.6055C81.6895-42.4316 79.3945-40.1855 76.2207-40.1855C74.7559-40.1855 73.3887-40.6738 72.3633-41.748L66.3086-48.0957L65.918-48.584L65.9668-45.0684L65.9668-8.69141C65.9668-5.61523 63.6719-3.22266 60.4492-3.22266C57.3242-3.22266 54.8828-5.61523 54.8828-8.69141L54.8828-45.0684L54.9316-48.584L54.541-48.0957L48.4863-41.748C47.4609-40.6738 46.1426-40.1855 44.6777-40.1855C41.5039-40.1855 39.209-42.4316 39.209-45.6055C39.209-47.0215 39.8926-48.4375 40.8691-49.5117Z"/>
  </g>
  <g id="Heavy-L" transform="matrix(1 0 0 1 2558.39 1556)">
   <path d="M78.2715 31.7871C115.088 31.7871 145.312 1.5625 145.312-35.2051C145.312-72.0215 115.039-102.246 78.2715-102.246C41.4551-102.246 11.2793-72.0215 11.2793-35.2051C11.2793 1.5625 41.5039 31.7871 78.2715 31.7871ZM101.123-4.93164C99.0234-2.7832 95.6543-2.83203 93.6035-4.93164L77.9297-21.0938C77.002-22.0703 76.3672-23.3887 76.3672-24.707C76.3672-27.6367 78.418-29.7363 81.3477-29.7363C82.7148-29.7363 83.9844-29.248 84.9121-28.2715L91.2598-21.6797L92.334-20.5078L92.2363-24.0234L92.2363-62.207C92.2363-65.0391 94.4336-67.2363 97.3633-67.2363C100.244-67.2363 102.441-65.0391 102.441-62.207L102.441-20.5078L103.467-21.6797L109.814-28.2715C110.742-29.248 111.963-29.7363 113.33-29.7363C116.309-29.7363 118.359-27.6367 118.359-24.707C118.359-23.3887 117.725-22.0703 116.846-21.0938ZM55.3711-65.5762C57.5195-67.8223 60.791-67.6758 62.8418-65.5762L78.5645-49.4141C79.4922-48.4863 80.1758-47.1191 80.1758-45.8008C80.1758-42.8711 78.0273-40.7715 75.1465-40.7715C73.7793-40.7715 72.5098-41.2598 71.582-42.2363L65.2344-48.877L64.1602-50.0488L64.2578-46.4844L64.2578-8.30078C64.2578-5.46875 62.1094-3.27148 59.1309-3.27148C56.2988-3.27148 54.0527-5.46875 54.0527-8.30078L54.0527-46.4844L54.1016-50.0488L53.0273-48.877L46.6797-42.2852C45.752-41.2598 44.5312-40.7715 43.1641-40.7715C40.2344-40.7715 38.1348-42.8711 38.1348-45.8008C38.1348-47.0703 38.7695-48.4375 39.6484-49.4141Z"/>
  </g>
  <g id="Bold-L" transform="matrix(1 0 0 1 2262.88 1556)">
   <path d="M77.0996 30.5664C113.232 30.5664 142.92 0.878906 142.92-35.2539C142.92-71.3379 113.184-101.074 77.0508-101.074C40.9668-101.074 11.2793-71.3379 11.2793-35.2539C11.2793 0.878906 41.0156 30.5664 77.0996 30.5664ZM99.8535-4.83398C97.9492-2.92969 94.873-2.97852 93.0664-4.83398L77.0996-21.1914C76.2207-22.1191 75.7324-23.291 75.7324-24.4629C75.7324-27.1484 77.5391-29.0039 80.1758-29.0039C81.4453-29.0039 82.6172-28.5645 83.4473-27.6855L90.0879-20.8008L91.9434-18.8477L91.8457-22.4121L91.8457-62.5488C91.8457-65.1367 93.7988-67.1387 96.4355-67.1387C99.0234-67.1387 101.025-65.1855 101.025-62.5488L101.025-22.4121L100.977-18.8477L102.783-20.8008L109.473-27.6855C110.303-28.5156 111.426-29.0039 112.646-29.0039C115.332-29.0039 117.188-27.0996 117.188-24.4629C117.188-23.291 116.602-22.0703 115.82-21.1914ZM54.2969-65.625C56.25-67.6758 59.1797-67.5293 61.0352-65.625L77.002-49.2676C77.832-48.4375 78.4668-47.2168 78.4668-45.9961C78.4668-43.3594 76.5137-41.4551 73.9258-41.4551C72.7051-41.4551 71.5332-41.8945 70.6543-42.7734L64.0137-49.707L62.207-51.709L62.3047-48.0957L62.3047-7.91016C62.3047-5.37109 60.3516-3.36914 57.666-3.36914C55.0781-3.36914 53.0762-5.32227 53.0762-7.91016L53.0762-48.0469L53.125-51.709L51.3184-49.707L44.6777-42.8711C43.7988-41.9434 42.6758-41.4551 41.4551-41.4551C38.8184-41.4551 36.9141-43.4082 36.9141-45.9961C36.9141-47.168 37.5-48.3887 38.3301-49.2676Z"/>
  </g>
  <g id="Semibold-L" transform="matrix(1 0 0 1 1966.97 1556)">
   <path d="M76.2695 29.7363C111.914 29.7363 141.309 0.390625 141.309-35.2539C141.309-70.8984 111.865-100.244 76.2695-100.244C40.625-100.244 11.2793-70.8984 11.2793-35.2539C11.2793 0.390625 40.6738 29.7363 76.2695 29.7363ZM98.9746-4.78516C97.2168-3.02734 94.3359-3.07617 92.6758-4.78516L76.5137-21.2402C75.7324-22.1191 75.2441-23.2422 75.2441-24.3164C75.2441-26.8066 76.9531-28.5156 79.3945-28.5156C80.5664-28.5156 81.6406-28.125 82.4219-27.2461L89.3066-20.2148L91.6504-17.6758L91.5039-21.2891L91.5039-62.8418C91.5039-65.2344 93.3594-67.041 95.8008-67.041C98.1934-67.041 100.049-65.2344 100.049-62.8418L100.049-21.3379L100-17.7246L102.344-20.2148L109.229-27.2461C110.01-28.0762 111.035-28.5156 112.207-28.5156C114.648-28.5156 116.406-26.7578 116.406-24.3164C116.406-23.1934 115.869-22.0703 115.088-21.2402ZM53.5645-65.6738C55.3711-67.5293 58.0566-67.3828 59.8145-65.6738L75.9277-49.2188C76.709-48.3887 77.2461-47.2656 77.2461-46.1426C77.2461-43.7012 75.4883-41.9434 73.0957-41.9434C71.9238-41.9434 70.8496-42.3828 70.0684-43.1641L63.1836-50.293L60.8398-52.832L60.9863-49.1699L60.9863-7.61719C60.9863-5.27344 59.1797-3.4668 56.6895-3.4668C54.2969-3.4668 52.3926-5.27344 52.3926-7.61719L52.3926-49.1211L52.4902-52.832L50.1465-50.293L43.2617-43.2617C42.4805-42.3828 41.4062-41.9434 40.2832-41.9434C37.8418-41.9434 36.084-43.75 36.084-46.1426C36.084-47.2168 36.6211-48.3398 37.4023-49.2188Z"/>
  </g>
  <g id="Medium-L" transform="matrix(1 0 0 1 1670.87 1556)">
   <path d="M75.6836 29.1504C110.938 29.1504 140.088 0 140.088-35.2539C140.088-70.5078 110.889-99.6582 75.6348-99.6582C40.3809-99.6582 11.2793-70.5078 11.2793-35.2539C11.2793 0 40.3809 29.1504 75.6836 29.1504ZM98.291-4.73633C96.6797-3.125 93.9453-3.125 92.3828-4.73633L76.0742-21.2891C75.3418-22.1191 74.9023-23.1934 74.9023-24.2188C74.9023-26.5137 76.4648-28.125 78.8086-28.125C79.8828-28.125 80.9082-27.7832 81.6406-26.9531L88.6719-19.7754L91.4551-16.7969L91.3086-20.4102L91.3086-63.0371C91.3086-65.2832 93.0176-66.9922 95.3125-66.9922C97.6074-66.9922 99.3164-65.2832 99.3164-63.0371L99.3164-20.459L99.2188-16.8457L101.953-19.7754L109.033-26.9531C109.766-27.6855 110.791-28.125 111.816-28.125C114.16-28.125 115.82-26.5137 115.82-24.2188C115.82-23.1445 115.283-22.0703 114.551-21.2891ZM52.9785-65.7227C54.6875-67.4316 57.2266-67.334 58.8379-65.7227L75.0977-49.1699C75.8789-48.3887 76.3672-47.3145 76.3672-46.2402C76.3672-43.9453 74.707-42.2852 72.4609-42.2852C71.3867-42.2852 70.3613-42.7246 69.5801-43.457L62.5488-50.7324L59.8145-53.6621L59.9609-50L59.9609-7.42188C59.9609-5.22461 58.252-3.51562 55.9082-3.51562C53.6621-3.51562 51.9043-5.17578 51.9043-7.42188L51.9043-49.9512L52.002-53.6621L49.2676-50.7324L42.2363-43.5547C41.4551-42.7734 40.4297-42.2852 39.4043-42.2852C37.1094-42.2852 35.4492-43.9941 35.4492-46.2402C35.4492-47.2168 35.9863-48.291 36.6699-49.1699Z"/>
  </g>
  <g id="Regular-L" transform="matrix(1 0 0 1 1374.97 1556)">
   <path d="M74.8535 28.3203C109.668 28.3203 138.477-0.488281 138.477-35.2539C138.477-70.0684 109.619-98.877 74.8047-98.877C40.0391-98.877 11.2793-70.0684 11.2793-35.2539C11.2793-0.488281 40.0879 28.3203 74.8535 28.3203ZM97.4609-4.63867C95.9473-3.22266 93.4082-3.22266 91.9922-4.63867L75.5371-21.3379C74.8047-22.168 74.4629-23.0957 74.4629-24.0723C74.4629-26.1719 75.8789-27.6367 77.9785-27.6367C79.0039-27.6367 79.9316-27.2949 80.6641-26.5625L87.8906-19.1895L91.1621-15.6738L91.0156-19.3359L91.0156-63.2812C91.0156-65.332 92.5781-66.8945 94.6777-66.8945C96.7773-66.8945 98.3887-65.3809 98.3887-63.2812L98.3887-19.3848L98.2422-15.7227L101.514-19.1895L108.789-26.5625C109.473-27.1973 110.4-27.6367 111.377-27.6367C113.525-27.6367 115.039-26.123 115.039-24.0723C115.039-23.0957 114.502-22.1191 113.818-21.3379ZM52.2461-65.7715C53.8086-67.334 56.1035-67.2363 57.6172-65.7715L74.0723-49.0723C74.7559-48.3887 75.1953-47.3633 75.1953-46.3867C75.1953-44.2871 73.6816-42.7734 71.6309-42.7734C70.6543-42.7734 69.6777-43.1641 68.9941-43.8477L61.7188-51.3184L58.4473-54.7852L58.6426-51.0742L58.6426-7.12891C58.6426-5.12695 57.0801-3.56445 54.9316-3.56445C52.832-3.56445 51.2695-5.07812 51.2695-7.12891L51.2695-51.0254L51.3672-54.7852L48.0957-51.3184L40.8691-43.9453C40.1855-43.2129 39.209-42.7734 38.2812-42.7734C36.1816-42.7734 34.6191-44.3359 34.6191-46.3867C34.6191-47.2656 35.1074-48.291 35.7422-49.0723Z"/>
  </g>
  <g id="Light-L" transform="matrix(1 0 0 1 1079.18 1556)">
   <path d="M73.9258 27.3926C108.301 27.3926 136.621-0.927734 136.621-35.2539C136.621-69.6289 108.252-97.9492 73.9258-97.9492C39.5508-97.9492 11.2793-69.6289 11.2793-35.2539C11.2793-0.927734 39.5996 27.3926 73.9258 27.3926ZM52.2461-66.0645C53.4668-67.2852 55.2734-67.1875 56.4453-66.0645L73.6328-48.8281C74.2188-48.2422 74.5117-47.4609 74.5117-46.6309C74.5117-45.0195 73.291-43.7988 71.7285-43.7988C70.9473-43.7988 70.1172-44.1406 69.5312-44.7266L61.5234-52.8809L57.1289-57.4219L57.2754-52.9297L57.2754-6.44531C57.2754-4.83398 56.1035-3.61328 54.3945-3.61328C52.7832-3.61328 51.4648-4.78516 51.4648-6.44531L51.4648-52.8809L51.6113-57.4219L47.2168-52.8809L39.1602-44.7754C38.5742-44.1406 37.793-43.7988 37.0605-43.7988C35.4492-43.7988 34.1797-45.0195 34.1797-46.6309C34.1797-47.4121 34.5703-48.1445 35.1074-48.8281ZM95.6055-4.44336C94.4336-3.32031 92.4805-3.32031 91.3086-4.44336L74.1699-21.6797C73.584-22.3145 73.291-23.0469 73.291-23.877C73.291-25.5371 74.4629-26.709 76.123-26.709C76.9531-26.709 77.6855-26.416 78.2715-25.8301L86.3281-17.6758L90.6738-13.0859L90.5273-17.5781L90.5273-64.0625C90.5273-65.6738 91.748-66.9434 93.4082-66.9434C95.0684-66.9434 96.3379-65.7227 96.3379-64.0625L96.3379-17.627L96.2402-13.1348L100.586-17.6758L108.643-25.8301C109.229-26.3672 110.01-26.709 110.791-26.709C112.402-26.709 113.623-25.4883 113.623-23.877C113.623-23.0957 113.281-22.3145 112.646-21.6797Z"/>
  </g>
  <g id="Thin-L" transform="matrix(1 0 0 1 783.693 1556)">
   <path d="M72.7051 26.1719C106.494 26.1719 134.18-1.51367 134.18-35.2539C134.18-69.043 106.494-96.7285 72.7051-96.7285C38.9648-96.7285 11.2793-69.043 11.2793-35.2539C11.2793-1.51367 38.9648 26.1719 72.7051 26.1719ZM52.2949-66.4551C53.0273-67.2363 54.1992-67.1387 54.9316-66.4551L73.0469-48.4863C73.4863-48.0469 73.584-47.6074 73.584-46.9238C73.584-45.9473 72.7539-45.1172 71.8262-45.1172C71.3379-45.1172 70.7031-45.4102 70.2637-45.8496L61.2305-54.9316L55.3223-60.8887L55.5176-55.3223L55.5176-5.51758C55.5176-4.49219 54.7363-3.66211 53.6621-3.66211C52.6367-3.66211 51.7578-4.39453 51.7578-5.51758L51.7578-55.2734L51.9043-60.8887L45.9961-54.9316L36.9629-45.8496C36.5234-45.4102 35.8887-45.1172 35.4004-45.1172C34.4727-45.1172 33.6426-45.9473 33.6426-46.9238C33.6426-47.5586 33.8379-47.998 34.2773-48.4863ZM93.1641-4.15039C92.3828-3.4668 91.2109-3.4668 90.4785-4.15039L72.3633-22.1191C71.9238-22.5586 71.8262-22.998 71.8262-23.6816C71.8262-24.707 72.5586-25.4883 73.6328-25.4883C74.1699-25.4883 74.707-25.293 75.1465-24.8535L84.2285-15.6738L90.0879-9.7168L89.9414-15.2832L89.9414-65.0879C89.9414-66.1133 90.6738-66.9434 91.748-66.9434C92.7734-66.9434 93.7012-66.2109 93.7012-65.0879L93.7012-15.2832L93.5547-9.7168L99.4141-15.6738L108.447-24.8535C108.887-25.1953 109.424-25.4883 110.01-25.4883C110.986-25.4883 111.816-24.6582 111.816-23.6816C111.816-23.0469 111.572-22.5586 111.133-22.1191Z"/>
  </g>
  <g id="Ultralight-L" transform="matrix(1 0 0 1 487.616 1556)">
   <path d="M72.1191 25.5371C105.566 25.5371 132.91-1.80664 132.91-35.2539C132.91-68.75 105.566-96.0938 72.1191-96.0938C38.623-96.0938 11.2793-68.75 11.2793-35.2539C11.2793-1.80664 38.623 25.5371 72.1191 25.5371ZM52.2949-66.6504C52.832-67.1875 53.6133-67.0898 54.1504-66.6504L72.7539-48.291C73.0957-47.9492 73.1445-47.7051 73.1445-47.0703C73.1445-46.4355 72.5098-45.8008 71.875-45.8008C71.5332-45.8008 70.9961-46.0449 70.6543-46.3867L61.084-55.957L54.4434-62.6465L54.5898-56.543L54.5898-5.0293C54.5898-4.29688 54.0527-3.66211 53.3203-3.66211C52.5879-3.66211 51.8555-4.19922 51.8555-5.0293L51.8555-56.543L52.0508-62.6465L45.4102-55.957L35.791-46.3867C35.4492-46.0449 34.9121-45.8008 34.6191-45.8008C33.9355-45.8008 33.3496-46.4355 33.3496-47.0703C33.3496-47.6074 33.4473-47.9492 33.8379-48.291ZM91.8945-4.00391C91.3574-3.56445 90.5762-3.56445 90.0391-4.00391L71.4844-22.3633C71.0938-22.7051 71.0449-22.9492 71.0449-23.5352C71.0449-24.2676 71.582-24.8047 72.3633-24.8047C72.7539-24.8047 73.1934-24.707 73.5352-24.3164L83.1543-14.6973L89.7949-7.95898L89.5996-14.1113L89.5996-65.625C89.5996-66.3574 90.1367-66.9434 90.8691-66.9434C91.6016-66.9434 92.334-66.4062 92.334-65.625L92.334-14.1113L92.1387-7.95898L98.7793-14.6973L108.398-24.3164C108.74-24.6094 109.18-24.8047 109.57-24.8047C110.254-24.8047 110.84-24.2188 110.84-23.5352C110.84-23.0469 110.742-22.7051 110.4-22.3633Z"/>
  </g>
  <g id="Black-M" transform="matrix(1 0 0 1 2870.97 1126)">
   <path d="M62.4023 18.457C91.9922 18.457 116.113-5.61523 116.113-35.2051C116.113-64.7949 91.9922-88.8672 62.4023-88.8672C32.8125-88.8672 8.74023-64.7949 8.74023-35.2051C8.74023-5.61523 32.8125 18.457 62.4023 18.457ZM79.834-11.8164C77.9785-9.86328 75.0977-9.96094 73.291-11.8164L61.2305-24.3164C60.4492-25.0977 59.8633-26.2207 59.8633-27.4414C59.8633-29.9805 61.6699-31.7871 64.2578-31.7871C65.4297-31.7871 66.5527-31.4453 67.3828-30.5664L72.1191-25.5371L72.0703-25.5859L72.0703-55.8105C72.0703-58.3008 73.9746-60.2539 76.5137-60.2539C79.0039-60.2539 81.0059-58.3008 81.0059-55.8105L81.0059-25.5371L85.7422-30.5664C86.5723-31.4453 87.5977-31.7871 88.8184-31.7871C91.3574-31.7871 93.1641-29.9805 93.1641-27.4414C93.1641-26.2207 92.6758-25.0977 91.9434-24.3164ZM45.0195-58.7402C46.8262-60.7422 49.7559-60.6445 51.5625-58.7402L63.5742-46.2891C64.4043-45.459 65.0391-44.3359 65.0391-43.1641C65.0391-40.625 63.1836-38.7695 60.5957-38.7695C59.4238-38.7695 58.3008-39.1602 57.4707-40.0391L52.7344-45.0195L52.7344-14.7461C52.7344-12.2559 50.8789-10.3027 48.291-10.3027C45.8008-10.3027 43.7988-12.2559 43.7988-14.7461L43.7988-45.0195L43.8477-45.0195L39.1113-40.0391C38.2812-39.1602 37.207-38.7695 36.0352-38.7695C33.4473-38.7695 31.6406-40.625 31.6406-43.1641C31.6406-44.3359 32.1289-45.459 32.959-46.2891Z"/>
  </g>
  <g id="Heavy-M" transform="matrix(1 0 0 1 2575.19 1126)">
   <path d="M61.5234 17.5293C90.5273 17.5293 114.258-6.20117 114.258-35.2051C114.258-64.2578 90.5273-87.9883 61.4746-87.9883C32.4707-87.9883 8.74023-64.2578 8.74023-35.2051C8.74023-6.20117 32.4707 17.5293 61.5234 17.5293ZM79.0527-11.7676C77.2949-10.0098 74.5605-10.0586 72.9004-11.7676L60.791-24.3164C60.0098-25.0977 59.5215-26.123 59.5215-27.2461C59.5215-29.6387 61.1816-31.3477 63.623-31.3477C64.7461-31.3477 65.7715-31.0059 66.5527-30.1758L71.3867-25.0977L71.8262-24.6582L71.7773-27.5391L71.7773-56.0059C71.7773-58.3496 73.5352-60.1562 75.9766-60.1562C78.3203-60.1562 80.1758-58.3496 80.1758-56.0059L80.1758-24.6582L80.5664-25.0977L85.4004-30.1758C86.1816-30.957 87.207-31.3477 88.2812-31.3477C90.7227-31.3477 92.4316-29.6387 92.4316-27.2461C92.4316-26.123 91.9434-25.0488 91.2109-24.3164ZM43.9453-58.7402C45.6543-60.5957 48.3887-60.498 50.0977-58.7402L62.207-46.2402C62.9395-45.459 63.5254-44.3848 63.5254-43.3105C63.5254-40.918 61.7676-39.209 59.375-39.209C58.252-39.209 57.2266-39.5508 56.4453-40.3809L51.6113-45.459L51.1719-45.8984L51.2207-43.0176L51.2207-14.5508C51.2207-12.207 49.4629-10.4004 47.0215-10.4004C44.6777-10.4004 42.8223-12.207 42.8223-14.5508L42.8223-45.8984L42.4316-45.459L37.5488-40.3809C36.8164-39.5508 35.791-39.209 34.668-39.209C32.2754-39.209 30.5664-40.918 30.5664-43.3105C30.5664-44.3848 31.0547-45.459 31.8359-46.2402Z"/>
  </g>
  <g id="Bold-M" transform="matrix(1 0 0 1 2279.5 1126)">
   <path d="M60.498 16.5039C88.8672 16.5039 112.207-6.83594 112.207-35.2051C112.207-63.623 88.8672-86.9629 60.4492-86.9629C32.0312-86.9629 8.74023-63.623 8.74023-35.2051C8.74023-6.83594 32.0801 16.5039 60.498 16.5039ZM78.2227-11.7676C76.6113-10.1074 74.0234-10.1562 72.4609-11.7676L60.2539-24.2676C59.5703-25.0488 59.082-26.0742 59.082-27.0508C59.082-29.2969 60.6445-30.8594 62.8906-30.8594C63.916-30.8594 64.8926-30.5176 65.625-29.7363L70.5566-24.6094L71.4844-23.584L71.4355-26.2695L71.4355-56.1523C71.4355-58.3496 73.0957-60.0098 75.3418-60.0098C77.4902-60.0098 79.1992-58.3496 79.1992-56.1523L79.1992-26.3184L79.1504-23.584L80.0781-24.6094L85.0586-29.7363C85.791-30.4688 86.7188-30.8594 87.7441-30.8594C89.9902-30.8594 91.5527-29.248 91.5527-27.0508C91.5527-26.0254 91.0645-25 90.3809-24.2676ZM42.7246-58.7402C44.3359-60.4492 46.875-60.3516 48.4375-58.7402L60.6445-46.1914C61.3281-45.5078 61.8652-44.4824 61.8652-43.457C61.8652-41.2109 60.2539-39.6484 58.0566-39.6484C56.9824-39.6484 56.0059-39.9902 55.3223-40.7227L50.3418-45.8984L49.4141-46.9238L49.4629-44.1895L49.4629-14.3066C49.4629-12.1582 47.8516-10.498 45.6055-10.498C43.4082-10.498 41.6992-12.1582 41.6992-14.3066L41.6992-44.1895L41.748-46.9238L40.8203-45.8984L35.8398-40.7715C35.1562-40.0391 34.2285-39.6484 33.2031-39.6484C30.957-39.6484 29.3457-41.2598 29.3457-43.457C29.3457-44.4336 29.834-45.459 30.5176-46.1914Z"/>
  </g>
  <g id="Semibold-M" transform="matrix(1 0 0 1 1983.5 1126)">
   <path d="M59.7656 15.8203C87.7441 15.8203 110.791-7.27539 110.791-35.2539C110.791-63.2324 87.6953-86.2793 59.7656-86.2793C31.7871-86.2793 8.74023-63.2324 8.74023-35.2539C8.74023-7.27539 31.7871 15.8203 59.7656 15.8203ZM77.5879-11.7188C76.123-10.2051 73.6328-10.2051 72.168-11.7188L59.9121-24.2676C59.2285-25.0488 58.8379-25.9766 58.8379-26.9043C58.8379-29.0039 60.2539-30.5176 62.4023-30.5176C63.3789-30.5176 64.3066-30.1758 64.9902-29.4434L70.0195-24.2676L71.2891-22.8516L71.1914-25.3906L71.1914-56.2988C71.1914-58.3496 72.7539-59.9121 74.9023-59.9121C76.9531-59.9121 78.5645-58.3496 78.5645-56.2988L78.5645-25.4395L78.5156-22.8516L79.7852-24.2676L84.8145-29.4434C85.498-30.127 86.377-30.5176 87.3535-30.5176C89.4531-30.5176 90.9668-29.0039 90.9668-26.9043C90.9668-25.9766 90.4785-25 89.8438-24.2676ZM41.8945-58.7402C43.457-60.3516 45.8008-60.2539 47.3145-58.7402L59.5215-46.1426C60.2051-45.5078 60.6934-44.4824 60.6934-43.5547C60.6934-41.4551 59.1797-39.9414 57.1289-39.9414C56.1035-39.9414 55.1758-40.2832 54.541-40.9668L49.4629-46.2402L48.1934-47.6562L48.291-45.0195L48.291-14.1602C48.291-12.1094 46.7773-10.5469 44.6289-10.5469C42.5293-10.5469 40.9668-12.1094 40.9668-14.1602L40.9668-45.0195L41.0156-47.6562L39.7461-46.2402L34.668-41.0645C34.0332-40.332 33.1055-39.9414 32.1777-39.9414C30.0293-39.9414 28.5156-41.4551 28.5156-43.5547C28.5156-44.4336 29.0039-45.4102 29.6387-46.1426Z"/>
  </g>
  <g id="Medium-M" transform="matrix(1 0 0 1 1687.3 1126)">
   <path d="M59.2285 15.2344C86.9141 15.2344 109.766-7.61719 109.766-35.2539C109.766-62.8906 86.8652-85.7422 59.1797-85.7422C31.543-85.7422 8.74023-62.8906 8.74023-35.2539C8.74023-7.61719 31.5918 15.2344 59.2285 15.2344ZM77.1484-11.6699C75.7324-10.2539 73.3398-10.2539 71.9238-11.6699L59.668-24.2676C58.9844-25 58.5938-25.9277 58.5938-26.8066C58.5938-28.8086 60.0098-30.2246 62.0117-30.2246C62.9883-30.2246 63.8672-29.9316 64.502-29.1992L69.5801-23.9746L71.1426-22.2656L71.0449-24.7559L71.0449-56.3965C71.0449-58.3496 72.5098-59.8633 74.5605-59.8633C76.5137-59.8633 78.0273-58.3984 78.0273-56.3965L78.0273-24.8047L77.9785-22.3145L79.541-23.9746L84.6191-29.1992C85.2539-29.8828 86.1328-30.2246 87.0605-30.2246C89.1113-30.2246 90.5273-28.8086 90.5273-26.8066C90.5273-25.9277 90.0391-24.9512 89.4043-24.2676ZM41.3086-58.7402C42.7734-60.2539 45.0195-60.1562 46.4355-58.7402L58.7402-46.1426C59.375-45.5078 59.8145-44.5312 59.8145-43.6035C59.8145-41.6016 58.3496-40.1855 56.3965-40.1855C55.4688-40.1855 54.5898-40.5273 53.9062-41.1621L48.8281-46.4844L47.2656-48.1934L47.3633-45.6543L47.3633-14.0137C47.3633-12.1094 45.8984-10.5957 43.8477-10.5957C41.8945-10.5957 40.3809-12.1094 40.3809-14.0137L40.3809-45.6543L40.4297-48.1934L38.916-46.4844L33.7891-41.2598C33.1543-40.5762 32.2754-40.1855 31.3477-40.1855C29.3457-40.1855 27.8809-41.6504 27.8809-43.6035C27.8809-44.4824 28.3691-45.4102 28.9551-46.1426Z"/>
  </g>
  <g id="Regular-M" transform="matrix(1 0 0 1 1391.3 1126)">
   <path d="M58.5449 14.5508C85.791 14.5508 108.35-8.05664 108.35-35.2539C108.35-62.5 85.7422-85.0586 58.4961-85.0586C31.2988-85.0586 8.74023-62.5 8.74023-35.2539C8.74023-8.05664 31.3477 14.5508 58.5449 14.5508ZM76.5625-11.6699C75.2441-10.3516 72.9492-10.3516 71.6309-11.6699L59.2773-24.2676C58.6914-25 58.3496-25.8789 58.3496-26.6602C58.3496-28.5645 59.6191-29.8828 61.5234-29.8828C62.4512-29.8828 63.2324-29.5898 63.8672-28.9062L69.043-23.6328L70.8984-21.5332L70.8008-23.877L70.8008-56.543C70.8008-58.3984 72.2168-59.7656 74.1211-59.7656C75.9766-59.7656 77.3926-58.3984 77.3926-56.543L77.3926-23.9258L77.2949-21.582L79.1992-23.6328L84.375-28.9062C84.9609-29.4922 85.791-29.8828 86.6699-29.8828C88.5742-29.8828 89.9414-28.5645 89.9414-26.6602C89.9414-25.8301 89.4531-24.9512 88.8672-24.2676ZM40.4785-58.7402C41.8945-60.1562 43.9941-60.0586 45.3125-58.7402L57.666-46.0938C58.252-45.5078 58.6426-44.5801 58.6426-43.75C58.6426-41.8457 57.3242-40.4785 55.4688-40.4785C54.5898-40.4785 53.7598-40.8203 53.1738-41.4062L47.9492-46.8262L46.0938-48.877L46.1914-46.4844L46.1914-13.8672C46.1914-12.0605 44.8242-10.6934 42.8711-10.6934C41.0156-10.6934 39.5996-12.0605 39.5996-13.8672L39.5996-46.4355L39.6973-48.877L37.793-46.8262L32.6172-41.5039C32.0312-40.8691 31.2012-40.4785 30.3711-40.4785C28.4668-40.4785 27.0508-41.8945 27.0508-43.75C27.0508-44.4824 27.5391-45.4102 28.0762-46.0938Z"/>
  </g>
  <g id="Light-M" transform="matrix(1 0 0 1 1095.42 1126)">
   <path d="M57.7148 13.7207C84.5215 13.7207 106.689-8.44727 106.689-35.2539C106.689-62.1094 84.5215-84.2285 57.666-84.2285C30.8594-84.2285 8.74023-62.1094 8.74023-35.2539C8.74023-8.44727 30.9082 13.7207 57.7148 13.7207ZM40.4785-58.9844C41.6016-60.1074 43.2129-60.0098 44.2871-58.9844L57.2754-45.8496C57.7637-45.3613 58.0566-44.6777 58.0566-43.9453C58.0566-42.4805 56.9824-41.4062 55.5664-41.4062C54.834-41.4062 54.1504-41.6992 53.6621-42.1875L47.7539-48.1934L44.873-51.2695L45.0195-48.0957L45.0195-13.2324C45.0195-11.8164 43.9453-10.6934 42.3828-10.6934C40.918-10.6934 39.7949-11.7676 39.7949-13.2324L39.7949-48.0957L39.8926-51.2695L37.0117-48.1934L31.1035-42.2363C30.6152-41.6992 29.9316-41.4062 29.248-41.4062C27.7832-41.4062 26.709-42.5293 26.709-43.9453C26.709-44.5801 27.0508-45.3125 27.4902-45.8496ZM74.9023-11.4746C73.877-10.4492 72.0703-10.4492 71.0938-11.4746L58.1055-24.5605C57.5684-25.1465 57.3242-25.8301 57.3242-26.5137C57.3242-28.0273 58.3496-29.0527 59.8145-29.0527C60.5469-29.0527 61.2305-28.8086 61.7188-28.2715L67.627-22.3145L70.5078-19.2383L70.3613-22.3145L70.3613-57.2266C70.3613-58.6914 71.4844-59.7656 72.998-59.7656C74.4141-59.7656 75.5859-58.6914 75.5859-57.2266L75.5859-22.3633L75.4883-19.2871L78.3691-22.3145L84.2773-28.2715C84.7656-28.7598 85.4492-29.0527 86.1328-29.0527C87.5977-29.0527 88.6719-27.9785 88.6719-26.5137C88.6719-25.8301 88.3301-25.0977 87.8418-24.5605Z"/>
  </g>
  <g id="Thin-M" transform="matrix(1 0 0 1 799.806 1126)">
   <path d="M56.6406 12.5977C82.9102 12.5977 104.492-8.98438 104.492-35.2539C104.492-61.5723 82.9102-83.1543 56.5918-83.1543C30.3223-83.1543 8.74023-61.5723 8.74023-35.2539C8.74023-8.98438 30.3223 12.5977 56.6406 12.5977ZM40.5273-59.3262C41.2109-60.0586 42.2363-59.9609 42.9199-59.3262L56.7383-45.5566C57.0801-45.166 57.2266-44.7754 57.2266-44.2383C57.2266-43.3105 56.4941-42.627 55.6152-42.627C55.1758-42.627 54.6875-42.8223 54.2969-43.2129L47.5098-50.0488L43.2617-54.3457L43.4082-50.2441L43.4082-12.4023C43.4082-11.4746 42.7246-10.7422 41.748-10.7422C40.8203-10.7422 40.0391-11.4258 40.0391-12.4023L40.0391-50.2441L40.1367-54.3457L35.9375-50.0488L29.1504-43.2129C28.7598-42.8223 28.2227-42.627 27.832-42.627C26.9043-42.627 26.1719-43.3594 26.1719-44.2383C26.1719-44.7266 26.3672-45.166 26.7578-45.5566ZM72.7051-11.1816C72.0703-10.5957 70.9473-10.5957 70.3125-11.1816L56.4941-25C56.1035-25.3906 56.0059-25.7324 56.0059-26.3184C56.0059-27.2461 56.6406-27.9297 57.6172-27.9297C58.1055-27.9297 58.5449-27.7832 58.9355-27.3926L65.7227-20.5078L69.9707-16.2109L69.8242-20.2637L69.8242-58.1543C69.8242-59.082 70.5078-59.8145 71.4844-59.8145C72.4121-59.8145 73.1934-59.1309 73.1934-58.1543L73.1934-20.2637L73.0957-16.2109L77.2949-20.5078L84.082-27.3926C84.4727-27.6855 84.9609-27.9297 85.4004-27.9297C86.3281-27.9297 87.0605-27.1973 87.0605-26.3184C87.0605-25.7812 86.8652-25.3418 86.4746-25Z"/>
  </g>
  <g id="Ultralight-M" transform="matrix(1 0 0 1 503.656 1126)">
   <path d="M56.0547 12.0605C82.0801 12.0605 103.369-9.22852 103.369-35.2539C103.369-61.2793 82.0801-82.5684 56.0547-82.5684C30.0293-82.5684 8.74023-61.2793 8.74023-35.2539C8.74023-9.22852 30.0293 12.0605 56.0547 12.0605ZM40.5273-59.5215C41.0156-60.0098 41.748-59.9609 42.2363-59.5215L56.4453-45.4102C56.7871-45.1172 56.8359-44.873 56.8359-44.3848C56.8359-43.75 56.2988-43.2129 55.6641-43.2129C55.3711-43.2129 54.9316-43.4082 54.6387-43.7012L47.3633-50.9766L42.4805-55.957L42.5781-51.3672L42.5781-11.9629C42.5781-11.3281 42.0898-10.791 41.4551-10.791C40.7715-10.791 40.1855-11.2305 40.1855-11.9629L40.1855-51.3672L40.2832-55.957L35.3516-50.9766L28.125-43.7012C27.7832-43.4082 27.3926-43.2129 27.0508-43.2129C26.4648-43.2129 25.9277-43.75 25.9277-44.3848C25.9277-44.8242 26.0254-45.1172 26.3672-45.4102ZM71.582-11.084C71.0938-10.6445 70.4102-10.6445 69.9219-11.084L55.6641-25.1953C55.3711-25.4883 55.3223-25.7324 55.3223-26.2207C55.3223-26.8555 55.8105-27.3438 56.4453-27.3438C56.8359-27.3438 57.1777-27.2461 57.4707-26.9531L64.7461-19.6289L69.6777-14.6484L69.5312-19.2383L69.5312-58.5938C69.5312-59.2773 70.0195-59.8145 70.7031-59.8145C71.3379-59.8145 71.9727-59.3262 71.9727-58.5938L71.9727-19.2383L71.8262-14.6484L76.7578-19.6289L84.0332-26.9531C84.3262-27.1973 84.7168-27.3438 85.0586-27.3438C85.6445-27.3438 86.1816-26.8066 86.1816-26.2207C86.1816-25.7812 86.084-25.4883 85.791-25.1953Z"/>
  </g>
  <g id="Black-S" transform="matrix(1 0 0 1 2884.57 696)">
   <path d="M48.8281 6.78711C71.9727 6.78711 90.8203-12.0605 90.8203-35.2051C90.8203-58.3496 71.9727-77.1973 48.8281-77.1973C25.6836-77.1973 6.83594-58.3496 6.83594-35.2051C6.83594-12.0605 25.6836 6.78711 48.8281 6.78711ZM62.5-16.8945C61.0352-15.3809 58.7891-15.4297 57.373-16.8945L47.9492-26.6602C47.3145-27.2949 46.875-28.1738 46.875-29.1016C46.875-31.1035 48.291-32.5195 50.293-32.5195C51.2207-32.5195 52.0996-32.2266 52.7344-31.543L56.4453-27.6367L56.4453-51.3672C56.4453-53.3203 57.9102-54.834 59.9121-54.834C61.8652-54.834 63.4277-53.3203 63.4277-51.3672L63.4277-27.6367L67.1387-31.543C67.7734-32.2266 68.6035-32.5195 69.5312-32.5195C71.5332-32.5195 72.9492-31.1035 72.9492-29.1016C72.9492-28.1738 72.5586-27.2949 71.9727-26.6602ZM35.1562-53.6621C36.5723-55.2246 38.8672-55.127 40.2832-53.6621L49.707-43.8965C50.3418-43.2617 50.8301-42.3828 50.8301-41.4551C50.8301-39.4531 49.3652-38.0371 47.3633-38.0371C46.4355-38.0371 45.5566-38.3301 44.9219-39.0137L41.2109-42.9199L41.2109-19.1895C41.2109-17.2363 39.7461-15.7227 37.7441-15.7227C35.791-15.7227 34.2285-17.2363 34.2285-19.1895L34.2285-42.9199L30.5176-39.0137C29.8828-38.3301 29.0527-38.0371 28.125-38.0371C26.123-38.0371 24.707-39.4531 24.707-41.4551C24.707-42.3828 25.0977-43.2617 25.7324-43.8965Z"/>
  </g>
  <g id="Heavy-S" transform="matrix(1 0 0 1 2588.47 696)">
   <path d="M48.2422 6.15234C70.9961 6.15234 89.5996-12.4512 89.5996-35.2051C89.5996-57.959 70.9961-76.6113 48.1934-76.6113C25.4395-76.6113 6.83594-57.959 6.83594-35.2051C6.83594-12.4512 25.4395 6.15234 48.2422 6.15234ZM62.1094-16.8945C60.6934-15.4297 58.4961-15.4785 57.1289-16.8945L47.7539-26.6113C47.1191-27.2461 46.7285-28.125 46.7285-29.0039C46.7285-30.9082 48.0469-32.2754 50-32.2754C50.8789-32.2754 51.709-31.9824 52.3438-31.2988L56.0547-27.4414L56.2988-27.1484L56.25-29.3457L56.25-51.416C56.25-53.3203 57.666-54.7363 59.6191-54.7363C61.4746-54.7363 62.9883-53.3203 62.9883-51.416L62.9883-29.3457L62.9395-27.1484L63.1836-27.4414L66.8945-31.2988C67.5293-31.9824 68.3105-32.2754 69.1895-32.2754C71.1426-32.2754 72.5098-30.9082 72.5098-29.0039C72.5098-28.125 72.1191-27.2461 71.5332-26.6113ZM34.3262-53.6133C35.7422-55.127 37.8906-55.0293 39.2578-53.6133L48.6816-43.8965C49.2676-43.2617 49.7559-42.4316 49.7559-41.5527C49.7559-39.5996 48.3398-38.2324 46.4355-38.2324C45.5566-38.2324 44.6777-38.5254 44.0918-39.1602L40.3809-43.0664L40.1367-43.3594L40.1855-41.1621L40.1855-19.0918C40.1855-17.2363 38.7695-15.7715 36.8164-15.7715C34.9121-15.7715 33.4473-17.2363 33.4473-19.0918L33.4473-43.3594L33.252-43.0664L29.541-39.209C28.9062-38.5254 28.125-38.2324 27.1973-38.2324C25.293-38.2324 23.9258-39.5996 23.9258-41.5527C23.9258-42.3828 24.3164-43.2617 24.9023-43.8965Z"/>
  </g>
  <g id="Bold-S" transform="matrix(1 0 0 1 2292.44 696)">
   <path d="M47.5586 5.46875C69.873 5.46875 88.2324-12.8906 88.2324-35.2539C88.2324-57.5684 69.873-75.9277 47.5098-75.9277C25.1953-75.9277 6.83594-57.5684 6.83594-35.2539C6.83594-12.8906 25.1953 5.46875 47.5586 5.46875ZM61.6211-16.8945C60.3027-15.5273 58.1543-15.5762 56.8848-16.8945L47.5098-26.5625C46.9238-27.1973 46.5332-28.0273 46.5332-28.8574C46.5332-30.7129 47.8027-31.9824 49.6582-31.9824C50.5371-31.9824 51.3184-31.6895 51.9043-31.0547L55.6152-27.1973L56.1035-26.6113L56.0547-28.5645L56.0547-51.4648C56.0547-53.2715 57.4219-54.6387 59.2773-54.6387C61.084-54.6387 62.4512-53.2715 62.4512-51.4648L62.4512-26.6602L62.9395-27.1973L66.6504-31.0547C67.2363-31.6895 67.9688-31.9824 68.8477-31.9824C70.7031-31.9824 72.0215-30.7129 72.0215-28.8574C72.0215-28.0273 71.582-27.1973 71.0449-26.5625ZM33.4473-53.5645C34.7656-54.9805 36.8164-54.8828 38.1348-53.5645L47.5098-43.8965C48.0957-43.3105 48.5352-42.4316 48.5352-41.6016C48.5352-39.7949 47.2168-38.4766 45.4102-38.4766C44.5312-38.4766 43.75-38.7695 43.1641-39.3555L39.4531-43.2617L38.9648-43.8477L39.0137-41.8945L39.0137-18.9941C39.0137-17.2363 37.6465-15.8691 35.791-15.8691C33.9844-15.8691 32.5684-17.2363 32.5684-18.9941L32.5684-41.8945L32.6172-43.8477L32.1289-43.2617L28.418-39.4043C27.832-38.7695 27.0508-38.4766 26.2207-38.4766C24.3652-38.4766 23.0469-39.7949 23.0469-41.6016C23.0469-42.4316 23.4375-43.2617 24.0234-43.8965Z"/>
  </g>
  <g id="Semibold-S" transform="matrix(1 0 0 1 1996.2 696)">
   <path d="M47.0703 4.98047C69.0918 4.98047 87.3047-13.1836 87.3047-35.2539C87.3047-57.2754 69.0918-75.4883 47.0215-75.4883C25-75.4883 6.83594-57.2754 6.83594-35.2539C6.83594-13.1836 25.0488 4.98047 47.0703 4.98047ZM61.3281-16.8945C60.0586-15.5762 57.9102-15.625 56.6895-16.8945L47.3145-26.5625C46.7773-27.1973 46.3867-27.9785 46.3867-28.7598C46.3867-30.5664 47.6074-31.7871 49.4141-31.7871C50.2441-31.7871 51.0254-31.4941 51.5625-30.9082L55.2734-27.0508L55.957-26.2695L55.9082-28.0273L55.9082-51.5137C55.9082-53.2715 57.2266-54.5898 59.0332-54.5898C60.791-54.5898 62.1094-53.2715 62.1094-51.5137L62.1094-28.0762L62.0605-26.2695L62.7441-27.0508L66.4551-30.9082C67.041-31.4941 67.7734-31.7871 68.5547-31.7871C70.4102-31.7871 71.6309-30.5664 71.6309-28.7598C71.6309-27.9785 71.2402-27.1484 70.7031-26.5625ZM32.8125-53.5645C34.1309-54.9316 36.084-54.834 37.3535-53.5645L46.7285-43.8477C47.3145-43.3105 47.7051-42.4805 47.7051-41.6992C47.7051-39.8926 46.4355-38.623 44.6777-38.623C43.8477-38.623 43.0664-38.916 42.5293-39.502L38.7695-43.4082L38.1348-44.1895L38.1836-42.3828L38.1836-18.9453C38.1836-17.1875 36.8652-15.8691 35.0586-15.8691C33.3008-15.8691 31.9824-17.1875 31.9824-18.9453L31.9824-42.3828L32.0312-44.1895L31.3477-43.4082L27.6367-39.5508C27.0508-38.9648 26.3184-38.623 25.4883-38.623C23.7305-38.623 22.4121-39.9414 22.4121-41.6992C22.4121-42.4316 22.8516-43.2617 23.3887-43.8477Z"/>
  </g>
  <g id="Medium-S" transform="matrix(1 0 0 1 1699.83 696)">
   <path d="M46.7285 4.63867C68.5547 4.63867 86.6211-13.4277 86.6211-35.2539C86.6211-57.0801 68.5059-75.1465 46.6797-75.1465C24.8535-75.1465 6.83594-57.0801 6.83594-35.2539C6.83594-13.4277 24.9023 4.63867 46.7285 4.63867ZM61.084-16.8457C59.8633-15.625 57.7637-15.625 56.5918-16.8457L47.2168-26.5137C46.6309-27.1484 46.2891-27.9785 46.2891-28.6621C46.2891-30.4199 47.5098-31.6406 49.2188-31.6406C50.0488-31.6406 50.7812-31.3477 51.3672-30.7617L55.0781-26.9531L55.8594-25.9766L55.8105-27.6367L55.8105-51.5137C55.8105-53.2227 57.0801-54.4922 58.8379-54.4922C60.5469-54.4922 61.8164-53.2227 61.8164-51.5137L61.8164-26.0254L62.5977-26.9531L66.3086-30.7617C66.8457-31.3477 67.5781-31.6406 68.3594-31.6406C70.166-31.6406 71.3867-30.4199 71.3867-28.6621C71.3867-27.9297 70.9961-27.0996 70.459-26.5137ZM32.3242-53.5156C33.5938-54.834 35.5469-54.7852 36.7676-53.5156L46.1426-43.8477C46.6797-43.3105 47.0703-42.4805 47.0703-41.6992C47.0703-39.9902 45.8496-38.7695 44.1406-38.7695C43.3105-38.7695 42.5781-39.0625 42.041-39.5996L38.2812-43.5059L37.5-44.4824L37.5977-42.7734L37.5977-18.8477C37.5977-17.1875 36.3281-15.918 34.5215-15.918C32.8125-15.918 31.543-17.1875 31.543-18.8477L31.543-42.7246L31.5918-44.4824L30.7617-43.5059L27.0508-39.6484C26.5137-39.0625 25.7812-38.7695 25-38.7695C23.2422-38.7695 21.9727-39.9902 21.9727-41.6992C21.9727-42.4316 22.4121-43.2617 22.9004-43.8477Z"/>
  </g>
  <g id="Regular-S" transform="matrix(1 0 0 1 1403.58 696)">
   <path d="M46.2402 4.15039C67.7734 4.15039 85.6934-13.7207 85.6934-35.2539C85.6934-56.7871 67.7246-74.6582 46.1914-74.6582C24.707-74.6582 6.83594-56.7871 6.83594-35.2539C6.83594-13.7207 24.7559 4.15039 46.2402 4.15039ZM60.791-16.8457C59.6191-15.6738 57.5195-15.6738 56.3965-16.8457L47.0215-26.5137C46.4844-27.1484 46.1914-27.9297 46.1914-28.6133C46.1914-30.2734 47.3145-31.4453 49.0234-31.4453C49.8047-31.4453 50.5371-31.2012 51.0254-30.6152L54.7363-26.8066L55.7617-25.6348L55.6641-27.0996L55.6641-51.5625C55.6641-53.2227 56.9336-54.4434 58.5938-54.4434C60.2539-54.4434 61.4746-53.2227 61.4746-51.5625L61.4746-27.1484L61.4258-25.6836L62.4023-26.8066L66.1621-30.6152C66.6504-31.1523 67.3828-31.4453 68.1152-31.4453C69.873-31.4453 71.0449-30.2734 71.0449-28.6133C71.0449-27.8809 70.6055-27.0996 70.1172-26.5137ZM31.6895-53.5156C32.959-54.7852 34.8145-54.6875 35.9863-53.5156L45.3613-43.8477C45.8496-43.3594 46.2402-42.4805 46.2402-41.7969C46.2402-40.0879 45.0684-38.916 43.4082-38.916C42.627-38.916 41.8945-39.209 41.4062-39.6973L37.6465-43.6035L36.6699-44.7754L36.7676-43.2617L36.7676-18.7988C36.7676-17.1875 35.5469-15.9668 33.7891-15.9668C32.1777-15.9668 30.957-17.1875 30.957-18.7988L30.957-43.2129L31.0059-44.7754L29.9805-43.6035L26.2695-39.7949C25.7812-39.2578 25.0488-38.916 24.3164-38.916C22.6074-38.916 21.3867-40.1367 21.3867-41.7969C21.3867-42.4316 21.7773-43.2617 22.2656-43.8477Z"/>
  </g>
  <g id="Light-S" transform="matrix(1 0 0 1 1107.6 696)">
   <path d="M45.5078 3.41797C66.6992 3.41797 84.2285-14.0625 84.2285-35.2539C84.2285-56.4453 66.6504-73.9258 45.5078-73.9258C24.3164-73.9258 6.83594-56.4453 6.83594-35.2539C6.83594-14.0625 24.3652 3.41797 45.5078 3.41797ZM59.3262-16.6992C58.3984-15.7715 56.7871-15.7715 55.9082-16.6992L45.9473-26.7578C45.5078-27.2949 45.2637-27.8809 45.2637-28.4668C45.2637-29.7852 46.1914-30.7129 47.5098-30.7129C48.1445-30.7129 48.7305-30.4688 49.1699-30.0293L53.5156-25.5859L55.3711-23.584L55.2734-25.7324L55.2734-52.1973C55.2734-53.4668 56.25-54.4434 57.6172-54.4434C58.8867-54.4434 59.9121-53.5156 59.9121-52.1973L59.9121-25.7324L59.8145-23.6328L61.7188-25.5859L66.0645-30.0293C66.4551-30.4199 67.041-30.7129 67.6758-30.7129C68.9941-30.7129 69.9707-29.7852 69.9707-28.4668C69.9707-27.8809 69.6289-27.2461 69.1895-26.7578ZM31.6895-53.7598C32.7148-54.7363 34.1309-54.6387 35.0586-53.7598L45.0195-43.6523C45.4102-43.2129 45.7031-42.5781 45.7031-41.9922C45.7031-40.6738 44.7754-39.6973 43.457-39.6973C42.8711-39.6973 42.2363-39.9414 41.8457-40.3809L37.5-44.873L35.5957-46.875L35.6934-44.7266L35.6934-18.2617C35.6934-16.9922 34.7656-16.0156 33.3984-16.0156C32.0801-16.0156 31.1035-16.9434 31.1035-18.2617L31.1035-44.6777L31.1523-46.875L29.2969-44.873L24.9512-40.4785C24.5117-39.9902 23.9258-39.6973 23.3398-39.6973C22.0215-39.6973 21.0449-40.6738 21.0449-41.9922C21.0449-42.5293 21.3379-43.1641 21.7773-43.6523Z"/>
  </g>
  <g id="Thin-S" transform="matrix(1 0 0 1 811.867 696)">
   <path d="M44.5801 2.49023C65.2832 2.49023 82.2754-14.5508 82.2754-35.2539C82.2754-55.957 65.2344-72.998 44.5312-72.998C23.8281-72.998 6.83594-55.957 6.83594-35.2539C6.83594-14.5508 23.877 2.49023 44.5801 2.49023ZM31.7383-54.0527C32.373-54.6875 33.252-54.6387 33.8867-54.0527L44.5312-43.4082C44.873-43.0664 44.9707-42.6758 44.9707-42.2363C44.9707-41.4062 44.3359-40.7715 43.5547-40.7715C43.1641-40.7715 42.7246-40.9668 42.3828-41.2598L37.2559-46.4844L34.1797-49.6094L34.2773-46.582L34.2773-17.5293C34.2773-16.6992 33.6914-16.0156 32.8125-16.0156C31.9824-16.0156 31.2988-16.6504 31.2988-17.5293L31.2988-46.582L31.3965-49.6094L28.3203-46.4844L23.1934-41.3086C22.8516-40.9668 22.4121-40.7715 22.0703-40.7715C21.2402-40.7715 20.6055-41.4062 20.6055-42.2363C20.6055-42.627 20.8008-43.0664 21.0938-43.4082ZM57.373-16.4551C56.7871-15.8691 55.8105-15.8691 55.2246-16.4551L44.5312-27.0996C44.2383-27.4414 44.0918-27.832 44.0918-28.2715C44.0918-29.1504 44.6777-29.7363 45.5566-29.7363C45.9473-29.7363 46.3867-29.5898 46.6797-29.248L51.8555-24.0234L54.8828-20.8984L54.7852-23.9258L54.7852-52.9785C54.7852-53.8086 55.4199-54.4922 56.25-54.4922C57.0801-54.4922 57.7637-53.8574 57.7637-52.9785L57.7637-23.9258L57.7148-20.8984L60.7422-24.0234L65.918-29.248C66.2109-29.541 66.6504-29.7363 67.041-29.7363C67.8711-29.7363 68.5059-29.1016 68.5059-28.2715C68.5059-27.832 68.3105-27.4414 68.0176-27.0996Z"/>
  </g>
  <g id="Ultralight-S" transform="matrix(1 0 0 1 515.644 696)">
   <path d="M44.043 1.95312C64.502 1.95312 81.2988-14.7949 81.2988-35.2539C81.2988-55.7129 64.502-72.4609 44.043-72.4609C23.584-72.4609 6.83594-55.7129 6.83594-35.2539C6.83594-14.7949 23.584 1.95312 44.043 1.95312ZM31.7383-54.1992C32.1777-54.6387 32.8125-54.5898 33.252-54.1992L44.2871-43.2617C44.5312-42.9688 44.6289-42.7734 44.6289-42.334C44.6289-41.7969 44.1406-41.3086 43.6035-41.3086C43.3105-41.3086 42.9688-41.5039 42.7246-41.748L37.1582-47.3145L33.4473-51.0254L33.5449-47.5586L33.5449-17.1387C33.5449-16.5527 33.1543-16.0645 32.5195-16.0645C31.9336-16.0645 31.3965-16.5039 31.3965-17.1387L31.3965-47.5586L31.4941-51.0254L27.832-47.3145L22.2656-41.748C22.0215-41.5039 21.6797-41.3086 21.3867-41.3086C20.8496-41.3086 20.3613-41.7969 20.3613-42.334C20.3613-42.7246 20.459-42.9688 20.752-43.2617ZM56.3965-16.3574C55.957-15.9668 55.2734-15.9668 54.8828-16.3574L43.7988-27.2949C43.5547-27.5879 43.5059-27.7832 43.5059-28.1738C43.5059-28.8086 43.9453-29.1992 44.5312-29.1992C44.8242-29.1992 45.166-29.1016 45.4102-28.8574L50.9766-23.2422L54.6387-19.4824L54.541-22.9492L54.541-53.418C54.541-54.0039 54.9805-54.4922 55.5664-54.4922C56.1523-54.4922 56.6895-54.0527 56.6895-53.418L56.6895-22.9492L56.5918-19.5312L60.2539-23.2422L65.8203-28.8574C66.1133-29.0527 66.4062-29.1992 66.6992-29.1992C67.2852-29.1992 67.7734-28.7598 67.7734-28.1738C67.7734-27.832 67.627-27.5391 67.3828-27.2949Z"/>
  </g>
 </g>
</svg>
