<?xml version="1.0" encoding="UTF-8"?>
<!--Generator: Apple Native CoreSVG 149-->
<!DOCTYPE svg
PUBLIC "-//W3C//DTD SVG 1.1//EN"
       "http://www.w3.org/Graphics/SVG/1.1/DTD/svg11.dtd">
<svg version="1.1" xmlns="http://www.w3.org/2000/svg" xmlns:xlink="http://www.w3.org/1999/xlink" width="3300" height="2200">
 <!--glyph: "uni10007F.medium", point size: 100.0, font version: "17.0d8e1", template writer version: "58"-->
 <style>.multicolor-0:tintColor {fill:#007AFF;opacity:1.0}
.multicolor-1:white {fill:#FFFFFF;opacity:1.0}

.hierarchical-0:tertiary {fill:#8E8E8E}
.hierarchical-1:primary {fill:#212121}

.SFSymbolsPreview007AFF {fill:#007AFF;opacity:1.0}
.SFSymbolsPreviewFFFFFF {fill:#FFFFFF;opacity:1.0}
</style>
 <g id="Notes">
  <rect height="2200" id="artboard" style="fill:white;opacity:1" width="3300" x="0" y="0"/>
  <line style="fill:none;stroke:black;opacity:1;stroke-width:0.5;" x1="263" x2="3036" y1="292" y2="292"/>
  <text style="stroke:none;fill:black;font-family:SF Pro,SF Pro Display,SF Pro Text,sans-serif;font-size:13;font-weight:bold;" transform="matrix(1 0 0 1 263 322)">Weight/Scale Variations</text>
  <text style="stroke:none;fill:black;font-family:SF Pro,SF Pro Display,SF Pro Text,sans-serif;font-size:13;text-anchor:middle;" transform="matrix(1 0 0 1 559.711 322)">Ultralight</text>
  <text style="stroke:none;fill:black;font-family:SF Pro,SF Pro Display,SF Pro Text,sans-serif;font-size:13;text-anchor:middle;" transform="matrix(1 0 0 1 856.422 322)">Thin</text>
  <text style="stroke:none;fill:black;font-family:SF Pro,SF Pro Display,SF Pro Text,sans-serif;font-size:13;text-anchor:middle;" transform="matrix(1 0 0 1 1153.13 322)">Light</text>
  <text style="stroke:none;fill:black;font-family:SF Pro,SF Pro Display,SF Pro Text,sans-serif;font-size:13;text-anchor:middle;" transform="matrix(1 0 0 1 1449.84 322)">Regular</text>
  <text style="stroke:none;fill:black;font-family:SF Pro,SF Pro Display,SF Pro Text,sans-serif;font-size:13;text-anchor:middle;" transform="matrix(1 0 0 1 1746.56 322)">Medium</text>
  <text style="stroke:none;fill:black;font-family:SF Pro,SF Pro Display,SF Pro Text,sans-serif;font-size:13;text-anchor:middle;" transform="matrix(1 0 0 1 2043.27 322)">Semibold</text>
  <text style="stroke:none;fill:black;font-family:SF Pro,SF Pro Display,SF Pro Text,sans-serif;font-size:13;text-anchor:middle;" transform="matrix(1 0 0 1 2339.98 322)">Bold</text>
  <text style="stroke:none;fill:black;font-family:SF Pro,SF Pro Display,SF Pro Text,sans-serif;font-size:13;text-anchor:middle;" transform="matrix(1 0 0 1 2636.69 322)">Heavy</text>
  <text style="stroke:none;fill:black;font-family:SF Pro,SF Pro Display,SF Pro Text,sans-serif;font-size:13;text-anchor:middle;" transform="matrix(1 0 0 1 2933.4 322)">Black</text>
  <line style="fill:none;stroke:black;opacity:1;stroke-width:0.5;" x1="263" x2="3036" y1="1903" y2="1903"/>
  <g transform="matrix(1 0 0 1 263 1933)">
   <path d="M9.24805 0.830078Q10.8691 0.830078 12.2949 0.214844Q13.7207-0.400391 14.8096-1.49414Q15.8984-2.58789 16.5186-4.01367Q17.1387-5.43945 17.1387-7.05078Q17.1387-8.66211 16.5186-10.0879Q15.8984-11.5137 14.8047-12.6074Q13.7109-13.7012 12.2852-14.3164Q10.8594-14.9316 9.23828-14.9316Q7.62695-14.9316 6.20117-14.3164Q4.77539-13.7012 3.69141-12.6074Q2.60742-11.5137 1.9873-10.0879Q1.36719-8.66211 1.36719-7.05078Q1.36719-5.43945 1.9873-4.01367Q2.60742-2.58789 3.69629-1.49414Q4.78516-0.400391 6.21094 0.214844Q7.63672 0.830078 9.24805 0.830078ZM9.24805-0.654297Q7.91992-0.654297 6.7627-1.14746Q5.60547-1.64062 4.73145-2.51953Q3.85742-3.39844 3.36426-4.56055Q2.87109-5.72266 2.87109-7.05078Q2.87109-8.37891 3.35938-9.54102Q3.84766-10.7031 4.72168-11.582Q5.5957-12.4609 6.75293-12.9541Q7.91016-13.4473 9.23828-13.4473Q10.5762-13.4473 11.7334-12.9541Q12.8906-12.4609 13.7695-11.582Q14.6484-10.7031 15.1465-9.54102Q15.6445-8.37891 15.6445-7.05078Q15.6445-5.72266 15.1514-4.56055Q14.6582-3.39844 13.7842-2.51953Q12.9102-1.64062 11.748-1.14746Q10.5859-0.654297 9.24805-0.654297ZM5.83984-7.04102Q5.83984-6.71875 6.04492-6.51855Q6.25-6.31836 6.5918-6.31836L8.50586-6.31836L8.50586-4.39453Q8.50586-4.0625 8.70605-3.85742Q8.90625-3.65234 9.22852-3.65234Q9.56055-3.65234 9.76562-3.85742Q9.9707-4.0625 9.9707-4.39453L9.9707-6.31836L11.8945-6.31836Q12.2266-6.31836 12.4316-6.51855Q12.6367-6.71875 12.6367-7.04102Q12.6367-7.37305 12.4316-7.57812Q12.2266-7.7832 11.8945-7.7832L9.9707-7.7832L9.9707-9.69727Q9.9707-10.0391 9.76562-10.2441Q9.56055-10.4492 9.22852-10.4492Q8.90625-10.4492 8.70605-10.2441Q8.50586-10.0391 8.50586-9.69727L8.50586-7.7832L6.5918-7.7832Q6.25-7.7832 6.04492-7.57812Q5.83984-7.37305 5.83984-7.04102Z"/>
  </g>
  <g transform="matrix(1 0 0 1 281.867 1933)">
   <path d="M11.709 2.91016Q13.75 2.91016 15.5518 2.12891Q17.3535 1.34766 18.7305-0.0292969Q20.1074-1.40625 20.8887-3.20801Q21.6699-5.00977 21.6699-7.05078Q21.6699-9.0918 20.8887-10.8936Q20.1074-12.6953 18.7305-14.0723Q17.3535-15.4492 15.5469-16.2305Q13.7402-17.0117 11.6992-17.0117Q9.6582-17.0117 7.85645-16.2305Q6.05469-15.4492 4.68262-14.0723Q3.31055-12.6953 2.5293-10.8936Q1.74805-9.0918 1.74805-7.05078Q1.74805-5.00977 2.5293-3.20801Q3.31055-1.40625 4.6875-0.0292969Q6.06445 1.34766 7.86621 2.12891Q9.66797 2.91016 11.709 2.91016ZM11.709 1.25Q9.98047 1.25 8.47656 0.605469Q6.97266-0.0390625 5.83496-1.17676Q4.69727-2.31445 4.05762-3.81836Q3.41797-5.32227 3.41797-7.05078Q3.41797-8.7793 4.05762-10.2832Q4.69727-11.7871 5.83008-12.9297Q6.96289-14.0723 8.4668-14.7119Q9.9707-15.3516 11.6992-15.3516Q13.4277-15.3516 14.9316-14.7119Q16.4355-14.0723 17.5781-12.9297Q18.7207-11.7871 19.3652-10.2832Q20.0098-8.7793 20.0098-7.05078Q20.0098-5.32227 19.3701-3.81836Q18.7305-2.31445 17.5928-1.17676Q16.4551-0.0390625 14.9463 0.605469Q13.4375 1.25 11.709 1.25ZM7.39258-7.04102Q7.39258-6.68945 7.62695-6.46484Q7.86133-6.24023 8.23242-6.24023L10.8789-6.24023L10.8789-3.57422Q10.8789-3.21289 11.1035-2.9834Q11.3281-2.75391 11.6797-2.75391Q12.0508-2.75391 12.2852-2.9834Q12.5195-3.21289 12.5195-3.57422L12.5195-6.24023L15.1758-6.24023Q15.5371-6.24023 15.7715-6.46484Q16.0059-6.68945 16.0059-7.04102Q16.0059-7.41211 15.7715-7.6416Q15.5371-7.87109 15.1758-7.87109L12.5195-7.87109L12.5195-10.5176Q12.5195-10.8984 12.2852-11.1279Q12.0508-11.3574 11.6797-11.3574Q11.3281-11.3574 11.1035-11.1279Q10.8789-10.8984 10.8789-10.5176L10.8789-7.87109L8.23242-7.87109Q7.85156-7.87109 7.62207-7.6416Q7.39258-7.41211 7.39258-7.04102Z"/>
  </g>
  <g transform="matrix(1 0 0 1 305.646 1933)">
   <path d="M14.9707 5.66406Q17.0605 5.66406 18.96 5.01465Q20.8594 4.36523 22.4512 3.19336Q24.043 2.02148 25.2197 0.429688Q26.3965-1.16211 27.0459-3.06641Q27.6953-4.9707 27.6953-7.05078Q27.6953-9.14062 27.0459-11.04Q26.3965-12.9395 25.2197-14.5312Q24.043-16.123 22.4512-17.2998Q20.8594-18.4766 18.9551-19.126Q17.0508-19.7754 14.9609-19.7754Q12.8711-19.7754 10.9717-19.126Q9.07227-18.4766 7.48535-17.2998Q5.89844-16.123 4.72168-14.5312Q3.54492-12.9395 2.90039-11.04Q2.25586-9.14062 2.25586-7.05078Q2.25586-4.9707 2.90527-3.06641Q3.55469-1.16211 4.72656 0.429688Q5.89844 2.02148 7.49023 3.19336Q9.08203 4.36523 10.9814 5.01465Q12.8809 5.66406 14.9707 5.66406ZM14.9707 3.84766Q13.1641 3.84766 11.5283 3.2959Q9.89258 2.74414 8.53516 1.74805Q7.17773 0.751953 6.17676-0.610352Q5.17578-1.97266 4.62891-3.6084Q4.08203-5.24414 4.08203-7.05078Q4.08203-8.86719 4.62891-10.5029Q5.17578-12.1387 6.17188-13.501Q7.16797-14.8633 8.52539-15.8594Q9.88281-16.8555 11.5186-17.4023Q13.1543-17.9492 14.9609-17.9492Q16.7773-17.9492 18.4131-17.4023Q20.0488-16.8555 21.4111-15.8594Q22.7734-14.8633 23.7695-13.501Q24.7656-12.1387 25.3174-10.5029Q25.8691-8.86719 25.8691-7.05078Q25.8789-5.24414 25.332-3.6084Q24.7852-1.97266 23.7842-0.610352Q22.7832 0.751953 21.4209 1.74805Q20.0586 2.74414 18.4229 3.2959Q16.7871 3.84766 14.9707 3.84766ZM9.45312-7.04102Q9.45312-6.66016 9.71191-6.41113Q9.9707-6.16211 10.3711-6.16211L14.0625-6.16211L14.0625-2.46094Q14.0625-2.06055 14.3115-1.80664Q14.5605-1.55273 14.9414-1.55273Q15.3516-1.55273 15.6055-1.80664Q15.8594-2.06055 15.8594-2.46094L15.8594-6.16211L19.5605-6.16211Q19.9609-6.16211 20.2148-6.41113Q20.4688-6.66016 20.4688-7.04102Q20.4688-7.45117 20.2148-7.70508Q19.9609-7.95898 19.5605-7.95898L15.8594-7.95898L15.8594-11.6504Q15.8594-12.0605 15.6055-12.3145Q15.3516-12.5684 14.9414-12.5684Q14.5605-12.5684 14.3115-12.3096Q14.0625-12.0508 14.0625-11.6504L14.0625-7.95898L10.3711-7.95898Q9.96094-7.95898 9.70703-7.70508Q9.45312-7.45117 9.45312-7.04102Z"/>
  </g>
  <text style="stroke:none;fill:black;font-family:SF Pro,SF Pro Display,SF Pro Text,sans-serif;font-size:13;font-weight:bold;" transform="matrix(1 0 0 1 263 1953)">Design Variations</text>
  <text style="stroke:none;fill:black;font-family:SF Pro,SF Pro Display,SF Pro Text,sans-serif;font-size:13;" transform="matrix(1 0 0 1 263 1971)">Symbols are supported in up to nine weights and three scales.</text>
  <text style="stroke:none;fill:black;font-family:SF Pro,SF Pro Display,SF Pro Text,sans-serif;font-size:13;" transform="matrix(1 0 0 1 263 1989)">For optimal layout with text and other symbols, vertically align</text>
  <text style="stroke:none;fill:black;font-family:SF Pro,SF Pro Display,SF Pro Text,sans-serif;font-size:13;" transform="matrix(1 0 0 1 263 2007)">symbols with the adjacent text.</text>
  <line style="fill:none;stroke:#00AEEF;stroke-width:0.5;opacity:1.0;" x1="776" x2="776" y1="1919" y2="1933"/>
  <g transform="matrix(1 0 0 1 776 1933)">
   <path d="M3.31055 0.15625Q3.70117 0.15625 3.91602-0.00976562Q4.13086-0.175781 4.26758-0.585938L5.52734-4.0332L11.2891-4.0332L12.5488-0.585938Q12.6855-0.175781 12.9004-0.00976562Q13.1152 0.15625 13.4961 0.15625Q13.8867 0.15625 14.1162-0.0585938Q14.3457-0.273438 14.3457-0.644531Q14.3457-0.869141 14.2383-1.17188L9.6582-13.3691Q9.48242-13.8184 9.17969-14.043Q8.87695-14.2676 8.4082-14.2676Q7.5-14.2676 7.17773-13.3789L2.59766-1.16211Q2.49023-0.859375 2.49023-0.634766Q2.49023-0.263672 2.70996-0.0537109Q2.92969 0.15625 3.31055 0.15625ZM6.00586-5.51758L8.37891-12.0898L8.42773-12.0898L10.8008-5.51758Z"/>
  </g>
  <line style="fill:none;stroke:#00AEEF;stroke-width:0.5;opacity:1.0;" x1="793.197" x2="793.197" y1="1919" y2="1933"/>
  <text style="stroke:none;fill:black;font-family:SF Pro,SF Pro Display,SF Pro Text,sans-serif;font-size:13;font-weight:bold;" transform="matrix(1 0 0 1 776 1953)">Margins</text>
  <text style="stroke:none;fill:black;font-family:SF Pro,SF Pro Display,SF Pro Text,sans-serif;font-size:13;" transform="matrix(1 0 0 1 776 1971)">Leading and trailing margins on the left and right side of each symbol</text>
  <text style="stroke:none;fill:black;font-family:SF Pro,SF Pro Display,SF Pro Text,sans-serif;font-size:13;" transform="matrix(1 0 0 1 776 1989)">can be adjusted by modifying the x-location of the margin guidelines.</text>
  <text style="stroke:none;fill:black;font-family:SF Pro,SF Pro Display,SF Pro Text,sans-serif;font-size:13;" transform="matrix(1 0 0 1 776 2007)">Modifications are automatically applied proportionally to all</text>
  <text style="stroke:none;fill:black;font-family:SF Pro,SF Pro Display,SF Pro Text,sans-serif;font-size:13;" transform="matrix(1 0 0 1 776 2025)">scales and weights.</text>
  <g transform="matrix(1 0 0 1 1289 1933)">
   <path d="M2.8418 1.86523L4.54102 3.57422Q5.18555 4.22852 5.90332 4.17969Q6.62109 4.13086 7.31445 3.35938L18.0078-8.42773L17.041-9.4043L6.42578 2.27539Q6.16211 2.57812 5.89355 2.61719Q5.625 2.65625 5.27344 2.30469L4.10156 1.14258Q3.75 0.791016 3.79395 0.522461Q3.83789 0.253906 4.14062-0.0195312L15.6152-10.8203L14.6387-11.7871L3.04688-0.898438Q2.30469-0.214844 2.25098 0.498047Q2.19727 1.21094 2.8418 1.86523ZM9.25781-16.3281Q8.94531-16.0254 8.90625-15.6348Q8.86719-15.2441 9.04297-14.9512Q9.21875-14.6777 9.55566-14.541Q9.89258-14.4043 10.3809-14.5215Q11.4746-14.7754 12.5977-14.7314Q13.7207-14.6875 14.7949-13.9844L14.209-12.5293Q13.9551-11.9043 14.0674-11.4404Q14.1797-10.9766 14.5801-10.5664L16.875-8.25195Q17.2363-7.88086 17.5781-7.82227Q17.9199-7.76367 18.3398-7.8418L19.4043-8.03711L20.0684-7.36328L20.0293-6.80664Q20-6.43555 20.1221-6.12305Q20.2441-5.81055 20.6055-5.44922L21.3672-4.70703Q21.7285-4.3457 22.1533-4.33105Q22.5781-4.31641 22.9297-4.66797L25.8398-7.58789Q26.1914-7.93945 26.1816-8.35449Q26.1719-8.76953 25.8105-9.13086L25.0391-9.89258Q24.6875-10.2539 24.3799-10.3857Q24.0723-10.5176 23.7109-10.4883L23.1348-10.4395L22.4902-11.0742L22.7344-12.1973Q22.832-12.6172 22.6953-12.9834Q22.5586-13.3496 22.1191-13.7891L19.9219-15.9766Q18.6719-17.2168 17.2607-17.8369Q15.8496-18.457 14.4189-18.4814Q12.9883-18.5059 11.665-17.959Q10.3418-17.4121 9.25781-16.3281ZM10.752-15.957Q11.6602-16.6211 12.7002-16.9043Q13.7402-17.1875 14.8047-17.085Q15.8691-16.9824 16.8701-16.5137Q17.8711-16.0449 18.7012-15.2051L21.1328-12.793Q21.3086-12.6172 21.3525-12.4512Q21.3965-12.2852 21.3379-12.0312L21.0156-10.5469L22.5195-9.0625L23.5059-9.12109Q23.6914-9.13086 23.7891-9.09668Q23.8867-9.0625 24.0332-8.91602L24.6094-8.33984L22.168-5.89844L21.5918-6.47461Q21.4453-6.62109 21.4062-6.71875Q21.3672-6.81641 21.377-7.01172L21.4453-7.98828L19.9512-9.47266L18.4277-9.21875Q18.1836-9.16992 18.042-9.2041Q17.9004-9.23828 17.7148-9.41406L15.7129-11.416Q15.5176-11.5918 15.4932-11.7529Q15.4688-11.9141 15.5859-12.1875L16.4648-14.2773Q15.293-15.3711 13.8281-15.791Q12.3633-16.2109 10.8398-15.7617Q10.7227-15.7324 10.6885-15.8057Q10.6543-15.8789 10.752-15.957Z"/>
  </g>
  <text style="stroke:none;fill:black;font-family:SF Pro,SF Pro Display,SF Pro Text,sans-serif;font-size:13;font-weight:bold;" transform="matrix(1 0 0 1 1289 1953)">Exporting</text>
  <text style="stroke:none;fill:black;font-family:SF Pro,SF Pro Display,SF Pro Text,sans-serif;font-size:13;" transform="matrix(1 0 0 1 1289 1971)">Symbols should be outlined when exporting to ensure the</text>
  <text style="stroke:none;fill:black;font-family:SF Pro,SF Pro Display,SF Pro Text,sans-serif;font-size:13;" transform="matrix(1 0 0 1 1289 1989)">design is preserved when submitting to Xcode.</text>
  <text id="template-version" style="stroke:none;fill:black;font-family:SF Pro,SF Pro Display,SF Pro Text,sans-serif;font-size:13;text-anchor:end;" transform="matrix(1 0 0 1 3036 1933)">Template v.3.0</text>
  <text style="stroke:none;fill:black;font-family:SF Pro,SF Pro Display,SF Pro Text,sans-serif;font-size:13;text-anchor:end;" transform="matrix(1 0 0 1 3036 1951)">Requires Xcode 13 or greater</text>
  <text id="descriptive-name" style="stroke:none;fill:black;font-family:SF Pro,SF Pro Display,SF Pro Text,sans-serif;font-size:13;text-anchor:end;" transform="matrix(1 0 0 1 3036 1969)">Generated from arrow.up.arrow.down.circle.fill</text>
  <text style="stroke:none;fill:black;font-family:SF Pro,SF Pro Display,SF Pro Text,sans-serif;font-size:13;text-anchor:end;" transform="matrix(1 0 0 1 3036 1987)">Typeset at 100 points</text>
  <text style="stroke:none;fill:black;font-family:SF Pro,SF Pro Display,SF Pro Text,sans-serif;font-size:13;" transform="matrix(1 0 0 1 263 726)">Small</text>
  <text style="stroke:none;fill:black;font-family:SF Pro,SF Pro Display,SF Pro Text,sans-serif;font-size:13;" transform="matrix(1 0 0 1 263 1156)">Medium</text>
  <text style="stroke:none;fill:black;font-family:SF Pro,SF Pro Display,SF Pro Text,sans-serif;font-size:13;" transform="matrix(1 0 0 1 263 1586)">Large</text>
 </g>
 <g id="Guides">
  <g id="H-reference" style="fill:#27AAE1;stroke:none;" transform="matrix(1 0 0 1 339 696)">
   <path d="M0.976562 0L3.66211 0L29.3457-67.1387L30.0293-67.1387L30.0293-70.459L28.125-70.459ZM11.6699-24.4629L46.9727-24.4629L46.2402-26.709L12.4512-26.709ZM55.127 0L57.7637 0L30.6152-70.459L29.4434-70.459L29.4434-67.1387Z"/>
  </g>
  <line id="Baseline-S" style="fill:none;stroke:#27AAE1;opacity:1;stroke-width:0.5;" x1="263" x2="3036" y1="696" y2="696"/>
  <line id="Capline-S" style="fill:none;stroke:#27AAE1;opacity:1;stroke-width:0.5;" x1="263" x2="3036" y1="625.541" y2="625.541"/>
  <g id="H-reference" style="fill:#27AAE1;stroke:none;" transform="matrix(1 0 0 1 339 1126)">
   <path d="M0.976562 0L3.66211 0L29.3457-67.1387L30.0293-67.1387L30.0293-70.459L28.125-70.459ZM11.6699-24.4629L46.9727-24.4629L46.2402-26.709L12.4512-26.709ZM55.127 0L57.7637 0L30.6152-70.459L29.4434-70.459L29.4434-67.1387Z"/>
  </g>
  <line id="Baseline-M" style="fill:none;stroke:#27AAE1;opacity:1;stroke-width:0.5;" x1="263" x2="3036" y1="1126" y2="1126"/>
  <line id="Capline-M" style="fill:none;stroke:#27AAE1;opacity:1;stroke-width:0.5;" x1="263" x2="3036" y1="1055.54" y2="1055.54"/>
  <g id="H-reference" style="fill:#27AAE1;stroke:none;" transform="matrix(1 0 0 1 339 1556)">
   <path d="M0.976562 0L3.66211 0L29.3457-67.1387L30.0293-67.1387L30.0293-70.459L28.125-70.459ZM11.6699-24.4629L46.9727-24.4629L46.2402-26.709L12.4512-26.709ZM55.127 0L57.7637 0L30.6152-70.459L29.4434-70.459L29.4434-67.1387Z"/>
  </g>
  <line id="Baseline-L" style="fill:none;stroke:#27AAE1;opacity:1;stroke-width:0.5;" x1="263" x2="3036" y1="1556" y2="1556"/>
  <line id="Capline-L" style="fill:none;stroke:#27AAE1;opacity:1;stroke-width:0.5;" x1="263" x2="3036" y1="1485.54" y2="1485.54"/>
  <line id="left-margin-Regular-M" style="fill:none;stroke:#00AEEF;stroke-width:0.5;opacity:1.0;" x1="1391.3" x2="1391.3" y1="1030.79" y2="1150.12"/>
  <line id="right-margin-Regular-M" style="fill:none;stroke:#00AEEF;stroke-width:0.5;opacity:1.0;" x1="1508.39" x2="1508.39" y1="1030.79" y2="1150.12"/>
 </g>
 <g id="Symbols">
  <g id="Black-L" transform="matrix(1 0 0 1 2854.05 1556)">
   <path class="multicolor-0:tintColor hierarchical-0:tertiary SFSymbolsPreview007AFF" d="M79.3457 32.8613Q90.5762 32.8613 100.757 29.3945Q110.938 25.9277 119.458 19.6777Q127.979 13.4277 134.229 4.90723Q140.479-3.61328 143.945-13.7939Q147.412-23.9746 147.412-35.2051Q147.412-46.4355 143.945-56.6162Q140.479-66.7969 134.204-75.3174Q127.93-83.8379 119.434-90.1123Q110.938-96.3867 100.732-99.8291Q90.5273-103.271 79.2969-103.271Q68.1152-103.271 57.9102-99.8291Q47.7051-96.3867 39.209-90.1123Q30.7129-83.8379 24.4385-75.3174Q18.1641-66.7969 14.7217-56.6162Q11.2793-46.4355 11.2793-35.2051Q11.2793-23.9746 14.7217-13.7939Q18.1641-3.61328 24.4385 4.90723Q30.7129 13.4277 39.2334 19.6777Q47.7539 25.9277 57.9346 29.3945Q68.1152 32.8613 79.3457 32.8613Z"/>
   <path class="multicolor-1:white hierarchical-1:primary SFSymbolsPreviewFFFFFF" d="M56.3965-65.4785Q58.1055-67.334 60.4736-67.2852Q62.8418-67.2363 64.502-65.4785L79.9805-49.5117Q80.7129-48.7305 81.2256-47.7051Q81.7383-46.6797 81.7383-45.6055Q81.7383-43.2129 80.2002-41.6992Q78.6621-40.1855 76.2695-40.1855Q73.877-40.1855 72.4121-41.748L66.3086-48.0957L65.9668-48.584L66.0156-45.0684L66.0156-8.69141Q66.0156-6.34766 64.4531-4.78516Q62.8906-3.22266 60.4492-3.22266Q58.1543-3.22266 56.543-4.78516Q54.9316-6.34766 54.9316-8.69141L54.9316-45.0684L54.9316-48.584L54.5898-48.0957L48.4863-41.748Q47.0215-40.1855 44.7266-40.1855Q42.334-40.1855 40.7959-41.7236Q39.2578-43.2617 39.2578-45.6055Q39.2578-47.7539 40.918-49.5117ZM102.295-5.0293Q100.586-3.27148 98.1934-3.2959Q95.8008-3.32031 94.1406-5.0293L78.6621-21.0449Q77.002-22.8027 77.002-24.9023Q77.002-27.2949 78.5156-28.833Q80.0293-30.3711 82.4219-30.3711Q84.8145-30.3711 86.2793-28.7598L92.334-22.4609L92.7246-21.9727L92.6758-25.4395L92.6758-61.8652Q92.6758-64.1602 94.2383-65.7471Q95.8008-67.334 98.1934-67.334Q100.537-67.334 102.148-65.7471Q103.76-64.1602 103.76-61.8652L103.76-25.4883L103.711-22.0215L104.102-22.4609L110.156-28.7598Q111.67-30.3711 113.965-30.3711Q116.357-30.3711 117.896-28.833Q119.434-27.2949 119.434-24.9023Q119.434-22.7539 117.822-21.0449Z"/>
  </g>
  <g id="Heavy-L" transform="matrix(1 0 0 1 2558.39 1556)">
   <path class="multicolor-0:tintColor hierarchical-0:tertiary SFSymbolsPreview007AFF" d="M78.2715 31.7871Q89.3555 31.7871 99.3652 28.3691Q109.375 24.9512 117.749 18.7988Q126.123 12.6465 132.3 4.24805Q138.477-4.15039 141.895-14.1602Q145.312-24.1699 145.312-35.2051Q145.312-46.2402 141.895-56.2744Q138.477-66.3086 132.3-74.6826Q126.123-83.0566 117.749-89.2578Q109.375-95.459 99.3408-98.8525Q89.3066-102.246 78.2227-102.246Q67.2363-102.246 57.2021-98.8525Q47.168-95.459 38.7939-89.2578Q30.4199-83.0566 24.2432-74.6826Q18.0664-66.3086 14.6729-56.2744Q11.2793-46.2402 11.2793-35.2051Q11.2793-24.1699 14.6729-14.1602Q18.0664-4.15039 24.2432 4.24805Q30.4199 12.6465 38.8184 18.7988Q47.2168 24.9512 57.2266 28.3691Q67.2363 31.7871 78.2715 31.7871Z"/>
   <path class="multicolor-1:white hierarchical-1:primary SFSymbolsPreviewFFFFFF" d="M55.4199-65.5273Q57.0312-67.2363 59.2041-67.1875Q61.377-67.1387 62.8906-65.5273L78.6133-49.4141Q79.2969-48.6816 79.7607-47.7295Q80.2246-46.7773 80.2246-45.8008Q80.2246-43.6035 78.8086-42.2119Q77.3926-40.8203 75.1953-40.8203Q72.998-40.8203 71.6309-42.2363L65.2344-48.877L64.209-50.0488L64.3066-46.4844L64.3066-8.30078Q64.3066-6.15234 62.8662-4.73633Q61.4258-3.32031 59.1797-3.32031Q57.0312-3.32031 55.5664-4.73633Q54.1016-6.15234 54.1016-8.30078L54.1016-46.4844L54.1016-50.0488L53.0762-48.877L46.7285-42.2852Q45.3125-40.8203 43.2129-40.8203Q41.0156-40.8203 39.5996-42.2363Q38.1836-43.6523 38.1836-45.8008Q38.1836-47.7539 39.7461-49.4141ZM101.172-4.93164Q99.6094-3.32031 97.3877-3.34473Q95.166-3.36914 93.6523-4.93164L77.9297-21.0938Q76.416-22.7539 76.416-24.707Q76.416-26.9043 77.8076-28.3203Q79.1992-29.7363 81.3965-29.7363Q83.5938-29.7363 84.9609-28.2227L91.3086-21.6797L92.3828-20.5078L92.2852-23.9746L92.2852-62.207Q92.2852-64.3066 93.7256-65.7715Q95.166-67.2363 97.4121-67.2363Q99.5605-67.2363 101.025-65.7715Q102.49-64.3066 102.49-62.207L102.49-24.0234L102.441-20.5566L103.516-21.6797L109.863-28.2227Q111.279-29.7363 113.379-29.7363Q115.576-29.7363 116.992-28.3203Q118.408-26.9043 118.408-24.707Q118.408-22.7539 116.895-21.0938Z"/>
  </g>
  <g id="Bold-L" transform="matrix(1 0 0 1 2262.85 1556)">
   <path class="multicolor-0:tintColor hierarchical-0:tertiary SFSymbolsPreview007AFF" d="M77.0996 30.6152Q87.9395 30.6152 97.7783 27.2461Q107.617 23.877 115.869 17.8223Q124.121 11.7676 130.176 3.51562Q136.23-4.73633 139.6-14.5752Q142.969-24.4141 142.969-35.2539Q142.969-46.0938 139.6-55.9326Q136.23-65.7715 130.151-73.999Q124.072-82.2266 115.845-88.3057Q107.617-94.3848 97.7539-97.7295Q87.8906-101.074 77.0508-101.074Q66.2598-101.074 56.3965-97.7295Q46.5332-94.3848 38.3301-88.3057Q30.127-82.2266 24.0479-73.999Q17.9688-65.7715 14.624-55.9326Q11.2793-46.0938 11.2793-35.2539Q11.2793-24.4141 14.624-14.5752Q17.9688-4.73633 24.0479 3.51562Q30.127 11.7676 38.3545 17.8223Q46.582 23.877 56.4209 27.2461Q66.2598 30.6152 77.0996 30.6152Z"/>
   <path class="multicolor-1:white hierarchical-1:primary SFSymbolsPreviewFFFFFF" d="M54.3457-65.625Q55.8105-67.1387 57.7637-67.0898Q59.7168-67.041 61.084-65.625L77.0508-49.3164Q77.6855-48.6328 78.1006-47.7783Q78.5156-46.9238 78.5156-45.9961Q78.5156-44.043 77.2461-42.7734Q75.9766-41.5039 73.9746-41.5039Q72.0215-41.5039 70.752-42.8223L64.0625-49.707L62.2559-51.709L62.3535-48.0957L62.3535-7.91016Q62.3535-6.00586 61.0596-4.71191Q59.7656-3.41797 57.7148-3.41797Q55.8105-3.41797 54.4678-4.71191Q53.125-6.00586 53.125-7.91016L53.125-48.0469L53.1738-51.709L51.416-49.707L44.7266-42.8711Q43.4082-41.5039 41.5527-41.5039Q39.5508-41.5039 38.2568-42.7734Q36.9629-44.043 36.9629-45.9961Q36.9629-47.7051 38.3789-49.3164ZM99.9023-4.83398Q98.4863-3.41797 96.4844-3.44238Q94.4824-3.4668 93.1152-4.83398L77.1484-21.1914Q75.7812-22.7051 75.7812-24.5117Q75.7812-26.4648 77.0264-27.7344Q78.2715-29.0039 80.2734-29.0039Q82.2754-29.0039 83.4961-27.6855L90.1367-20.8496L91.9922-18.8477L91.8945-22.4121L91.8945-62.5977Q91.8945-64.502 93.1885-65.8203Q94.4824-67.1387 96.4844-67.1387Q98.4375-67.1387 99.7803-65.8203Q101.123-64.502 101.123-62.5977L101.123-22.4609L101.025-18.8965L102.832-20.8496L109.521-27.6855Q110.84-29.0039 112.695-29.0039Q114.697-29.0039 115.991-27.7344Q117.285-26.4648 117.285-24.5117Q117.285-22.7051 115.869-21.1914Z"/>
  </g>
  <g id="Semibold-L" transform="matrix(1 0 0 1 1966.97 1556)">
   <path class="multicolor-0:tintColor hierarchical-0:tertiary SFSymbolsPreview007AFF" d="M76.2695 29.7852Q86.9629 29.7852 96.6797 26.4648Q106.396 23.1445 114.551 17.1631Q122.705 11.1816 128.687 3.02734Q134.668-5.12695 137.988-14.8438Q141.309-24.5605 141.309-35.2539Q141.309-45.9473 137.988-55.6641Q134.668-65.3809 128.662-73.5107Q122.656-81.6406 114.526-87.6465Q106.396-93.6523 96.6553-96.9727Q86.9141-100.293 76.2207-100.293Q65.5273-100.293 55.8105-96.9727Q46.0938-93.6523 37.9883-87.6465Q29.8828-81.6406 23.877-73.5107Q17.8711-65.3809 14.5752-55.6641Q11.2793-45.9473 11.2793-35.2539Q11.2793-24.5605 14.5996-14.8438Q17.9199-5.12695 23.9014 3.02734Q29.8828 11.1816 38.0127 17.1631Q46.1426 23.1445 55.8594 26.4648Q65.5762 29.7852 76.2695 29.7852Z"/>
   <path class="multicolor-1:white hierarchical-1:primary SFSymbolsPreviewFFFFFF" d="M53.6133-65.6738Q54.9316-67.0898 56.7383-67.041Q58.5449-66.9922 59.8633-65.6738L75.9766-49.2188Q76.6113-48.584 76.9531-47.7783Q77.2949-46.9727 77.2949-46.1426Q77.2949-44.3359 76.123-43.1396Q74.9512-41.9434 73.1445-41.9434Q71.3379-41.9434 70.1172-43.1641L63.2324-50.293L60.8887-52.832L61.0352-49.1699L61.0352-7.61719Q61.0352-5.85938 59.8145-4.66309Q58.5938-3.4668 56.7383-3.4668Q54.9316-3.4668 53.7109-4.66309Q52.4902-5.85938 52.4902-7.61719L52.4902-49.1211L52.5391-52.832L50.2441-50.293L43.3105-43.2617Q42.0898-41.9434 40.3809-41.9434Q38.5254-41.9434 37.3291-43.1396Q36.1328-44.3359 36.1328-46.1426Q36.1328-47.7051 37.4512-49.2188ZM99.0234-4.78516Q97.7051-3.4668 95.8496-3.4668Q93.9941-3.4668 92.7246-4.78516L76.5625-21.2402Q75.293-22.6562 75.293-24.3164Q75.293-26.1719 76.4404-27.3438Q77.5879-28.5156 79.4434-28.5156Q81.2988-28.5156 82.4707-27.2461L89.3555-20.2148L91.6992-17.6758L91.6016-21.2891L91.6016-62.8418Q91.6016-64.6484 92.7979-65.8447Q93.9941-67.041 95.8496-67.041Q97.6562-67.041 98.9014-65.8447Q100.146-64.6484 100.146-62.8418L100.146-21.3379L100.049-17.7246L102.393-20.2148L109.277-27.2461Q110.547-28.5156 112.256-28.5156Q114.111-28.5156 115.283-27.3438Q116.455-26.1719 116.455-24.3164Q116.455-22.7051 115.137-21.2402Z"/>
  </g>
  <g id="Medium-L" transform="matrix(1 0 0 1 1670.87 1556)">
   <path class="multicolor-0:tintColor hierarchical-0:tertiary SFSymbolsPreview007AFF" d="M75.6836 29.1504Q86.2305 29.1504 95.8496 25.8545Q105.469 22.5586 113.55 16.626Q121.631 10.6934 127.563 2.63672Q133.496-5.41992 136.792-15.0635Q140.088-24.707 140.088-35.2539Q140.088-45.8496 136.792-55.4688Q133.496-65.0879 127.539-73.1445Q121.582-81.2012 113.525-87.1582Q105.469-93.1152 95.8252-96.3867Q86.1816-99.6582 75.6348-99.6582Q65.0391-99.6582 55.4199-96.3867Q45.8008-93.1152 37.7441-87.1582Q29.6875-81.2012 23.7549-73.1445Q17.8223-65.0879 14.5508-55.4688Q11.2793-45.8496 11.2793-35.2539Q11.2793-24.707 14.5508-15.0635Q17.8223-5.41992 23.7549 2.63672Q29.6875 10.6934 37.7686 16.626Q45.8496 22.5586 55.4688 25.8545Q65.0879 29.1504 75.6836 29.1504Z"/>
   <path class="multicolor-1:white hierarchical-1:primary SFSymbolsPreviewFFFFFF" d="M53.0273-65.7227Q54.2969-66.9922 55.9814-66.9434Q57.666-66.8945 58.8867-65.7227L75.1953-49.1699Q75.7324-48.584 76.0742-47.8027Q76.416-47.0215 76.416-46.2402Q76.416-44.5312 75.3174-43.4082Q74.2188-42.2852 72.5098-42.2852Q70.8008-42.2852 69.6777-43.457L62.5977-50.7324L59.8633-53.6621L60.0098-50L60.0098-7.42188Q60.0098-5.76172 58.8623-4.63867Q57.7148-3.51562 55.957-3.51562Q54.2969-3.51562 53.125-4.63867Q51.9531-5.76172 51.9531-7.42188L51.9531-49.9512L52.0508-53.6621L49.3652-50.7324L42.2852-43.5547Q41.1133-42.2852 39.502-42.2852Q37.793-42.2852 36.6455-43.4082Q35.498-44.5312 35.498-46.2402Q35.498-47.6562 36.7676-49.1699ZM98.3887-4.6875Q97.168-3.51562 95.3857-3.51562Q93.6035-3.51562 92.4316-4.6875L76.123-21.2891Q74.9512-22.6074 74.9512-24.2188Q74.9512-25.9277 76.0254-27.0264Q77.0996-28.125 78.8574-28.125Q80.6152-28.125 81.7383-26.9531L88.7207-19.7754L91.5039-16.7969L91.3574-20.4102L91.3574-63.0371Q91.3574-64.6973 92.5049-65.8447Q93.6523-66.9922 95.4102-66.9922Q97.1191-66.9922 98.2666-65.8447Q99.4141-64.6973 99.4141-63.0371L99.4141-20.459L99.3164-16.8457L102.002-19.7754L109.082-26.9531Q110.303-28.125 111.865-28.125Q113.623-28.125 114.746-27.0264Q115.869-25.9277 115.869-24.2188Q115.869-22.6562 114.6-21.2891Z"/>
  </g>
  <g id="Regular-L" transform="matrix(1 0 0 1 1374.97 1556)">
   <path class="multicolor-0:tintColor hierarchical-0:tertiary SFSymbolsPreview007AFF" d="M74.8535 28.3203Q85.3027 28.3203 94.7998 25.0732Q104.297 21.8262 112.256 15.9668Q120.215 10.1074 126.099 2.14844Q131.982-5.81055 135.229-15.332Q138.477-24.8535 138.477-35.2539Q138.477-45.7031 135.229-55.2002Q131.982-64.6973 126.099-72.6562Q120.215-80.6152 112.256-86.499Q104.297-92.3828 94.7754-95.6299Q85.2539-98.877 74.8047-98.877Q64.3555-98.877 54.8584-95.6299Q45.3613-92.3828 37.4268-86.499Q29.4922-80.6152 23.6084-72.6562Q17.7246-64.6973 14.502-55.2002Q11.2793-45.7031 11.2793-35.2539Q11.2793-24.8535 14.5264-15.332Q17.7734-5.81055 23.6328 2.14844Q29.4922 10.1074 37.4512 15.9668Q45.4102 21.8262 54.9072 25.0732Q64.4043 28.3203 74.8535 28.3203Z"/>
   <path class="multicolor-1:white hierarchical-1:primary SFSymbolsPreviewFFFFFF" d="M52.2949-65.7715Q53.4668-66.9434 55.0049-66.8945Q56.543-66.8457 57.666-65.7715L74.1211-49.0723Q74.6582-48.5352 74.9512-47.8271Q75.2441-47.1191 75.2441-46.3867Q75.2441-44.8242 74.2432-43.7988Q73.2422-42.7734 71.6797-42.7734Q70.1172-42.7734 69.043-43.8477L61.7676-51.3184L58.5449-54.7852L58.6914-51.0742L58.6914-7.12891Q58.6914-5.61523 57.6416-4.58984Q56.5918-3.56445 54.9805-3.56445Q53.418-3.56445 52.3682-4.58984Q51.3184-5.61523 51.3184-7.12891L51.3184-51.0254L51.416-54.7852L48.1934-51.3184L40.918-43.9453Q39.7949-42.7734 38.3301-42.7734Q36.7676-42.7734 35.7178-43.7988Q34.668-44.8242 34.668-46.3867Q34.668-47.6562 35.8398-49.0723ZM97.5098-4.63867Q96.3867-3.56445 94.751-3.56445Q93.1152-3.56445 92.041-4.63867L75.5859-21.3379Q74.5117-22.5586 74.5117-24.0723Q74.5117-25.6348 75.4883-26.6357Q76.4648-27.6367 78.0762-27.6367Q79.6875-27.6367 80.7129-26.5625L87.9395-19.1895L91.2109-15.6738L91.0645-19.3359L91.0645-63.2812Q91.0645-64.8438 92.1143-65.8691Q93.1641-66.8945 94.7754-66.8945Q96.3379-66.8945 97.3877-65.8691Q98.4375-64.8438 98.4375-63.2812L98.4375-19.3848L98.3398-15.7227L101.562-19.1895L108.838-26.5625Q110.01-27.6367 111.426-27.6367Q113.037-27.6367 114.062-26.6357Q115.088-25.6348 115.088-24.0723Q115.088-22.6562 113.867-21.3379Z"/>
  </g>
  <g id="Light-L" transform="matrix(1 0 0 1 1079.18 1556)">
   <path class="multicolor-0:tintColor hierarchical-0:tertiary SFSymbolsPreview007AFF" d="M73.9258 27.3926Q84.2285 27.3926 93.6035 24.1943Q102.979 20.9961 110.815 15.2344Q118.652 9.47266 124.438 1.63574Q130.225-6.20117 133.423-15.5762Q136.621-24.9512 136.621-35.2539Q136.621-45.5566 133.423-54.9316Q130.225-64.3066 124.438-72.1436Q118.652-79.9805 110.815-85.7666Q102.979-91.5527 93.6035-94.751Q84.2285-97.9492 73.877-97.9492Q63.5742-97.9492 54.2236-94.751Q44.873-91.5527 37.0361-85.7666Q29.1992-79.9805 23.4131-72.1436Q17.627-64.3066 14.4531-54.9316Q11.2793-45.5566 11.2793-35.2539Q11.2793-24.9512 14.4775-15.5762Q17.6758-6.20117 23.4375 1.63574Q29.1992 9.47266 37.0361 15.2344Q44.873 20.9961 54.248 24.1943Q63.623 27.3926 73.9258 27.3926Z"/>
   <path class="multicolor-1:white hierarchical-1:primary SFSymbolsPreviewFFFFFF" d="M52.2949-66.0645Q53.2227-66.9922 54.4189-66.9434Q55.6152-66.8945 56.4941-66.0645L73.6816-48.8281Q74.1211-48.3887 74.3408-47.8271Q74.5605-47.2656 74.5605-46.6309Q74.5605-45.4102 73.7549-44.6045Q72.9492-43.7988 71.7285-43.7988Q70.5078-43.7988 69.5801-44.6777L61.5234-52.8809L57.1777-57.4219L57.3242-52.8809L57.3242-6.44531Q57.3242-5.22461 56.4941-4.41895Q55.6641-3.61328 54.4434-3.61328Q53.2227-3.61328 52.3682-4.41895Q51.5137-5.22461 51.5137-6.44531L51.5137-52.8809L51.6113-57.4219L47.2656-52.8809L39.209-44.7754Q38.2812-43.7988 37.1094-43.7988Q35.8887-43.7988 35.0586-44.6045Q34.2285-45.4102 34.2285-46.6309Q34.2285-47.7051 35.1562-48.8281ZM95.6543-4.44336Q94.7754-3.61328 93.5059-3.61328Q92.2363-3.61328 91.3574-4.44336L74.2188-21.6797Q73.3398-22.6074 73.3398-23.9258Q73.3398-25.0977 74.1211-25.9033Q74.9023-26.709 76.1719-26.709Q77.4902-26.709 78.3203-25.8301L86.3281-17.6758L90.7227-13.0859L90.5762-17.5781L90.5762-64.0625Q90.5762-65.2832 91.4062-66.0889Q92.2363-66.8945 93.5059-66.8945Q94.7266-66.8945 95.5566-66.0889Q96.3867-65.2832 96.3867-64.0625L96.3867-17.627L96.2891-13.1348L100.635-17.6758L108.691-25.8301Q109.668-26.709 110.84-26.709Q112.061-26.709 112.866-25.9033Q113.672-25.0977 113.672-23.9258Q113.672-22.7051 112.695-21.6797Z"/>
  </g>
  <g id="Thin-L" transform="matrix(1 0 0 1 783.693 1556)">
   <path class="multicolor-0:tintColor hierarchical-0:tertiary SFSymbolsPreview007AFF" d="M72.7051 26.1719Q82.8613 26.1719 92.041 23.0469Q101.221 19.9219 108.911 14.2822Q116.602 8.64258 122.266 0.952148Q127.93-6.73828 131.055-15.9424Q134.18-25.1465 134.18-35.2539Q134.18-45.4102 131.055-54.5898Q127.93-63.7695 122.29-71.46Q116.65-79.1504 108.936-84.8145Q101.221-90.4785 92.0166-93.6035Q82.8125-96.7285 72.7051-96.7285Q62.5488-96.7285 53.3691-93.6035Q44.1895-90.4785 36.499-84.8145Q28.8086-79.1504 23.1689-71.46Q17.5293-63.7695 14.4043-54.5898Q11.2793-45.4102 11.2793-35.2539Q11.2793-25.1465 14.4043-15.9424Q17.5293-6.73828 23.1689 0.952148Q28.8086 8.64258 36.5234 14.2822Q44.2383 19.9219 53.418 23.0469Q62.5977 26.1719 72.7051 26.1719Z"/>
   <path class="multicolor-1:white hierarchical-1:primary SFSymbolsPreviewFFFFFF" d="M52.2461-66.4551Q52.832-66.9922 53.5889-66.9678Q54.3457-66.9434 54.8828-66.4551L72.998-48.4863Q73.3398-48.1445 73.4619-47.7783Q73.584-47.4121 73.584-46.9727Q73.584-46.1914 73.0469-45.6543Q72.5098-45.1172 71.7773-45.1172Q70.9473-45.1172 70.2637-45.8008L61.1816-54.8828L55.3223-60.8887L55.4688-55.2734L55.4688-5.51758Q55.4688-4.73633 54.9561-4.1748Q54.4434-3.61328 53.6621-3.61328Q52.8809-3.61328 52.2949-4.15039Q51.709-4.6875 51.709-5.51758L51.709-55.2734L51.8555-60.8887L45.9961-54.8828L36.9141-45.8496Q36.2305-45.1172 35.4004-45.1172Q34.668-45.1172 34.1309-45.6543Q33.5938-46.1914 33.5938-46.9727Q33.5938-47.8027 34.2285-48.4863ZM93.1152-4.15039Q92.5781-3.61328 91.7969-3.61328Q91.0156-3.61328 90.4297-4.15039L72.3633-22.1191Q71.7773-22.7051 71.7773-23.6816Q71.7773-24.4629 72.29-24.9512Q72.8027-25.4395 73.584-25.4395Q74.5117-25.4395 75.1465-24.8535L84.1797-15.7227L90.0879-9.7168L89.8926-15.2832L89.8926-65.0879Q89.8926-65.8691 90.4053-66.4062Q90.918-66.9434 91.748-66.9434Q92.4805-66.9434 93.0664-66.4307Q93.6523-65.918 93.6523-65.0879L93.6523-15.2832L93.5059-9.7168L99.4141-15.7227L108.447-24.8535Q109.229-25.4395 109.961-25.4395Q110.693-25.4395 111.23-24.9268Q111.768-24.4141 111.768-23.6816Q111.768-22.8027 111.133-22.1191Z"/>
  </g>
  <g id="Ultralight-L" transform="matrix(1 0 0 1 487.592 1556)">
   <path class="multicolor-0:tintColor hierarchical-0:tertiary SFSymbolsPreview007AFF" d="M72.0703 25.5371Q82.1289 25.5371 91.2354 22.4609Q100.342 19.3848 107.935 13.7939Q115.527 8.20312 121.143 0.585938Q126.758-7.03125 129.858-16.1133Q132.959-25.1953 132.959-35.2539Q132.959-45.3125 129.858-54.4189Q126.758-63.5254 121.167-71.1182Q115.576-78.7109 107.959-84.3262Q100.342-89.9414 91.2354-93.0176Q82.1289-96.0938 72.0703-96.0938Q62.0605-96.0938 52.9541-93.0176Q43.8477-89.9414 36.2305-84.3262Q28.6133-78.7109 23.0225-71.1182Q17.4316-63.5254 14.3555-54.4189Q11.2793-45.3125 11.2793-35.2539Q11.2793-25.1953 14.3555-16.1133Q17.4316-7.03125 23.0225 0.585938Q28.6133 8.20312 36.2305 13.7939Q43.8477 19.3848 52.9541 22.4609Q62.0605 25.5371 72.0703 25.5371Z"/>
   <path class="multicolor-1:white hierarchical-1:primary SFSymbolsPreviewFFFFFF" d="M52.2461-66.6504Q52.6367-67.041 53.1738-67.0166Q53.7109-66.9922 54.1016-66.6504L72.7051-48.291Q72.9492-48.0469 73.0225-47.7783Q73.0957-47.5098 73.0957-47.1191Q73.0957-46.582 72.7051-46.1914Q72.3145-45.8008 71.8262-45.8008Q71.1914-45.8008 70.6055-46.3867L61.0352-55.957L54.3945-62.6953L54.541-56.543L54.541-5.0293Q54.541-4.49219 54.1748-4.07715Q53.8086-3.66211 53.2715-3.66211Q52.7344-3.66211 52.2949-4.05273Q51.8555-4.44336 51.8555-5.0293L51.8555-56.543L52.002-62.6953L45.3613-55.957L35.791-46.3867Q35.2051-45.8008 34.5703-45.8008Q34.082-45.8008 33.6914-46.1914Q33.3008-46.582 33.3008-47.1191Q33.3008-47.8516 33.7891-48.291ZM91.8945-4.00391Q91.4551-3.66211 90.9424-3.66211Q90.4297-3.66211 89.9902-4.00391L71.4355-22.3145Q70.9961-22.7539 70.9961-23.584Q70.9961-24.0723 71.3623-24.4385Q71.7285-24.8047 72.3145-24.8047Q72.998-24.8047 73.5352-24.3164L83.1055-14.6973L89.7461-7.95898L89.5508-14.1113L89.5508-65.5762Q89.5508-66.1621 89.917-66.5527Q90.2832-66.9434 90.8691-66.9434Q91.4062-66.9434 91.8457-66.5771Q92.2852-66.2109 92.2852-65.5762L92.2852-14.1113L92.0898-7.95898L98.7793-14.6973L108.35-24.3164Q108.984-24.8047 109.57-24.8047Q110.059-24.8047 110.425-24.4141Q110.791-24.0234 110.791-23.584Q110.791-22.8516 110.352-22.3145Z"/>
  </g>
  <g id="Black-M" transform="matrix(1 0 0 1 2871.32 1126)">
   <path class="multicolor-0:tintColor hierarchical-0:tertiary SFSymbolsPreview007AFF" d="M62.0605 18.1152Q73.0957 18.1152 82.7637 13.9648Q92.4316 9.81445 99.7559 2.46582Q107.08-4.88281 111.255-14.5264Q115.43-24.1699 115.43-35.2051Q115.43-46.2402 111.255-55.8838Q107.08-65.5273 99.7559-72.876Q92.4316-80.2246 82.7637-84.375Q73.0957-88.5254 62.0605-88.5254Q51.0742-88.5254 41.4062-84.375Q31.7383-80.2246 24.3896-72.876Q17.041-65.5273 12.8906-55.8838Q8.74023-46.2402 8.74023-35.2051Q8.74023-24.1699 12.8906-14.5264Q17.041-4.88281 24.3896 2.46582Q31.7383 9.81445 41.4062 13.9648Q51.0742 18.1152 62.0605 18.1152Z"/>
   <path class="multicolor-1:white hierarchical-1:primary SFSymbolsPreviewFFFFFF" d="M44.5312-58.7402Q45.8496-60.2051 47.7539-60.1562Q49.6582-60.1074 50.9766-58.7402L62.9883-46.2891Q64.4043-44.873 64.4043-43.2129Q64.4043-41.3086 63.1836-40.1123Q61.9629-38.916 60.0586-38.916Q58.1055-38.916 56.9824-40.1367L52.2461-45.1172L52.1484-45.2148L52.1484-42.2363L52.1484-14.7461Q52.1484-12.8906 50.9033-11.6211Q49.6582-10.3516 47.8027-10.3516Q45.9473-10.3516 44.6533-11.6211Q43.3594-12.8906 43.3594-14.7461L43.3594-42.2363L43.3594-45.2148L43.2617-45.1172L38.5254-40.1367Q37.4023-38.916 35.498-38.916Q33.6426-38.916 32.4219-40.1123Q31.2012-41.3086 31.2012-43.2129Q31.2012-44.0918 31.543-44.8975Q31.8848-45.7031 32.5195-46.2891ZM79.6387-11.8164Q78.2715-10.4004 76.3916-10.4248Q74.5117-10.4492 73.1445-11.8164L61.1328-24.2676Q59.8145-25.6348 59.8145-27.3438Q59.8145-29.248 61.0107-30.4688Q62.207-31.6895 64.1113-31.6895Q66.0156-31.6895 67.1875-30.4199L71.9238-25.4883L71.9727-25.3418L71.9727-28.3203L71.9727-55.8594Q71.9727-57.666 73.2178-58.9355Q74.4629-60.2051 76.3672-60.2051Q78.2227-60.2051 79.5166-58.9355Q80.8105-57.666 80.8105-55.8594L80.8105-28.3203L80.8105-25.3418L80.8594-25.4883L85.5957-30.4199Q86.7676-31.6895 88.623-31.6895Q90.5273-31.6895 91.748-30.4688Q92.9688-29.248 92.9688-27.3438Q92.9688-25.6348 91.6992-24.2676Z"/>
  </g>
  <g id="Heavy-M" transform="matrix(1 0 0 1 2575.43 1126)">
   <path class="multicolor-0:tintColor hierarchical-0:tertiary SFSymbolsPreview007AFF" d="M61.2305 17.2852Q72.0703 17.2852 81.5918 13.1836Q91.1133 9.08203 98.3154 1.85547Q105.518-5.37109 109.644-14.8682Q113.77-24.3652 113.77-35.2051Q113.77-46.0449 109.644-55.542Q105.518-65.0391 98.3154-72.29Q91.1133-79.541 81.5918-83.6182Q72.0703-87.6953 61.2305-87.6953Q50.4395-87.6953 40.918-83.6182Q31.3965-79.541 24.1699-72.29Q16.9434-65.0391 12.8418-55.542Q8.74023-46.0449 8.74023-35.2051Q8.74023-24.3652 12.8418-14.8682Q16.9434-5.37109 24.1699 1.85547Q31.3965 9.08203 40.918 13.1836Q50.4395 17.2852 61.2305 17.2852Z"/>
   <path class="multicolor-1:white hierarchical-1:primary SFSymbolsPreviewFFFFFF" d="M43.5547-58.7402Q44.8242-60.1074 46.6064-60.0586Q48.3887-60.0098 49.6094-58.7402L61.7188-46.2402Q63.0371-44.9219 63.0371-43.3594Q63.0371-41.5527 61.8896-40.4297Q60.7422-39.3066 58.9844-39.3066Q57.1289-39.3066 56.0547-40.4297L51.2207-45.5078L50.7324-46.0938L50.7324-43.2617L50.7324-14.5508Q50.7324-12.793 49.5605-11.6211Q48.3887-10.4492 46.6309-10.4492Q44.873-10.4492 43.6768-11.6211Q42.4805-12.793 42.4805-14.5508L42.4805-43.2129L42.4805-46.0938L41.9922-45.5078L37.1582-40.4785Q36.0352-39.3066 34.2773-39.3066Q32.5195-39.3066 31.3721-40.4297Q30.2246-41.5527 30.2246-43.3594Q30.2246-44.1406 30.5664-44.8975Q30.9082-45.6543 31.4941-46.2402ZM78.9062-11.7676Q77.6367-10.4492 75.8545-10.4736Q74.0723-10.498 72.8027-11.7676L60.6934-24.2676Q59.4727-25.5859 59.4727-27.1973Q59.4727-28.9551 60.5957-30.1025Q61.7188-31.25 63.5254-31.25Q65.2832-31.25 66.4062-30.0781L71.2402-25.0488L71.7285-24.4629L71.6797-27.2949L71.6797-56.0059Q71.6797-57.7148 72.8516-58.9111Q74.0234-60.1074 75.8301-60.1074Q77.5879-60.1074 78.7842-58.9111Q79.9805-57.7148 79.9805-56.0059L79.9805-27.2949L79.9805-24.4629L80.4688-25.0488L85.3027-30.0781Q86.4258-31.25 88.1348-31.25Q89.9414-31.25 91.0889-30.1025Q92.2363-28.9551 92.2363-27.1973Q92.2363-25.5859 91.0156-24.2676Z"/>
  </g>
  <g id="Bold-M" transform="matrix(1 0 0 1 2279.65 1126)">
   <path class="multicolor-0:tintColor hierarchical-0:tertiary SFSymbolsPreview007AFF" d="M60.3027 16.3574Q70.9473 16.3574 80.2734 12.3291Q89.5996 8.30078 96.7041 1.17188Q103.809-5.95703 107.861-15.2832Q111.914-24.6094 111.914-35.2539Q111.914-45.8496 107.861-55.1758Q103.809-64.502 96.7041-71.6309Q89.5996-78.7598 80.249-82.7881Q70.8984-86.8164 60.3027-86.8164Q49.707-86.8164 40.3564-82.7881Q31.0059-78.7598 23.9014-71.6309Q16.7969-64.502 12.7686-55.1758Q8.74023-45.8496 8.74023-35.2539Q8.74023-24.6094 12.7686-15.2832Q16.7969-5.95703 23.9258 1.17188Q31.0547 8.30078 40.3809 12.3291Q49.707 16.3574 60.3027 16.3574Z"/>
   <path class="multicolor-1:white hierarchical-1:primary SFSymbolsPreviewFFFFFF" d="M42.5293-58.7402Q43.75-60.0098 45.3857-59.9609Q47.0215-59.9121 48.1445-58.7402L60.3516-46.1914Q61.5723-45.0195 61.5723-43.5059Q61.5723-41.7969 60.498-40.7471Q59.4238-39.6973 57.8125-39.6973Q56.1035-39.6973 55.0781-40.7715L50.1465-45.9961L49.1211-47.0703L49.2188-44.3848L49.2188-14.3066Q49.2188-12.6953 48.1201-11.6211Q47.0215-10.5469 45.3613-10.5469Q43.75-10.5469 42.627-11.6211Q41.5039-12.6953 41.5039-14.3066L41.5039-44.3359L41.5527-47.0703L40.5762-45.9961L35.5957-40.8203Q34.5703-39.6973 32.959-39.6973Q31.2988-39.6973 30.2246-40.7715Q29.1504-41.8457 29.1504-43.5059Q29.1504-44.1895 29.4678-44.9219Q29.7852-45.6543 30.3223-46.1914ZM78.125-11.7676Q76.9531-10.5469 75.2686-10.5713Q73.584-10.5957 72.4121-11.7676L60.2539-24.2676Q59.082-25.5371 59.082-27.002Q59.082-28.6621 60.1318-29.7363Q61.1816-30.8105 62.8418-30.8105Q64.502-30.8105 65.5273-29.6875L70.5078-24.5605L71.4844-23.4375L71.3867-26.123L71.3867-56.2012Q71.3867-57.8125 72.4854-58.9111Q73.584-60.0098 75.293-60.0098Q76.9043-60.0098 78.0029-58.9111Q79.1016-57.8125 79.1016-56.2012L79.1016-26.123L79.1016-23.4863L80.0781-24.5605L85.0098-29.6875Q86.084-30.8105 87.6465-30.8105Q89.3555-30.8105 90.4297-29.7363Q91.5039-28.6621 91.5039-27.002Q91.5039-25.5371 90.332-24.2676Z"/>
  </g>
  <g id="Semibold-M" transform="matrix(1 0 0 1 1983.6 1126)">
   <path class="multicolor-0:tintColor hierarchical-0:tertiary SFSymbolsPreview007AFF" d="M59.668 15.6738Q70.1172 15.6738 79.3457 11.6943Q88.5742 7.71484 95.6055 0.683594Q102.637-6.34766 106.616-15.5518Q110.596-24.7559 110.596-35.2539Q110.596-45.7031 106.616-54.9072Q102.637-64.1113 95.6055-71.1426Q88.5742-78.1738 79.3457-82.1777Q70.1172-86.1816 59.6191-86.1816Q49.1699-86.1816 39.9658-82.1777Q30.7617-78.1738 23.7305-71.1426Q16.6992-64.1113 12.7197-54.9072Q8.74023-45.7031 8.74023-35.2539Q8.74023-24.7559 12.7197-15.5518Q16.6992-6.34766 23.7305 0.683594Q30.7617 7.71484 39.9902 11.6943Q49.2188 15.6738 59.668 15.6738Z"/>
   <path class="multicolor-1:white hierarchical-1:primary SFSymbolsPreviewFFFFFF" d="M41.7969-58.7402Q42.9688-59.9609 44.5068-59.9121Q46.0449-59.8633 47.1191-58.7402L59.375-46.1426Q60.498-45.0195 60.498-43.6035Q60.498-41.9922 59.4971-40.9912Q58.4961-39.9902 56.9824-39.9902Q55.3711-39.9902 54.3945-41.0156L49.3652-46.2891L48.0469-47.7051L48.1445-45.1172L48.1445-14.1602Q48.1445-12.6465 47.1191-11.6211Q46.0938-10.5957 44.4824-10.5957Q42.9199-10.5957 41.8701-11.6211Q40.8203-12.6465 40.8203-14.1602L40.8203-45.1172L40.918-47.7051L39.5996-46.2891L34.5215-41.0645Q33.4961-39.9902 32.0312-39.9902Q30.4688-39.9902 29.4434-40.9912Q28.418-41.9922 28.418-43.6035Q28.418-44.2383 28.7354-44.9219Q29.0527-45.6055 29.541-46.1426ZM77.5879-11.7188Q76.4648-10.5957 74.8535-10.5957Q73.2422-10.5957 72.168-11.7188L59.9121-24.2676Q58.8379-25.4883 58.8379-26.8555Q58.8379-28.4668 59.8145-29.4678Q60.791-30.4688 62.4023-30.4688Q63.9648-30.4688 64.9414-29.3945L69.9707-24.2188L71.2891-22.7539L71.1914-25.293L71.1914-56.3477Q71.1914-57.8125 72.2412-58.8623Q73.291-59.9121 74.9023-59.9121Q76.416-59.9121 77.4658-58.8623Q78.5156-57.8125 78.5156-56.3477L78.5156-25.3418L78.4668-22.7539L79.7852-24.2188L84.8145-29.3945Q85.8398-30.4688 87.3047-30.4688Q88.916-30.4688 89.9414-29.4678Q90.9668-28.4668 90.9668-26.8555Q90.9668-25.4883 89.7949-24.2676Z"/>
  </g>
  <g id="Medium-M" transform="matrix(1 0 0 1 1687.38 1126)">
   <path class="multicolor-0:tintColor hierarchical-0:tertiary SFSymbolsPreview007AFF" d="M59.1797 15.1855Q69.5312 15.1855 78.6621 11.2305Q87.793 7.27539 94.751 0.317383Q101.709-6.64062 105.664-15.7715Q109.619-24.9023 109.619-35.2539Q109.619-45.6055 105.664-54.7363Q101.709-63.8672 94.751-70.8252Q87.793-77.7832 78.6377-81.7383Q69.4824-85.6934 59.1309-85.6934Q48.7793-85.6934 39.6484-81.7383Q30.5176-77.7832 23.584-70.8252Q16.6504-63.8672 12.6953-54.7363Q8.74023-45.6055 8.74023-35.2539Q8.74023-24.9023 12.6953-15.7715Q16.6504-6.64062 23.6084 0.317383Q30.5664 7.27539 39.6973 11.2305Q48.8281 15.1855 59.1797 15.1855Z"/>
   <path class="multicolor-1:white hierarchical-1:primary SFSymbolsPreviewFFFFFF" d="M41.2598-58.7402Q42.3828-59.8633 43.8232-59.8145Q45.2637-59.7656 46.3379-58.7402L58.5938-46.1426Q59.7168-45.0684 59.7168-43.6523Q59.7168-42.0898 58.7646-41.1377Q57.8125-40.1855 56.3477-40.1855Q54.834-40.1855 53.8574-41.1621L48.7793-46.5332L47.168-48.2422L47.3145-45.7031L47.3145-14.0137Q47.3145-12.5488 46.3135-11.5967Q45.3125-10.6445 43.7988-10.6445Q42.2852-10.6445 41.3086-11.5967Q40.332-12.5488 40.332-14.0137L40.332-45.7031L40.3809-48.2422L38.8184-46.5332L33.6914-41.2598Q32.7148-40.1855 31.2988-40.1855Q29.7852-40.1855 28.8086-41.1621Q27.832-42.1387 27.832-43.6523Q27.832-44.2383 28.125-44.9219Q28.418-45.6055 28.9062-46.1426ZM77.1484-11.7188Q76.0742-10.6445 74.5361-10.6445Q72.998-10.6445 71.9238-11.7188L59.668-24.2676Q58.5938-25.4395 58.5938-26.8066Q58.5938-28.2715 59.5459-29.248Q60.498-30.2246 62.0117-30.2246Q63.5254-30.2246 64.4531-29.1992L69.5801-23.9746L71.1426-22.2168L70.9961-24.6582L70.9961-56.3965Q70.9961-57.8613 71.9971-58.8623Q72.998-59.8633 74.5605-59.8633Q76.0254-59.8633 77.002-58.8623Q77.9785-57.8613 77.9785-56.3965L77.9785-24.707L77.9785-22.2656L79.541-23.9746L84.6191-29.1992Q85.6445-30.2246 87.0117-30.2246Q88.5742-30.2246 89.5508-29.248Q90.5273-28.2715 90.5273-26.8066Q90.5273-25.4883 89.4043-24.2676Z"/>
  </g>
  <g id="Regular-M" transform="matrix(1 0 0 1 1391.3 1126)">
   <path class="multicolor-0:tintColor hierarchical-0:tertiary SFSymbolsPreview007AFF" d="M58.5449 14.5508Q68.75 14.5508 77.7588 10.6445Q86.7676 6.73828 93.6523-0.146484Q100.537-7.03125 104.443-16.04Q108.35-25.0488 108.35-35.2539Q108.35-45.459 104.443-54.4678Q100.537-63.4766 93.6523-70.3613Q86.7676-77.2461 77.7344-81.1523Q68.7012-85.0586 58.4961-85.0586Q48.291-85.0586 39.2822-81.1523Q30.2734-77.2461 23.4131-70.3613Q16.5527-63.4766 12.6465-54.4678Q8.74023-45.459 8.74023-35.2539Q8.74023-25.0488 12.6465-16.04Q16.5527-7.03125 23.4375-0.146484Q30.3223 6.73828 39.3311 10.6445Q48.3398 14.5508 58.5449 14.5508Z"/>
   <path class="multicolor-1:white hierarchical-1:primary SFSymbolsPreviewFFFFFF" d="M40.5273-58.7402Q41.6016-59.8145 42.9688-59.7656Q44.3359-59.7168 45.3125-58.7402L57.666-46.0938Q58.6914-45.1172 58.6914-43.75Q58.6914-42.2852 57.7881-41.3818Q56.8848-40.4785 55.5176-40.4785Q54.1016-40.4785 53.1738-41.4062L47.998-46.8262L46.0938-48.877L46.2402-46.4844L46.2402-13.8672Q46.2402-12.5 45.3125-11.5967Q44.3848-10.6934 42.9199-10.6934Q41.5039-10.6934 40.5762-11.5967Q39.6484-12.5 39.6484-13.8672L39.6484-46.4355L39.7461-48.877L37.8418-46.8262L32.666-41.5039Q31.6895-40.4785 30.3711-40.4785Q28.9551-40.4785 28.0273-41.4062Q27.0996-42.334 27.0996-43.75Q27.0996-44.2871 27.3926-44.9219Q27.6855-45.5566 28.125-46.0938ZM76.6113-11.6699Q75.5859-10.6934 74.1211-10.6934Q72.6562-10.6934 71.6797-11.6699L59.3262-24.2676Q58.3496-25.3906 58.3496-26.6602Q58.3496-28.0762 59.2285-28.9795Q60.1074-29.8828 61.5723-29.8828Q62.9883-29.8828 63.8672-28.9062L69.043-23.6328L70.9473-21.5332L70.8008-23.877L70.8008-56.543Q70.8008-57.9102 71.7529-58.8379Q72.7051-59.7656 74.1699-59.7656Q75.5371-59.7656 76.4648-58.8379Q77.3926-57.9102 77.3926-56.543L77.3926-23.9258L77.3438-21.582L79.248-23.6328L84.4238-28.9062Q85.4004-29.8828 86.6699-29.8828Q88.1348-29.8828 89.0625-28.9795Q89.9902-28.0762 89.9902-26.6602Q89.9902-25.4395 88.916-24.2676Z"/>
  </g>
  <g id="Light-M" transform="matrix(1 0 0 1 1095.42 1126)">
   <path class="multicolor-0:tintColor hierarchical-0:tertiary SFSymbolsPreview007AFF" d="M57.7148 13.7207Q67.7734 13.7207 76.6357 9.8877Q85.498 6.05469 92.2607-0.708008Q99.0234-7.4707 102.856-16.333Q106.689-25.1953 106.689-35.2539Q106.689-45.3125 102.856-54.1748Q99.0234-63.0371 92.2607-69.7998Q85.498-76.5625 76.6113-80.3955Q67.7246-84.2285 57.666-84.2285Q47.6074-84.2285 38.7451-80.3955Q29.8828-76.5625 23.1445-69.7998Q16.4062-63.0371 12.5732-54.1748Q8.74023-45.3125 8.74023-35.2539Q8.74023-25.1953 12.5732-16.333Q16.4062-7.4707 23.1689-0.708008Q29.9316 6.05469 38.7939 9.8877Q47.6562 13.7207 57.7148 13.7207Z"/>
   <path class="multicolor-1:white hierarchical-1:primary SFSymbolsPreviewFFFFFF" d="M40.5273-58.9844Q41.3574-59.8145 42.4316-59.79Q43.5059-59.7656 44.2871-58.9844L57.2754-45.8496Q58.0566-45.0684 58.0566-43.9453Q58.0566-42.8223 57.3486-42.1143Q56.6406-41.4062 55.5664-41.4062Q54.4434-41.4062 53.6621-42.1875L47.8027-48.2422L44.873-51.2207L45.0195-48.0957L45.0195-13.2324Q45.0195-12.1582 44.2871-11.4502Q43.5547-10.7422 42.4316-10.7422Q41.3086-10.7422 40.5518-11.4502Q39.7949-12.1582 39.7949-13.2324L39.7949-48.0957L39.9414-51.2207L37.0117-48.2422L31.1523-42.2363Q30.3223-41.4062 29.248-41.4062Q28.1738-41.4062 27.4414-42.1387Q26.709-42.8711 26.709-43.9453Q26.709-44.4336 26.9287-44.9463Q27.1484-45.459 27.5391-45.8496ZM74.9512-11.4746Q74.1211-10.6934 72.998-10.6934Q71.875-10.6934 71.0938-11.4746L58.1055-24.5605Q57.3242-25.4395 57.3242-26.5137Q57.3242-27.6367 58.0322-28.3447Q58.7402-29.0527 59.8633-29.0527Q60.9863-29.0527 61.7188-28.2715L67.627-22.2656L70.5078-19.2383L70.3613-22.3145L70.3613-57.2266Q70.3613-58.3008 71.1182-59.0332Q71.875-59.7656 72.998-59.7656Q74.0723-59.7656 74.8291-59.0332Q75.5859-58.3008 75.5859-57.2266L75.5859-22.3633L75.5371-19.2871L78.418-22.2656L84.2773-28.2715Q85.1074-29.0527 86.1328-29.0527Q87.2559-29.0527 87.9883-28.3203Q88.7207-27.5879 88.7207-26.5137Q88.7207-25.4883 87.8906-24.5605Z"/>
  </g>
  <g id="Thin-M" transform="matrix(1 0 0 1 799.782 1126)">
   <path class="multicolor-0:tintColor hierarchical-0:tertiary SFSymbolsPreview007AFF" d="M56.5918 12.5977Q66.5039 12.5977 75.1709 8.88672Q83.8379 5.17578 90.4297-1.44043Q97.0215-8.05664 100.781-16.7236Q104.541-25.3906 104.541-35.2539Q104.541-45.1172 100.781-53.7842Q97.0215-62.4512 90.4297-69.0674Q83.8379-75.6836 75.1709-79.3945Q66.5039-83.1055 56.5918-83.1055Q46.7285-83.1055 38.0615-79.3945Q29.3945-75.6836 22.8271-69.0674Q16.2598-62.4512 12.5-53.7842Q8.74023-45.1172 8.74023-35.2539Q8.74023-25.3906 12.4756-16.7236Q16.2109-8.05664 22.8027-1.44043Q29.3945 5.17578 38.0859 8.88672Q46.7773 12.5977 56.5918 12.5977Z"/>
   <path class="multicolor-1:white hierarchical-1:primary SFSymbolsPreviewFFFFFF" d="M40.5273-59.3262Q41.0156-59.8633 41.6992-59.8389Q42.3828-59.8145 42.9199-59.3262L56.6895-45.5566Q57.2266-45.0684 57.2266-44.2383Q57.2266-43.5547 56.7383-43.0664Q56.25-42.5781 55.6152-42.5781Q54.8828-42.5781 54.2969-43.2129L47.5098-50.0488L43.2617-54.3457L43.3594-50.293L43.3594-12.4023Q43.3594-11.7188 42.9199-11.2305Q42.4805-10.7422 41.748-10.7422Q41.0156-10.7422 40.5273-11.2061Q40.0391-11.6699 40.0391-12.4023L40.0391-50.2441L40.1367-54.3457L35.9375-50.0488L29.1016-43.2129Q28.5156-42.5781 27.7832-42.5781Q27.0996-42.5781 26.6357-43.0664Q26.1719-43.5547 26.1719-44.2383Q26.1719-44.5801 26.3184-44.9219Q26.4648-45.2637 26.7578-45.5566ZM72.7539-11.2305Q72.2168-10.7422 71.5088-10.7422Q70.8008-10.7422 70.3125-11.2305L56.4453-24.9512Q55.957-25.4883 55.957-26.3184Q55.957-27.002 56.3965-27.4658Q56.8359-27.9297 57.5684-27.9297Q58.3496-27.9297 58.8867-27.3926L65.6738-20.5078L69.9707-16.2109L69.8242-20.2637L69.8242-58.1543Q69.8242-58.8379 70.2881-59.3262Q70.752-59.8145 71.4355-59.8145Q72.168-59.8145 72.6562-59.3262Q73.1445-58.8379 73.1445-58.1543L73.1445-20.2637L73.0957-16.2109L77.2949-20.5078L84.082-27.3926Q84.7168-27.9297 85.4004-27.9297Q86.084-27.9297 86.5723-27.4658Q87.0605-27.002 87.0605-26.3184Q87.0605-25.5859 86.4746-24.9512Z"/>
  </g>
  <g id="Ultralight-M" transform="matrix(1 0 0 1 503.632 1126)">
   <path class="multicolor-0:tintColor hierarchical-0:tertiary SFSymbolsPreview007AFF" d="M56.0547 12.0605Q65.8203 12.0605 74.3896 8.37402Q82.959 4.6875 89.4775-1.83105Q95.9961-8.34961 99.707-16.9189Q103.418-25.4883 103.418-35.2539Q103.418-45.0195 99.707-53.5889Q95.9961-62.1582 89.4775-68.6768Q82.959-75.1953 74.3896-78.8818Q65.8203-82.5684 56.0547-82.5684Q46.2891-82.5684 37.7197-78.8818Q29.1504-75.1953 22.6562-68.6768Q16.1621-62.1582 12.4512-53.5889Q8.74023-45.0195 8.74023-35.2539Q8.74023-25.4883 12.4268-16.9189Q16.1133-8.34961 22.6318-1.83105Q29.1504 4.6875 37.7197 8.37402Q46.2891 12.0605 56.0547 12.0605Z"/>
   <path class="multicolor-1:white hierarchical-1:primary SFSymbolsPreviewFFFFFF" d="M40.5273-59.5215Q40.8691-59.8633 41.3574-59.8633Q41.8457-59.8633 42.2363-59.5215L56.4453-45.4102Q56.8359-45.0195 56.8359-44.3848Q56.8359-43.8965 56.4697-43.5547Q56.1035-43.2129 55.6641-43.2129Q55.1758-43.2129 54.6387-43.7012L47.3633-51.0254L42.4805-55.957L42.5781-51.3672L42.5781-11.9629Q42.5781-11.5234 42.2607-11.1572Q41.9434-10.791 41.4062-10.791Q40.918-10.791 40.5273-11.1328Q40.1367-11.4746 40.1367-11.9629L40.1367-51.3672L40.2832-55.957L35.4004-51.0254L28.0762-43.75Q27.5879-43.2129 27.0508-43.2129Q26.6113-43.2129 26.2695-43.5791Q25.9277-43.9453 25.9277-44.3848Q25.9277-44.6777 26.0254-44.9463Q26.123-45.2148 26.3672-45.4102ZM71.6309-11.084Q71.2402-10.7422 70.7764-10.7422Q70.3125-10.7422 69.9219-11.084L55.6641-25.1953Q55.3223-25.5371 55.3223-26.2207Q55.3223-26.709 55.6396-27.0264Q55.957-27.3438 56.4453-27.3438Q57.0312-27.3438 57.4707-26.9531L64.7461-19.5801L69.6777-14.6484L69.5312-19.1895L69.5312-58.6426Q69.5312-59.082 69.873-59.4482Q70.2148-59.8145 70.7031-59.8145Q71.1914-59.8145 71.582-59.4727Q71.9727-59.1309 71.9727-58.6426L71.9727-19.1895L71.875-14.6484L76.7578-19.5801L84.0332-26.9531Q84.5703-27.3438 85.0586-27.3438Q85.498-27.3438 85.8643-27.002Q86.2305-26.6602 86.2305-26.2207Q86.2305-25.6348 85.791-25.1953Z"/>
  </g>
  <g id="Black-S" transform="matrix(1 0 0 1 2884.57 696)">
   <path class="multicolor-0:tintColor hierarchical-0:tertiary SFSymbolsPreview007AFF" d="M48.8281 6.78711Q57.5195 6.78711 65.1123 3.51562Q72.7051 0.244141 78.4912-5.54199Q84.2773-11.3281 87.5488-18.9209Q90.8203-26.5137 90.8203-35.2051Q90.8203-43.8965 87.5488-51.4893Q84.2773-59.082 78.4912-64.8682Q72.7051-70.6543 65.1123-73.9258Q57.5195-77.1973 48.8281-77.1973Q40.1367-77.1973 32.5439-73.9258Q24.9512-70.6543 19.165-64.8682Q13.3789-59.082 10.1074-51.4893Q6.83594-43.8965 6.83594-35.2051Q6.83594-26.5137 10.1074-18.9209Q13.3789-11.3281 19.165-5.54199Q24.9512 0.244141 32.5439 3.51562Q40.1367 6.78711 48.8281 6.78711Z"/>
   <path class="multicolor-1:white hierarchical-1:primary SFSymbolsPreviewFFFFFF" d="M35.1562-53.6621Q36.2305-54.834 37.7197-54.8096Q39.209-54.7852 40.2832-53.6621L49.707-43.8965Q50.8301-42.7734 50.8301-41.4551Q50.8301-39.9414 49.8535-38.9893Q48.877-38.0371 47.3633-38.0371Q45.8496-38.0371 44.9219-39.0137L41.2109-42.9199L41.2109-42.9199L41.2109-40.5273L41.2109-19.1895Q41.2109-17.7246 40.2344-16.7236Q39.2578-15.7227 37.7441-15.7227Q36.2793-15.7227 35.2539-16.7236Q34.2285-17.7246 34.2285-19.1895L34.2285-40.5273L34.2285-42.9199L34.2285-42.9199L30.5176-39.0137Q29.5898-38.0371 28.125-38.0371Q26.6113-38.0371 25.6592-38.9893Q24.707-39.9414 24.707-41.4551Q24.707-42.8711 25.7324-43.8965ZM62.5-16.8945Q61.4258-15.7715 59.9365-15.7959Q58.4473-15.8203 57.373-16.8945L47.9492-26.6602Q46.875-27.7344 46.875-29.1016Q46.875-30.6152 47.8271-31.5674Q48.7793-32.5195 50.293-32.5195Q51.8066-32.5195 52.7344-31.543L56.4453-27.6367L56.4453-27.6367L56.4453-30.0293L56.4453-51.3672Q56.4453-52.832 57.4219-53.833Q58.3984-54.834 59.9121-54.834Q61.377-54.834 62.4023-53.833Q63.4277-52.832 63.4277-51.3672L63.4277-30.0293L63.4277-27.6367L63.4277-27.6367L67.1387-31.543Q68.0664-32.5195 69.5312-32.5195Q71.0449-32.5195 71.9971-31.5674Q72.9492-30.6152 72.9492-29.1016Q72.9492-27.7344 71.9727-26.6602Z"/>
  </g>
  <g id="Heavy-S" transform="matrix(1 0 0 1 2588.47 696)">
   <path class="multicolor-0:tintColor hierarchical-0:tertiary SFSymbolsPreview007AFF" d="M48.1934 6.15234Q56.7871 6.15234 64.2578 2.92969Q71.7285-0.292969 77.4414-6.00586Q83.1543-11.7188 86.377-19.1895Q89.5996-26.6602 89.5996-35.2051Q89.5996-43.75 86.377-51.2451Q83.1543-58.7402 77.4414-64.4531Q71.7285-70.166 64.2334-73.3887Q56.7383-76.6113 48.1934-76.6113Q39.6484-76.6113 32.1777-73.3887Q24.707-70.166 18.9941-64.4531Q13.2812-58.7402 10.0586-51.2451Q6.83594-43.75 6.83594-35.2051Q6.83594-26.6602 10.0586-19.1895Q13.2812-11.7188 18.9941-6.00586Q24.707-0.292969 32.2021 2.92969Q39.6973 6.15234 48.1934 6.15234Z"/>
   <path class="multicolor-1:white hierarchical-1:primary SFSymbolsPreviewFFFFFF" d="M34.3262-53.6133Q35.4004-54.7363 36.8164-54.7119Q38.2324-54.6875 39.2578-53.6133L48.6816-43.8965Q49.7559-42.8223 49.7559-41.5527Q49.7559-40.0879 48.8281-39.1602Q47.9004-38.2324 46.4355-38.2324Q44.9707-38.2324 44.0918-39.1602L40.3809-43.0664L40.1367-43.3594L40.1855-41.1621L40.1855-19.0918Q40.1855-17.6758 39.2334-16.7236Q38.2812-15.7715 36.8164-15.7715Q35.4004-15.7715 34.4238-16.7236Q33.4473-17.6758 33.4473-19.0918L33.4473-41.1621L33.4473-43.3594L33.252-43.0664L29.541-39.209Q28.6133-38.2324 27.2461-38.2324Q25.7812-38.2324 24.8535-39.1602Q23.9258-40.0879 23.9258-41.5527Q23.9258-42.8223 24.9023-43.8965ZM62.1094-16.8945Q61.084-15.8203 59.6191-15.8447Q58.1543-15.8691 57.1289-16.8945L47.7539-26.6113Q46.7285-27.6855 46.7285-29.0039Q46.7285-30.4199 47.6318-31.3477Q48.5352-32.2754 50-32.2754Q51.416-32.2754 52.3438-31.3477L56.0547-27.4414L56.2988-27.1484L56.25-29.3457L56.25-51.416Q56.25-52.832 57.2021-53.7842Q58.1543-54.7363 59.6191-54.7363Q61.0352-54.7363 62.0117-53.7842Q62.9883-52.832 62.9883-51.416L62.9883-29.3457L62.9395-27.1973L63.1836-27.4414L66.8945-31.3477Q67.8223-32.2754 69.1895-32.2754Q70.6543-32.2754 71.582-31.3477Q72.5098-30.4199 72.5098-29.0039Q72.5098-27.6855 71.5332-26.6113Z"/>
  </g>
  <g id="Bold-S" transform="matrix(1 0 0 1 2292.42 696)">
   <path class="multicolor-0:tintColor hierarchical-0:tertiary SFSymbolsPreview007AFF" d="M47.5586 5.46875Q55.957 5.46875 63.3057 2.29492Q70.6543-0.878906 76.2695-6.51855Q81.8848-12.1582 85.083-19.5068Q88.2812-26.8555 88.2812-35.2539Q88.2812-43.6035 85.083-50.9766Q81.8848-58.3496 76.2695-63.9648Q70.6543-69.5801 63.2812-72.7539Q55.9082-75.9277 47.5098-75.9277Q39.1602-75.9277 31.7871-72.7539Q24.4141-69.5801 18.8232-63.9648Q13.2324-58.3496 10.0342-50.9766Q6.83594-43.6035 6.83594-35.2539Q6.83594-26.8555 10.0342-19.5068Q13.2324-12.1582 18.8477-6.51855Q24.4629-0.878906 31.8115 2.29492Q39.1602 5.46875 47.5586 5.46875Z"/>
   <path class="multicolor-1:white hierarchical-1:primary SFSymbolsPreviewFFFFFF" d="M33.4961-53.6133Q34.5215-54.6387 35.8643-54.6143Q37.207-54.5898 38.1836-53.6133L47.6074-43.8965Q48.584-42.8711 48.584-41.6504Q48.584-40.2344 47.7051-39.3555Q46.8262-38.4766 45.459-38.4766Q44.0918-38.4766 43.2129-39.3555L39.502-43.2617L39.0137-43.8477L39.0625-41.8945L39.0625-18.9941Q39.0625-17.6758 38.1592-16.7725Q37.2559-15.8691 35.8398-15.8691Q34.4727-15.8691 33.5693-16.7725Q32.666-17.6758 32.666-18.9941L32.666-41.8945L32.666-43.8477L32.1777-43.2617L28.4668-39.4043Q27.5879-38.4766 26.2695-38.4766Q24.9023-38.4766 23.999-39.3555Q23.0957-40.2344 23.0957-41.6504Q23.0957-42.8223 24.0723-43.8965ZM61.7188-16.8945Q60.7422-15.8691 59.3262-15.8936Q57.9102-15.918 56.9336-16.8945L47.5586-26.6113Q46.582-27.6367 46.582-28.8574Q46.582-30.2734 47.4609-31.1279Q48.3398-31.9824 49.707-31.9824Q51.0742-31.9824 51.9531-31.1035L55.6641-27.2461L56.1523-26.6602L56.1035-28.5645L56.1035-51.4648Q56.1035-52.832 57.0312-53.7354Q57.959-54.6387 59.3262-54.6387Q60.6934-54.6387 61.5967-53.7354Q62.5-52.832 62.5-51.4648L62.5-28.6133L62.5-26.6602L62.9883-27.2461L66.6992-31.1035Q67.5781-31.9824 68.8965-31.9824Q70.3125-31.9824 71.1914-31.1279Q72.0703-30.2734 72.0703-28.8574Q72.0703-27.6367 71.0938-26.6113Z"/>
  </g>
  <g id="Semibold-S" transform="matrix(1 0 0 1 1996.2 696)">
   <path class="multicolor-0:tintColor hierarchical-0:tertiary SFSymbolsPreview007AFF" d="M47.0703 4.98047Q55.3711 4.98047 62.6465 1.85547Q69.9219-1.26953 75.4639-6.86035Q81.0059-12.4512 84.1553-19.7266Q87.3047-27.002 87.3047-35.2539Q87.3047-43.5059 84.1553-50.7812Q81.0059-58.0566 75.4395-63.623Q69.873-69.1895 62.5977-72.3389Q55.3223-75.4883 47.0215-75.4883Q38.7695-75.4883 31.4941-72.3389Q24.2188-69.1895 18.6768-63.623Q13.1348-58.0566 9.98535-50.7812Q6.83594-43.5059 6.83594-35.2539Q6.83594-27.002 9.98535-19.7266Q13.1348-12.4512 18.7012-6.86035Q24.2676-1.26953 31.543 1.85547Q38.8184 4.98047 47.0703 4.98047Z"/>
   <path class="multicolor-1:white hierarchical-1:primary SFSymbolsPreviewFFFFFF" d="M32.8125-53.5645Q33.8379-54.5898 35.1318-54.5654Q36.4258-54.541 37.3535-53.5645L46.7773-43.8477Q47.7051-42.9199 47.7051-41.6992Q47.7051-40.332 46.875-39.4775Q46.0449-38.623 44.6777-38.623Q43.3594-38.623 42.5293-39.502L38.8184-43.4082L38.1348-44.1895L38.1836-42.3828L38.1836-18.9453Q38.1836-17.627 37.3047-16.748Q36.4258-15.8691 35.1074-15.8691Q33.7891-15.8691 32.9102-16.748Q32.0312-17.627 32.0312-18.9453L32.0312-42.3828L32.0312-44.1895L31.3965-43.4082L27.6367-39.5508Q26.8066-38.623 25.5371-38.623Q24.2188-38.623 23.3398-39.4775Q22.4609-40.332 22.4609-41.6992Q22.4609-42.7734 23.3887-43.8477ZM61.377-16.8457Q60.4004-15.918 59.0332-15.918Q57.666-15.918 56.7383-16.8457L47.3145-26.5625Q46.4355-27.5879 46.4355-28.7598Q46.4355-30.127 47.2656-30.957Q48.0957-31.7871 49.4629-31.7871Q50.7812-31.7871 51.6113-30.9082L55.3223-27.0508L56.0059-26.2695L55.9082-28.0273L55.9082-51.5137Q55.9082-52.832 56.8115-53.7109Q57.7148-54.5898 59.082-54.5898Q60.3516-54.5898 61.2305-53.7109Q62.1094-52.832 62.1094-51.5137L62.1094-28.0762L62.0605-26.3184L62.793-27.0508L66.5039-30.9082Q67.334-31.7871 68.6035-31.7871Q69.9707-31.7871 70.8252-30.957Q71.6797-30.127 71.6797-28.7598Q71.6797-27.5879 70.7031-26.5625Z"/>
  </g>
  <g id="Medium-S" transform="matrix(1 0 0 1 1699.83 696)">
   <path class="multicolor-0:tintColor hierarchical-0:tertiary SFSymbolsPreview007AFF" d="M46.7285 4.63867Q54.9316 4.63867 62.1338 1.51367Q69.3359-1.61133 74.8535-7.12891Q80.3711-12.6465 83.4961-19.8486Q86.6211-27.0508 86.6211-35.2539Q86.6211-43.4082 83.4961-50.6348Q80.3711-57.8613 74.8291-63.3789Q69.2871-68.8965 62.085-71.9971Q54.8828-75.0977 46.6797-75.0977Q38.4766-75.0977 31.2744-71.9971Q24.0723-68.8965 18.5791-63.3789Q13.0859-57.8613 9.96094-50.6348Q6.83594-43.4082 6.83594-35.2539Q6.83594-27.0508 9.96094-19.8486Q13.0859-12.6465 18.6035-7.12891Q24.1211-1.61133 31.3232 1.51367Q38.5254 4.63867 46.7285 4.63867Z"/>
   <path class="multicolor-1:white hierarchical-1:primary SFSymbolsPreviewFFFFFF" d="M32.373-53.5645Q33.3496-54.4922 34.6191-54.4678Q35.8887-54.4434 36.8164-53.5645L46.1914-43.8477Q47.1191-42.9199 47.1191-41.748Q47.1191-40.4297 46.2891-39.5996Q45.459-38.7695 44.1406-38.7695Q42.8711-38.7695 42.0898-39.5508L38.3789-43.457L37.5-44.4336L37.5977-42.7734L37.5977-18.8477Q37.5977-17.627 36.7432-16.7725Q35.8887-15.918 34.5703-15.918Q33.252-15.918 32.4219-16.7725Q31.5918-17.627 31.5918-18.8477L31.5918-42.7246L31.6406-44.4336L30.8105-43.457L27.0508-39.6484Q26.2695-38.7695 25.0488-38.7695Q23.7305-38.7695 22.876-39.5996Q22.0215-40.4297 22.0215-41.748Q22.0215-42.7734 22.9492-43.8477ZM61.1328-16.8457Q60.2051-15.918 58.8623-15.918Q57.5195-15.918 56.5918-16.8457L47.2168-26.5625Q46.3379-27.5391 46.3379-28.7109Q46.3379-30.0293 47.168-30.835Q47.998-31.6406 49.2676-31.6406Q50.5859-31.6406 51.3672-30.7617L55.127-26.9531L55.9082-25.9766L55.8594-27.6367L55.8594-51.5137Q55.8594-52.832 56.7383-53.6621Q57.6172-54.4922 58.8867-54.4922Q60.1562-54.4922 61.0107-53.6621Q61.8652-52.832 61.8652-51.5137L61.8652-27.6855L61.8164-26.0254L62.6465-26.9531L66.3574-30.7617Q67.2363-31.6406 68.457-31.6406Q69.7754-31.6406 70.6055-30.835Q71.4355-30.0293 71.4355-28.7109Q71.4355-27.5879 70.5078-26.5625Z"/>
  </g>
  <g id="Regular-S" transform="matrix(1 0 0 1 1403.58 696)">
   <path class="multicolor-0:tintColor hierarchical-0:tertiary SFSymbolsPreview007AFF" d="M46.2402 4.15039Q54.3457 4.15039 61.4746 1.07422Q68.6035-2.00195 74.0479-7.4707Q79.4922-12.9395 82.5928-20.0684Q85.6934-27.1973 85.6934-35.2539Q85.6934-43.3105 82.5928-50.4395Q79.4922-57.5684 74.0234-63.0371Q68.5547-68.5059 61.4258-71.582Q54.2969-74.6582 46.1914-74.6582Q38.1348-74.6582 31.0059-71.582Q23.877-68.5059 18.457-63.0371Q13.0371-57.5684 9.93652-50.4395Q6.83594-43.3105 6.83594-35.2539Q6.83594-27.1973 9.93652-20.0684Q13.0371-12.9395 18.4814-7.4707Q23.9258-2.00195 31.0547 1.07422Q38.1836 4.15039 46.2402 4.15039Z"/>
   <path class="multicolor-1:white hierarchical-1:primary SFSymbolsPreviewFFFFFF" d="M31.7383-53.5156Q32.7148-54.4434 33.9355-54.4189Q35.1562-54.3945 36.0352-53.5156L45.4102-43.8477Q46.2891-42.9688 46.2891-41.7969Q46.2891-40.5273 45.5078-39.7217Q44.7266-38.916 43.457-38.916Q42.2363-38.916 41.4551-39.6973L37.7441-43.6035L36.7188-44.7754L36.8164-43.2617L36.8164-18.7988Q36.8164-17.5781 35.9863-16.7725Q35.1562-15.9668 33.8867-15.9668Q32.6172-15.9668 31.8115-16.7725Q31.0059-17.5781 31.0059-18.7988L31.0059-43.2129L31.0547-44.7754L30.0781-43.6035L26.3184-39.7949Q25.5371-38.916 24.3652-38.916Q23.0957-38.916 22.2656-39.7217Q21.4355-40.5273 21.4355-41.7969Q21.4355-42.7246 22.3145-43.8477ZM60.8398-16.8457Q59.9609-15.9668 58.6426-15.9668Q57.3242-15.9668 56.4453-16.8457L47.0703-26.5137Q46.2402-27.4902 46.2402-28.6133Q46.2402-29.8828 47.0215-30.6641Q47.8027-31.4453 49.0723-31.4453Q50.293-31.4453 51.0742-30.6152L54.834-26.8066L55.8105-25.6348L55.7129-27.0996L55.7129-51.5625Q55.7129-52.832 56.5674-53.6377Q57.4219-54.4434 58.6914-54.4434Q59.9121-54.4434 60.7178-53.6377Q61.5234-52.832 61.5234-51.5625L61.5234-27.1484L61.4746-25.6836L62.5-26.8066L66.2109-30.6152Q67.041-31.4453 68.2129-31.4453Q69.4824-31.4453 70.2881-30.6641Q71.0938-29.8828 71.0938-28.6133Q71.0938-27.5391 70.166-26.5137Z"/>
  </g>
  <g id="Light-S" transform="matrix(1 0 0 1 1107.6 696)">
   <path class="multicolor-0:tintColor hierarchical-0:tertiary SFSymbolsPreview007AFF" d="M45.5078 3.41797Q53.4668 3.41797 60.4736 0.415039Q67.4805-2.58789 72.8271-7.95898Q78.1738-13.3301 81.2012-20.3125Q84.2285-27.2949 84.2285-35.2539Q84.2285-43.2129 81.2012-50.1953Q78.1738-57.1777 72.8027-62.5488Q67.4316-67.9199 60.4492-70.9229Q53.4668-73.9258 45.459-73.9258Q37.5488-73.9258 30.542-70.9229Q23.5352-67.9199 18.2129-62.5488Q12.8906-57.1777 9.86328-50.1953Q6.83594-43.2129 6.83594-35.2539Q6.83594-27.2949 9.86328-20.3125Q12.8906-13.3301 18.2373-7.95898Q23.584-2.58789 30.5908 0.415039Q37.5977 3.41797 45.5078 3.41797Z"/>
   <path class="multicolor-1:white hierarchical-1:primary SFSymbolsPreviewFFFFFF" d="M31.7383-53.7598Q32.5195-54.4922 33.4717-54.4678Q34.4238-54.4434 35.1074-53.7598L45.0684-43.6523Q45.752-42.9688 45.752-41.9922Q45.752-41.0156 45.1172-40.3564Q44.4824-39.6973 43.5059-39.6973Q42.5293-39.6973 41.8945-40.3809L37.5488-44.8242L35.6445-46.875L35.7422-44.6777L35.7422-18.2617Q35.7422-17.2852 35.1074-16.6504Q34.4727-16.0156 33.4473-16.0156Q32.4707-16.0156 31.8115-16.6504Q31.1523-17.2852 31.1523-18.2617L31.1523-44.6777L31.25-46.875L29.3457-44.8242L25-40.4297Q24.3164-39.6973 23.3887-39.6973Q22.4121-39.6973 21.7529-40.3564Q21.0938-41.0156 21.0938-41.9922Q21.0938-42.7734 21.8262-43.6523ZM59.375-16.6992Q58.6914-16.0156 57.666-16.0156Q56.6406-16.0156 55.957-16.6992L45.9961-26.7578Q45.3613-27.5391 45.3613-28.4668Q45.3613-29.4922 45.9717-30.1025Q46.582-30.7129 47.5586-30.7129Q48.5352-30.7129 49.2188-30.0293L53.5645-25.6348L55.4199-23.584L55.3223-25.7324L55.3223-52.1973Q55.3223-53.1738 56.0059-53.8086Q56.6895-54.4434 57.666-54.4434Q58.6426-54.4434 59.2773-53.8086Q59.9121-53.1738 59.9121-52.1973L59.9121-25.7324L59.8633-23.6328L61.7676-25.6348L66.1133-30.0293Q66.7969-30.7129 67.7246-30.7129Q68.7012-30.7129 69.3604-30.0781Q70.0195-29.4434 70.0195-28.4668Q70.0195-27.5879 69.2383-26.7578Z"/>
  </g>
  <g id="Thin-S" transform="matrix(1 0 0 1 811.867 696)">
   <path class="multicolor-0:tintColor hierarchical-0:tertiary SFSymbolsPreview007AFF" d="M44.5312 2.44141Q52.3438 2.44141 59.1553-0.488281Q65.9668-3.41797 71.1914-8.64258Q76.416-13.8672 79.3457-20.6787Q82.2754-27.4902 82.2754-35.2539Q82.2754-43.0176 79.3457-49.8291Q76.416-56.6406 71.1914-61.8652Q65.9668-67.0898 59.1553-70.0195Q52.3438-72.9492 44.5312-72.9492Q36.7676-72.9492 29.9316-70.0195Q23.0957-67.0898 17.9199-61.8652Q12.7441-56.6406 9.79004-49.8291Q6.83594-43.0176 6.83594-35.2539Q6.83594-27.4902 9.79004-20.6787Q12.7441-13.8672 17.9199-8.64258Q23.0957-3.41797 29.9316-0.488281Q36.7676 2.44141 44.5312 2.44141Z"/>
   <path class="multicolor-1:white hierarchical-1:primary SFSymbolsPreviewFFFFFF" d="M31.7383-54.0527Q32.1777-54.4922 32.7881-54.4678Q33.3984-54.4434 33.8867-54.0527L44.5312-43.4082Q45.0195-42.9199 45.0195-42.2363Q45.0195-41.6016 44.6045-41.1865Q44.1895-40.7715 43.5547-40.7715Q42.9199-40.7715 42.4316-41.2598L37.2559-46.4844L34.1797-49.6094L34.2773-46.582L34.2773-17.4805Q34.2773-16.8945 33.8867-16.4551Q33.4961-16.0156 32.8613-16.0156Q32.2266-16.0156 31.7871-16.4551Q31.3477-16.8945 31.3477-17.4805L31.3477-46.582L31.3965-49.6094L28.3203-46.4844L23.1934-41.3086Q22.7051-40.7715 22.0703-40.7715Q21.4355-40.7715 21.0205-41.1865Q20.6055-41.6016 20.6055-42.2363Q20.6055-42.8223 21.0938-43.4082ZM57.373-16.4551Q56.9336-16.0156 56.2988-16.0156Q55.6641-16.0156 55.2246-16.4551L44.5312-27.0996Q44.0918-27.5879 44.0918-28.3203Q44.0918-28.9551 44.5068-29.3457Q44.9219-29.7363 45.5566-29.7363Q46.2402-29.7363 46.6797-29.248L51.8555-24.0234L54.9316-20.8984L54.834-23.877L54.834-53.0273Q54.834-53.6621 55.249-54.0771Q55.6641-54.4922 56.2988-54.4922Q56.8848-54.4922 57.3242-54.0771Q57.7637-53.6621 57.7637-53.0273L57.7637-23.9258L57.7148-20.8984L60.7422-24.0234L65.918-29.248Q66.4551-29.7363 67.0898-29.7363Q67.6758-29.7363 68.0908-29.3213Q68.5059-28.9062 68.5059-28.3203Q68.5059-27.6367 68.0176-27.0996Z"/>
  </g>
  <g id="Ultralight-S" transform="matrix(1 0 0 1 515.644 696)">
   <path class="multicolor-0:tintColor hierarchical-0:tertiary SFSymbolsPreview007AFF" d="M44.043 1.95312Q51.7578 1.95312 58.4717-0.927734Q65.1855-3.80859 70.3369-8.95996Q75.4883-14.1113 78.3936-20.8252Q81.2988-27.5391 81.2988-35.2539Q81.2988-42.9688 78.3936-49.6826Q75.4883-56.3965 70.3369-61.5479Q65.1855-66.6992 58.4717-69.5801Q51.7578-72.4609 44.043-72.4609Q36.377-72.4609 29.6387-69.5801Q22.9004-66.6992 17.7734-61.5479Q12.6465-56.3965 9.74121-49.6826Q6.83594-42.9688 6.83594-35.2539Q6.83594-27.5391 9.74121-20.8252Q12.6465-14.1113 17.7734-8.95996Q22.9004-3.80859 29.6387-0.927734Q36.377 1.95312 44.043 1.95312Z"/>
   <path class="multicolor-1:white hierarchical-1:primary SFSymbolsPreviewFFFFFF" d="M31.7383-54.1992Q32.0312-54.541 32.4707-54.5166Q32.9102-54.4922 33.252-54.1992L44.2871-43.2617Q44.6289-42.9199 44.6289-42.334Q44.6289-41.9434 44.3115-41.626Q43.9941-41.3086 43.6035-41.3086Q43.1152-41.3086 42.6758-41.748L37.1094-47.3145L33.4473-51.0254L33.5449-47.5586L33.5449-17.1387Q33.5449-16.6504 33.2764-16.3574Q33.0078-16.0645 32.5195-16.0645Q32.0801-16.0645 31.7627-16.3574Q31.4453-16.6504 31.4453-17.1387L31.4453-47.5586L31.543-51.0254L27.832-47.3145L22.3145-41.748Q21.875-41.3086 21.3867-41.3086Q20.9961-41.3086 20.6787-41.626Q20.3613-41.9434 20.3613-42.334Q20.3613-42.8711 20.752-43.2617ZM56.3477-16.3574Q56.0547-16.0645 55.6152-16.0645Q55.1758-16.0645 54.8828-16.3574L43.7988-27.2949Q43.5059-27.6367 43.5059-28.2227Q43.5059-28.6621 43.7744-28.9307Q44.043-29.1992 44.4824-29.1992Q45.0195-29.1992 45.4102-28.8574L50.9766-23.2422L54.6387-19.4824L54.541-22.9492L54.541-53.418Q54.541-53.8574 54.834-54.1748Q55.127-54.4922 55.5664-54.4922Q56.0059-54.4922 56.3477-54.1992Q56.6895-53.9062 56.6895-53.418L56.6895-22.9492L56.5918-19.5312L60.2539-23.2422L65.8203-28.8574Q66.3086-29.1992 66.748-29.1992Q67.1387-29.1992 67.4561-28.9062Q67.7734-28.6133 67.7734-28.2227Q67.7734-27.6855 67.3828-27.2949Z"/>
  </g>
 </g>
</svg>
